<?xml version="1.0" encoding="UTF-8" standalone="no"?>
<!DOCTYPE svg PUBLIC "-//W3C//DTD SVG 1.1//EN"
 "http://www.w3.org/Graphics/SVG/1.1/DTD/svg11.dtd">
<!-- Generated by graphviz version 2.40.1 (20161225.0304)
 -->
<!-- Title: compactRelationshipsDiagram Pages: 1 -->
<svg width="678pt" height="659pt"
 viewBox="0.00 0.00 678.00 659.20" xmlns="http://www.w3.org/2000/svg" xmlns:xlink="http://www.w3.org/1999/xlink">
<g id="graph0" class="graph" transform="scale(1 1) rotate(0) translate(4 655.2)">
<title>compactRelationshipsDiagram</title>
<polygon fill="#ffffff" stroke="transparent" points="-4,4 -4,-655.2 674,-655.2 674,4 -4,4"/>
<text text-anchor="middle" x="72.4936" y="-7.3" font-family="Helvetica,sans-Serif" font-size="11.00" fill="#000000">Generated by SchemaSpy</text>
<!-- animal -->
<g id="node1" class="node">
<title>animal</title>
<g id="a_node1"><a xlink:href="../../tables/animal.html" xlink:title="animal" target="_top">
<polygon fill="#ffffff" stroke="transparent" points="290,-394.2 290,-499.2 429,-499.2 429,-394.2 290,-394.2"/>
<polygon fill="#f5f5f5" stroke="transparent" points="290.5,-475.7 290.5,-498.7 429.5,-498.7 429.5,-475.7 290.5,-475.7"/>
<polygon fill="none" stroke="#000000" points="290.5,-475.7 290.5,-498.7 429.5,-498.7 429.5,-475.7 290.5,-475.7"/>
<text text-anchor="start" x="295.5" y="-484.8" font-family="Helvetica,sans-Serif" font-weight="bold" font-size="11.00" fill="#000000">animal</text>
<text text-anchor="start" x="394.5437" y="-483.8" font-family="Helvetica,sans-Serif" font-size="11.00" fill="#000000">[table]</text>
<polygon fill="none" stroke="#000000" points="290.5,-453.7 290.5,-475.7 429.5,-475.7 429.5,-453.7 290.5,-453.7"/>
<image xlink:href="../../images/primaryKeys.png" width="11px" height="12px" preserveAspectRatio="xMinYMin meet" x="295.5" y="-470.7"/>
<text text-anchor="start" x="310.5" y="-460.8" font-family="Helvetica,sans-Serif" font-size="11.00" fill="#000000">id</text>
<polygon fill="none" stroke="#000000" points="290.5,-431.7 290.5,-453.7 429.5,-453.7 429.5,-431.7 290.5,-431.7"/>
<image xlink:href="../../images/foreignKeys.png" width="11px" height="12px" preserveAspectRatio="xMinYMin meet" x="295.5" y="-448.7"/>
<text text-anchor="start" x="310.5" y="-438.8" font-family="Helvetica,sans-Serif" font-size="11.00" fill="#000000">instituicao_id</text>
<polygon fill="none" stroke="#000000" points="290.5,-412.7 290.5,-431.7 429.5,-431.7 429.5,-412.7 290.5,-412.7"/>
<text text-anchor="start" x="293.5" y="-418.8" font-family="Helvetica,sans-Serif" font-size="11.00" fill="#000000">...</text>
<polygon fill="#ffffff" stroke="transparent" points="290.5,-393.7 290.5,-412.7 340.5,-412.7 340.5,-393.7 290.5,-393.7"/>
<polygon fill="none" stroke="#000000" points="290.5,-393.7 290.5,-412.7 340.5,-412.7 340.5,-393.7 290.5,-393.7"/>
<text text-anchor="start" x="293.5" y="-399.8" font-family="Helvetica,sans-Serif" font-size="11.00" fill="#000000">&lt; 1</text>
<polygon fill="#ffffff" stroke="transparent" points="340.5,-393.7 340.5,-412.7 393.5,-412.7 393.5,-393.7 340.5,-393.7"/>
<polygon fill="none" stroke="#000000" points="340.5,-393.7 340.5,-412.7 393.5,-412.7 393.5,-393.7 340.5,-393.7"/>
<text text-anchor="start" x="358.1105" y="-399.8" font-family="Helvetica,sans-Serif" font-size="11.00" fill="#000000">0 rows</text>
<polygon fill="#ffffff" stroke="transparent" points="393.5,-393.7 393.5,-412.7 429.5,-412.7 429.5,-393.7 393.5,-393.7"/>
<polygon fill="none" stroke="#000000" points="393.5,-393.7 393.5,-412.7 429.5,-412.7 429.5,-393.7 393.5,-393.7"/>
<text text-anchor="start" x="410.9053" y="-399.8" font-family="Helvetica,sans-Serif" font-size="11.00" fill="#000000">2 &gt;</text>
</a>
</g>
</g>
<!-- instituicao -->
<g id="node6" class="node">
<title>instituicao</title>
<g id="a_node6"><a xlink:href="../../tables/instituicao.html" xlink:title="instituicao" target="_top">
<polygon fill="#ffffff" stroke="transparent" points="146,-235.2 146,-406.2 241,-406.2 241,-235.2 146,-235.2"/>
<polygon fill="#f5f5f5" stroke="transparent" points="146.5,-382.7 146.5,-405.7 241.5,-405.7 241.5,-382.7 146.5,-382.7"/>
<polygon fill="none" stroke="#000000" points="146.5,-382.7 146.5,-405.7 241.5,-405.7 241.5,-382.7 146.5,-382.7"/>
<text text-anchor="start" x="151.5" y="-391.8" font-family="Helvetica,sans-Serif" font-weight="bold" font-size="11.00" fill="#000000">instituicao</text>
<text text-anchor="start" x="206.5437" y="-390.8" font-family="Helvetica,sans-Serif" font-size="11.00" fill="#000000">[table]</text>
<polygon fill="none" stroke="#000000" points="146.5,-360.7 146.5,-382.7 241.5,-382.7 241.5,-360.7 146.5,-360.7"/>
<image xlink:href="../../images/primaryKeys.png" width="11px" height="12px" preserveAspectRatio="xMinYMin meet" x="151.5" y="-377.7"/>
<text text-anchor="start" x="166.5" y="-367.8" font-family="Helvetica,sans-Serif" font-size="11.00" fill="#000000">usuario_id</text>
<polygon fill="#ffffff" stroke="transparent" points="146.5,-338.7 146.5,-360.7 241.5,-360.7 241.5,-338.7 146.5,-338.7"/>
<polygon fill="none" stroke="#000000" points="146.5,-338.7 146.5,-360.7 241.5,-360.7 241.5,-338.7 146.5,-338.7"/>
<text text-anchor="start" x="166.5" y="-345.8" font-family="Helvetica,sans-Serif" font-size="11.00" fill="#000000">telefone</text>
<polygon fill="#ffffff" stroke="transparent" points="146.5,-316.7 146.5,-338.7 241.5,-338.7 241.5,-316.7 146.5,-316.7"/>
<polygon fill="none" stroke="#000000" points="146.5,-316.7 146.5,-338.7 241.5,-338.7 241.5,-316.7 146.5,-316.7"/>
<text text-anchor="start" x="166.5" y="-323.8" font-family="Helvetica,sans-Serif" font-size="11.00" fill="#000000">cnpj</text>
<polygon fill="#ffffff" stroke="transparent" points="146.5,-294.7 146.5,-316.7 241.5,-316.7 241.5,-294.7 146.5,-294.7"/>
<polygon fill="none" stroke="#000000" points="146.5,-294.7 146.5,-316.7 241.5,-316.7 241.5,-294.7 146.5,-294.7"/>
<text text-anchor="start" x="166.5" y="-301.8" font-family="Helvetica,sans-Serif" font-size="11.00" fill="#000000">cpf</text>
<polygon fill="none" stroke="#000000" points="146.5,-272.7 146.5,-294.7 241.5,-294.7 241.5,-272.7 146.5,-272.7"/>
<image xlink:href="../../images/foreignKeys.png" width="11px" height="12px" preserveAspectRatio="xMinYMin meet" x="151.5" y="-289.7"/>
<text text-anchor="start" x="166.5" y="-279.8" font-family="Helvetica,sans-Serif" font-size="11.00" fill="#000000">municipio_id</text>
<polygon fill="none" stroke="#000000" points="146.5,-253.7 146.5,-272.7 241.5,-272.7 241.5,-253.7 146.5,-253.7"/>
<text text-anchor="start" x="149.5" y="-259.8" font-family="Helvetica,sans-Serif" font-size="11.00" fill="#000000">...</text>
<polygon fill="#ffffff" stroke="transparent" points="146.5,-234.7 146.5,-253.7 174.5,-253.7 174.5,-234.7 146.5,-234.7"/>
<polygon fill="none" stroke="#000000" points="146.5,-234.7 146.5,-253.7 174.5,-253.7 174.5,-234.7 146.5,-234.7"/>
<text text-anchor="start" x="149.5" y="-240.8" font-family="Helvetica,sans-Serif" font-size="11.00" fill="#000000">&lt; 2</text>
<polygon fill="#ffffff" stroke="transparent" points="174.5,-234.7 174.5,-253.7 216.5,-253.7 216.5,-234.7 174.5,-234.7"/>
<polygon fill="none" stroke="#000000" points="174.5,-234.7 174.5,-253.7 216.5,-253.7 216.5,-234.7 174.5,-234.7"/>
<text text-anchor="start" x="181.1105" y="-240.8" font-family="Helvetica,sans-Serif" font-size="11.00" fill="#000000">0 rows</text>
<polygon fill="#ffffff" stroke="transparent" points="216.5,-234.7 216.5,-253.7 241.5,-253.7 241.5,-234.7 216.5,-234.7"/>
<polygon fill="none" stroke="#000000" points="216.5,-234.7 216.5,-253.7 241.5,-253.7 241.5,-234.7 216.5,-234.7"/>
<text text-anchor="start" x="222.9053" y="-240.8" font-family="Helvetica,sans-Serif" font-size="11.00" fill="#000000">2 &gt;</text>
</a>
</g>
</g>
<!-- animal&#45;&gt;instituicao -->
<g id="edge1" class="edge">
<title>animal:w&#45;&gt;instituicao:e</title>
<path fill="none" stroke="#000000" d="M276.8596,-438.0415C259.1978,-422.2459 273.8501,-371.7 241.5,-371.7"/>
<polygon fill="#000000" stroke="#000000" points="282.9293,-440.1144 289.3365,-446.1068 286.7147,-441.4072 290.5,-442.7 290.5,-442.7 290.5,-442.7 286.7147,-441.4072 291.6635,-439.2932 282.9293,-440.1144 282.9293,-440.1144"/>
<ellipse fill="none" stroke="#000000" cx="279.9011" cy="-439.0802" rx="3.2" ry="3.2"/>
</g>
<!-- arquivo_animal -->
<g id="node2" class="node">
<title>arquivo_animal</title>
<g id="a_node2"><a xlink:href="../../tables/arquivo_animal.html" xlink:title="arquivo_animal" target="_top">
<polygon fill="#ffffff" stroke="transparent" points="511.5,-542.2 511.5,-647.2 628.5,-647.2 628.5,-542.2 511.5,-542.2"/>
<polygon fill="#f5f5f5" stroke="transparent" points="512,-623.7 512,-646.7 629,-646.7 629,-623.7 512,-623.7"/>
<polygon fill="none" stroke="#000000" points="512,-623.7 512,-646.7 629,-646.7 629,-623.7 512,-623.7"/>
<text text-anchor="start" x="516.7171" y="-632.8" font-family="Helvetica,sans-Serif" font-weight="bold" font-size="11.00" fill="#000000">arquivo_animal</text>
<text text-anchor="start" x="594.5219" y="-631.8" font-family="Helvetica,sans-Serif" font-size="11.00" fill="#000000">[table]</text>
<polygon fill="none" stroke="#000000" points="512,-601.7 512,-623.7 629,-623.7 629,-601.7 512,-601.7"/>
<image xlink:href="../../images/primaryKeys.png" width="11px" height="12px" preserveAspectRatio="xMinYMin meet" x="517" y="-618.7"/>
<text text-anchor="start" x="536" y="-608.8" font-family="Helvetica,sans-Serif" font-size="11.00" fill="#000000">id</text>
<polygon fill="none" stroke="#000000" points="512,-579.7 512,-601.7 629,-601.7 629,-579.7 512,-579.7"/>
<image xlink:href="../../images/foreignKeys.png" width="11px" height="12px" preserveAspectRatio="xMinYMin meet" x="517" y="-596.7"/>
<text text-anchor="start" x="536" y="-586.8" font-family="Helvetica,sans-Serif" font-size="11.00" fill="#000000">animal_id</text>
<polygon fill="none" stroke="#000000" points="512,-560.7 512,-579.7 629,-579.7 629,-560.7 512,-560.7"/>
<text text-anchor="start" x="515" y="-566.8" font-family="Helvetica,sans-Serif" font-size="11.00" fill="#000000">...</text>
<polygon fill="#ffffff" stroke="transparent" points="512,-541.7 512,-560.7 556,-560.7 556,-541.7 512,-541.7"/>
<polygon fill="none" stroke="#000000" points="512,-541.7 512,-560.7 556,-560.7 556,-541.7 512,-541.7"/>
<text text-anchor="start" x="515" y="-547.8" font-family="Helvetica,sans-Serif" font-size="11.00" fill="#000000">&lt; 1</text>
<polygon fill="#ffffff" stroke="transparent" points="556,-541.7 556,-560.7 605,-560.7 605,-541.7 556,-541.7"/>
<polygon fill="none" stroke="#000000" points="556,-541.7 556,-560.7 605,-560.7 605,-541.7 556,-541.7"/>
<text text-anchor="start" x="569.6105" y="-547.8" font-family="Helvetica,sans-Serif" font-size="11.00" fill="#000000">0 rows</text>
<polygon fill="#ffffff" stroke="transparent" points="605,-541.7 605,-560.7 629,-560.7 629,-541.7 605,-541.7"/>
<polygon fill="none" stroke="#000000" points="605,-541.7 605,-560.7 629,-560.7 629,-541.7 605,-541.7"/>
<text text-anchor="start" x="619.8862" y="-547.8" font-family="Helvetica,sans-Serif" font-size="11.00" fill="#000000"> &#160;</text>
</a>
</g>
</g>
<!-- arquivo_animal&#45;&gt;animal -->
<g id="edge2" class="edge">
<title>arquivo_animal:w&#45;&gt;animal:e</title>
<path fill="none" stroke="#000000" d="M497.6858,-587.5606C481.8618,-578.8463 484.3579,-553.5588 470,-531.7 450.8971,-502.6174 464.2953,-464.7 429.5,-464.7"/>
<polygon fill="#000000" stroke="#000000" points="504.1857,-588.9861 511.2288,-594.2164 508.0929,-589.8431 512,-590.7 512,-590.7 512,-590.7 508.0929,-589.8431 512.7712,-587.1836 504.1857,-588.9861 504.1857,-588.9861"/>
<ellipse fill="none" stroke="#000000" cx="501.06" cy="-588.3006" rx="3.2" ry="3.2"/>
</g>
<!-- arquivo_campanha -->
<g id="node3" class="node">
<title>arquivo_campanha</title>
<g id="a_node3"><a xlink:href="../../tables/arquivo_campanha.html" xlink:title="arquivo_campanha" target="_top">
<polygon fill="#ffffff" stroke="transparent" points="502,-164.2 502,-269.2 638,-269.2 638,-164.2 502,-164.2"/>
<polygon fill="#f5f5f5" stroke="transparent" points="502,-245.7 502,-268.7 638,-268.7 638,-245.7 502,-245.7"/>
<polygon fill="none" stroke="#000000" points="502,-245.7 502,-268.7 638,-268.7 638,-245.7 502,-245.7"/>
<text text-anchor="start" x="506.7357" y="-254.8" font-family="Helvetica,sans-Serif" font-weight="bold" font-size="11.00" fill="#000000">arquivo_campanha</text>
<text text-anchor="start" x="603.5219" y="-253.8" font-family="Helvetica,sans-Serif" font-size="11.00" fill="#000000">[table]</text>
<polygon fill="none" stroke="#000000" points="502,-223.7 502,-245.7 638,-245.7 638,-223.7 502,-223.7"/>
<image xlink:href="../../images/primaryKeys.png" width="11px" height="12px" preserveAspectRatio="xMinYMin meet" x="507" y="-240.7"/>
<text text-anchor="start" x="525" y="-230.8" font-family="Helvetica,sans-Serif" font-size="11.00" fill="#000000">id</text>
<polygon fill="none" stroke="#000000" points="502,-201.7 502,-223.7 638,-223.7 638,-201.7 502,-201.7"/>
<image xlink:href="../../images/foreignKeys.png" width="11px" height="12px" preserveAspectRatio="xMinYMin meet" x="507" y="-218.7"/>
<text text-anchor="start" x="525" y="-208.8" font-family="Helvetica,sans-Serif" font-size="11.00" fill="#000000">campanha_id</text>
<polygon fill="none" stroke="#000000" points="502,-182.7 502,-201.7 638,-201.7 638,-182.7 502,-182.7"/>
<text text-anchor="start" x="505" y="-188.8" font-family="Helvetica,sans-Serif" font-size="11.00" fill="#000000">...</text>
<polygon fill="#ffffff" stroke="transparent" points="502,-163.7 502,-182.7 555,-182.7 555,-163.7 502,-163.7"/>
<polygon fill="none" stroke="#000000" points="502,-163.7 502,-182.7 555,-182.7 555,-163.7 502,-163.7"/>
<text text-anchor="start" x="505" y="-169.8" font-family="Helvetica,sans-Serif" font-size="11.00" fill="#000000">&lt; 1</text>
<polygon fill="#ffffff" stroke="transparent" points="555,-163.7 555,-182.7 609,-182.7 609,-163.7 555,-163.7"/>
<polygon fill="none" stroke="#000000" points="555,-163.7 555,-182.7 609,-182.7 609,-163.7 555,-163.7"/>
<text text-anchor="start" x="573.6105" y="-169.8" font-family="Helvetica,sans-Serif" font-size="11.00" fill="#000000">0 rows</text>
<polygon fill="#ffffff" stroke="transparent" points="609,-163.7 609,-182.7 638,-182.7 638,-163.7 609,-163.7"/>
<polygon fill="none" stroke="#000000" points="609,-163.7 609,-182.7 638,-182.7 638,-163.7 609,-163.7"/>
<text text-anchor="start" x="628.8862" y="-169.8" font-family="Helvetica,sans-Serif" font-size="11.00" fill="#000000"> &#160;</text>
</a>
</g>
</g>
<!-- campanha -->
<g id="node4" class="node">
<title>campanha</title>
<g id="a_node4"><a xlink:href="../../tables/campanha.html" xlink:title="campanha" target="_top">
<polygon fill="#ffffff" stroke="transparent" points="310.5,-166.2 310.5,-271.2 408.5,-271.2 408.5,-166.2 310.5,-166.2"/>
<polygon fill="#f5f5f5" stroke="transparent" points="310.5,-247.7 310.5,-270.7 408.5,-270.7 408.5,-247.7 310.5,-247.7"/>
<polygon fill="none" stroke="#000000" points="310.5,-247.7 310.5,-270.7 408.5,-270.7 408.5,-247.7 310.5,-247.7"/>
<text text-anchor="start" x="315.5" y="-256.8" font-family="Helvetica,sans-Serif" font-weight="bold" font-size="11.00" fill="#000000">campanha</text>
<text text-anchor="start" x="373.5437" y="-255.8" font-family="Helvetica,sans-Serif" font-size="11.00" fill="#000000">[table]</text>
<polygon fill="none" stroke="#000000" points="310.5,-225.7 310.5,-247.7 408.5,-247.7 408.5,-225.7 310.5,-225.7"/>
<image xlink:href="../../images/primaryKeys.png" width="11px" height="12px" preserveAspectRatio="xMinYMin meet" x="315.5" y="-242.7"/>
<text text-anchor="start" x="330.5" y="-232.8" font-family="Helvetica,sans-Serif" font-size="11.00" fill="#000000">id</text>
<polygon fill="none" stroke="#000000" points="310.5,-203.7 310.5,-225.7 408.5,-225.7 408.5,-203.7 310.5,-203.7"/>
<image xlink:href="../../images/foreignKeys.png" width="11px" height="12px" preserveAspectRatio="xMinYMin meet" x="315.5" y="-220.7"/>
<text text-anchor="start" x="330.5" y="-210.8" font-family="Helvetica,sans-Serif" font-size="11.00" fill="#000000">instituicao_id</text>
<polygon fill="none" stroke="#000000" points="310.5,-184.7 310.5,-203.7 408.5,-203.7 408.5,-184.7 310.5,-184.7"/>
<text text-anchor="start" x="313.5" y="-190.8" font-family="Helvetica,sans-Serif" font-size="11.00" fill="#000000">...</text>
<polygon fill="#ffffff" stroke="transparent" points="310.5,-165.7 310.5,-184.7 340.5,-184.7 340.5,-165.7 310.5,-165.7"/>
<polygon fill="none" stroke="#000000" points="310.5,-165.7 310.5,-184.7 340.5,-184.7 340.5,-165.7 310.5,-165.7"/>
<text text-anchor="start" x="313.5" y="-171.8" font-family="Helvetica,sans-Serif" font-size="11.00" fill="#000000">&lt; 1</text>
<polygon fill="#ffffff" stroke="transparent" points="340.5,-165.7 340.5,-184.7 382.5,-184.7 382.5,-165.7 340.5,-165.7"/>
<polygon fill="none" stroke="#000000" points="340.5,-165.7 340.5,-184.7 382.5,-184.7 382.5,-165.7 340.5,-165.7"/>
<text text-anchor="start" x="347.1105" y="-171.8" font-family="Helvetica,sans-Serif" font-size="11.00" fill="#000000">0 rows</text>
<polygon fill="#ffffff" stroke="transparent" points="382.5,-165.7 382.5,-184.7 408.5,-184.7 408.5,-165.7 382.5,-165.7"/>
<polygon fill="none" stroke="#000000" points="382.5,-165.7 382.5,-184.7 408.5,-184.7 408.5,-165.7 382.5,-165.7"/>
<text text-anchor="start" x="389.9053" y="-171.8" font-family="Helvetica,sans-Serif" font-size="11.00" fill="#000000">3 &gt;</text>
</a>
</g>
</g>
<!-- arquivo_campanha&#45;&gt;campanha -->
<g id="edge3" class="edge">
<title>arquivo_campanha:w&#45;&gt;campanha:e</title>
<path fill="none" stroke="#000000" d="M487.4243,-213.7313C456.6235,-218.325 446.0399,-236.7 408.5,-236.7"/>
<polygon fill="#000000" stroke="#000000" points="494.0199,-213.2647 502.2541,-216.291 498.01,-212.9823 502,-212.7 502,-212.7 502,-212.7 498.01,-212.9823 501.7459,-209.109 494.0199,-213.2647 494.0199,-213.2647"/>
<ellipse fill="none" stroke="#000000" cx="490.8279" cy="-213.4905" rx="3.2" ry="3.2"/>
</g>
<!-- campanha&#45;&gt;instituicao -->
<g id="edge4" class="edge">
<title>campanha:w&#45;&gt;instituicao:e</title>
<path fill="none" stroke="#000000" d="M296.0371,-217.1661C245.7866,-237.1399 312.0624,-371.7 241.5,-371.7"/>
<polygon fill="#000000" stroke="#000000" points="302.6138,-216.0447 311.1051,-218.2488 306.5569,-215.3724 310.5,-214.7 310.5,-214.7 310.5,-214.7 306.5569,-215.3724 309.8949,-211.1512 302.6138,-216.0447 302.6138,-216.0447"/>
<ellipse fill="none" stroke="#000000" cx="299.4593" cy="-216.5826" rx="3.2" ry="3.2"/>
</g>
<!-- formulario -->
<g id="node5" class="node">
<title>formulario</title>
<g id="a_node5"><a xlink:href="../../tables/formulario.html" xlink:title="formulario" target="_top">
<polygon fill="#ffffff" stroke="transparent" points="521.5,-290.2 521.5,-395.2 618.5,-395.2 618.5,-290.2 521.5,-290.2"/>
<polygon fill="#f5f5f5" stroke="transparent" points="522,-371.7 522,-394.7 619,-394.7 619,-371.7 522,-371.7"/>
<polygon fill="none" stroke="#000000" points="522,-371.7 522,-394.7 619,-394.7 619,-371.7 522,-371.7"/>
<text text-anchor="start" x="527" y="-380.8" font-family="Helvetica,sans-Serif" font-weight="bold" font-size="11.00" fill="#000000">formulario</text>
<text text-anchor="start" x="584.0437" y="-379.8" font-family="Helvetica,sans-Serif" font-size="11.00" fill="#000000">[table]</text>
<polygon fill="none" stroke="#000000" points="522,-349.7 522,-371.7 619,-371.7 619,-349.7 522,-349.7"/>
<image xlink:href="../../images/primaryKeys.png" width="11px" height="12px" preserveAspectRatio="xMinYMin meet" x="527" y="-366.7"/>
<text text-anchor="start" x="542" y="-356.8" font-family="Helvetica,sans-Serif" font-size="11.00" fill="#000000">id</text>
<polygon fill="none" stroke="#000000" points="522,-327.7 522,-349.7 619,-349.7 619,-327.7 522,-327.7"/>
<image xlink:href="../../images/foreignKeys.png" width="11px" height="12px" preserveAspectRatio="xMinYMin meet" x="527" y="-344.7"/>
<text text-anchor="start" x="542" y="-334.8" font-family="Helvetica,sans-Serif" font-size="11.00" fill="#000000">campanha_id</text>
<polygon fill="none" stroke="#000000" points="522,-308.7 522,-327.7 619,-327.7 619,-308.7 522,-308.7"/>
<text text-anchor="start" x="525" y="-314.8" font-family="Helvetica,sans-Serif" font-size="11.00" fill="#000000">...</text>
<polygon fill="#ffffff" stroke="transparent" points="522,-289.7 522,-308.7 556,-308.7 556,-289.7 522,-289.7"/>
<polygon fill="none" stroke="#000000" points="522,-289.7 522,-308.7 556,-308.7 556,-289.7 522,-289.7"/>
<text text-anchor="start" x="525" y="-295.8" font-family="Helvetica,sans-Serif" font-size="11.00" fill="#000000">&lt; 1</text>
<polygon fill="#ffffff" stroke="transparent" points="556,-289.7 556,-308.7 600,-308.7 600,-289.7 556,-289.7"/>
<polygon fill="none" stroke="#000000" points="556,-289.7 556,-308.7 600,-308.7 600,-289.7 556,-289.7"/>
<text text-anchor="start" x="564.6105" y="-295.8" font-family="Helvetica,sans-Serif" font-size="11.00" fill="#000000">0 rows</text>
<polygon fill="#ffffff" stroke="transparent" points="600,-289.7 600,-308.7 619,-308.7 619,-289.7 600,-289.7"/>
<polygon fill="none" stroke="#000000" points="600,-289.7 600,-308.7 619,-308.7 619,-289.7 600,-289.7"/>
<text text-anchor="start" x="609.8862" y="-295.8" font-family="Helvetica,sans-Serif" font-size="11.00" fill="#000000"> &#160;</text>
</a>
</g>
</g>
<!-- formulario&#45;&gt;campanha -->
<g id="edge5" class="edge">
<title>formulario:w&#45;&gt;campanha:e</title>
<path fill="none" stroke="#000000" d="M507.6658,-336.9296C457.0893,-323.3851 471.0229,-236.7 408.5,-236.7"/>
<polygon fill="#000000" stroke="#000000" points="514.0603,-337.7193 521.5587,-342.2729 518.0302,-338.2097 522,-338.7 522,-338.7 522,-338.7 518.0302,-338.2097 522.4413,-335.1271 514.0603,-337.7193 514.0603,-337.7193"/>
<ellipse fill="none" stroke="#000000" cx="510.8845" cy="-337.3271" rx="3.2" ry="3.2"/>
</g>
<!-- municipio -->
<g id="node7" class="node">
<title>municipio</title>
<g id="a_node7"><a xlink:href="../../tables/municipio.html" xlink:title="municipio" target="_top">
<polygon fill="#ffffff" stroke="transparent" points="8,-105.7 8,-213.7 97,-213.7 97,-105.7 8,-105.7"/>
<polygon fill="#f5f5f5" stroke="transparent" points="8.5,-190.7 8.5,-213.7 97.5,-213.7 97.5,-190.7 8.5,-190.7"/>
<polygon fill="none" stroke="#000000" points="8.5,-190.7 8.5,-213.7 97.5,-213.7 97.5,-190.7 8.5,-190.7"/>
<text text-anchor="start" x="13.2779" y="-199.8" font-family="Helvetica,sans-Serif" font-weight="bold" font-size="11.00" fill="#000000">municipio</text>
<text text-anchor="start" x="63.0219" y="-198.8" font-family="Helvetica,sans-Serif" font-size="11.00" fill="#000000">[table]</text>
<polygon fill="none" stroke="#000000" points="8.5,-168.7 8.5,-190.7 97.5,-190.7 97.5,-168.7 8.5,-168.7"/>
<image xlink:href="../../images/primaryKeys.png" width="11px" height="12px" preserveAspectRatio="xMinYMin meet" x="13.5" y="-185.7"/>
<text text-anchor="start" x="34.5" y="-175.8" font-family="Helvetica,sans-Serif" font-size="11.00" fill="#000000">id</text>
<polygon fill="#ffffff" stroke="transparent" points="8.5,-146.7 8.5,-168.7 97.5,-168.7 97.5,-146.7 8.5,-146.7"/>
<polygon fill="none" stroke="#000000" points="8.5,-146.7 8.5,-168.7 97.5,-168.7 97.5,-146.7 8.5,-146.7"/>
<text text-anchor="start" x="34.5" y="-153.8" font-family="Helvetica,sans-Serif" font-size="11.00" fill="#000000">uf</text>
<polygon fill="#ffffff" stroke="transparent" points="8.5,-124.7 8.5,-146.7 97.5,-146.7 97.5,-124.7 8.5,-124.7"/>
<polygon fill="none" stroke="#000000" points="8.5,-124.7 8.5,-146.7 97.5,-146.7 97.5,-124.7 8.5,-124.7"/>
<text text-anchor="start" x="34.5" y="-131.8" font-family="Helvetica,sans-Serif" font-size="11.00" fill="#000000">nome</text>
<polygon fill="#ffffff" stroke="transparent" points="8.5,-105.7 8.5,-124.7 29.5,-124.7 29.5,-105.7 8.5,-105.7"/>
<polygon fill="none" stroke="#000000" points="8.5,-105.7 8.5,-124.7 29.5,-124.7 29.5,-105.7 8.5,-105.7"/>
<text text-anchor="start" x="11.5" y="-111.8" font-family="Helvetica,sans-Serif" font-size="11.00" fill="#000000"> &#160;</text>
<polygon fill="#ffffff" stroke="transparent" points="29.5,-105.7 29.5,-124.7 71.5,-124.7 71.5,-105.7 29.5,-105.7"/>
<polygon fill="none" stroke="#000000" points="29.5,-105.7 29.5,-124.7 71.5,-124.7 71.5,-105.7 29.5,-105.7"/>
<text text-anchor="start" x="36.1105" y="-111.8" font-family="Helvetica,sans-Serif" font-size="11.00" fill="#000000">0 rows</text>
<polygon fill="#ffffff" stroke="transparent" points="71.5,-105.7 71.5,-124.7 97.5,-124.7 97.5,-105.7 71.5,-105.7"/>
<polygon fill="none" stroke="#000000" points="71.5,-105.7 71.5,-124.7 97.5,-124.7 97.5,-105.7 71.5,-105.7"/>
<text text-anchor="start" x="78.9053" y="-111.8" font-family="Helvetica,sans-Serif" font-size="11.00" fill="#000000">2 &gt;</text>
</a>
</g>
</g>
<!-- instituicao&#45;&gt;municipio -->
<g id="edge6" class="edge">
<title>instituicao:w&#45;&gt;municipio:e</title>
<path fill="none" stroke="#000000" d="M132.4975,-279.7501C106.4389,-260.7532 142.6079,-179.7 97.5,-179.7"/>
<polygon fill="#000000" stroke="#000000" points="138.8005,-281.528 145.5226,-287.1648 142.6502,-282.614 146.5,-283.7 146.5,-283.7 146.5,-283.7 142.6502,-282.614 147.4774,-280.2352 138.8005,-281.528 138.8005,-281.528"/>
<ellipse fill="none" stroke="#000000" cx="135.7207" cy="-280.6592" rx="3.2" ry="3.2"/>
</g>
<!-- usuario -->
<g id="node11" class="node">
<title>usuario</title>
<g id="a_node11"><a xlink:href="../../tables/usuario.html" xlink:title="usuario" target="_top">
<polygon fill="#ffffff" stroke="transparent" points="13,-257.2 13,-384.2 92,-384.2 92,-257.2 13,-257.2"/>
<polygon fill="#f5f5f5" stroke="transparent" points="13.5,-360.7 13.5,-383.7 92.5,-383.7 92.5,-360.7 13.5,-360.7"/>
<polygon fill="none" stroke="#000000" points="13.5,-360.7 13.5,-383.7 92.5,-383.7 92.5,-360.7 13.5,-360.7"/>
<text text-anchor="start" x="18.4688" y="-369.8" font-family="Helvetica,sans-Serif" font-weight="bold" font-size="11.00" fill="#000000">usuario</text>
<text text-anchor="start" x="58.0219" y="-368.8" font-family="Helvetica,sans-Serif" font-size="11.00" fill="#000000">[table]</text>
<polygon fill="none" stroke="#000000" points="13.5,-338.7 13.5,-360.7 92.5,-360.7 92.5,-338.7 13.5,-338.7"/>
<image xlink:href="../../images/primaryKeys.png" width="11px" height="12px" preserveAspectRatio="xMinYMin meet" x="18.5" y="-355.7"/>
<text text-anchor="start" x="38.5" y="-345.8" font-family="Helvetica,sans-Serif" font-size="11.00" fill="#000000">id</text>
<polygon fill="#ffffff" stroke="transparent" points="13.5,-316.7 13.5,-338.7 92.5,-338.7 92.5,-316.7 13.5,-316.7"/>
<polygon fill="none" stroke="#000000" points="13.5,-316.7 13.5,-338.7 92.5,-338.7 92.5,-316.7 13.5,-316.7"/>
<text text-anchor="start" x="38.5" y="-323.8" font-family="Helvetica,sans-Serif" font-size="11.00" fill="#000000">email</text>
<polygon fill="#ffffff" stroke="transparent" points="13.5,-294.7 13.5,-316.7 92.5,-316.7 92.5,-294.7 13.5,-294.7"/>
<polygon fill="none" stroke="#000000" points="13.5,-294.7 13.5,-316.7 92.5,-316.7 92.5,-294.7 13.5,-294.7"/>
<text text-anchor="start" x="38.5" y="-301.8" font-family="Helvetica,sans-Serif" font-size="11.00" fill="#000000">celular</text>
<polygon fill="none" stroke="#000000" points="13.5,-275.7 13.5,-294.7 92.5,-294.7 92.5,-275.7 13.5,-275.7"/>
<text text-anchor="start" x="16.5" y="-281.8" font-family="Helvetica,sans-Serif" font-size="11.00" fill="#000000">...</text>
<polygon fill="#ffffff" stroke="transparent" points="13.5,-256.7 13.5,-275.7 29.5,-275.7 29.5,-256.7 13.5,-256.7"/>
<polygon fill="none" stroke="#000000" points="13.5,-256.7 13.5,-275.7 29.5,-275.7 29.5,-256.7 13.5,-256.7"/>
<text text-anchor="start" x="16.5" y="-262.8" font-family="Helvetica,sans-Serif" font-size="11.00" fill="#000000"> &#160;</text>
<polygon fill="#ffffff" stroke="transparent" points="29.5,-256.7 29.5,-275.7 69.5,-275.7 69.5,-256.7 29.5,-256.7"/>
<polygon fill="none" stroke="#000000" points="29.5,-256.7 29.5,-275.7 69.5,-275.7 69.5,-256.7 29.5,-256.7"/>
<text text-anchor="start" x="34.1105" y="-262.8" font-family="Helvetica,sans-Serif" font-size="11.00" fill="#000000">0 rows</text>
<polygon fill="#ffffff" stroke="transparent" points="69.5,-256.7 69.5,-275.7 92.5,-275.7 92.5,-256.7 69.5,-256.7"/>
<polygon fill="none" stroke="#000000" points="69.5,-256.7 69.5,-275.7 92.5,-275.7 92.5,-256.7 69.5,-256.7"/>
<text text-anchor="start" x="73.9053" y="-262.8" font-family="Helvetica,sans-Serif" font-size="11.00" fill="#000000">2 &gt;</text>
</a>
</g>
</g>
<!-- instituicao&#45;&gt;usuario -->
<g id="edge7" class="edge">
<title>instituicao:w&#45;&gt;usuario:e</title>
<path fill="none" stroke="#000000" d="M135.9102,-370.2565C119.327,-365.3621 114.3661,-349.7 92.5,-349.7"/>
<polygon fill="#000000" stroke="#000000" points="146.2476,-367.6286 145.1671,-375.5553 143.5817,-375.3392 144.6623,-367.4125 146.2476,-367.6286"/>
<polyline fill="none" stroke="#000000" points="146.5,-371.7 142.5367,-371.1597 "/>
<ellipse fill="none" stroke="#000000" cx="139.366" cy="-370.7275" rx="3.2" ry="3.2"/>
</g>
<!-- pessoa -->
<g id="node8" class="node">
<title>pessoa</title>
<g id="a_node8"><a xlink:href="../../tables/pessoa.html" xlink:title="pessoa" target="_top">
<polygon fill="#ffffff" stroke="transparent" points="146,-87.2 146,-214.2 241,-214.2 241,-87.2 146,-87.2"/>
<polygon fill="#f5f5f5" stroke="transparent" points="146.5,-190.7 146.5,-213.7 241.5,-213.7 241.5,-190.7 146.5,-190.7"/>
<polygon fill="none" stroke="#000000" points="146.5,-190.7 146.5,-213.7 241.5,-213.7 241.5,-190.7 146.5,-190.7"/>
<text text-anchor="start" x="151.5" y="-199.8" font-family="Helvetica,sans-Serif" font-weight="bold" font-size="11.00" fill="#000000">pessoa</text>
<text text-anchor="start" x="206.5437" y="-198.8" font-family="Helvetica,sans-Serif" font-size="11.00" fill="#000000">[table]</text>
<polygon fill="none" stroke="#000000" points="146.5,-168.7 146.5,-190.7 241.5,-190.7 241.5,-168.7 146.5,-168.7"/>
<image xlink:href="../../images/primaryKeys.png" width="11px" height="12px" preserveAspectRatio="xMinYMin meet" x="151.5" y="-185.7"/>
<text text-anchor="start" x="166.5" y="-175.8" font-family="Helvetica,sans-Serif" font-size="11.00" fill="#000000">usuario_id</text>
<polygon fill="#ffffff" stroke="transparent" points="146.5,-146.7 146.5,-168.7 241.5,-168.7 241.5,-146.7 146.5,-146.7"/>
<polygon fill="none" stroke="#000000" points="146.5,-146.7 146.5,-168.7 241.5,-168.7 241.5,-146.7 146.5,-146.7"/>
<text text-anchor="start" x="166.5" y="-153.8" font-family="Helvetica,sans-Serif" font-size="11.00" fill="#000000">telefone</text>
<polygon fill="none" stroke="#000000" points="146.5,-124.7 146.5,-146.7 241.5,-146.7 241.5,-124.7 146.5,-124.7"/>
<image xlink:href="../../images/foreignKeys.png" width="11px" height="12px" preserveAspectRatio="xMinYMin meet" x="151.5" y="-141.7"/>
<text text-anchor="start" x="166.5" y="-131.8" font-family="Helvetica,sans-Serif" font-size="11.00" fill="#000000">municipio_id</text>
<polygon fill="none" stroke="#000000" points="146.5,-105.7 146.5,-124.7 241.5,-124.7 241.5,-105.7 146.5,-105.7"/>
<text text-anchor="start" x="149.5" y="-111.8" font-family="Helvetica,sans-Serif" font-size="11.00" fill="#000000">...</text>
<polygon fill="#ffffff" stroke="transparent" points="146.5,-86.7 146.5,-105.7 174.5,-105.7 174.5,-86.7 146.5,-86.7"/>
<polygon fill="none" stroke="#000000" points="146.5,-86.7 146.5,-105.7 174.5,-105.7 174.5,-86.7 146.5,-86.7"/>
<text text-anchor="start" x="149.5" y="-92.8" font-family="Helvetica,sans-Serif" font-size="11.00" fill="#000000">&lt; 2</text>
<polygon fill="#ffffff" stroke="transparent" points="174.5,-86.7 174.5,-105.7 216.5,-105.7 216.5,-86.7 174.5,-86.7"/>
<polygon fill="none" stroke="#000000" points="174.5,-86.7 174.5,-105.7 216.5,-105.7 216.5,-86.7 174.5,-86.7"/>
<text text-anchor="start" x="181.1105" y="-92.8" font-family="Helvetica,sans-Serif" font-size="11.00" fill="#000000">0 rows</text>
<polygon fill="#ffffff" stroke="transparent" points="216.5,-86.7 216.5,-105.7 241.5,-105.7 241.5,-86.7 216.5,-86.7"/>
<polygon fill="none" stroke="#000000" points="216.5,-86.7 216.5,-105.7 241.5,-105.7 241.5,-86.7 216.5,-86.7"/>
<text text-anchor="start" x="222.9053" y="-92.8" font-family="Helvetica,sans-Serif" font-size="11.00" fill="#000000">2 &gt;</text>
</a>
</g>
</g>
<!-- pessoa&#45;&gt;municipio -->
<g id="edge8" class="edge">
<title>pessoa:w&#45;&gt;municipio:e</title>
<path fill="none" stroke="#000000" d="M132.8171,-140.4088C119.5046,-151.7596 120.824,-179.7 97.5,-179.7"/>
<polygon fill="#000000" stroke="#000000" points="138.9354,-138.3033 147.6715,-139.1041 142.7177,-137.0016 146.5,-135.7 146.5,-135.7 146.5,-135.7 142.7177,-137.0016 145.3285,-132.2959 138.9354,-138.3033 138.9354,-138.3033"/>
<ellipse fill="none" stroke="#000000" cx="135.9096" cy="-139.3446" rx="3.2" ry="3.2"/>
</g>
<!-- pessoa&#45;&gt;usuario -->
<g id="edge9" class="edge">
<title>pessoa:w&#45;&gt;usuario:e</title>
<path fill="none" stroke="#000000" d="M136.1594,-180.8764C76.9961,-195.8963 167.9048,-349.7 92.5,-349.7"/>
<polygon fill="#000000" stroke="#000000" points="145.253,-175.8161 146.1573,-183.7648 144.5675,-183.9457 143.6632,-175.9969 145.253,-175.8161"/>
<polyline fill="none" stroke="#000000" points="146.5,-179.7 142.5256,-180.1522 "/>
<ellipse fill="none" stroke="#000000" cx="139.3461" cy="-180.5139" rx="3.2" ry="3.2"/>
</g>
<!-- pessoa_cadastra_campanha -->
<g id="node9" class="node">
<title>pessoa_cadastra_campanha</title>
<g id="a_node9"><a xlink:href="../../tables/pessoa_cadastra_campanha.html" xlink:title="pessoa_cadastra_campanha" target="_top">
<polygon fill="#ffffff" stroke="transparent" points="478,-38.2 478,-143.2 662,-143.2 662,-38.2 478,-38.2"/>
<polygon fill="#f5f5f5" stroke="transparent" points="478,-119.7 478,-142.7 662,-142.7 662,-119.7 478,-119.7"/>
<polygon fill="none" stroke="#000000" points="478,-119.7 478,-142.7 662,-142.7 662,-119.7 478,-119.7"/>
<text text-anchor="start" x="482.8905" y="-128.8" font-family="Helvetica,sans-Serif" font-weight="bold" font-size="11.00" fill="#000000">pessoa_cadastra_campanha</text>
<text text-anchor="start" x="627.5219" y="-127.8" font-family="Helvetica,sans-Serif" font-size="11.00" fill="#000000">[table]</text>
<polygon fill="#ffffff" stroke="transparent" points="478,-97.7 478,-119.7 662,-119.7 662,-97.7 478,-97.7"/>
<polygon fill="none" stroke="#000000" points="478,-97.7 478,-119.7 662,-119.7 662,-97.7 478,-97.7"/>
<image xlink:href="../../images/foreignKeys.png" width="11px" height="12px" preserveAspectRatio="xMinYMin meet" x="483" y="-114.7"/>
<text text-anchor="start" x="498" y="-104.8" font-family="Helvetica,sans-Serif" font-size="11.00" fill="#000000">pessoa_id</text>
<polygon fill="#ffffff" stroke="transparent" points="478,-75.7 478,-97.7 662,-97.7 662,-75.7 478,-75.7"/>
<polygon fill="none" stroke="#000000" points="478,-75.7 478,-97.7 662,-97.7 662,-75.7 478,-75.7"/>
<image xlink:href="../../images/foreignKeys.png" width="11px" height="12px" preserveAspectRatio="xMinYMin meet" x="483" y="-92.7"/>
<text text-anchor="start" x="498" y="-82.8" font-family="Helvetica,sans-Serif" font-size="11.00" fill="#000000">campanha_id</text>
<polygon fill="none" stroke="#000000" points="478,-56.7 478,-75.7 662,-75.7 662,-56.7 478,-56.7"/>
<text text-anchor="start" x="481" y="-62.8" font-family="Helvetica,sans-Serif" font-size="11.00" fill="#000000">...</text>
<polygon fill="#ffffff" stroke="transparent" points="478,-37.7 478,-56.7 555,-56.7 555,-37.7 478,-37.7"/>
<polygon fill="none" stroke="#000000" points="478,-37.7 478,-56.7 555,-56.7 555,-37.7 478,-37.7"/>
<text text-anchor="start" x="481" y="-43.8" font-family="Helvetica,sans-Serif" font-size="11.00" fill="#000000">&lt; 2</text>
<polygon fill="#ffffff" stroke="transparent" points="555,-37.7 555,-56.7 621,-56.7 621,-37.7 555,-37.7"/>
<polygon fill="none" stroke="#000000" points="555,-37.7 555,-56.7 621,-56.7 621,-37.7 555,-37.7"/>
<text text-anchor="start" x="585.6105" y="-43.8" font-family="Helvetica,sans-Serif" font-size="11.00" fill="#000000">0 rows</text>
<polygon fill="#ffffff" stroke="transparent" points="621,-37.7 621,-56.7 662,-56.7 662,-37.7 621,-37.7"/>
<polygon fill="none" stroke="#000000" points="621,-37.7 621,-56.7 662,-56.7 662,-37.7 621,-37.7"/>
<text text-anchor="start" x="652.8862" y="-43.8" font-family="Helvetica,sans-Serif" font-size="11.00" fill="#000000"> &#160;</text>
</a>
</g>
</g>
<!-- pessoa_cadastra_campanha&#45;&gt;campanha -->
<g id="edge10" class="edge">
<title>pessoa_cadastra_campanha:w&#45;&gt;campanha:e</title>
<path fill="none" stroke="#000000" d="M463.7035,-89.1784C415.4484,-108.6812 476.3782,-236.7 408.5,-236.7"/>
<polygon fill="#000000" stroke="#000000" points="470.1176,-88.0665 478.6149,-90.2471 474.0588,-87.3833 478,-86.7 478,-86.7 478,-86.7 474.0588,-87.3833 477.3851,-83.1529 470.1176,-88.0665 470.1176,-88.0665"/>
<ellipse fill="none" stroke="#000000" cx="466.9646" cy="-88.6131" rx="3.2" ry="3.2"/>
</g>
<!-- pessoa_cadastra_campanha&#45;&gt;pessoa -->
<g id="edge11" class="edge">
<title>pessoa_cadastra_campanha:w&#45;&gt;pessoa:e</title>
<path fill="none" stroke="#000000" d="M463.3924,-108.8297C385.5772,-110.2768 360.3158,-123.9507 282,-155.7 262.6097,-163.5609 262.4231,-179.7 241.5,-179.7"/>
<polygon fill="#000000" stroke="#000000" points="470.0003,-108.7711 478.032,-112.2999 474.0002,-108.7355 478,-108.7 478,-108.7 478,-108.7 474.0002,-108.7355 477.968,-105.1001 470.0003,-108.7711 470.0003,-108.7711"/>
<ellipse fill="none" stroke="#000000" cx="466.8004" cy="-108.7995" rx="3.2" ry="3.2"/>
</g>
<!-- pessoa_interessa_animal -->
<g id="node10" class="node">
<title>pessoa_interessa_animal</title>
<g id="a_node10"><a xlink:href="../../tables/pessoa_interessa_animal.html" xlink:title="pessoa_interessa_animal" target="_top">
<polygon fill="#ffffff" stroke="transparent" points="486.5,-416.2 486.5,-521.2 653.5,-521.2 653.5,-416.2 486.5,-416.2"/>
<polygon fill="#f5f5f5" stroke="transparent" points="487,-497.7 487,-520.7 654,-520.7 654,-497.7 487,-497.7"/>
<polygon fill="none" stroke="#000000" points="487,-497.7 487,-520.7 654,-520.7 654,-497.7 487,-497.7"/>
<text text-anchor="start" x="491.6515" y="-506.8" font-family="Helvetica,sans-Serif" font-weight="bold" font-size="11.00" fill="#000000">pessoa_interessa_animal</text>
<text text-anchor="start" x="619.5219" y="-505.8" font-family="Helvetica,sans-Serif" font-size="11.00" fill="#000000">[table]</text>
<polygon fill="#ffffff" stroke="transparent" points="487,-475.7 487,-497.7 654,-497.7 654,-475.7 487,-475.7"/>
<polygon fill="none" stroke="#000000" points="487,-475.7 487,-497.7 654,-497.7 654,-475.7 487,-475.7"/>
<image xlink:href="../../images/foreignKeys.png" width="11px" height="12px" preserveAspectRatio="xMinYMin meet" x="492" y="-492.7"/>
<text text-anchor="start" x="508" y="-482.8" font-family="Helvetica,sans-Serif" font-size="11.00" fill="#000000">pessoa_id</text>
<polygon fill="#ffffff" stroke="transparent" points="487,-453.7 487,-475.7 654,-475.7 654,-453.7 487,-453.7"/>
<polygon fill="none" stroke="#000000" points="487,-453.7 487,-475.7 654,-475.7 654,-453.7 487,-453.7"/>
<image xlink:href="../../images/foreignKeys.png" width="11px" height="12px" preserveAspectRatio="xMinYMin meet" x="492" y="-470.7"/>
<text text-anchor="start" x="508" y="-460.8" font-family="Helvetica,sans-Serif" font-size="11.00" fill="#000000">animal_id</text>
<polygon fill="none" stroke="#000000" points="487,-434.7 487,-453.7 654,-453.7 654,-434.7 487,-434.7"/>
<text text-anchor="start" x="490" y="-440.8" font-family="Helvetica,sans-Serif" font-size="11.00" fill="#000000">...</text>
<polygon fill="#ffffff" stroke="transparent" points="487,-415.7 487,-434.7 556,-434.7 556,-415.7 487,-415.7"/>
<polygon fill="none" stroke="#000000" points="487,-415.7 487,-434.7 556,-434.7 556,-415.7 487,-415.7"/>
<text text-anchor="start" x="490" y="-421.8" font-family="Helvetica,sans-Serif" font-size="11.00" fill="#000000">&lt; 2</text>
<polygon fill="#ffffff" stroke="transparent" points="556,-415.7 556,-434.7 618,-434.7 618,-415.7 556,-415.7"/>
<polygon fill="none" stroke="#000000" points="556,-415.7 556,-434.7 618,-434.7 618,-415.7 556,-415.7"/>
<text text-anchor="start" x="582.6105" y="-421.8" font-family="Helvetica,sans-Serif" font-size="11.00" fill="#000000">0 rows</text>
<polygon fill="#ffffff" stroke="transparent" points="618,-415.7 618,-434.7 654,-434.7 654,-415.7 618,-415.7"/>
<polygon fill="none" stroke="#000000" points="618,-415.7 618,-434.7 654,-434.7 654,-415.7 618,-415.7"/>
<text text-anchor="start" x="644.8862" y="-421.8" font-family="Helvetica,sans-Serif" font-size="11.00" fill="#000000"> &#160;</text>
</a>
</g>
</g>
<!-- pessoa_interessa_animal&#45;&gt;animal -->
<g id="edge12" class="edge">
<title>pessoa_interessa_animal:w&#45;&gt;animal:e</title>
<path fill="none" stroke="#000000" d="M472.5794,-464.7C457.7322,-464.7 449.4653,-464.7 429.5,-464.7"/>
<polygon fill="#000000" stroke="#000000" points="479,-464.7001 487,-468.3 483,-464.7 487,-464.7 487,-464.7 487,-464.7 483,-464.7 487,-461.1 479,-464.7001 479,-464.7001"/>
<ellipse fill="none" stroke="#000000" cx="475.8" cy="-464.7001" rx="3.2" ry="3.2"/>
</g>
<!-- pessoa_interessa_animal&#45;&gt;pessoa -->
<g id="edge13" class="edge">
<title>pessoa_interessa_animal:w&#45;&gt;pessoa:e</title>
<path fill="none" stroke="#000000" d="M472.769,-484.3397C443.0466,-472.3691 466.7646,-417.6125 437,-383.7 382.6008,-321.72 334.0704,-345.6489 282,-281.7 251.2022,-243.8766 290.2761,-179.7 241.5,-179.7"/>
<polygon fill="#000000" stroke="#000000" points="479.1078,-485.391 486.411,-490.2515 483.0539,-486.0455 487,-486.7 487,-486.7 487,-486.7 483.0539,-486.0455 487.589,-483.1485 479.1078,-485.391 479.1078,-485.391"/>
<ellipse fill="none" stroke="#000000" cx="475.9509" cy="-484.8674" rx="3.2" ry="3.2"/>
</g>
</g>
</svg>
