<?xml version="1.0" encoding="UTF-8" standalone="no"?>
<!DOCTYPE svg PUBLIC "-//W3C//DTD SVG 1.1//EN"
 "http://www.w3.org/Graphics/SVG/1.1/DTD/svg11.dtd">
<!-- Generated by graphviz version 2.40.1 (20161225.0304)
 -->
<!-- Title: largeRelationshipsDiagram Pages: 1 -->
<svg width="680pt" height="717pt"
 viewBox="0.00 0.00 680.00 717.20" xmlns="http://www.w3.org/2000/svg" xmlns:xlink="http://www.w3.org/1999/xlink">
<g id="graph0" class="graph" transform="scale(1 1) rotate(0) translate(4 713.2)">
<title>largeRelationshipsDiagram</title>
<polygon fill="#ffffff" stroke="transparent" points="-4,4 -4,-713.2 676,-713.2 676,4 -4,4"/>
<text text-anchor="middle" x="72.4936" y="-7.3" font-family="Helvetica,sans-Serif" font-size="11.00" fill="#000000">Generated by SchemaSpy</text>
<!-- animal -->
<g id="node1" class="node">
<title>animal</title>
<g id="a_node1"><a xlink:href="../../tables/animal.html" xlink:title="animal" target="_top">
<polygon fill="#ffffff" stroke="transparent" points="292,-341.2 292,-625.2 431,-625.2 431,-341.2 292,-341.2"/>
<polygon fill="#f5f5f5" stroke="transparent" points="292.5,-602.2 292.5,-625.2 431.5,-625.2 431.5,-602.2 292.5,-602.2"/>
<polygon fill="none" stroke="#000000" points="292.5,-602.2 292.5,-625.2 431.5,-625.2 431.5,-602.2 292.5,-602.2"/>
<text text-anchor="start" x="297.5" y="-611.3" font-family="Helvetica,sans-Serif" font-weight="bold" font-size="11.00" fill="#000000">animal</text>
<text text-anchor="start" x="396.5437" y="-610.3" font-family="Helvetica,sans-Serif" font-size="11.00" fill="#000000">[table]</text>
<polygon fill="none" stroke="#000000" points="292.5,-580.2 292.5,-602.2 431.5,-602.2 431.5,-580.2 292.5,-580.2"/>
<image xlink:href="../../images/primaryKeys.png" width="11px" height="12px" preserveAspectRatio="xMinYMin meet" x="297.5" y="-597.2"/>
<text text-anchor="start" x="312.5" y="-587.3" font-family="Helvetica,sans-Serif" font-size="11.00" fill="#000000">id</text>
<polygon fill="none" stroke="#000000" points="292.5,-558.2 292.5,-580.2 431.5,-580.2 431.5,-558.2 292.5,-558.2"/>
<text text-anchor="start" x="312.5" y="-565.3" font-family="Helvetica,sans-Serif" font-size="11.00" fill="#000000">tipo</text>
<polygon fill="none" stroke="#000000" points="292.5,-536.2 292.5,-558.2 431.5,-558.2 431.5,-536.2 292.5,-536.2"/>
<text text-anchor="start" x="312.5" y="-543.3" font-family="Helvetica,sans-Serif" font-size="11.00" fill="#000000">sexo</text>
<polygon fill="none" stroke="#000000" points="292.5,-514.2 292.5,-536.2 431.5,-536.2 431.5,-514.2 292.5,-514.2"/>
<text text-anchor="start" x="312.5" y="-521.3" font-family="Helvetica,sans-Serif" font-size="11.00" fill="#000000">peso</text>
<polygon fill="none" stroke="#000000" points="292.5,-492.2 292.5,-514.2 431.5,-514.2 431.5,-492.2 292.5,-492.2"/>
<text text-anchor="start" x="312.5" y="-499.3" font-family="Helvetica,sans-Serif" font-size="11.00" fill="#000000">porte</text>
<polygon fill="none" stroke="#000000" points="292.5,-470.2 292.5,-492.2 431.5,-492.2 431.5,-470.2 292.5,-470.2"/>
<text text-anchor="start" x="312.5" y="-477.3" font-family="Helvetica,sans-Serif" font-size="11.00" fill="#000000">raca</text>
<polygon fill="none" stroke="#000000" points="292.5,-448.2 292.5,-470.2 431.5,-470.2 431.5,-448.2 292.5,-448.2"/>
<text text-anchor="start" x="312.5" y="-455.3" font-family="Helvetica,sans-Serif" font-size="11.00" fill="#000000">situacao_adocao</text>
<polygon fill="none" stroke="#000000" points="292.5,-426.2 292.5,-448.2 431.5,-448.2 431.5,-426.2 292.5,-426.2"/>
<text text-anchor="start" x="312.5" y="-433.3" font-family="Helvetica,sans-Serif" font-size="11.00" fill="#000000">temperamento</text>
<polygon fill="none" stroke="#000000" points="292.5,-404.2 292.5,-426.2 431.5,-426.2 431.5,-404.2 292.5,-404.2"/>
<text text-anchor="start" x="312.5" y="-411.3" font-family="Helvetica,sans-Serif" font-size="11.00" fill="#000000">pelagem_primaria</text>
<polygon fill="none" stroke="#000000" points="292.5,-382.2 292.5,-404.2 431.5,-404.2 431.5,-382.2 292.5,-382.2"/>
<text text-anchor="start" x="312.5" y="-389.3" font-family="Helvetica,sans-Serif" font-size="11.00" fill="#000000">pelagem_secundaria</text>
<polygon fill="none" stroke="#000000" points="292.5,-360.2 292.5,-382.2 431.5,-382.2 431.5,-360.2 292.5,-360.2"/>
<image xlink:href="../../images/foreignKeys.png" width="11px" height="12px" preserveAspectRatio="xMinYMin meet" x="297.5" y="-377.2"/>
<text text-anchor="start" x="312.5" y="-367.3" font-family="Helvetica,sans-Serif" font-size="11.00" fill="#000000">instituicao_id</text>
<polygon fill="#ffffff" stroke="transparent" points="292.5,-341.2 292.5,-360.2 342.5,-360.2 342.5,-341.2 292.5,-341.2"/>
<polygon fill="none" stroke="#000000" points="292.5,-341.2 292.5,-360.2 342.5,-360.2 342.5,-341.2 292.5,-341.2"/>
<text text-anchor="start" x="295.5" y="-347.3" font-family="Helvetica,sans-Serif" font-size="11.00" fill="#000000">&lt; 1</text>
<polygon fill="#ffffff" stroke="transparent" points="342.5,-341.2 342.5,-360.2 395.5,-360.2 395.5,-341.2 342.5,-341.2"/>
<polygon fill="none" stroke="#000000" points="342.5,-341.2 342.5,-360.2 395.5,-360.2 395.5,-341.2 342.5,-341.2"/>
<text text-anchor="start" x="360.1105" y="-347.3" font-family="Helvetica,sans-Serif" font-size="11.00" fill="#000000">0 rows</text>
<polygon fill="#ffffff" stroke="transparent" points="395.5,-341.2 395.5,-360.2 431.5,-360.2 431.5,-341.2 395.5,-341.2"/>
<polygon fill="none" stroke="#000000" points="395.5,-341.2 395.5,-360.2 431.5,-360.2 431.5,-341.2 395.5,-341.2"/>
<text text-anchor="start" x="412.9053" y="-347.3" font-family="Helvetica,sans-Serif" font-size="11.00" fill="#000000">2 &gt;</text>
</a>
</g>
</g>
<!-- instituicao -->
<g id="node6" class="node">
<title>instituicao</title>
<g id="a_node6"><a xlink:href="../../tables/instituicao.html" xlink:title="instituicao" target="_top">
<polygon fill="#ffffff" stroke="transparent" points="147,-174.2 147,-392.2 242,-392.2 242,-174.2 147,-174.2"/>
<polygon fill="#f5f5f5" stroke="transparent" points="147.5,-369.2 147.5,-392.2 242.5,-392.2 242.5,-369.2 147.5,-369.2"/>
<polygon fill="none" stroke="#000000" points="147.5,-369.2 147.5,-392.2 242.5,-392.2 242.5,-369.2 147.5,-369.2"/>
<text text-anchor="start" x="152.5" y="-378.3" font-family="Helvetica,sans-Serif" font-weight="bold" font-size="11.00" fill="#000000">instituicao</text>
<text text-anchor="start" x="207.5437" y="-377.3" font-family="Helvetica,sans-Serif" font-size="11.00" fill="#000000">[table]</text>
<polygon fill="none" stroke="#000000" points="147.5,-347.2 147.5,-369.2 242.5,-369.2 242.5,-347.2 147.5,-347.2"/>
<image xlink:href="../../images/primaryKeys.png" width="11px" height="12px" preserveAspectRatio="xMinYMin meet" x="152.5" y="-364.2"/>
<text text-anchor="start" x="167.5" y="-354.3" font-family="Helvetica,sans-Serif" font-size="11.00" fill="#000000">usuario_id</text>
<polygon fill="#ffffff" stroke="transparent" points="147.5,-325.2 147.5,-347.2 242.5,-347.2 242.5,-325.2 147.5,-325.2"/>
<polygon fill="none" stroke="#000000" points="147.5,-325.2 147.5,-347.2 242.5,-347.2 242.5,-325.2 147.5,-325.2"/>
<text text-anchor="start" x="167.5" y="-332.3" font-family="Helvetica,sans-Serif" font-size="11.00" fill="#000000">telefone</text>
<polygon fill="#ffffff" stroke="transparent" points="147.5,-303.2 147.5,-325.2 242.5,-325.2 242.5,-303.2 147.5,-303.2"/>
<polygon fill="none" stroke="#000000" points="147.5,-303.2 147.5,-325.2 242.5,-325.2 242.5,-303.2 147.5,-303.2"/>
<text text-anchor="start" x="167.5" y="-310.3" font-family="Helvetica,sans-Serif" font-size="11.00" fill="#000000">cnpj</text>
<polygon fill="none" stroke="#000000" points="147.5,-281.2 147.5,-303.2 242.5,-303.2 242.5,-281.2 147.5,-281.2"/>
<text text-anchor="start" x="167.5" y="-288.3" font-family="Helvetica,sans-Serif" font-size="11.00" fill="#000000">logradouro</text>
<polygon fill="none" stroke="#000000" points="147.5,-259.2 147.5,-281.2 242.5,-281.2 242.5,-259.2 147.5,-259.2"/>
<text text-anchor="start" x="167.5" y="-266.3" font-family="Helvetica,sans-Serif" font-size="11.00" fill="#000000">numero</text>
<polygon fill="none" stroke="#000000" points="147.5,-237.2 147.5,-259.2 242.5,-259.2 242.5,-237.2 147.5,-237.2"/>
<text text-anchor="start" x="167.5" y="-244.3" font-family="Helvetica,sans-Serif" font-size="11.00" fill="#000000">cep</text>
<polygon fill="#ffffff" stroke="transparent" points="147.5,-215.2 147.5,-237.2 242.5,-237.2 242.5,-215.2 147.5,-215.2"/>
<polygon fill="none" stroke="#000000" points="147.5,-215.2 147.5,-237.2 242.5,-237.2 242.5,-215.2 147.5,-215.2"/>
<text text-anchor="start" x="167.5" y="-222.3" font-family="Helvetica,sans-Serif" font-size="11.00" fill="#000000">cpf</text>
<polygon fill="none" stroke="#000000" points="147.5,-193.2 147.5,-215.2 242.5,-215.2 242.5,-193.2 147.5,-193.2"/>
<image xlink:href="../../images/foreignKeys.png" width="11px" height="12px" preserveAspectRatio="xMinYMin meet" x="152.5" y="-210.2"/>
<text text-anchor="start" x="167.5" y="-200.3" font-family="Helvetica,sans-Serif" font-size="11.00" fill="#000000">municipio_id</text>
<polygon fill="#ffffff" stroke="transparent" points="147.5,-174.2 147.5,-193.2 175.5,-193.2 175.5,-174.2 147.5,-174.2"/>
<polygon fill="none" stroke="#000000" points="147.5,-174.2 147.5,-193.2 175.5,-193.2 175.5,-174.2 147.5,-174.2"/>
<text text-anchor="start" x="150.5" y="-180.3" font-family="Helvetica,sans-Serif" font-size="11.00" fill="#000000">&lt; 2</text>
<polygon fill="#ffffff" stroke="transparent" points="175.5,-174.2 175.5,-193.2 217.5,-193.2 217.5,-174.2 175.5,-174.2"/>
<polygon fill="none" stroke="#000000" points="175.5,-174.2 175.5,-193.2 217.5,-193.2 217.5,-174.2 175.5,-174.2"/>
<text text-anchor="start" x="182.1105" y="-180.3" font-family="Helvetica,sans-Serif" font-size="11.00" fill="#000000">0 rows</text>
<polygon fill="#ffffff" stroke="transparent" points="217.5,-174.2 217.5,-193.2 242.5,-193.2 242.5,-174.2 217.5,-174.2"/>
<polygon fill="none" stroke="#000000" points="217.5,-174.2 217.5,-193.2 242.5,-193.2 242.5,-174.2 217.5,-174.2"/>
<text text-anchor="start" x="223.9053" y="-180.3" font-family="Helvetica,sans-Serif" font-size="11.00" fill="#000000">2 &gt;</text>
</a>
</g>
</g>
<!-- animal&#45;&gt;instituicao -->
<g id="edge1" class="edge">
<title>animal:w&#45;&gt;instituicao:e</title>
<path fill="none" stroke="#000000" d="M278.2297,-369.1688C266.3198,-365.5125 259.7208,-358.2 242.5,-358.2"/>
<polygon fill="#000000" stroke="#000000" points="284.5798,-370.0726 291.9927,-374.7641 288.5399,-370.6363 292.5,-371.2 292.5,-371.2 292.5,-371.2 288.5399,-370.6363 293.0073,-367.6359 284.5798,-370.0726 284.5798,-370.0726"/>
<ellipse fill="none" stroke="#000000" cx="281.4118" cy="-369.6216" rx="3.2" ry="3.2"/>
</g>
<!-- arquivo_animal -->
<g id="node2" class="node">
<title>arquivo_animal</title>
<g id="a_node2"><a xlink:href="../../tables/arquivo_animal.html" xlink:title="arquivo_animal" target="_top">
<polygon fill="#ffffff" stroke="transparent" points="513.5,-446.2 513.5,-554.2 630.5,-554.2 630.5,-446.2 513.5,-446.2"/>
<polygon fill="#f5f5f5" stroke="transparent" points="514,-531.2 514,-554.2 631,-554.2 631,-531.2 514,-531.2"/>
<polygon fill="none" stroke="#000000" points="514,-531.2 514,-554.2 631,-554.2 631,-531.2 514,-531.2"/>
<text text-anchor="start" x="518.7171" y="-540.3" font-family="Helvetica,sans-Serif" font-weight="bold" font-size="11.00" fill="#000000">arquivo_animal</text>
<text text-anchor="start" x="596.5219" y="-539.3" font-family="Helvetica,sans-Serif" font-size="11.00" fill="#000000">[table]</text>
<polygon fill="none" stroke="#000000" points="514,-509.2 514,-531.2 631,-531.2 631,-509.2 514,-509.2"/>
<image xlink:href="../../images/primaryKeys.png" width="11px" height="12px" preserveAspectRatio="xMinYMin meet" x="519" y="-526.2"/>
<text text-anchor="start" x="538" y="-516.3" font-family="Helvetica,sans-Serif" font-size="11.00" fill="#000000">id</text>
<polygon fill="none" stroke="#000000" points="514,-487.2 514,-509.2 631,-509.2 631,-487.2 514,-487.2"/>
<image xlink:href="../../images/foreignKeys.png" width="11px" height="12px" preserveAspectRatio="xMinYMin meet" x="519" y="-504.2"/>
<text text-anchor="start" x="538" y="-494.3" font-family="Helvetica,sans-Serif" font-size="11.00" fill="#000000">animal_id</text>
<polygon fill="none" stroke="#000000" points="514,-465.2 514,-487.2 631,-487.2 631,-465.2 514,-465.2"/>
<text text-anchor="start" x="538" y="-472.3" font-family="Helvetica,sans-Serif" font-size="11.00" fill="#000000">fotos</text>
<polygon fill="#ffffff" stroke="transparent" points="514,-446.2 514,-465.2 558,-465.2 558,-446.2 514,-446.2"/>
<polygon fill="none" stroke="#000000" points="514,-446.2 514,-465.2 558,-465.2 558,-446.2 514,-446.2"/>
<text text-anchor="start" x="517" y="-452.3" font-family="Helvetica,sans-Serif" font-size="11.00" fill="#000000">&lt; 1</text>
<polygon fill="#ffffff" stroke="transparent" points="558,-446.2 558,-465.2 607,-465.2 607,-446.2 558,-446.2"/>
<polygon fill="none" stroke="#000000" points="558,-446.2 558,-465.2 607,-465.2 607,-446.2 558,-446.2"/>
<text text-anchor="start" x="571.6105" y="-452.3" font-family="Helvetica,sans-Serif" font-size="11.00" fill="#000000">0 rows</text>
<polygon fill="#ffffff" stroke="transparent" points="607,-446.2 607,-465.2 631,-465.2 631,-446.2 607,-446.2"/>
<polygon fill="none" stroke="#000000" points="607,-446.2 607,-465.2 631,-465.2 631,-446.2 607,-446.2"/>
<text text-anchor="start" x="621.8862" y="-452.3" font-family="Helvetica,sans-Serif" font-size="11.00" fill="#000000"> &#160;</text>
</a>
</g>
</g>
<!-- arquivo_animal&#45;&gt;animal -->
<g id="edge2" class="edge">
<title>arquivo_animal:w&#45;&gt;animal:e</title>
<path fill="none" stroke="#000000" d="M499.5671,-500.883C463.5769,-516.1313 481.1413,-591.2 431.5,-591.2"/>
<polygon fill="#000000" stroke="#000000" points="506.1347,-499.6622 514.658,-501.7394 510.0674,-498.9311 514,-498.2 514,-498.2 514,-498.2 510.0674,-498.9311 513.342,-494.6606 506.1347,-499.6622 506.1347,-499.6622"/>
<ellipse fill="none" stroke="#000000" cx="502.9886" cy="-500.247" rx="3.2" ry="3.2"/>
</g>
<!-- arquivo_campanha -->
<g id="node3" class="node">
<title>arquivo_campanha</title>
<g id="a_node3"><a xlink:href="../../tables/arquivo_campanha.html" xlink:title="arquivo_campanha" target="_top">
<polygon fill="#ffffff" stroke="transparent" points="504,-92.2 504,-200.2 640,-200.2 640,-92.2 504,-92.2"/>
<polygon fill="#f5f5f5" stroke="transparent" points="504,-177.2 504,-200.2 640,-200.2 640,-177.2 504,-177.2"/>
<polygon fill="none" stroke="#000000" points="504,-177.2 504,-200.2 640,-200.2 640,-177.2 504,-177.2"/>
<text text-anchor="start" x="508.7357" y="-186.3" font-family="Helvetica,sans-Serif" font-weight="bold" font-size="11.00" fill="#000000">arquivo_campanha</text>
<text text-anchor="start" x="605.5219" y="-185.3" font-family="Helvetica,sans-Serif" font-size="11.00" fill="#000000">[table]</text>
<polygon fill="none" stroke="#000000" points="504,-155.2 504,-177.2 640,-177.2 640,-155.2 504,-155.2"/>
<image xlink:href="../../images/primaryKeys.png" width="11px" height="12px" preserveAspectRatio="xMinYMin meet" x="509" y="-172.2"/>
<text text-anchor="start" x="527" y="-162.3" font-family="Helvetica,sans-Serif" font-size="11.00" fill="#000000">id</text>
<polygon fill="none" stroke="#000000" points="504,-133.2 504,-155.2 640,-155.2 640,-133.2 504,-133.2"/>
<image xlink:href="../../images/foreignKeys.png" width="11px" height="12px" preserveAspectRatio="xMinYMin meet" x="509" y="-150.2"/>
<text text-anchor="start" x="527" y="-140.3" font-family="Helvetica,sans-Serif" font-size="11.00" fill="#000000">campanha_id</text>
<polygon fill="none" stroke="#000000" points="504,-111.2 504,-133.2 640,-133.2 640,-111.2 504,-111.2"/>
<text text-anchor="start" x="527" y="-118.3" font-family="Helvetica,sans-Serif" font-size="11.00" fill="#000000">fotos</text>
<polygon fill="#ffffff" stroke="transparent" points="504,-92.2 504,-111.2 557,-111.2 557,-92.2 504,-92.2"/>
<polygon fill="none" stroke="#000000" points="504,-92.2 504,-111.2 557,-111.2 557,-92.2 504,-92.2"/>
<text text-anchor="start" x="507" y="-98.3" font-family="Helvetica,sans-Serif" font-size="11.00" fill="#000000">&lt; 1</text>
<polygon fill="#ffffff" stroke="transparent" points="557,-92.2 557,-111.2 611,-111.2 611,-92.2 557,-92.2"/>
<polygon fill="none" stroke="#000000" points="557,-92.2 557,-111.2 611,-111.2 611,-92.2 557,-92.2"/>
<text text-anchor="start" x="575.6105" y="-98.3" font-family="Helvetica,sans-Serif" font-size="11.00" fill="#000000">0 rows</text>
<polygon fill="#ffffff" stroke="transparent" points="611,-92.2 611,-111.2 640,-111.2 640,-92.2 611,-92.2"/>
<polygon fill="none" stroke="#000000" points="611,-92.2 611,-111.2 640,-111.2 640,-92.2 611,-92.2"/>
<text text-anchor="start" x="630.8862" y="-98.3" font-family="Helvetica,sans-Serif" font-size="11.00" fill="#000000"> &#160;</text>
</a>
</g>
</g>
<!-- campanha -->
<g id="node4" class="node">
<title>campanha</title>
<g id="a_node4"><a xlink:href="../../tables/campanha.html" xlink:title="campanha" target="_top">
<polygon fill="#ffffff" stroke="transparent" points="312.5,-75.2 312.5,-293.2 410.5,-293.2 410.5,-75.2 312.5,-75.2"/>
<polygon fill="#f5f5f5" stroke="transparent" points="312.5,-270.2 312.5,-293.2 410.5,-293.2 410.5,-270.2 312.5,-270.2"/>
<polygon fill="none" stroke="#000000" points="312.5,-270.2 312.5,-293.2 410.5,-293.2 410.5,-270.2 312.5,-270.2"/>
<text text-anchor="start" x="317.5" y="-279.3" font-family="Helvetica,sans-Serif" font-weight="bold" font-size="11.00" fill="#000000">campanha</text>
<text text-anchor="start" x="375.5437" y="-278.3" font-family="Helvetica,sans-Serif" font-size="11.00" fill="#000000">[table]</text>
<polygon fill="none" stroke="#000000" points="312.5,-248.2 312.5,-270.2 410.5,-270.2 410.5,-248.2 312.5,-248.2"/>
<image xlink:href="../../images/primaryKeys.png" width="11px" height="12px" preserveAspectRatio="xMinYMin meet" x="317.5" y="-265.2"/>
<text text-anchor="start" x="332.5" y="-255.3" font-family="Helvetica,sans-Serif" font-size="11.00" fill="#000000">id</text>
<polygon fill="none" stroke="#000000" points="312.5,-226.2 312.5,-248.2 410.5,-248.2 410.5,-226.2 312.5,-226.2"/>
<text text-anchor="start" x="332.5" y="-233.3" font-family="Helvetica,sans-Serif" font-size="11.00" fill="#000000">titulo</text>
<polygon fill="none" stroke="#000000" points="312.5,-204.2 312.5,-226.2 410.5,-226.2 410.5,-204.2 312.5,-204.2"/>
<text text-anchor="start" x="332.5" y="-211.3" font-family="Helvetica,sans-Serif" font-size="11.00" fill="#000000">descricao</text>
<polygon fill="none" stroke="#000000" points="312.5,-182.2 312.5,-204.2 410.5,-204.2 410.5,-182.2 312.5,-182.2"/>
<text text-anchor="start" x="332.5" y="-189.3" font-family="Helvetica,sans-Serif" font-size="11.00" fill="#000000">requisitos</text>
<polygon fill="none" stroke="#000000" points="312.5,-160.2 312.5,-182.2 410.5,-182.2 410.5,-160.2 312.5,-160.2"/>
<text text-anchor="start" x="332.5" y="-167.3" font-family="Helvetica,sans-Serif" font-size="11.00" fill="#000000">data_inicio</text>
<polygon fill="none" stroke="#000000" points="312.5,-138.2 312.5,-160.2 410.5,-160.2 410.5,-138.2 312.5,-138.2"/>
<text text-anchor="start" x="332.5" y="-145.3" font-family="Helvetica,sans-Serif" font-size="11.00" fill="#000000">data_fim</text>
<polygon fill="none" stroke="#000000" points="312.5,-116.2 312.5,-138.2 410.5,-138.2 410.5,-116.2 312.5,-116.2"/>
<image xlink:href="../../images/foreignKeys.png" width="11px" height="12px" preserveAspectRatio="xMinYMin meet" x="317.5" y="-133.2"/>
<text text-anchor="start" x="332.5" y="-123.3" font-family="Helvetica,sans-Serif" font-size="11.00" fill="#000000">instituicao_id</text>
<polygon fill="none" stroke="#000000" points="312.5,-94.2 312.5,-116.2 410.5,-116.2 410.5,-94.2 312.5,-94.2"/>
<image xlink:href="../../images/foreignKeys.png" width="11px" height="12px" preserveAspectRatio="xMinYMin meet" x="317.5" y="-111.2"/>
<text text-anchor="start" x="332.5" y="-101.3" font-family="Helvetica,sans-Serif" font-size="11.00" fill="#000000">formulario_id</text>
<polygon fill="#ffffff" stroke="transparent" points="312.5,-75.2 312.5,-94.2 342.5,-94.2 342.5,-75.2 312.5,-75.2"/>
<polygon fill="none" stroke="#000000" points="312.5,-75.2 312.5,-94.2 342.5,-94.2 342.5,-75.2 312.5,-75.2"/>
<text text-anchor="start" x="315.5" y="-81.3" font-family="Helvetica,sans-Serif" font-size="11.00" fill="#000000">&lt; 2</text>
<polygon fill="#ffffff" stroke="transparent" points="342.5,-75.2 342.5,-94.2 384.5,-94.2 384.5,-75.2 342.5,-75.2"/>
<polygon fill="none" stroke="#000000" points="342.5,-75.2 342.5,-94.2 384.5,-94.2 384.5,-75.2 342.5,-75.2"/>
<text text-anchor="start" x="349.1105" y="-81.3" font-family="Helvetica,sans-Serif" font-size="11.00" fill="#000000">0 rows</text>
<polygon fill="#ffffff" stroke="transparent" points="384.5,-75.2 384.5,-94.2 410.5,-94.2 410.5,-75.2 384.5,-75.2"/>
<polygon fill="none" stroke="#000000" points="384.5,-75.2 384.5,-94.2 410.5,-94.2 410.5,-75.2 384.5,-75.2"/>
<text text-anchor="start" x="391.9053" y="-81.3" font-family="Helvetica,sans-Serif" font-size="11.00" fill="#000000">3 &gt;</text>
</a>
</g>
</g>
<!-- arquivo_campanha&#45;&gt;campanha -->
<g id="edge3" class="edge">
<title>arquivo_campanha:w&#45;&gt;campanha:e</title>
<path fill="none" stroke="#000000" d="M489.483,-146.4972C443.817,-162.7053 470.8404,-259.2 410.5,-259.2"/>
<polygon fill="#000000" stroke="#000000" points="496.0983,-145.4504 504.5627,-147.7558 500.0492,-144.8252 504,-144.2 504,-144.2 504,-144.2 500.0492,-144.8252 503.4373,-140.6442 496.0983,-145.4504 496.0983,-145.4504"/>
<ellipse fill="none" stroke="#000000" cx="492.9376" cy="-145.9506" rx="3.2" ry="3.2"/>
</g>
<!-- formulario -->
<g id="node5" class="node">
<title>formulario</title>
<g id="a_node5"><a xlink:href="../../tables/formulario.html" xlink:title="formulario" target="_top">
<polygon fill="#ffffff" stroke="transparent" points="146,-38.2 146,-146.2 243,-146.2 243,-38.2 146,-38.2"/>
<polygon fill="#f5f5f5" stroke="transparent" points="146.5,-123.2 146.5,-146.2 243.5,-146.2 243.5,-123.2 146.5,-123.2"/>
<polygon fill="none" stroke="#000000" points="146.5,-123.2 146.5,-146.2 243.5,-146.2 243.5,-123.2 146.5,-123.2"/>
<text text-anchor="start" x="151.5" y="-132.3" font-family="Helvetica,sans-Serif" font-weight="bold" font-size="11.00" fill="#000000">formulario</text>
<text text-anchor="start" x="208.5437" y="-131.3" font-family="Helvetica,sans-Serif" font-size="11.00" fill="#000000">[table]</text>
<polygon fill="none" stroke="#000000" points="146.5,-101.2 146.5,-123.2 243.5,-123.2 243.5,-101.2 146.5,-101.2"/>
<image xlink:href="../../images/primaryKeys.png" width="11px" height="12px" preserveAspectRatio="xMinYMin meet" x="151.5" y="-118.2"/>
<text text-anchor="start" x="166.5" y="-108.3" font-family="Helvetica,sans-Serif" font-size="11.00" fill="#000000">id</text>
<polygon fill="none" stroke="#000000" points="146.5,-79.2 146.5,-101.2 243.5,-101.2 243.5,-79.2 146.5,-79.2"/>
<text text-anchor="start" x="166.5" y="-86.3" font-family="Helvetica,sans-Serif" font-size="11.00" fill="#000000">url</text>
<polygon fill="none" stroke="#000000" points="146.5,-57.2 146.5,-79.2 243.5,-79.2 243.5,-57.2 146.5,-57.2"/>
<image xlink:href="../../images/foreignKeys.png" width="11px" height="12px" preserveAspectRatio="xMinYMin meet" x="151.5" y="-74.2"/>
<text text-anchor="start" x="166.5" y="-64.3" font-family="Helvetica,sans-Serif" font-size="11.00" fill="#000000">campanha_id</text>
<polygon fill="#ffffff" stroke="transparent" points="146.5,-38.2 146.5,-57.2 175.5,-57.2 175.5,-38.2 146.5,-38.2"/>
<polygon fill="none" stroke="#000000" points="146.5,-38.2 146.5,-57.2 175.5,-57.2 175.5,-38.2 146.5,-38.2"/>
<text text-anchor="start" x="149.5" y="-44.3" font-family="Helvetica,sans-Serif" font-size="11.00" fill="#000000">&lt; 1</text>
<polygon fill="#ffffff" stroke="transparent" points="175.5,-38.2 175.5,-57.2 217.5,-57.2 217.5,-38.2 175.5,-38.2"/>
<polygon fill="none" stroke="#000000" points="175.5,-38.2 175.5,-57.2 217.5,-57.2 217.5,-38.2 175.5,-38.2"/>
<text text-anchor="start" x="182.1105" y="-44.3" font-family="Helvetica,sans-Serif" font-size="11.00" fill="#000000">0 rows</text>
<polygon fill="#ffffff" stroke="transparent" points="217.5,-38.2 217.5,-57.2 243.5,-57.2 243.5,-38.2 217.5,-38.2"/>
<polygon fill="none" stroke="#000000" points="217.5,-38.2 217.5,-57.2 243.5,-57.2 243.5,-38.2 217.5,-38.2"/>
<text text-anchor="start" x="224.9053" y="-44.3" font-family="Helvetica,sans-Serif" font-size="11.00" fill="#000000">1 &gt;</text>
</a>
</g>
</g>
<!-- campanha&#45;&gt;formulario -->
<g id="edge4" class="edge">
<title>campanha:w&#45;&gt;formulario:e</title>
<path fill="none" stroke="#000000" d="M297.8851,-105.7968C278.276,-107.4896 268.7854,-112.2 243.5,-112.2"/>
<polygon fill="#000000" stroke="#000000" points="304.5067,-105.5265 312.6469,-108.797 308.5033,-105.3632 312.5,-105.2 312.5,-105.2 312.5,-105.2 308.5033,-105.3632 312.3531,-101.603 304.5067,-105.5265 304.5067,-105.5265"/>
<ellipse fill="none" stroke="#000000" cx="301.3093" cy="-105.6571" rx="3.2" ry="3.2"/>
</g>
<!-- campanha&#45;&gt;instituicao -->
<g id="edge5" class="edge">
<title>campanha:w&#45;&gt;instituicao:e</title>
<path fill="none" stroke="#000000" d="M299.2174,-133.3787C265.2751,-170.1142 290.9003,-358.2 242.5,-358.2"/>
<polygon fill="#000000" stroke="#000000" points="305.2464,-130.5742 314.0184,-130.4641 308.8732,-128.8871 312.5,-127.2 312.5,-127.2 312.5,-127.2 308.8732,-128.8871 310.9816,-123.9359 305.2464,-130.5742 305.2464,-130.5742"/>
<ellipse fill="none" stroke="#000000" cx="302.3449" cy="-131.9239" rx="3.2" ry="3.2"/>
</g>
<!-- formulario&#45;&gt;campanha -->
<g id="edge6" class="edge">
<title>formulario:w&#45;&gt;campanha:e</title>
<path fill="none" stroke="#000000" d="M160.5933,-63.6146C189.1174,-54.3341 251,-34.2 251,-34.2 343.3707,-109.6722 212.1293,-221.7278 304.5,-297.2 304.5,-297.2 410.5,-259.2 410.5,-259.2"/>
<polygon fill="#000000" stroke="#000000" points="154.1075,-65.7248 145.3862,-64.7766 150.3037,-66.9624 146.5,-68.2 146.5,-68.2 146.5,-68.2 150.3037,-66.9624 147.6138,-71.6234 154.1075,-65.7248 154.1075,-65.7248"/>
<ellipse fill="none" stroke="#000000" cx="157.1505" cy="-64.7347" rx="3.2" ry="3.2"/>
</g>
<!-- municipio -->
<g id="node7" class="node">
<title>municipio</title>
<g id="a_node7"><a xlink:href="../../tables/municipio.html" xlink:title="municipio" target="_top">
<polygon fill="#ffffff" stroke="transparent" points="8,-152.2 8,-260.2 97,-260.2 97,-152.2 8,-152.2"/>
<polygon fill="#f5f5f5" stroke="transparent" points="8.5,-237.2 8.5,-260.2 97.5,-260.2 97.5,-237.2 8.5,-237.2"/>
<polygon fill="none" stroke="#000000" points="8.5,-237.2 8.5,-260.2 97.5,-260.2 97.5,-237.2 8.5,-237.2"/>
<text text-anchor="start" x="13.2779" y="-246.3" font-family="Helvetica,sans-Serif" font-weight="bold" font-size="11.00" fill="#000000">municipio</text>
<text text-anchor="start" x="63.0219" y="-245.3" font-family="Helvetica,sans-Serif" font-size="11.00" fill="#000000">[table]</text>
<polygon fill="none" stroke="#000000" points="8.5,-215.2 8.5,-237.2 97.5,-237.2 97.5,-215.2 8.5,-215.2"/>
<image xlink:href="../../images/primaryKeys.png" width="11px" height="12px" preserveAspectRatio="xMinYMin meet" x="13.5" y="-232.2"/>
<text text-anchor="start" x="34.5" y="-222.3" font-family="Helvetica,sans-Serif" font-size="11.00" fill="#000000">id</text>
<polygon fill="#ffffff" stroke="transparent" points="8.5,-193.2 8.5,-215.2 97.5,-215.2 97.5,-193.2 8.5,-193.2"/>
<polygon fill="none" stroke="#000000" points="8.5,-193.2 8.5,-215.2 97.5,-215.2 97.5,-193.2 8.5,-193.2"/>
<text text-anchor="start" x="34.5" y="-200.3" font-family="Helvetica,sans-Serif" font-size="11.00" fill="#000000">uf</text>
<polygon fill="#ffffff" stroke="transparent" points="8.5,-171.2 8.5,-193.2 97.5,-193.2 97.5,-171.2 8.5,-171.2"/>
<polygon fill="none" stroke="#000000" points="8.5,-171.2 8.5,-193.2 97.5,-193.2 97.5,-171.2 8.5,-171.2"/>
<text text-anchor="start" x="34.5" y="-178.3" font-family="Helvetica,sans-Serif" font-size="11.00" fill="#000000">nome</text>
<polygon fill="#ffffff" stroke="transparent" points="8.5,-152.2 8.5,-171.2 29.5,-171.2 29.5,-152.2 8.5,-152.2"/>
<polygon fill="none" stroke="#000000" points="8.5,-152.2 8.5,-171.2 29.5,-171.2 29.5,-152.2 8.5,-152.2"/>
<text text-anchor="start" x="11.5" y="-158.3" font-family="Helvetica,sans-Serif" font-size="11.00" fill="#000000"> &#160;</text>
<polygon fill="#ffffff" stroke="transparent" points="29.5,-152.2 29.5,-171.2 71.5,-171.2 71.5,-152.2 29.5,-152.2"/>
<polygon fill="none" stroke="#000000" points="29.5,-152.2 29.5,-171.2 71.5,-171.2 71.5,-152.2 29.5,-152.2"/>
<text text-anchor="start" x="36.1105" y="-158.3" font-family="Helvetica,sans-Serif" font-size="11.00" fill="#000000">0 rows</text>
<polygon fill="#ffffff" stroke="transparent" points="71.5,-152.2 71.5,-171.2 97.5,-171.2 97.5,-152.2 71.5,-152.2"/>
<polygon fill="none" stroke="#000000" points="71.5,-152.2 71.5,-171.2 97.5,-171.2 97.5,-152.2 71.5,-152.2"/>
<text text-anchor="start" x="78.9053" y="-158.3" font-family="Helvetica,sans-Serif" font-size="11.00" fill="#000000">2 &gt;</text>
</a>
</g>
</g>
<!-- instituicao&#45;&gt;municipio -->
<g id="edge7" class="edge">
<title>instituicao:w&#45;&gt;municipio:e</title>
<path fill="none" stroke="#000000" d="M133.2297,-207.4462C121.1832,-213.5658 115.8983,-226.2 97.5,-226.2"/>
<polygon fill="#000000" stroke="#000000" points="139.6993,-205.9745 148.2985,-207.7103 143.5996,-205.0873 147.5,-204.2 147.5,-204.2 147.5,-204.2 143.5996,-205.0873 146.7015,-200.6897 139.6993,-205.9745 139.6993,-205.9745"/>
<ellipse fill="none" stroke="#000000" cx="136.579" cy="-206.6843" rx="3.2" ry="3.2"/>
</g>
<!-- usuario -->
<g id="node11" class="node">
<title>usuario</title>
<g id="a_node11"><a xlink:href="../../tables/usuario.html" xlink:title="usuario" target="_top">
<polygon fill="#ffffff" stroke="transparent" points="13,-325.2 13,-565.2 92,-565.2 92,-325.2 13,-325.2"/>
<polygon fill="#f5f5f5" stroke="transparent" points="13.5,-542.2 13.5,-565.2 92.5,-565.2 92.5,-542.2 13.5,-542.2"/>
<polygon fill="none" stroke="#000000" points="13.5,-542.2 13.5,-565.2 92.5,-565.2 92.5,-542.2 13.5,-542.2"/>
<text text-anchor="start" x="18.4688" y="-551.3" font-family="Helvetica,sans-Serif" font-weight="bold" font-size="11.00" fill="#000000">usuario</text>
<text text-anchor="start" x="58.0219" y="-550.3" font-family="Helvetica,sans-Serif" font-size="11.00" fill="#000000">[table]</text>
<polygon fill="none" stroke="#000000" points="13.5,-520.2 13.5,-542.2 92.5,-542.2 92.5,-520.2 13.5,-520.2"/>
<image xlink:href="../../images/primaryKeys.png" width="11px" height="12px" preserveAspectRatio="xMinYMin meet" x="18.5" y="-537.2"/>
<text text-anchor="start" x="38.5" y="-527.3" font-family="Helvetica,sans-Serif" font-size="11.00" fill="#000000">id</text>
<polygon fill="none" stroke="#000000" points="13.5,-498.2 13.5,-520.2 92.5,-520.2 92.5,-498.2 13.5,-498.2"/>
<text text-anchor="start" x="38.5" y="-505.3" font-family="Helvetica,sans-Serif" font-size="11.00" fill="#000000">nome</text>
<polygon fill="none" stroke="#000000" points="13.5,-476.2 13.5,-498.2 92.5,-498.2 92.5,-476.2 13.5,-476.2"/>
<text text-anchor="start" x="38.5" y="-483.3" font-family="Helvetica,sans-Serif" font-size="11.00" fill="#000000">senha</text>
<polygon fill="#ffffff" stroke="transparent" points="13.5,-454.2 13.5,-476.2 92.5,-476.2 92.5,-454.2 13.5,-454.2"/>
<polygon fill="none" stroke="#000000" points="13.5,-454.2 13.5,-476.2 92.5,-476.2 92.5,-454.2 13.5,-454.2"/>
<text text-anchor="start" x="38.5" y="-461.3" font-family="Helvetica,sans-Serif" font-size="11.00" fill="#000000">email</text>
<polygon fill="#ffffff" stroke="transparent" points="13.5,-432.2 13.5,-454.2 92.5,-454.2 92.5,-432.2 13.5,-432.2"/>
<polygon fill="none" stroke="#000000" points="13.5,-432.2 13.5,-454.2 92.5,-454.2 92.5,-432.2 13.5,-432.2"/>
<text text-anchor="start" x="38.5" y="-439.3" font-family="Helvetica,sans-Serif" font-size="11.00" fill="#000000">celular</text>
<polygon fill="none" stroke="#000000" points="13.5,-410.2 13.5,-432.2 92.5,-432.2 92.5,-410.2 13.5,-410.2"/>
<text text-anchor="start" x="38.5" y="-417.3" font-family="Helvetica,sans-Serif" font-size="11.00" fill="#000000">situacao</text>
<polygon fill="none" stroke="#000000" points="13.5,-388.2 13.5,-410.2 92.5,-410.2 92.5,-388.2 13.5,-388.2"/>
<text text-anchor="start" x="38.5" y="-395.3" font-family="Helvetica,sans-Serif" font-size="11.00" fill="#000000">data</text>
<polygon fill="none" stroke="#000000" points="13.5,-366.2 13.5,-388.2 92.5,-388.2 92.5,-366.2 13.5,-366.2"/>
<text text-anchor="start" x="38.5" y="-373.3" font-family="Helvetica,sans-Serif" font-size="11.00" fill="#000000">aceite</text>
<polygon fill="none" stroke="#000000" points="13.5,-344.2 13.5,-366.2 92.5,-366.2 92.5,-344.2 13.5,-344.2"/>
<text text-anchor="start" x="38.5" y="-351.3" font-family="Helvetica,sans-Serif" font-size="11.00" fill="#000000">tipo</text>
<polygon fill="#ffffff" stroke="transparent" points="13.5,-325.2 13.5,-344.2 29.5,-344.2 29.5,-325.2 13.5,-325.2"/>
<polygon fill="none" stroke="#000000" points="13.5,-325.2 13.5,-344.2 29.5,-344.2 29.5,-325.2 13.5,-325.2"/>
<text text-anchor="start" x="16.5" y="-331.3" font-family="Helvetica,sans-Serif" font-size="11.00" fill="#000000"> &#160;</text>
<polygon fill="#ffffff" stroke="transparent" points="29.5,-325.2 29.5,-344.2 69.5,-344.2 69.5,-325.2 29.5,-325.2"/>
<polygon fill="none" stroke="#000000" points="29.5,-325.2 29.5,-344.2 69.5,-344.2 69.5,-325.2 29.5,-325.2"/>
<text text-anchor="start" x="34.1105" y="-331.3" font-family="Helvetica,sans-Serif" font-size="11.00" fill="#000000">0 rows</text>
<polygon fill="#ffffff" stroke="transparent" points="69.5,-325.2 69.5,-344.2 92.5,-344.2 92.5,-325.2 69.5,-325.2"/>
<polygon fill="none" stroke="#000000" points="69.5,-325.2 69.5,-344.2 92.5,-344.2 92.5,-325.2 69.5,-325.2"/>
<text text-anchor="start" x="73.9053" y="-331.3" font-family="Helvetica,sans-Serif" font-size="11.00" fill="#000000">2 &gt;</text>
</a>
</g>
</g>
<!-- instituicao&#45;&gt;usuario -->
<g id="edge8" class="edge">
<title>instituicao:w&#45;&gt;usuario:e</title>
<path fill="none" stroke="#000000" d="M136.9758,-359.3971C76.7599,-374.6821 169.2415,-531.2 92.5,-531.2"/>
<polygon fill="#000000" stroke="#000000" points="146.253,-354.3161 147.1572,-362.2648 145.5675,-362.4456 144.6633,-354.4969 146.253,-354.3161"/>
<polyline fill="none" stroke="#000000" points="147.5,-358.2 143.5256,-358.6521 "/>
<ellipse fill="none" stroke="#000000" cx="140.3461" cy="-359.0138" rx="3.2" ry="3.2"/>
</g>
<!-- pessoa -->
<g id="node8" class="node">
<title>pessoa</title>
<g id="a_node8"><a xlink:href="../../tables/pessoa.html" xlink:title="pessoa" target="_top">
<polygon fill="#ffffff" stroke="transparent" points="147,-413.2 147,-587.2 242,-587.2 242,-413.2 147,-413.2"/>
<polygon fill="#f5f5f5" stroke="transparent" points="147.5,-564.2 147.5,-587.2 242.5,-587.2 242.5,-564.2 147.5,-564.2"/>
<polygon fill="none" stroke="#000000" points="147.5,-564.2 147.5,-587.2 242.5,-587.2 242.5,-564.2 147.5,-564.2"/>
<text text-anchor="start" x="152.5" y="-573.3" font-family="Helvetica,sans-Serif" font-weight="bold" font-size="11.00" fill="#000000">pessoa</text>
<text text-anchor="start" x="207.5437" y="-572.3" font-family="Helvetica,sans-Serif" font-size="11.00" fill="#000000">[table]</text>
<polygon fill="none" stroke="#000000" points="147.5,-542.2 147.5,-564.2 242.5,-564.2 242.5,-542.2 147.5,-542.2"/>
<image xlink:href="../../images/primaryKeys.png" width="11px" height="12px" preserveAspectRatio="xMinYMin meet" x="152.5" y="-559.2"/>
<text text-anchor="start" x="167.5" y="-549.3" font-family="Helvetica,sans-Serif" font-size="11.00" fill="#000000">usuario_id</text>
<polygon fill="#ffffff" stroke="transparent" points="147.5,-520.2 147.5,-542.2 242.5,-542.2 242.5,-520.2 147.5,-520.2"/>
<polygon fill="none" stroke="#000000" points="147.5,-520.2 147.5,-542.2 242.5,-542.2 242.5,-520.2 147.5,-520.2"/>
<text text-anchor="start" x="167.5" y="-527.3" font-family="Helvetica,sans-Serif" font-size="11.00" fill="#000000">telefone</text>
<polygon fill="none" stroke="#000000" points="147.5,-498.2 147.5,-520.2 242.5,-520.2 242.5,-498.2 147.5,-498.2"/>
<text text-anchor="start" x="167.5" y="-505.3" font-family="Helvetica,sans-Serif" font-size="11.00" fill="#000000">logradouro</text>
<polygon fill="none" stroke="#000000" points="147.5,-476.2 147.5,-498.2 242.5,-498.2 242.5,-476.2 147.5,-476.2"/>
<text text-anchor="start" x="167.5" y="-483.3" font-family="Helvetica,sans-Serif" font-size="11.00" fill="#000000">numero</text>
<polygon fill="none" stroke="#000000" points="147.5,-454.2 147.5,-476.2 242.5,-476.2 242.5,-454.2 147.5,-454.2"/>
<text text-anchor="start" x="167.5" y="-461.3" font-family="Helvetica,sans-Serif" font-size="11.00" fill="#000000">cep</text>
<polygon fill="none" stroke="#000000" points="147.5,-432.2 147.5,-454.2 242.5,-454.2 242.5,-432.2 147.5,-432.2"/>
<image xlink:href="../../images/foreignKeys.png" width="11px" height="12px" preserveAspectRatio="xMinYMin meet" x="152.5" y="-449.2"/>
<text text-anchor="start" x="167.5" y="-439.3" font-family="Helvetica,sans-Serif" font-size="11.00" fill="#000000">municipio_id</text>
<polygon fill="#ffffff" stroke="transparent" points="147.5,-413.2 147.5,-432.2 175.5,-432.2 175.5,-413.2 147.5,-413.2"/>
<polygon fill="none" stroke="#000000" points="147.5,-413.2 147.5,-432.2 175.5,-432.2 175.5,-413.2 147.5,-413.2"/>
<text text-anchor="start" x="150.5" y="-419.3" font-family="Helvetica,sans-Serif" font-size="11.00" fill="#000000">&lt; 2</text>
<polygon fill="#ffffff" stroke="transparent" points="175.5,-413.2 175.5,-432.2 217.5,-432.2 217.5,-413.2 175.5,-413.2"/>
<polygon fill="none" stroke="#000000" points="175.5,-413.2 175.5,-432.2 217.5,-432.2 217.5,-413.2 175.5,-413.2"/>
<text text-anchor="start" x="182.1105" y="-419.3" font-family="Helvetica,sans-Serif" font-size="11.00" fill="#000000">0 rows</text>
<polygon fill="#ffffff" stroke="transparent" points="217.5,-413.2 217.5,-432.2 242.5,-432.2 242.5,-413.2 217.5,-413.2"/>
<polygon fill="none" stroke="#000000" points="217.5,-413.2 217.5,-432.2 242.5,-432.2 242.5,-413.2 217.5,-413.2"/>
<text text-anchor="start" x="223.9053" y="-419.3" font-family="Helvetica,sans-Serif" font-size="11.00" fill="#000000">2 &gt;</text>
</a>
</g>
</g>
<!-- pessoa&#45;&gt;municipio -->
<g id="edge9" class="edge">
<title>pessoa:w&#45;&gt;municipio:e</title>
<path fill="none" stroke="#000000" d="M132.9693,-441.1904C64.4955,-419.3141 190.8657,-226.2 97.5,-226.2"/>
<polygon fill="#000000" stroke="#000000" points="139.5754,-442.104 147.0068,-446.7661 143.5377,-442.652 147.5,-443.2 147.5,-443.2 147.5,-443.2 143.5377,-442.652 147.9932,-439.6339 139.5754,-442.104 139.5754,-442.104"/>
<ellipse fill="none" stroke="#000000" cx="136.4056" cy="-441.6655" rx="3.2" ry="3.2"/>
</g>
<!-- pessoa&#45;&gt;usuario -->
<g id="edge10" class="edge">
<title>pessoa:w&#45;&gt;usuario:e</title>
<path fill="none" stroke="#000000" d="M136.7326,-551.7565C119.8542,-546.8621 114.7138,-531.2 92.5,-531.2"/>
<polygon fill="#000000" stroke="#000000" points="147.2386,-549.1292 146.1756,-557.0582 144.5898,-556.8456 145.6528,-548.9166 147.2386,-549.1292"/>
<polyline fill="none" stroke="#000000" points="147.5,-553.2 143.5355,-552.6685 "/>
<ellipse fill="none" stroke="#000000" cx="140.3638" cy="-552.2433" rx="3.2" ry="3.2"/>
</g>
<!-- pessoa_cadastra_campanha -->
<g id="node9" class="node">
<title>pessoa_cadastra_campanha</title>
<g id="a_node9"><a xlink:href="../../tables/pessoa_cadastra_campanha.html" xlink:title="pessoa_cadastra_campanha" target="_top">
<polygon fill="#ffffff" stroke="transparent" points="480,-221.2 480,-373.2 664,-373.2 664,-221.2 480,-221.2"/>
<polygon fill="#f5f5f5" stroke="transparent" points="480,-350.2 480,-373.2 664,-373.2 664,-350.2 480,-350.2"/>
<polygon fill="none" stroke="#000000" points="480,-350.2 480,-373.2 664,-373.2 664,-350.2 480,-350.2"/>
<text text-anchor="start" x="484.8905" y="-359.3" font-family="Helvetica,sans-Serif" font-weight="bold" font-size="11.00" fill="#000000">pessoa_cadastra_campanha</text>
<text text-anchor="start" x="629.5219" y="-358.3" font-family="Helvetica,sans-Serif" font-size="11.00" fill="#000000">[table]</text>
<polygon fill="none" stroke="#000000" points="480,-328.2 480,-350.2 664,-350.2 664,-328.2 480,-328.2"/>
<image xlink:href="../../images/primaryKeys.png" width="11px" height="12px" preserveAspectRatio="xMinYMin meet" x="485" y="-345.2"/>
<text text-anchor="start" x="500" y="-335.3" font-family="Helvetica,sans-Serif" font-size="11.00" fill="#000000">id</text>
<polygon fill="#ffffff" stroke="transparent" points="480,-306.2 480,-328.2 664,-328.2 664,-306.2 480,-306.2"/>
<polygon fill="none" stroke="#000000" points="480,-306.2 480,-328.2 664,-328.2 664,-306.2 480,-306.2"/>
<image xlink:href="../../images/foreignKeys.png" width="11px" height="12px" preserveAspectRatio="xMinYMin meet" x="485" y="-323.2"/>
<text text-anchor="start" x="500" y="-313.3" font-family="Helvetica,sans-Serif" font-size="11.00" fill="#000000">pessoa_id</text>
<polygon fill="#ffffff" stroke="transparent" points="480,-284.2 480,-306.2 664,-306.2 664,-284.2 480,-284.2"/>
<polygon fill="none" stroke="#000000" points="480,-284.2 480,-306.2 664,-306.2 664,-284.2 480,-284.2"/>
<image xlink:href="../../images/foreignKeys.png" width="11px" height="12px" preserveAspectRatio="xMinYMin meet" x="485" y="-301.2"/>
<text text-anchor="start" x="500" y="-291.3" font-family="Helvetica,sans-Serif" font-size="11.00" fill="#000000">campanha_id</text>
<polygon fill="none" stroke="#000000" points="480,-262.2 480,-284.2 664,-284.2 664,-262.2 480,-262.2"/>
<text text-anchor="start" x="500" y="-269.3" font-family="Helvetica,sans-Serif" font-size="11.00" fill="#000000">situacao</text>
<polygon fill="none" stroke="#000000" points="480,-240.2 480,-262.2 664,-262.2 664,-240.2 480,-240.2"/>
<text text-anchor="start" x="500" y="-247.3" font-family="Helvetica,sans-Serif" font-size="11.00" fill="#000000">data</text>
<polygon fill="#ffffff" stroke="transparent" points="480,-221.2 480,-240.2 557,-240.2 557,-221.2 480,-221.2"/>
<polygon fill="none" stroke="#000000" points="480,-221.2 480,-240.2 557,-240.2 557,-221.2 480,-221.2"/>
<text text-anchor="start" x="483" y="-227.3" font-family="Helvetica,sans-Serif" font-size="11.00" fill="#000000">&lt; 2</text>
<polygon fill="#ffffff" stroke="transparent" points="557,-221.2 557,-240.2 623,-240.2 623,-221.2 557,-221.2"/>
<polygon fill="none" stroke="#000000" points="557,-221.2 557,-240.2 623,-240.2 623,-221.2 557,-221.2"/>
<text text-anchor="start" x="587.6105" y="-227.3" font-family="Helvetica,sans-Serif" font-size="11.00" fill="#000000">0 rows</text>
<polygon fill="#ffffff" stroke="transparent" points="623,-221.2 623,-240.2 664,-240.2 664,-221.2 623,-221.2"/>
<polygon fill="none" stroke="#000000" points="623,-221.2 623,-240.2 664,-240.2 664,-221.2 623,-221.2"/>
<text text-anchor="start" x="654.8862" y="-227.3" font-family="Helvetica,sans-Serif" font-size="11.00" fill="#000000"> &#160;</text>
</a>
</g>
</g>
<!-- pessoa_cadastra_campanha&#45;&gt;campanha -->
<g id="edge11" class="edge">
<title>pessoa_cadastra_campanha:w&#45;&gt;campanha:e</title>
<path fill="none" stroke="#000000" d="M465.6821,-292.7256C444.3426,-284.5922 439.7155,-259.2 410.5,-259.2"/>
<polygon fill="#000000" stroke="#000000" points="472.1169,-293.8376 479.3869,-298.7474 476.0584,-294.5188 480,-295.2 480,-295.2 480,-295.2 476.0584,-294.5188 480.6131,-291.6526 472.1169,-293.8376 472.1169,-293.8376"/>
<ellipse fill="none" stroke="#000000" cx="468.9636" cy="-293.2926" rx="3.2" ry="3.2"/>
</g>
<!-- pessoa_cadastra_campanha&#45;&gt;pessoa -->
<g id="edge12" class="edge">
<title>pessoa_cadastra_campanha:w&#45;&gt;pessoa:e</title>
<path fill="none" stroke="#000000" d="M465.5153,-316.8377C414.2101,-314.7188 313.4606,-304.9067 284,-331.2 209.1122,-398.0366 342.8758,-553.2 242.5,-553.2"/>
<polygon fill="#000000" stroke="#000000" points="472.0025,-316.9999 479.91,-320.7989 476.0013,-317.0999 480,-317.2 480,-317.2 480,-317.2 476.0013,-317.0999 480.09,-313.6011 472.0025,-316.9999 472.0025,-316.9999"/>
<ellipse fill="none" stroke="#000000" cx="468.8035" cy="-316.9198" rx="3.2" ry="3.2"/>
</g>
<!-- pessoa_interessa_animal -->
<g id="node10" class="node">
<title>pessoa_interessa_animal</title>
<g id="a_node10"><a xlink:href="../../tables/pessoa_interessa_animal.html" xlink:title="pessoa_interessa_animal" target="_top">
<polygon fill="#ffffff" stroke="transparent" points="488.5,-575.2 488.5,-705.2 655.5,-705.2 655.5,-575.2 488.5,-575.2"/>
<polygon fill="#f5f5f5" stroke="transparent" points="489,-682.2 489,-705.2 656,-705.2 656,-682.2 489,-682.2"/>
<polygon fill="none" stroke="#000000" points="489,-682.2 489,-705.2 656,-705.2 656,-682.2 489,-682.2"/>
<text text-anchor="start" x="493.6515" y="-691.3" font-family="Helvetica,sans-Serif" font-weight="bold" font-size="11.00" fill="#000000">pessoa_interessa_animal</text>
<text text-anchor="start" x="621.5219" y="-690.3" font-family="Helvetica,sans-Serif" font-size="11.00" fill="#000000">[table]</text>
<polygon fill="none" stroke="#000000" points="489,-660.2 489,-682.2 656,-682.2 656,-660.2 489,-660.2"/>
<image xlink:href="../../images/primaryKeys.png" width="11px" height="12px" preserveAspectRatio="xMinYMin meet" x="494" y="-677.2"/>
<text text-anchor="start" x="510" y="-667.3" font-family="Helvetica,sans-Serif" font-size="11.00" fill="#000000">id</text>
<polygon fill="#ffffff" stroke="transparent" points="489,-638.2 489,-660.2 656,-660.2 656,-638.2 489,-638.2"/>
<polygon fill="none" stroke="#000000" points="489,-638.2 489,-660.2 656,-660.2 656,-638.2 489,-638.2"/>
<image xlink:href="../../images/foreignKeys.png" width="11px" height="12px" preserveAspectRatio="xMinYMin meet" x="494" y="-655.2"/>
<text text-anchor="start" x="510" y="-645.3" font-family="Helvetica,sans-Serif" font-size="11.00" fill="#000000">pessoa_id</text>
<polygon fill="#ffffff" stroke="transparent" points="489,-616.2 489,-638.2 656,-638.2 656,-616.2 489,-616.2"/>
<polygon fill="none" stroke="#000000" points="489,-616.2 489,-638.2 656,-638.2 656,-616.2 489,-616.2"/>
<image xlink:href="../../images/foreignKeys.png" width="11px" height="12px" preserveAspectRatio="xMinYMin meet" x="494" y="-633.2"/>
<text text-anchor="start" x="510" y="-623.3" font-family="Helvetica,sans-Serif" font-size="11.00" fill="#000000">animal_id</text>
<polygon fill="none" stroke="#000000" points="489,-594.2 489,-616.2 656,-616.2 656,-594.2 489,-594.2"/>
<text text-anchor="start" x="510" y="-601.3" font-family="Helvetica,sans-Serif" font-size="11.00" fill="#000000">data</text>
<polygon fill="#ffffff" stroke="transparent" points="489,-575.2 489,-594.2 558,-594.2 558,-575.2 489,-575.2"/>
<polygon fill="none" stroke="#000000" points="489,-575.2 489,-594.2 558,-594.2 558,-575.2 489,-575.2"/>
<text text-anchor="start" x="492" y="-581.3" font-family="Helvetica,sans-Serif" font-size="11.00" fill="#000000">&lt; 2</text>
<polygon fill="#ffffff" stroke="transparent" points="558,-575.2 558,-594.2 620,-594.2 620,-575.2 558,-575.2"/>
<polygon fill="none" stroke="#000000" points="558,-575.2 558,-594.2 620,-594.2 620,-575.2 558,-575.2"/>
<text text-anchor="start" x="584.6105" y="-581.3" font-family="Helvetica,sans-Serif" font-size="11.00" fill="#000000">0 rows</text>
<polygon fill="#ffffff" stroke="transparent" points="620,-575.2 620,-594.2 656,-594.2 656,-575.2 620,-575.2"/>
<polygon fill="none" stroke="#000000" points="620,-575.2 620,-594.2 656,-594.2 656,-575.2 620,-575.2"/>
<text text-anchor="start" x="646.8862" y="-581.3" font-family="Helvetica,sans-Serif" font-size="11.00" fill="#000000"> &#160;</text>
</a>
</g>
</g>
<!-- pessoa_interessa_animal&#45;&gt;animal -->
<g id="edge13" class="edge">
<title>pessoa_interessa_animal:w&#45;&gt;animal:e</title>
<path fill="none" stroke="#000000" d="M474.6135,-623.6166C458.6865,-614.5108 455.7622,-591.2 431.5,-591.2"/>
<polygon fill="#000000" stroke="#000000" points="481.2372,-625.2664 488.1299,-630.6933 485.1186,-626.2332 489,-627.2 489,-627.2 489,-627.2 485.1186,-626.2332 489.8701,-623.7067 481.2372,-625.2664 481.2372,-625.2664"/>
<ellipse fill="none" stroke="#000000" cx="478.1321" cy="-624.4929" rx="3.2" ry="3.2"/>
</g>
<!-- pessoa_interessa_animal&#45;&gt;pessoa -->
<g id="edge14" class="edge">
<title>pessoa_interessa_animal:w&#45;&gt;pessoa:e</title>
<path fill="none" stroke="#000000" d="M474.4887,-649.5153C393.4777,-653.0312 355.9392,-683.8728 284,-636.2 249.6206,-613.4174 283.743,-553.2 242.5,-553.2"/>
<polygon fill="#000000" stroke="#000000" points="481.0019,-649.3739 489.0782,-652.7992 485.0009,-649.2869 489,-649.2 489,-649.2 489,-649.2 485.0009,-649.2869 488.9218,-645.6008 481.0019,-649.3739 481.0019,-649.3739"/>
<ellipse fill="none" stroke="#000000" cx="477.8026" cy="-649.4434" rx="3.2" ry="3.2"/>
</g>
</g>
</svg>
