<?xml version="1.0" encoding="UTF-8" standalone="no"?>
<!DOCTYPE svg PUBLIC "-//W3C//DTD SVG 1.1//EN"
 "http://www.w3.org/Graphics/SVG/1.1/DTD/svg11.dtd">
<!-- Generated by graphviz version 2.40.1 (20161225.0304)
 -->
<!-- Title: largeRelationshipsDiagram Pages: 1 -->
<svg width="678pt" height="756pt"
 viewBox="0.00 0.00 678.00 756.20" xmlns="http://www.w3.org/2000/svg" xmlns:xlink="http://www.w3.org/1999/xlink">
<g id="graph0" class="graph" transform="scale(1 1) rotate(0) translate(4 752.2)">
<title>largeRelationshipsDiagram</title>
<polygon fill="#ffffff" stroke="transparent" points="-4,4 -4,-752.2 674,-752.2 674,4 -4,4"/>
<text text-anchor="middle" x="72.4936" y="-7.3" font-family="Helvetica,sans-Serif" font-size="11.00" fill="#000000">Generated by SchemaSpy</text>
<!-- animal -->
<g id="node1" class="node">
<title>animal</title>
<g id="a_node1"><a xlink:href="../../tables/animal.html" xlink:title="animal" target="_top">
<polygon fill="#ffffff" stroke="transparent" points="290,-438.2 290,-722.2 429,-722.2 429,-438.2 290,-438.2"/>
<polygon fill="#f5f5f5" stroke="transparent" points="290.5,-699.2 290.5,-722.2 429.5,-722.2 429.5,-699.2 290.5,-699.2"/>
<polygon fill="none" stroke="#000000" points="290.5,-699.2 290.5,-722.2 429.5,-722.2 429.5,-699.2 290.5,-699.2"/>
<text text-anchor="start" x="295.5" y="-708.3" font-family="Helvetica,sans-Serif" font-weight="bold" font-size="11.00" fill="#000000">animal</text>
<text text-anchor="start" x="394.5437" y="-707.3" font-family="Helvetica,sans-Serif" font-size="11.00" fill="#000000">[table]</text>
<polygon fill="none" stroke="#000000" points="290.5,-677.2 290.5,-699.2 429.5,-699.2 429.5,-677.2 290.5,-677.2"/>
<image xlink:href="../../images/primaryKeys.png" width="11px" height="12px" preserveAspectRatio="xMinYMin meet" x="295.5" y="-694.2"/>
<text text-anchor="start" x="310.5" y="-684.3" font-family="Helvetica,sans-Serif" font-size="11.00" fill="#000000">id</text>
<polygon fill="none" stroke="#000000" points="290.5,-655.2 290.5,-677.2 429.5,-677.2 429.5,-655.2 290.5,-655.2"/>
<text text-anchor="start" x="310.5" y="-662.3" font-family="Helvetica,sans-Serif" font-size="11.00" fill="#000000">tipo</text>
<polygon fill="none" stroke="#000000" points="290.5,-633.2 290.5,-655.2 429.5,-655.2 429.5,-633.2 290.5,-633.2"/>
<text text-anchor="start" x="310.5" y="-640.3" font-family="Helvetica,sans-Serif" font-size="11.00" fill="#000000">sexo</text>
<polygon fill="none" stroke="#000000" points="290.5,-611.2 290.5,-633.2 429.5,-633.2 429.5,-611.2 290.5,-611.2"/>
<text text-anchor="start" x="310.5" y="-618.3" font-family="Helvetica,sans-Serif" font-size="11.00" fill="#000000">peso</text>
<polygon fill="none" stroke="#000000" points="290.5,-589.2 290.5,-611.2 429.5,-611.2 429.5,-589.2 290.5,-589.2"/>
<text text-anchor="start" x="310.5" y="-596.3" font-family="Helvetica,sans-Serif" font-size="11.00" fill="#000000">porte</text>
<polygon fill="none" stroke="#000000" points="290.5,-567.2 290.5,-589.2 429.5,-589.2 429.5,-567.2 290.5,-567.2"/>
<text text-anchor="start" x="310.5" y="-574.3" font-family="Helvetica,sans-Serif" font-size="11.00" fill="#000000">raca</text>
<polygon fill="none" stroke="#000000" points="290.5,-545.2 290.5,-567.2 429.5,-567.2 429.5,-545.2 290.5,-545.2"/>
<text text-anchor="start" x="310.5" y="-552.3" font-family="Helvetica,sans-Serif" font-size="11.00" fill="#000000">situacao_adocao</text>
<polygon fill="none" stroke="#000000" points="290.5,-523.2 290.5,-545.2 429.5,-545.2 429.5,-523.2 290.5,-523.2"/>
<text text-anchor="start" x="310.5" y="-530.3" font-family="Helvetica,sans-Serif" font-size="11.00" fill="#000000">temperamento</text>
<polygon fill="none" stroke="#000000" points="290.5,-501.2 290.5,-523.2 429.5,-523.2 429.5,-501.2 290.5,-501.2"/>
<text text-anchor="start" x="310.5" y="-508.3" font-family="Helvetica,sans-Serif" font-size="11.00" fill="#000000">pelagem_primaria</text>
<polygon fill="none" stroke="#000000" points="290.5,-479.2 290.5,-501.2 429.5,-501.2 429.5,-479.2 290.5,-479.2"/>
<text text-anchor="start" x="310.5" y="-486.3" font-family="Helvetica,sans-Serif" font-size="11.00" fill="#000000">pelagem_secundaria</text>
<polygon fill="none" stroke="#000000" points="290.5,-457.2 290.5,-479.2 429.5,-479.2 429.5,-457.2 290.5,-457.2"/>
<image xlink:href="../../images/foreignKeys.png" width="11px" height="12px" preserveAspectRatio="xMinYMin meet" x="295.5" y="-474.2"/>
<text text-anchor="start" x="310.5" y="-464.3" font-family="Helvetica,sans-Serif" font-size="11.00" fill="#000000">instituicao_id</text>
<polygon fill="#ffffff" stroke="transparent" points="290.5,-438.2 290.5,-457.2 340.5,-457.2 340.5,-438.2 290.5,-438.2"/>
<polygon fill="none" stroke="#000000" points="290.5,-438.2 290.5,-457.2 340.5,-457.2 340.5,-438.2 290.5,-438.2"/>
<text text-anchor="start" x="293.5" y="-444.3" font-family="Helvetica,sans-Serif" font-size="11.00" fill="#000000">&lt; 1</text>
<polygon fill="#ffffff" stroke="transparent" points="340.5,-438.2 340.5,-457.2 393.5,-457.2 393.5,-438.2 340.5,-438.2"/>
<polygon fill="none" stroke="#000000" points="340.5,-438.2 340.5,-457.2 393.5,-457.2 393.5,-438.2 340.5,-438.2"/>
<text text-anchor="start" x="358.1105" y="-444.3" font-family="Helvetica,sans-Serif" font-size="11.00" fill="#000000">0 rows</text>
<polygon fill="#ffffff" stroke="transparent" points="393.5,-438.2 393.5,-457.2 429.5,-457.2 429.5,-438.2 393.5,-438.2"/>
<polygon fill="none" stroke="#000000" points="393.5,-438.2 393.5,-457.2 429.5,-457.2 429.5,-438.2 393.5,-438.2"/>
<text text-anchor="start" x="410.9053" y="-444.3" font-family="Helvetica,sans-Serif" font-size="11.00" fill="#000000">2 &gt;</text>
</a>
</g>
</g>
<!-- instituicao -->
<g id="node6" class="node">
<title>instituicao</title>
<g id="a_node6"><a xlink:href="../../tables/instituicao.html" xlink:title="instituicao" target="_top">
<polygon fill="#ffffff" stroke="transparent" points="146,-255.2 146,-473.2 241,-473.2 241,-255.2 146,-255.2"/>
<polygon fill="#f5f5f5" stroke="transparent" points="146.5,-450.2 146.5,-473.2 241.5,-473.2 241.5,-450.2 146.5,-450.2"/>
<polygon fill="none" stroke="#000000" points="146.5,-450.2 146.5,-473.2 241.5,-473.2 241.5,-450.2 146.5,-450.2"/>
<text text-anchor="start" x="151.5" y="-459.3" font-family="Helvetica,sans-Serif" font-weight="bold" font-size="11.00" fill="#000000">instituicao</text>
<text text-anchor="start" x="206.5437" y="-458.3" font-family="Helvetica,sans-Serif" font-size="11.00" fill="#000000">[table]</text>
<polygon fill="none" stroke="#000000" points="146.5,-428.2 146.5,-450.2 241.5,-450.2 241.5,-428.2 146.5,-428.2"/>
<image xlink:href="../../images/primaryKeys.png" width="11px" height="12px" preserveAspectRatio="xMinYMin meet" x="151.5" y="-445.2"/>
<text text-anchor="start" x="166.5" y="-435.3" font-family="Helvetica,sans-Serif" font-size="11.00" fill="#000000">usuario_id</text>
<polygon fill="#ffffff" stroke="transparent" points="146.5,-406.2 146.5,-428.2 241.5,-428.2 241.5,-406.2 146.5,-406.2"/>
<polygon fill="none" stroke="#000000" points="146.5,-406.2 146.5,-428.2 241.5,-428.2 241.5,-406.2 146.5,-406.2"/>
<text text-anchor="start" x="166.5" y="-413.3" font-family="Helvetica,sans-Serif" font-size="11.00" fill="#000000">telefone</text>
<polygon fill="#ffffff" stroke="transparent" points="146.5,-384.2 146.5,-406.2 241.5,-406.2 241.5,-384.2 146.5,-384.2"/>
<polygon fill="none" stroke="#000000" points="146.5,-384.2 146.5,-406.2 241.5,-406.2 241.5,-384.2 146.5,-384.2"/>
<text text-anchor="start" x="166.5" y="-391.3" font-family="Helvetica,sans-Serif" font-size="11.00" fill="#000000">cnpj</text>
<polygon fill="none" stroke="#000000" points="146.5,-362.2 146.5,-384.2 241.5,-384.2 241.5,-362.2 146.5,-362.2"/>
<text text-anchor="start" x="166.5" y="-369.3" font-family="Helvetica,sans-Serif" font-size="11.00" fill="#000000">logradouro</text>
<polygon fill="none" stroke="#000000" points="146.5,-340.2 146.5,-362.2 241.5,-362.2 241.5,-340.2 146.5,-340.2"/>
<text text-anchor="start" x="166.5" y="-347.3" font-family="Helvetica,sans-Serif" font-size="11.00" fill="#000000">numero</text>
<polygon fill="none" stroke="#000000" points="146.5,-318.2 146.5,-340.2 241.5,-340.2 241.5,-318.2 146.5,-318.2"/>
<text text-anchor="start" x="166.5" y="-325.3" font-family="Helvetica,sans-Serif" font-size="11.00" fill="#000000">cep</text>
<polygon fill="#ffffff" stroke="transparent" points="146.5,-296.2 146.5,-318.2 241.5,-318.2 241.5,-296.2 146.5,-296.2"/>
<polygon fill="none" stroke="#000000" points="146.5,-296.2 146.5,-318.2 241.5,-318.2 241.5,-296.2 146.5,-296.2"/>
<text text-anchor="start" x="166.5" y="-303.3" font-family="Helvetica,sans-Serif" font-size="11.00" fill="#000000">cpf</text>
<polygon fill="none" stroke="#000000" points="146.5,-274.2 146.5,-296.2 241.5,-296.2 241.5,-274.2 146.5,-274.2"/>
<image xlink:href="../../images/foreignKeys.png" width="11px" height="12px" preserveAspectRatio="xMinYMin meet" x="151.5" y="-291.2"/>
<text text-anchor="start" x="166.5" y="-281.3" font-family="Helvetica,sans-Serif" font-size="11.00" fill="#000000">municipio_id</text>
<polygon fill="#ffffff" stroke="transparent" points="146.5,-255.2 146.5,-274.2 174.5,-274.2 174.5,-255.2 146.5,-255.2"/>
<polygon fill="none" stroke="#000000" points="146.5,-255.2 146.5,-274.2 174.5,-274.2 174.5,-255.2 146.5,-255.2"/>
<text text-anchor="start" x="149.5" y="-261.3" font-family="Helvetica,sans-Serif" font-size="11.00" fill="#000000">&lt; 2</text>
<polygon fill="#ffffff" stroke="transparent" points="174.5,-255.2 174.5,-274.2 216.5,-274.2 216.5,-255.2 174.5,-255.2"/>
<polygon fill="none" stroke="#000000" points="174.5,-255.2 174.5,-274.2 216.5,-274.2 216.5,-255.2 174.5,-255.2"/>
<text text-anchor="start" x="181.1105" y="-261.3" font-family="Helvetica,sans-Serif" font-size="11.00" fill="#000000">0 rows</text>
<polygon fill="#ffffff" stroke="transparent" points="216.5,-255.2 216.5,-274.2 241.5,-274.2 241.5,-255.2 216.5,-255.2"/>
<polygon fill="none" stroke="#000000" points="216.5,-255.2 216.5,-274.2 241.5,-274.2 241.5,-255.2 216.5,-255.2"/>
<text text-anchor="start" x="222.9053" y="-261.3" font-family="Helvetica,sans-Serif" font-size="11.00" fill="#000000">2 &gt;</text>
</a>
</g>
</g>
<!-- animal&#45;&gt;instituicao -->
<g id="edge1" class="edge">
<title>animal:w&#45;&gt;instituicao:e</title>
<path fill="none" stroke="#000000" d="M276.4495,-464.1677C264.471,-456.1993 260.8749,-439.2 241.5,-439.2"/>
<polygon fill="#000000" stroke="#000000" points="282.8104,-465.9931 289.5069,-471.6603 286.6552,-467.0966 290.5,-468.2 290.5,-468.2 290.5,-468.2 286.6552,-467.0966 291.4931,-464.7397 282.8104,-465.9931 282.8104,-465.9931"/>
<ellipse fill="none" stroke="#000000" cx="279.7346" cy="-465.1104" rx="3.2" ry="3.2"/>
</g>
<!-- arquivo_animal -->
<g id="node2" class="node">
<title>arquivo_animal</title>
<g id="a_node2"><a xlink:href="../../tables/arquivo_animal.html" xlink:title="arquivo_animal" target="_top">
<polygon fill="#ffffff" stroke="transparent" points="511.5,-636.2 511.5,-744.2 628.5,-744.2 628.5,-636.2 511.5,-636.2"/>
<polygon fill="#f5f5f5" stroke="transparent" points="512,-721.2 512,-744.2 629,-744.2 629,-721.2 512,-721.2"/>
<polygon fill="none" stroke="#000000" points="512,-721.2 512,-744.2 629,-744.2 629,-721.2 512,-721.2"/>
<text text-anchor="start" x="516.7171" y="-730.3" font-family="Helvetica,sans-Serif" font-weight="bold" font-size="11.00" fill="#000000">arquivo_animal</text>
<text text-anchor="start" x="594.5219" y="-729.3" font-family="Helvetica,sans-Serif" font-size="11.00" fill="#000000">[table]</text>
<polygon fill="none" stroke="#000000" points="512,-699.2 512,-721.2 629,-721.2 629,-699.2 512,-699.2"/>
<image xlink:href="../../images/primaryKeys.png" width="11px" height="12px" preserveAspectRatio="xMinYMin meet" x="517" y="-716.2"/>
<text text-anchor="start" x="536" y="-706.3" font-family="Helvetica,sans-Serif" font-size="11.00" fill="#000000">id</text>
<polygon fill="none" stroke="#000000" points="512,-677.2 512,-699.2 629,-699.2 629,-677.2 512,-677.2"/>
<image xlink:href="../../images/foreignKeys.png" width="11px" height="12px" preserveAspectRatio="xMinYMin meet" x="517" y="-694.2"/>
<text text-anchor="start" x="536" y="-684.3" font-family="Helvetica,sans-Serif" font-size="11.00" fill="#000000">animal_id</text>
<polygon fill="none" stroke="#000000" points="512,-655.2 512,-677.2 629,-677.2 629,-655.2 512,-655.2"/>
<text text-anchor="start" x="536" y="-662.3" font-family="Helvetica,sans-Serif" font-size="11.00" fill="#000000">fotos</text>
<polygon fill="#ffffff" stroke="transparent" points="512,-636.2 512,-655.2 556,-655.2 556,-636.2 512,-636.2"/>
<polygon fill="none" stroke="#000000" points="512,-636.2 512,-655.2 556,-655.2 556,-636.2 512,-636.2"/>
<text text-anchor="start" x="515" y="-642.3" font-family="Helvetica,sans-Serif" font-size="11.00" fill="#000000">&lt; 1</text>
<polygon fill="#ffffff" stroke="transparent" points="556,-636.2 556,-655.2 605,-655.2 605,-636.2 556,-636.2"/>
<polygon fill="none" stroke="#000000" points="556,-636.2 556,-655.2 605,-655.2 605,-636.2 556,-636.2"/>
<text text-anchor="start" x="569.6105" y="-642.3" font-family="Helvetica,sans-Serif" font-size="11.00" fill="#000000">0 rows</text>
<polygon fill="#ffffff" stroke="transparent" points="605,-636.2 605,-655.2 629,-655.2 629,-636.2 605,-636.2"/>
<polygon fill="none" stroke="#000000" points="605,-636.2 605,-655.2 629,-655.2 629,-636.2 605,-636.2"/>
<text text-anchor="start" x="619.8862" y="-642.3" font-family="Helvetica,sans-Serif" font-size="11.00" fill="#000000"> &#160;</text>
</a>
</g>
</g>
<!-- arquivo_animal&#45;&gt;animal -->
<g id="edge2" class="edge">
<title>arquivo_animal:w&#45;&gt;animal:e</title>
<path fill="none" stroke="#000000" d="M497.3098,-688.2C472.0061,-688.2 460.724,-688.2 429.5,-688.2"/>
<polygon fill="#000000" stroke="#000000" points="504,-688.2001 512,-691.8 508,-688.2 512,-688.2 512,-688.2 512,-688.2 508,-688.2 512,-684.6 504,-688.2001 504,-688.2001"/>
<ellipse fill="none" stroke="#000000" cx="500.8" cy="-688.2001" rx="3.2" ry="3.2"/>
</g>
<!-- arquivo_campanha -->
<g id="node3" class="node">
<title>arquivo_campanha</title>
<g id="a_node3"><a xlink:href="../../tables/arquivo_campanha.html" xlink:title="arquivo_campanha" target="_top">
<polygon fill="#ffffff" stroke="transparent" points="502,-234.2 502,-342.2 638,-342.2 638,-234.2 502,-234.2"/>
<polygon fill="#f5f5f5" stroke="transparent" points="502,-319.2 502,-342.2 638,-342.2 638,-319.2 502,-319.2"/>
<polygon fill="none" stroke="#000000" points="502,-319.2 502,-342.2 638,-342.2 638,-319.2 502,-319.2"/>
<text text-anchor="start" x="506.7357" y="-328.3" font-family="Helvetica,sans-Serif" font-weight="bold" font-size="11.00" fill="#000000">arquivo_campanha</text>
<text text-anchor="start" x="603.5219" y="-327.3" font-family="Helvetica,sans-Serif" font-size="11.00" fill="#000000">[table]</text>
<polygon fill="none" stroke="#000000" points="502,-297.2 502,-319.2 638,-319.2 638,-297.2 502,-297.2"/>
<image xlink:href="../../images/primaryKeys.png" width="11px" height="12px" preserveAspectRatio="xMinYMin meet" x="507" y="-314.2"/>
<text text-anchor="start" x="525" y="-304.3" font-family="Helvetica,sans-Serif" font-size="11.00" fill="#000000">id</text>
<polygon fill="none" stroke="#000000" points="502,-275.2 502,-297.2 638,-297.2 638,-275.2 502,-275.2"/>
<image xlink:href="../../images/foreignKeys.png" width="11px" height="12px" preserveAspectRatio="xMinYMin meet" x="507" y="-292.2"/>
<text text-anchor="start" x="525" y="-282.3" font-family="Helvetica,sans-Serif" font-size="11.00" fill="#000000">campanha_id</text>
<polygon fill="none" stroke="#000000" points="502,-253.2 502,-275.2 638,-275.2 638,-253.2 502,-253.2"/>
<text text-anchor="start" x="525" y="-260.3" font-family="Helvetica,sans-Serif" font-size="11.00" fill="#000000">fotos</text>
<polygon fill="#ffffff" stroke="transparent" points="502,-234.2 502,-253.2 555,-253.2 555,-234.2 502,-234.2"/>
<polygon fill="none" stroke="#000000" points="502,-234.2 502,-253.2 555,-253.2 555,-234.2 502,-234.2"/>
<text text-anchor="start" x="505" y="-240.3" font-family="Helvetica,sans-Serif" font-size="11.00" fill="#000000">&lt; 1</text>
<polygon fill="#ffffff" stroke="transparent" points="555,-234.2 555,-253.2 609,-253.2 609,-234.2 555,-234.2"/>
<polygon fill="none" stroke="#000000" points="555,-234.2 555,-253.2 609,-253.2 609,-234.2 555,-234.2"/>
<text text-anchor="start" x="573.6105" y="-240.3" font-family="Helvetica,sans-Serif" font-size="11.00" fill="#000000">0 rows</text>
<polygon fill="#ffffff" stroke="transparent" points="609,-234.2 609,-253.2 638,-253.2 638,-234.2 609,-234.2"/>
<polygon fill="none" stroke="#000000" points="609,-234.2 609,-253.2 638,-253.2 638,-234.2 609,-234.2"/>
<text text-anchor="start" x="628.8862" y="-240.3" font-family="Helvetica,sans-Serif" font-size="11.00" fill="#000000"> &#160;</text>
</a>
</g>
</g>
<!-- campanha -->
<g id="node4" class="node">
<title>campanha</title>
<g id="a_node4"><a xlink:href="../../tables/campanha.html" xlink:title="campanha" target="_top">
<polygon fill="#ffffff" stroke="transparent" points="310.5,-194.2 310.5,-390.2 408.5,-390.2 408.5,-194.2 310.5,-194.2"/>
<polygon fill="#f5f5f5" stroke="transparent" points="310.5,-367.2 310.5,-390.2 408.5,-390.2 408.5,-367.2 310.5,-367.2"/>
<polygon fill="none" stroke="#000000" points="310.5,-367.2 310.5,-390.2 408.5,-390.2 408.5,-367.2 310.5,-367.2"/>
<text text-anchor="start" x="315.5" y="-376.3" font-family="Helvetica,sans-Serif" font-weight="bold" font-size="11.00" fill="#000000">campanha</text>
<text text-anchor="start" x="373.5437" y="-375.3" font-family="Helvetica,sans-Serif" font-size="11.00" fill="#000000">[table]</text>
<polygon fill="none" stroke="#000000" points="310.5,-345.2 310.5,-367.2 408.5,-367.2 408.5,-345.2 310.5,-345.2"/>
<image xlink:href="../../images/primaryKeys.png" width="11px" height="12px" preserveAspectRatio="xMinYMin meet" x="315.5" y="-362.2"/>
<text text-anchor="start" x="330.5" y="-352.3" font-family="Helvetica,sans-Serif" font-size="11.00" fill="#000000">id</text>
<polygon fill="none" stroke="#000000" points="310.5,-323.2 310.5,-345.2 408.5,-345.2 408.5,-323.2 310.5,-323.2"/>
<text text-anchor="start" x="330.5" y="-330.3" font-family="Helvetica,sans-Serif" font-size="11.00" fill="#000000">titulo</text>
<polygon fill="none" stroke="#000000" points="310.5,-301.2 310.5,-323.2 408.5,-323.2 408.5,-301.2 310.5,-301.2"/>
<text text-anchor="start" x="330.5" y="-308.3" font-family="Helvetica,sans-Serif" font-size="11.00" fill="#000000">descricao</text>
<polygon fill="none" stroke="#000000" points="310.5,-279.2 310.5,-301.2 408.5,-301.2 408.5,-279.2 310.5,-279.2"/>
<text text-anchor="start" x="330.5" y="-286.3" font-family="Helvetica,sans-Serif" font-size="11.00" fill="#000000">requisitos</text>
<polygon fill="none" stroke="#000000" points="310.5,-257.2 310.5,-279.2 408.5,-279.2 408.5,-257.2 310.5,-257.2"/>
<text text-anchor="start" x="330.5" y="-264.3" font-family="Helvetica,sans-Serif" font-size="11.00" fill="#000000">data_inicio</text>
<polygon fill="none" stroke="#000000" points="310.5,-235.2 310.5,-257.2 408.5,-257.2 408.5,-235.2 310.5,-235.2"/>
<text text-anchor="start" x="330.5" y="-242.3" font-family="Helvetica,sans-Serif" font-size="11.00" fill="#000000">data_fim</text>
<polygon fill="none" stroke="#000000" points="310.5,-213.2 310.5,-235.2 408.5,-235.2 408.5,-213.2 310.5,-213.2"/>
<image xlink:href="../../images/foreignKeys.png" width="11px" height="12px" preserveAspectRatio="xMinYMin meet" x="315.5" y="-230.2"/>
<text text-anchor="start" x="330.5" y="-220.3" font-family="Helvetica,sans-Serif" font-size="11.00" fill="#000000">instituicao_id</text>
<polygon fill="#ffffff" stroke="transparent" points="310.5,-194.2 310.5,-213.2 340.5,-213.2 340.5,-194.2 310.5,-194.2"/>
<polygon fill="none" stroke="#000000" points="310.5,-194.2 310.5,-213.2 340.5,-213.2 340.5,-194.2 310.5,-194.2"/>
<text text-anchor="start" x="313.5" y="-200.3" font-family="Helvetica,sans-Serif" font-size="11.00" fill="#000000">&lt; 1</text>
<polygon fill="#ffffff" stroke="transparent" points="340.5,-194.2 340.5,-213.2 382.5,-213.2 382.5,-194.2 340.5,-194.2"/>
<polygon fill="none" stroke="#000000" points="340.5,-194.2 340.5,-213.2 382.5,-213.2 382.5,-194.2 340.5,-194.2"/>
<text text-anchor="start" x="347.1105" y="-200.3" font-family="Helvetica,sans-Serif" font-size="11.00" fill="#000000">0 rows</text>
<polygon fill="#ffffff" stroke="transparent" points="382.5,-194.2 382.5,-213.2 408.5,-213.2 408.5,-194.2 382.5,-194.2"/>
<polygon fill="none" stroke="#000000" points="382.5,-194.2 382.5,-213.2 408.5,-213.2 408.5,-194.2 382.5,-194.2"/>
<text text-anchor="start" x="389.9053" y="-200.3" font-family="Helvetica,sans-Serif" font-size="11.00" fill="#000000">3 &gt;</text>
</a>
</g>
</g>
<!-- arquivo_campanha&#45;&gt;campanha -->
<g id="edge3" class="edge">
<title>arquivo_campanha:w&#45;&gt;campanha:e</title>
<path fill="none" stroke="#000000" d="M487.5058,-288.3717C451.574,-300.187 454.9361,-356.2 408.5,-356.2"/>
<polygon fill="#000000" stroke="#000000" points="494.0883,-287.3855 502.5335,-289.7603 498.0442,-286.7927 502,-286.2 502,-286.2 502,-286.2 498.0442,-286.7927 501.4665,-282.6397 494.0883,-287.3855 494.0883,-287.3855"/>
<ellipse fill="none" stroke="#000000" cx="490.9236" cy="-287.8597" rx="3.2" ry="3.2"/>
</g>
<!-- campanha&#45;&gt;instituicao -->
<g id="edge4" class="edge">
<title>campanha:w&#45;&gt;instituicao:e</title>
<path fill="none" stroke="#000000" d="M296.0416,-226.0587C223.856,-247.0726 336.3677,-439.2 241.5,-439.2"/>
<polygon fill="#000000" stroke="#000000" points="302.5653,-225.2201 310.959,-227.7706 306.5326,-224.71 310.5,-224.2 310.5,-224.2 310.5,-224.2 306.5326,-224.71 310.041,-220.6294 302.5653,-225.2201 302.5653,-225.2201"/>
<ellipse fill="none" stroke="#000000" cx="299.3914" cy="-225.6281" rx="3.2" ry="3.2"/>
</g>
<!-- formulario -->
<g id="node5" class="node">
<title>formulario</title>
<g id="a_node5"><a xlink:href="../../tables/formulario.html" xlink:title="formulario" target="_top">
<polygon fill="#ffffff" stroke="transparent" points="521.5,-363.2 521.5,-471.2 618.5,-471.2 618.5,-363.2 521.5,-363.2"/>
<polygon fill="#f5f5f5" stroke="transparent" points="522,-448.2 522,-471.2 619,-471.2 619,-448.2 522,-448.2"/>
<polygon fill="none" stroke="#000000" points="522,-448.2 522,-471.2 619,-471.2 619,-448.2 522,-448.2"/>
<text text-anchor="start" x="527" y="-457.3" font-family="Helvetica,sans-Serif" font-weight="bold" font-size="11.00" fill="#000000">formulario</text>
<text text-anchor="start" x="584.0437" y="-456.3" font-family="Helvetica,sans-Serif" font-size="11.00" fill="#000000">[table]</text>
<polygon fill="none" stroke="#000000" points="522,-426.2 522,-448.2 619,-448.2 619,-426.2 522,-426.2"/>
<image xlink:href="../../images/primaryKeys.png" width="11px" height="12px" preserveAspectRatio="xMinYMin meet" x="527" y="-443.2"/>
<text text-anchor="start" x="542" y="-433.3" font-family="Helvetica,sans-Serif" font-size="11.00" fill="#000000">id</text>
<polygon fill="none" stroke="#000000" points="522,-404.2 522,-426.2 619,-426.2 619,-404.2 522,-404.2"/>
<text text-anchor="start" x="542" y="-411.3" font-family="Helvetica,sans-Serif" font-size="11.00" fill="#000000">url</text>
<polygon fill="none" stroke="#000000" points="522,-382.2 522,-404.2 619,-404.2 619,-382.2 522,-382.2"/>
<image xlink:href="../../images/foreignKeys.png" width="11px" height="12px" preserveAspectRatio="xMinYMin meet" x="527" y="-399.2"/>
<text text-anchor="start" x="542" y="-389.3" font-family="Helvetica,sans-Serif" font-size="11.00" fill="#000000">campanha_id</text>
<polygon fill="#ffffff" stroke="transparent" points="522,-363.2 522,-382.2 556,-382.2 556,-363.2 522,-363.2"/>
<polygon fill="none" stroke="#000000" points="522,-363.2 522,-382.2 556,-382.2 556,-363.2 522,-363.2"/>
<text text-anchor="start" x="525" y="-369.3" font-family="Helvetica,sans-Serif" font-size="11.00" fill="#000000">&lt; 1</text>
<polygon fill="#ffffff" stroke="transparent" points="556,-363.2 556,-382.2 600,-382.2 600,-363.2 556,-363.2"/>
<polygon fill="none" stroke="#000000" points="556,-363.2 556,-382.2 600,-382.2 600,-363.2 556,-363.2"/>
<text text-anchor="start" x="564.6105" y="-369.3" font-family="Helvetica,sans-Serif" font-size="11.00" fill="#000000">0 rows</text>
<polygon fill="#ffffff" stroke="transparent" points="600,-363.2 600,-382.2 619,-382.2 619,-363.2 600,-363.2"/>
<polygon fill="none" stroke="#000000" points="600,-363.2 600,-382.2 619,-382.2 619,-363.2 600,-363.2"/>
<text text-anchor="start" x="609.8862" y="-369.3" font-family="Helvetica,sans-Serif" font-size="11.00" fill="#000000"> &#160;</text>
</a>
</g>
</g>
<!-- formulario&#45;&gt;campanha -->
<g id="edge5" class="edge">
<title>formulario:w&#45;&gt;campanha:e</title>
<path fill="none" stroke="#000000" d="M507.4142,-392.1718C467.0183,-386.196 456.2722,-356.2 408.5,-356.2"/>
<polygon fill="#000000" stroke="#000000" points="514.0198,-392.6374 521.7468,-396.7911 518.0099,-392.9187 522,-393.2 522,-393.2 522,-393.2 518.0099,-392.9187 522.2532,-389.6089 514.0198,-392.6374 514.0198,-392.6374"/>
<ellipse fill="none" stroke="#000000" cx="510.8277" cy="-392.4124" rx="3.2" ry="3.2"/>
</g>
<!-- municipio -->
<g id="node7" class="node">
<title>municipio</title>
<g id="a_node7"><a xlink:href="../../tables/municipio.html" xlink:title="municipio" target="_top">
<polygon fill="#ffffff" stroke="transparent" points="8,-38.2 8,-146.2 97,-146.2 97,-38.2 8,-38.2"/>
<polygon fill="#f5f5f5" stroke="transparent" points="8.5,-123.2 8.5,-146.2 97.5,-146.2 97.5,-123.2 8.5,-123.2"/>
<polygon fill="none" stroke="#000000" points="8.5,-123.2 8.5,-146.2 97.5,-146.2 97.5,-123.2 8.5,-123.2"/>
<text text-anchor="start" x="13.2779" y="-132.3" font-family="Helvetica,sans-Serif" font-weight="bold" font-size="11.00" fill="#000000">municipio</text>
<text text-anchor="start" x="63.0219" y="-131.3" font-family="Helvetica,sans-Serif" font-size="11.00" fill="#000000">[table]</text>
<polygon fill="none" stroke="#000000" points="8.5,-101.2 8.5,-123.2 97.5,-123.2 97.5,-101.2 8.5,-101.2"/>
<image xlink:href="../../images/primaryKeys.png" width="11px" height="12px" preserveAspectRatio="xMinYMin meet" x="13.5" y="-118.2"/>
<text text-anchor="start" x="34.5" y="-108.3" font-family="Helvetica,sans-Serif" font-size="11.00" fill="#000000">id</text>
<polygon fill="#ffffff" stroke="transparent" points="8.5,-79.2 8.5,-101.2 97.5,-101.2 97.5,-79.2 8.5,-79.2"/>
<polygon fill="none" stroke="#000000" points="8.5,-79.2 8.5,-101.2 97.5,-101.2 97.5,-79.2 8.5,-79.2"/>
<text text-anchor="start" x="34.5" y="-86.3" font-family="Helvetica,sans-Serif" font-size="11.00" fill="#000000">uf</text>
<polygon fill="#ffffff" stroke="transparent" points="8.5,-57.2 8.5,-79.2 97.5,-79.2 97.5,-57.2 8.5,-57.2"/>
<polygon fill="none" stroke="#000000" points="8.5,-57.2 8.5,-79.2 97.5,-79.2 97.5,-57.2 8.5,-57.2"/>
<text text-anchor="start" x="34.5" y="-64.3" font-family="Helvetica,sans-Serif" font-size="11.00" fill="#000000">nome</text>
<polygon fill="#ffffff" stroke="transparent" points="8.5,-38.2 8.5,-57.2 29.5,-57.2 29.5,-38.2 8.5,-38.2"/>
<polygon fill="none" stroke="#000000" points="8.5,-38.2 8.5,-57.2 29.5,-57.2 29.5,-38.2 8.5,-38.2"/>
<text text-anchor="start" x="11.5" y="-44.3" font-family="Helvetica,sans-Serif" font-size="11.00" fill="#000000"> &#160;</text>
<polygon fill="#ffffff" stroke="transparent" points="29.5,-38.2 29.5,-57.2 71.5,-57.2 71.5,-38.2 29.5,-38.2"/>
<polygon fill="none" stroke="#000000" points="29.5,-38.2 29.5,-57.2 71.5,-57.2 71.5,-38.2 29.5,-38.2"/>
<text text-anchor="start" x="36.1105" y="-44.3" font-family="Helvetica,sans-Serif" font-size="11.00" fill="#000000">0 rows</text>
<polygon fill="#ffffff" stroke="transparent" points="71.5,-38.2 71.5,-57.2 97.5,-57.2 97.5,-38.2 71.5,-38.2"/>
<polygon fill="none" stroke="#000000" points="71.5,-38.2 71.5,-57.2 97.5,-57.2 97.5,-38.2 71.5,-38.2"/>
<text text-anchor="start" x="78.9053" y="-44.3" font-family="Helvetica,sans-Serif" font-size="11.00" fill="#000000">2 &gt;</text>
</a>
</g>
</g>
<!-- instituicao&#45;&gt;municipio -->
<g id="edge6" class="edge">
<title>instituicao:w&#45;&gt;municipio:e</title>
<path fill="none" stroke="#000000" d="M132.0194,-282.6202C81.6083,-261.0996 171.6385,-112.2 97.5,-112.2"/>
<polygon fill="#000000" stroke="#000000" points="138.624,-283.7968 145.8686,-288.7442 142.562,-284.4984 146.5,-285.2 146.5,-285.2 146.5,-285.2 142.562,-284.4984 147.1314,-281.6558 138.624,-283.7968 138.624,-283.7968"/>
<ellipse fill="none" stroke="#000000" cx="135.4736" cy="-283.2355" rx="3.2" ry="3.2"/>
</g>
<!-- usuario -->
<g id="node11" class="node">
<title>usuario</title>
<g id="a_node11"><a xlink:href="../../tables/usuario.html" xlink:title="usuario" target="_top">
<polygon fill="#ffffff" stroke="transparent" points="13,-211.2 13,-451.2 92,-451.2 92,-211.2 13,-211.2"/>
<polygon fill="#f5f5f5" stroke="transparent" points="13.5,-428.2 13.5,-451.2 92.5,-451.2 92.5,-428.2 13.5,-428.2"/>
<polygon fill="none" stroke="#000000" points="13.5,-428.2 13.5,-451.2 92.5,-451.2 92.5,-428.2 13.5,-428.2"/>
<text text-anchor="start" x="18.4688" y="-437.3" font-family="Helvetica,sans-Serif" font-weight="bold" font-size="11.00" fill="#000000">usuario</text>
<text text-anchor="start" x="58.0219" y="-436.3" font-family="Helvetica,sans-Serif" font-size="11.00" fill="#000000">[table]</text>
<polygon fill="none" stroke="#000000" points="13.5,-406.2 13.5,-428.2 92.5,-428.2 92.5,-406.2 13.5,-406.2"/>
<image xlink:href="../../images/primaryKeys.png" width="11px" height="12px" preserveAspectRatio="xMinYMin meet" x="18.5" y="-423.2"/>
<text text-anchor="start" x="38.5" y="-413.3" font-family="Helvetica,sans-Serif" font-size="11.00" fill="#000000">id</text>
<polygon fill="none" stroke="#000000" points="13.5,-384.2 13.5,-406.2 92.5,-406.2 92.5,-384.2 13.5,-384.2"/>
<text text-anchor="start" x="38.5" y="-391.3" font-family="Helvetica,sans-Serif" font-size="11.00" fill="#000000">nome</text>
<polygon fill="none" stroke="#000000" points="13.5,-362.2 13.5,-384.2 92.5,-384.2 92.5,-362.2 13.5,-362.2"/>
<text text-anchor="start" x="38.5" y="-369.3" font-family="Helvetica,sans-Serif" font-size="11.00" fill="#000000">senha</text>
<polygon fill="#ffffff" stroke="transparent" points="13.5,-340.2 13.5,-362.2 92.5,-362.2 92.5,-340.2 13.5,-340.2"/>
<polygon fill="none" stroke="#000000" points="13.5,-340.2 13.5,-362.2 92.5,-362.2 92.5,-340.2 13.5,-340.2"/>
<text text-anchor="start" x="38.5" y="-347.3" font-family="Helvetica,sans-Serif" font-size="11.00" fill="#000000">email</text>
<polygon fill="#ffffff" stroke="transparent" points="13.5,-318.2 13.5,-340.2 92.5,-340.2 92.5,-318.2 13.5,-318.2"/>
<polygon fill="none" stroke="#000000" points="13.5,-318.2 13.5,-340.2 92.5,-340.2 92.5,-318.2 13.5,-318.2"/>
<text text-anchor="start" x="38.5" y="-325.3" font-family="Helvetica,sans-Serif" font-size="11.00" fill="#000000">celular</text>
<polygon fill="none" stroke="#000000" points="13.5,-296.2 13.5,-318.2 92.5,-318.2 92.5,-296.2 13.5,-296.2"/>
<text text-anchor="start" x="38.5" y="-303.3" font-family="Helvetica,sans-Serif" font-size="11.00" fill="#000000">situacao</text>
<polygon fill="none" stroke="#000000" points="13.5,-274.2 13.5,-296.2 92.5,-296.2 92.5,-274.2 13.5,-274.2"/>
<text text-anchor="start" x="38.5" y="-281.3" font-family="Helvetica,sans-Serif" font-size="11.00" fill="#000000">data</text>
<polygon fill="none" stroke="#000000" points="13.5,-252.2 13.5,-274.2 92.5,-274.2 92.5,-252.2 13.5,-252.2"/>
<text text-anchor="start" x="38.5" y="-259.3" font-family="Helvetica,sans-Serif" font-size="11.00" fill="#000000">aceite</text>
<polygon fill="none" stroke="#000000" points="13.5,-230.2 13.5,-252.2 92.5,-252.2 92.5,-230.2 13.5,-230.2"/>
<text text-anchor="start" x="38.5" y="-237.3" font-family="Helvetica,sans-Serif" font-size="11.00" fill="#000000">tipo</text>
<polygon fill="#ffffff" stroke="transparent" points="13.5,-211.2 13.5,-230.2 29.5,-230.2 29.5,-211.2 13.5,-211.2"/>
<polygon fill="none" stroke="#000000" points="13.5,-211.2 13.5,-230.2 29.5,-230.2 29.5,-211.2 13.5,-211.2"/>
<text text-anchor="start" x="16.5" y="-217.3" font-family="Helvetica,sans-Serif" font-size="11.00" fill="#000000"> &#160;</text>
<polygon fill="#ffffff" stroke="transparent" points="29.5,-211.2 29.5,-230.2 69.5,-230.2 69.5,-211.2 29.5,-211.2"/>
<polygon fill="none" stroke="#000000" points="29.5,-211.2 29.5,-230.2 69.5,-230.2 69.5,-211.2 29.5,-211.2"/>
<text text-anchor="start" x="34.1105" y="-217.3" font-family="Helvetica,sans-Serif" font-size="11.00" fill="#000000">0 rows</text>
<polygon fill="#ffffff" stroke="transparent" points="69.5,-211.2 69.5,-230.2 92.5,-230.2 92.5,-211.2 69.5,-211.2"/>
<polygon fill="none" stroke="#000000" points="69.5,-211.2 69.5,-230.2 92.5,-230.2 92.5,-211.2 69.5,-211.2"/>
<text text-anchor="start" x="73.9053" y="-217.3" font-family="Helvetica,sans-Serif" font-size="11.00" fill="#000000">2 &gt;</text>
</a>
</g>
</g>
<!-- instituicao&#45;&gt;usuario -->
<g id="edge7" class="edge">
<title>instituicao:w&#45;&gt;usuario:e</title>
<path fill="none" stroke="#000000" d="M135.9102,-437.7565C119.327,-432.8621 114.3661,-417.2 92.5,-417.2"/>
<polygon fill="#000000" stroke="#000000" points="146.2476,-435.1286 145.1671,-443.0553 143.5817,-442.8392 144.6623,-434.9125 146.2476,-435.1286"/>
<polyline fill="none" stroke="#000000" points="146.5,-439.2 142.5367,-438.6597 "/>
<ellipse fill="none" stroke="#000000" cx="139.366" cy="-438.2275" rx="3.2" ry="3.2"/>
</g>
<!-- pessoa -->
<g id="node8" class="node">
<title>pessoa</title>
<g id="a_node8"><a xlink:href="../../tables/pessoa.html" xlink:title="pessoa" target="_top">
<polygon fill="#ffffff" stroke="transparent" points="146,-60.2 146,-234.2 241,-234.2 241,-60.2 146,-60.2"/>
<polygon fill="#f5f5f5" stroke="transparent" points="146.5,-211.2 146.5,-234.2 241.5,-234.2 241.5,-211.2 146.5,-211.2"/>
<polygon fill="none" stroke="#000000" points="146.5,-211.2 146.5,-234.2 241.5,-234.2 241.5,-211.2 146.5,-211.2"/>
<text text-anchor="start" x="151.5" y="-220.3" font-family="Helvetica,sans-Serif" font-weight="bold" font-size="11.00" fill="#000000">pessoa</text>
<text text-anchor="start" x="206.5437" y="-219.3" font-family="Helvetica,sans-Serif" font-size="11.00" fill="#000000">[table]</text>
<polygon fill="none" stroke="#000000" points="146.5,-189.2 146.5,-211.2 241.5,-211.2 241.5,-189.2 146.5,-189.2"/>
<image xlink:href="../../images/primaryKeys.png" width="11px" height="12px" preserveAspectRatio="xMinYMin meet" x="151.5" y="-206.2"/>
<text text-anchor="start" x="166.5" y="-196.3" font-family="Helvetica,sans-Serif" font-size="11.00" fill="#000000">usuario_id</text>
<polygon fill="#ffffff" stroke="transparent" points="146.5,-167.2 146.5,-189.2 241.5,-189.2 241.5,-167.2 146.5,-167.2"/>
<polygon fill="none" stroke="#000000" points="146.5,-167.2 146.5,-189.2 241.5,-189.2 241.5,-167.2 146.5,-167.2"/>
<text text-anchor="start" x="166.5" y="-174.3" font-family="Helvetica,sans-Serif" font-size="11.00" fill="#000000">telefone</text>
<polygon fill="none" stroke="#000000" points="146.5,-145.2 146.5,-167.2 241.5,-167.2 241.5,-145.2 146.5,-145.2"/>
<text text-anchor="start" x="166.5" y="-152.3" font-family="Helvetica,sans-Serif" font-size="11.00" fill="#000000">logradouro</text>
<polygon fill="none" stroke="#000000" points="146.5,-123.2 146.5,-145.2 241.5,-145.2 241.5,-123.2 146.5,-123.2"/>
<text text-anchor="start" x="166.5" y="-130.3" font-family="Helvetica,sans-Serif" font-size="11.00" fill="#000000">numero</text>
<polygon fill="none" stroke="#000000" points="146.5,-101.2 146.5,-123.2 241.5,-123.2 241.5,-101.2 146.5,-101.2"/>
<text text-anchor="start" x="166.5" y="-108.3" font-family="Helvetica,sans-Serif" font-size="11.00" fill="#000000">cep</text>
<polygon fill="none" stroke="#000000" points="146.5,-79.2 146.5,-101.2 241.5,-101.2 241.5,-79.2 146.5,-79.2"/>
<image xlink:href="../../images/foreignKeys.png" width="11px" height="12px" preserveAspectRatio="xMinYMin meet" x="151.5" y="-96.2"/>
<text text-anchor="start" x="166.5" y="-86.3" font-family="Helvetica,sans-Serif" font-size="11.00" fill="#000000">municipio_id</text>
<polygon fill="#ffffff" stroke="transparent" points="146.5,-60.2 146.5,-79.2 174.5,-79.2 174.5,-60.2 146.5,-60.2"/>
<polygon fill="none" stroke="#000000" points="146.5,-60.2 146.5,-79.2 174.5,-79.2 174.5,-60.2 146.5,-60.2"/>
<text text-anchor="start" x="149.5" y="-66.3" font-family="Helvetica,sans-Serif" font-size="11.00" fill="#000000">&lt; 2</text>
<polygon fill="#ffffff" stroke="transparent" points="174.5,-60.2 174.5,-79.2 216.5,-79.2 216.5,-60.2 174.5,-60.2"/>
<polygon fill="none" stroke="#000000" points="174.5,-60.2 174.5,-79.2 216.5,-79.2 216.5,-60.2 174.5,-60.2"/>
<text text-anchor="start" x="181.1105" y="-66.3" font-family="Helvetica,sans-Serif" font-size="11.00" fill="#000000">0 rows</text>
<polygon fill="#ffffff" stroke="transparent" points="216.5,-60.2 216.5,-79.2 241.5,-79.2 241.5,-60.2 216.5,-60.2"/>
<polygon fill="none" stroke="#000000" points="216.5,-60.2 216.5,-79.2 241.5,-79.2 241.5,-60.2 216.5,-60.2"/>
<text text-anchor="start" x="222.9053" y="-66.3" font-family="Helvetica,sans-Serif" font-size="11.00" fill="#000000">2 &gt;</text>
</a>
</g>
</g>
<!-- pessoa&#45;&gt;municipio -->
<g id="edge8" class="edge">
<title>pessoa:w&#45;&gt;municipio:e</title>
<path fill="none" stroke="#000000" d="M132.1297,-93.6375C120.5865,-99.825 115.4041,-112.2 97.5,-112.2"/>
<polygon fill="#000000" stroke="#000000" points="138.7195,-92.0612 147.3375,-93.7012 142.6098,-91.1306 146.5,-90.2 146.5,-90.2 146.5,-90.2 142.6098,-91.1306 145.6625,-86.6988 138.7195,-92.0612 138.7195,-92.0612"/>
<ellipse fill="none" stroke="#000000" cx="135.6073" cy="-92.8057" rx="3.2" ry="3.2"/>
</g>
<!-- pessoa&#45;&gt;usuario -->
<g id="edge9" class="edge">
<title>pessoa:w&#45;&gt;usuario:e</title>
<path fill="none" stroke="#000000" d="M135.9418,-201.1675C58.052,-216.822 188.0035,-417.2 92.5,-417.2"/>
<polygon fill="#000000" stroke="#000000" points="145.3383,-196.2897 146.0684,-204.2563 144.475,-204.4023 143.745,-196.4357 145.3383,-196.2897"/>
<polyline fill="none" stroke="#000000" points="146.5,-200.2 142.5167,-200.565 "/>
<ellipse fill="none" stroke="#000000" cx="139.33" cy="-200.8571" rx="3.2" ry="3.2"/>
</g>
<!-- pessoa_cadastra_campanha -->
<g id="node9" class="node">
<title>pessoa_cadastra_campanha</title>
<g id="a_node9"><a xlink:href="../../tables/pessoa_cadastra_campanha.html" xlink:title="pessoa_cadastra_campanha" target="_top">
<polygon fill="#ffffff" stroke="transparent" points="478,-77.2 478,-207.2 662,-207.2 662,-77.2 478,-77.2"/>
<polygon fill="#f5f5f5" stroke="transparent" points="478,-184.2 478,-207.2 662,-207.2 662,-184.2 478,-184.2"/>
<polygon fill="none" stroke="#000000" points="478,-184.2 478,-207.2 662,-207.2 662,-184.2 478,-184.2"/>
<text text-anchor="start" x="482.8905" y="-193.3" font-family="Helvetica,sans-Serif" font-weight="bold" font-size="11.00" fill="#000000">pessoa_cadastra_campanha</text>
<text text-anchor="start" x="627.5219" y="-192.3" font-family="Helvetica,sans-Serif" font-size="11.00" fill="#000000">[table]</text>
<polygon fill="#ffffff" stroke="transparent" points="478,-162.2 478,-184.2 662,-184.2 662,-162.2 478,-162.2"/>
<polygon fill="none" stroke="#000000" points="478,-162.2 478,-184.2 662,-184.2 662,-162.2 478,-162.2"/>
<image xlink:href="../../images/foreignKeys.png" width="11px" height="12px" preserveAspectRatio="xMinYMin meet" x="483" y="-179.2"/>
<text text-anchor="start" x="498" y="-169.3" font-family="Helvetica,sans-Serif" font-size="11.00" fill="#000000">pessoa_id</text>
<polygon fill="#ffffff" stroke="transparent" points="478,-140.2 478,-162.2 662,-162.2 662,-140.2 478,-140.2"/>
<polygon fill="none" stroke="#000000" points="478,-140.2 478,-162.2 662,-162.2 662,-140.2 478,-140.2"/>
<image xlink:href="../../images/foreignKeys.png" width="11px" height="12px" preserveAspectRatio="xMinYMin meet" x="483" y="-157.2"/>
<text text-anchor="start" x="498" y="-147.3" font-family="Helvetica,sans-Serif" font-size="11.00" fill="#000000">campanha_id</text>
<polygon fill="none" stroke="#000000" points="478,-118.2 478,-140.2 662,-140.2 662,-118.2 478,-118.2"/>
<text text-anchor="start" x="498" y="-125.3" font-family="Helvetica,sans-Serif" font-size="11.00" fill="#000000">situacao</text>
<polygon fill="none" stroke="#000000" points="478,-96.2 478,-118.2 662,-118.2 662,-96.2 478,-96.2"/>
<text text-anchor="start" x="498" y="-103.3" font-family="Helvetica,sans-Serif" font-size="11.00" fill="#000000">data</text>
<polygon fill="#ffffff" stroke="transparent" points="478,-77.2 478,-96.2 555,-96.2 555,-77.2 478,-77.2"/>
<polygon fill="none" stroke="#000000" points="478,-77.2 478,-96.2 555,-96.2 555,-77.2 478,-77.2"/>
<text text-anchor="start" x="481" y="-83.3" font-family="Helvetica,sans-Serif" font-size="11.00" fill="#000000">&lt; 2</text>
<polygon fill="#ffffff" stroke="transparent" points="555,-77.2 555,-96.2 621,-96.2 621,-77.2 555,-77.2"/>
<polygon fill="none" stroke="#000000" points="555,-77.2 555,-96.2 621,-96.2 621,-77.2 555,-77.2"/>
<text text-anchor="start" x="585.6105" y="-83.3" font-family="Helvetica,sans-Serif" font-size="11.00" fill="#000000">0 rows</text>
<polygon fill="#ffffff" stroke="transparent" points="621,-77.2 621,-96.2 662,-96.2 662,-77.2 621,-77.2"/>
<polygon fill="none" stroke="#000000" points="621,-77.2 621,-96.2 662,-96.2 662,-77.2 621,-77.2"/>
<text text-anchor="start" x="652.8862" y="-83.3" font-family="Helvetica,sans-Serif" font-size="11.00" fill="#000000"> &#160;</text>
</a>
</g>
</g>
<!-- pessoa_cadastra_campanha&#45;&gt;campanha -->
<g id="edge10" class="edge">
<title>pessoa_cadastra_campanha:w&#45;&gt;campanha:e</title>
<path fill="none" stroke="#000000" d="M463.6819,-153.0985C395.0156,-173.765 499.2557,-356.2 408.5,-356.2"/>
<polygon fill="#000000" stroke="#000000" points="470.0694,-152.2516 478.4732,-154.7688 474.0347,-151.7258 478,-151.2 478,-151.2 478,-151.2 474.0347,-151.7258 477.5268,-147.6312 470.0694,-152.2516 470.0694,-152.2516"/>
<ellipse fill="none" stroke="#000000" cx="466.8972" cy="-152.6723" rx="3.2" ry="3.2"/>
</g>
<!-- pessoa_cadastra_campanha&#45;&gt;pessoa -->
<g id="edge11" class="edge">
<title>pessoa_cadastra_campanha:w&#45;&gt;pessoa:e</title>
<path fill="none" stroke="#000000" d="M463.2944,-173.1274C387.7822,-172.3869 362.2247,-166.584 282,-184.2 263.0966,-188.3509 260.8538,-200.2 241.5,-200.2"/>
<polygon fill="#000000" stroke="#000000" points="470.0001,-173.1605 477.9822,-176.8 474,-173.1802 478,-173.2 478,-173.2 478,-173.2 474,-173.1802 478.0178,-169.6 470.0001,-173.1605 470.0001,-173.1605"/>
<ellipse fill="none" stroke="#000000" cx="466.8001" cy="-173.1447" rx="3.2" ry="3.2"/>
</g>
<!-- pessoa_interessa_animal -->
<g id="node10" class="node">
<title>pessoa_interessa_animal</title>
<g id="a_node10"><a xlink:href="../../tables/pessoa_interessa_animal.html" xlink:title="pessoa_interessa_animal" target="_top">
<polygon fill="#ffffff" stroke="transparent" points="486.5,-504.2 486.5,-612.2 653.5,-612.2 653.5,-504.2 486.5,-504.2"/>
<polygon fill="#f5f5f5" stroke="transparent" points="487,-589.2 487,-612.2 654,-612.2 654,-589.2 487,-589.2"/>
<polygon fill="none" stroke="#000000" points="487,-589.2 487,-612.2 654,-612.2 654,-589.2 487,-589.2"/>
<text text-anchor="start" x="491.6515" y="-598.3" font-family="Helvetica,sans-Serif" font-weight="bold" font-size="11.00" fill="#000000">pessoa_interessa_animal</text>
<text text-anchor="start" x="619.5219" y="-597.3" font-family="Helvetica,sans-Serif" font-size="11.00" fill="#000000">[table]</text>
<polygon fill="#ffffff" stroke="transparent" points="487,-567.2 487,-589.2 654,-589.2 654,-567.2 487,-567.2"/>
<polygon fill="none" stroke="#000000" points="487,-567.2 487,-589.2 654,-589.2 654,-567.2 487,-567.2"/>
<image xlink:href="../../images/foreignKeys.png" width="11px" height="12px" preserveAspectRatio="xMinYMin meet" x="492" y="-584.2"/>
<text text-anchor="start" x="508" y="-574.3" font-family="Helvetica,sans-Serif" font-size="11.00" fill="#000000">pessoa_id</text>
<polygon fill="#ffffff" stroke="transparent" points="487,-545.2 487,-567.2 654,-567.2 654,-545.2 487,-545.2"/>
<polygon fill="none" stroke="#000000" points="487,-545.2 487,-567.2 654,-567.2 654,-545.2 487,-545.2"/>
<image xlink:href="../../images/foreignKeys.png" width="11px" height="12px" preserveAspectRatio="xMinYMin meet" x="492" y="-562.2"/>
<text text-anchor="start" x="508" y="-552.3" font-family="Helvetica,sans-Serif" font-size="11.00" fill="#000000">animal_id</text>
<polygon fill="none" stroke="#000000" points="487,-523.2 487,-545.2 654,-545.2 654,-523.2 487,-523.2"/>
<text text-anchor="start" x="508" y="-530.3" font-family="Helvetica,sans-Serif" font-size="11.00" fill="#000000">data</text>
<polygon fill="#ffffff" stroke="transparent" points="487,-504.2 487,-523.2 556,-523.2 556,-504.2 487,-504.2"/>
<polygon fill="none" stroke="#000000" points="487,-504.2 487,-523.2 556,-523.2 556,-504.2 487,-504.2"/>
<text text-anchor="start" x="490" y="-510.3" font-family="Helvetica,sans-Serif" font-size="11.00" fill="#000000">&lt; 2</text>
<polygon fill="#ffffff" stroke="transparent" points="556,-504.2 556,-523.2 618,-523.2 618,-504.2 556,-504.2"/>
<polygon fill="none" stroke="#000000" points="556,-504.2 556,-523.2 618,-523.2 618,-504.2 556,-504.2"/>
<text text-anchor="start" x="582.6105" y="-510.3" font-family="Helvetica,sans-Serif" font-size="11.00" fill="#000000">0 rows</text>
<polygon fill="#ffffff" stroke="transparent" points="618,-504.2 618,-523.2 654,-523.2 654,-504.2 618,-504.2"/>
<polygon fill="none" stroke="#000000" points="618,-504.2 618,-523.2 654,-523.2 654,-504.2 618,-504.2"/>
<text text-anchor="start" x="644.8862" y="-510.3" font-family="Helvetica,sans-Serif" font-size="11.00" fill="#000000"> &#160;</text>
</a>
</g>
</g>
<!-- pessoa_interessa_animal&#45;&gt;animal -->
<g id="edge12" class="edge">
<title>pessoa_interessa_animal:w&#45;&gt;animal:e</title>
<path fill="none" stroke="#000000" d="M472.8137,-559.205C434.5882,-578.8533 487.7419,-688.2 429.5,-688.2"/>
<polygon fill="#000000" stroke="#000000" points="479.1737,-557.8579 487.746,-559.7219 483.0868,-557.0289 487,-556.2 487,-556.2 487,-556.2 483.0868,-557.0289 486.254,-552.6781 479.1737,-557.8579 479.1737,-557.8579"/>
<ellipse fill="none" stroke="#000000" cx="476.0431" cy="-558.521" rx="3.2" ry="3.2"/>
</g>
<!-- pessoa_interessa_animal&#45;&gt;pessoa -->
<g id="edge13" class="edge">
<title>pessoa_interessa_animal:w&#45;&gt;pessoa:e</title>
<path fill="none" stroke="#000000" d="M472.4599,-576.1871C427.9376,-561.5047 485.8889,-470.2856 437,-428.2 384.005,-382.5797 332.0929,-449.9892 282,-401.2 216.7184,-337.6174 332.6287,-200.2 241.5,-200.2"/>
<polygon fill="#000000" stroke="#000000" points="479.0756,-577.1029 486.5063,-581.766 483.0378,-577.6515 487,-578.2 487,-578.2 487,-578.2 483.0378,-577.6515 487.4937,-574.634 479.0756,-577.1029 479.0756,-577.1029"/>
<ellipse fill="none" stroke="#000000" cx="475.9058" cy="-576.6641" rx="3.2" ry="3.2"/>
</g>
</g>
</svg>
