<?xml version="1.0" encoding="UTF-8" standalone="no"?>
<!DOCTYPE svg PUBLIC "-//W3C//DTD SVG 1.1//EN"
 "http://www.w3.org/Graphics/SVG/1.1/DTD/svg11.dtd">
<!-- Generated by graphviz version 2.40.1 (20161225.0304)
 -->
<!-- Title: compactRelationshipsDiagram Pages: 1 -->
<svg width="680pt" height="577pt"
 viewBox="0.00 0.00 680.00 577.20" xmlns="http://www.w3.org/2000/svg" xmlns:xlink="http://www.w3.org/1999/xlink">
<g id="graph0" class="graph" transform="scale(1 1) rotate(0) translate(4 573.2)">
<title>compactRelationshipsDiagram</title>
<polygon fill="#ffffff" stroke="transparent" points="-4,4 -4,-573.2 676,-573.2 676,4 -4,4"/>
<text text-anchor="middle" x="72.4936" y="-7.3" font-family="Helvetica,sans-Serif" font-size="11.00" fill="#000000">Generated by SchemaSpy</text>
<!-- animal -->
<g id="node1" class="node">
<title>animal</title>
<g id="a_node1"><a xlink:href="../../tables/animal.html" xlink:title="animal" target="_top">
<polygon fill="#ffffff" stroke="transparent" points="292,-301.2 292,-406.2 431,-406.2 431,-301.2 292,-301.2"/>
<polygon fill="#f5f5f5" stroke="transparent" points="292.5,-382.7 292.5,-405.7 431.5,-405.7 431.5,-382.7 292.5,-382.7"/>
<polygon fill="none" stroke="#000000" points="292.5,-382.7 292.5,-405.7 431.5,-405.7 431.5,-382.7 292.5,-382.7"/>
<text text-anchor="start" x="297.5" y="-391.8" font-family="Helvetica,sans-Serif" font-weight="bold" font-size="11.00" fill="#000000">animal</text>
<text text-anchor="start" x="396.5437" y="-390.8" font-family="Helvetica,sans-Serif" font-size="11.00" fill="#000000">[table]</text>
<polygon fill="none" stroke="#000000" points="292.5,-360.7 292.5,-382.7 431.5,-382.7 431.5,-360.7 292.5,-360.7"/>
<image xlink:href="../../images/primaryKeys.png" width="11px" height="12px" preserveAspectRatio="xMinYMin meet" x="297.5" y="-377.7"/>
<text text-anchor="start" x="312.5" y="-367.8" font-family="Helvetica,sans-Serif" font-size="11.00" fill="#000000">id</text>
<polygon fill="none" stroke="#000000" points="292.5,-338.7 292.5,-360.7 431.5,-360.7 431.5,-338.7 292.5,-338.7"/>
<image xlink:href="../../images/foreignKeys.png" width="11px" height="12px" preserveAspectRatio="xMinYMin meet" x="297.5" y="-355.7"/>
<text text-anchor="start" x="312.5" y="-345.8" font-family="Helvetica,sans-Serif" font-size="11.00" fill="#000000">instituicao_id</text>
<polygon fill="none" stroke="#000000" points="292.5,-319.7 292.5,-338.7 431.5,-338.7 431.5,-319.7 292.5,-319.7"/>
<text text-anchor="start" x="295.5" y="-325.8" font-family="Helvetica,sans-Serif" font-size="11.00" fill="#000000">...</text>
<polygon fill="#ffffff" stroke="transparent" points="292.5,-300.7 292.5,-319.7 342.5,-319.7 342.5,-300.7 292.5,-300.7"/>
<polygon fill="none" stroke="#000000" points="292.5,-300.7 292.5,-319.7 342.5,-319.7 342.5,-300.7 292.5,-300.7"/>
<text text-anchor="start" x="295.5" y="-306.8" font-family="Helvetica,sans-Serif" font-size="11.00" fill="#000000">&lt; 1</text>
<polygon fill="#ffffff" stroke="transparent" points="342.5,-300.7 342.5,-319.7 395.5,-319.7 395.5,-300.7 342.5,-300.7"/>
<polygon fill="none" stroke="#000000" points="342.5,-300.7 342.5,-319.7 395.5,-319.7 395.5,-300.7 342.5,-300.7"/>
<text text-anchor="start" x="360.1105" y="-306.8" font-family="Helvetica,sans-Serif" font-size="11.00" fill="#000000">0 rows</text>
<polygon fill="#ffffff" stroke="transparent" points="395.5,-300.7 395.5,-319.7 431.5,-319.7 431.5,-300.7 395.5,-300.7"/>
<polygon fill="none" stroke="#000000" points="395.5,-300.7 395.5,-319.7 431.5,-319.7 431.5,-300.7 395.5,-300.7"/>
<text text-anchor="start" x="412.9053" y="-306.8" font-family="Helvetica,sans-Serif" font-size="11.00" fill="#000000">2 &gt;</text>
</a>
</g>
</g>
<!-- instituicao -->
<g id="node6" class="node">
<title>instituicao</title>
<g id="a_node6"><a xlink:href="../../tables/instituicao.html" xlink:title="instituicao" target="_top">
<polygon fill="#ffffff" stroke="transparent" points="147,-213.2 147,-384.2 242,-384.2 242,-213.2 147,-213.2"/>
<polygon fill="#f5f5f5" stroke="transparent" points="147.5,-360.7 147.5,-383.7 242.5,-383.7 242.5,-360.7 147.5,-360.7"/>
<polygon fill="none" stroke="#000000" points="147.5,-360.7 147.5,-383.7 242.5,-383.7 242.5,-360.7 147.5,-360.7"/>
<text text-anchor="start" x="152.5" y="-369.8" font-family="Helvetica,sans-Serif" font-weight="bold" font-size="11.00" fill="#000000">instituicao</text>
<text text-anchor="start" x="207.5437" y="-368.8" font-family="Helvetica,sans-Serif" font-size="11.00" fill="#000000">[table]</text>
<polygon fill="none" stroke="#000000" points="147.5,-338.7 147.5,-360.7 242.5,-360.7 242.5,-338.7 147.5,-338.7"/>
<image xlink:href="../../images/primaryKeys.png" width="11px" height="12px" preserveAspectRatio="xMinYMin meet" x="152.5" y="-355.7"/>
<text text-anchor="start" x="167.5" y="-345.8" font-family="Helvetica,sans-Serif" font-size="11.00" fill="#000000">usuario_id</text>
<polygon fill="#ffffff" stroke="transparent" points="147.5,-316.7 147.5,-338.7 242.5,-338.7 242.5,-316.7 147.5,-316.7"/>
<polygon fill="none" stroke="#000000" points="147.5,-316.7 147.5,-338.7 242.5,-338.7 242.5,-316.7 147.5,-316.7"/>
<text text-anchor="start" x="167.5" y="-323.8" font-family="Helvetica,sans-Serif" font-size="11.00" fill="#000000">telefone</text>
<polygon fill="#ffffff" stroke="transparent" points="147.5,-294.7 147.5,-316.7 242.5,-316.7 242.5,-294.7 147.5,-294.7"/>
<polygon fill="none" stroke="#000000" points="147.5,-294.7 147.5,-316.7 242.5,-316.7 242.5,-294.7 147.5,-294.7"/>
<text text-anchor="start" x="167.5" y="-301.8" font-family="Helvetica,sans-Serif" font-size="11.00" fill="#000000">cnpj</text>
<polygon fill="#ffffff" stroke="transparent" points="147.5,-272.7 147.5,-294.7 242.5,-294.7 242.5,-272.7 147.5,-272.7"/>
<polygon fill="none" stroke="#000000" points="147.5,-272.7 147.5,-294.7 242.5,-294.7 242.5,-272.7 147.5,-272.7"/>
<text text-anchor="start" x="167.5" y="-279.8" font-family="Helvetica,sans-Serif" font-size="11.00" fill="#000000">cpf</text>
<polygon fill="none" stroke="#000000" points="147.5,-250.7 147.5,-272.7 242.5,-272.7 242.5,-250.7 147.5,-250.7"/>
<image xlink:href="../../images/foreignKeys.png" width="11px" height="12px" preserveAspectRatio="xMinYMin meet" x="152.5" y="-267.7"/>
<text text-anchor="start" x="167.5" y="-257.8" font-family="Helvetica,sans-Serif" font-size="11.00" fill="#000000">municipio_id</text>
<polygon fill="none" stroke="#000000" points="147.5,-231.7 147.5,-250.7 242.5,-250.7 242.5,-231.7 147.5,-231.7"/>
<text text-anchor="start" x="150.5" y="-237.8" font-family="Helvetica,sans-Serif" font-size="11.00" fill="#000000">...</text>
<polygon fill="#ffffff" stroke="transparent" points="147.5,-212.7 147.5,-231.7 175.5,-231.7 175.5,-212.7 147.5,-212.7"/>
<polygon fill="none" stroke="#000000" points="147.5,-212.7 147.5,-231.7 175.5,-231.7 175.5,-212.7 147.5,-212.7"/>
<text text-anchor="start" x="150.5" y="-218.8" font-family="Helvetica,sans-Serif" font-size="11.00" fill="#000000">&lt; 2</text>
<polygon fill="#ffffff" stroke="transparent" points="175.5,-212.7 175.5,-231.7 217.5,-231.7 217.5,-212.7 175.5,-212.7"/>
<polygon fill="none" stroke="#000000" points="175.5,-212.7 175.5,-231.7 217.5,-231.7 217.5,-212.7 175.5,-212.7"/>
<text text-anchor="start" x="182.1105" y="-218.8" font-family="Helvetica,sans-Serif" font-size="11.00" fill="#000000">0 rows</text>
<polygon fill="#ffffff" stroke="transparent" points="217.5,-212.7 217.5,-231.7 242.5,-231.7 242.5,-212.7 217.5,-212.7"/>
<polygon fill="none" stroke="#000000" points="217.5,-212.7 217.5,-231.7 242.5,-231.7 242.5,-212.7 217.5,-212.7"/>
<text text-anchor="start" x="223.9053" y="-218.8" font-family="Helvetica,sans-Serif" font-size="11.00" fill="#000000">2 &gt;</text>
</a>
</g>
</g>
<!-- animal&#45;&gt;instituicao -->
<g id="edge1" class="edge">
<title>animal:w&#45;&gt;instituicao:e</title>
<path fill="none" stroke="#000000" d="M278.0647,-349.7C266.3054,-349.7 258.9931,-349.7 242.5,-349.7"/>
<polygon fill="#000000" stroke="#000000" points="284.5,-349.7001 292.5,-353.3 288.5,-349.7 292.5,-349.7 292.5,-349.7 292.5,-349.7 288.5,-349.7 292.5,-346.1 284.5,-349.7001 284.5,-349.7001"/>
<ellipse fill="none" stroke="#000000" cx="281.3" cy="-349.7001" rx="3.2" ry="3.2"/>
</g>
<!-- arquivo_animal -->
<g id="node2" class="node">
<title>arquivo_animal</title>
<g id="a_node2"><a xlink:href="../../tables/arquivo_animal.html" xlink:title="arquivo_animal" target="_top">
<polygon fill="#ffffff" stroke="transparent" points="513.5,-312.2 513.5,-417.2 630.5,-417.2 630.5,-312.2 513.5,-312.2"/>
<polygon fill="#f5f5f5" stroke="transparent" points="514,-393.7 514,-416.7 631,-416.7 631,-393.7 514,-393.7"/>
<polygon fill="none" stroke="#000000" points="514,-393.7 514,-416.7 631,-416.7 631,-393.7 514,-393.7"/>
<text text-anchor="start" x="518.7171" y="-402.8" font-family="Helvetica,sans-Serif" font-weight="bold" font-size="11.00" fill="#000000">arquivo_animal</text>
<text text-anchor="start" x="596.5219" y="-401.8" font-family="Helvetica,sans-Serif" font-size="11.00" fill="#000000">[table]</text>
<polygon fill="none" stroke="#000000" points="514,-371.7 514,-393.7 631,-393.7 631,-371.7 514,-371.7"/>
<image xlink:href="../../images/primaryKeys.png" width="11px" height="12px" preserveAspectRatio="xMinYMin meet" x="519" y="-388.7"/>
<text text-anchor="start" x="538" y="-378.8" font-family="Helvetica,sans-Serif" font-size="11.00" fill="#000000">id</text>
<polygon fill="none" stroke="#000000" points="514,-349.7 514,-371.7 631,-371.7 631,-349.7 514,-349.7"/>
<image xlink:href="../../images/foreignKeys.png" width="11px" height="12px" preserveAspectRatio="xMinYMin meet" x="519" y="-366.7"/>
<text text-anchor="start" x="538" y="-356.8" font-family="Helvetica,sans-Serif" font-size="11.00" fill="#000000">animal_id</text>
<polygon fill="none" stroke="#000000" points="514,-330.7 514,-349.7 631,-349.7 631,-330.7 514,-330.7"/>
<text text-anchor="start" x="517" y="-336.8" font-family="Helvetica,sans-Serif" font-size="11.00" fill="#000000">...</text>
<polygon fill="#ffffff" stroke="transparent" points="514,-311.7 514,-330.7 558,-330.7 558,-311.7 514,-311.7"/>
<polygon fill="none" stroke="#000000" points="514,-311.7 514,-330.7 558,-330.7 558,-311.7 514,-311.7"/>
<text text-anchor="start" x="517" y="-317.8" font-family="Helvetica,sans-Serif" font-size="11.00" fill="#000000">&lt; 1</text>
<polygon fill="#ffffff" stroke="transparent" points="558,-311.7 558,-330.7 607,-330.7 607,-311.7 558,-311.7"/>
<polygon fill="none" stroke="#000000" points="558,-311.7 558,-330.7 607,-330.7 607,-311.7 558,-311.7"/>
<text text-anchor="start" x="571.6105" y="-317.8" font-family="Helvetica,sans-Serif" font-size="11.00" fill="#000000">0 rows</text>
<polygon fill="#ffffff" stroke="transparent" points="607,-311.7 607,-330.7 631,-330.7 631,-311.7 607,-311.7"/>
<polygon fill="none" stroke="#000000" points="607,-311.7 607,-330.7 631,-330.7 631,-311.7 607,-311.7"/>
<text text-anchor="start" x="621.8862" y="-317.8" font-family="Helvetica,sans-Serif" font-size="11.00" fill="#000000"> &#160;</text>
</a>
</g>
</g>
<!-- arquivo_animal&#45;&gt;animal -->
<g id="edge2" class="edge">
<title>arquivo_animal:w&#45;&gt;animal:e</title>
<path fill="none" stroke="#000000" d="M499.5733,-361.3229C473.9519,-363.6499 463.1448,-371.7 431.5,-371.7"/>
<polygon fill="#000000" stroke="#000000" points="506.0074,-361.0452 514.1553,-364.2966 510.0037,-360.8726 514,-360.7 514,-360.7 514,-360.7 510.0037,-360.8726 513.8447,-357.1034 506.0074,-361.0452 506.0074,-361.0452"/>
<ellipse fill="none" stroke="#000000" cx="502.8104" cy="-361.1832" rx="3.2" ry="3.2"/>
</g>
<!-- arquivo_campanha -->
<g id="node3" class="node">
<title>arquivo_campanha</title>
<g id="a_node3"><a xlink:href="../../tables/arquivo_campanha.html" xlink:title="arquivo_campanha" target="_top">
<polygon fill="#ffffff" stroke="transparent" points="504,-38.2 504,-143.2 640,-143.2 640,-38.2 504,-38.2"/>
<polygon fill="#f5f5f5" stroke="transparent" points="504,-119.7 504,-142.7 640,-142.7 640,-119.7 504,-119.7"/>
<polygon fill="none" stroke="#000000" points="504,-119.7 504,-142.7 640,-142.7 640,-119.7 504,-119.7"/>
<text text-anchor="start" x="508.7357" y="-128.8" font-family="Helvetica,sans-Serif" font-weight="bold" font-size="11.00" fill="#000000">arquivo_campanha</text>
<text text-anchor="start" x="605.5219" y="-127.8" font-family="Helvetica,sans-Serif" font-size="11.00" fill="#000000">[table]</text>
<polygon fill="none" stroke="#000000" points="504,-97.7 504,-119.7 640,-119.7 640,-97.7 504,-97.7"/>
<image xlink:href="../../images/primaryKeys.png" width="11px" height="12px" preserveAspectRatio="xMinYMin meet" x="509" y="-114.7"/>
<text text-anchor="start" x="527" y="-104.8" font-family="Helvetica,sans-Serif" font-size="11.00" fill="#000000">id</text>
<polygon fill="none" stroke="#000000" points="504,-75.7 504,-97.7 640,-97.7 640,-75.7 504,-75.7"/>
<image xlink:href="../../images/foreignKeys.png" width="11px" height="12px" preserveAspectRatio="xMinYMin meet" x="509" y="-92.7"/>
<text text-anchor="start" x="527" y="-82.8" font-family="Helvetica,sans-Serif" font-size="11.00" fill="#000000">campanha_id</text>
<polygon fill="none" stroke="#000000" points="504,-56.7 504,-75.7 640,-75.7 640,-56.7 504,-56.7"/>
<text text-anchor="start" x="507" y="-62.8" font-family="Helvetica,sans-Serif" font-size="11.00" fill="#000000">...</text>
<polygon fill="#ffffff" stroke="transparent" points="504,-37.7 504,-56.7 557,-56.7 557,-37.7 504,-37.7"/>
<polygon fill="none" stroke="#000000" points="504,-37.7 504,-56.7 557,-56.7 557,-37.7 504,-37.7"/>
<text text-anchor="start" x="507" y="-43.8" font-family="Helvetica,sans-Serif" font-size="11.00" fill="#000000">&lt; 1</text>
<polygon fill="#ffffff" stroke="transparent" points="557,-37.7 557,-56.7 611,-56.7 611,-37.7 557,-37.7"/>
<polygon fill="none" stroke="#000000" points="557,-37.7 557,-56.7 611,-56.7 611,-37.7 557,-37.7"/>
<text text-anchor="start" x="575.6105" y="-43.8" font-family="Helvetica,sans-Serif" font-size="11.00" fill="#000000">0 rows</text>
<polygon fill="#ffffff" stroke="transparent" points="611,-37.7 611,-56.7 640,-56.7 640,-37.7 611,-37.7"/>
<polygon fill="none" stroke="#000000" points="611,-37.7 611,-56.7 640,-56.7 640,-37.7 611,-37.7"/>
<text text-anchor="start" x="630.8862" y="-43.8" font-family="Helvetica,sans-Serif" font-size="11.00" fill="#000000"> &#160;</text>
</a>
</g>
</g>
<!-- campanha -->
<g id="node4" class="node">
<title>campanha</title>
<g id="a_node4"><a xlink:href="../../tables/campanha.html" xlink:title="campanha" target="_top">
<polygon fill="#ffffff" stroke="transparent" points="312.5,-109.2 312.5,-236.2 410.5,-236.2 410.5,-109.2 312.5,-109.2"/>
<polygon fill="#f5f5f5" stroke="transparent" points="312.5,-212.7 312.5,-235.7 410.5,-235.7 410.5,-212.7 312.5,-212.7"/>
<polygon fill="none" stroke="#000000" points="312.5,-212.7 312.5,-235.7 410.5,-235.7 410.5,-212.7 312.5,-212.7"/>
<text text-anchor="start" x="317.5" y="-221.8" font-family="Helvetica,sans-Serif" font-weight="bold" font-size="11.00" fill="#000000">campanha</text>
<text text-anchor="start" x="375.5437" y="-220.8" font-family="Helvetica,sans-Serif" font-size="11.00" fill="#000000">[table]</text>
<polygon fill="none" stroke="#000000" points="312.5,-190.7 312.5,-212.7 410.5,-212.7 410.5,-190.7 312.5,-190.7"/>
<image xlink:href="../../images/primaryKeys.png" width="11px" height="12px" preserveAspectRatio="xMinYMin meet" x="317.5" y="-207.7"/>
<text text-anchor="start" x="332.5" y="-197.8" font-family="Helvetica,sans-Serif" font-size="11.00" fill="#000000">id</text>
<polygon fill="none" stroke="#000000" points="312.5,-168.7 312.5,-190.7 410.5,-190.7 410.5,-168.7 312.5,-168.7"/>
<image xlink:href="../../images/foreignKeys.png" width="11px" height="12px" preserveAspectRatio="xMinYMin meet" x="317.5" y="-185.7"/>
<text text-anchor="start" x="332.5" y="-175.8" font-family="Helvetica,sans-Serif" font-size="11.00" fill="#000000">instituicao_id</text>
<polygon fill="none" stroke="#000000" points="312.5,-146.7 312.5,-168.7 410.5,-168.7 410.5,-146.7 312.5,-146.7"/>
<image xlink:href="../../images/foreignKeys.png" width="11px" height="12px" preserveAspectRatio="xMinYMin meet" x="317.5" y="-163.7"/>
<text text-anchor="start" x="332.5" y="-153.8" font-family="Helvetica,sans-Serif" font-size="11.00" fill="#000000">formulario_id</text>
<polygon fill="none" stroke="#000000" points="312.5,-127.7 312.5,-146.7 410.5,-146.7 410.5,-127.7 312.5,-127.7"/>
<text text-anchor="start" x="315.5" y="-133.8" font-family="Helvetica,sans-Serif" font-size="11.00" fill="#000000">...</text>
<polygon fill="#ffffff" stroke="transparent" points="312.5,-108.7 312.5,-127.7 342.5,-127.7 342.5,-108.7 312.5,-108.7"/>
<polygon fill="none" stroke="#000000" points="312.5,-108.7 312.5,-127.7 342.5,-127.7 342.5,-108.7 312.5,-108.7"/>
<text text-anchor="start" x="315.5" y="-114.8" font-family="Helvetica,sans-Serif" font-size="11.00" fill="#000000">&lt; 2</text>
<polygon fill="#ffffff" stroke="transparent" points="342.5,-108.7 342.5,-127.7 384.5,-127.7 384.5,-108.7 342.5,-108.7"/>
<polygon fill="none" stroke="#000000" points="342.5,-108.7 342.5,-127.7 384.5,-127.7 384.5,-108.7 342.5,-108.7"/>
<text text-anchor="start" x="349.1105" y="-114.8" font-family="Helvetica,sans-Serif" font-size="11.00" fill="#000000">0 rows</text>
<polygon fill="#ffffff" stroke="transparent" points="384.5,-108.7 384.5,-127.7 410.5,-127.7 410.5,-108.7 384.5,-108.7"/>
<polygon fill="none" stroke="#000000" points="384.5,-108.7 384.5,-127.7 410.5,-127.7 410.5,-108.7 384.5,-108.7"/>
<text text-anchor="start" x="391.9053" y="-114.8" font-family="Helvetica,sans-Serif" font-size="11.00" fill="#000000">3 &gt;</text>
</a>
</g>
</g>
<!-- arquivo_campanha&#45;&gt;campanha -->
<g id="edge3" class="edge">
<title>arquivo_campanha:w&#45;&gt;campanha:e</title>
<path fill="none" stroke="#000000" d="M489.483,-88.9972C443.817,-105.2053 470.8404,-201.7 410.5,-201.7"/>
<polygon fill="#000000" stroke="#000000" points="496.0983,-87.9504 504.5627,-90.2558 500.0492,-87.3252 504,-86.7 504,-86.7 504,-86.7 500.0492,-87.3252 503.4373,-83.1442 496.0983,-87.9504 496.0983,-87.9504"/>
<ellipse fill="none" stroke="#000000" cx="492.9376" cy="-88.4506" rx="3.2" ry="3.2"/>
</g>
<!-- formulario -->
<g id="node5" class="node">
<title>formulario</title>
<g id="a_node5"><a xlink:href="../../tables/formulario.html" xlink:title="formulario" target="_top">
<polygon fill="#ffffff" stroke="transparent" points="146,-87.2 146,-192.2 243,-192.2 243,-87.2 146,-87.2"/>
<polygon fill="#f5f5f5" stroke="transparent" points="146.5,-168.7 146.5,-191.7 243.5,-191.7 243.5,-168.7 146.5,-168.7"/>
<polygon fill="none" stroke="#000000" points="146.5,-168.7 146.5,-191.7 243.5,-191.7 243.5,-168.7 146.5,-168.7"/>
<text text-anchor="start" x="151.5" y="-177.8" font-family="Helvetica,sans-Serif" font-weight="bold" font-size="11.00" fill="#000000">formulario</text>
<text text-anchor="start" x="208.5437" y="-176.8" font-family="Helvetica,sans-Serif" font-size="11.00" fill="#000000">[table]</text>
<polygon fill="none" stroke="#000000" points="146.5,-146.7 146.5,-168.7 243.5,-168.7 243.5,-146.7 146.5,-146.7"/>
<image xlink:href="../../images/primaryKeys.png" width="11px" height="12px" preserveAspectRatio="xMinYMin meet" x="151.5" y="-163.7"/>
<text text-anchor="start" x="166.5" y="-153.8" font-family="Helvetica,sans-Serif" font-size="11.00" fill="#000000">id</text>
<polygon fill="none" stroke="#000000" points="146.5,-124.7 146.5,-146.7 243.5,-146.7 243.5,-124.7 146.5,-124.7"/>
<image xlink:href="../../images/foreignKeys.png" width="11px" height="12px" preserveAspectRatio="xMinYMin meet" x="151.5" y="-141.7"/>
<text text-anchor="start" x="166.5" y="-131.8" font-family="Helvetica,sans-Serif" font-size="11.00" fill="#000000">campanha_id</text>
<polygon fill="none" stroke="#000000" points="146.5,-105.7 146.5,-124.7 243.5,-124.7 243.5,-105.7 146.5,-105.7"/>
<text text-anchor="start" x="149.5" y="-111.8" font-family="Helvetica,sans-Serif" font-size="11.00" fill="#000000">...</text>
<polygon fill="#ffffff" stroke="transparent" points="146.5,-86.7 146.5,-105.7 175.5,-105.7 175.5,-86.7 146.5,-86.7"/>
<polygon fill="none" stroke="#000000" points="146.5,-86.7 146.5,-105.7 175.5,-105.7 175.5,-86.7 146.5,-86.7"/>
<text text-anchor="start" x="149.5" y="-92.8" font-family="Helvetica,sans-Serif" font-size="11.00" fill="#000000">&lt; 1</text>
<polygon fill="#ffffff" stroke="transparent" points="175.5,-86.7 175.5,-105.7 217.5,-105.7 217.5,-86.7 175.5,-86.7"/>
<polygon fill="none" stroke="#000000" points="175.5,-86.7 175.5,-105.7 217.5,-105.7 217.5,-86.7 175.5,-86.7"/>
<text text-anchor="start" x="182.1105" y="-92.8" font-family="Helvetica,sans-Serif" font-size="11.00" fill="#000000">0 rows</text>
<polygon fill="#ffffff" stroke="transparent" points="217.5,-86.7 217.5,-105.7 243.5,-105.7 243.5,-86.7 217.5,-86.7"/>
<polygon fill="none" stroke="#000000" points="217.5,-86.7 217.5,-105.7 243.5,-105.7 243.5,-86.7 217.5,-86.7"/>
<text text-anchor="start" x="224.9053" y="-92.8" font-family="Helvetica,sans-Serif" font-size="11.00" fill="#000000">1 &gt;</text>
</a>
</g>
</g>
<!-- campanha&#45;&gt;formulario -->
<g id="edge4" class="edge">
<title>campanha:w&#45;&gt;formulario:e</title>
<path fill="none" stroke="#000000" d="M297.9297,-157.7C278.3355,-157.7 268.6563,-157.7 243.5,-157.7"/>
<polygon fill="#000000" stroke="#000000" points="304.5,-157.7001 312.5,-161.3 308.5,-157.7 312.5,-157.7 312.5,-157.7 312.5,-157.7 308.5,-157.7 312.5,-154.1 304.5,-157.7001 304.5,-157.7001"/>
<ellipse fill="none" stroke="#000000" cx="301.3" cy="-157.7001" rx="3.2" ry="3.2"/>
</g>
<!-- campanha&#45;&gt;instituicao -->
<g id="edge5" class="edge">
<title>campanha:w&#45;&gt;instituicao:e</title>
<path fill="none" stroke="#000000" d="M298.0863,-181.9746C242.7438,-202.1478 318.6245,-349.7 242.5,-349.7"/>
<polygon fill="#000000" stroke="#000000" points="304.5978,-180.9471 313.0612,-183.256 308.5489,-180.3235 312.5,-179.7 312.5,-179.7 312.5,-179.7 308.5489,-180.3235 311.9388,-176.144 304.5978,-180.9471 304.5978,-180.9471"/>
<ellipse fill="none" stroke="#000000" cx="301.4369" cy="-181.4459" rx="3.2" ry="3.2"/>
</g>
<!-- formulario&#45;&gt;campanha -->
<g id="edge6" class="edge">
<title>formulario:w&#45;&gt;campanha:e</title>
<path fill="none" stroke="#000000" d="M159.735,-129.0508C187.8545,-114.9238 251,-83.2 251,-83.2 310.9465,-126.1038 244.5535,-197.2962 304.5,-240.2 304.5,-240.2 410.5,-201.7 410.5,-201.7"/>
<polygon fill="#000000" stroke="#000000" points="153.6486,-132.1086 144.8839,-132.4831 150.0743,-133.9043 146.5,-135.7 146.5,-135.7 146.5,-135.7 150.0743,-133.9043 148.1161,-138.9169 153.6486,-132.1086 153.6486,-132.1086"/>
<ellipse fill="none" stroke="#000000" cx="156.508" cy="-130.672" rx="3.2" ry="3.2"/>
</g>
<!-- municipio -->
<g id="node7" class="node">
<title>municipio</title>
<g id="a_node7"><a xlink:href="../../tables/municipio.html" xlink:title="municipio" target="_top">
<polygon fill="#ffffff" stroke="transparent" points="8,-231.7 8,-339.7 97,-339.7 97,-231.7 8,-231.7"/>
<polygon fill="#f5f5f5" stroke="transparent" points="8.5,-316.7 8.5,-339.7 97.5,-339.7 97.5,-316.7 8.5,-316.7"/>
<polygon fill="none" stroke="#000000" points="8.5,-316.7 8.5,-339.7 97.5,-339.7 97.5,-316.7 8.5,-316.7"/>
<text text-anchor="start" x="13.2779" y="-325.8" font-family="Helvetica,sans-Serif" font-weight="bold" font-size="11.00" fill="#000000">municipio</text>
<text text-anchor="start" x="63.0219" y="-324.8" font-family="Helvetica,sans-Serif" font-size="11.00" fill="#000000">[table]</text>
<polygon fill="none" stroke="#000000" points="8.5,-294.7 8.5,-316.7 97.5,-316.7 97.5,-294.7 8.5,-294.7"/>
<image xlink:href="../../images/primaryKeys.png" width="11px" height="12px" preserveAspectRatio="xMinYMin meet" x="13.5" y="-311.7"/>
<text text-anchor="start" x="34.5" y="-301.8" font-family="Helvetica,sans-Serif" font-size="11.00" fill="#000000">id</text>
<polygon fill="#ffffff" stroke="transparent" points="8.5,-272.7 8.5,-294.7 97.5,-294.7 97.5,-272.7 8.5,-272.7"/>
<polygon fill="none" stroke="#000000" points="8.5,-272.7 8.5,-294.7 97.5,-294.7 97.5,-272.7 8.5,-272.7"/>
<text text-anchor="start" x="34.5" y="-279.8" font-family="Helvetica,sans-Serif" font-size="11.00" fill="#000000">uf</text>
<polygon fill="#ffffff" stroke="transparent" points="8.5,-250.7 8.5,-272.7 97.5,-272.7 97.5,-250.7 8.5,-250.7"/>
<polygon fill="none" stroke="#000000" points="8.5,-250.7 8.5,-272.7 97.5,-272.7 97.5,-250.7 8.5,-250.7"/>
<text text-anchor="start" x="34.5" y="-257.8" font-family="Helvetica,sans-Serif" font-size="11.00" fill="#000000">nome</text>
<polygon fill="#ffffff" stroke="transparent" points="8.5,-231.7 8.5,-250.7 29.5,-250.7 29.5,-231.7 8.5,-231.7"/>
<polygon fill="none" stroke="#000000" points="8.5,-231.7 8.5,-250.7 29.5,-250.7 29.5,-231.7 8.5,-231.7"/>
<text text-anchor="start" x="11.5" y="-237.8" font-family="Helvetica,sans-Serif" font-size="11.00" fill="#000000"> &#160;</text>
<polygon fill="#ffffff" stroke="transparent" points="29.5,-231.7 29.5,-250.7 71.5,-250.7 71.5,-231.7 29.5,-231.7"/>
<polygon fill="none" stroke="#000000" points="29.5,-231.7 29.5,-250.7 71.5,-250.7 71.5,-231.7 29.5,-231.7"/>
<text text-anchor="start" x="36.1105" y="-237.8" font-family="Helvetica,sans-Serif" font-size="11.00" fill="#000000">0 rows</text>
<polygon fill="#ffffff" stroke="transparent" points="71.5,-231.7 71.5,-250.7 97.5,-250.7 97.5,-231.7 71.5,-231.7"/>
<polygon fill="none" stroke="#000000" points="71.5,-231.7 71.5,-250.7 97.5,-250.7 97.5,-231.7 71.5,-231.7"/>
<text text-anchor="start" x="78.9053" y="-237.8" font-family="Helvetica,sans-Serif" font-size="11.00" fill="#000000">2 &gt;</text>
</a>
</g>
</g>
<!-- instituicao&#45;&gt;municipio -->
<g id="edge7" class="edge">
<title>instituicao:w&#45;&gt;municipio:e</title>
<path fill="none" stroke="#000000" d="M133.6144,-266.4088C120.0362,-277.7596 121.0887,-305.7 97.5,-305.7"/>
<polygon fill="#000000" stroke="#000000" points="139.9238,-264.2692 148.6561,-265.1093 143.7119,-262.9846 147.5,-261.7 147.5,-261.7 147.5,-261.7 143.7119,-262.9846 146.3439,-258.2907 139.9238,-264.2692 139.9238,-264.2692"/>
<ellipse fill="none" stroke="#000000" cx="136.8933" cy="-265.2969" rx="3.2" ry="3.2"/>
</g>
<!-- usuario -->
<g id="node11" class="node">
<title>usuario</title>
<g id="a_node11"><a xlink:href="../../tables/usuario.html" xlink:title="usuario" target="_top">
<polygon fill="#ffffff" stroke="transparent" points="13,-383.2 13,-510.2 92,-510.2 92,-383.2 13,-383.2"/>
<polygon fill="#f5f5f5" stroke="transparent" points="13.5,-486.7 13.5,-509.7 92.5,-509.7 92.5,-486.7 13.5,-486.7"/>
<polygon fill="none" stroke="#000000" points="13.5,-486.7 13.5,-509.7 92.5,-509.7 92.5,-486.7 13.5,-486.7"/>
<text text-anchor="start" x="18.4688" y="-495.8" font-family="Helvetica,sans-Serif" font-weight="bold" font-size="11.00" fill="#000000">usuario</text>
<text text-anchor="start" x="58.0219" y="-494.8" font-family="Helvetica,sans-Serif" font-size="11.00" fill="#000000">[table]</text>
<polygon fill="none" stroke="#000000" points="13.5,-464.7 13.5,-486.7 92.5,-486.7 92.5,-464.7 13.5,-464.7"/>
<image xlink:href="../../images/primaryKeys.png" width="11px" height="12px" preserveAspectRatio="xMinYMin meet" x="18.5" y="-481.7"/>
<text text-anchor="start" x="38.5" y="-471.8" font-family="Helvetica,sans-Serif" font-size="11.00" fill="#000000">id</text>
<polygon fill="#ffffff" stroke="transparent" points="13.5,-442.7 13.5,-464.7 92.5,-464.7 92.5,-442.7 13.5,-442.7"/>
<polygon fill="none" stroke="#000000" points="13.5,-442.7 13.5,-464.7 92.5,-464.7 92.5,-442.7 13.5,-442.7"/>
<text text-anchor="start" x="38.5" y="-449.8" font-family="Helvetica,sans-Serif" font-size="11.00" fill="#000000">email</text>
<polygon fill="#ffffff" stroke="transparent" points="13.5,-420.7 13.5,-442.7 92.5,-442.7 92.5,-420.7 13.5,-420.7"/>
<polygon fill="none" stroke="#000000" points="13.5,-420.7 13.5,-442.7 92.5,-442.7 92.5,-420.7 13.5,-420.7"/>
<text text-anchor="start" x="38.5" y="-427.8" font-family="Helvetica,sans-Serif" font-size="11.00" fill="#000000">celular</text>
<polygon fill="none" stroke="#000000" points="13.5,-401.7 13.5,-420.7 92.5,-420.7 92.5,-401.7 13.5,-401.7"/>
<text text-anchor="start" x="16.5" y="-407.8" font-family="Helvetica,sans-Serif" font-size="11.00" fill="#000000">...</text>
<polygon fill="#ffffff" stroke="transparent" points="13.5,-382.7 13.5,-401.7 29.5,-401.7 29.5,-382.7 13.5,-382.7"/>
<polygon fill="none" stroke="#000000" points="13.5,-382.7 13.5,-401.7 29.5,-401.7 29.5,-382.7 13.5,-382.7"/>
<text text-anchor="start" x="16.5" y="-388.8" font-family="Helvetica,sans-Serif" font-size="11.00" fill="#000000"> &#160;</text>
<polygon fill="#ffffff" stroke="transparent" points="29.5,-382.7 29.5,-401.7 69.5,-401.7 69.5,-382.7 29.5,-382.7"/>
<polygon fill="none" stroke="#000000" points="29.5,-382.7 29.5,-401.7 69.5,-401.7 69.5,-382.7 29.5,-382.7"/>
<text text-anchor="start" x="34.1105" y="-388.8" font-family="Helvetica,sans-Serif" font-size="11.00" fill="#000000">0 rows</text>
<polygon fill="#ffffff" stroke="transparent" points="69.5,-382.7 69.5,-401.7 92.5,-401.7 92.5,-382.7 69.5,-382.7"/>
<polygon fill="none" stroke="#000000" points="69.5,-382.7 69.5,-401.7 92.5,-401.7 92.5,-382.7 69.5,-382.7"/>
<text text-anchor="start" x="73.9053" y="-388.8" font-family="Helvetica,sans-Serif" font-size="11.00" fill="#000000">2 &gt;</text>
</a>
</g>
</g>
<!-- instituicao&#45;&gt;usuario -->
<g id="edge8" class="edge">
<title>instituicao:w&#45;&gt;usuario:e</title>
<path fill="none" stroke="#000000" d="M136.9495,-351.2931C94.7573,-365.8787 149.545,-475.7 92.5,-475.7"/>
<polygon fill="#000000" stroke="#000000" points="146.1117,-345.8643 147.3062,-353.7746 145.7242,-354.0135 144.5296,-346.1032 146.1117,-345.8643"/>
<polyline fill="none" stroke="#000000" points="147.5,-349.7 143.5448,-350.2973 "/>
<ellipse fill="none" stroke="#000000" cx="140.3807" cy="-350.7751" rx="3.2" ry="3.2"/>
</g>
<!-- pessoa -->
<g id="node8" class="node">
<title>pessoa</title>
<g id="a_node8"><a xlink:href="../../tables/pessoa.html" xlink:title="pessoa" target="_top">
<polygon fill="#ffffff" stroke="transparent" points="147,-405.2 147,-532.2 242,-532.2 242,-405.2 147,-405.2"/>
<polygon fill="#f5f5f5" stroke="transparent" points="147.5,-508.7 147.5,-531.7 242.5,-531.7 242.5,-508.7 147.5,-508.7"/>
<polygon fill="none" stroke="#000000" points="147.5,-508.7 147.5,-531.7 242.5,-531.7 242.5,-508.7 147.5,-508.7"/>
<text text-anchor="start" x="152.5" y="-517.8" font-family="Helvetica,sans-Serif" font-weight="bold" font-size="11.00" fill="#000000">pessoa</text>
<text text-anchor="start" x="207.5437" y="-516.8" font-family="Helvetica,sans-Serif" font-size="11.00" fill="#000000">[table]</text>
<polygon fill="none" stroke="#000000" points="147.5,-486.7 147.5,-508.7 242.5,-508.7 242.5,-486.7 147.5,-486.7"/>
<image xlink:href="../../images/primaryKeys.png" width="11px" height="12px" preserveAspectRatio="xMinYMin meet" x="152.5" y="-503.7"/>
<text text-anchor="start" x="167.5" y="-493.8" font-family="Helvetica,sans-Serif" font-size="11.00" fill="#000000">usuario_id</text>
<polygon fill="#ffffff" stroke="transparent" points="147.5,-464.7 147.5,-486.7 242.5,-486.7 242.5,-464.7 147.5,-464.7"/>
<polygon fill="none" stroke="#000000" points="147.5,-464.7 147.5,-486.7 242.5,-486.7 242.5,-464.7 147.5,-464.7"/>
<text text-anchor="start" x="167.5" y="-471.8" font-family="Helvetica,sans-Serif" font-size="11.00" fill="#000000">telefone</text>
<polygon fill="none" stroke="#000000" points="147.5,-442.7 147.5,-464.7 242.5,-464.7 242.5,-442.7 147.5,-442.7"/>
<image xlink:href="../../images/foreignKeys.png" width="11px" height="12px" preserveAspectRatio="xMinYMin meet" x="152.5" y="-459.7"/>
<text text-anchor="start" x="167.5" y="-449.8" font-family="Helvetica,sans-Serif" font-size="11.00" fill="#000000">municipio_id</text>
<polygon fill="none" stroke="#000000" points="147.5,-423.7 147.5,-442.7 242.5,-442.7 242.5,-423.7 147.5,-423.7"/>
<text text-anchor="start" x="150.5" y="-429.8" font-family="Helvetica,sans-Serif" font-size="11.00" fill="#000000">...</text>
<polygon fill="#ffffff" stroke="transparent" points="147.5,-404.7 147.5,-423.7 175.5,-423.7 175.5,-404.7 147.5,-404.7"/>
<polygon fill="none" stroke="#000000" points="147.5,-404.7 147.5,-423.7 175.5,-423.7 175.5,-404.7 147.5,-404.7"/>
<text text-anchor="start" x="150.5" y="-410.8" font-family="Helvetica,sans-Serif" font-size="11.00" fill="#000000">&lt; 2</text>
<polygon fill="#ffffff" stroke="transparent" points="175.5,-404.7 175.5,-423.7 217.5,-423.7 217.5,-404.7 175.5,-404.7"/>
<polygon fill="none" stroke="#000000" points="175.5,-404.7 175.5,-423.7 217.5,-423.7 217.5,-404.7 175.5,-404.7"/>
<text text-anchor="start" x="182.1105" y="-410.8" font-family="Helvetica,sans-Serif" font-size="11.00" fill="#000000">0 rows</text>
<polygon fill="#ffffff" stroke="transparent" points="217.5,-404.7 217.5,-423.7 242.5,-423.7 242.5,-404.7 217.5,-404.7"/>
<polygon fill="none" stroke="#000000" points="217.5,-404.7 217.5,-423.7 242.5,-423.7 242.5,-404.7 217.5,-404.7"/>
<text text-anchor="start" x="223.9053" y="-410.8" font-family="Helvetica,sans-Serif" font-size="11.00" fill="#000000">2 &gt;</text>
</a>
</g>
</g>
<!-- pessoa&#45;&gt;municipio -->
<g id="edge9" class="edge">
<title>pessoa:w&#45;&gt;municipio:e</title>
<path fill="none" stroke="#000000" d="M133.1688,-450.7436C91.8791,-429.8845 161.0991,-305.7 97.5,-305.7"/>
<polygon fill="#000000" stroke="#000000" points="139.665,-452.0837 146.7727,-457.2258 143.5825,-452.8918 147.5,-453.7 147.5,-453.7 147.5,-453.7 143.5825,-452.8918 148.2273,-450.1742 139.665,-452.0837 139.665,-452.0837"/>
<ellipse fill="none" stroke="#000000" cx="136.531" cy="-451.4372" rx="3.2" ry="3.2"/>
</g>
<!-- pessoa&#45;&gt;usuario -->
<g id="edge10" class="edge">
<title>pessoa:w&#45;&gt;usuario:e</title>
<path fill="none" stroke="#000000" d="M136.7326,-496.2565C119.8542,-491.3621 114.7138,-475.7 92.5,-475.7"/>
<polygon fill="#000000" stroke="#000000" points="147.2386,-493.6292 146.1756,-501.5582 144.5898,-501.3456 145.6528,-493.4166 147.2386,-493.6292"/>
<polyline fill="none" stroke="#000000" points="147.5,-497.7 143.5355,-497.1685 "/>
<ellipse fill="none" stroke="#000000" cx="140.3638" cy="-496.7433" rx="3.2" ry="3.2"/>
</g>
<!-- pessoa_cadastra_campanha -->
<g id="node9" class="node">
<title>pessoa_cadastra_campanha</title>
<g id="a_node9"><a xlink:href="../../tables/pessoa_cadastra_campanha.html" xlink:title="pessoa_cadastra_campanha" target="_top">
<polygon fill="#ffffff" stroke="transparent" points="480,-164.2 480,-291.2 664,-291.2 664,-164.2 480,-164.2"/>
<polygon fill="#f5f5f5" stroke="transparent" points="480,-267.7 480,-290.7 664,-290.7 664,-267.7 480,-267.7"/>
<polygon fill="none" stroke="#000000" points="480,-267.7 480,-290.7 664,-290.7 664,-267.7 480,-267.7"/>
<text text-anchor="start" x="484.8905" y="-276.8" font-family="Helvetica,sans-Serif" font-weight="bold" font-size="11.00" fill="#000000">pessoa_cadastra_campanha</text>
<text text-anchor="start" x="629.5219" y="-275.8" font-family="Helvetica,sans-Serif" font-size="11.00" fill="#000000">[table]</text>
<polygon fill="none" stroke="#000000" points="480,-245.7 480,-267.7 664,-267.7 664,-245.7 480,-245.7"/>
<image xlink:href="../../images/primaryKeys.png" width="11px" height="12px" preserveAspectRatio="xMinYMin meet" x="485" y="-262.7"/>
<text text-anchor="start" x="500" y="-252.8" font-family="Helvetica,sans-Serif" font-size="11.00" fill="#000000">id</text>
<polygon fill="#ffffff" stroke="transparent" points="480,-223.7 480,-245.7 664,-245.7 664,-223.7 480,-223.7"/>
<polygon fill="none" stroke="#000000" points="480,-223.7 480,-245.7 664,-245.7 664,-223.7 480,-223.7"/>
<image xlink:href="../../images/foreignKeys.png" width="11px" height="12px" preserveAspectRatio="xMinYMin meet" x="485" y="-240.7"/>
<text text-anchor="start" x="500" y="-230.8" font-family="Helvetica,sans-Serif" font-size="11.00" fill="#000000">pessoa_id</text>
<polygon fill="#ffffff" stroke="transparent" points="480,-201.7 480,-223.7 664,-223.7 664,-201.7 480,-201.7"/>
<polygon fill="none" stroke="#000000" points="480,-201.7 480,-223.7 664,-223.7 664,-201.7 480,-201.7"/>
<image xlink:href="../../images/foreignKeys.png" width="11px" height="12px" preserveAspectRatio="xMinYMin meet" x="485" y="-218.7"/>
<text text-anchor="start" x="500" y="-208.8" font-family="Helvetica,sans-Serif" font-size="11.00" fill="#000000">campanha_id</text>
<polygon fill="none" stroke="#000000" points="480,-182.7 480,-201.7 664,-201.7 664,-182.7 480,-182.7"/>
<text text-anchor="start" x="483" y="-188.8" font-family="Helvetica,sans-Serif" font-size="11.00" fill="#000000">...</text>
<polygon fill="#ffffff" stroke="transparent" points="480,-163.7 480,-182.7 557,-182.7 557,-163.7 480,-163.7"/>
<polygon fill="none" stroke="#000000" points="480,-163.7 480,-182.7 557,-182.7 557,-163.7 480,-163.7"/>
<text text-anchor="start" x="483" y="-169.8" font-family="Helvetica,sans-Serif" font-size="11.00" fill="#000000">&lt; 2</text>
<polygon fill="#ffffff" stroke="transparent" points="557,-163.7 557,-182.7 623,-182.7 623,-163.7 557,-163.7"/>
<polygon fill="none" stroke="#000000" points="557,-163.7 557,-182.7 623,-182.7 623,-163.7 557,-163.7"/>
<text text-anchor="start" x="587.6105" y="-169.8" font-family="Helvetica,sans-Serif" font-size="11.00" fill="#000000">0 rows</text>
<polygon fill="#ffffff" stroke="transparent" points="623,-163.7 623,-182.7 664,-182.7 664,-163.7 623,-163.7"/>
<polygon fill="none" stroke="#000000" points="623,-163.7 623,-182.7 664,-182.7 664,-163.7 623,-163.7"/>
<text text-anchor="start" x="654.8862" y="-169.8" font-family="Helvetica,sans-Serif" font-size="11.00" fill="#000000"> &#160;</text>
</a>
</g>
</g>
<!-- pessoa_cadastra_campanha&#45;&gt;campanha -->
<g id="edge11" class="edge">
<title>pessoa_cadastra_campanha:w&#45;&gt;campanha:e</title>
<path fill="none" stroke="#000000" d="M465.4984,-211.7998C445.5306,-209.1727 436.2761,-201.7 410.5,-201.7"/>
<polygon fill="#000000" stroke="#000000" points="472.0154,-212.2043 479.7769,-216.2931 476.0077,-212.4522 480,-212.7 480,-212.7 480,-212.7 476.0077,-212.4522 480.2231,-209.1069 472.0154,-212.2043 472.0154,-212.2043"/>
<ellipse fill="none" stroke="#000000" cx="468.8215" cy="-212.006" rx="3.2" ry="3.2"/>
</g>
<!-- pessoa_cadastra_campanha&#45;&gt;pessoa -->
<g id="edge12" class="edge">
<title>pessoa_cadastra_campanha:w&#45;&gt;pessoa:e</title>
<path fill="none" stroke="#000000" d="M465.463,-236.5046C457.1134,-238.8663 451.4001,-243.1254 439,-246.7 370.1912,-266.5356 332.6043,-238.1099 284,-290.7 220.3144,-359.6082 336.3307,-497.7 242.5,-497.7"/>
<polygon fill="#000000" stroke="#000000" points="472.0609,-235.6856 480.4435,-238.2726 476.0305,-235.1928 480,-234.7 480,-234.7 480,-234.7 476.0305,-235.1928 479.5565,-231.1274 472.0609,-235.6856 472.0609,-235.6856"/>
<ellipse fill="none" stroke="#000000" cx="468.8853" cy="-236.0798" rx="3.2" ry="3.2"/>
</g>
<!-- pessoa_interessa_animal -->
<g id="node10" class="node">
<title>pessoa_interessa_animal</title>
<g id="a_node10"><a xlink:href="../../tables/pessoa_interessa_animal.html" xlink:title="pessoa_interessa_animal" target="_top">
<polygon fill="#ffffff" stroke="transparent" points="488.5,-438.2 488.5,-565.2 655.5,-565.2 655.5,-438.2 488.5,-438.2"/>
<polygon fill="#f5f5f5" stroke="transparent" points="489,-541.7 489,-564.7 656,-564.7 656,-541.7 489,-541.7"/>
<polygon fill="none" stroke="#000000" points="489,-541.7 489,-564.7 656,-564.7 656,-541.7 489,-541.7"/>
<text text-anchor="start" x="493.6515" y="-550.8" font-family="Helvetica,sans-Serif" font-weight="bold" font-size="11.00" fill="#000000">pessoa_interessa_animal</text>
<text text-anchor="start" x="621.5219" y="-549.8" font-family="Helvetica,sans-Serif" font-size="11.00" fill="#000000">[table]</text>
<polygon fill="none" stroke="#000000" points="489,-519.7 489,-541.7 656,-541.7 656,-519.7 489,-519.7"/>
<image xlink:href="../../images/primaryKeys.png" width="11px" height="12px" preserveAspectRatio="xMinYMin meet" x="494" y="-536.7"/>
<text text-anchor="start" x="510" y="-526.8" font-family="Helvetica,sans-Serif" font-size="11.00" fill="#000000">id</text>
<polygon fill="#ffffff" stroke="transparent" points="489,-497.7 489,-519.7 656,-519.7 656,-497.7 489,-497.7"/>
<polygon fill="none" stroke="#000000" points="489,-497.7 489,-519.7 656,-519.7 656,-497.7 489,-497.7"/>
<image xlink:href="../../images/foreignKeys.png" width="11px" height="12px" preserveAspectRatio="xMinYMin meet" x="494" y="-514.7"/>
<text text-anchor="start" x="510" y="-504.8" font-family="Helvetica,sans-Serif" font-size="11.00" fill="#000000">pessoa_id</text>
<polygon fill="#ffffff" stroke="transparent" points="489,-475.7 489,-497.7 656,-497.7 656,-475.7 489,-475.7"/>
<polygon fill="none" stroke="#000000" points="489,-475.7 489,-497.7 656,-497.7 656,-475.7 489,-475.7"/>
<image xlink:href="../../images/foreignKeys.png" width="11px" height="12px" preserveAspectRatio="xMinYMin meet" x="494" y="-492.7"/>
<text text-anchor="start" x="510" y="-482.8" font-family="Helvetica,sans-Serif" font-size="11.00" fill="#000000">animal_id</text>
<polygon fill="none" stroke="#000000" points="489,-456.7 489,-475.7 656,-475.7 656,-456.7 489,-456.7"/>
<text text-anchor="start" x="492" y="-462.8" font-family="Helvetica,sans-Serif" font-size="11.00" fill="#000000">...</text>
<polygon fill="#ffffff" stroke="transparent" points="489,-437.7 489,-456.7 558,-456.7 558,-437.7 489,-437.7"/>
<polygon fill="none" stroke="#000000" points="489,-437.7 489,-456.7 558,-456.7 558,-437.7 489,-437.7"/>
<text text-anchor="start" x="492" y="-443.8" font-family="Helvetica,sans-Serif" font-size="11.00" fill="#000000">&lt; 2</text>
<polygon fill="#ffffff" stroke="transparent" points="558,-437.7 558,-456.7 620,-456.7 620,-437.7 558,-437.7"/>
<polygon fill="none" stroke="#000000" points="558,-437.7 558,-456.7 620,-456.7 620,-437.7 558,-437.7"/>
<text text-anchor="start" x="584.6105" y="-443.8" font-family="Helvetica,sans-Serif" font-size="11.00" fill="#000000">0 rows</text>
<polygon fill="#ffffff" stroke="transparent" points="620,-437.7 620,-456.7 656,-456.7 656,-437.7 620,-437.7"/>
<polygon fill="none" stroke="#000000" points="620,-437.7 620,-456.7 656,-456.7 656,-437.7 620,-437.7"/>
<text text-anchor="start" x="646.8862" y="-443.8" font-family="Helvetica,sans-Serif" font-size="11.00" fill="#000000"> &#160;</text>
</a>
</g>
</g>
<!-- pessoa_interessa_animal&#45;&gt;animal -->
<g id="edge13" class="edge">
<title>pessoa_interessa_animal:w&#45;&gt;animal:e</title>
<path fill="none" stroke="#000000" d="M474.8758,-483.3823C442.2159,-464.5268 482.8403,-371.7 431.5,-371.7"/>
<polygon fill="#000000" stroke="#000000" points="481.212,-484.8706 488.1768,-490.2046 485.106,-485.7853 489,-486.7 489,-486.7 489,-486.7 485.106,-485.7853 489.8232,-483.1954 481.212,-484.8706 481.212,-484.8706"/>
<ellipse fill="none" stroke="#000000" cx="478.0968" cy="-484.1388" rx="3.2" ry="3.2"/>
</g>
<!-- pessoa_interessa_animal&#45;&gt;pessoa -->
<g id="edge14" class="edge">
<title>pessoa_interessa_animal:w&#45;&gt;pessoa:e</title>
<path fill="none" stroke="#000000" d="M474.4051,-508.6326C376.6674,-507.7134 347.1312,-497.7 242.5,-497.7"/>
<polygon fill="#000000" stroke="#000000" points="481.0001,-508.663 488.9834,-512.3 485,-508.6815 489,-508.7 489,-508.7 489,-508.7 485,-508.6815 489.0166,-505.1 481.0001,-508.663 481.0001,-508.663"/>
<ellipse fill="none" stroke="#000000" cx="477.8001" cy="-508.6482" rx="3.2" ry="3.2"/>
</g>
</g>
</svg>
