<?xml version="1.0" encoding="UTF-8" standalone="no"?>
<!DOCTYPE svg PUBLIC "-//W3C//DTD SVG 1.1//EN"
 "http://www.w3.org/Graphics/SVG/1.1/DTD/svg11.dtd">
<!-- Generated by graphviz version 2.40.1 (20161225.0304)
 -->
<!-- Title: oneDegreeRelationshipsDiagram Pages: 1 -->
<svg width="594pt" height="526pt"
 viewBox="0.00 0.00 594.00 526.20" xmlns="http://www.w3.org/2000/svg" xmlns:xlink="http://www.w3.org/1999/xlink">
<g id="graph0" class="graph" transform="scale(1 1) rotate(0) translate(4 522.2)">
<title>oneDegreeRelationshipsDiagram</title>
<polygon fill="#ffffff" stroke="transparent" points="-4,4 -4,-522.2 590,-522.2 590,4 -4,4"/>
<text text-anchor="middle" x="72.4936" y="-7.3" font-family="Helvetica,sans-Serif" font-size="11.00" fill="#000000">Generated by SchemaSpy</text>
<!-- animal -->
<g id="node1" class="node">
<title>animal</title>
<g id="a_node1"><a xlink:href="../../tables/animal.html" xlink:title="animal" target="_top">
<polygon fill="#ffffff" stroke="transparent" points="152,-142.7 152,-430.7 362,-430.7 362,-142.7 152,-142.7"/>
<polygon fill="#f5f5f5" stroke="transparent" points="154,-405.7 154,-428.7 360,-428.7 360,-405.7 154,-405.7"/>
<polygon fill="none" stroke="#000000" points="154,-405.7 154,-428.7 360,-428.7 360,-405.7 154,-405.7"/>
<text text-anchor="start" x="159" y="-414.8" font-family="Helvetica,sans-Serif" font-weight="bold" font-size="11.00" fill="#000000">animal</text>
<text text-anchor="start" x="325.0437" y="-413.8" font-family="Helvetica,sans-Serif" font-size="11.00" fill="#000000">[table]</text>
<polygon fill="none" stroke="#000000" points="154,-383.7 154,-405.7 293,-405.7 293,-383.7 154,-383.7"/>
<image xlink:href="../../images/primaryKeys.png" width="11px" height="12px" preserveAspectRatio="xMinYMin meet" x="159" y="-400.7"/>
<text text-anchor="start" x="174" y="-390.8" font-family="Helvetica,sans-Serif" font-size="11.00" fill="#000000">id</text>
<polygon fill="none" stroke="#000000" points="293,-383.7 293,-405.7 360,-405.7 360,-383.7 293,-383.7"/>
<text text-anchor="start" x="296" y="-391.4" font-family="Helvetica,sans-Serif" font-size="11.00" fill="#000000">bigserial[19]</text>
<polygon fill="none" stroke="#000000" points="154,-361.7 154,-383.7 293,-383.7 293,-361.7 154,-361.7"/>
<text text-anchor="start" x="174" y="-368.8" font-family="Helvetica,sans-Serif" font-size="11.00" fill="#000000">tipo</text>
<polygon fill="none" stroke="#000000" points="293,-361.7 293,-383.7 360,-383.7 360,-361.7 293,-361.7"/>
<text text-anchor="start" x="296" y="-369.4" font-family="Helvetica,sans-Serif" font-size="11.00" fill="#000000">varchar[20]</text>
<polygon fill="none" stroke="#000000" points="154,-339.7 154,-361.7 293,-361.7 293,-339.7 154,-339.7"/>
<text text-anchor="start" x="174" y="-346.8" font-family="Helvetica,sans-Serif" font-size="11.00" fill="#000000">sexo</text>
<polygon fill="none" stroke="#000000" points="293,-339.7 293,-361.7 360,-361.7 360,-339.7 293,-339.7"/>
<text text-anchor="start" x="296" y="-347.4" font-family="Helvetica,sans-Serif" font-size="11.00" fill="#000000">varchar[20]</text>
<polygon fill="none" stroke="#000000" points="154,-317.7 154,-339.7 293,-339.7 293,-317.7 154,-317.7"/>
<text text-anchor="start" x="174" y="-324.8" font-family="Helvetica,sans-Serif" font-size="11.00" fill="#000000">peso</text>
<polygon fill="none" stroke="#000000" points="293,-317.7 293,-339.7 360,-339.7 360,-317.7 293,-317.7"/>
<text text-anchor="start" x="296" y="-325.4" font-family="Helvetica,sans-Serif" font-size="11.00" fill="#000000">float8[17,17]</text>
<polygon fill="none" stroke="#000000" points="154,-295.7 154,-317.7 293,-317.7 293,-295.7 154,-295.7"/>
<text text-anchor="start" x="174" y="-302.8" font-family="Helvetica,sans-Serif" font-size="11.00" fill="#000000">porte</text>
<polygon fill="none" stroke="#000000" points="293,-295.7 293,-317.7 360,-317.7 360,-295.7 293,-295.7"/>
<text text-anchor="start" x="296" y="-303.4" font-family="Helvetica,sans-Serif" font-size="11.00" fill="#000000">varchar[50]</text>
<polygon fill="none" stroke="#000000" points="154,-273.7 154,-295.7 293,-295.7 293,-273.7 154,-273.7"/>
<text text-anchor="start" x="174" y="-280.8" font-family="Helvetica,sans-Serif" font-size="11.00" fill="#000000">raca</text>
<polygon fill="none" stroke="#000000" points="293,-273.7 293,-295.7 360,-295.7 360,-273.7 293,-273.7"/>
<text text-anchor="start" x="296" y="-281.4" font-family="Helvetica,sans-Serif" font-size="11.00" fill="#000000">varchar[50]</text>
<polygon fill="none" stroke="#000000" points="154,-251.7 154,-273.7 293,-273.7 293,-251.7 154,-251.7"/>
<text text-anchor="start" x="174" y="-258.8" font-family="Helvetica,sans-Serif" font-size="11.00" fill="#000000">situacao_adocao</text>
<polygon fill="none" stroke="#000000" points="293,-251.7 293,-273.7 360,-273.7 360,-251.7 293,-251.7"/>
<text text-anchor="start" x="296" y="-259.4" font-family="Helvetica,sans-Serif" font-size="11.00" fill="#000000">bool[1]</text>
<polygon fill="none" stroke="#000000" points="154,-229.7 154,-251.7 293,-251.7 293,-229.7 154,-229.7"/>
<text text-anchor="start" x="174" y="-236.8" font-family="Helvetica,sans-Serif" font-size="11.00" fill="#000000">temperamento</text>
<polygon fill="none" stroke="#000000" points="293,-229.7 293,-251.7 360,-251.7 360,-229.7 293,-229.7"/>
<text text-anchor="start" x="295.9365" y="-237.4" font-family="Helvetica,sans-Serif" font-size="11.00" fill="#000000">varchar[100]</text>
<polygon fill="none" stroke="#000000" points="154,-207.7 154,-229.7 293,-229.7 293,-207.7 154,-207.7"/>
<text text-anchor="start" x="174" y="-214.8" font-family="Helvetica,sans-Serif" font-size="11.00" fill="#000000">pelagem_primaria</text>
<polygon fill="none" stroke="#000000" points="293,-207.7 293,-229.7 360,-229.7 360,-207.7 293,-207.7"/>
<text text-anchor="start" x="295.9365" y="-215.4" font-family="Helvetica,sans-Serif" font-size="11.00" fill="#000000">varchar[100]</text>
<polygon fill="none" stroke="#000000" points="154,-185.7 154,-207.7 293,-207.7 293,-185.7 154,-185.7"/>
<text text-anchor="start" x="174" y="-192.8" font-family="Helvetica,sans-Serif" font-size="11.00" fill="#000000">pelagem_secundaria</text>
<polygon fill="none" stroke="#000000" points="293,-185.7 293,-207.7 360,-207.7 360,-185.7 293,-185.7"/>
<text text-anchor="start" x="295.9365" y="-193.4" font-family="Helvetica,sans-Serif" font-size="11.00" fill="#000000">varchar[100]</text>
<polygon fill="none" stroke="#000000" points="154,-163.7 154,-185.7 293,-185.7 293,-163.7 154,-163.7"/>
<image xlink:href="../../images/foreignKeys.png" width="11px" height="12px" preserveAspectRatio="xMinYMin meet" x="159" y="-180.7"/>
<text text-anchor="start" x="174" y="-170.8" font-family="Helvetica,sans-Serif" font-size="11.00" fill="#000000">instituicao_id</text>
<polygon fill="none" stroke="#000000" points="293,-163.7 293,-185.7 360,-185.7 360,-163.7 293,-163.7"/>
<text text-anchor="start" x="296" y="-171.4" font-family="Helvetica,sans-Serif" font-size="11.00" fill="#000000">int4[10]</text>
<polygon fill="#ffffff" stroke="transparent" points="154,-144.7 154,-163.7 215,-163.7 215,-144.7 154,-144.7"/>
<polygon fill="none" stroke="#000000" points="154,-144.7 154,-163.7 215,-163.7 215,-144.7 154,-144.7"/>
<text text-anchor="start" x="157" y="-150.8" font-family="Helvetica,sans-Serif" font-size="11.00" fill="#000000">&lt; 1</text>
<polygon fill="#ffffff" stroke="transparent" points="215,-144.7 215,-163.7 293,-163.7 293,-144.7 215,-144.7"/>
<polygon fill="none" stroke="#000000" points="215,-144.7 215,-163.7 293,-163.7 293,-144.7 215,-144.7"/>
<text text-anchor="start" x="257.6105" y="-150.8" font-family="Helvetica,sans-Serif" font-size="11.00" fill="#000000">0 rows</text>
<polygon fill="#ffffff" stroke="transparent" points="293,-144.7 293,-163.7 360,-163.7 360,-144.7 293,-144.7"/>
<polygon fill="none" stroke="#000000" points="293,-144.7 293,-163.7 360,-163.7 360,-144.7 293,-144.7"/>
<text text-anchor="start" x="341.4053" y="-150.8" font-family="Helvetica,sans-Serif" font-size="11.00" fill="#000000">2 &gt;</text>
<polygon fill="none" stroke="#000000" stroke-width="2" points="153,-143.7 153,-429.7 361,-429.7 361,-143.7 153,-143.7"/>
</a>
</g>
</g>
<!-- instituicao -->
<g id="node2" class="node">
<title>instituicao</title>
<g id="a_node2"><a xlink:href="../../tables/instituicao.html" xlink:title="instituicao" target="_top">
<polygon fill="#ffffff" stroke="transparent" points="8,-38.2 8,-209.2 103,-209.2 103,-38.2 8,-38.2"/>
<polygon fill="#f5f5f5" stroke="transparent" points="8.5,-185.7 8.5,-208.7 103.5,-208.7 103.5,-185.7 8.5,-185.7"/>
<polygon fill="none" stroke="#000000" points="8.5,-185.7 8.5,-208.7 103.5,-208.7 103.5,-185.7 8.5,-185.7"/>
<text text-anchor="start" x="13.5" y="-194.8" font-family="Helvetica,sans-Serif" font-weight="bold" font-size="11.00" fill="#000000">instituicao</text>
<text text-anchor="start" x="68.5437" y="-193.8" font-family="Helvetica,sans-Serif" font-size="11.00" fill="#000000">[table]</text>
<polygon fill="none" stroke="#000000" points="8.5,-163.7 8.5,-185.7 103.5,-185.7 103.5,-163.7 8.5,-163.7"/>
<image xlink:href="../../images/primaryKeys.png" width="11px" height="12px" preserveAspectRatio="xMinYMin meet" x="13.5" y="-180.7"/>
<text text-anchor="start" x="28.5" y="-170.8" font-family="Helvetica,sans-Serif" font-size="11.00" fill="#000000">usuario_id</text>
<polygon fill="#ffffff" stroke="transparent" points="8.5,-141.7 8.5,-163.7 103.5,-163.7 103.5,-141.7 8.5,-141.7"/>
<polygon fill="none" stroke="#000000" points="8.5,-141.7 8.5,-163.7 103.5,-163.7 103.5,-141.7 8.5,-141.7"/>
<text text-anchor="start" x="28.5" y="-148.8" font-family="Helvetica,sans-Serif" font-size="11.00" fill="#000000">telefone</text>
<polygon fill="#ffffff" stroke="transparent" points="8.5,-119.7 8.5,-141.7 103.5,-141.7 103.5,-119.7 8.5,-119.7"/>
<polygon fill="none" stroke="#000000" points="8.5,-119.7 8.5,-141.7 103.5,-141.7 103.5,-119.7 8.5,-119.7"/>
<text text-anchor="start" x="28.5" y="-126.8" font-family="Helvetica,sans-Serif" font-size="11.00" fill="#000000">cnpj</text>
<polygon fill="#ffffff" stroke="transparent" points="8.5,-97.7 8.5,-119.7 103.5,-119.7 103.5,-97.7 8.5,-97.7"/>
<polygon fill="none" stroke="#000000" points="8.5,-97.7 8.5,-119.7 103.5,-119.7 103.5,-97.7 8.5,-97.7"/>
<text text-anchor="start" x="28.5" y="-104.8" font-family="Helvetica,sans-Serif" font-size="11.00" fill="#000000">cpf</text>
<polygon fill="none" stroke="#000000" points="8.5,-75.7 8.5,-97.7 103.5,-97.7 103.5,-75.7 8.5,-75.7"/>
<image xlink:href="../../images/foreignKeys.png" width="11px" height="12px" preserveAspectRatio="xMinYMin meet" x="13.5" y="-92.7"/>
<text text-anchor="start" x="28.5" y="-82.8" font-family="Helvetica,sans-Serif" font-size="11.00" fill="#000000">municipio_id</text>
<polygon fill="none" stroke="#000000" points="8.5,-56.7 8.5,-75.7 103.5,-75.7 103.5,-56.7 8.5,-56.7"/>
<text text-anchor="start" x="11.5" y="-62.8" font-family="Helvetica,sans-Serif" font-size="11.00" fill="#000000">...</text>
<polygon fill="#ffffff" stroke="transparent" points="8.5,-37.7 8.5,-56.7 36.5,-56.7 36.5,-37.7 8.5,-37.7"/>
<polygon fill="none" stroke="#000000" points="8.5,-37.7 8.5,-56.7 36.5,-56.7 36.5,-37.7 8.5,-37.7"/>
<text text-anchor="start" x="11.5" y="-43.8" font-family="Helvetica,sans-Serif" font-size="11.00" fill="#000000">&lt; 2</text>
<polygon fill="#ffffff" stroke="transparent" points="36.5,-37.7 36.5,-56.7 78.5,-56.7 78.5,-37.7 36.5,-37.7"/>
<polygon fill="none" stroke="#000000" points="36.5,-37.7 36.5,-56.7 78.5,-56.7 78.5,-37.7 36.5,-37.7"/>
<text text-anchor="start" x="43.1105" y="-43.8" font-family="Helvetica,sans-Serif" font-size="11.00" fill="#000000">0 rows</text>
<polygon fill="#ffffff" stroke="transparent" points="78.5,-37.7 78.5,-56.7 103.5,-56.7 103.5,-37.7 78.5,-37.7"/>
<polygon fill="none" stroke="#000000" points="78.5,-37.7 78.5,-56.7 103.5,-56.7 103.5,-37.7 78.5,-37.7"/>
<text text-anchor="start" x="84.9053" y="-43.8" font-family="Helvetica,sans-Serif" font-size="11.00" fill="#000000">2 &gt;</text>
</a>
</g>
</g>
<!-- animal&#45;&gt;instituicao -->
<g id="edge1" class="edge">
<title>animal:w&#45;&gt;instituicao:e</title>
<path fill="none" stroke="#000000" d="M139.4203,-174.7C127.5435,-174.7 120.158,-174.7 103.5,-174.7"/>
<polygon fill="#000000" stroke="#000000" points="146,-174.7001 154,-178.3 150,-174.7 154,-174.7 154,-174.7 154,-174.7 150,-174.7 154,-171.1 146,-174.7001 146,-174.7001"/>
<ellipse fill="none" stroke="#000000" cx="142.8" cy="-174.7001" rx="3.2" ry="3.2"/>
</g>
<!-- arquivo_animal -->
<g id="node3" class="node">
<title>arquivo_animal</title>
<g id="a_node3"><a xlink:href="../../tables/arquivo_animal.html" xlink:title="arquivo_animal" target="_top">
<polygon fill="#ffffff" stroke="transparent" points="436,-409.2 436,-514.2 553,-514.2 553,-409.2 436,-409.2"/>
<polygon fill="#f5f5f5" stroke="transparent" points="436.5,-490.7 436.5,-513.7 553.5,-513.7 553.5,-490.7 436.5,-490.7"/>
<polygon fill="none" stroke="#000000" points="436.5,-490.7 436.5,-513.7 553.5,-513.7 553.5,-490.7 436.5,-490.7"/>
<text text-anchor="start" x="441.2172" y="-499.8" font-family="Helvetica,sans-Serif" font-weight="bold" font-size="11.00" fill="#000000">arquivo_animal</text>
<text text-anchor="start" x="519.0219" y="-498.8" font-family="Helvetica,sans-Serif" font-size="11.00" fill="#000000">[table]</text>
<polygon fill="none" stroke="#000000" points="436.5,-468.7 436.5,-490.7 553.5,-490.7 553.5,-468.7 436.5,-468.7"/>
<image xlink:href="../../images/primaryKeys.png" width="11px" height="12px" preserveAspectRatio="xMinYMin meet" x="441.5" y="-485.7"/>
<text text-anchor="start" x="460.5" y="-475.8" font-family="Helvetica,sans-Serif" font-size="11.00" fill="#000000">id</text>
<polygon fill="none" stroke="#000000" points="436.5,-446.7 436.5,-468.7 553.5,-468.7 553.5,-446.7 436.5,-446.7"/>
<image xlink:href="../../images/foreignKeys.png" width="11px" height="12px" preserveAspectRatio="xMinYMin meet" x="441.5" y="-463.7"/>
<text text-anchor="start" x="460.5" y="-453.8" font-family="Helvetica,sans-Serif" font-size="11.00" fill="#000000">animal_id</text>
<polygon fill="none" stroke="#000000" points="436.5,-427.7 436.5,-446.7 553.5,-446.7 553.5,-427.7 436.5,-427.7"/>
<text text-anchor="start" x="439.5" y="-433.8" font-family="Helvetica,sans-Serif" font-size="11.00" fill="#000000">...</text>
<polygon fill="#ffffff" stroke="transparent" points="436.5,-408.7 436.5,-427.7 480.5,-427.7 480.5,-408.7 436.5,-408.7"/>
<polygon fill="none" stroke="#000000" points="436.5,-408.7 436.5,-427.7 480.5,-427.7 480.5,-408.7 436.5,-408.7"/>
<text text-anchor="start" x="439.5" y="-414.8" font-family="Helvetica,sans-Serif" font-size="11.00" fill="#000000">&lt; 1</text>
<polygon fill="#ffffff" stroke="transparent" points="480.5,-408.7 480.5,-427.7 529.5,-427.7 529.5,-408.7 480.5,-408.7"/>
<polygon fill="none" stroke="#000000" points="480.5,-408.7 480.5,-427.7 529.5,-427.7 529.5,-408.7 480.5,-408.7"/>
<text text-anchor="start" x="494.1105" y="-414.8" font-family="Helvetica,sans-Serif" font-size="11.00" fill="#000000">0 rows</text>
<polygon fill="#ffffff" stroke="transparent" points="529.5,-408.7 529.5,-427.7 553.5,-427.7 553.5,-408.7 529.5,-408.7"/>
<polygon fill="none" stroke="#000000" points="529.5,-408.7 529.5,-427.7 553.5,-427.7 553.5,-408.7 529.5,-408.7"/>
<text text-anchor="start" x="544.3862" y="-414.8" font-family="Helvetica,sans-Serif" font-size="11.00" fill="#000000"> &#160;</text>
</a>
</g>
</g>
<!-- arquivo_animal&#45;&gt;animal -->
<g id="edge2" class="edge">
<title>arquivo_animal:w&#45;&gt;animal:e</title>
<path fill="none" stroke="#000000" d="M422.002,-454.8293C394.5183,-442.5047 398.3677,-394.7 360,-394.7"/>
<polygon fill="#000000" stroke="#000000" points="428.6524,-456.1461 435.8007,-461.2314 432.5762,-456.923 436.5,-457.7 436.5,-457.7 436.5,-457.7 432.5762,-456.923 437.1993,-454.1686 428.6524,-456.1461 428.6524,-456.1461"/>
<ellipse fill="none" stroke="#000000" cx="425.5133" cy="-455.5245" rx="3.2" ry="3.2"/>
</g>
<!-- pessoa_interessa_animal -->
<g id="node4" class="node">
<title>pessoa_interessa_animal</title>
<g id="a_node4"><a xlink:href="../../tables/pessoa_interessa_animal.html" xlink:title="pessoa_interessa_animal" target="_top">
<polygon fill="#ffffff" stroke="transparent" points="411,-283.2 411,-388.2 578,-388.2 578,-283.2 411,-283.2"/>
<polygon fill="#f5f5f5" stroke="transparent" points="411.5,-364.7 411.5,-387.7 578.5,-387.7 578.5,-364.7 411.5,-364.7"/>
<polygon fill="none" stroke="#000000" points="411.5,-364.7 411.5,-387.7 578.5,-387.7 578.5,-364.7 411.5,-364.7"/>
<text text-anchor="start" x="416.1515" y="-373.8" font-family="Helvetica,sans-Serif" font-weight="bold" font-size="11.00" fill="#000000">pessoa_interessa_animal</text>
<text text-anchor="start" x="544.0219" y="-372.8" font-family="Helvetica,sans-Serif" font-size="11.00" fill="#000000">[table]</text>
<polygon fill="#ffffff" stroke="transparent" points="411.5,-342.7 411.5,-364.7 578.5,-364.7 578.5,-342.7 411.5,-342.7"/>
<polygon fill="none" stroke="#000000" points="411.5,-342.7 411.5,-364.7 578.5,-364.7 578.5,-342.7 411.5,-342.7"/>
<image xlink:href="../../images/foreignKeys.png" width="11px" height="12px" preserveAspectRatio="xMinYMin meet" x="416.5" y="-359.7"/>
<text text-anchor="start" x="432.5" y="-349.8" font-family="Helvetica,sans-Serif" font-size="11.00" fill="#000000">pessoa_id</text>
<polygon fill="#ffffff" stroke="transparent" points="411.5,-320.7 411.5,-342.7 578.5,-342.7 578.5,-320.7 411.5,-320.7"/>
<polygon fill="none" stroke="#000000" points="411.5,-320.7 411.5,-342.7 578.5,-342.7 578.5,-320.7 411.5,-320.7"/>
<image xlink:href="../../images/foreignKeys.png" width="11px" height="12px" preserveAspectRatio="xMinYMin meet" x="416.5" y="-337.7"/>
<text text-anchor="start" x="432.5" y="-327.8" font-family="Helvetica,sans-Serif" font-size="11.00" fill="#000000">animal_id</text>
<polygon fill="none" stroke="#000000" points="411.5,-301.7 411.5,-320.7 578.5,-320.7 578.5,-301.7 411.5,-301.7"/>
<text text-anchor="start" x="414.5" y="-307.8" font-family="Helvetica,sans-Serif" font-size="11.00" fill="#000000">...</text>
<polygon fill="#ffffff" stroke="transparent" points="411.5,-282.7 411.5,-301.7 480.5,-301.7 480.5,-282.7 411.5,-282.7"/>
<polygon fill="none" stroke="#000000" points="411.5,-282.7 411.5,-301.7 480.5,-301.7 480.5,-282.7 411.5,-282.7"/>
<text text-anchor="start" x="414.5" y="-288.8" font-family="Helvetica,sans-Serif" font-size="11.00" fill="#000000">&lt; 2</text>
<polygon fill="#ffffff" stroke="transparent" points="480.5,-282.7 480.5,-301.7 542.5,-301.7 542.5,-282.7 480.5,-282.7"/>
<polygon fill="none" stroke="#000000" points="480.5,-282.7 480.5,-301.7 542.5,-301.7 542.5,-282.7 480.5,-282.7"/>
<text text-anchor="start" x="507.1105" y="-288.8" font-family="Helvetica,sans-Serif" font-size="11.00" fill="#000000">0 rows</text>
<polygon fill="#ffffff" stroke="transparent" points="542.5,-282.7 542.5,-301.7 578.5,-301.7 578.5,-282.7 542.5,-282.7"/>
<polygon fill="none" stroke="#000000" points="542.5,-282.7 542.5,-301.7 578.5,-301.7 578.5,-282.7 542.5,-282.7"/>
<text text-anchor="start" x="569.3862" y="-288.8" font-family="Helvetica,sans-Serif" font-size="11.00" fill="#000000"> &#160;</text>
</a>
</g>
</g>
<!-- pessoa_interessa_animal&#45;&gt;animal -->
<g id="edge3" class="edge">
<title>pessoa_interessa_animal:w&#45;&gt;animal:e</title>
<path fill="none" stroke="#000000" d="M397.799,-336.2308C380.6358,-350.6761 390.2316,-394.7 360,-394.7"/>
<polygon fill="#000000" stroke="#000000" points="403.9045,-334.2118 412.6303,-335.118 407.7023,-332.9559 411.5,-331.7 411.5,-331.7 411.5,-331.7 407.7023,-332.9559 410.3697,-328.282 403.9045,-334.2118 403.9045,-334.2118"/>
<ellipse fill="none" stroke="#000000" cx="400.8663" cy="-335.2165" rx="3.2" ry="3.2"/>
</g>
</g>
</svg>
