<?xml version="1.0" encoding="UTF-8" standalone="no"?>
<!DOCTYPE svg PUBLIC "-//W3C//DTD SVG 1.1//EN"
 "http://www.w3.org/Graphics/SVG/1.1/DTD/svg11.dtd">
<!-- Generated by graphviz version 2.40.1 (20161225.0304)
 -->
<!-- Title: twoDegreesRelationshipsDiagram Pages: 1 -->
<svg width="732pt" height="472pt"
 viewBox="0.00 0.00 732.00 472.20" xmlns="http://www.w3.org/2000/svg" xmlns:xlink="http://www.w3.org/1999/xlink">
<g id="graph0" class="graph" transform="scale(1 1) rotate(0) translate(4 468.2)">
<title>twoDegreesRelationshipsDiagram</title>
<polygon fill="#ffffff" stroke="transparent" points="-4,4 -4,-468.2 728,-468.2 728,4 -4,4"/>
<text text-anchor="middle" x="72.4936" y="-7.3" font-family="Helvetica,sans-Serif" font-size="11.00" fill="#000000">Generated by SchemaSpy</text>
<!-- animal -->
<g id="node1" class="node">
<title>animal</title>
<g id="a_node1"><a xlink:href="../../tables/animal.html" xlink:title="animal" target="_top">
<polygon fill="#ffffff" stroke="transparent" points="290,-89.7 290,-377.7 500,-377.7 500,-89.7 290,-89.7"/>
<polygon fill="#f5f5f5" stroke="transparent" points="292,-352.7 292,-375.7 498,-375.7 498,-352.7 292,-352.7"/>
<polygon fill="none" stroke="#000000" points="292,-352.7 292,-375.7 498,-375.7 498,-352.7 292,-352.7"/>
<text text-anchor="start" x="297" y="-361.8" font-family="Helvetica,sans-Serif" font-weight="bold" font-size="11.00" fill="#000000">animal</text>
<text text-anchor="start" x="463.0437" y="-360.8" font-family="Helvetica,sans-Serif" font-size="11.00" fill="#000000">[table]</text>
<polygon fill="none" stroke="#000000" points="292,-330.7 292,-352.7 431,-352.7 431,-330.7 292,-330.7"/>
<image xlink:href="../../images/primaryKeys.png" width="11px" height="12px" preserveAspectRatio="xMinYMin meet" x="297" y="-347.7"/>
<text text-anchor="start" x="312" y="-337.8" font-family="Helvetica,sans-Serif" font-size="11.00" fill="#000000">id</text>
<polygon fill="none" stroke="#000000" points="431,-330.7 431,-352.7 498,-352.7 498,-330.7 431,-330.7"/>
<text text-anchor="start" x="434" y="-338.4" font-family="Helvetica,sans-Serif" font-size="11.00" fill="#000000">bigserial[19]</text>
<polygon fill="none" stroke="#000000" points="292,-308.7 292,-330.7 431,-330.7 431,-308.7 292,-308.7"/>
<text text-anchor="start" x="312" y="-315.8" font-family="Helvetica,sans-Serif" font-size="11.00" fill="#000000">tipo</text>
<polygon fill="none" stroke="#000000" points="431,-308.7 431,-330.7 498,-330.7 498,-308.7 431,-308.7"/>
<text text-anchor="start" x="434" y="-316.4" font-family="Helvetica,sans-Serif" font-size="11.00" fill="#000000">varchar[20]</text>
<polygon fill="none" stroke="#000000" points="292,-286.7 292,-308.7 431,-308.7 431,-286.7 292,-286.7"/>
<text text-anchor="start" x="312" y="-293.8" font-family="Helvetica,sans-Serif" font-size="11.00" fill="#000000">sexo</text>
<polygon fill="none" stroke="#000000" points="431,-286.7 431,-308.7 498,-308.7 498,-286.7 431,-286.7"/>
<text text-anchor="start" x="434" y="-294.4" font-family="Helvetica,sans-Serif" font-size="11.00" fill="#000000">varchar[20]</text>
<polygon fill="none" stroke="#000000" points="292,-264.7 292,-286.7 431,-286.7 431,-264.7 292,-264.7"/>
<text text-anchor="start" x="312" y="-271.8" font-family="Helvetica,sans-Serif" font-size="11.00" fill="#000000">peso</text>
<polygon fill="none" stroke="#000000" points="431,-264.7 431,-286.7 498,-286.7 498,-264.7 431,-264.7"/>
<text text-anchor="start" x="434" y="-272.4" font-family="Helvetica,sans-Serif" font-size="11.00" fill="#000000">float8[17,17]</text>
<polygon fill="none" stroke="#000000" points="292,-242.7 292,-264.7 431,-264.7 431,-242.7 292,-242.7"/>
<text text-anchor="start" x="312" y="-249.8" font-family="Helvetica,sans-Serif" font-size="11.00" fill="#000000">porte</text>
<polygon fill="none" stroke="#000000" points="431,-242.7 431,-264.7 498,-264.7 498,-242.7 431,-242.7"/>
<text text-anchor="start" x="434" y="-250.4" font-family="Helvetica,sans-Serif" font-size="11.00" fill="#000000">varchar[50]</text>
<polygon fill="none" stroke="#000000" points="292,-220.7 292,-242.7 431,-242.7 431,-220.7 292,-220.7"/>
<text text-anchor="start" x="312" y="-227.8" font-family="Helvetica,sans-Serif" font-size="11.00" fill="#000000">raca</text>
<polygon fill="none" stroke="#000000" points="431,-220.7 431,-242.7 498,-242.7 498,-220.7 431,-220.7"/>
<text text-anchor="start" x="434" y="-228.4" font-family="Helvetica,sans-Serif" font-size="11.00" fill="#000000">varchar[50]</text>
<polygon fill="none" stroke="#000000" points="292,-198.7 292,-220.7 431,-220.7 431,-198.7 292,-198.7"/>
<text text-anchor="start" x="312" y="-205.8" font-family="Helvetica,sans-Serif" font-size="11.00" fill="#000000">situacao_adocao</text>
<polygon fill="none" stroke="#000000" points="431,-198.7 431,-220.7 498,-220.7 498,-198.7 431,-198.7"/>
<text text-anchor="start" x="434" y="-206.4" font-family="Helvetica,sans-Serif" font-size="11.00" fill="#000000">bool[1]</text>
<polygon fill="none" stroke="#000000" points="292,-176.7 292,-198.7 431,-198.7 431,-176.7 292,-176.7"/>
<text text-anchor="start" x="312" y="-183.8" font-family="Helvetica,sans-Serif" font-size="11.00" fill="#000000">temperamento</text>
<polygon fill="none" stroke="#000000" points="431,-176.7 431,-198.7 498,-198.7 498,-176.7 431,-176.7"/>
<text text-anchor="start" x="433.9365" y="-184.4" font-family="Helvetica,sans-Serif" font-size="11.00" fill="#000000">varchar[100]</text>
<polygon fill="none" stroke="#000000" points="292,-154.7 292,-176.7 431,-176.7 431,-154.7 292,-154.7"/>
<text text-anchor="start" x="312" y="-161.8" font-family="Helvetica,sans-Serif" font-size="11.00" fill="#000000">pelagem_primaria</text>
<polygon fill="none" stroke="#000000" points="431,-154.7 431,-176.7 498,-176.7 498,-154.7 431,-154.7"/>
<text text-anchor="start" x="433.9365" y="-162.4" font-family="Helvetica,sans-Serif" font-size="11.00" fill="#000000">varchar[100]</text>
<polygon fill="none" stroke="#000000" points="292,-132.7 292,-154.7 431,-154.7 431,-132.7 292,-132.7"/>
<text text-anchor="start" x="312" y="-139.8" font-family="Helvetica,sans-Serif" font-size="11.00" fill="#000000">pelagem_secundaria</text>
<polygon fill="none" stroke="#000000" points="431,-132.7 431,-154.7 498,-154.7 498,-132.7 431,-132.7"/>
<text text-anchor="start" x="433.9365" y="-140.4" font-family="Helvetica,sans-Serif" font-size="11.00" fill="#000000">varchar[100]</text>
<polygon fill="none" stroke="#000000" points="292,-110.7 292,-132.7 431,-132.7 431,-110.7 292,-110.7"/>
<image xlink:href="../../images/foreignKeys.png" width="11px" height="12px" preserveAspectRatio="xMinYMin meet" x="297" y="-127.7"/>
<text text-anchor="start" x="312" y="-117.8" font-family="Helvetica,sans-Serif" font-size="11.00" fill="#000000">instituicao_id</text>
<polygon fill="none" stroke="#000000" points="431,-110.7 431,-132.7 498,-132.7 498,-110.7 431,-110.7"/>
<text text-anchor="start" x="434" y="-118.4" font-family="Helvetica,sans-Serif" font-size="11.00" fill="#000000">int4[10]</text>
<polygon fill="#ffffff" stroke="transparent" points="292,-91.7 292,-110.7 353,-110.7 353,-91.7 292,-91.7"/>
<polygon fill="none" stroke="#000000" points="292,-91.7 292,-110.7 353,-110.7 353,-91.7 292,-91.7"/>
<text text-anchor="start" x="295" y="-97.8" font-family="Helvetica,sans-Serif" font-size="11.00" fill="#000000">&lt; 1</text>
<polygon fill="#ffffff" stroke="transparent" points="353,-91.7 353,-110.7 431,-110.7 431,-91.7 353,-91.7"/>
<polygon fill="none" stroke="#000000" points="353,-91.7 353,-110.7 431,-110.7 431,-91.7 353,-91.7"/>
<text text-anchor="start" x="395.6105" y="-97.8" font-family="Helvetica,sans-Serif" font-size="11.00" fill="#000000">0 rows</text>
<polygon fill="#ffffff" stroke="transparent" points="431,-91.7 431,-110.7 498,-110.7 498,-91.7 431,-91.7"/>
<polygon fill="none" stroke="#000000" points="431,-91.7 431,-110.7 498,-110.7 498,-91.7 431,-91.7"/>
<text text-anchor="start" x="479.4053" y="-97.8" font-family="Helvetica,sans-Serif" font-size="11.00" fill="#000000">2 &gt;</text>
<polygon fill="none" stroke="#000000" stroke-width="2" points="291,-90.7 291,-376.7 499,-376.7 499,-90.7 291,-90.7"/>
</a>
</g>
</g>
<!-- instituicao -->
<g id="node2" class="node">
<title>instituicao</title>
<g id="a_node2"><a xlink:href="../../tables/instituicao.html" xlink:title="instituicao" target="_top">
<polygon fill="#ffffff" stroke="transparent" points="146,-120.2 146,-291.2 241,-291.2 241,-120.2 146,-120.2"/>
<polygon fill="#f5f5f5" stroke="transparent" points="146.5,-267.7 146.5,-290.7 241.5,-290.7 241.5,-267.7 146.5,-267.7"/>
<polygon fill="none" stroke="#000000" points="146.5,-267.7 146.5,-290.7 241.5,-290.7 241.5,-267.7 146.5,-267.7"/>
<text text-anchor="start" x="151.5" y="-276.8" font-family="Helvetica,sans-Serif" font-weight="bold" font-size="11.00" fill="#000000">instituicao</text>
<text text-anchor="start" x="206.5437" y="-275.8" font-family="Helvetica,sans-Serif" font-size="11.00" fill="#000000">[table]</text>
<polygon fill="none" stroke="#000000" points="146.5,-245.7 146.5,-267.7 241.5,-267.7 241.5,-245.7 146.5,-245.7"/>
<image xlink:href="../../images/primaryKeys.png" width="11px" height="12px" preserveAspectRatio="xMinYMin meet" x="151.5" y="-262.7"/>
<text text-anchor="start" x="166.5" y="-252.8" font-family="Helvetica,sans-Serif" font-size="11.00" fill="#000000">usuario_id</text>
<polygon fill="#ffffff" stroke="transparent" points="146.5,-223.7 146.5,-245.7 241.5,-245.7 241.5,-223.7 146.5,-223.7"/>
<polygon fill="none" stroke="#000000" points="146.5,-223.7 146.5,-245.7 241.5,-245.7 241.5,-223.7 146.5,-223.7"/>
<text text-anchor="start" x="166.5" y="-230.8" font-family="Helvetica,sans-Serif" font-size="11.00" fill="#000000">telefone</text>
<polygon fill="#ffffff" stroke="transparent" points="146.5,-201.7 146.5,-223.7 241.5,-223.7 241.5,-201.7 146.5,-201.7"/>
<polygon fill="none" stroke="#000000" points="146.5,-201.7 146.5,-223.7 241.5,-223.7 241.5,-201.7 146.5,-201.7"/>
<text text-anchor="start" x="166.5" y="-208.8" font-family="Helvetica,sans-Serif" font-size="11.00" fill="#000000">cnpj</text>
<polygon fill="#ffffff" stroke="transparent" points="146.5,-179.7 146.5,-201.7 241.5,-201.7 241.5,-179.7 146.5,-179.7"/>
<polygon fill="none" stroke="#000000" points="146.5,-179.7 146.5,-201.7 241.5,-201.7 241.5,-179.7 146.5,-179.7"/>
<text text-anchor="start" x="166.5" y="-186.8" font-family="Helvetica,sans-Serif" font-size="11.00" fill="#000000">cpf</text>
<polygon fill="none" stroke="#000000" points="146.5,-157.7 146.5,-179.7 241.5,-179.7 241.5,-157.7 146.5,-157.7"/>
<image xlink:href="../../images/foreignKeys.png" width="11px" height="12px" preserveAspectRatio="xMinYMin meet" x="151.5" y="-174.7"/>
<text text-anchor="start" x="166.5" y="-164.8" font-family="Helvetica,sans-Serif" font-size="11.00" fill="#000000">municipio_id</text>
<polygon fill="none" stroke="#000000" points="146.5,-138.7 146.5,-157.7 241.5,-157.7 241.5,-138.7 146.5,-138.7"/>
<text text-anchor="start" x="149.5" y="-144.8" font-family="Helvetica,sans-Serif" font-size="11.00" fill="#000000">...</text>
<polygon fill="#ffffff" stroke="transparent" points="146.5,-119.7 146.5,-138.7 174.5,-138.7 174.5,-119.7 146.5,-119.7"/>
<polygon fill="none" stroke="#000000" points="146.5,-119.7 146.5,-138.7 174.5,-138.7 174.5,-119.7 146.5,-119.7"/>
<text text-anchor="start" x="149.5" y="-125.8" font-family="Helvetica,sans-Serif" font-size="11.00" fill="#000000">&lt; 2</text>
<polygon fill="#ffffff" stroke="transparent" points="174.5,-119.7 174.5,-138.7 216.5,-138.7 216.5,-119.7 174.5,-119.7"/>
<polygon fill="none" stroke="#000000" points="174.5,-119.7 174.5,-138.7 216.5,-138.7 216.5,-119.7 174.5,-119.7"/>
<text text-anchor="start" x="181.1105" y="-125.8" font-family="Helvetica,sans-Serif" font-size="11.00" fill="#000000">0 rows</text>
<polygon fill="#ffffff" stroke="transparent" points="216.5,-119.7 216.5,-138.7 241.5,-138.7 241.5,-119.7 216.5,-119.7"/>
<polygon fill="none" stroke="#000000" points="216.5,-119.7 216.5,-138.7 241.5,-138.7 241.5,-119.7 216.5,-119.7"/>
<text text-anchor="start" x="222.9053" y="-125.8" font-family="Helvetica,sans-Serif" font-size="11.00" fill="#000000">2 &gt;</text>
</a>
</g>
</g>
<!-- animal&#45;&gt;instituicao -->
<g id="edge1" class="edge">
<title>animal:w&#45;&gt;instituicao:e</title>
<path fill="none" stroke="#000000" d="M277.4852,-125.0371C241.2482,-145.826 299.5549,-256.7 241.5,-256.7"/>
<polygon fill="#000000" stroke="#000000" points="284.2034,-123.4926 292.8067,-125.2085 288.1017,-122.5963 292,-121.7 292,-121.7 292,-121.7 288.1017,-122.5963 291.1933,-118.1915 284.2034,-123.4926 284.2034,-123.4926"/>
<ellipse fill="none" stroke="#000000" cx="281.0848" cy="-124.2096" rx="3.2" ry="3.2"/>
</g>
<!-- municipio -->
<g id="node5" class="node">
<title>municipio</title>
<g id="a_node5"><a xlink:href="../../tables/municipio.html" xlink:title="municipio" target="_top">
<polygon fill="#ffffff" stroke="transparent" points="8,-89.2 8,-150.2 97,-150.2 97,-89.2 8,-89.2"/>
<polygon fill="#f5f5f5" stroke="transparent" points="8.5,-126.7 8.5,-149.7 97.5,-149.7 97.5,-126.7 8.5,-126.7"/>
<polygon fill="none" stroke="#000000" points="8.5,-126.7 8.5,-149.7 97.5,-149.7 97.5,-126.7 8.5,-126.7"/>
<text text-anchor="start" x="13.2779" y="-135.8" font-family="Helvetica,sans-Serif" font-weight="bold" font-size="11.00" fill="#000000">municipio</text>
<text text-anchor="start" x="63.0219" y="-134.8" font-family="Helvetica,sans-Serif" font-size="11.00" fill="#000000">[table]</text>
<polygon fill="none" stroke="#000000" points="8.5,-107.7 8.5,-126.7 97.5,-126.7 97.5,-107.7 8.5,-107.7"/>
<text text-anchor="start" x="11.5" y="-113.8" font-family="Helvetica,sans-Serif" font-size="11.00" fill="#000000">...</text>
<polygon fill="#ffffff" stroke="transparent" points="8.5,-88.7 8.5,-107.7 29.5,-107.7 29.5,-88.7 8.5,-88.7"/>
<polygon fill="none" stroke="#000000" points="8.5,-88.7 8.5,-107.7 29.5,-107.7 29.5,-88.7 8.5,-88.7"/>
<text text-anchor="start" x="11.5" y="-94.8" font-family="Helvetica,sans-Serif" font-size="11.00" fill="#000000"> &#160;</text>
<polygon fill="#ffffff" stroke="transparent" points="29.5,-88.7 29.5,-107.7 71.5,-107.7 71.5,-88.7 29.5,-88.7"/>
<polygon fill="none" stroke="#000000" points="29.5,-88.7 29.5,-107.7 71.5,-107.7 71.5,-88.7 29.5,-88.7"/>
<text text-anchor="start" x="36.1105" y="-94.8" font-family="Helvetica,sans-Serif" font-size="11.00" fill="#000000">0 rows</text>
<polygon fill="#ffffff" stroke="transparent" points="71.5,-88.7 71.5,-107.7 97.5,-107.7 97.5,-88.7 71.5,-88.7"/>
<polygon fill="none" stroke="#000000" points="71.5,-88.7 71.5,-107.7 97.5,-107.7 97.5,-88.7 71.5,-88.7"/>
<text text-anchor="start" x="78.9053" y="-94.8" font-family="Helvetica,sans-Serif" font-size="11.00" fill="#000000">2 &gt;</text>
</a>
</g>
</g>
<!-- instituicao&#45;&gt;municipio -->
<g id="edge4" class="edge">
<title>instituicao:w&#45;&gt;municipio:e</title>
<path fill="none" stroke="#000000" d="M132.9073,-163.9012C118.5597,-151.0281 123.3011,-116.7 97.5,-116.7"/>
<polygon fill="#000000" stroke="#000000" points="138.9563,-166.0367 145.3015,-172.0947 142.7282,-167.3684 146.5,-168.7 146.5,-168.7 146.5,-168.7 142.7282,-167.3684 147.6985,-165.3053 138.9563,-166.0367 138.9563,-166.0367"/>
<ellipse fill="none" stroke="#000000" cx="135.9388" cy="-164.9714" rx="3.2" ry="3.2"/>
</g>
<!-- usuario -->
<g id="node6" class="node">
<title>usuario</title>
<g id="a_node6"><a xlink:href="../../tables/usuario.html" xlink:title="usuario" target="_top">
<polygon fill="#ffffff" stroke="transparent" points="13,-200.2 13,-261.2 92,-261.2 92,-200.2 13,-200.2"/>
<polygon fill="#f5f5f5" stroke="transparent" points="13.5,-237.7 13.5,-260.7 92.5,-260.7 92.5,-237.7 13.5,-237.7"/>
<polygon fill="none" stroke="#000000" points="13.5,-237.7 13.5,-260.7 92.5,-260.7 92.5,-237.7 13.5,-237.7"/>
<text text-anchor="start" x="18.4688" y="-246.8" font-family="Helvetica,sans-Serif" font-weight="bold" font-size="11.00" fill="#000000">usuario</text>
<text text-anchor="start" x="58.0219" y="-245.8" font-family="Helvetica,sans-Serif" font-size="11.00" fill="#000000">[table]</text>
<polygon fill="none" stroke="#000000" points="13.5,-218.7 13.5,-237.7 92.5,-237.7 92.5,-218.7 13.5,-218.7"/>
<text text-anchor="start" x="16.5" y="-224.8" font-family="Helvetica,sans-Serif" font-size="11.00" fill="#000000">...</text>
<polygon fill="#ffffff" stroke="transparent" points="13.5,-199.7 13.5,-218.7 29.5,-218.7 29.5,-199.7 13.5,-199.7"/>
<polygon fill="none" stroke="#000000" points="13.5,-199.7 13.5,-218.7 29.5,-218.7 29.5,-199.7 13.5,-199.7"/>
<text text-anchor="start" x="16.5" y="-205.8" font-family="Helvetica,sans-Serif" font-size="11.00" fill="#000000"> &#160;</text>
<polygon fill="#ffffff" stroke="transparent" points="29.5,-199.7 29.5,-218.7 69.5,-218.7 69.5,-199.7 29.5,-199.7"/>
<polygon fill="none" stroke="#000000" points="29.5,-199.7 29.5,-218.7 69.5,-218.7 69.5,-199.7 29.5,-199.7"/>
<text text-anchor="start" x="34.1105" y="-205.8" font-family="Helvetica,sans-Serif" font-size="11.00" fill="#000000">0 rows</text>
<polygon fill="#ffffff" stroke="transparent" points="69.5,-199.7 69.5,-218.7 92.5,-218.7 92.5,-199.7 69.5,-199.7"/>
<polygon fill="none" stroke="#000000" points="69.5,-199.7 69.5,-218.7 92.5,-218.7 92.5,-199.7 69.5,-199.7"/>
<text text-anchor="start" x="73.9053" y="-205.8" font-family="Helvetica,sans-Serif" font-size="11.00" fill="#000000">2 &gt;</text>
</a>
</g>
</g>
<!-- instituicao&#45;&gt;usuario -->
<g id="edge5" class="edge">
<title>instituicao:w&#45;&gt;usuario:e</title>
<path fill="none" stroke="#000000" d="M136.0202,-254.9728C118.7908,-248.7296 115.6982,-227.7 92.5,-227.7"/>
<polygon fill="#000000" stroke="#000000" points="146.3612,-252.6231 145.0601,-260.5167 143.4814,-260.2564 144.7825,-252.3629 146.3612,-252.6231"/>
<polyline fill="none" stroke="#000000" points="146.5,-256.7 142.5532,-256.0495 "/>
<ellipse fill="none" stroke="#000000" cx="139.3958" cy="-255.5291" rx="3.2" ry="3.2"/>
</g>
<!-- arquivo_animal -->
<g id="node3" class="node">
<title>arquivo_animal</title>
<g id="a_node3"><a xlink:href="../../tables/arquivo_animal.html" xlink:title="arquivo_animal" target="_top">
<polygon fill="#ffffff" stroke="transparent" points="574,-293.2 574,-398.2 691,-398.2 691,-293.2 574,-293.2"/>
<polygon fill="#f5f5f5" stroke="transparent" points="574.5,-374.7 574.5,-397.7 691.5,-397.7 691.5,-374.7 574.5,-374.7"/>
<polygon fill="none" stroke="#000000" points="574.5,-374.7 574.5,-397.7 691.5,-397.7 691.5,-374.7 574.5,-374.7"/>
<text text-anchor="start" x="579.2171" y="-383.8" font-family="Helvetica,sans-Serif" font-weight="bold" font-size="11.00" fill="#000000">arquivo_animal</text>
<text text-anchor="start" x="657.0219" y="-382.8" font-family="Helvetica,sans-Serif" font-size="11.00" fill="#000000">[table]</text>
<polygon fill="none" stroke="#000000" points="574.5,-352.7 574.5,-374.7 691.5,-374.7 691.5,-352.7 574.5,-352.7"/>
<image xlink:href="../../images/primaryKeys.png" width="11px" height="12px" preserveAspectRatio="xMinYMin meet" x="579.5" y="-369.7"/>
<text text-anchor="start" x="598.5" y="-359.8" font-family="Helvetica,sans-Serif" font-size="11.00" fill="#000000">id</text>
<polygon fill="none" stroke="#000000" points="574.5,-330.7 574.5,-352.7 691.5,-352.7 691.5,-330.7 574.5,-330.7"/>
<image xlink:href="../../images/foreignKeys.png" width="11px" height="12px" preserveAspectRatio="xMinYMin meet" x="579.5" y="-347.7"/>
<text text-anchor="start" x="598.5" y="-337.8" font-family="Helvetica,sans-Serif" font-size="11.00" fill="#000000">animal_id</text>
<polygon fill="none" stroke="#000000" points="574.5,-311.7 574.5,-330.7 691.5,-330.7 691.5,-311.7 574.5,-311.7"/>
<text text-anchor="start" x="577.5" y="-317.8" font-family="Helvetica,sans-Serif" font-size="11.00" fill="#000000">...</text>
<polygon fill="#ffffff" stroke="transparent" points="574.5,-292.7 574.5,-311.7 618.5,-311.7 618.5,-292.7 574.5,-292.7"/>
<polygon fill="none" stroke="#000000" points="574.5,-292.7 574.5,-311.7 618.5,-311.7 618.5,-292.7 574.5,-292.7"/>
<text text-anchor="start" x="577.5" y="-298.8" font-family="Helvetica,sans-Serif" font-size="11.00" fill="#000000">&lt; 1</text>
<polygon fill="#ffffff" stroke="transparent" points="618.5,-292.7 618.5,-311.7 667.5,-311.7 667.5,-292.7 618.5,-292.7"/>
<polygon fill="none" stroke="#000000" points="618.5,-292.7 618.5,-311.7 667.5,-311.7 667.5,-292.7 618.5,-292.7"/>
<text text-anchor="start" x="632.1105" y="-298.8" font-family="Helvetica,sans-Serif" font-size="11.00" fill="#000000">0 rows</text>
<polygon fill="#ffffff" stroke="transparent" points="667.5,-292.7 667.5,-311.7 691.5,-311.7 691.5,-292.7 667.5,-292.7"/>
<polygon fill="none" stroke="#000000" points="667.5,-292.7 667.5,-311.7 691.5,-311.7 691.5,-292.7 667.5,-292.7"/>
<text text-anchor="start" x="682.3862" y="-298.8" font-family="Helvetica,sans-Serif" font-size="11.00" fill="#000000"> &#160;</text>
</a>
</g>
</g>
<!-- arquivo_animal&#45;&gt;animal -->
<g id="edge2" class="edge">
<title>arquivo_animal:w&#45;&gt;animal:e</title>
<path fill="none" stroke="#000000" d="M559.9168,-341.7C537.1233,-341.7 526.5547,-341.7 498,-341.7"/>
<polygon fill="#000000" stroke="#000000" points="566.5,-341.7001 574.5,-345.3 570.5,-341.7 574.5,-341.7 574.5,-341.7 574.5,-341.7 570.5,-341.7 574.5,-338.1 566.5,-341.7001 566.5,-341.7001"/>
<ellipse fill="none" stroke="#000000" cx="563.3" cy="-341.7001" rx="3.2" ry="3.2"/>
</g>
<!-- campanha -->
<g id="node4" class="node">
<title>campanha</title>
<g id="a_node4"><a xlink:href="../../tables/campanha.html" xlink:title="campanha" target="_top">
<polygon fill="#ffffff" stroke="transparent" points="348,-399.2 348,-460.2 442,-460.2 442,-399.2 348,-399.2"/>
<polygon fill="#f5f5f5" stroke="transparent" points="348,-436.7 348,-459.7 442,-459.7 442,-436.7 348,-436.7"/>
<polygon fill="none" stroke="#000000" points="348,-436.7 348,-459.7 442,-459.7 442,-436.7 348,-436.7"/>
<text text-anchor="start" x="352.8244" y="-445.8" font-family="Helvetica,sans-Serif" font-weight="bold" font-size="11.00" fill="#000000">campanha</text>
<text text-anchor="start" x="407.5219" y="-444.8" font-family="Helvetica,sans-Serif" font-size="11.00" fill="#000000">[table]</text>
<polygon fill="none" stroke="#000000" points="348,-417.7 348,-436.7 442,-436.7 442,-417.7 348,-417.7"/>
<text text-anchor="start" x="351" y="-423.8" font-family="Helvetica,sans-Serif" font-size="11.00" fill="#000000">...</text>
<polygon fill="#ffffff" stroke="transparent" points="348,-398.7 348,-417.7 376,-417.7 376,-398.7 348,-398.7"/>
<polygon fill="none" stroke="#000000" points="348,-398.7 348,-417.7 376,-417.7 376,-398.7 348,-398.7"/>
<text text-anchor="start" x="351" y="-404.8" font-family="Helvetica,sans-Serif" font-size="11.00" fill="#000000">&lt; 2</text>
<polygon fill="#ffffff" stroke="transparent" points="376,-398.7 376,-417.7 417,-417.7 417,-398.7 376,-398.7"/>
<polygon fill="none" stroke="#000000" points="376,-398.7 376,-417.7 417,-417.7 417,-398.7 376,-398.7"/>
<text text-anchor="start" x="381.6105" y="-404.8" font-family="Helvetica,sans-Serif" font-size="11.00" fill="#000000">0 rows</text>
<polygon fill="#ffffff" stroke="transparent" points="417,-398.7 417,-417.7 442,-417.7 442,-398.7 417,-398.7"/>
<polygon fill="none" stroke="#000000" points="417,-398.7 417,-417.7 442,-417.7 442,-398.7 417,-398.7"/>
<text text-anchor="start" x="423.4053" y="-404.8" font-family="Helvetica,sans-Serif" font-size="11.00" fill="#000000">3 &gt;</text>
</a>
</g>
</g>
<!-- campanha&#45;&gt;instituicao -->
<g id="edge3" class="edge">
<title>campanha:w&#45;&gt;instituicao:e</title>
<path fill="none" stroke="#000000" d="M333.3564,-425.7985C310.3542,-422.6227 299.7205,-410.9278 282,-388.7 243.7463,-340.7164 302.8659,-256.7 241.5,-256.7"/>
<polygon fill="#000000" stroke="#000000" points="340.0151,-426.2084 347.7788,-430.2932 344.0076,-426.4542 348,-426.7 348,-426.7 348,-426.7 344.0076,-426.4542 348.2212,-423.1068 340.0151,-426.2084 340.0151,-426.2084"/>
<ellipse fill="none" stroke="#000000" cx="336.8212" cy="-426.0118" rx="3.2" ry="3.2"/>
</g>
<!-- pessoa -->
<g id="node7" class="node">
<title>pessoa</title>
<g id="a_node7"><a xlink:href="../../tables/pessoa.html" xlink:title="pessoa" target="_top">
<polygon fill="#ffffff" stroke="transparent" points="153.5,-38.2 153.5,-99.2 233.5,-99.2 233.5,-38.2 153.5,-38.2"/>
<polygon fill="#f5f5f5" stroke="transparent" points="153.5,-75.7 153.5,-98.7 233.5,-98.7 233.5,-75.7 153.5,-75.7"/>
<polygon fill="none" stroke="#000000" points="153.5,-75.7 153.5,-98.7 233.5,-98.7 233.5,-75.7 153.5,-75.7"/>
<text text-anchor="start" x="158.5" y="-84.8" font-family="Helvetica,sans-Serif" font-weight="bold" font-size="11.00" fill="#000000">pessoa</text>
<text text-anchor="start" x="198.5437" y="-83.8" font-family="Helvetica,sans-Serif" font-size="11.00" fill="#000000">[table]</text>
<polygon fill="none" stroke="#000000" points="153.5,-56.7 153.5,-75.7 233.5,-75.7 233.5,-56.7 153.5,-56.7"/>
<text text-anchor="start" x="156.5" y="-62.8" font-family="Helvetica,sans-Serif" font-size="11.00" fill="#000000">...</text>
<polygon fill="#ffffff" stroke="transparent" points="153.5,-37.7 153.5,-56.7 174.5,-56.7 174.5,-37.7 153.5,-37.7"/>
<polygon fill="none" stroke="#000000" points="153.5,-37.7 153.5,-56.7 174.5,-56.7 174.5,-37.7 153.5,-37.7"/>
<text text-anchor="start" x="156.2027" y="-43.8" font-family="Helvetica,sans-Serif" font-size="11.00" fill="#000000">&lt; 2</text>
<polygon fill="#ffffff" stroke="transparent" points="174.5,-37.7 174.5,-56.7 212.5,-56.7 212.5,-37.7 174.5,-37.7"/>
<polygon fill="none" stroke="#000000" points="174.5,-37.7 174.5,-56.7 212.5,-56.7 212.5,-37.7 174.5,-37.7"/>
<text text-anchor="start" x="177.3053" y="-43.8" font-family="Helvetica,sans-Serif" font-size="11.00" fill="#000000">0 rows</text>
<polygon fill="#ffffff" stroke="transparent" points="212.5,-37.7 212.5,-56.7 233.5,-56.7 233.5,-37.7 212.5,-37.7"/>
<polygon fill="none" stroke="#000000" points="212.5,-37.7 212.5,-56.7 233.5,-56.7 233.5,-37.7 212.5,-37.7"/>
<text text-anchor="start" x="215.2027" y="-43.8" font-family="Helvetica,sans-Serif" font-size="11.00" fill="#000000">2 &gt;</text>
</a>
</g>
</g>
<!-- pessoa&#45;&gt;municipio -->
<g id="edge6" class="edge">
<title>pessoa:w&#45;&gt;municipio:e</title>
<path fill="none" stroke="#000000" d="M139.1891,-70.0482C122.4545,-82.3815 125.1146,-116.7 97.5,-116.7"/>
<polygon fill="#000000" stroke="#000000" points="145.8455,-68.0258 154.5466,-69.1445 149.6728,-66.8629 153.5,-65.7 153.5,-65.7 153.5,-65.7 149.6728,-66.8629 152.4534,-62.2555 145.8455,-68.0258 145.8455,-68.0258"/>
<ellipse fill="none" stroke="#000000" cx="142.7837" cy="-68.9561" rx="3.2" ry="3.2"/>
</g>
<!-- pessoa&#45;&gt;usuario -->
<g id="edge7" class="edge">
<title>pessoa:w&#45;&gt;usuario:e</title>
<path fill="none" stroke="#000000" d="M143.0486,-66.9108C85.5591,-81.7354 165.5283,-227.7 92.5,-227.7"/>
<polygon fill="#000000" stroke="#000000" points="152.2449,-61.8187 153.1657,-69.7655 151.5763,-69.9496 150.6556,-62.0028 152.2449,-61.8187"/>
<polyline fill="none" stroke="#000000" points="153.5,-65.7 149.5266,-66.1604 "/>
<ellipse fill="none" stroke="#000000" cx="146.3478" cy="-66.5287" rx="3.2" ry="3.2"/>
</g>
<!-- pessoa_interessa_animal -->
<g id="node8" class="node">
<title>pessoa_interessa_animal</title>
<g id="a_node8"><a xlink:href="../../tables/pessoa_interessa_animal.html" xlink:title="pessoa_interessa_animal" target="_top">
<polygon fill="#ffffff" stroke="transparent" points="549,-70.2 549,-197.2 716,-197.2 716,-70.2 549,-70.2"/>
<polygon fill="#f5f5f5" stroke="transparent" points="549.5,-173.7 549.5,-196.7 716.5,-196.7 716.5,-173.7 549.5,-173.7"/>
<polygon fill="none" stroke="#000000" points="549.5,-173.7 549.5,-196.7 716.5,-196.7 716.5,-173.7 549.5,-173.7"/>
<text text-anchor="start" x="554.1515" y="-182.8" font-family="Helvetica,sans-Serif" font-weight="bold" font-size="11.00" fill="#000000">pessoa_interessa_animal</text>
<text text-anchor="start" x="682.0219" y="-181.8" font-family="Helvetica,sans-Serif" font-size="11.00" fill="#000000">[table]</text>
<polygon fill="none" stroke="#000000" points="549.5,-151.7 549.5,-173.7 716.5,-173.7 716.5,-151.7 549.5,-151.7"/>
<image xlink:href="../../images/primaryKeys.png" width="11px" height="12px" preserveAspectRatio="xMinYMin meet" x="554.5" y="-168.7"/>
<text text-anchor="start" x="570.5" y="-158.8" font-family="Helvetica,sans-Serif" font-size="11.00" fill="#000000">id</text>
<polygon fill="#ffffff" stroke="transparent" points="549.5,-129.7 549.5,-151.7 716.5,-151.7 716.5,-129.7 549.5,-129.7"/>
<polygon fill="none" stroke="#000000" points="549.5,-129.7 549.5,-151.7 716.5,-151.7 716.5,-129.7 549.5,-129.7"/>
<image xlink:href="../../images/foreignKeys.png" width="11px" height="12px" preserveAspectRatio="xMinYMin meet" x="554.5" y="-146.7"/>
<text text-anchor="start" x="570.5" y="-136.8" font-family="Helvetica,sans-Serif" font-size="11.00" fill="#000000">pessoa_id</text>
<polygon fill="#ffffff" stroke="transparent" points="549.5,-107.7 549.5,-129.7 716.5,-129.7 716.5,-107.7 549.5,-107.7"/>
<polygon fill="none" stroke="#000000" points="549.5,-107.7 549.5,-129.7 716.5,-129.7 716.5,-107.7 549.5,-107.7"/>
<image xlink:href="../../images/foreignKeys.png" width="11px" height="12px" preserveAspectRatio="xMinYMin meet" x="554.5" y="-124.7"/>
<text text-anchor="start" x="570.5" y="-114.8" font-family="Helvetica,sans-Serif" font-size="11.00" fill="#000000">animal_id</text>
<polygon fill="none" stroke="#000000" points="549.5,-88.7 549.5,-107.7 716.5,-107.7 716.5,-88.7 549.5,-88.7"/>
<text text-anchor="start" x="552.5" y="-94.8" font-family="Helvetica,sans-Serif" font-size="11.00" fill="#000000">...</text>
<polygon fill="#ffffff" stroke="transparent" points="549.5,-69.7 549.5,-88.7 618.5,-88.7 618.5,-69.7 549.5,-69.7"/>
<polygon fill="none" stroke="#000000" points="549.5,-69.7 549.5,-88.7 618.5,-88.7 618.5,-69.7 549.5,-69.7"/>
<text text-anchor="start" x="552.5" y="-75.8" font-family="Helvetica,sans-Serif" font-size="11.00" fill="#000000">&lt; 2</text>
<polygon fill="#ffffff" stroke="transparent" points="618.5,-69.7 618.5,-88.7 680.5,-88.7 680.5,-69.7 618.5,-69.7"/>
<polygon fill="none" stroke="#000000" points="618.5,-69.7 618.5,-88.7 680.5,-88.7 680.5,-69.7 618.5,-69.7"/>
<text text-anchor="start" x="645.1105" y="-75.8" font-family="Helvetica,sans-Serif" font-size="11.00" fill="#000000">0 rows</text>
<polygon fill="#ffffff" stroke="transparent" points="680.5,-69.7 680.5,-88.7 716.5,-88.7 716.5,-69.7 680.5,-69.7"/>
<polygon fill="none" stroke="#000000" points="680.5,-69.7 680.5,-88.7 716.5,-88.7 716.5,-69.7 680.5,-69.7"/>
<text text-anchor="start" x="707.3862" y="-75.8" font-family="Helvetica,sans-Serif" font-size="11.00" fill="#000000"> &#160;</text>
</a>
</g>
</g>
<!-- pessoa_interessa_animal&#45;&gt;animal -->
<g id="edge8" class="edge">
<title>pessoa_interessa_animal:w&#45;&gt;animal:e</title>
<path fill="none" stroke="#000000" d="M535.0045,-120.6278C463.64,-142.4237 594.157,-341.7 498,-341.7"/>
<polygon fill="#000000" stroke="#000000" points="541.5698,-119.7547 549.9746,-122.2686 545.5349,-119.2274 549.5,-118.7 549.5,-118.7 549.5,-118.7 545.5349,-119.2274 549.0254,-115.1314 541.5698,-119.7547 541.5698,-119.7547"/>
<ellipse fill="none" stroke="#000000" cx="538.3978" cy="-120.1766" rx="3.2" ry="3.2"/>
</g>
<!-- pessoa_interessa_animal&#45;&gt;pessoa -->
<g id="edge9" class="edge">
<title>pessoa_interessa_animal:w&#45;&gt;pessoa:e</title>
<path fill="none" stroke="#000000" d="M535.4472,-136.0302C522.4765,-123.9721 531.233,-91.8218 508,-78.7 401.6529,-18.636 355.6367,-65.7 233.5,-65.7"/>
<polygon fill="#000000" stroke="#000000" points="541.9082,-138.1772 548.3647,-144.1163 545.7041,-139.4386 549.5,-140.7 549.5,-140.7 549.5,-140.7 545.7041,-139.4386 550.6353,-137.2837 541.9082,-138.1772 541.9082,-138.1772"/>
<ellipse fill="none" stroke="#000000" cx="538.8715" cy="-137.168" rx="3.2" ry="3.2"/>
</g>
</g>
</svg>
