<?xml version="1.0" encoding="UTF-8" standalone="no"?>
<!DOCTYPE svg PUBLIC "-//W3C//DTD SVG 1.1//EN"
 "http://www.w3.org/Graphics/SVG/1.1/DTD/svg11.dtd">
<!-- Generated by graphviz version 2.40.1 (20161225.0304)
 -->
<!-- Title: twoDegreesRelationshipsDiagram Pages: 1 -->
<svg width="574pt" height="245pt"
 viewBox="0.00 0.00 574.00 244.70" xmlns="http://www.w3.org/2000/svg" xmlns:xlink="http://www.w3.org/1999/xlink">
<g id="graph0" class="graph" transform="scale(1 1) rotate(0) translate(4 240.7)">
<title>twoDegreesRelationshipsDiagram</title>
<polygon fill="#ffffff" stroke="transparent" points="-4,4 -4,-240.7 570,-240.7 570,4 -4,4"/>
<text text-anchor="middle" x="72.4936" y="-7.3" font-family="Helvetica,sans-Serif" font-size="11.00" fill="#000000">Generated by SchemaSpy</text>
<!-- animal -->
<g id="node1" class="node">
<title>animal</title>
<g id="a_node1"><a xlink:href="../../tables/animal.html" xlink:title="animal" target="_top">
<polygon fill="#ffffff" stroke="transparent" points="148,-49.2 148,-154.2 287,-154.2 287,-49.2 148,-49.2"/>
<polygon fill="#f5f5f5" stroke="transparent" points="148.5,-130.7 148.5,-153.7 287.5,-153.7 287.5,-130.7 148.5,-130.7"/>
<polygon fill="none" stroke="#000000" points="148.5,-130.7 148.5,-153.7 287.5,-153.7 287.5,-130.7 148.5,-130.7"/>
<text text-anchor="start" x="153.5" y="-139.8" font-family="Helvetica,sans-Serif" font-weight="bold" font-size="11.00" fill="#000000">animal</text>
<text text-anchor="start" x="252.5437" y="-138.8" font-family="Helvetica,sans-Serif" font-size="11.00" fill="#000000">[table]</text>
<polygon fill="none" stroke="#000000" points="148.5,-108.7 148.5,-130.7 287.5,-130.7 287.5,-108.7 148.5,-108.7"/>
<image xlink:href="../../images/primaryKeys.png" width="11px" height="12px" preserveAspectRatio="xMinYMin meet" x="153.5" y="-125.7"/>
<text text-anchor="start" x="168.5" y="-115.8" font-family="Helvetica,sans-Serif" font-size="11.00" fill="#000000">id</text>
<polygon fill="none" stroke="#000000" points="148.5,-86.7 148.5,-108.7 287.5,-108.7 287.5,-86.7 148.5,-86.7"/>
<image xlink:href="../../images/foreignKeys.png" width="11px" height="12px" preserveAspectRatio="xMinYMin meet" x="153.5" y="-103.7"/>
<text text-anchor="start" x="168.5" y="-93.8" font-family="Helvetica,sans-Serif" font-size="11.00" fill="#000000">instituicao_id</text>
<polygon fill="none" stroke="#000000" points="148.5,-67.7 148.5,-86.7 287.5,-86.7 287.5,-67.7 148.5,-67.7"/>
<text text-anchor="start" x="151.5" y="-73.8" font-family="Helvetica,sans-Serif" font-size="11.00" fill="#000000">...</text>
<polygon fill="#ffffff" stroke="transparent" points="148.5,-48.7 148.5,-67.7 198.5,-67.7 198.5,-48.7 148.5,-48.7"/>
<polygon fill="none" stroke="#000000" points="148.5,-48.7 148.5,-67.7 198.5,-67.7 198.5,-48.7 148.5,-48.7"/>
<text text-anchor="start" x="151.5" y="-54.8" font-family="Helvetica,sans-Serif" font-size="11.00" fill="#000000">&lt; 1</text>
<polygon fill="#ffffff" stroke="transparent" points="198.5,-48.7 198.5,-67.7 251.5,-67.7 251.5,-48.7 198.5,-48.7"/>
<polygon fill="none" stroke="#000000" points="198.5,-48.7 198.5,-67.7 251.5,-67.7 251.5,-48.7 198.5,-48.7"/>
<text text-anchor="start" x="216.1105" y="-54.8" font-family="Helvetica,sans-Serif" font-size="11.00" fill="#000000">0 rows</text>
<polygon fill="#ffffff" stroke="transparent" points="251.5,-48.7 251.5,-67.7 287.5,-67.7 287.5,-48.7 251.5,-48.7"/>
<polygon fill="none" stroke="#000000" points="251.5,-48.7 251.5,-67.7 287.5,-67.7 287.5,-48.7 251.5,-48.7"/>
<text text-anchor="start" x="268.9053" y="-54.8" font-family="Helvetica,sans-Serif" font-size="11.00" fill="#000000">2 &gt;</text>
</a>
</g>
</g>
<!-- instituicao -->
<g id="node2" class="node">
<title>instituicao</title>
<g id="a_node2"><a xlink:href="../../tables/instituicao.html" xlink:title="instituicao" target="_top">
<polygon fill="#ffffff" stroke="transparent" points="8,-70.2 8,-131.2 99,-131.2 99,-70.2 8,-70.2"/>
<polygon fill="#f5f5f5" stroke="transparent" points="8.5,-107.7 8.5,-130.7 99.5,-130.7 99.5,-107.7 8.5,-107.7"/>
<polygon fill="none" stroke="#000000" points="8.5,-107.7 8.5,-130.7 99.5,-130.7 99.5,-107.7 8.5,-107.7"/>
<text text-anchor="start" x="13.052" y="-116.8" font-family="Helvetica,sans-Serif" font-weight="bold" font-size="11.00" fill="#000000">instituicao</text>
<text text-anchor="start" x="65.0219" y="-115.8" font-family="Helvetica,sans-Serif" font-size="11.00" fill="#000000">[table]</text>
<polygon fill="none" stroke="#000000" points="8.5,-88.7 8.5,-107.7 99.5,-107.7 99.5,-88.7 8.5,-88.7"/>
<text text-anchor="start" x="11.5" y="-94.8" font-family="Helvetica,sans-Serif" font-size="11.00" fill="#000000">...</text>
<polygon fill="#ffffff" stroke="transparent" points="8.5,-69.7 8.5,-88.7 34.5,-88.7 34.5,-69.7 8.5,-69.7"/>
<polygon fill="none" stroke="#000000" points="8.5,-69.7 8.5,-88.7 34.5,-88.7 34.5,-69.7 8.5,-69.7"/>
<text text-anchor="start" x="11.5" y="-75.8" font-family="Helvetica,sans-Serif" font-size="11.00" fill="#000000">&lt; 2</text>
<polygon fill="#ffffff" stroke="transparent" points="34.5,-69.7 34.5,-88.7 75.5,-88.7 75.5,-69.7 34.5,-69.7"/>
<polygon fill="none" stroke="#000000" points="34.5,-69.7 34.5,-88.7 75.5,-88.7 75.5,-69.7 34.5,-69.7"/>
<text text-anchor="start" x="40.1105" y="-75.8" font-family="Helvetica,sans-Serif" font-size="11.00" fill="#000000">0 rows</text>
<polygon fill="#ffffff" stroke="transparent" points="75.5,-69.7 75.5,-88.7 99.5,-88.7 99.5,-69.7 75.5,-69.7"/>
<polygon fill="none" stroke="#000000" points="75.5,-69.7 75.5,-88.7 99.5,-88.7 99.5,-69.7 75.5,-69.7"/>
<text text-anchor="start" x="80.9053" y="-75.8" font-family="Helvetica,sans-Serif" font-size="11.00" fill="#000000">2 &gt;</text>
</a>
</g>
</g>
<!-- animal&#45;&gt;instituicao -->
<g id="edge1" class="edge">
<title>animal:w&#45;&gt;instituicao:e</title>
<path fill="none" stroke="#000000" d="M133.9909,-97.7C122.6774,-97.7 115.4931,-97.7 99.5,-97.7"/>
<polygon fill="#000000" stroke="#000000" points="140.5,-97.7001 148.5,-101.3 144.5,-97.7 148.5,-97.7 148.5,-97.7 148.5,-97.7 144.5,-97.7 148.5,-94.1 140.5,-97.7001 140.5,-97.7001"/>
<ellipse fill="none" stroke="#000000" cx="137.3" cy="-97.7001" rx="3.2" ry="3.2"/>
</g>
<!-- arquivo_animal -->
<g id="node3" class="node">
<title>arquivo_animal</title>
<g id="a_node3"><a xlink:href="../../tables/arquivo_animal.html" xlink:title="arquivo_animal" target="_top">
<polygon fill="#ffffff" stroke="transparent" points="336,-120.7 336,-232.7 558,-232.7 558,-120.7 336,-120.7"/>
<polygon fill="#f5f5f5" stroke="transparent" points="338,-207.7 338,-230.7 556,-230.7 556,-207.7 338,-207.7"/>
<polygon fill="none" stroke="#000000" points="338,-207.7 338,-230.7 556,-230.7 556,-207.7 338,-207.7"/>
<text text-anchor="start" x="343" y="-216.8" font-family="Helvetica,sans-Serif" font-weight="bold" font-size="11.00" fill="#000000">arquivo_animal</text>
<text text-anchor="start" x="521.0437" y="-215.8" font-family="Helvetica,sans-Serif" font-size="11.00" fill="#000000">[table]</text>
<polygon fill="none" stroke="#000000" points="338,-185.7 338,-207.7 447,-207.7 447,-185.7 338,-185.7"/>
<image xlink:href="../../images/primaryKeys.png" width="11px" height="12px" preserveAspectRatio="xMinYMin meet" x="343" y="-202.7"/>
<text text-anchor="start" x="358" y="-192.8" font-family="Helvetica,sans-Serif" font-size="11.00" fill="#000000">id</text>
<polygon fill="none" stroke="#000000" points="447,-185.7 447,-207.7 556,-207.7 556,-185.7 447,-185.7"/>
<text text-anchor="start" x="450" y="-193.4" font-family="Helvetica,sans-Serif" font-size="11.00" fill="#000000">bigserial[19]</text>
<polygon fill="none" stroke="#000000" points="338,-163.7 338,-185.7 447,-185.7 447,-163.7 338,-163.7"/>
<image xlink:href="../../images/foreignKeys.png" width="11px" height="12px" preserveAspectRatio="xMinYMin meet" x="343" y="-180.7"/>
<text text-anchor="start" x="358" y="-170.8" font-family="Helvetica,sans-Serif" font-size="11.00" fill="#000000">animal_id</text>
<polygon fill="none" stroke="#000000" points="447,-163.7 447,-185.7 556,-185.7 556,-163.7 447,-163.7"/>
<text text-anchor="start" x="450" y="-171.4" font-family="Helvetica,sans-Serif" font-size="11.00" fill="#000000">int4[10]</text>
<polygon fill="none" stroke="#000000" points="338,-141.7 338,-163.7 447,-163.7 447,-141.7 338,-141.7"/>
<text text-anchor="start" x="358" y="-148.8" font-family="Helvetica,sans-Serif" font-size="11.00" fill="#000000">fotos</text>
<polygon fill="none" stroke="#000000" points="447,-141.7 447,-163.7 556,-163.7 556,-141.7 447,-141.7"/>
<text text-anchor="start" x="449.5344" y="-149.4" font-family="Helvetica,sans-Serif" font-size="11.00" fill="#000000">varchar[2147483647]</text>
<polygon fill="#ffffff" stroke="transparent" points="338,-122.7 338,-141.7 384,-141.7 384,-122.7 338,-122.7"/>
<polygon fill="none" stroke="#000000" points="338,-122.7 338,-141.7 384,-141.7 384,-122.7 338,-122.7"/>
<text text-anchor="start" x="341" y="-128.8" font-family="Helvetica,sans-Serif" font-size="11.00" fill="#000000">&lt; 1</text>
<polygon fill="#ffffff" stroke="transparent" points="384,-122.7 384,-141.7 447,-141.7 447,-122.7 384,-122.7"/>
<polygon fill="none" stroke="#000000" points="384,-122.7 384,-141.7 447,-141.7 447,-122.7 384,-122.7"/>
<text text-anchor="start" x="411.6105" y="-128.8" font-family="Helvetica,sans-Serif" font-size="11.00" fill="#000000">0 rows</text>
<polygon fill="#ffffff" stroke="transparent" points="447,-122.7 447,-141.7 556,-141.7 556,-122.7 447,-122.7"/>
<polygon fill="none" stroke="#000000" points="447,-122.7 447,-141.7 556,-141.7 556,-122.7 447,-122.7"/>
<text text-anchor="start" x="537.4053" y="-128.8" font-family="Helvetica,sans-Serif" font-size="11.00" fill="#000000">0 &gt;</text>
<polygon fill="none" stroke="#000000" stroke-width="2" points="337,-121.7 337,-231.7 557,-231.7 557,-121.7 337,-121.7"/>
</a>
</g>
</g>
<!-- arquivo_animal&#45;&gt;animal -->
<g id="edge2" class="edge">
<title>arquivo_animal:w&#45;&gt;animal:e</title>
<path fill="none" stroke="#000000" d="M324.2934,-170.0107C308.9342,-156.7102 314.7226,-119.7 287.5,-119.7"/>
<polygon fill="#000000" stroke="#000000" points="330.4307,-172.1104 336.8347,-178.1062 334.2154,-173.4052 338,-174.7 338,-174.7 338,-174.7 334.2154,-173.4052 339.1653,-171.2938 330.4307,-172.1104 330.4307,-172.1104"/>
<ellipse fill="none" stroke="#000000" cx="327.403" cy="-171.0745" rx="3.2" ry="3.2"/>
</g>
<!-- pessoa_interessa_animal -->
<g id="node4" class="node">
<title>pessoa_interessa_animal</title>
<g id="a_node4"><a xlink:href="../../tables/pessoa_interessa_animal.html" xlink:title="pessoa_interessa_animal" target="_top">
<polygon fill="#ffffff" stroke="transparent" points="363.5,-38.2 363.5,-99.2 530.5,-99.2 530.5,-38.2 363.5,-38.2"/>
<polygon fill="#f5f5f5" stroke="transparent" points="364,-75.7 364,-98.7 531,-98.7 531,-75.7 364,-75.7"/>
<polygon fill="none" stroke="#000000" points="364,-75.7 364,-98.7 531,-98.7 531,-75.7 364,-75.7"/>
<text text-anchor="start" x="368.6515" y="-84.8" font-family="Helvetica,sans-Serif" font-weight="bold" font-size="11.00" fill="#000000">pessoa_interessa_animal</text>
<text text-anchor="start" x="496.5219" y="-83.8" font-family="Helvetica,sans-Serif" font-size="11.00" fill="#000000">[table]</text>
<polygon fill="none" stroke="#000000" points="364,-56.7 364,-75.7 531,-75.7 531,-56.7 364,-56.7"/>
<text text-anchor="start" x="367" y="-62.8" font-family="Helvetica,sans-Serif" font-size="11.00" fill="#000000">...</text>
<polygon fill="#ffffff" stroke="transparent" points="364,-37.7 364,-56.7 433,-56.7 433,-37.7 364,-37.7"/>
<polygon fill="none" stroke="#000000" points="364,-37.7 364,-56.7 433,-56.7 433,-37.7 364,-37.7"/>
<text text-anchor="start" x="367" y="-43.8" font-family="Helvetica,sans-Serif" font-size="11.00" fill="#000000">&lt; 2</text>
<polygon fill="#ffffff" stroke="transparent" points="433,-37.7 433,-56.7 495,-56.7 495,-37.7 433,-37.7"/>
<polygon fill="none" stroke="#000000" points="433,-37.7 433,-56.7 495,-56.7 495,-37.7 433,-37.7"/>
<text text-anchor="start" x="459.6105" y="-43.8" font-family="Helvetica,sans-Serif" font-size="11.00" fill="#000000">0 rows</text>
<polygon fill="#ffffff" stroke="transparent" points="495,-37.7 495,-56.7 531,-56.7 531,-37.7 495,-37.7"/>
<polygon fill="none" stroke="#000000" points="495,-37.7 495,-56.7 531,-56.7 531,-37.7 495,-37.7"/>
<text text-anchor="start" x="521.8862" y="-43.8" font-family="Helvetica,sans-Serif" font-size="11.00" fill="#000000"> &#160;</text>
</a>
</g>
</g>
<!-- pessoa_interessa_animal&#45;&gt;animal -->
<g id="edge3" class="edge">
<title>pessoa_interessa_animal:w&#45;&gt;animal:e</title>
<path fill="none" stroke="#000000" d="M349.7502,-68.3045C323.3187,-79.0912 323.59,-119.7 287.5,-119.7"/>
<polygon fill="#000000" stroke="#000000" points="356.1304,-67.1384 364.6473,-69.2413 360.0652,-66.4192 364,-65.7 364,-65.7 364,-65.7 360.0652,-66.4192 363.3527,-62.1587 356.1304,-67.1384 356.1304,-67.1384"/>
<ellipse fill="none" stroke="#000000" cx="352.9825" cy="-67.7138" rx="3.2" ry="3.2"/>
</g>
</g>
</svg>
