<?xml version="1.0" encoding="UTF-8" standalone="no"?>
<!DOCTYPE svg PUBLIC "-//W3C//DTD SVG 1.1//EN"
 "http://www.w3.org/Graphics/SVG/1.1/DTD/svg11.dtd">
<!-- Generated by graphviz version 2.40.1 (20161225.0304)
 -->
<!-- Title: twoDegreesRelationshipsDiagram Pages: 1 -->
<svg width="554pt" height="327pt"
 viewBox="0.00 0.00 554.00 326.70" xmlns="http://www.w3.org/2000/svg" xmlns:xlink="http://www.w3.org/1999/xlink">
<g id="graph0" class="graph" transform="scale(1 1) rotate(0) translate(4 322.7)">
<title>twoDegreesRelationshipsDiagram</title>
<polygon fill="#ffffff" stroke="transparent" points="-4,4 -4,-322.7 550,-322.7 550,4 -4,4"/>
<text text-anchor="middle" x="72.4936" y="-7.3" font-family="Helvetica,sans-Serif" font-size="11.00" fill="#000000">Generated by SchemaSpy</text>
<!-- arquivo_campanha -->
<g id="node1" class="node">
<title>arquivo_campanha</title>
<g id="a_node1"><a xlink:href="../../tables/arquivo_campanha.html" xlink:title="arquivo_campanha" target="_top">
<polygon fill="#ffffff" stroke="transparent" points="295,-202.7 295,-314.7 538,-314.7 538,-202.7 295,-202.7"/>
<polygon fill="#f5f5f5" stroke="transparent" points="297.5,-289.7 297.5,-312.7 536.5,-312.7 536.5,-289.7 297.5,-289.7"/>
<polygon fill="none" stroke="#000000" points="297.5,-289.7 297.5,-312.7 536.5,-312.7 536.5,-289.7 297.5,-289.7"/>
<text text-anchor="start" x="302.5" y="-298.8" font-family="Helvetica,sans-Serif" font-weight="bold" font-size="11.00" fill="#000000">arquivo_campanha</text>
<text text-anchor="start" x="501.5437" y="-297.8" font-family="Helvetica,sans-Serif" font-size="11.00" fill="#000000">[table]</text>
<polygon fill="none" stroke="#000000" points="297.5,-267.7 297.5,-289.7 427.5,-289.7 427.5,-267.7 297.5,-267.7"/>
<image xlink:href="../../images/primaryKeys.png" width="11px" height="12px" preserveAspectRatio="xMinYMin meet" x="302.5" y="-284.7"/>
<text text-anchor="start" x="317.5" y="-274.8" font-family="Helvetica,sans-Serif" font-size="11.00" fill="#000000">id</text>
<polygon fill="none" stroke="#000000" points="427.5,-267.7 427.5,-289.7 536.5,-289.7 536.5,-267.7 427.5,-267.7"/>
<text text-anchor="start" x="430.5" y="-275.4" font-family="Helvetica,sans-Serif" font-size="11.00" fill="#000000">bigserial[19]</text>
<polygon fill="none" stroke="#000000" points="297.5,-245.7 297.5,-267.7 427.5,-267.7 427.5,-245.7 297.5,-245.7"/>
<image xlink:href="../../images/foreignKeys.png" width="11px" height="12px" preserveAspectRatio="xMinYMin meet" x="302.5" y="-262.7"/>
<text text-anchor="start" x="317.5" y="-252.8" font-family="Helvetica,sans-Serif" font-size="11.00" fill="#000000">campanha_id</text>
<polygon fill="none" stroke="#000000" points="427.5,-245.7 427.5,-267.7 536.5,-267.7 536.5,-245.7 427.5,-245.7"/>
<text text-anchor="start" x="430.5" y="-253.4" font-family="Helvetica,sans-Serif" font-size="11.00" fill="#000000">int4[10]</text>
<polygon fill="none" stroke="#000000" points="297.5,-223.7 297.5,-245.7 427.5,-245.7 427.5,-223.7 297.5,-223.7"/>
<text text-anchor="start" x="317.5" y="-230.8" font-family="Helvetica,sans-Serif" font-size="11.00" fill="#000000">fotos</text>
<polygon fill="none" stroke="#000000" points="427.5,-223.7 427.5,-245.7 536.5,-245.7 536.5,-223.7 427.5,-223.7"/>
<text text-anchor="start" x="430.0344" y="-231.4" font-family="Helvetica,sans-Serif" font-size="11.00" fill="#000000">varchar[2147483647]</text>
<polygon fill="#ffffff" stroke="transparent" points="297.5,-204.7 297.5,-223.7 353.5,-223.7 353.5,-204.7 297.5,-204.7"/>
<polygon fill="none" stroke="#000000" points="297.5,-204.7 297.5,-223.7 353.5,-223.7 353.5,-204.7 297.5,-204.7"/>
<text text-anchor="start" x="300.5" y="-210.8" font-family="Helvetica,sans-Serif" font-size="11.00" fill="#000000">&lt; 1</text>
<polygon fill="#ffffff" stroke="transparent" points="353.5,-204.7 353.5,-223.7 427.5,-223.7 427.5,-204.7 353.5,-204.7"/>
<polygon fill="none" stroke="#000000" points="353.5,-204.7 353.5,-223.7 427.5,-223.7 427.5,-204.7 353.5,-204.7"/>
<text text-anchor="start" x="392.1105" y="-210.8" font-family="Helvetica,sans-Serif" font-size="11.00" fill="#000000">0 rows</text>
<polygon fill="#ffffff" stroke="transparent" points="427.5,-204.7 427.5,-223.7 536.5,-223.7 536.5,-204.7 427.5,-204.7"/>
<polygon fill="none" stroke="#000000" points="427.5,-204.7 427.5,-223.7 536.5,-223.7 536.5,-204.7 427.5,-204.7"/>
<text text-anchor="start" x="517.9053" y="-210.8" font-family="Helvetica,sans-Serif" font-size="11.00" fill="#000000">0 &gt;</text>
<polygon fill="none" stroke="#000000" stroke-width="2" points="296,-203.7 296,-313.7 537,-313.7 537,-203.7 296,-203.7"/>
</a>
</g>
</g>
<!-- campanha -->
<g id="node2" class="node">
<title>campanha</title>
<g id="a_node2"><a xlink:href="../../tables/campanha.html" xlink:title="campanha" target="_top">
<polygon fill="#ffffff" stroke="transparent" points="148,-77.2 148,-182.2 246,-182.2 246,-77.2 148,-77.2"/>
<polygon fill="#f5f5f5" stroke="transparent" points="148,-158.7 148,-181.7 246,-181.7 246,-158.7 148,-158.7"/>
<polygon fill="none" stroke="#000000" points="148,-158.7 148,-181.7 246,-181.7 246,-158.7 148,-158.7"/>
<text text-anchor="start" x="153" y="-167.8" font-family="Helvetica,sans-Serif" font-weight="bold" font-size="11.00" fill="#000000">campanha</text>
<text text-anchor="start" x="211.0437" y="-166.8" font-family="Helvetica,sans-Serif" font-size="11.00" fill="#000000">[table]</text>
<polygon fill="none" stroke="#000000" points="148,-136.7 148,-158.7 246,-158.7 246,-136.7 148,-136.7"/>
<image xlink:href="../../images/primaryKeys.png" width="11px" height="12px" preserveAspectRatio="xMinYMin meet" x="153" y="-153.7"/>
<text text-anchor="start" x="168" y="-143.8" font-family="Helvetica,sans-Serif" font-size="11.00" fill="#000000">id</text>
<polygon fill="none" stroke="#000000" points="148,-114.7 148,-136.7 246,-136.7 246,-114.7 148,-114.7"/>
<image xlink:href="../../images/foreignKeys.png" width="11px" height="12px" preserveAspectRatio="xMinYMin meet" x="153" y="-131.7"/>
<text text-anchor="start" x="168" y="-121.8" font-family="Helvetica,sans-Serif" font-size="11.00" fill="#000000">instituicao_id</text>
<polygon fill="none" stroke="#000000" points="148,-95.7 148,-114.7 246,-114.7 246,-95.7 148,-95.7"/>
<text text-anchor="start" x="151" y="-101.8" font-family="Helvetica,sans-Serif" font-size="11.00" fill="#000000">...</text>
<polygon fill="#ffffff" stroke="transparent" points="148,-76.7 148,-95.7 178,-95.7 178,-76.7 148,-76.7"/>
<polygon fill="none" stroke="#000000" points="148,-76.7 148,-95.7 178,-95.7 178,-76.7 148,-76.7"/>
<text text-anchor="start" x="151" y="-82.8" font-family="Helvetica,sans-Serif" font-size="11.00" fill="#000000">&lt; 1</text>
<polygon fill="#ffffff" stroke="transparent" points="178,-76.7 178,-95.7 220,-95.7 220,-76.7 178,-76.7"/>
<polygon fill="none" stroke="#000000" points="178,-76.7 178,-95.7 220,-95.7 220,-76.7 178,-76.7"/>
<text text-anchor="start" x="184.6105" y="-82.8" font-family="Helvetica,sans-Serif" font-size="11.00" fill="#000000">0 rows</text>
<polygon fill="#ffffff" stroke="transparent" points="220,-76.7 220,-95.7 246,-95.7 246,-76.7 220,-76.7"/>
<polygon fill="none" stroke="#000000" points="220,-76.7 220,-95.7 246,-95.7 246,-76.7 220,-76.7"/>
<text text-anchor="start" x="227.4053" y="-82.8" font-family="Helvetica,sans-Serif" font-size="11.00" fill="#000000">3 &gt;</text>
</a>
</g>
</g>
<!-- arquivo_campanha&#45;&gt;campanha -->
<g id="edge1" class="edge">
<title>arquivo_campanha:w&#45;&gt;campanha:e</title>
<path fill="none" stroke="#000000" d="M283.5538,-253.0734C254.7891,-234.1602 293.7193,-147.7 246,-147.7"/>
<polygon fill="#000000" stroke="#000000" points="289.7575,-254.6866 296.594,-260.1841 293.6288,-255.6933 297.5,-256.7 297.5,-256.7 297.5,-256.7 293.6288,-255.6933 298.406,-253.2159 289.7575,-254.6866 289.7575,-254.6866"/>
<ellipse fill="none" stroke="#000000" cx="286.6605" cy="-253.8812" rx="3.2" ry="3.2"/>
</g>
<!-- instituicao -->
<g id="node3" class="node">
<title>instituicao</title>
<g id="a_node3"><a xlink:href="../../tables/instituicao.html" xlink:title="instituicao" target="_top">
<polygon fill="#ffffff" stroke="transparent" points="8,-98.2 8,-159.2 99,-159.2 99,-98.2 8,-98.2"/>
<polygon fill="#f5f5f5" stroke="transparent" points="8.5,-135.7 8.5,-158.7 99.5,-158.7 99.5,-135.7 8.5,-135.7"/>
<polygon fill="none" stroke="#000000" points="8.5,-135.7 8.5,-158.7 99.5,-158.7 99.5,-135.7 8.5,-135.7"/>
<text text-anchor="start" x="13.052" y="-144.8" font-family="Helvetica,sans-Serif" font-weight="bold" font-size="11.00" fill="#000000">instituicao</text>
<text text-anchor="start" x="65.0219" y="-143.8" font-family="Helvetica,sans-Serif" font-size="11.00" fill="#000000">[table]</text>
<polygon fill="none" stroke="#000000" points="8.5,-116.7 8.5,-135.7 99.5,-135.7 99.5,-116.7 8.5,-116.7"/>
<text text-anchor="start" x="11.5" y="-122.8" font-family="Helvetica,sans-Serif" font-size="11.00" fill="#000000">...</text>
<polygon fill="#ffffff" stroke="transparent" points="8.5,-97.7 8.5,-116.7 34.5,-116.7 34.5,-97.7 8.5,-97.7"/>
<polygon fill="none" stroke="#000000" points="8.5,-97.7 8.5,-116.7 34.5,-116.7 34.5,-97.7 8.5,-97.7"/>
<text text-anchor="start" x="11.5" y="-103.8" font-family="Helvetica,sans-Serif" font-size="11.00" fill="#000000">&lt; 2</text>
<polygon fill="#ffffff" stroke="transparent" points="34.5,-97.7 34.5,-116.7 75.5,-116.7 75.5,-97.7 34.5,-97.7"/>
<polygon fill="none" stroke="#000000" points="34.5,-97.7 34.5,-116.7 75.5,-116.7 75.5,-97.7 34.5,-97.7"/>
<text text-anchor="start" x="40.1105" y="-103.8" font-family="Helvetica,sans-Serif" font-size="11.00" fill="#000000">0 rows</text>
<polygon fill="#ffffff" stroke="transparent" points="75.5,-97.7 75.5,-116.7 99.5,-116.7 99.5,-97.7 75.5,-97.7"/>
<polygon fill="none" stroke="#000000" points="75.5,-97.7 75.5,-116.7 99.5,-116.7 99.5,-97.7 75.5,-97.7"/>
<text text-anchor="start" x="80.9053" y="-103.8" font-family="Helvetica,sans-Serif" font-size="11.00" fill="#000000">2 &gt;</text>
</a>
</g>
</g>
<!-- campanha&#45;&gt;instituicao -->
<g id="edge2" class="edge">
<title>campanha:w&#45;&gt;instituicao:e</title>
<path fill="none" stroke="#000000" d="M133.2829,-125.7C122.2886,-125.7 115.1615,-125.7 99.5,-125.7"/>
<polygon fill="#000000" stroke="#000000" points="140,-125.7001 148,-129.3 144,-125.7 148,-125.7 148,-125.7 148,-125.7 144,-125.7 148,-122.1 140,-125.7001 140,-125.7001"/>
<ellipse fill="none" stroke="#000000" cx="136.8" cy="-125.7001" rx="3.2" ry="3.2"/>
</g>
<!-- formulario -->
<g id="node4" class="node">
<title>formulario</title>
<g id="a_node4"><a xlink:href="../../tables/formulario.html" xlink:title="formulario" target="_top">
<polygon fill="#ffffff" stroke="transparent" points="371,-120.2 371,-181.2 462,-181.2 462,-120.2 371,-120.2"/>
<polygon fill="#f5f5f5" stroke="transparent" points="371.5,-157.7 371.5,-180.7 462.5,-180.7 462.5,-157.7 371.5,-157.7"/>
<polygon fill="none" stroke="#000000" points="371.5,-157.7 371.5,-180.7 462.5,-180.7 462.5,-157.7 371.5,-157.7"/>
<text text-anchor="start" x="376.058" y="-166.8" font-family="Helvetica,sans-Serif" font-weight="bold" font-size="11.00" fill="#000000">formulario</text>
<text text-anchor="start" x="428.0219" y="-165.8" font-family="Helvetica,sans-Serif" font-size="11.00" fill="#000000">[table]</text>
<polygon fill="none" stroke="#000000" points="371.5,-138.7 371.5,-157.7 462.5,-157.7 462.5,-138.7 371.5,-138.7"/>
<text text-anchor="start" x="374.5" y="-144.8" font-family="Helvetica,sans-Serif" font-size="11.00" fill="#000000">...</text>
<polygon fill="#ffffff" stroke="transparent" points="371.5,-119.7 371.5,-138.7 402.5,-138.7 402.5,-119.7 371.5,-119.7"/>
<polygon fill="none" stroke="#000000" points="371.5,-119.7 371.5,-138.7 402.5,-138.7 402.5,-119.7 371.5,-119.7"/>
<text text-anchor="start" x="374.5" y="-125.8" font-family="Helvetica,sans-Serif" font-size="11.00" fill="#000000">&lt; 1</text>
<polygon fill="#ffffff" stroke="transparent" points="402.5,-119.7 402.5,-138.7 445.5,-138.7 445.5,-119.7 402.5,-119.7"/>
<polygon fill="none" stroke="#000000" points="402.5,-119.7 402.5,-138.7 445.5,-138.7 445.5,-119.7 402.5,-119.7"/>
<text text-anchor="start" x="410.1105" y="-125.8" font-family="Helvetica,sans-Serif" font-size="11.00" fill="#000000">0 rows</text>
<polygon fill="#ffffff" stroke="transparent" points="445.5,-119.7 445.5,-138.7 462.5,-138.7 462.5,-119.7 445.5,-119.7"/>
<polygon fill="none" stroke="#000000" points="445.5,-119.7 445.5,-138.7 462.5,-138.7 462.5,-119.7 445.5,-119.7"/>
<text text-anchor="start" x="453.3862" y="-125.8" font-family="Helvetica,sans-Serif" font-size="11.00" fill="#000000"> &#160;</text>
</a>
</g>
</g>
<!-- formulario&#45;&gt;campanha -->
<g id="edge3" class="edge">
<title>formulario:w&#45;&gt;campanha:e</title>
<path fill="none" stroke="#000000" d="M356.8466,-147.7C312.74,-147.7 296.5486,-147.7 246,-147.7"/>
<polygon fill="#000000" stroke="#000000" points="363.5,-147.7001 371.5,-151.3 367.5,-147.7 371.5,-147.7 371.5,-147.7 371.5,-147.7 367.5,-147.7 371.5,-144.1 363.5,-147.7001 363.5,-147.7001"/>
<ellipse fill="none" stroke="#000000" cx="360.3" cy="-147.7001" rx="3.2" ry="3.2"/>
</g>
<!-- pessoa_cadastra_campanha -->
<g id="node5" class="node">
<title>pessoa_cadastra_campanha</title>
<g id="a_node5"><a xlink:href="../../tables/pessoa_cadastra_campanha.html" xlink:title="pessoa_cadastra_campanha" target="_top">
<polygon fill="#ffffff" stroke="transparent" points="324.5,-38.2 324.5,-99.2 508.5,-99.2 508.5,-38.2 324.5,-38.2"/>
<polygon fill="#f5f5f5" stroke="transparent" points="324.5,-75.7 324.5,-98.7 508.5,-98.7 508.5,-75.7 324.5,-75.7"/>
<polygon fill="none" stroke="#000000" points="324.5,-75.7 324.5,-98.7 508.5,-98.7 508.5,-75.7 324.5,-75.7"/>
<text text-anchor="start" x="329.3905" y="-84.8" font-family="Helvetica,sans-Serif" font-weight="bold" font-size="11.00" fill="#000000">pessoa_cadastra_campanha</text>
<text text-anchor="start" x="474.0219" y="-83.8" font-family="Helvetica,sans-Serif" font-size="11.00" fill="#000000">[table]</text>
<polygon fill="none" stroke="#000000" points="324.5,-56.7 324.5,-75.7 508.5,-75.7 508.5,-56.7 324.5,-56.7"/>
<text text-anchor="start" x="327.5" y="-62.8" font-family="Helvetica,sans-Serif" font-size="11.00" fill="#000000">...</text>
<polygon fill="#ffffff" stroke="transparent" points="324.5,-37.7 324.5,-56.7 401.5,-56.7 401.5,-37.7 324.5,-37.7"/>
<polygon fill="none" stroke="#000000" points="324.5,-37.7 324.5,-56.7 401.5,-56.7 401.5,-37.7 324.5,-37.7"/>
<text text-anchor="start" x="327.5" y="-43.8" font-family="Helvetica,sans-Serif" font-size="11.00" fill="#000000">&lt; 2</text>
<polygon fill="#ffffff" stroke="transparent" points="401.5,-37.7 401.5,-56.7 467.5,-56.7 467.5,-37.7 401.5,-37.7"/>
<polygon fill="none" stroke="#000000" points="401.5,-37.7 401.5,-56.7 467.5,-56.7 467.5,-37.7 401.5,-37.7"/>
<text text-anchor="start" x="432.1105" y="-43.8" font-family="Helvetica,sans-Serif" font-size="11.00" fill="#000000">0 rows</text>
<polygon fill="#ffffff" stroke="transparent" points="467.5,-37.7 467.5,-56.7 508.5,-56.7 508.5,-37.7 467.5,-37.7"/>
<polygon fill="none" stroke="#000000" points="467.5,-37.7 467.5,-56.7 508.5,-56.7 508.5,-37.7 467.5,-37.7"/>
<text text-anchor="start" x="499.3862" y="-43.8" font-family="Helvetica,sans-Serif" font-size="11.00" fill="#000000"> &#160;</text>
</a>
</g>
</g>
<!-- pessoa_cadastra_campanha&#45;&gt;campanha -->
<g id="edge4" class="edge">
<title>pessoa_cadastra_campanha:w&#45;&gt;campanha:e</title>
<path fill="none" stroke="#000000" d="M309.9471,-68.6184C278.1888,-83.2258 290.737,-147.7 246,-147.7"/>
<polygon fill="#000000" stroke="#000000" points="316.6562,-67.273 325.2079,-69.2297 320.5781,-66.4865 324.5,-65.7 324.5,-65.7 324.5,-65.7 320.5781,-66.4865 323.7921,-62.1703 316.6562,-67.273 316.6562,-67.273"/>
<ellipse fill="none" stroke="#000000" cx="313.5186" cy="-67.9023" rx="3.2" ry="3.2"/>
</g>
</g>
</svg>
