<?xml version="1.0" encoding="UTF-8" standalone="no"?>
<!DOCTYPE svg PUBLIC "-//W3C//DTD SVG 1.1//EN"
 "http://www.w3.org/Graphics/SVG/1.1/DTD/svg11.dtd">
<!-- Generated by graphviz version 2.40.1 (20161225.0304)
 -->
<!-- Title: twoDegreesRelationshipsDiagram Pages: 1 -->
<svg width="554pt" height="273pt"
 viewBox="0.00 0.00 554.00 272.70" xmlns="http://www.w3.org/2000/svg" xmlns:xlink="http://www.w3.org/1999/xlink">
<g id="graph0" class="graph" transform="scale(1 1) rotate(0) translate(4 268.7)">
<title>twoDegreesRelationshipsDiagram</title>
<polygon fill="#ffffff" stroke="transparent" points="-4,4 -4,-268.7 550,-268.7 550,4 -4,4"/>
<text text-anchor="middle" x="72.4936" y="-7.3" font-family="Helvetica,sans-Serif" font-size="11.00" fill="#000000">Generated by SchemaSpy</text>
<!-- arquivo_campanha -->
<g id="node1" class="node">
<title>arquivo_campanha</title>
<g id="a_node1"><a xlink:href="../../tables/arquivo_campanha.html" xlink:title="arquivo_campanha" target="_top">
<polygon fill="#ffffff" stroke="transparent" points="295,-148.7 295,-260.7 538,-260.7 538,-148.7 295,-148.7"/>
<polygon fill="#f5f5f5" stroke="transparent" points="297.5,-235.7 297.5,-258.7 536.5,-258.7 536.5,-235.7 297.5,-235.7"/>
<polygon fill="none" stroke="#000000" points="297.5,-235.7 297.5,-258.7 536.5,-258.7 536.5,-235.7 297.5,-235.7"/>
<text text-anchor="start" x="302.5" y="-244.8" font-family="Helvetica,sans-Serif" font-weight="bold" font-size="11.00" fill="#000000">arquivo_campanha</text>
<text text-anchor="start" x="501.5437" y="-243.8" font-family="Helvetica,sans-Serif" font-size="11.00" fill="#000000">[table]</text>
<polygon fill="none" stroke="#000000" points="297.5,-213.7 297.5,-235.7 427.5,-235.7 427.5,-213.7 297.5,-213.7"/>
<image xlink:href="../../images/primaryKeys.png" width="11px" height="12px" preserveAspectRatio="xMinYMin meet" x="302.5" y="-230.7"/>
<text text-anchor="start" x="317.5" y="-220.8" font-family="Helvetica,sans-Serif" font-size="11.00" fill="#000000">id</text>
<polygon fill="none" stroke="#000000" points="427.5,-213.7 427.5,-235.7 536.5,-235.7 536.5,-213.7 427.5,-213.7"/>
<text text-anchor="start" x="430.5" y="-221.4" font-family="Helvetica,sans-Serif" font-size="11.00" fill="#000000">bigserial[19]</text>
<polygon fill="none" stroke="#000000" points="297.5,-191.7 297.5,-213.7 427.5,-213.7 427.5,-191.7 297.5,-191.7"/>
<image xlink:href="../../images/foreignKeys.png" width="11px" height="12px" preserveAspectRatio="xMinYMin meet" x="302.5" y="-208.7"/>
<text text-anchor="start" x="317.5" y="-198.8" font-family="Helvetica,sans-Serif" font-size="11.00" fill="#000000">campanha_id</text>
<polygon fill="none" stroke="#000000" points="427.5,-191.7 427.5,-213.7 536.5,-213.7 536.5,-191.7 427.5,-191.7"/>
<text text-anchor="start" x="430.5" y="-199.4" font-family="Helvetica,sans-Serif" font-size="11.00" fill="#000000">int4[10]</text>
<polygon fill="none" stroke="#000000" points="297.5,-169.7 297.5,-191.7 427.5,-191.7 427.5,-169.7 297.5,-169.7"/>
<text text-anchor="start" x="317.5" y="-176.8" font-family="Helvetica,sans-Serif" font-size="11.00" fill="#000000">fotos</text>
<polygon fill="none" stroke="#000000" points="427.5,-169.7 427.5,-191.7 536.5,-191.7 536.5,-169.7 427.5,-169.7"/>
<text text-anchor="start" x="430.0344" y="-177.4" font-family="Helvetica,sans-Serif" font-size="11.00" fill="#000000">varchar[2147483647]</text>
<polygon fill="#ffffff" stroke="transparent" points="297.5,-150.7 297.5,-169.7 353.5,-169.7 353.5,-150.7 297.5,-150.7"/>
<polygon fill="none" stroke="#000000" points="297.5,-150.7 297.5,-169.7 353.5,-169.7 353.5,-150.7 297.5,-150.7"/>
<text text-anchor="start" x="300.5" y="-156.8" font-family="Helvetica,sans-Serif" font-size="11.00" fill="#000000">&lt; 1</text>
<polygon fill="#ffffff" stroke="transparent" points="353.5,-150.7 353.5,-169.7 427.5,-169.7 427.5,-150.7 353.5,-150.7"/>
<polygon fill="none" stroke="#000000" points="353.5,-150.7 353.5,-169.7 427.5,-169.7 427.5,-150.7 353.5,-150.7"/>
<text text-anchor="start" x="392.1105" y="-156.8" font-family="Helvetica,sans-Serif" font-size="11.00" fill="#000000">0 rows</text>
<polygon fill="#ffffff" stroke="transparent" points="427.5,-150.7 427.5,-169.7 536.5,-169.7 536.5,-150.7 427.5,-150.7"/>
<polygon fill="none" stroke="#000000" points="427.5,-150.7 427.5,-169.7 536.5,-169.7 536.5,-150.7 427.5,-150.7"/>
<text text-anchor="start" x="517.9053" y="-156.8" font-family="Helvetica,sans-Serif" font-size="11.00" fill="#000000">0 &gt;</text>
<polygon fill="none" stroke="#000000" stroke-width="2" points="296,-149.7 296,-259.7 537,-259.7 537,-149.7 296,-149.7"/>
</a>
</g>
</g>
<!-- campanha -->
<g id="node2" class="node">
<title>campanha</title>
<g id="a_node2"><a xlink:href="../../tables/campanha.html" xlink:title="campanha" target="_top">
<polygon fill="#ffffff" stroke="transparent" points="148,-55.2 148,-182.2 246,-182.2 246,-55.2 148,-55.2"/>
<polygon fill="#f5f5f5" stroke="transparent" points="148,-158.7 148,-181.7 246,-181.7 246,-158.7 148,-158.7"/>
<polygon fill="none" stroke="#000000" points="148,-158.7 148,-181.7 246,-181.7 246,-158.7 148,-158.7"/>
<text text-anchor="start" x="153" y="-167.8" font-family="Helvetica,sans-Serif" font-weight="bold" font-size="11.00" fill="#000000">campanha</text>
<text text-anchor="start" x="211.0437" y="-166.8" font-family="Helvetica,sans-Serif" font-size="11.00" fill="#000000">[table]</text>
<polygon fill="none" stroke="#000000" points="148,-136.7 148,-158.7 246,-158.7 246,-136.7 148,-136.7"/>
<image xlink:href="../../images/primaryKeys.png" width="11px" height="12px" preserveAspectRatio="xMinYMin meet" x="153" y="-153.7"/>
<text text-anchor="start" x="168" y="-143.8" font-family="Helvetica,sans-Serif" font-size="11.00" fill="#000000">id</text>
<polygon fill="none" stroke="#000000" points="148,-114.7 148,-136.7 246,-136.7 246,-114.7 148,-114.7"/>
<image xlink:href="../../images/foreignKeys.png" width="11px" height="12px" preserveAspectRatio="xMinYMin meet" x="153" y="-131.7"/>
<text text-anchor="start" x="168" y="-121.8" font-family="Helvetica,sans-Serif" font-size="11.00" fill="#000000">instituicao_id</text>
<polygon fill="none" stroke="#000000" points="148,-92.7 148,-114.7 246,-114.7 246,-92.7 148,-92.7"/>
<image xlink:href="../../images/foreignKeys.png" width="11px" height="12px" preserveAspectRatio="xMinYMin meet" x="153" y="-109.7"/>
<text text-anchor="start" x="168" y="-99.8" font-family="Helvetica,sans-Serif" font-size="11.00" fill="#000000">formulario_id</text>
<polygon fill="none" stroke="#000000" points="148,-73.7 148,-92.7 246,-92.7 246,-73.7 148,-73.7"/>
<text text-anchor="start" x="151" y="-79.8" font-family="Helvetica,sans-Serif" font-size="11.00" fill="#000000">...</text>
<polygon fill="#ffffff" stroke="transparent" points="148,-54.7 148,-73.7 178,-73.7 178,-54.7 148,-54.7"/>
<polygon fill="none" stroke="#000000" points="148,-54.7 148,-73.7 178,-73.7 178,-54.7 148,-54.7"/>
<text text-anchor="start" x="151" y="-60.8" font-family="Helvetica,sans-Serif" font-size="11.00" fill="#000000">&lt; 2</text>
<polygon fill="#ffffff" stroke="transparent" points="178,-54.7 178,-73.7 220,-73.7 220,-54.7 178,-54.7"/>
<polygon fill="none" stroke="#000000" points="178,-54.7 178,-73.7 220,-73.7 220,-54.7 178,-54.7"/>
<text text-anchor="start" x="184.6105" y="-60.8" font-family="Helvetica,sans-Serif" font-size="11.00" fill="#000000">0 rows</text>
<polygon fill="#ffffff" stroke="transparent" points="220,-54.7 220,-73.7 246,-73.7 246,-54.7 220,-54.7"/>
<polygon fill="none" stroke="#000000" points="220,-54.7 220,-73.7 246,-73.7 246,-54.7 220,-54.7"/>
<text text-anchor="start" x="227.4053" y="-60.8" font-family="Helvetica,sans-Serif" font-size="11.00" fill="#000000">3 &gt;</text>
</a>
</g>
</g>
<!-- arquivo_campanha&#45;&gt;campanha -->
<g id="edge1" class="edge">
<title>arquivo_campanha:w&#45;&gt;campanha:e</title>
<path fill="none" stroke="#000000" d="M283.6226,-198.0107C267.9928,-184.7102 273.4705,-147.7 246,-147.7"/>
<polygon fill="#000000" stroke="#000000" points="289.921,-200.139 296.3475,-206.1106 293.7105,-201.4195 297.5,-202.7 297.5,-202.7 297.5,-202.7 293.7105,-201.4195 298.6525,-199.2894 289.921,-200.139 289.921,-200.139"/>
<ellipse fill="none" stroke="#000000" cx="286.8894" cy="-199.1146" rx="3.2" ry="3.2"/>
</g>
<!-- formulario -->
<g id="node3" class="node">
<title>formulario</title>
<g id="a_node3"><a xlink:href="../../tables/formulario.html" xlink:title="formulario" target="_top">
<polygon fill="#ffffff" stroke="transparent" points="8,-120.2 8,-181.2 99,-181.2 99,-120.2 8,-120.2"/>
<polygon fill="#f5f5f5" stroke="transparent" points="8.5,-157.7 8.5,-180.7 99.5,-180.7 99.5,-157.7 8.5,-157.7"/>
<polygon fill="none" stroke="#000000" points="8.5,-157.7 8.5,-180.7 99.5,-180.7 99.5,-157.7 8.5,-157.7"/>
<text text-anchor="start" x="13.058" y="-166.8" font-family="Helvetica,sans-Serif" font-weight="bold" font-size="11.00" fill="#000000">formulario</text>
<text text-anchor="start" x="65.0219" y="-165.8" font-family="Helvetica,sans-Serif" font-size="11.00" fill="#000000">[table]</text>
<polygon fill="none" stroke="#000000" points="8.5,-138.7 8.5,-157.7 99.5,-157.7 99.5,-138.7 8.5,-138.7"/>
<text text-anchor="start" x="11.5" y="-144.8" font-family="Helvetica,sans-Serif" font-size="11.00" fill="#000000">...</text>
<polygon fill="#ffffff" stroke="transparent" points="8.5,-119.7 8.5,-138.7 34.5,-138.7 34.5,-119.7 8.5,-119.7"/>
<polygon fill="none" stroke="#000000" points="8.5,-119.7 8.5,-138.7 34.5,-138.7 34.5,-119.7 8.5,-119.7"/>
<text text-anchor="start" x="11.5" y="-125.8" font-family="Helvetica,sans-Serif" font-size="11.00" fill="#000000">&lt; 1</text>
<polygon fill="#ffffff" stroke="transparent" points="34.5,-119.7 34.5,-138.7 75.5,-138.7 75.5,-119.7 34.5,-119.7"/>
<polygon fill="none" stroke="#000000" points="34.5,-119.7 34.5,-138.7 75.5,-138.7 75.5,-119.7 34.5,-119.7"/>
<text text-anchor="start" x="40.1105" y="-125.8" font-family="Helvetica,sans-Serif" font-size="11.00" fill="#000000">0 rows</text>
<polygon fill="#ffffff" stroke="transparent" points="75.5,-119.7 75.5,-138.7 99.5,-138.7 99.5,-119.7 75.5,-119.7"/>
<polygon fill="none" stroke="#000000" points="75.5,-119.7 75.5,-138.7 99.5,-138.7 99.5,-119.7 75.5,-119.7"/>
<text text-anchor="start" x="80.9053" y="-125.8" font-family="Helvetica,sans-Serif" font-size="11.00" fill="#000000">1 &gt;</text>
</a>
</g>
</g>
<!-- campanha&#45;&gt;formulario -->
<g id="edge2" class="edge">
<title>campanha:w&#45;&gt;formulario:e</title>
<path fill="none" stroke="#000000" d="M134.0348,-108.7474C121.2645,-120.3047 122.4651,-147.7 99.5,-147.7"/>
<polygon fill="#000000" stroke="#000000" points="140.4763,-106.4193 149.2237,-107.0857 144.2382,-105.0596 148,-103.7 148,-103.7 148,-103.7 144.2382,-105.0596 146.7763,-100.3143 140.4763,-106.4193 140.4763,-106.4193"/>
<ellipse fill="none" stroke="#000000" cx="137.4668" cy="-107.507" rx="3.2" ry="3.2"/>
</g>
<!-- instituicao -->
<g id="node4" class="node">
<title>instituicao</title>
<g id="a_node4"><a xlink:href="../../tables/instituicao.html" xlink:title="instituicao" target="_top">
<polygon fill="#ffffff" stroke="transparent" points="8,-38.2 8,-99.2 99,-99.2 99,-38.2 8,-38.2"/>
<polygon fill="#f5f5f5" stroke="transparent" points="8.5,-75.7 8.5,-98.7 99.5,-98.7 99.5,-75.7 8.5,-75.7"/>
<polygon fill="none" stroke="#000000" points="8.5,-75.7 8.5,-98.7 99.5,-98.7 99.5,-75.7 8.5,-75.7"/>
<text text-anchor="start" x="13.052" y="-84.8" font-family="Helvetica,sans-Serif" font-weight="bold" font-size="11.00" fill="#000000">instituicao</text>
<text text-anchor="start" x="65.0219" y="-83.8" font-family="Helvetica,sans-Serif" font-size="11.00" fill="#000000">[table]</text>
<polygon fill="none" stroke="#000000" points="8.5,-56.7 8.5,-75.7 99.5,-75.7 99.5,-56.7 8.5,-56.7"/>
<text text-anchor="start" x="11.5" y="-62.8" font-family="Helvetica,sans-Serif" font-size="11.00" fill="#000000">...</text>
<polygon fill="#ffffff" stroke="transparent" points="8.5,-37.7 8.5,-56.7 34.5,-56.7 34.5,-37.7 8.5,-37.7"/>
<polygon fill="none" stroke="#000000" points="8.5,-37.7 8.5,-56.7 34.5,-56.7 34.5,-37.7 8.5,-37.7"/>
<text text-anchor="start" x="11.5" y="-43.8" font-family="Helvetica,sans-Serif" font-size="11.00" fill="#000000">&lt; 2</text>
<polygon fill="#ffffff" stroke="transparent" points="34.5,-37.7 34.5,-56.7 75.5,-56.7 75.5,-37.7 34.5,-37.7"/>
<polygon fill="none" stroke="#000000" points="34.5,-37.7 34.5,-56.7 75.5,-56.7 75.5,-37.7 34.5,-37.7"/>
<text text-anchor="start" x="40.1105" y="-43.8" font-family="Helvetica,sans-Serif" font-size="11.00" fill="#000000">0 rows</text>
<polygon fill="#ffffff" stroke="transparent" points="75.5,-37.7 75.5,-56.7 99.5,-56.7 99.5,-37.7 75.5,-37.7"/>
<polygon fill="none" stroke="#000000" points="75.5,-37.7 75.5,-56.7 99.5,-56.7 99.5,-37.7 75.5,-37.7"/>
<text text-anchor="start" x="80.9053" y="-43.8" font-family="Helvetica,sans-Serif" font-size="11.00" fill="#000000">2 &gt;</text>
</a>
</g>
</g>
<!-- campanha&#45;&gt;instituicao -->
<g id="edge3" class="edge">
<title>campanha:w&#45;&gt;instituicao:e</title>
<path fill="none" stroke="#000000" d="M134.1513,-120.5844C119.1711,-106.0748 127.6279,-65.7 99.5,-65.7"/>
<polygon fill="#000000" stroke="#000000" points="140.4956,-122.9279 146.7526,-129.077 144.2478,-124.314 148,-125.7 148,-125.7 148,-125.7 144.2478,-124.314 149.2474,-122.323 140.4956,-122.9279 140.4956,-122.9279"/>
<ellipse fill="none" stroke="#000000" cx="137.4939" cy="-121.8191" rx="3.2" ry="3.2"/>
</g>
<!-- formulario&#45;&gt;campanha -->
<g id="edge4" class="edge">
<title>formulario:w&#45;&gt;campanha:e</title>
<path fill="none" stroke="#000000" d="M22.6126,-143.1868C49.8488,-134.4768 107,-116.2 107,-116.2 136.0471,-134.6195 110.9529,-167.7805 140,-186.2 140,-186.2 246,-147.7 246,-147.7"/>
<polygon fill="#000000" stroke="#000000" points="16.1198,-145.2632 7.4034,-144.2711 12.3099,-146.4816 8.5,-147.7 8.5,-147.7 8.5,-147.7 12.3099,-146.4816 9.5966,-151.1289 16.1198,-145.2632 16.1198,-145.2632"/>
<ellipse fill="none" stroke="#000000" cx="19.1678" cy="-144.2884" rx="3.2" ry="3.2"/>
</g>
<!-- pessoa_cadastra_campanha -->
<g id="node5" class="node">
<title>pessoa_cadastra_campanha</title>
<g id="a_node5"><a xlink:href="../../tables/pessoa_cadastra_campanha.html" xlink:title="pessoa_cadastra_campanha" target="_top">
<polygon fill="#ffffff" stroke="transparent" points="324.5,-66.2 324.5,-127.2 508.5,-127.2 508.5,-66.2 324.5,-66.2"/>
<polygon fill="#f5f5f5" stroke="transparent" points="324.5,-103.7 324.5,-126.7 508.5,-126.7 508.5,-103.7 324.5,-103.7"/>
<polygon fill="none" stroke="#000000" points="324.5,-103.7 324.5,-126.7 508.5,-126.7 508.5,-103.7 324.5,-103.7"/>
<text text-anchor="start" x="329.3905" y="-112.8" font-family="Helvetica,sans-Serif" font-weight="bold" font-size="11.00" fill="#000000">pessoa_cadastra_campanha</text>
<text text-anchor="start" x="474.0219" y="-111.8" font-family="Helvetica,sans-Serif" font-size="11.00" fill="#000000">[table]</text>
<polygon fill="none" stroke="#000000" points="324.5,-84.7 324.5,-103.7 508.5,-103.7 508.5,-84.7 324.5,-84.7"/>
<text text-anchor="start" x="327.5" y="-90.8" font-family="Helvetica,sans-Serif" font-size="11.00" fill="#000000">...</text>
<polygon fill="#ffffff" stroke="transparent" points="324.5,-65.7 324.5,-84.7 401.5,-84.7 401.5,-65.7 324.5,-65.7"/>
<polygon fill="none" stroke="#000000" points="324.5,-65.7 324.5,-84.7 401.5,-84.7 401.5,-65.7 324.5,-65.7"/>
<text text-anchor="start" x="327.5" y="-71.8" font-family="Helvetica,sans-Serif" font-size="11.00" fill="#000000">&lt; 2</text>
<polygon fill="#ffffff" stroke="transparent" points="401.5,-65.7 401.5,-84.7 467.5,-84.7 467.5,-65.7 401.5,-65.7"/>
<polygon fill="none" stroke="#000000" points="401.5,-65.7 401.5,-84.7 467.5,-84.7 467.5,-65.7 401.5,-65.7"/>
<text text-anchor="start" x="432.1105" y="-71.8" font-family="Helvetica,sans-Serif" font-size="11.00" fill="#000000">0 rows</text>
<polygon fill="#ffffff" stroke="transparent" points="467.5,-65.7 467.5,-84.7 508.5,-84.7 508.5,-65.7 467.5,-65.7"/>
<polygon fill="none" stroke="#000000" points="467.5,-65.7 467.5,-84.7 508.5,-84.7 508.5,-65.7 467.5,-65.7"/>
<text text-anchor="start" x="499.3862" y="-71.8" font-family="Helvetica,sans-Serif" font-size="11.00" fill="#000000"> &#160;</text>
</a>
</g>
</g>
<!-- pessoa_cadastra_campanha&#45;&gt;campanha -->
<g id="edge5" class="edge">
<title>pessoa_cadastra_campanha:w&#45;&gt;campanha:e</title>
<path fill="none" stroke="#000000" d="M309.9687,-96.3045C282.9423,-107.0912 282.7224,-147.7 246,-147.7"/>
<polygon fill="#000000" stroke="#000000" points="316.6255,-95.1114 325.1351,-97.2435 320.5627,-94.4057 324.5,-93.7 324.5,-93.7 324.5,-93.7 320.5627,-94.4057 323.8649,-90.1565 316.6255,-95.1114 316.6255,-95.1114"/>
<ellipse fill="none" stroke="#000000" cx="313.4757" cy="-95.676" rx="3.2" ry="3.2"/>
</g>
</g>
</svg>
