<?xml version="1.0" encoding="UTF-8" standalone="no"?>
<!DOCTYPE svg PUBLIC "-//W3C//DTD SVG 1.1//EN"
 "http://www.w3.org/Graphics/SVG/1.1/DTD/svg11.dtd">
<!-- Generated by graphviz version 2.40.1 (20161225.0304)
 -->
<!-- Title: oneDegreeRelationshipsDiagram Pages: 1 -->
<svg width="414pt" height="201pt"
 viewBox="0.00 0.00 414.00 200.70" xmlns="http://www.w3.org/2000/svg" xmlns:xlink="http://www.w3.org/1999/xlink">
<g id="graph0" class="graph" transform="scale(1 1) rotate(0) translate(4 196.7)">
<title>oneDegreeRelationshipsDiagram</title>
<polygon fill="#ffffff" stroke="transparent" points="-4,4 -4,-196.7 410,-196.7 410,4 -4,4"/>
<text text-anchor="middle" x="72.4936" y="-7.3" font-family="Helvetica,sans-Serif" font-size="11.00" fill="#000000">Generated by SchemaSpy</text>
<!-- arquivo_campanha -->
<g id="node1" class="node">
<title>arquivo_campanha</title>
<g id="a_node1"><a xlink:href="../../tables/arquivo_campanha.html" xlink:title="arquivo_campanha" target="_top">
<polygon fill="#ffffff" stroke="transparent" points="155,-76.7 155,-188.7 398,-188.7 398,-76.7 155,-76.7"/>
<polygon fill="#f5f5f5" stroke="transparent" points="157.5,-163.7 157.5,-186.7 396.5,-186.7 396.5,-163.7 157.5,-163.7"/>
<polygon fill="none" stroke="#000000" points="157.5,-163.7 157.5,-186.7 396.5,-186.7 396.5,-163.7 157.5,-163.7"/>
<text text-anchor="start" x="162.5" y="-172.8" font-family="Helvetica,sans-Serif" font-weight="bold" font-size="11.00" fill="#000000">arquivo_campanha</text>
<text text-anchor="start" x="361.5437" y="-171.8" font-family="Helvetica,sans-Serif" font-size="11.00" fill="#000000">[table]</text>
<polygon fill="none" stroke="#000000" points="157.5,-141.7 157.5,-163.7 287.5,-163.7 287.5,-141.7 157.5,-141.7"/>
<image xlink:href="../../images/primaryKeys.png" width="11px" height="12px" preserveAspectRatio="xMinYMin meet" x="162.5" y="-158.7"/>
<text text-anchor="start" x="177.5" y="-148.8" font-family="Helvetica,sans-Serif" font-size="11.00" fill="#000000">id</text>
<polygon fill="none" stroke="#000000" points="287.5,-141.7 287.5,-163.7 396.5,-163.7 396.5,-141.7 287.5,-141.7"/>
<text text-anchor="start" x="290.5" y="-149.4" font-family="Helvetica,sans-Serif" font-size="11.00" fill="#000000">bigserial[19]</text>
<polygon fill="none" stroke="#000000" points="157.5,-119.7 157.5,-141.7 287.5,-141.7 287.5,-119.7 157.5,-119.7"/>
<image xlink:href="../../images/foreignKeys.png" width="11px" height="12px" preserveAspectRatio="xMinYMin meet" x="162.5" y="-136.7"/>
<text text-anchor="start" x="177.5" y="-126.8" font-family="Helvetica,sans-Serif" font-size="11.00" fill="#000000">campanha_id</text>
<polygon fill="none" stroke="#000000" points="287.5,-119.7 287.5,-141.7 396.5,-141.7 396.5,-119.7 287.5,-119.7"/>
<text text-anchor="start" x="290.5" y="-127.4" font-family="Helvetica,sans-Serif" font-size="11.00" fill="#000000">int4[10]</text>
<polygon fill="none" stroke="#000000" points="157.5,-97.7 157.5,-119.7 287.5,-119.7 287.5,-97.7 157.5,-97.7"/>
<text text-anchor="start" x="177.5" y="-104.8" font-family="Helvetica,sans-Serif" font-size="11.00" fill="#000000">fotos</text>
<polygon fill="none" stroke="#000000" points="287.5,-97.7 287.5,-119.7 396.5,-119.7 396.5,-97.7 287.5,-97.7"/>
<text text-anchor="start" x="290.0344" y="-105.4" font-family="Helvetica,sans-Serif" font-size="11.00" fill="#000000">varchar[2147483647]</text>
<polygon fill="#ffffff" stroke="transparent" points="157.5,-78.7 157.5,-97.7 213.5,-97.7 213.5,-78.7 157.5,-78.7"/>
<polygon fill="none" stroke="#000000" points="157.5,-78.7 157.5,-97.7 213.5,-97.7 213.5,-78.7 157.5,-78.7"/>
<text text-anchor="start" x="160.5" y="-84.8" font-family="Helvetica,sans-Serif" font-size="11.00" fill="#000000">&lt; 1</text>
<polygon fill="#ffffff" stroke="transparent" points="213.5,-78.7 213.5,-97.7 287.5,-97.7 287.5,-78.7 213.5,-78.7"/>
<polygon fill="none" stroke="#000000" points="213.5,-78.7 213.5,-97.7 287.5,-97.7 287.5,-78.7 213.5,-78.7"/>
<text text-anchor="start" x="252.1105" y="-84.8" font-family="Helvetica,sans-Serif" font-size="11.00" fill="#000000">0 rows</text>
<polygon fill="#ffffff" stroke="transparent" points="287.5,-78.7 287.5,-97.7 396.5,-97.7 396.5,-78.7 287.5,-78.7"/>
<polygon fill="none" stroke="#000000" points="287.5,-78.7 287.5,-97.7 396.5,-97.7 396.5,-78.7 287.5,-78.7"/>
<text text-anchor="start" x="377.9053" y="-84.8" font-family="Helvetica,sans-Serif" font-size="11.00" fill="#000000">0 &gt;</text>
<polygon fill="none" stroke="#000000" stroke-width="2" points="156,-77.7 156,-187.7 397,-187.7 397,-77.7 156,-77.7"/>
</a>
</g>
</g>
<!-- campanha -->
<g id="node2" class="node">
<title>campanha</title>
<g id="a_node2"><a xlink:href="../../tables/campanha.html" xlink:title="campanha" target="_top">
<polygon fill="#ffffff" stroke="transparent" points="8,-38.2 8,-165.2 106,-165.2 106,-38.2 8,-38.2"/>
<polygon fill="#f5f5f5" stroke="transparent" points="8,-141.7 8,-164.7 106,-164.7 106,-141.7 8,-141.7"/>
<polygon fill="none" stroke="#000000" points="8,-141.7 8,-164.7 106,-164.7 106,-141.7 8,-141.7"/>
<text text-anchor="start" x="13" y="-150.8" font-family="Helvetica,sans-Serif" font-weight="bold" font-size="11.00" fill="#000000">campanha</text>
<text text-anchor="start" x="71.0437" y="-149.8" font-family="Helvetica,sans-Serif" font-size="11.00" fill="#000000">[table]</text>
<polygon fill="none" stroke="#000000" points="8,-119.7 8,-141.7 106,-141.7 106,-119.7 8,-119.7"/>
<image xlink:href="../../images/primaryKeys.png" width="11px" height="12px" preserveAspectRatio="xMinYMin meet" x="13" y="-136.7"/>
<text text-anchor="start" x="28" y="-126.8" font-family="Helvetica,sans-Serif" font-size="11.00" fill="#000000">id</text>
<polygon fill="none" stroke="#000000" points="8,-97.7 8,-119.7 106,-119.7 106,-97.7 8,-97.7"/>
<image xlink:href="../../images/foreignKeys.png" width="11px" height="12px" preserveAspectRatio="xMinYMin meet" x="13" y="-114.7"/>
<text text-anchor="start" x="28" y="-104.8" font-family="Helvetica,sans-Serif" font-size="11.00" fill="#000000">instituicao_id</text>
<polygon fill="none" stroke="#000000" points="8,-75.7 8,-97.7 106,-97.7 106,-75.7 8,-75.7"/>
<image xlink:href="../../images/foreignKeys.png" width="11px" height="12px" preserveAspectRatio="xMinYMin meet" x="13" y="-92.7"/>
<text text-anchor="start" x="28" y="-82.8" font-family="Helvetica,sans-Serif" font-size="11.00" fill="#000000">formulario_id</text>
<polygon fill="none" stroke="#000000" points="8,-56.7 8,-75.7 106,-75.7 106,-56.7 8,-56.7"/>
<text text-anchor="start" x="11" y="-62.8" font-family="Helvetica,sans-Serif" font-size="11.00" fill="#000000">...</text>
<polygon fill="#ffffff" stroke="transparent" points="8,-37.7 8,-56.7 38,-56.7 38,-37.7 8,-37.7"/>
<polygon fill="none" stroke="#000000" points="8,-37.7 8,-56.7 38,-56.7 38,-37.7 8,-37.7"/>
<text text-anchor="start" x="11" y="-43.8" font-family="Helvetica,sans-Serif" font-size="11.00" fill="#000000">&lt; 2</text>
<polygon fill="#ffffff" stroke="transparent" points="38,-37.7 38,-56.7 80,-56.7 80,-37.7 38,-37.7"/>
<polygon fill="none" stroke="#000000" points="38,-37.7 38,-56.7 80,-56.7 80,-37.7 38,-37.7"/>
<text text-anchor="start" x="44.6105" y="-43.8" font-family="Helvetica,sans-Serif" font-size="11.00" fill="#000000">0 rows</text>
<polygon fill="#ffffff" stroke="transparent" points="80,-37.7 80,-56.7 106,-56.7 106,-37.7 80,-37.7"/>
<polygon fill="none" stroke="#000000" points="80,-37.7 80,-56.7 106,-56.7 106,-37.7 80,-37.7"/>
<text text-anchor="start" x="87.4053" y="-43.8" font-family="Helvetica,sans-Serif" font-size="11.00" fill="#000000">3 &gt;</text>
</a>
</g>
</g>
<!-- arquivo_campanha&#45;&gt;campanha -->
<g id="edge1" class="edge">
<title>arquivo_campanha:w&#45;&gt;campanha:e</title>
<path fill="none" stroke="#000000" d="M143.0156,-130.7C130.6771,-130.7 123.1667,-130.7 106,-130.7"/>
<polygon fill="#000000" stroke="#000000" points="149.5,-130.7001 157.5,-134.3 153.5,-130.7 157.5,-130.7 157.5,-130.7 157.5,-130.7 153.5,-130.7 157.5,-127.1 149.5,-130.7001 149.5,-130.7001"/>
<ellipse fill="none" stroke="#000000" cx="146.3" cy="-130.7001" rx="3.2" ry="3.2"/>
</g>
</g>
</svg>
