<?xml version="1.0" encoding="UTF-8" standalone="no"?>
<!DOCTYPE svg PUBLIC "-//W3C//DTD SVG 1.1//EN"
 "http://www.w3.org/Graphics/SVG/1.1/DTD/svg11.dtd">
<!-- Generated by graphviz version 2.40.1 (20161225.0304)
 -->
<!-- Title: oneDegreeRelationshipsDiagram Pages: 1 -->
<svg width="434pt" height="179pt"
 viewBox="0.00 0.00 434.00 178.70" xmlns="http://www.w3.org/2000/svg" xmlns:xlink="http://www.w3.org/1999/xlink">
<g id="graph0" class="graph" transform="scale(1 1) rotate(0) translate(4 174.7)">
<title>oneDegreeRelationshipsDiagram</title>
<polygon fill="#ffffff" stroke="transparent" points="-4,4 -4,-174.7 430,-174.7 430,4 -4,4"/>
<text text-anchor="middle" x="72.4936" y="-7.3" font-family="Helvetica,sans-Serif" font-size="11.00" fill="#000000">Generated by SchemaSpy</text>
<!-- arquivo_animal -->
<g id="node1" class="node">
<title>arquivo_animal</title>
<g id="a_node1"><a xlink:href="../../tables/arquivo_animal.html" xlink:title="arquivo_animal" target="_top">
<polygon fill="#ffffff" stroke="transparent" points="196,-54.7 196,-166.7 418,-166.7 418,-54.7 196,-54.7"/>
<polygon fill="#f5f5f5" stroke="transparent" points="198,-141.7 198,-164.7 416,-164.7 416,-141.7 198,-141.7"/>
<polygon fill="none" stroke="#000000" points="198,-141.7 198,-164.7 416,-164.7 416,-141.7 198,-141.7"/>
<text text-anchor="start" x="203" y="-150.8" font-family="Helvetica,sans-Serif" font-weight="bold" font-size="11.00" fill="#000000">arquivo_animal</text>
<text text-anchor="start" x="381.0437" y="-149.8" font-family="Helvetica,sans-Serif" font-size="11.00" fill="#000000">[table]</text>
<polygon fill="none" stroke="#000000" points="198,-119.7 198,-141.7 307,-141.7 307,-119.7 198,-119.7"/>
<image xlink:href="../../images/primaryKeys.png" width="11px" height="12px" preserveAspectRatio="xMinYMin meet" x="203" y="-136.7"/>
<text text-anchor="start" x="218" y="-126.8" font-family="Helvetica,sans-Serif" font-size="11.00" fill="#000000">id</text>
<polygon fill="none" stroke="#000000" points="307,-119.7 307,-141.7 416,-141.7 416,-119.7 307,-119.7"/>
<text text-anchor="start" x="310" y="-127.4" font-family="Helvetica,sans-Serif" font-size="11.00" fill="#000000">bigserial[19]</text>
<polygon fill="none" stroke="#000000" points="198,-97.7 198,-119.7 307,-119.7 307,-97.7 198,-97.7"/>
<image xlink:href="../../images/foreignKeys.png" width="11px" height="12px" preserveAspectRatio="xMinYMin meet" x="203" y="-114.7"/>
<text text-anchor="start" x="218" y="-104.8" font-family="Helvetica,sans-Serif" font-size="11.00" fill="#000000">animal_id</text>
<polygon fill="none" stroke="#000000" points="307,-97.7 307,-119.7 416,-119.7 416,-97.7 307,-97.7"/>
<text text-anchor="start" x="310" y="-105.4" font-family="Helvetica,sans-Serif" font-size="11.00" fill="#000000">int4[10]</text>
<polygon fill="none" stroke="#000000" points="198,-75.7 198,-97.7 307,-97.7 307,-75.7 198,-75.7"/>
<text text-anchor="start" x="218" y="-82.8" font-family="Helvetica,sans-Serif" font-size="11.00" fill="#000000">fotos</text>
<polygon fill="none" stroke="#000000" points="307,-75.7 307,-97.7 416,-97.7 416,-75.7 307,-75.7"/>
<text text-anchor="start" x="309.5344" y="-83.4" font-family="Helvetica,sans-Serif" font-size="11.00" fill="#000000">varchar[2147483647]</text>
<polygon fill="#ffffff" stroke="transparent" points="198,-56.7 198,-75.7 244,-75.7 244,-56.7 198,-56.7"/>
<polygon fill="none" stroke="#000000" points="198,-56.7 198,-75.7 244,-75.7 244,-56.7 198,-56.7"/>
<text text-anchor="start" x="201" y="-62.8" font-family="Helvetica,sans-Serif" font-size="11.00" fill="#000000">&lt; 1</text>
<polygon fill="#ffffff" stroke="transparent" points="244,-56.7 244,-75.7 307,-75.7 307,-56.7 244,-56.7"/>
<polygon fill="none" stroke="#000000" points="244,-56.7 244,-75.7 307,-75.7 307,-56.7 244,-56.7"/>
<text text-anchor="start" x="271.6105" y="-62.8" font-family="Helvetica,sans-Serif" font-size="11.00" fill="#000000">0 rows</text>
<polygon fill="#ffffff" stroke="transparent" points="307,-56.7 307,-75.7 416,-75.7 416,-56.7 307,-56.7"/>
<polygon fill="none" stroke="#000000" points="307,-56.7 307,-75.7 416,-75.7 416,-56.7 307,-56.7"/>
<text text-anchor="start" x="397.4053" y="-62.8" font-family="Helvetica,sans-Serif" font-size="11.00" fill="#000000">0 &gt;</text>
<polygon fill="none" stroke="#000000" stroke-width="2" points="197,-55.7 197,-165.7 417,-165.7 417,-55.7 197,-55.7"/>
</a>
</g>
</g>
<!-- animal -->
<g id="node2" class="node">
<title>animal</title>
<g id="a_node2"><a xlink:href="../../tables/animal.html" xlink:title="animal" target="_top">
<polygon fill="#ffffff" stroke="transparent" points="8,-38.2 8,-143.2 147,-143.2 147,-38.2 8,-38.2"/>
<polygon fill="#f5f5f5" stroke="transparent" points="8.5,-119.7 8.5,-142.7 147.5,-142.7 147.5,-119.7 8.5,-119.7"/>
<polygon fill="none" stroke="#000000" points="8.5,-119.7 8.5,-142.7 147.5,-142.7 147.5,-119.7 8.5,-119.7"/>
<text text-anchor="start" x="13.5" y="-128.8" font-family="Helvetica,sans-Serif" font-weight="bold" font-size="11.00" fill="#000000">animal</text>
<text text-anchor="start" x="112.5437" y="-127.8" font-family="Helvetica,sans-Serif" font-size="11.00" fill="#000000">[table]</text>
<polygon fill="none" stroke="#000000" points="8.5,-97.7 8.5,-119.7 147.5,-119.7 147.5,-97.7 8.5,-97.7"/>
<image xlink:href="../../images/primaryKeys.png" width="11px" height="12px" preserveAspectRatio="xMinYMin meet" x="13.5" y="-114.7"/>
<text text-anchor="start" x="28.5" y="-104.8" font-family="Helvetica,sans-Serif" font-size="11.00" fill="#000000">id</text>
<polygon fill="none" stroke="#000000" points="8.5,-75.7 8.5,-97.7 147.5,-97.7 147.5,-75.7 8.5,-75.7"/>
<image xlink:href="../../images/foreignKeys.png" width="11px" height="12px" preserveAspectRatio="xMinYMin meet" x="13.5" y="-92.7"/>
<text text-anchor="start" x="28.5" y="-82.8" font-family="Helvetica,sans-Serif" font-size="11.00" fill="#000000">instituicao_id</text>
<polygon fill="none" stroke="#000000" points="8.5,-56.7 8.5,-75.7 147.5,-75.7 147.5,-56.7 8.5,-56.7"/>
<text text-anchor="start" x="11.5" y="-62.8" font-family="Helvetica,sans-Serif" font-size="11.00" fill="#000000">...</text>
<polygon fill="#ffffff" stroke="transparent" points="8.5,-37.7 8.5,-56.7 58.5,-56.7 58.5,-37.7 8.5,-37.7"/>
<polygon fill="none" stroke="#000000" points="8.5,-37.7 8.5,-56.7 58.5,-56.7 58.5,-37.7 8.5,-37.7"/>
<text text-anchor="start" x="11.5" y="-43.8" font-family="Helvetica,sans-Serif" font-size="11.00" fill="#000000">&lt; 1</text>
<polygon fill="#ffffff" stroke="transparent" points="58.5,-37.7 58.5,-56.7 111.5,-56.7 111.5,-37.7 58.5,-37.7"/>
<polygon fill="none" stroke="#000000" points="58.5,-37.7 58.5,-56.7 111.5,-56.7 111.5,-37.7 58.5,-37.7"/>
<text text-anchor="start" x="76.1105" y="-43.8" font-family="Helvetica,sans-Serif" font-size="11.00" fill="#000000">0 rows</text>
<polygon fill="#ffffff" stroke="transparent" points="111.5,-37.7 111.5,-56.7 147.5,-56.7 147.5,-37.7 111.5,-37.7"/>
<polygon fill="none" stroke="#000000" points="111.5,-37.7 111.5,-56.7 147.5,-56.7 147.5,-37.7 111.5,-37.7"/>
<text text-anchor="start" x="128.9053" y="-43.8" font-family="Helvetica,sans-Serif" font-size="11.00" fill="#000000">2 &gt;</text>
</a>
</g>
</g>
<!-- arquivo_animal&#45;&gt;animal -->
<g id="edge1" class="edge">
<title>arquivo_animal:w&#45;&gt;animal:e</title>
<path fill="none" stroke="#000000" d="M183.4203,-108.7C171.5435,-108.7 164.158,-108.7 147.5,-108.7"/>
<polygon fill="#000000" stroke="#000000" points="190,-108.7001 198,-112.3 194,-108.7 198,-108.7 198,-108.7 198,-108.7 194,-108.7 198,-105.1 190,-108.7001 190,-108.7001"/>
<ellipse fill="none" stroke="#000000" cx="186.8" cy="-108.7001" rx="3.2" ry="3.2"/>
</g>
</g>
</svg>
