<?xml version="1.0" encoding="UTF-8" standalone="no"?>
<!DOCTYPE svg PUBLIC "-//W3C//DTD SVG 1.1//EN"
 "http://www.w3.org/Graphics/SVG/1.1/DTD/svg11.dtd">
<!-- Generated by graphviz version 2.40.1 (20161225.0304)
 -->
<!-- Title: twoDegreesRelationshipsDiagram Pages: 1 -->
<svg width="716pt" height="465pt"
 viewBox="0.00 0.00 716.00 465.20" xmlns="http://www.w3.org/2000/svg" xmlns:xlink="http://www.w3.org/1999/xlink">
<g id="graph0" class="graph" transform="scale(1 1) rotate(0) translate(4 461.2)">
<title>twoDegreesRelationshipsDiagram</title>
<polygon fill="#ffffff" stroke="transparent" points="-4,4 -4,-461.2 712,-461.2 712,4 -4,4"/>
<text text-anchor="middle" x="72.4936" y="-7.3" font-family="Helvetica,sans-Serif" font-size="11.00" fill="#000000">Generated by SchemaSpy</text>
<!-- animal -->
<g id="node1" class="node">
<title>animal</title>
<g id="a_node1"><a xlink:href="../../tables/animal.html" xlink:title="animal" target="_top">
<polygon fill="#ffffff" stroke="transparent" points="339.5,-308.2 339.5,-369.2 419.5,-369.2 419.5,-308.2 339.5,-308.2"/>
<polygon fill="#f5f5f5" stroke="transparent" points="339.5,-345.7 339.5,-368.7 419.5,-368.7 419.5,-345.7 339.5,-345.7"/>
<polygon fill="none" stroke="#000000" points="339.5,-345.7 339.5,-368.7 419.5,-368.7 419.5,-345.7 339.5,-345.7"/>
<text text-anchor="start" x="344.5" y="-354.8" font-family="Helvetica,sans-Serif" font-weight="bold" font-size="11.00" fill="#000000">animal</text>
<text text-anchor="start" x="384.5437" y="-353.8" font-family="Helvetica,sans-Serif" font-size="11.00" fill="#000000">[table]</text>
<polygon fill="none" stroke="#000000" points="339.5,-326.7 339.5,-345.7 419.5,-345.7 419.5,-326.7 339.5,-326.7"/>
<text text-anchor="start" x="342.5" y="-332.8" font-family="Helvetica,sans-Serif" font-size="11.00" fill="#000000">...</text>
<polygon fill="#ffffff" stroke="transparent" points="339.5,-307.7 339.5,-326.7 360.5,-326.7 360.5,-307.7 339.5,-307.7"/>
<polygon fill="none" stroke="#000000" points="339.5,-307.7 339.5,-326.7 360.5,-326.7 360.5,-307.7 339.5,-307.7"/>
<text text-anchor="start" x="342.2027" y="-313.8" font-family="Helvetica,sans-Serif" font-size="11.00" fill="#000000">&lt; 1</text>
<polygon fill="#ffffff" stroke="transparent" points="360.5,-307.7 360.5,-326.7 398.5,-326.7 398.5,-307.7 360.5,-307.7"/>
<polygon fill="none" stroke="#000000" points="360.5,-307.7 360.5,-326.7 398.5,-326.7 398.5,-307.7 360.5,-307.7"/>
<text text-anchor="start" x="363.3053" y="-313.8" font-family="Helvetica,sans-Serif" font-size="11.00" fill="#000000">0 rows</text>
<polygon fill="#ffffff" stroke="transparent" points="398.5,-307.7 398.5,-326.7 419.5,-326.7 419.5,-307.7 398.5,-307.7"/>
<polygon fill="none" stroke="#000000" points="398.5,-307.7 398.5,-326.7 419.5,-326.7 419.5,-307.7 398.5,-307.7"/>
<text text-anchor="start" x="401.2027" y="-313.8" font-family="Helvetica,sans-Serif" font-size="11.00" fill="#000000">2 &gt;</text>
</a>
</g>
</g>
<!-- instituicao -->
<g id="node2" class="node">
<title>instituicao</title>
<g id="a_node2"><a xlink:href="../../tables/instituicao.html" xlink:title="instituicao" target="_top">
<polygon fill="#ffffff" stroke="transparent" points="147,-177.2 147,-348.2 242,-348.2 242,-177.2 147,-177.2"/>
<polygon fill="#f5f5f5" stroke="transparent" points="147.5,-324.7 147.5,-347.7 242.5,-347.7 242.5,-324.7 147.5,-324.7"/>
<polygon fill="none" stroke="#000000" points="147.5,-324.7 147.5,-347.7 242.5,-347.7 242.5,-324.7 147.5,-324.7"/>
<text text-anchor="start" x="152.5" y="-333.8" font-family="Helvetica,sans-Serif" font-weight="bold" font-size="11.00" fill="#000000">instituicao</text>
<text text-anchor="start" x="207.5437" y="-332.8" font-family="Helvetica,sans-Serif" font-size="11.00" fill="#000000">[table]</text>
<polygon fill="none" stroke="#000000" points="147.5,-302.7 147.5,-324.7 242.5,-324.7 242.5,-302.7 147.5,-302.7"/>
<image xlink:href="../../images/primaryKeys.png" width="11px" height="12px" preserveAspectRatio="xMinYMin meet" x="152.5" y="-319.7"/>
<text text-anchor="start" x="167.5" y="-309.8" font-family="Helvetica,sans-Serif" font-size="11.00" fill="#000000">usuario_id</text>
<polygon fill="#ffffff" stroke="transparent" points="147.5,-280.7 147.5,-302.7 242.5,-302.7 242.5,-280.7 147.5,-280.7"/>
<polygon fill="none" stroke="#000000" points="147.5,-280.7 147.5,-302.7 242.5,-302.7 242.5,-280.7 147.5,-280.7"/>
<text text-anchor="start" x="167.5" y="-287.8" font-family="Helvetica,sans-Serif" font-size="11.00" fill="#000000">telefone</text>
<polygon fill="#ffffff" stroke="transparent" points="147.5,-258.7 147.5,-280.7 242.5,-280.7 242.5,-258.7 147.5,-258.7"/>
<polygon fill="none" stroke="#000000" points="147.5,-258.7 147.5,-280.7 242.5,-280.7 242.5,-258.7 147.5,-258.7"/>
<text text-anchor="start" x="167.5" y="-265.8" font-family="Helvetica,sans-Serif" font-size="11.00" fill="#000000">cnpj</text>
<polygon fill="#ffffff" stroke="transparent" points="147.5,-236.7 147.5,-258.7 242.5,-258.7 242.5,-236.7 147.5,-236.7"/>
<polygon fill="none" stroke="#000000" points="147.5,-236.7 147.5,-258.7 242.5,-258.7 242.5,-236.7 147.5,-236.7"/>
<text text-anchor="start" x="167.5" y="-243.8" font-family="Helvetica,sans-Serif" font-size="11.00" fill="#000000">cpf</text>
<polygon fill="none" stroke="#000000" points="147.5,-214.7 147.5,-236.7 242.5,-236.7 242.5,-214.7 147.5,-214.7"/>
<image xlink:href="../../images/foreignKeys.png" width="11px" height="12px" preserveAspectRatio="xMinYMin meet" x="152.5" y="-231.7"/>
<text text-anchor="start" x="167.5" y="-221.8" font-family="Helvetica,sans-Serif" font-size="11.00" fill="#000000">municipio_id</text>
<polygon fill="none" stroke="#000000" points="147.5,-195.7 147.5,-214.7 242.5,-214.7 242.5,-195.7 147.5,-195.7"/>
<text text-anchor="start" x="150.5" y="-201.8" font-family="Helvetica,sans-Serif" font-size="11.00" fill="#000000">...</text>
<polygon fill="#ffffff" stroke="transparent" points="147.5,-176.7 147.5,-195.7 175.5,-195.7 175.5,-176.7 147.5,-176.7"/>
<polygon fill="none" stroke="#000000" points="147.5,-176.7 147.5,-195.7 175.5,-195.7 175.5,-176.7 147.5,-176.7"/>
<text text-anchor="start" x="150.5" y="-182.8" font-family="Helvetica,sans-Serif" font-size="11.00" fill="#000000">&lt; 2</text>
<polygon fill="#ffffff" stroke="transparent" points="175.5,-176.7 175.5,-195.7 217.5,-195.7 217.5,-176.7 175.5,-176.7"/>
<polygon fill="none" stroke="#000000" points="175.5,-176.7 175.5,-195.7 217.5,-195.7 217.5,-176.7 175.5,-176.7"/>
<text text-anchor="start" x="182.1105" y="-182.8" font-family="Helvetica,sans-Serif" font-size="11.00" fill="#000000">0 rows</text>
<polygon fill="#ffffff" stroke="transparent" points="217.5,-176.7 217.5,-195.7 242.5,-195.7 242.5,-176.7 217.5,-176.7"/>
<polygon fill="none" stroke="#000000" points="217.5,-176.7 217.5,-195.7 242.5,-195.7 242.5,-176.7 217.5,-176.7"/>
<text text-anchor="start" x="223.9053" y="-182.8" font-family="Helvetica,sans-Serif" font-size="11.00" fill="#000000">2 &gt;</text>
</a>
</g>
</g>
<!-- animal&#45;&gt;instituicao -->
<g id="edge1" class="edge">
<title>animal:w&#45;&gt;instituicao:e</title>
<path fill="none" stroke="#000000" d="M324.8812,-334.8103C292.6918,-330.6945 281.353,-313.7 242.5,-313.7"/>
<polygon fill="#000000" stroke="#000000" points="331.5148,-335.214 339.2813,-339.2934 335.5074,-335.457 339.5,-335.7 339.5,-335.7 339.5,-335.7 335.5074,-335.457 339.7187,-332.1066 331.5148,-335.214 331.5148,-335.214"/>
<ellipse fill="none" stroke="#000000" cx="328.3207" cy="-335.0196" rx="3.2" ry="3.2"/>
</g>
<!-- municipio -->
<g id="node6" class="node">
<title>municipio</title>
<g id="a_node6"><a xlink:href="../../tables/municipio.html" xlink:title="municipio" target="_top">
<polygon fill="#ffffff" stroke="transparent" points="8,-242.2 8,-303.2 97,-303.2 97,-242.2 8,-242.2"/>
<polygon fill="#f5f5f5" stroke="transparent" points="8.5,-279.7 8.5,-302.7 97.5,-302.7 97.5,-279.7 8.5,-279.7"/>
<polygon fill="none" stroke="#000000" points="8.5,-279.7 8.5,-302.7 97.5,-302.7 97.5,-279.7 8.5,-279.7"/>
<text text-anchor="start" x="13.2779" y="-288.8" font-family="Helvetica,sans-Serif" font-weight="bold" font-size="11.00" fill="#000000">municipio</text>
<text text-anchor="start" x="63.0219" y="-287.8" font-family="Helvetica,sans-Serif" font-size="11.00" fill="#000000">[table]</text>
<polygon fill="none" stroke="#000000" points="8.5,-260.7 8.5,-279.7 97.5,-279.7 97.5,-260.7 8.5,-260.7"/>
<text text-anchor="start" x="11.5" y="-266.8" font-family="Helvetica,sans-Serif" font-size="11.00" fill="#000000">...</text>
<polygon fill="#ffffff" stroke="transparent" points="8.5,-241.7 8.5,-260.7 29.5,-260.7 29.5,-241.7 8.5,-241.7"/>
<polygon fill="none" stroke="#000000" points="8.5,-241.7 8.5,-260.7 29.5,-260.7 29.5,-241.7 8.5,-241.7"/>
<text text-anchor="start" x="11.5" y="-247.8" font-family="Helvetica,sans-Serif" font-size="11.00" fill="#000000"> &#160;</text>
<polygon fill="#ffffff" stroke="transparent" points="29.5,-241.7 29.5,-260.7 71.5,-260.7 71.5,-241.7 29.5,-241.7"/>
<polygon fill="none" stroke="#000000" points="29.5,-241.7 29.5,-260.7 71.5,-260.7 71.5,-241.7 29.5,-241.7"/>
<text text-anchor="start" x="36.1105" y="-247.8" font-family="Helvetica,sans-Serif" font-size="11.00" fill="#000000">0 rows</text>
<polygon fill="#ffffff" stroke="transparent" points="71.5,-241.7 71.5,-260.7 97.5,-260.7 97.5,-241.7 71.5,-241.7"/>
<polygon fill="none" stroke="#000000" points="71.5,-241.7 71.5,-260.7 97.5,-260.7 97.5,-241.7 71.5,-241.7"/>
<text text-anchor="start" x="78.9053" y="-247.8" font-family="Helvetica,sans-Serif" font-size="11.00" fill="#000000">2 &gt;</text>
</a>
</g>
</g>
<!-- instituicao&#45;&gt;municipio -->
<g id="edge6" class="edge">
<title>instituicao:w&#45;&gt;municipio:e</title>
<path fill="none" stroke="#000000" d="M133.6144,-230.4088C120.0362,-241.7596 121.0887,-269.7 97.5,-269.7"/>
<polygon fill="#000000" stroke="#000000" points="139.9238,-228.2692 148.6561,-229.1093 143.7119,-226.9846 147.5,-225.7 147.5,-225.7 147.5,-225.7 143.7119,-226.9846 146.3439,-222.2907 139.9238,-228.2692 139.9238,-228.2692"/>
<ellipse fill="none" stroke="#000000" cx="136.8933" cy="-229.2969" rx="3.2" ry="3.2"/>
</g>
<!-- usuario -->
<g id="node7" class="node">
<title>usuario</title>
<g id="a_node7"><a xlink:href="../../tables/usuario.html" xlink:title="usuario" target="_top">
<polygon fill="#ffffff" stroke="transparent" points="13,-327.2 13,-388.2 92,-388.2 92,-327.2 13,-327.2"/>
<polygon fill="#f5f5f5" stroke="transparent" points="13.5,-364.7 13.5,-387.7 92.5,-387.7 92.5,-364.7 13.5,-364.7"/>
<polygon fill="none" stroke="#000000" points="13.5,-364.7 13.5,-387.7 92.5,-387.7 92.5,-364.7 13.5,-364.7"/>
<text text-anchor="start" x="18.4688" y="-373.8" font-family="Helvetica,sans-Serif" font-weight="bold" font-size="11.00" fill="#000000">usuario</text>
<text text-anchor="start" x="58.0219" y="-372.8" font-family="Helvetica,sans-Serif" font-size="11.00" fill="#000000">[table]</text>
<polygon fill="none" stroke="#000000" points="13.5,-345.7 13.5,-364.7 92.5,-364.7 92.5,-345.7 13.5,-345.7"/>
<text text-anchor="start" x="16.5" y="-351.8" font-family="Helvetica,sans-Serif" font-size="11.00" fill="#000000">...</text>
<polygon fill="#ffffff" stroke="transparent" points="13.5,-326.7 13.5,-345.7 29.5,-345.7 29.5,-326.7 13.5,-326.7"/>
<polygon fill="none" stroke="#000000" points="13.5,-326.7 13.5,-345.7 29.5,-345.7 29.5,-326.7 13.5,-326.7"/>
<text text-anchor="start" x="16.5" y="-332.8" font-family="Helvetica,sans-Serif" font-size="11.00" fill="#000000"> &#160;</text>
<polygon fill="#ffffff" stroke="transparent" points="29.5,-326.7 29.5,-345.7 69.5,-345.7 69.5,-326.7 29.5,-326.7"/>
<polygon fill="none" stroke="#000000" points="29.5,-326.7 29.5,-345.7 69.5,-345.7 69.5,-326.7 29.5,-326.7"/>
<text text-anchor="start" x="34.1105" y="-332.8" font-family="Helvetica,sans-Serif" font-size="11.00" fill="#000000">0 rows</text>
<polygon fill="#ffffff" stroke="transparent" points="69.5,-326.7 69.5,-345.7 92.5,-345.7 92.5,-326.7 69.5,-326.7"/>
<polygon fill="none" stroke="#000000" points="69.5,-326.7 69.5,-345.7 92.5,-345.7 92.5,-326.7 69.5,-326.7"/>
<text text-anchor="start" x="73.9053" y="-332.8" font-family="Helvetica,sans-Serif" font-size="11.00" fill="#000000">2 &gt;</text>
</a>
</g>
</g>
<!-- instituicao&#45;&gt;usuario -->
<g id="edge7" class="edge">
<title>instituicao:w&#45;&gt;usuario:e</title>
<path fill="none" stroke="#000000" d="M137.1109,-315.6775C117.9556,-323.8674 118.9397,-354.7 92.5,-354.7"/>
<polygon fill="#000000" stroke="#000000" points="145.9661,-309.9201 147.4621,-317.779 145.8903,-318.0782 144.3943,-310.2193 145.9661,-309.9201"/>
<polyline fill="none" stroke="#000000" points="147.5,-313.7 143.5706,-314.448 "/>
<ellipse fill="none" stroke="#000000" cx="140.427" cy="-315.0464" rx="3.2" ry="3.2"/>
</g>
<!-- arquivo_campanha -->
<g id="node3" class="node">
<title>arquivo_campanha</title>
<g id="a_node3"><a xlink:href="../../tables/arquivo_campanha.html" xlink:title="arquivo_campanha" target="_top">
<polygon fill="#ffffff" stroke="transparent" points="540,-200.2 540,-305.2 676,-305.2 676,-200.2 540,-200.2"/>
<polygon fill="#f5f5f5" stroke="transparent" points="540,-281.7 540,-304.7 676,-304.7 676,-281.7 540,-281.7"/>
<polygon fill="none" stroke="#000000" points="540,-281.7 540,-304.7 676,-304.7 676,-281.7 540,-281.7"/>
<text text-anchor="start" x="544.7357" y="-290.8" font-family="Helvetica,sans-Serif" font-weight="bold" font-size="11.00" fill="#000000">arquivo_campanha</text>
<text text-anchor="start" x="641.5219" y="-289.8" font-family="Helvetica,sans-Serif" font-size="11.00" fill="#000000">[table]</text>
<polygon fill="none" stroke="#000000" points="540,-259.7 540,-281.7 676,-281.7 676,-259.7 540,-259.7"/>
<image xlink:href="../../images/primaryKeys.png" width="11px" height="12px" preserveAspectRatio="xMinYMin meet" x="545" y="-276.7"/>
<text text-anchor="start" x="563" y="-266.8" font-family="Helvetica,sans-Serif" font-size="11.00" fill="#000000">id</text>
<polygon fill="none" stroke="#000000" points="540,-237.7 540,-259.7 676,-259.7 676,-237.7 540,-237.7"/>
<image xlink:href="../../images/foreignKeys.png" width="11px" height="12px" preserveAspectRatio="xMinYMin meet" x="545" y="-254.7"/>
<text text-anchor="start" x="563" y="-244.8" font-family="Helvetica,sans-Serif" font-size="11.00" fill="#000000">campanha_id</text>
<polygon fill="none" stroke="#000000" points="540,-218.7 540,-237.7 676,-237.7 676,-218.7 540,-218.7"/>
<text text-anchor="start" x="543" y="-224.8" font-family="Helvetica,sans-Serif" font-size="11.00" fill="#000000">...</text>
<polygon fill="#ffffff" stroke="transparent" points="540,-199.7 540,-218.7 593,-218.7 593,-199.7 540,-199.7"/>
<polygon fill="none" stroke="#000000" points="540,-199.7 540,-218.7 593,-218.7 593,-199.7 540,-199.7"/>
<text text-anchor="start" x="543" y="-205.8" font-family="Helvetica,sans-Serif" font-size="11.00" fill="#000000">&lt; 1</text>
<polygon fill="#ffffff" stroke="transparent" points="593,-199.7 593,-218.7 647,-218.7 647,-199.7 593,-199.7"/>
<polygon fill="none" stroke="#000000" points="593,-199.7 593,-218.7 647,-218.7 647,-199.7 593,-199.7"/>
<text text-anchor="start" x="611.6105" y="-205.8" font-family="Helvetica,sans-Serif" font-size="11.00" fill="#000000">0 rows</text>
<polygon fill="#ffffff" stroke="transparent" points="647,-199.7 647,-218.7 676,-218.7 676,-199.7 647,-199.7"/>
<polygon fill="none" stroke="#000000" points="647,-199.7 647,-218.7 676,-218.7 676,-199.7 647,-199.7"/>
<text text-anchor="start" x="666.8862" y="-205.8" font-family="Helvetica,sans-Serif" font-size="11.00" fill="#000000"> &#160;</text>
</a>
</g>
</g>
<!-- campanha -->
<g id="node4" class="node">
<title>campanha</title>
<g id="a_node4"><a xlink:href="../../tables/campanha.html" xlink:title="campanha" target="_top">
<polygon fill="#ffffff" stroke="transparent" points="292,-64.7 292,-286.7 467,-286.7 467,-64.7 292,-64.7"/>
<polygon fill="#f5f5f5" stroke="transparent" points="294.5,-261.7 294.5,-284.7 465.5,-284.7 465.5,-261.7 294.5,-261.7"/>
<polygon fill="none" stroke="#000000" points="294.5,-261.7 294.5,-284.7 465.5,-284.7 465.5,-261.7 294.5,-261.7"/>
<text text-anchor="start" x="299.5" y="-270.8" font-family="Helvetica,sans-Serif" font-weight="bold" font-size="11.00" fill="#000000">campanha</text>
<text text-anchor="start" x="430.5437" y="-269.8" font-family="Helvetica,sans-Serif" font-size="11.00" fill="#000000">[table]</text>
<polygon fill="none" stroke="#000000" points="294.5,-239.7 294.5,-261.7 392.5,-261.7 392.5,-239.7 294.5,-239.7"/>
<image xlink:href="../../images/primaryKeys.png" width="11px" height="12px" preserveAspectRatio="xMinYMin meet" x="299.5" y="-256.7"/>
<text text-anchor="start" x="314.5" y="-246.8" font-family="Helvetica,sans-Serif" font-size="11.00" fill="#000000">id</text>
<polygon fill="none" stroke="#000000" points="392.5,-239.7 392.5,-261.7 465.5,-261.7 465.5,-239.7 392.5,-239.7"/>
<text text-anchor="start" x="395.5" y="-247.4" font-family="Helvetica,sans-Serif" font-size="11.00" fill="#000000">bigserial[19]</text>
<polygon fill="none" stroke="#000000" points="294.5,-217.7 294.5,-239.7 392.5,-239.7 392.5,-217.7 294.5,-217.7"/>
<text text-anchor="start" x="314.5" y="-224.8" font-family="Helvetica,sans-Serif" font-size="11.00" fill="#000000">titulo</text>
<polygon fill="none" stroke="#000000" points="392.5,-217.7 392.5,-239.7 465.5,-239.7 465.5,-217.7 392.5,-217.7"/>
<text text-anchor="start" x="395.5" y="-225.4" font-family="Helvetica,sans-Serif" font-size="11.00" fill="#000000">varchar[100]</text>
<polygon fill="none" stroke="#000000" points="294.5,-195.7 294.5,-217.7 392.5,-217.7 392.5,-195.7 294.5,-195.7"/>
<text text-anchor="start" x="314.5" y="-202.8" font-family="Helvetica,sans-Serif" font-size="11.00" fill="#000000">descricao</text>
<polygon fill="none" stroke="#000000" points="392.5,-195.7 392.5,-217.7 465.5,-217.7 465.5,-195.7 392.5,-195.7"/>
<text text-anchor="start" x="395.3791" y="-203.4" font-family="Helvetica,sans-Serif" font-size="11.00" fill="#000000">varchar[1000]</text>
<polygon fill="none" stroke="#000000" points="294.5,-173.7 294.5,-195.7 392.5,-195.7 392.5,-173.7 294.5,-173.7"/>
<text text-anchor="start" x="314.5" y="-180.8" font-family="Helvetica,sans-Serif" font-size="11.00" fill="#000000">requisitos</text>
<polygon fill="none" stroke="#000000" points="392.5,-173.7 392.5,-195.7 465.5,-195.7 465.5,-173.7 392.5,-173.7"/>
<text text-anchor="start" x="395.3791" y="-181.4" font-family="Helvetica,sans-Serif" font-size="11.00" fill="#000000">varchar[1000]</text>
<polygon fill="none" stroke="#000000" points="294.5,-151.7 294.5,-173.7 392.5,-173.7 392.5,-151.7 294.5,-151.7"/>
<text text-anchor="start" x="314.5" y="-158.8" font-family="Helvetica,sans-Serif" font-size="11.00" fill="#000000">data_inicio</text>
<polygon fill="none" stroke="#000000" points="392.5,-151.7 392.5,-173.7 465.5,-173.7 465.5,-151.7 392.5,-151.7"/>
<text text-anchor="start" x="395.5" y="-159.4" font-family="Helvetica,sans-Serif" font-size="11.00" fill="#000000">date[13]</text>
<polygon fill="none" stroke="#000000" points="294.5,-129.7 294.5,-151.7 392.5,-151.7 392.5,-129.7 294.5,-129.7"/>
<text text-anchor="start" x="314.5" y="-136.8" font-family="Helvetica,sans-Serif" font-size="11.00" fill="#000000">data_fim</text>
<polygon fill="none" stroke="#000000" points="392.5,-129.7 392.5,-151.7 465.5,-151.7 465.5,-129.7 392.5,-129.7"/>
<text text-anchor="start" x="395.5" y="-137.4" font-family="Helvetica,sans-Serif" font-size="11.00" fill="#000000">date[13]</text>
<polygon fill="none" stroke="#000000" points="294.5,-107.7 294.5,-129.7 392.5,-129.7 392.5,-107.7 294.5,-107.7"/>
<image xlink:href="../../images/foreignKeys.png" width="11px" height="12px" preserveAspectRatio="xMinYMin meet" x="299.5" y="-124.7"/>
<text text-anchor="start" x="314.5" y="-114.8" font-family="Helvetica,sans-Serif" font-size="11.00" fill="#000000">instituicao_id</text>
<polygon fill="none" stroke="#000000" points="392.5,-107.7 392.5,-129.7 465.5,-129.7 465.5,-107.7 392.5,-107.7"/>
<text text-anchor="start" x="395.5" y="-115.4" font-family="Helvetica,sans-Serif" font-size="11.00" fill="#000000">int4[10]</text>
<polygon fill="none" stroke="#000000" points="294.5,-85.7 294.5,-107.7 392.5,-107.7 392.5,-85.7 294.5,-85.7"/>
<image xlink:href="../../images/foreignKeys.png" width="11px" height="12px" preserveAspectRatio="xMinYMin meet" x="299.5" y="-102.7"/>
<text text-anchor="start" x="314.5" y="-92.8" font-family="Helvetica,sans-Serif" font-size="11.00" fill="#000000">formulario_id</text>
<polygon fill="none" stroke="#000000" points="392.5,-85.7 392.5,-107.7 465.5,-107.7 465.5,-85.7 392.5,-85.7"/>
<text text-anchor="start" x="395.5" y="-93.4" font-family="Helvetica,sans-Serif" font-size="11.00" fill="#000000">int4[10]</text>
<polygon fill="#ffffff" stroke="transparent" points="294.5,-66.7 294.5,-85.7 334.5,-85.7 334.5,-66.7 294.5,-66.7"/>
<polygon fill="none" stroke="#000000" points="294.5,-66.7 294.5,-85.7 334.5,-85.7 334.5,-66.7 294.5,-66.7"/>
<text text-anchor="start" x="297.5" y="-72.8" font-family="Helvetica,sans-Serif" font-size="11.00" fill="#000000">&lt; 2</text>
<polygon fill="#ffffff" stroke="transparent" points="334.5,-66.7 334.5,-85.7 392.5,-85.7 392.5,-66.7 334.5,-66.7"/>
<polygon fill="none" stroke="#000000" points="334.5,-66.7 334.5,-85.7 392.5,-85.7 392.5,-66.7 334.5,-66.7"/>
<text text-anchor="start" x="357.1105" y="-72.8" font-family="Helvetica,sans-Serif" font-size="11.00" fill="#000000">0 rows</text>
<polygon fill="#ffffff" stroke="transparent" points="392.5,-66.7 392.5,-85.7 465.5,-85.7 465.5,-66.7 392.5,-66.7"/>
<polygon fill="none" stroke="#000000" points="392.5,-66.7 392.5,-85.7 465.5,-85.7 465.5,-66.7 392.5,-66.7"/>
<text text-anchor="start" x="446.9053" y="-72.8" font-family="Helvetica,sans-Serif" font-size="11.00" fill="#000000">3 &gt;</text>
<polygon fill="none" stroke="#000000" stroke-width="2" points="293,-65.7 293,-285.7 466,-285.7 466,-65.7 293,-65.7"/>
</a>
</g>
</g>
<!-- arquivo_campanha&#45;&gt;campanha -->
<g id="edge2" class="edge">
<title>arquivo_campanha:w&#45;&gt;campanha:e</title>
<path fill="none" stroke="#000000" d="M525.4858,-248.8438C503.4993,-249.3024 493.1888,-250.7 465.5,-250.7"/>
<polygon fill="#000000" stroke="#000000" points="532.0004,-248.7793 540.0357,-252.2998 536.0002,-248.7397 540,-248.7 540,-248.7 540,-248.7 536.0002,-248.7397 539.9643,-245.1002 532.0004,-248.7793 532.0004,-248.7793"/>
<ellipse fill="none" stroke="#000000" cx="528.8005" cy="-248.8111" rx="3.2" ry="3.2"/>
</g>
<!-- campanha&#45;&gt;instituicao -->
<g id="edge4" class="edge">
<title>campanha:w&#45;&gt;instituicao:e</title>
<path fill="none" stroke="#000000" d="M280.1201,-120.8899C219.8806,-142.3133 326.5893,-313.7 242.5,-313.7"/>
<polygon fill="#000000" stroke="#000000" points="286.5912,-119.9045 295.042,-122.259 290.5456,-119.3022 294.5,-118.7 294.5,-118.7 294.5,-118.7 290.5456,-119.3022 293.958,-115.141 286.5912,-119.9045 286.5912,-119.9045"/>
<ellipse fill="none" stroke="#000000" cx="283.4277" cy="-120.3863" rx="3.2" ry="3.2"/>
</g>
<!-- formulario -->
<g id="node5" class="node">
<title>formulario</title>
<g id="a_node5"><a xlink:href="../../tables/formulario.html" xlink:title="formulario" target="_top">
<polygon fill="#ffffff" stroke="transparent" points="146,-38.2 146,-143.2 243,-143.2 243,-38.2 146,-38.2"/>
<polygon fill="#f5f5f5" stroke="transparent" points="146.5,-119.7 146.5,-142.7 243.5,-142.7 243.5,-119.7 146.5,-119.7"/>
<polygon fill="none" stroke="#000000" points="146.5,-119.7 146.5,-142.7 243.5,-142.7 243.5,-119.7 146.5,-119.7"/>
<text text-anchor="start" x="151.5" y="-128.8" font-family="Helvetica,sans-Serif" font-weight="bold" font-size="11.00" fill="#000000">formulario</text>
<text text-anchor="start" x="208.5437" y="-127.8" font-family="Helvetica,sans-Serif" font-size="11.00" fill="#000000">[table]</text>
<polygon fill="none" stroke="#000000" points="146.5,-97.7 146.5,-119.7 243.5,-119.7 243.5,-97.7 146.5,-97.7"/>
<image xlink:href="../../images/primaryKeys.png" width="11px" height="12px" preserveAspectRatio="xMinYMin meet" x="151.5" y="-114.7"/>
<text text-anchor="start" x="166.5" y="-104.8" font-family="Helvetica,sans-Serif" font-size="11.00" fill="#000000">id</text>
<polygon fill="none" stroke="#000000" points="146.5,-75.7 146.5,-97.7 243.5,-97.7 243.5,-75.7 146.5,-75.7"/>
<image xlink:href="../../images/foreignKeys.png" width="11px" height="12px" preserveAspectRatio="xMinYMin meet" x="151.5" y="-92.7"/>
<text text-anchor="start" x="166.5" y="-82.8" font-family="Helvetica,sans-Serif" font-size="11.00" fill="#000000">campanha_id</text>
<polygon fill="none" stroke="#000000" points="146.5,-56.7 146.5,-75.7 243.5,-75.7 243.5,-56.7 146.5,-56.7"/>
<text text-anchor="start" x="149.5" y="-62.8" font-family="Helvetica,sans-Serif" font-size="11.00" fill="#000000">...</text>
<polygon fill="#ffffff" stroke="transparent" points="146.5,-37.7 146.5,-56.7 175.5,-56.7 175.5,-37.7 146.5,-37.7"/>
<polygon fill="none" stroke="#000000" points="146.5,-37.7 146.5,-56.7 175.5,-56.7 175.5,-37.7 146.5,-37.7"/>
<text text-anchor="start" x="149.5" y="-43.8" font-family="Helvetica,sans-Serif" font-size="11.00" fill="#000000">&lt; 1</text>
<polygon fill="#ffffff" stroke="transparent" points="175.5,-37.7 175.5,-56.7 217.5,-56.7 217.5,-37.7 175.5,-37.7"/>
<polygon fill="none" stroke="#000000" points="175.5,-37.7 175.5,-56.7 217.5,-56.7 217.5,-37.7 175.5,-37.7"/>
<text text-anchor="start" x="182.1105" y="-43.8" font-family="Helvetica,sans-Serif" font-size="11.00" fill="#000000">0 rows</text>
<polygon fill="#ffffff" stroke="transparent" points="217.5,-37.7 217.5,-56.7 243.5,-56.7 243.5,-37.7 217.5,-37.7"/>
<polygon fill="none" stroke="#000000" points="217.5,-37.7 217.5,-56.7 243.5,-56.7 243.5,-37.7 217.5,-37.7"/>
<text text-anchor="start" x="224.9053" y="-43.8" font-family="Helvetica,sans-Serif" font-size="11.00" fill="#000000">1 &gt;</text>
</a>
</g>
</g>
<!-- campanha&#45;&gt;formulario -->
<g id="edge3" class="edge">
<title>campanha:w&#45;&gt;formulario:e</title>
<path fill="none" stroke="#000000" d="M279.9822,-98.575C267.8214,-101.95 260.9642,-108.7 243.5,-108.7"/>
<polygon fill="#000000" stroke="#000000" points="286.5659,-97.7247 294.9611,-100.2703 290.5329,-97.2124 294.5,-96.7 294.5,-96.7 294.5,-96.7 290.5329,-97.2124 294.0389,-93.1297 286.5659,-97.7247 286.5659,-97.7247"/>
<ellipse fill="none" stroke="#000000" cx="283.3923" cy="-98.1346" rx="3.2" ry="3.2"/>
</g>
<!-- formulario&#45;&gt;campanha -->
<g id="edge5" class="edge">
<title>formulario:w&#45;&gt;campanha:e</title>
<path fill="none" stroke="#000000" d="M159.735,-80.0508C187.8545,-65.9238 251,-34.2 251,-34.2 251,-34.2 465.5,-250.7 465.5,-250.7"/>
<polygon fill="#000000" stroke="#000000" points="153.6486,-83.1086 144.8839,-83.4831 150.0743,-84.9043 146.5,-86.7 146.5,-86.7 146.5,-86.7 150.0743,-84.9043 148.1161,-89.9169 153.6486,-83.1086 153.6486,-83.1086"/>
<ellipse fill="none" stroke="#000000" cx="156.508" cy="-81.672" rx="3.2" ry="3.2"/>
</g>
<!-- pessoa -->
<g id="node8" class="node">
<title>pessoa</title>
<g id="a_node8"><a xlink:href="../../tables/pessoa.html" xlink:title="pessoa" target="_top">
<polygon fill="#ffffff" stroke="transparent" points="154.5,-369.2 154.5,-430.2 234.5,-430.2 234.5,-369.2 154.5,-369.2"/>
<polygon fill="#f5f5f5" stroke="transparent" points="154.5,-406.7 154.5,-429.7 234.5,-429.7 234.5,-406.7 154.5,-406.7"/>
<polygon fill="none" stroke="#000000" points="154.5,-406.7 154.5,-429.7 234.5,-429.7 234.5,-406.7 154.5,-406.7"/>
<text text-anchor="start" x="159.5" y="-415.8" font-family="Helvetica,sans-Serif" font-weight="bold" font-size="11.00" fill="#000000">pessoa</text>
<text text-anchor="start" x="199.5437" y="-414.8" font-family="Helvetica,sans-Serif" font-size="11.00" fill="#000000">[table]</text>
<polygon fill="none" stroke="#000000" points="154.5,-387.7 154.5,-406.7 234.5,-406.7 234.5,-387.7 154.5,-387.7"/>
<text text-anchor="start" x="157.5" y="-393.8" font-family="Helvetica,sans-Serif" font-size="11.00" fill="#000000">...</text>
<polygon fill="#ffffff" stroke="transparent" points="154.5,-368.7 154.5,-387.7 175.5,-387.7 175.5,-368.7 154.5,-368.7"/>
<polygon fill="none" stroke="#000000" points="154.5,-368.7 154.5,-387.7 175.5,-387.7 175.5,-368.7 154.5,-368.7"/>
<text text-anchor="start" x="157.2027" y="-374.8" font-family="Helvetica,sans-Serif" font-size="11.00" fill="#000000">&lt; 2</text>
<polygon fill="#ffffff" stroke="transparent" points="175.5,-368.7 175.5,-387.7 213.5,-387.7 213.5,-368.7 175.5,-368.7"/>
<polygon fill="none" stroke="#000000" points="175.5,-368.7 175.5,-387.7 213.5,-387.7 213.5,-368.7 175.5,-368.7"/>
<text text-anchor="start" x="178.3053" y="-374.8" font-family="Helvetica,sans-Serif" font-size="11.00" fill="#000000">0 rows</text>
<polygon fill="#ffffff" stroke="transparent" points="213.5,-368.7 213.5,-387.7 234.5,-387.7 234.5,-368.7 213.5,-368.7"/>
<polygon fill="none" stroke="#000000" points="213.5,-368.7 213.5,-387.7 234.5,-387.7 234.5,-368.7 213.5,-368.7"/>
<text text-anchor="start" x="216.2027" y="-374.8" font-family="Helvetica,sans-Serif" font-size="11.00" fill="#000000">2 &gt;</text>
</a>
</g>
</g>
<!-- pessoa&#45;&gt;municipio -->
<g id="edge8" class="edge">
<title>pessoa:w&#45;&gt;municipio:e</title>
<path fill="none" stroke="#000000" d="M140.2784,-393.5607C104.0141,-374.0037 153.5686,-269.7 97.5,-269.7"/>
<polygon fill="#000000" stroke="#000000" points="146.6881,-394.9755 153.724,-400.2154 150.594,-395.8378 154.5,-396.7 154.5,-396.7 154.5,-396.7 150.594,-395.8378 155.276,-393.1846 146.6881,-394.9755 146.6881,-394.9755"/>
<ellipse fill="none" stroke="#000000" cx="143.5633" cy="-394.2857" rx="3.2" ry="3.2"/>
</g>
<!-- pessoa&#45;&gt;usuario -->
<g id="edge9" class="edge">
<title>pessoa:w&#45;&gt;usuario:e</title>
<path fill="none" stroke="#000000" d="M143.9395,-395.0015C121.7679,-387.144 121.7526,-354.7 92.5,-354.7"/>
<polygon fill="#000000" stroke="#000000" points="154.3453,-392.6237 153.075,-400.5222 151.4953,-400.2681 152.7657,-392.3696 154.3453,-392.6237"/>
<polyline fill="none" stroke="#000000" points="154.5,-396.7 150.5508,-396.0648 "/>
<ellipse fill="none" stroke="#000000" cx="147.3914" cy="-395.5566" rx="3.2" ry="3.2"/>
</g>
<!-- pessoa_cadastra_campanha -->
<g id="node9" class="node">
<title>pessoa_cadastra_campanha</title>
<g id="a_node9"><a xlink:href="../../tables/pessoa_cadastra_campanha.html" xlink:title="pessoa_cadastra_campanha" target="_top">
<polygon fill="#ffffff" stroke="transparent" points="516,-326.2 516,-453.2 700,-453.2 700,-326.2 516,-326.2"/>
<polygon fill="#f5f5f5" stroke="transparent" points="516,-429.7 516,-452.7 700,-452.7 700,-429.7 516,-429.7"/>
<polygon fill="none" stroke="#000000" points="516,-429.7 516,-452.7 700,-452.7 700,-429.7 516,-429.7"/>
<text text-anchor="start" x="520.8905" y="-438.8" font-family="Helvetica,sans-Serif" font-weight="bold" font-size="11.00" fill="#000000">pessoa_cadastra_campanha</text>
<text text-anchor="start" x="665.5219" y="-437.8" font-family="Helvetica,sans-Serif" font-size="11.00" fill="#000000">[table]</text>
<polygon fill="none" stroke="#000000" points="516,-407.7 516,-429.7 700,-429.7 700,-407.7 516,-407.7"/>
<image xlink:href="../../images/primaryKeys.png" width="11px" height="12px" preserveAspectRatio="xMinYMin meet" x="521" y="-424.7"/>
<text text-anchor="start" x="536" y="-414.8" font-family="Helvetica,sans-Serif" font-size="11.00" fill="#000000">id</text>
<polygon fill="#ffffff" stroke="transparent" points="516,-385.7 516,-407.7 700,-407.7 700,-385.7 516,-385.7"/>
<polygon fill="none" stroke="#000000" points="516,-385.7 516,-407.7 700,-407.7 700,-385.7 516,-385.7"/>
<image xlink:href="../../images/foreignKeys.png" width="11px" height="12px" preserveAspectRatio="xMinYMin meet" x="521" y="-402.7"/>
<text text-anchor="start" x="536" y="-392.8" font-family="Helvetica,sans-Serif" font-size="11.00" fill="#000000">pessoa_id</text>
<polygon fill="#ffffff" stroke="transparent" points="516,-363.7 516,-385.7 700,-385.7 700,-363.7 516,-363.7"/>
<polygon fill="none" stroke="#000000" points="516,-363.7 516,-385.7 700,-385.7 700,-363.7 516,-363.7"/>
<image xlink:href="../../images/foreignKeys.png" width="11px" height="12px" preserveAspectRatio="xMinYMin meet" x="521" y="-380.7"/>
<text text-anchor="start" x="536" y="-370.8" font-family="Helvetica,sans-Serif" font-size="11.00" fill="#000000">campanha_id</text>
<polygon fill="none" stroke="#000000" points="516,-344.7 516,-363.7 700,-363.7 700,-344.7 516,-344.7"/>
<text text-anchor="start" x="519" y="-350.8" font-family="Helvetica,sans-Serif" font-size="11.00" fill="#000000">...</text>
<polygon fill="#ffffff" stroke="transparent" points="516,-325.7 516,-344.7 593,-344.7 593,-325.7 516,-325.7"/>
<polygon fill="none" stroke="#000000" points="516,-325.7 516,-344.7 593,-344.7 593,-325.7 516,-325.7"/>
<text text-anchor="start" x="519" y="-331.8" font-family="Helvetica,sans-Serif" font-size="11.00" fill="#000000">&lt; 2</text>
<polygon fill="#ffffff" stroke="transparent" points="593,-325.7 593,-344.7 659,-344.7 659,-325.7 593,-325.7"/>
<polygon fill="none" stroke="#000000" points="593,-325.7 593,-344.7 659,-344.7 659,-325.7 593,-325.7"/>
<text text-anchor="start" x="623.6105" y="-331.8" font-family="Helvetica,sans-Serif" font-size="11.00" fill="#000000">0 rows</text>
<polygon fill="#ffffff" stroke="transparent" points="659,-325.7 659,-344.7 700,-344.7 700,-325.7 659,-325.7"/>
<polygon fill="none" stroke="#000000" points="659,-325.7 659,-344.7 700,-344.7 700,-325.7 659,-325.7"/>
<text text-anchor="start" x="690.8862" y="-331.8" font-family="Helvetica,sans-Serif" font-size="11.00" fill="#000000"> &#160;</text>
</a>
</g>
</g>
<!-- pessoa_cadastra_campanha&#45;&gt;campanha -->
<g id="edge10" class="edge">
<title>pessoa_cadastra_campanha:w&#45;&gt;campanha:e</title>
<path fill="none" stroke="#000000" d="M501.5625,-371.1226C469.0899,-350.7916 518.9626,-250.7 465.5,-250.7"/>
<polygon fill="#000000" stroke="#000000" points="508.2348,-372.7759 515.1342,-378.1943 512.1174,-373.7379 516,-374.7 516,-374.7 516,-374.7 512.1174,-373.7379 516.8658,-371.2057 508.2348,-372.7759 508.2348,-372.7759"/>
<ellipse fill="none" stroke="#000000" cx="505.1288" cy="-372.0062" rx="3.2" ry="3.2"/>
</g>
<!-- pessoa_cadastra_campanha&#45;&gt;pessoa -->
<g id="edge11" class="edge">
<title>pessoa_cadastra_campanha:w&#45;&gt;pessoa:e</title>
<path fill="none" stroke="#000000" d="M501.4112,-396.7C388.2338,-396.7 354.6018,-396.7 234.5,-396.7"/>
<polygon fill="#000000" stroke="#000000" points="508,-396.7001 516,-400.3 512,-396.7 516,-396.7 516,-396.7 516,-396.7 512,-396.7 516,-393.1 508,-396.7001 508,-396.7001"/>
<ellipse fill="none" stroke="#000000" cx="504.8" cy="-396.7001" rx="3.2" ry="3.2"/>
</g>
</g>
</svg>
