<?xml version="1.0" encoding="UTF-8" standalone="no"?>
<!DOCTYPE svg PUBLIC "-//W3C//DTD SVG 1.1//EN"
 "http://www.w3.org/Graphics/SVG/1.1/DTD/svg11.dtd">
<!-- Generated by graphviz version 2.40.1 (20161225.0304)
 -->
<!-- Title: oneDegreeRelationshipsDiagram Pages: 1 -->
<svg width="576pt" height="501pt"
 viewBox="0.00 0.00 576.00 501.20" xmlns="http://www.w3.org/2000/svg" xmlns:xlink="http://www.w3.org/1999/xlink">
<g id="graph0" class="graph" transform="scale(1 1) rotate(0) translate(4 497.2)">
<title>oneDegreeRelationshipsDiagram</title>
<polygon fill="#ffffff" stroke="transparent" points="-4,4 -4,-497.2 572,-497.2 572,4 -4,4"/>
<text text-anchor="middle" x="72.4936" y="-7.3" font-family="Helvetica,sans-Serif" font-size="11.00" fill="#000000">Generated by SchemaSpy</text>
<!-- arquivo_campanha -->
<g id="node1" class="node">
<title>arquivo_campanha</title>
<g id="a_node1"><a xlink:href="../../tables/arquivo_campanha.html" xlink:title="arquivo_campanha" target="_top">
<polygon fill="#ffffff" stroke="transparent" points="400,-384.2 400,-489.2 536,-489.2 536,-384.2 400,-384.2"/>
<polygon fill="#f5f5f5" stroke="transparent" points="400,-465.7 400,-488.7 536,-488.7 536,-465.7 400,-465.7"/>
<polygon fill="none" stroke="#000000" points="400,-465.7 400,-488.7 536,-488.7 536,-465.7 400,-465.7"/>
<text text-anchor="start" x="404.7357" y="-474.8" font-family="Helvetica,sans-Serif" font-weight="bold" font-size="11.00" fill="#000000">arquivo_campanha</text>
<text text-anchor="start" x="501.5219" y="-473.8" font-family="Helvetica,sans-Serif" font-size="11.00" fill="#000000">[table]</text>
<polygon fill="none" stroke="#000000" points="400,-443.7 400,-465.7 536,-465.7 536,-443.7 400,-443.7"/>
<image xlink:href="../../images/primaryKeys.png" width="11px" height="12px" preserveAspectRatio="xMinYMin meet" x="405" y="-460.7"/>
<text text-anchor="start" x="423" y="-450.8" font-family="Helvetica,sans-Serif" font-size="11.00" fill="#000000">id</text>
<polygon fill="none" stroke="#000000" points="400,-421.7 400,-443.7 536,-443.7 536,-421.7 400,-421.7"/>
<image xlink:href="../../images/foreignKeys.png" width="11px" height="12px" preserveAspectRatio="xMinYMin meet" x="405" y="-438.7"/>
<text text-anchor="start" x="423" y="-428.8" font-family="Helvetica,sans-Serif" font-size="11.00" fill="#000000">campanha_id</text>
<polygon fill="none" stroke="#000000" points="400,-402.7 400,-421.7 536,-421.7 536,-402.7 400,-402.7"/>
<text text-anchor="start" x="403" y="-408.8" font-family="Helvetica,sans-Serif" font-size="11.00" fill="#000000">...</text>
<polygon fill="#ffffff" stroke="transparent" points="400,-383.7 400,-402.7 453,-402.7 453,-383.7 400,-383.7"/>
<polygon fill="none" stroke="#000000" points="400,-383.7 400,-402.7 453,-402.7 453,-383.7 400,-383.7"/>
<text text-anchor="start" x="403" y="-389.8" font-family="Helvetica,sans-Serif" font-size="11.00" fill="#000000">&lt; 1</text>
<polygon fill="#ffffff" stroke="transparent" points="453,-383.7 453,-402.7 507,-402.7 507,-383.7 453,-383.7"/>
<polygon fill="none" stroke="#000000" points="453,-383.7 453,-402.7 507,-402.7 507,-383.7 453,-383.7"/>
<text text-anchor="start" x="471.6105" y="-389.8" font-family="Helvetica,sans-Serif" font-size="11.00" fill="#000000">0 rows</text>
<polygon fill="#ffffff" stroke="transparent" points="507,-383.7 507,-402.7 536,-402.7 536,-383.7 507,-383.7"/>
<polygon fill="none" stroke="#000000" points="507,-383.7 507,-402.7 536,-402.7 536,-383.7 507,-383.7"/>
<text text-anchor="start" x="526.8862" y="-389.8" font-family="Helvetica,sans-Serif" font-size="11.00" fill="#000000"> &#160;</text>
</a>
</g>
</g>
<!-- campanha -->
<g id="node2" class="node">
<title>campanha</title>
<g id="a_node2"><a xlink:href="../../tables/campanha.html" xlink:title="campanha" target="_top">
<polygon fill="#ffffff" stroke="transparent" points="152,-142.7 152,-342.7 327,-342.7 327,-142.7 152,-142.7"/>
<polygon fill="#f5f5f5" stroke="transparent" points="154.5,-317.7 154.5,-340.7 325.5,-340.7 325.5,-317.7 154.5,-317.7"/>
<polygon fill="none" stroke="#000000" points="154.5,-317.7 154.5,-340.7 325.5,-340.7 325.5,-317.7 154.5,-317.7"/>
<text text-anchor="start" x="159.5" y="-326.8" font-family="Helvetica,sans-Serif" font-weight="bold" font-size="11.00" fill="#000000">campanha</text>
<text text-anchor="start" x="290.5437" y="-325.8" font-family="Helvetica,sans-Serif" font-size="11.00" fill="#000000">[table]</text>
<polygon fill="none" stroke="#000000" points="154.5,-295.7 154.5,-317.7 252.5,-317.7 252.5,-295.7 154.5,-295.7"/>
<image xlink:href="../../images/primaryKeys.png" width="11px" height="12px" preserveAspectRatio="xMinYMin meet" x="159.5" y="-312.7"/>
<text text-anchor="start" x="174.5" y="-302.8" font-family="Helvetica,sans-Serif" font-size="11.00" fill="#000000">id</text>
<polygon fill="none" stroke="#000000" points="252.5,-295.7 252.5,-317.7 325.5,-317.7 325.5,-295.7 252.5,-295.7"/>
<text text-anchor="start" x="255.5" y="-303.4" font-family="Helvetica,sans-Serif" font-size="11.00" fill="#000000">bigserial[19]</text>
<polygon fill="none" stroke="#000000" points="154.5,-273.7 154.5,-295.7 252.5,-295.7 252.5,-273.7 154.5,-273.7"/>
<text text-anchor="start" x="174.5" y="-280.8" font-family="Helvetica,sans-Serif" font-size="11.00" fill="#000000">titulo</text>
<polygon fill="none" stroke="#000000" points="252.5,-273.7 252.5,-295.7 325.5,-295.7 325.5,-273.7 252.5,-273.7"/>
<text text-anchor="start" x="255.5" y="-281.4" font-family="Helvetica,sans-Serif" font-size="11.00" fill="#000000">varchar[100]</text>
<polygon fill="none" stroke="#000000" points="154.5,-251.7 154.5,-273.7 252.5,-273.7 252.5,-251.7 154.5,-251.7"/>
<text text-anchor="start" x="174.5" y="-258.8" font-family="Helvetica,sans-Serif" font-size="11.00" fill="#000000">descricao</text>
<polygon fill="none" stroke="#000000" points="252.5,-251.7 252.5,-273.7 325.5,-273.7 325.5,-251.7 252.5,-251.7"/>
<text text-anchor="start" x="255.3791" y="-259.4" font-family="Helvetica,sans-Serif" font-size="11.00" fill="#000000">varchar[1000]</text>
<polygon fill="none" stroke="#000000" points="154.5,-229.7 154.5,-251.7 252.5,-251.7 252.5,-229.7 154.5,-229.7"/>
<text text-anchor="start" x="174.5" y="-236.8" font-family="Helvetica,sans-Serif" font-size="11.00" fill="#000000">requisitos</text>
<polygon fill="none" stroke="#000000" points="252.5,-229.7 252.5,-251.7 325.5,-251.7 325.5,-229.7 252.5,-229.7"/>
<text text-anchor="start" x="255.3791" y="-237.4" font-family="Helvetica,sans-Serif" font-size="11.00" fill="#000000">varchar[1000]</text>
<polygon fill="none" stroke="#000000" points="154.5,-207.7 154.5,-229.7 252.5,-229.7 252.5,-207.7 154.5,-207.7"/>
<text text-anchor="start" x="174.5" y="-214.8" font-family="Helvetica,sans-Serif" font-size="11.00" fill="#000000">data_inicio</text>
<polygon fill="none" stroke="#000000" points="252.5,-207.7 252.5,-229.7 325.5,-229.7 325.5,-207.7 252.5,-207.7"/>
<text text-anchor="start" x="255.5" y="-215.4" font-family="Helvetica,sans-Serif" font-size="11.00" fill="#000000">date[13]</text>
<polygon fill="none" stroke="#000000" points="154.5,-185.7 154.5,-207.7 252.5,-207.7 252.5,-185.7 154.5,-185.7"/>
<text text-anchor="start" x="174.5" y="-192.8" font-family="Helvetica,sans-Serif" font-size="11.00" fill="#000000">data_fim</text>
<polygon fill="none" stroke="#000000" points="252.5,-185.7 252.5,-207.7 325.5,-207.7 325.5,-185.7 252.5,-185.7"/>
<text text-anchor="start" x="255.5" y="-193.4" font-family="Helvetica,sans-Serif" font-size="11.00" fill="#000000">date[13]</text>
<polygon fill="none" stroke="#000000" points="154.5,-163.7 154.5,-185.7 252.5,-185.7 252.5,-163.7 154.5,-163.7"/>
<image xlink:href="../../images/foreignKeys.png" width="11px" height="12px" preserveAspectRatio="xMinYMin meet" x="159.5" y="-180.7"/>
<text text-anchor="start" x="174.5" y="-170.8" font-family="Helvetica,sans-Serif" font-size="11.00" fill="#000000">instituicao_id</text>
<polygon fill="none" stroke="#000000" points="252.5,-163.7 252.5,-185.7 325.5,-185.7 325.5,-163.7 252.5,-163.7"/>
<text text-anchor="start" x="255.5" y="-171.4" font-family="Helvetica,sans-Serif" font-size="11.00" fill="#000000">int4[10]</text>
<polygon fill="#ffffff" stroke="transparent" points="154.5,-144.7 154.5,-163.7 194.5,-163.7 194.5,-144.7 154.5,-144.7"/>
<polygon fill="none" stroke="#000000" points="154.5,-144.7 154.5,-163.7 194.5,-163.7 194.5,-144.7 154.5,-144.7"/>
<text text-anchor="start" x="157.5" y="-150.8" font-family="Helvetica,sans-Serif" font-size="11.00" fill="#000000">&lt; 1</text>
<polygon fill="#ffffff" stroke="transparent" points="194.5,-144.7 194.5,-163.7 252.5,-163.7 252.5,-144.7 194.5,-144.7"/>
<polygon fill="none" stroke="#000000" points="194.5,-144.7 194.5,-163.7 252.5,-163.7 252.5,-144.7 194.5,-144.7"/>
<text text-anchor="start" x="217.1105" y="-150.8" font-family="Helvetica,sans-Serif" font-size="11.00" fill="#000000">0 rows</text>
<polygon fill="#ffffff" stroke="transparent" points="252.5,-144.7 252.5,-163.7 325.5,-163.7 325.5,-144.7 252.5,-144.7"/>
<polygon fill="none" stroke="#000000" points="252.5,-144.7 252.5,-163.7 325.5,-163.7 325.5,-144.7 252.5,-144.7"/>
<text text-anchor="start" x="306.9053" y="-150.8" font-family="Helvetica,sans-Serif" font-size="11.00" fill="#000000">3 &gt;</text>
<polygon fill="none" stroke="#000000" stroke-width="2" points="153,-143.7 153,-341.7 326,-341.7 326,-143.7 153,-143.7"/>
</a>
</g>
</g>
<!-- arquivo_campanha&#45;&gt;campanha -->
<g id="edge1" class="edge">
<title>arquivo_campanha:w&#45;&gt;campanha:e</title>
<path fill="none" stroke="#000000" d="M385.748,-430.0683C343.6108,-411.9743 384.9657,-306.7 325.5,-306.7"/>
<polygon fill="#000000" stroke="#000000" points="392.133,-431.2473 399.3463,-436.2402 396.0665,-431.9736 400,-432.7 400,-432.7 400,-432.7 396.0665,-431.9736 400.6537,-429.1598 392.133,-431.2473 392.133,-431.2473"/>
<ellipse fill="none" stroke="#000000" cx="388.9862" cy="-430.6662" rx="3.2" ry="3.2"/>
</g>
<!-- instituicao -->
<g id="node3" class="node">
<title>instituicao</title>
<g id="a_node3"><a xlink:href="../../tables/instituicao.html" xlink:title="instituicao" target="_top">
<polygon fill="#ffffff" stroke="transparent" points="8,-38.2 8,-209.2 103,-209.2 103,-38.2 8,-38.2"/>
<polygon fill="#f5f5f5" stroke="transparent" points="8.5,-185.7 8.5,-208.7 103.5,-208.7 103.5,-185.7 8.5,-185.7"/>
<polygon fill="none" stroke="#000000" points="8.5,-185.7 8.5,-208.7 103.5,-208.7 103.5,-185.7 8.5,-185.7"/>
<text text-anchor="start" x="13.5" y="-194.8" font-family="Helvetica,sans-Serif" font-weight="bold" font-size="11.00" fill="#000000">instituicao</text>
<text text-anchor="start" x="68.5437" y="-193.8" font-family="Helvetica,sans-Serif" font-size="11.00" fill="#000000">[table]</text>
<polygon fill="none" stroke="#000000" points="8.5,-163.7 8.5,-185.7 103.5,-185.7 103.5,-163.7 8.5,-163.7"/>
<image xlink:href="../../images/primaryKeys.png" width="11px" height="12px" preserveAspectRatio="xMinYMin meet" x="13.5" y="-180.7"/>
<text text-anchor="start" x="28.5" y="-170.8" font-family="Helvetica,sans-Serif" font-size="11.00" fill="#000000">usuario_id</text>
<polygon fill="#ffffff" stroke="transparent" points="8.5,-141.7 8.5,-163.7 103.5,-163.7 103.5,-141.7 8.5,-141.7"/>
<polygon fill="none" stroke="#000000" points="8.5,-141.7 8.5,-163.7 103.5,-163.7 103.5,-141.7 8.5,-141.7"/>
<text text-anchor="start" x="28.5" y="-148.8" font-family="Helvetica,sans-Serif" font-size="11.00" fill="#000000">telefone</text>
<polygon fill="#ffffff" stroke="transparent" points="8.5,-119.7 8.5,-141.7 103.5,-141.7 103.5,-119.7 8.5,-119.7"/>
<polygon fill="none" stroke="#000000" points="8.5,-119.7 8.5,-141.7 103.5,-141.7 103.5,-119.7 8.5,-119.7"/>
<text text-anchor="start" x="28.5" y="-126.8" font-family="Helvetica,sans-Serif" font-size="11.00" fill="#000000">cnpj</text>
<polygon fill="#ffffff" stroke="transparent" points="8.5,-97.7 8.5,-119.7 103.5,-119.7 103.5,-97.7 8.5,-97.7"/>
<polygon fill="none" stroke="#000000" points="8.5,-97.7 8.5,-119.7 103.5,-119.7 103.5,-97.7 8.5,-97.7"/>
<text text-anchor="start" x="28.5" y="-104.8" font-family="Helvetica,sans-Serif" font-size="11.00" fill="#000000">cpf</text>
<polygon fill="none" stroke="#000000" points="8.5,-75.7 8.5,-97.7 103.5,-97.7 103.5,-75.7 8.5,-75.7"/>
<image xlink:href="../../images/foreignKeys.png" width="11px" height="12px" preserveAspectRatio="xMinYMin meet" x="13.5" y="-92.7"/>
<text text-anchor="start" x="28.5" y="-82.8" font-family="Helvetica,sans-Serif" font-size="11.00" fill="#000000">municipio_id</text>
<polygon fill="none" stroke="#000000" points="8.5,-56.7 8.5,-75.7 103.5,-75.7 103.5,-56.7 8.5,-56.7"/>
<text text-anchor="start" x="11.5" y="-62.8" font-family="Helvetica,sans-Serif" font-size="11.00" fill="#000000">...</text>
<polygon fill="#ffffff" stroke="transparent" points="8.5,-37.7 8.5,-56.7 36.5,-56.7 36.5,-37.7 8.5,-37.7"/>
<polygon fill="none" stroke="#000000" points="8.5,-37.7 8.5,-56.7 36.5,-56.7 36.5,-37.7 8.5,-37.7"/>
<text text-anchor="start" x="11.5" y="-43.8" font-family="Helvetica,sans-Serif" font-size="11.00" fill="#000000">&lt; 2</text>
<polygon fill="#ffffff" stroke="transparent" points="36.5,-37.7 36.5,-56.7 78.5,-56.7 78.5,-37.7 36.5,-37.7"/>
<polygon fill="none" stroke="#000000" points="36.5,-37.7 36.5,-56.7 78.5,-56.7 78.5,-37.7 36.5,-37.7"/>
<text text-anchor="start" x="43.1105" y="-43.8" font-family="Helvetica,sans-Serif" font-size="11.00" fill="#000000">0 rows</text>
<polygon fill="#ffffff" stroke="transparent" points="78.5,-37.7 78.5,-56.7 103.5,-56.7 103.5,-37.7 78.5,-37.7"/>
<polygon fill="none" stroke="#000000" points="78.5,-37.7 78.5,-56.7 103.5,-56.7 103.5,-37.7 78.5,-37.7"/>
<text text-anchor="start" x="84.9053" y="-43.8" font-family="Helvetica,sans-Serif" font-size="11.00" fill="#000000">2 &gt;</text>
</a>
</g>
</g>
<!-- campanha&#45;&gt;instituicao -->
<g id="edge2" class="edge">
<title>campanha:w&#45;&gt;instituicao:e</title>
<path fill="none" stroke="#000000" d="M139.776,-174.7C127.7815,-174.7 120.3229,-174.7 103.5,-174.7"/>
<polygon fill="#000000" stroke="#000000" points="146.5,-174.7001 154.5,-178.3 150.5,-174.7 154.5,-174.7 154.5,-174.7 154.5,-174.7 150.5,-174.7 154.5,-171.1 146.5,-174.7001 146.5,-174.7001"/>
<ellipse fill="none" stroke="#000000" cx="143.3" cy="-174.7001" rx="3.2" ry="3.2"/>
</g>
<!-- formulario -->
<g id="node4" class="node">
<title>formulario</title>
<g id="a_node4"><a xlink:href="../../tables/formulario.html" xlink:title="formulario" target="_top">
<polygon fill="#ffffff" stroke="transparent" points="419.5,-258.2 419.5,-363.2 516.5,-363.2 516.5,-258.2 419.5,-258.2"/>
<polygon fill="#f5f5f5" stroke="transparent" points="420,-339.7 420,-362.7 517,-362.7 517,-339.7 420,-339.7"/>
<polygon fill="none" stroke="#000000" points="420,-339.7 420,-362.7 517,-362.7 517,-339.7 420,-339.7"/>
<text text-anchor="start" x="425" y="-348.8" font-family="Helvetica,sans-Serif" font-weight="bold" font-size="11.00" fill="#000000">formulario</text>
<text text-anchor="start" x="482.0437" y="-347.8" font-family="Helvetica,sans-Serif" font-size="11.00" fill="#000000">[table]</text>
<polygon fill="none" stroke="#000000" points="420,-317.7 420,-339.7 517,-339.7 517,-317.7 420,-317.7"/>
<image xlink:href="../../images/primaryKeys.png" width="11px" height="12px" preserveAspectRatio="xMinYMin meet" x="425" y="-334.7"/>
<text text-anchor="start" x="440" y="-324.8" font-family="Helvetica,sans-Serif" font-size="11.00" fill="#000000">id</text>
<polygon fill="none" stroke="#000000" points="420,-295.7 420,-317.7 517,-317.7 517,-295.7 420,-295.7"/>
<image xlink:href="../../images/foreignKeys.png" width="11px" height="12px" preserveAspectRatio="xMinYMin meet" x="425" y="-312.7"/>
<text text-anchor="start" x="440" y="-302.8" font-family="Helvetica,sans-Serif" font-size="11.00" fill="#000000">campanha_id</text>
<polygon fill="none" stroke="#000000" points="420,-276.7 420,-295.7 517,-295.7 517,-276.7 420,-276.7"/>
<text text-anchor="start" x="423" y="-282.8" font-family="Helvetica,sans-Serif" font-size="11.00" fill="#000000">...</text>
<polygon fill="#ffffff" stroke="transparent" points="420,-257.7 420,-276.7 454,-276.7 454,-257.7 420,-257.7"/>
<polygon fill="none" stroke="#000000" points="420,-257.7 420,-276.7 454,-276.7 454,-257.7 420,-257.7"/>
<text text-anchor="start" x="423" y="-263.8" font-family="Helvetica,sans-Serif" font-size="11.00" fill="#000000">&lt; 1</text>
<polygon fill="#ffffff" stroke="transparent" points="454,-257.7 454,-276.7 498,-276.7 498,-257.7 454,-257.7"/>
<polygon fill="none" stroke="#000000" points="454,-257.7 454,-276.7 498,-276.7 498,-257.7 454,-257.7"/>
<text text-anchor="start" x="462.6105" y="-263.8" font-family="Helvetica,sans-Serif" font-size="11.00" fill="#000000">0 rows</text>
<polygon fill="#ffffff" stroke="transparent" points="498,-257.7 498,-276.7 517,-276.7 517,-257.7 498,-257.7"/>
<polygon fill="none" stroke="#000000" points="498,-257.7 498,-276.7 517,-276.7 517,-257.7 498,-257.7"/>
<text text-anchor="start" x="507.8862" y="-263.8" font-family="Helvetica,sans-Serif" font-size="11.00" fill="#000000"> &#160;</text>
</a>
</g>
</g>
<!-- formulario&#45;&gt;campanha -->
<g id="edge3" class="edge">
<title>formulario:w&#45;&gt;campanha:e</title>
<path fill="none" stroke="#000000" d="M405.1932,-306.7C374.7695,-306.7 362.0859,-306.7 325.5,-306.7"/>
<polygon fill="#000000" stroke="#000000" points="412,-306.7001 420,-310.3 416,-306.7 420,-306.7 420,-306.7 420,-306.7 416,-306.7 420,-303.1 412,-306.7001 412,-306.7001"/>
<ellipse fill="none" stroke="#000000" cx="408.8" cy="-306.7001" rx="3.2" ry="3.2"/>
</g>
<!-- pessoa_cadastra_campanha -->
<g id="node5" class="node">
<title>pessoa_cadastra_campanha</title>
<g id="a_node5"><a xlink:href="../../tables/pessoa_cadastra_campanha.html" xlink:title="pessoa_cadastra_campanha" target="_top">
<polygon fill="#ffffff" stroke="transparent" points="376,-132.2 376,-237.2 560,-237.2 560,-132.2 376,-132.2"/>
<polygon fill="#f5f5f5" stroke="transparent" points="376,-213.7 376,-236.7 560,-236.7 560,-213.7 376,-213.7"/>
<polygon fill="none" stroke="#000000" points="376,-213.7 376,-236.7 560,-236.7 560,-213.7 376,-213.7"/>
<text text-anchor="start" x="380.8905" y="-222.8" font-family="Helvetica,sans-Serif" font-weight="bold" font-size="11.00" fill="#000000">pessoa_cadastra_campanha</text>
<text text-anchor="start" x="525.5219" y="-221.8" font-family="Helvetica,sans-Serif" font-size="11.00" fill="#000000">[table]</text>
<polygon fill="#ffffff" stroke="transparent" points="376,-191.7 376,-213.7 560,-213.7 560,-191.7 376,-191.7"/>
<polygon fill="none" stroke="#000000" points="376,-191.7 376,-213.7 560,-213.7 560,-191.7 376,-191.7"/>
<image xlink:href="../../images/foreignKeys.png" width="11px" height="12px" preserveAspectRatio="xMinYMin meet" x="381" y="-208.7"/>
<text text-anchor="start" x="396" y="-198.8" font-family="Helvetica,sans-Serif" font-size="11.00" fill="#000000">pessoa_id</text>
<polygon fill="#ffffff" stroke="transparent" points="376,-169.7 376,-191.7 560,-191.7 560,-169.7 376,-169.7"/>
<polygon fill="none" stroke="#000000" points="376,-169.7 376,-191.7 560,-191.7 560,-169.7 376,-169.7"/>
<image xlink:href="../../images/foreignKeys.png" width="11px" height="12px" preserveAspectRatio="xMinYMin meet" x="381" y="-186.7"/>
<text text-anchor="start" x="396" y="-176.8" font-family="Helvetica,sans-Serif" font-size="11.00" fill="#000000">campanha_id</text>
<polygon fill="none" stroke="#000000" points="376,-150.7 376,-169.7 560,-169.7 560,-150.7 376,-150.7"/>
<text text-anchor="start" x="379" y="-156.8" font-family="Helvetica,sans-Serif" font-size="11.00" fill="#000000">...</text>
<polygon fill="#ffffff" stroke="transparent" points="376,-131.7 376,-150.7 453,-150.7 453,-131.7 376,-131.7"/>
<polygon fill="none" stroke="#000000" points="376,-131.7 376,-150.7 453,-150.7 453,-131.7 376,-131.7"/>
<text text-anchor="start" x="379" y="-137.8" font-family="Helvetica,sans-Serif" font-size="11.00" fill="#000000">&lt; 2</text>
<polygon fill="#ffffff" stroke="transparent" points="453,-131.7 453,-150.7 519,-150.7 519,-131.7 453,-131.7"/>
<polygon fill="none" stroke="#000000" points="453,-131.7 453,-150.7 519,-150.7 519,-131.7 453,-131.7"/>
<text text-anchor="start" x="483.6105" y="-137.8" font-family="Helvetica,sans-Serif" font-size="11.00" fill="#000000">0 rows</text>
<polygon fill="#ffffff" stroke="transparent" points="519,-131.7 519,-150.7 560,-150.7 560,-131.7 519,-131.7"/>
<polygon fill="none" stroke="#000000" points="519,-131.7 519,-150.7 560,-150.7 560,-131.7 519,-131.7"/>
<text text-anchor="start" x="550.8862" y="-137.8" font-family="Helvetica,sans-Serif" font-size="11.00" fill="#000000"> &#160;</text>
</a>
</g>
</g>
<!-- pessoa_cadastra_campanha&#45;&gt;campanha -->
<g id="edge4" class="edge">
<title>pessoa_cadastra_campanha:w&#45;&gt;campanha:e</title>
<path fill="none" stroke="#000000" d="M361.8154,-184.0702C328.1284,-204.1077 379.9387,-306.7 325.5,-306.7"/>
<polygon fill="#000000" stroke="#000000" points="368.2167,-182.5493 376.8322,-184.2025 372.1083,-181.6247 376,-180.7 376,-180.7 376,-180.7 372.1083,-181.6247 375.1678,-177.1975 368.2167,-182.5493 368.2167,-182.5493"/>
<ellipse fill="none" stroke="#000000" cx="365.1033" cy="-183.2891" rx="3.2" ry="3.2"/>
</g>
</g>
</svg>
