<?xml version="1.0" encoding="UTF-8" standalone="no"?>
<!DOCTYPE svg PUBLIC "-//W3C//DTD SVG 1.1//EN"
 "http://www.w3.org/Graphics/SVG/1.1/DTD/svg11.dtd">
<!-- Generated by graphviz version 2.40.1 (20161225.0304)
 -->
<!-- Title: oneDegreeRelationshipsDiagram Pages: 1 -->
<svg width="578pt" height="449pt"
 viewBox="0.00 0.00 578.00 449.20" xmlns="http://www.w3.org/2000/svg" xmlns:xlink="http://www.w3.org/1999/xlink">
<g id="graph0" class="graph" transform="scale(1 1) rotate(0) translate(4 445.2)">
<title>oneDegreeRelationshipsDiagram</title>
<polygon fill="#ffffff" stroke="transparent" points="-4,4 -4,-445.2 574,-445.2 574,4 -4,4"/>
<text text-anchor="middle" x="72.4936" y="-7.3" font-family="Helvetica,sans-Serif" font-size="11.00" fill="#000000">Generated by SchemaSpy</text>
<!-- arquivo_campanha -->
<g id="node1" class="node">
<title>arquivo_campanha</title>
<g id="a_node1"><a xlink:href="../../tables/arquivo_campanha.html" xlink:title="arquivo_campanha" target="_top">
<polygon fill="#ffffff" stroke="transparent" points="402,-332.2 402,-437.2 538,-437.2 538,-332.2 402,-332.2"/>
<polygon fill="#f5f5f5" stroke="transparent" points="402,-413.7 402,-436.7 538,-436.7 538,-413.7 402,-413.7"/>
<polygon fill="none" stroke="#000000" points="402,-413.7 402,-436.7 538,-436.7 538,-413.7 402,-413.7"/>
<text text-anchor="start" x="406.7357" y="-422.8" font-family="Helvetica,sans-Serif" font-weight="bold" font-size="11.00" fill="#000000">arquivo_campanha</text>
<text text-anchor="start" x="503.5219" y="-421.8" font-family="Helvetica,sans-Serif" font-size="11.00" fill="#000000">[table]</text>
<polygon fill="none" stroke="#000000" points="402,-391.7 402,-413.7 538,-413.7 538,-391.7 402,-391.7"/>
<image xlink:href="../../images/primaryKeys.png" width="11px" height="12px" preserveAspectRatio="xMinYMin meet" x="407" y="-408.7"/>
<text text-anchor="start" x="425" y="-398.8" font-family="Helvetica,sans-Serif" font-size="11.00" fill="#000000">id</text>
<polygon fill="none" stroke="#000000" points="402,-369.7 402,-391.7 538,-391.7 538,-369.7 402,-369.7"/>
<image xlink:href="../../images/foreignKeys.png" width="11px" height="12px" preserveAspectRatio="xMinYMin meet" x="407" y="-386.7"/>
<text text-anchor="start" x="425" y="-376.8" font-family="Helvetica,sans-Serif" font-size="11.00" fill="#000000">campanha_id</text>
<polygon fill="none" stroke="#000000" points="402,-350.7 402,-369.7 538,-369.7 538,-350.7 402,-350.7"/>
<text text-anchor="start" x="405" y="-356.8" font-family="Helvetica,sans-Serif" font-size="11.00" fill="#000000">...</text>
<polygon fill="#ffffff" stroke="transparent" points="402,-331.7 402,-350.7 455,-350.7 455,-331.7 402,-331.7"/>
<polygon fill="none" stroke="#000000" points="402,-331.7 402,-350.7 455,-350.7 455,-331.7 402,-331.7"/>
<text text-anchor="start" x="405" y="-337.8" font-family="Helvetica,sans-Serif" font-size="11.00" fill="#000000">&lt; 1</text>
<polygon fill="#ffffff" stroke="transparent" points="455,-331.7 455,-350.7 509,-350.7 509,-331.7 455,-331.7"/>
<polygon fill="none" stroke="#000000" points="455,-331.7 455,-350.7 509,-350.7 509,-331.7 455,-331.7"/>
<text text-anchor="start" x="473.6105" y="-337.8" font-family="Helvetica,sans-Serif" font-size="11.00" fill="#000000">0 rows</text>
<polygon fill="#ffffff" stroke="transparent" points="509,-331.7 509,-350.7 538,-350.7 538,-331.7 509,-331.7"/>
<polygon fill="none" stroke="#000000" points="509,-331.7 509,-350.7 538,-350.7 538,-331.7 509,-331.7"/>
<text text-anchor="start" x="528.8862" y="-337.8" font-family="Helvetica,sans-Serif" font-size="11.00" fill="#000000"> &#160;</text>
</a>
</g>
</g>
<!-- campanha -->
<g id="node2" class="node">
<title>campanha</title>
<g id="a_node2"><a xlink:href="../../tables/campanha.html" xlink:title="campanha" target="_top">
<polygon fill="#ffffff" stroke="transparent" points="154,-120.7 154,-342.7 329,-342.7 329,-120.7 154,-120.7"/>
<polygon fill="#f5f5f5" stroke="transparent" points="156.5,-317.7 156.5,-340.7 327.5,-340.7 327.5,-317.7 156.5,-317.7"/>
<polygon fill="none" stroke="#000000" points="156.5,-317.7 156.5,-340.7 327.5,-340.7 327.5,-317.7 156.5,-317.7"/>
<text text-anchor="start" x="161.5" y="-326.8" font-family="Helvetica,sans-Serif" font-weight="bold" font-size="11.00" fill="#000000">campanha</text>
<text text-anchor="start" x="292.5437" y="-325.8" font-family="Helvetica,sans-Serif" font-size="11.00" fill="#000000">[table]</text>
<polygon fill="none" stroke="#000000" points="156.5,-295.7 156.5,-317.7 254.5,-317.7 254.5,-295.7 156.5,-295.7"/>
<image xlink:href="../../images/primaryKeys.png" width="11px" height="12px" preserveAspectRatio="xMinYMin meet" x="161.5" y="-312.7"/>
<text text-anchor="start" x="176.5" y="-302.8" font-family="Helvetica,sans-Serif" font-size="11.00" fill="#000000">id</text>
<polygon fill="none" stroke="#000000" points="254.5,-295.7 254.5,-317.7 327.5,-317.7 327.5,-295.7 254.5,-295.7"/>
<text text-anchor="start" x="257.5" y="-303.4" font-family="Helvetica,sans-Serif" font-size="11.00" fill="#000000">bigserial[19]</text>
<polygon fill="none" stroke="#000000" points="156.5,-273.7 156.5,-295.7 254.5,-295.7 254.5,-273.7 156.5,-273.7"/>
<text text-anchor="start" x="176.5" y="-280.8" font-family="Helvetica,sans-Serif" font-size="11.00" fill="#000000">titulo</text>
<polygon fill="none" stroke="#000000" points="254.5,-273.7 254.5,-295.7 327.5,-295.7 327.5,-273.7 254.5,-273.7"/>
<text text-anchor="start" x="257.5" y="-281.4" font-family="Helvetica,sans-Serif" font-size="11.00" fill="#000000">varchar[100]</text>
<polygon fill="none" stroke="#000000" points="156.5,-251.7 156.5,-273.7 254.5,-273.7 254.5,-251.7 156.5,-251.7"/>
<text text-anchor="start" x="176.5" y="-258.8" font-family="Helvetica,sans-Serif" font-size="11.00" fill="#000000">descricao</text>
<polygon fill="none" stroke="#000000" points="254.5,-251.7 254.5,-273.7 327.5,-273.7 327.5,-251.7 254.5,-251.7"/>
<text text-anchor="start" x="257.3791" y="-259.4" font-family="Helvetica,sans-Serif" font-size="11.00" fill="#000000">varchar[1000]</text>
<polygon fill="none" stroke="#000000" points="156.5,-229.7 156.5,-251.7 254.5,-251.7 254.5,-229.7 156.5,-229.7"/>
<text text-anchor="start" x="176.5" y="-236.8" font-family="Helvetica,sans-Serif" font-size="11.00" fill="#000000">requisitos</text>
<polygon fill="none" stroke="#000000" points="254.5,-229.7 254.5,-251.7 327.5,-251.7 327.5,-229.7 254.5,-229.7"/>
<text text-anchor="start" x="257.3791" y="-237.4" font-family="Helvetica,sans-Serif" font-size="11.00" fill="#000000">varchar[1000]</text>
<polygon fill="none" stroke="#000000" points="156.5,-207.7 156.5,-229.7 254.5,-229.7 254.5,-207.7 156.5,-207.7"/>
<text text-anchor="start" x="176.5" y="-214.8" font-family="Helvetica,sans-Serif" font-size="11.00" fill="#000000">data_inicio</text>
<polygon fill="none" stroke="#000000" points="254.5,-207.7 254.5,-229.7 327.5,-229.7 327.5,-207.7 254.5,-207.7"/>
<text text-anchor="start" x="257.5" y="-215.4" font-family="Helvetica,sans-Serif" font-size="11.00" fill="#000000">date[13]</text>
<polygon fill="none" stroke="#000000" points="156.5,-185.7 156.5,-207.7 254.5,-207.7 254.5,-185.7 156.5,-185.7"/>
<text text-anchor="start" x="176.5" y="-192.8" font-family="Helvetica,sans-Serif" font-size="11.00" fill="#000000">data_fim</text>
<polygon fill="none" stroke="#000000" points="254.5,-185.7 254.5,-207.7 327.5,-207.7 327.5,-185.7 254.5,-185.7"/>
<text text-anchor="start" x="257.5" y="-193.4" font-family="Helvetica,sans-Serif" font-size="11.00" fill="#000000">date[13]</text>
<polygon fill="none" stroke="#000000" points="156.5,-163.7 156.5,-185.7 254.5,-185.7 254.5,-163.7 156.5,-163.7"/>
<image xlink:href="../../images/foreignKeys.png" width="11px" height="12px" preserveAspectRatio="xMinYMin meet" x="161.5" y="-180.7"/>
<text text-anchor="start" x="176.5" y="-170.8" font-family="Helvetica,sans-Serif" font-size="11.00" fill="#000000">instituicao_id</text>
<polygon fill="none" stroke="#000000" points="254.5,-163.7 254.5,-185.7 327.5,-185.7 327.5,-163.7 254.5,-163.7"/>
<text text-anchor="start" x="257.5" y="-171.4" font-family="Helvetica,sans-Serif" font-size="11.00" fill="#000000">int4[10]</text>
<polygon fill="none" stroke="#000000" points="156.5,-141.7 156.5,-163.7 254.5,-163.7 254.5,-141.7 156.5,-141.7"/>
<image xlink:href="../../images/foreignKeys.png" width="11px" height="12px" preserveAspectRatio="xMinYMin meet" x="161.5" y="-158.7"/>
<text text-anchor="start" x="176.5" y="-148.8" font-family="Helvetica,sans-Serif" font-size="11.00" fill="#000000">formulario_id</text>
<polygon fill="none" stroke="#000000" points="254.5,-141.7 254.5,-163.7 327.5,-163.7 327.5,-141.7 254.5,-141.7"/>
<text text-anchor="start" x="257.5" y="-149.4" font-family="Helvetica,sans-Serif" font-size="11.00" fill="#000000">int4[10]</text>
<polygon fill="#ffffff" stroke="transparent" points="156.5,-122.7 156.5,-141.7 196.5,-141.7 196.5,-122.7 156.5,-122.7"/>
<polygon fill="none" stroke="#000000" points="156.5,-122.7 156.5,-141.7 196.5,-141.7 196.5,-122.7 156.5,-122.7"/>
<text text-anchor="start" x="159.5" y="-128.8" font-family="Helvetica,sans-Serif" font-size="11.00" fill="#000000">&lt; 2</text>
<polygon fill="#ffffff" stroke="transparent" points="196.5,-122.7 196.5,-141.7 254.5,-141.7 254.5,-122.7 196.5,-122.7"/>
<polygon fill="none" stroke="#000000" points="196.5,-122.7 196.5,-141.7 254.5,-141.7 254.5,-122.7 196.5,-122.7"/>
<text text-anchor="start" x="219.1105" y="-128.8" font-family="Helvetica,sans-Serif" font-size="11.00" fill="#000000">0 rows</text>
<polygon fill="#ffffff" stroke="transparent" points="254.5,-122.7 254.5,-141.7 327.5,-141.7 327.5,-122.7 254.5,-122.7"/>
<polygon fill="none" stroke="#000000" points="254.5,-122.7 254.5,-141.7 327.5,-141.7 327.5,-122.7 254.5,-122.7"/>
<text text-anchor="start" x="308.9053" y="-128.8" font-family="Helvetica,sans-Serif" font-size="11.00" fill="#000000">3 &gt;</text>
<polygon fill="none" stroke="#000000" stroke-width="2" points="155,-121.7 155,-341.7 328,-341.7 328,-121.7 155,-121.7"/>
</a>
</g>
</g>
<!-- arquivo_campanha&#45;&gt;campanha -->
<g id="edge1" class="edge">
<title>arquivo_campanha:w&#45;&gt;campanha:e</title>
<path fill="none" stroke="#000000" d="M387.695,-377.7075C358.9326,-363.8632 368.518,-306.7 327.5,-306.7"/>
<polygon fill="#000000" stroke="#000000" points="394.1695,-379.0618 401.2628,-384.2237 398.0848,-379.8809 402,-380.7 402,-380.7 402,-380.7 398.0848,-379.8809 402.7372,-377.1763 394.1695,-379.0618 394.1695,-379.0618"/>
<ellipse fill="none" stroke="#000000" cx="391.0373" cy="-378.4066" rx="3.2" ry="3.2"/>
</g>
<!-- formulario -->
<g id="node3" class="node">
<title>formulario</title>
<g id="a_node3"><a xlink:href="../../tables/formulario.html" xlink:title="formulario" target="_top">
<polygon fill="#ffffff" stroke="transparent" points="8,-244.2 8,-349.2 105,-349.2 105,-244.2 8,-244.2"/>
<polygon fill="#f5f5f5" stroke="transparent" points="8.5,-325.7 8.5,-348.7 105.5,-348.7 105.5,-325.7 8.5,-325.7"/>
<polygon fill="none" stroke="#000000" points="8.5,-325.7 8.5,-348.7 105.5,-348.7 105.5,-325.7 8.5,-325.7"/>
<text text-anchor="start" x="13.5" y="-334.8" font-family="Helvetica,sans-Serif" font-weight="bold" font-size="11.00" fill="#000000">formulario</text>
<text text-anchor="start" x="70.5437" y="-333.8" font-family="Helvetica,sans-Serif" font-size="11.00" fill="#000000">[table]</text>
<polygon fill="none" stroke="#000000" points="8.5,-303.7 8.5,-325.7 105.5,-325.7 105.5,-303.7 8.5,-303.7"/>
<image xlink:href="../../images/primaryKeys.png" width="11px" height="12px" preserveAspectRatio="xMinYMin meet" x="13.5" y="-320.7"/>
<text text-anchor="start" x="28.5" y="-310.8" font-family="Helvetica,sans-Serif" font-size="11.00" fill="#000000">id</text>
<polygon fill="none" stroke="#000000" points="8.5,-281.7 8.5,-303.7 105.5,-303.7 105.5,-281.7 8.5,-281.7"/>
<image xlink:href="../../images/foreignKeys.png" width="11px" height="12px" preserveAspectRatio="xMinYMin meet" x="13.5" y="-298.7"/>
<text text-anchor="start" x="28.5" y="-288.8" font-family="Helvetica,sans-Serif" font-size="11.00" fill="#000000">campanha_id</text>
<polygon fill="none" stroke="#000000" points="8.5,-262.7 8.5,-281.7 105.5,-281.7 105.5,-262.7 8.5,-262.7"/>
<text text-anchor="start" x="11.5" y="-268.8" font-family="Helvetica,sans-Serif" font-size="11.00" fill="#000000">...</text>
<polygon fill="#ffffff" stroke="transparent" points="8.5,-243.7 8.5,-262.7 37.5,-262.7 37.5,-243.7 8.5,-243.7"/>
<polygon fill="none" stroke="#000000" points="8.5,-243.7 8.5,-262.7 37.5,-262.7 37.5,-243.7 8.5,-243.7"/>
<text text-anchor="start" x="11.5" y="-249.8" font-family="Helvetica,sans-Serif" font-size="11.00" fill="#000000">&lt; 1</text>
<polygon fill="#ffffff" stroke="transparent" points="37.5,-243.7 37.5,-262.7 79.5,-262.7 79.5,-243.7 37.5,-243.7"/>
<polygon fill="none" stroke="#000000" points="37.5,-243.7 37.5,-262.7 79.5,-262.7 79.5,-243.7 37.5,-243.7"/>
<text text-anchor="start" x="44.1105" y="-249.8" font-family="Helvetica,sans-Serif" font-size="11.00" fill="#000000">0 rows</text>
<polygon fill="#ffffff" stroke="transparent" points="79.5,-243.7 79.5,-262.7 105.5,-262.7 105.5,-243.7 79.5,-243.7"/>
<polygon fill="none" stroke="#000000" points="79.5,-243.7 79.5,-262.7 105.5,-262.7 105.5,-243.7 79.5,-243.7"/>
<text text-anchor="start" x="86.9053" y="-249.8" font-family="Helvetica,sans-Serif" font-size="11.00" fill="#000000">1 &gt;</text>
</a>
</g>
</g>
<!-- campanha&#45;&gt;formulario -->
<g id="edge2" class="edge">
<title>campanha:w&#45;&gt;formulario:e</title>
<path fill="none" stroke="#000000" d="M142.1497,-155.3767C95.2278,-176.4397 175.2339,-314.7 105.5,-314.7"/>
<polygon fill="#000000" stroke="#000000" points="148.6356,-154.1669 157.1601,-156.239 152.5678,-153.4335 156.5,-152.7 156.5,-152.7 156.5,-152.7 152.5678,-153.4335 155.8399,-149.161 148.6356,-154.1669 148.6356,-154.1669"/>
<ellipse fill="none" stroke="#000000" cx="145.4899" cy="-154.7537" rx="3.2" ry="3.2"/>
</g>
<!-- instituicao -->
<g id="node4" class="node">
<title>instituicao</title>
<g id="a_node4"><a xlink:href="../../tables/instituicao.html" xlink:title="instituicao" target="_top">
<polygon fill="#ffffff" stroke="transparent" points="9,-38.2 9,-209.2 104,-209.2 104,-38.2 9,-38.2"/>
<polygon fill="#f5f5f5" stroke="transparent" points="9.5,-185.7 9.5,-208.7 104.5,-208.7 104.5,-185.7 9.5,-185.7"/>
<polygon fill="none" stroke="#000000" points="9.5,-185.7 9.5,-208.7 104.5,-208.7 104.5,-185.7 9.5,-185.7"/>
<text text-anchor="start" x="14.5" y="-194.8" font-family="Helvetica,sans-Serif" font-weight="bold" font-size="11.00" fill="#000000">instituicao</text>
<text text-anchor="start" x="69.5437" y="-193.8" font-family="Helvetica,sans-Serif" font-size="11.00" fill="#000000">[table]</text>
<polygon fill="none" stroke="#000000" points="9.5,-163.7 9.5,-185.7 104.5,-185.7 104.5,-163.7 9.5,-163.7"/>
<image xlink:href="../../images/primaryKeys.png" width="11px" height="12px" preserveAspectRatio="xMinYMin meet" x="14.5" y="-180.7"/>
<text text-anchor="start" x="29.5" y="-170.8" font-family="Helvetica,sans-Serif" font-size="11.00" fill="#000000">usuario_id</text>
<polygon fill="#ffffff" stroke="transparent" points="9.5,-141.7 9.5,-163.7 104.5,-163.7 104.5,-141.7 9.5,-141.7"/>
<polygon fill="none" stroke="#000000" points="9.5,-141.7 9.5,-163.7 104.5,-163.7 104.5,-141.7 9.5,-141.7"/>
<text text-anchor="start" x="29.5" y="-148.8" font-family="Helvetica,sans-Serif" font-size="11.00" fill="#000000">telefone</text>
<polygon fill="#ffffff" stroke="transparent" points="9.5,-119.7 9.5,-141.7 104.5,-141.7 104.5,-119.7 9.5,-119.7"/>
<polygon fill="none" stroke="#000000" points="9.5,-119.7 9.5,-141.7 104.5,-141.7 104.5,-119.7 9.5,-119.7"/>
<text text-anchor="start" x="29.5" y="-126.8" font-family="Helvetica,sans-Serif" font-size="11.00" fill="#000000">cnpj</text>
<polygon fill="#ffffff" stroke="transparent" points="9.5,-97.7 9.5,-119.7 104.5,-119.7 104.5,-97.7 9.5,-97.7"/>
<polygon fill="none" stroke="#000000" points="9.5,-97.7 9.5,-119.7 104.5,-119.7 104.5,-97.7 9.5,-97.7"/>
<text text-anchor="start" x="29.5" y="-104.8" font-family="Helvetica,sans-Serif" font-size="11.00" fill="#000000">cpf</text>
<polygon fill="none" stroke="#000000" points="9.5,-75.7 9.5,-97.7 104.5,-97.7 104.5,-75.7 9.5,-75.7"/>
<image xlink:href="../../images/foreignKeys.png" width="11px" height="12px" preserveAspectRatio="xMinYMin meet" x="14.5" y="-92.7"/>
<text text-anchor="start" x="29.5" y="-82.8" font-family="Helvetica,sans-Serif" font-size="11.00" fill="#000000">municipio_id</text>
<polygon fill="none" stroke="#000000" points="9.5,-56.7 9.5,-75.7 104.5,-75.7 104.5,-56.7 9.5,-56.7"/>
<text text-anchor="start" x="12.5" y="-62.8" font-family="Helvetica,sans-Serif" font-size="11.00" fill="#000000">...</text>
<polygon fill="#ffffff" stroke="transparent" points="9.5,-37.7 9.5,-56.7 37.5,-56.7 37.5,-37.7 9.5,-37.7"/>
<polygon fill="none" stroke="#000000" points="9.5,-37.7 9.5,-56.7 37.5,-56.7 37.5,-37.7 9.5,-37.7"/>
<text text-anchor="start" x="12.5" y="-43.8" font-family="Helvetica,sans-Serif" font-size="11.00" fill="#000000">&lt; 2</text>
<polygon fill="#ffffff" stroke="transparent" points="37.5,-37.7 37.5,-56.7 79.5,-56.7 79.5,-37.7 37.5,-37.7"/>
<polygon fill="none" stroke="#000000" points="37.5,-37.7 37.5,-56.7 79.5,-56.7 79.5,-37.7 37.5,-37.7"/>
<text text-anchor="start" x="44.1105" y="-43.8" font-family="Helvetica,sans-Serif" font-size="11.00" fill="#000000">0 rows</text>
<polygon fill="#ffffff" stroke="transparent" points="79.5,-37.7 79.5,-56.7 104.5,-56.7 104.5,-37.7 79.5,-37.7"/>
<polygon fill="none" stroke="#000000" points="79.5,-37.7 79.5,-56.7 104.5,-56.7 104.5,-37.7 79.5,-37.7"/>
<text text-anchor="start" x="85.9053" y="-43.8" font-family="Helvetica,sans-Serif" font-size="11.00" fill="#000000">2 &gt;</text>
</a>
</g>
</g>
<!-- campanha&#45;&gt;instituicao -->
<g id="edge3" class="edge">
<title>campanha:w&#45;&gt;instituicao:e</title>
<path fill="none" stroke="#000000" d="M141.875,-174.7C129.4167,-174.7 121.8333,-174.7 104.5,-174.7"/>
<polygon fill="#000000" stroke="#000000" points="148.5,-174.7001 156.5,-178.3 152.5,-174.7 156.5,-174.7 156.5,-174.7 156.5,-174.7 152.5,-174.7 156.5,-171.1 148.5,-174.7001 148.5,-174.7001"/>
<ellipse fill="none" stroke="#000000" cx="145.3" cy="-174.7001" rx="3.2" ry="3.2"/>
</g>
<!-- formulario&#45;&gt;campanha -->
<g id="edge4" class="edge">
<title>formulario:w&#45;&gt;campanha:e</title>
<path fill="none" stroke="#000000" d="M21.735,-286.0508C49.8545,-271.9238 113,-240.2 113,-240.2 113,-240.2 327.5,-306.7 327.5,-306.7"/>
<polygon fill="#000000" stroke="#000000" points="15.6486,-289.1086 6.8839,-289.4831 12.0743,-290.9043 8.5,-292.7 8.5,-292.7 8.5,-292.7 12.0743,-290.9043 10.1161,-295.9169 15.6486,-289.1086 15.6486,-289.1086"/>
<ellipse fill="none" stroke="#000000" cx="18.508" cy="-287.672" rx="3.2" ry="3.2"/>
</g>
<!-- pessoa_cadastra_campanha -->
<g id="node5" class="node">
<title>pessoa_cadastra_campanha</title>
<g id="a_node5"><a xlink:href="../../tables/pessoa_cadastra_campanha.html" xlink:title="pessoa_cadastra_campanha" target="_top">
<polygon fill="#ffffff" stroke="transparent" points="378,-184.2 378,-311.2 562,-311.2 562,-184.2 378,-184.2"/>
<polygon fill="#f5f5f5" stroke="transparent" points="378,-287.7 378,-310.7 562,-310.7 562,-287.7 378,-287.7"/>
<polygon fill="none" stroke="#000000" points="378,-287.7 378,-310.7 562,-310.7 562,-287.7 378,-287.7"/>
<text text-anchor="start" x="382.8905" y="-296.8" font-family="Helvetica,sans-Serif" font-weight="bold" font-size="11.00" fill="#000000">pessoa_cadastra_campanha</text>
<text text-anchor="start" x="527.5219" y="-295.8" font-family="Helvetica,sans-Serif" font-size="11.00" fill="#000000">[table]</text>
<polygon fill="none" stroke="#000000" points="378,-265.7 378,-287.7 562,-287.7 562,-265.7 378,-265.7"/>
<image xlink:href="../../images/primaryKeys.png" width="11px" height="12px" preserveAspectRatio="xMinYMin meet" x="383" y="-282.7"/>
<text text-anchor="start" x="398" y="-272.8" font-family="Helvetica,sans-Serif" font-size="11.00" fill="#000000">id</text>
<polygon fill="#ffffff" stroke="transparent" points="378,-243.7 378,-265.7 562,-265.7 562,-243.7 378,-243.7"/>
<polygon fill="none" stroke="#000000" points="378,-243.7 378,-265.7 562,-265.7 562,-243.7 378,-243.7"/>
<image xlink:href="../../images/foreignKeys.png" width="11px" height="12px" preserveAspectRatio="xMinYMin meet" x="383" y="-260.7"/>
<text text-anchor="start" x="398" y="-250.8" font-family="Helvetica,sans-Serif" font-size="11.00" fill="#000000">pessoa_id</text>
<polygon fill="#ffffff" stroke="transparent" points="378,-221.7 378,-243.7 562,-243.7 562,-221.7 378,-221.7"/>
<polygon fill="none" stroke="#000000" points="378,-221.7 378,-243.7 562,-243.7 562,-221.7 378,-221.7"/>
<image xlink:href="../../images/foreignKeys.png" width="11px" height="12px" preserveAspectRatio="xMinYMin meet" x="383" y="-238.7"/>
<text text-anchor="start" x="398" y="-228.8" font-family="Helvetica,sans-Serif" font-size="11.00" fill="#000000">campanha_id</text>
<polygon fill="none" stroke="#000000" points="378,-202.7 378,-221.7 562,-221.7 562,-202.7 378,-202.7"/>
<text text-anchor="start" x="381" y="-208.8" font-family="Helvetica,sans-Serif" font-size="11.00" fill="#000000">...</text>
<polygon fill="#ffffff" stroke="transparent" points="378,-183.7 378,-202.7 455,-202.7 455,-183.7 378,-183.7"/>
<polygon fill="none" stroke="#000000" points="378,-183.7 378,-202.7 455,-202.7 455,-183.7 378,-183.7"/>
<text text-anchor="start" x="381" y="-189.8" font-family="Helvetica,sans-Serif" font-size="11.00" fill="#000000">&lt; 2</text>
<polygon fill="#ffffff" stroke="transparent" points="455,-183.7 455,-202.7 521,-202.7 521,-183.7 455,-183.7"/>
<polygon fill="none" stroke="#000000" points="455,-183.7 455,-202.7 521,-202.7 521,-183.7 455,-183.7"/>
<text text-anchor="start" x="485.6105" y="-189.8" font-family="Helvetica,sans-Serif" font-size="11.00" fill="#000000">0 rows</text>
<polygon fill="#ffffff" stroke="transparent" points="521,-183.7 521,-202.7 562,-202.7 562,-183.7 521,-183.7"/>
<polygon fill="none" stroke="#000000" points="521,-183.7 521,-202.7 562,-202.7 562,-183.7 521,-183.7"/>
<text text-anchor="start" x="552.8862" y="-189.8" font-family="Helvetica,sans-Serif" font-size="11.00" fill="#000000"> &#160;</text>
</a>
</g>
</g>
<!-- pessoa_cadastra_campanha&#45;&gt;campanha -->
<g id="edge5" class="edge">
<title>pessoa_cadastra_campanha:w&#45;&gt;campanha:e</title>
<path fill="none" stroke="#000000" d="M364.1154,-237.329C345.4593,-253.5294 361.2515,-306.7 327.5,-306.7"/>
<polygon fill="#000000" stroke="#000000" points="370.4107,-235.2303 379.1386,-236.1152 374.2053,-233.9651 378,-232.7 378,-232.7 378,-232.7 374.2053,-233.9651 376.8614,-229.2848 370.4107,-235.2303 370.4107,-235.2303"/>
<ellipse fill="none" stroke="#000000" cx="367.3749" cy="-236.2424" rx="3.2" ry="3.2"/>
</g>
</g>
</svg>
