<?xml version="1.0" encoding="UTF-8" standalone="no"?>
<!DOCTYPE svg PUBLIC "-//W3C//DTD SVG 1.1//EN"
 "http://www.w3.org/Graphics/SVG/1.1/DTD/svg11.dtd">
<!-- Generated by graphviz version 2.40.1 (20161225.0304)
 -->
<!-- Title: twoDegreesRelationshipsDiagram Pages: 1 -->
<svg width="714pt" height="520pt"
 viewBox="0.00 0.00 714.00 520.20" xmlns="http://www.w3.org/2000/svg" xmlns:xlink="http://www.w3.org/1999/xlink">
<g id="graph0" class="graph" transform="scale(1 1) rotate(0) translate(4 516.2)">
<title>twoDegreesRelationshipsDiagram</title>
<polygon fill="#ffffff" stroke="transparent" points="-4,4 -4,-516.2 710,-516.2 710,4 -4,4"/>
<text text-anchor="middle" x="72.4936" y="-7.3" font-family="Helvetica,sans-Serif" font-size="11.00" fill="#000000">Generated by SchemaSpy</text>
<!-- animal -->
<g id="node1" class="node">
<title>animal</title>
<g id="a_node1"><a xlink:href="../../tables/animal.html" xlink:title="animal" target="_top">
<polygon fill="#ffffff" stroke="transparent" points="337.5,-142.2 337.5,-203.2 417.5,-203.2 417.5,-142.2 337.5,-142.2"/>
<polygon fill="#f5f5f5" stroke="transparent" points="337.5,-179.7 337.5,-202.7 417.5,-202.7 417.5,-179.7 337.5,-179.7"/>
<polygon fill="none" stroke="#000000" points="337.5,-179.7 337.5,-202.7 417.5,-202.7 417.5,-179.7 337.5,-179.7"/>
<text text-anchor="start" x="342.5" y="-188.8" font-family="Helvetica,sans-Serif" font-weight="bold" font-size="11.00" fill="#000000">animal</text>
<text text-anchor="start" x="382.5437" y="-187.8" font-family="Helvetica,sans-Serif" font-size="11.00" fill="#000000">[table]</text>
<polygon fill="none" stroke="#000000" points="337.5,-160.7 337.5,-179.7 417.5,-179.7 417.5,-160.7 337.5,-160.7"/>
<text text-anchor="start" x="340.5" y="-166.8" font-family="Helvetica,sans-Serif" font-size="11.00" fill="#000000">...</text>
<polygon fill="#ffffff" stroke="transparent" points="337.5,-141.7 337.5,-160.7 358.5,-160.7 358.5,-141.7 337.5,-141.7"/>
<polygon fill="none" stroke="#000000" points="337.5,-141.7 337.5,-160.7 358.5,-160.7 358.5,-141.7 337.5,-141.7"/>
<text text-anchor="start" x="340.2027" y="-147.8" font-family="Helvetica,sans-Serif" font-size="11.00" fill="#000000">&lt; 1</text>
<polygon fill="#ffffff" stroke="transparent" points="358.5,-141.7 358.5,-160.7 396.5,-160.7 396.5,-141.7 358.5,-141.7"/>
<polygon fill="none" stroke="#000000" points="358.5,-141.7 358.5,-160.7 396.5,-160.7 396.5,-141.7 358.5,-141.7"/>
<text text-anchor="start" x="361.3053" y="-147.8" font-family="Helvetica,sans-Serif" font-size="11.00" fill="#000000">0 rows</text>
<polygon fill="#ffffff" stroke="transparent" points="396.5,-141.7 396.5,-160.7 417.5,-160.7 417.5,-141.7 396.5,-141.7"/>
<polygon fill="none" stroke="#000000" points="396.5,-141.7 396.5,-160.7 417.5,-160.7 417.5,-141.7 396.5,-141.7"/>
<text text-anchor="start" x="399.2027" y="-147.8" font-family="Helvetica,sans-Serif" font-size="11.00" fill="#000000">2 &gt;</text>
</a>
</g>
</g>
<!-- instituicao -->
<g id="node2" class="node">
<title>instituicao</title>
<g id="a_node2"><a xlink:href="../../tables/instituicao.html" xlink:title="instituicao" target="_top">
<polygon fill="#ffffff" stroke="transparent" points="146,-120.2 146,-291.2 241,-291.2 241,-120.2 146,-120.2"/>
<polygon fill="#f5f5f5" stroke="transparent" points="146.5,-267.7 146.5,-290.7 241.5,-290.7 241.5,-267.7 146.5,-267.7"/>
<polygon fill="none" stroke="#000000" points="146.5,-267.7 146.5,-290.7 241.5,-290.7 241.5,-267.7 146.5,-267.7"/>
<text text-anchor="start" x="151.5" y="-276.8" font-family="Helvetica,sans-Serif" font-weight="bold" font-size="11.00" fill="#000000">instituicao</text>
<text text-anchor="start" x="206.5437" y="-275.8" font-family="Helvetica,sans-Serif" font-size="11.00" fill="#000000">[table]</text>
<polygon fill="none" stroke="#000000" points="146.5,-245.7 146.5,-267.7 241.5,-267.7 241.5,-245.7 146.5,-245.7"/>
<image xlink:href="../../images/primaryKeys.png" width="11px" height="12px" preserveAspectRatio="xMinYMin meet" x="151.5" y="-262.7"/>
<text text-anchor="start" x="166.5" y="-252.8" font-family="Helvetica,sans-Serif" font-size="11.00" fill="#000000">usuario_id</text>
<polygon fill="#ffffff" stroke="transparent" points="146.5,-223.7 146.5,-245.7 241.5,-245.7 241.5,-223.7 146.5,-223.7"/>
<polygon fill="none" stroke="#000000" points="146.5,-223.7 146.5,-245.7 241.5,-245.7 241.5,-223.7 146.5,-223.7"/>
<text text-anchor="start" x="166.5" y="-230.8" font-family="Helvetica,sans-Serif" font-size="11.00" fill="#000000">telefone</text>
<polygon fill="#ffffff" stroke="transparent" points="146.5,-201.7 146.5,-223.7 241.5,-223.7 241.5,-201.7 146.5,-201.7"/>
<polygon fill="none" stroke="#000000" points="146.5,-201.7 146.5,-223.7 241.5,-223.7 241.5,-201.7 146.5,-201.7"/>
<text text-anchor="start" x="166.5" y="-208.8" font-family="Helvetica,sans-Serif" font-size="11.00" fill="#000000">cnpj</text>
<polygon fill="#ffffff" stroke="transparent" points="146.5,-179.7 146.5,-201.7 241.5,-201.7 241.5,-179.7 146.5,-179.7"/>
<polygon fill="none" stroke="#000000" points="146.5,-179.7 146.5,-201.7 241.5,-201.7 241.5,-179.7 146.5,-179.7"/>
<text text-anchor="start" x="166.5" y="-186.8" font-family="Helvetica,sans-Serif" font-size="11.00" fill="#000000">cpf</text>
<polygon fill="none" stroke="#000000" points="146.5,-157.7 146.5,-179.7 241.5,-179.7 241.5,-157.7 146.5,-157.7"/>
<image xlink:href="../../images/foreignKeys.png" width="11px" height="12px" preserveAspectRatio="xMinYMin meet" x="151.5" y="-174.7"/>
<text text-anchor="start" x="166.5" y="-164.8" font-family="Helvetica,sans-Serif" font-size="11.00" fill="#000000">municipio_id</text>
<polygon fill="none" stroke="#000000" points="146.5,-138.7 146.5,-157.7 241.5,-157.7 241.5,-138.7 146.5,-138.7"/>
<text text-anchor="start" x="149.5" y="-144.8" font-family="Helvetica,sans-Serif" font-size="11.00" fill="#000000">...</text>
<polygon fill="#ffffff" stroke="transparent" points="146.5,-119.7 146.5,-138.7 174.5,-138.7 174.5,-119.7 146.5,-119.7"/>
<polygon fill="none" stroke="#000000" points="146.5,-119.7 146.5,-138.7 174.5,-138.7 174.5,-119.7 146.5,-119.7"/>
<text text-anchor="start" x="149.5" y="-125.8" font-family="Helvetica,sans-Serif" font-size="11.00" fill="#000000">&lt; 2</text>
<polygon fill="#ffffff" stroke="transparent" points="174.5,-119.7 174.5,-138.7 216.5,-138.7 216.5,-119.7 174.5,-119.7"/>
<polygon fill="none" stroke="#000000" points="174.5,-119.7 174.5,-138.7 216.5,-138.7 216.5,-119.7 174.5,-119.7"/>
<text text-anchor="start" x="181.1105" y="-125.8" font-family="Helvetica,sans-Serif" font-size="11.00" fill="#000000">0 rows</text>
<polygon fill="#ffffff" stroke="transparent" points="216.5,-119.7 216.5,-138.7 241.5,-138.7 241.5,-119.7 216.5,-119.7"/>
<polygon fill="none" stroke="#000000" points="216.5,-119.7 216.5,-138.7 241.5,-138.7 241.5,-119.7 216.5,-119.7"/>
<text text-anchor="start" x="222.9053" y="-125.8" font-family="Helvetica,sans-Serif" font-size="11.00" fill="#000000">2 &gt;</text>
</a>
</g>
</g>
<!-- animal&#45;&gt;instituicao -->
<g id="edge1" class="edge">
<title>animal:w&#45;&gt;instituicao:e</title>
<path fill="none" stroke="#000000" d="M323.1081,-171.8307C304.8755,-178.0896 301.1941,-197.088 282,-214.7 262.8931,-232.232 267.4315,-256.7 241.5,-256.7"/>
<polygon fill="#000000" stroke="#000000" points="329.5863,-170.8717 338.0273,-173.2612 333.5431,-170.2858 337.5,-169.7 337.5,-169.7 337.5,-169.7 333.5431,-170.2858 336.9727,-166.1388 329.5863,-170.8717 329.5863,-170.8717"/>
<ellipse fill="none" stroke="#000000" cx="326.4208" cy="-171.3404" rx="3.2" ry="3.2"/>
</g>
<!-- municipio -->
<g id="node6" class="node">
<title>municipio</title>
<g id="a_node6"><a xlink:href="../../tables/municipio.html" xlink:title="municipio" target="_top">
<polygon fill="#ffffff" stroke="transparent" points="8,-89.2 8,-150.2 97,-150.2 97,-89.2 8,-89.2"/>
<polygon fill="#f5f5f5" stroke="transparent" points="8.5,-126.7 8.5,-149.7 97.5,-149.7 97.5,-126.7 8.5,-126.7"/>
<polygon fill="none" stroke="#000000" points="8.5,-126.7 8.5,-149.7 97.5,-149.7 97.5,-126.7 8.5,-126.7"/>
<text text-anchor="start" x="13.2779" y="-135.8" font-family="Helvetica,sans-Serif" font-weight="bold" font-size="11.00" fill="#000000">municipio</text>
<text text-anchor="start" x="63.0219" y="-134.8" font-family="Helvetica,sans-Serif" font-size="11.00" fill="#000000">[table]</text>
<polygon fill="none" stroke="#000000" points="8.5,-107.7 8.5,-126.7 97.5,-126.7 97.5,-107.7 8.5,-107.7"/>
<text text-anchor="start" x="11.5" y="-113.8" font-family="Helvetica,sans-Serif" font-size="11.00" fill="#000000">...</text>
<polygon fill="#ffffff" stroke="transparent" points="8.5,-88.7 8.5,-107.7 29.5,-107.7 29.5,-88.7 8.5,-88.7"/>
<polygon fill="none" stroke="#000000" points="8.5,-88.7 8.5,-107.7 29.5,-107.7 29.5,-88.7 8.5,-88.7"/>
<text text-anchor="start" x="11.5" y="-94.8" font-family="Helvetica,sans-Serif" font-size="11.00" fill="#000000"> &#160;</text>
<polygon fill="#ffffff" stroke="transparent" points="29.5,-88.7 29.5,-107.7 71.5,-107.7 71.5,-88.7 29.5,-88.7"/>
<polygon fill="none" stroke="#000000" points="29.5,-88.7 29.5,-107.7 71.5,-107.7 71.5,-88.7 29.5,-88.7"/>
<text text-anchor="start" x="36.1105" y="-94.8" font-family="Helvetica,sans-Serif" font-size="11.00" fill="#000000">0 rows</text>
<polygon fill="#ffffff" stroke="transparent" points="71.5,-88.7 71.5,-107.7 97.5,-107.7 97.5,-88.7 71.5,-88.7"/>
<polygon fill="none" stroke="#000000" points="71.5,-88.7 71.5,-107.7 97.5,-107.7 97.5,-88.7 71.5,-88.7"/>
<text text-anchor="start" x="78.9053" y="-94.8" font-family="Helvetica,sans-Serif" font-size="11.00" fill="#000000">2 &gt;</text>
</a>
</g>
</g>
<!-- instituicao&#45;&gt;municipio -->
<g id="edge5" class="edge">
<title>instituicao:w&#45;&gt;municipio:e</title>
<path fill="none" stroke="#000000" d="M132.9073,-163.9012C118.5597,-151.0281 123.3011,-116.7 97.5,-116.7"/>
<polygon fill="#000000" stroke="#000000" points="138.9563,-166.0367 145.3015,-172.0947 142.7282,-167.3684 146.5,-168.7 146.5,-168.7 146.5,-168.7 142.7282,-167.3684 147.6985,-165.3053 138.9563,-166.0367 138.9563,-166.0367"/>
<ellipse fill="none" stroke="#000000" cx="135.9388" cy="-164.9714" rx="3.2" ry="3.2"/>
</g>
<!-- usuario -->
<g id="node7" class="node">
<title>usuario</title>
<g id="a_node7"><a xlink:href="../../tables/usuario.html" xlink:title="usuario" target="_top">
<polygon fill="#ffffff" stroke="transparent" points="13,-200.2 13,-261.2 92,-261.2 92,-200.2 13,-200.2"/>
<polygon fill="#f5f5f5" stroke="transparent" points="13.5,-237.7 13.5,-260.7 92.5,-260.7 92.5,-237.7 13.5,-237.7"/>
<polygon fill="none" stroke="#000000" points="13.5,-237.7 13.5,-260.7 92.5,-260.7 92.5,-237.7 13.5,-237.7"/>
<text text-anchor="start" x="18.4688" y="-246.8" font-family="Helvetica,sans-Serif" font-weight="bold" font-size="11.00" fill="#000000">usuario</text>
<text text-anchor="start" x="58.0219" y="-245.8" font-family="Helvetica,sans-Serif" font-size="11.00" fill="#000000">[table]</text>
<polygon fill="none" stroke="#000000" points="13.5,-218.7 13.5,-237.7 92.5,-237.7 92.5,-218.7 13.5,-218.7"/>
<text text-anchor="start" x="16.5" y="-224.8" font-family="Helvetica,sans-Serif" font-size="11.00" fill="#000000">...</text>
<polygon fill="#ffffff" stroke="transparent" points="13.5,-199.7 13.5,-218.7 29.5,-218.7 29.5,-199.7 13.5,-199.7"/>
<polygon fill="none" stroke="#000000" points="13.5,-199.7 13.5,-218.7 29.5,-218.7 29.5,-199.7 13.5,-199.7"/>
<text text-anchor="start" x="16.5" y="-205.8" font-family="Helvetica,sans-Serif" font-size="11.00" fill="#000000"> &#160;</text>
<polygon fill="#ffffff" stroke="transparent" points="29.5,-199.7 29.5,-218.7 69.5,-218.7 69.5,-199.7 29.5,-199.7"/>
<polygon fill="none" stroke="#000000" points="29.5,-199.7 29.5,-218.7 69.5,-218.7 69.5,-199.7 29.5,-199.7"/>
<text text-anchor="start" x="34.1105" y="-205.8" font-family="Helvetica,sans-Serif" font-size="11.00" fill="#000000">0 rows</text>
<polygon fill="#ffffff" stroke="transparent" points="69.5,-199.7 69.5,-218.7 92.5,-218.7 92.5,-199.7 69.5,-199.7"/>
<polygon fill="none" stroke="#000000" points="69.5,-199.7 69.5,-218.7 92.5,-218.7 92.5,-199.7 69.5,-199.7"/>
<text text-anchor="start" x="73.9053" y="-205.8" font-family="Helvetica,sans-Serif" font-size="11.00" fill="#000000">2 &gt;</text>
</a>
</g>
</g>
<!-- instituicao&#45;&gt;usuario -->
<g id="edge6" class="edge">
<title>instituicao:w&#45;&gt;usuario:e</title>
<path fill="none" stroke="#000000" d="M136.0202,-254.9728C118.7908,-248.7296 115.6982,-227.7 92.5,-227.7"/>
<polygon fill="#000000" stroke="#000000" points="146.3612,-252.6231 145.0601,-260.5167 143.4814,-260.2564 144.7825,-252.3629 146.3612,-252.6231"/>
<polyline fill="none" stroke="#000000" points="146.5,-256.7 142.5532,-256.0495 "/>
<ellipse fill="none" stroke="#000000" cx="139.3958" cy="-255.5291" rx="3.2" ry="3.2"/>
</g>
<!-- arquivo_campanha -->
<g id="node3" class="node">
<title>arquivo_campanha</title>
<g id="a_node3"><a xlink:href="../../tables/arquivo_campanha.html" xlink:title="arquivo_campanha" target="_top">
<polygon fill="#ffffff" stroke="transparent" points="538,-277.2 538,-382.2 674,-382.2 674,-277.2 538,-277.2"/>
<polygon fill="#f5f5f5" stroke="transparent" points="538,-358.7 538,-381.7 674,-381.7 674,-358.7 538,-358.7"/>
<polygon fill="none" stroke="#000000" points="538,-358.7 538,-381.7 674,-381.7 674,-358.7 538,-358.7"/>
<text text-anchor="start" x="542.7357" y="-367.8" font-family="Helvetica,sans-Serif" font-weight="bold" font-size="11.00" fill="#000000">arquivo_campanha</text>
<text text-anchor="start" x="639.5219" y="-366.8" font-family="Helvetica,sans-Serif" font-size="11.00" fill="#000000">[table]</text>
<polygon fill="none" stroke="#000000" points="538,-336.7 538,-358.7 674,-358.7 674,-336.7 538,-336.7"/>
<image xlink:href="../../images/primaryKeys.png" width="11px" height="12px" preserveAspectRatio="xMinYMin meet" x="543" y="-353.7"/>
<text text-anchor="start" x="561" y="-343.8" font-family="Helvetica,sans-Serif" font-size="11.00" fill="#000000">id</text>
<polygon fill="none" stroke="#000000" points="538,-314.7 538,-336.7 674,-336.7 674,-314.7 538,-314.7"/>
<image xlink:href="../../images/foreignKeys.png" width="11px" height="12px" preserveAspectRatio="xMinYMin meet" x="543" y="-331.7"/>
<text text-anchor="start" x="561" y="-321.8" font-family="Helvetica,sans-Serif" font-size="11.00" fill="#000000">campanha_id</text>
<polygon fill="none" stroke="#000000" points="538,-295.7 538,-314.7 674,-314.7 674,-295.7 538,-295.7"/>
<text text-anchor="start" x="541" y="-301.8" font-family="Helvetica,sans-Serif" font-size="11.00" fill="#000000">...</text>
<polygon fill="#ffffff" stroke="transparent" points="538,-276.7 538,-295.7 591,-295.7 591,-276.7 538,-276.7"/>
<polygon fill="none" stroke="#000000" points="538,-276.7 538,-295.7 591,-295.7 591,-276.7 538,-276.7"/>
<text text-anchor="start" x="541" y="-282.8" font-family="Helvetica,sans-Serif" font-size="11.00" fill="#000000">&lt; 1</text>
<polygon fill="#ffffff" stroke="transparent" points="591,-276.7 591,-295.7 645,-295.7 645,-276.7 591,-276.7"/>
<polygon fill="none" stroke="#000000" points="591,-276.7 591,-295.7 645,-295.7 645,-276.7 591,-276.7"/>
<text text-anchor="start" x="609.6105" y="-282.8" font-family="Helvetica,sans-Serif" font-size="11.00" fill="#000000">0 rows</text>
<polygon fill="#ffffff" stroke="transparent" points="645,-276.7 645,-295.7 674,-295.7 674,-276.7 645,-276.7"/>
<polygon fill="none" stroke="#000000" points="645,-276.7 645,-295.7 674,-295.7 674,-276.7 645,-276.7"/>
<text text-anchor="start" x="664.8862" y="-282.8" font-family="Helvetica,sans-Serif" font-size="11.00" fill="#000000"> &#160;</text>
</a>
</g>
</g>
<!-- campanha -->
<g id="node4" class="node">
<title>campanha</title>
<g id="a_node4"><a xlink:href="../../tables/campanha.html" xlink:title="campanha" target="_top">
<polygon fill="#ffffff" stroke="transparent" points="290,-224.7 290,-424.7 465,-424.7 465,-224.7 290,-224.7"/>
<polygon fill="#f5f5f5" stroke="transparent" points="292.5,-399.7 292.5,-422.7 463.5,-422.7 463.5,-399.7 292.5,-399.7"/>
<polygon fill="none" stroke="#000000" points="292.5,-399.7 292.5,-422.7 463.5,-422.7 463.5,-399.7 292.5,-399.7"/>
<text text-anchor="start" x="297.5" y="-408.8" font-family="Helvetica,sans-Serif" font-weight="bold" font-size="11.00" fill="#000000">campanha</text>
<text text-anchor="start" x="428.5437" y="-407.8" font-family="Helvetica,sans-Serif" font-size="11.00" fill="#000000">[table]</text>
<polygon fill="none" stroke="#000000" points="292.5,-377.7 292.5,-399.7 390.5,-399.7 390.5,-377.7 292.5,-377.7"/>
<image xlink:href="../../images/primaryKeys.png" width="11px" height="12px" preserveAspectRatio="xMinYMin meet" x="297.5" y="-394.7"/>
<text text-anchor="start" x="312.5" y="-384.8" font-family="Helvetica,sans-Serif" font-size="11.00" fill="#000000">id</text>
<polygon fill="none" stroke="#000000" points="390.5,-377.7 390.5,-399.7 463.5,-399.7 463.5,-377.7 390.5,-377.7"/>
<text text-anchor="start" x="393.5" y="-385.4" font-family="Helvetica,sans-Serif" font-size="11.00" fill="#000000">bigserial[19]</text>
<polygon fill="none" stroke="#000000" points="292.5,-355.7 292.5,-377.7 390.5,-377.7 390.5,-355.7 292.5,-355.7"/>
<text text-anchor="start" x="312.5" y="-362.8" font-family="Helvetica,sans-Serif" font-size="11.00" fill="#000000">titulo</text>
<polygon fill="none" stroke="#000000" points="390.5,-355.7 390.5,-377.7 463.5,-377.7 463.5,-355.7 390.5,-355.7"/>
<text text-anchor="start" x="393.5" y="-363.4" font-family="Helvetica,sans-Serif" font-size="11.00" fill="#000000">varchar[100]</text>
<polygon fill="none" stroke="#000000" points="292.5,-333.7 292.5,-355.7 390.5,-355.7 390.5,-333.7 292.5,-333.7"/>
<text text-anchor="start" x="312.5" y="-340.8" font-family="Helvetica,sans-Serif" font-size="11.00" fill="#000000">descricao</text>
<polygon fill="none" stroke="#000000" points="390.5,-333.7 390.5,-355.7 463.5,-355.7 463.5,-333.7 390.5,-333.7"/>
<text text-anchor="start" x="393.3791" y="-341.4" font-family="Helvetica,sans-Serif" font-size="11.00" fill="#000000">varchar[1000]</text>
<polygon fill="none" stroke="#000000" points="292.5,-311.7 292.5,-333.7 390.5,-333.7 390.5,-311.7 292.5,-311.7"/>
<text text-anchor="start" x="312.5" y="-318.8" font-family="Helvetica,sans-Serif" font-size="11.00" fill="#000000">requisitos</text>
<polygon fill="none" stroke="#000000" points="390.5,-311.7 390.5,-333.7 463.5,-333.7 463.5,-311.7 390.5,-311.7"/>
<text text-anchor="start" x="393.3791" y="-319.4" font-family="Helvetica,sans-Serif" font-size="11.00" fill="#000000">varchar[1000]</text>
<polygon fill="none" stroke="#000000" points="292.5,-289.7 292.5,-311.7 390.5,-311.7 390.5,-289.7 292.5,-289.7"/>
<text text-anchor="start" x="312.5" y="-296.8" font-family="Helvetica,sans-Serif" font-size="11.00" fill="#000000">data_inicio</text>
<polygon fill="none" stroke="#000000" points="390.5,-289.7 390.5,-311.7 463.5,-311.7 463.5,-289.7 390.5,-289.7"/>
<text text-anchor="start" x="393.5" y="-297.4" font-family="Helvetica,sans-Serif" font-size="11.00" fill="#000000">date[13]</text>
<polygon fill="none" stroke="#000000" points="292.5,-267.7 292.5,-289.7 390.5,-289.7 390.5,-267.7 292.5,-267.7"/>
<text text-anchor="start" x="312.5" y="-274.8" font-family="Helvetica,sans-Serif" font-size="11.00" fill="#000000">data_fim</text>
<polygon fill="none" stroke="#000000" points="390.5,-267.7 390.5,-289.7 463.5,-289.7 463.5,-267.7 390.5,-267.7"/>
<text text-anchor="start" x="393.5" y="-275.4" font-family="Helvetica,sans-Serif" font-size="11.00" fill="#000000">date[13]</text>
<polygon fill="none" stroke="#000000" points="292.5,-245.7 292.5,-267.7 390.5,-267.7 390.5,-245.7 292.5,-245.7"/>
<image xlink:href="../../images/foreignKeys.png" width="11px" height="12px" preserveAspectRatio="xMinYMin meet" x="297.5" y="-262.7"/>
<text text-anchor="start" x="312.5" y="-252.8" font-family="Helvetica,sans-Serif" font-size="11.00" fill="#000000">instituicao_id</text>
<polygon fill="none" stroke="#000000" points="390.5,-245.7 390.5,-267.7 463.5,-267.7 463.5,-245.7 390.5,-245.7"/>
<text text-anchor="start" x="393.5" y="-253.4" font-family="Helvetica,sans-Serif" font-size="11.00" fill="#000000">int4[10]</text>
<polygon fill="#ffffff" stroke="transparent" points="292.5,-226.7 292.5,-245.7 332.5,-245.7 332.5,-226.7 292.5,-226.7"/>
<polygon fill="none" stroke="#000000" points="292.5,-226.7 292.5,-245.7 332.5,-245.7 332.5,-226.7 292.5,-226.7"/>
<text text-anchor="start" x="295.5" y="-232.8" font-family="Helvetica,sans-Serif" font-size="11.00" fill="#000000">&lt; 1</text>
<polygon fill="#ffffff" stroke="transparent" points="332.5,-226.7 332.5,-245.7 390.5,-245.7 390.5,-226.7 332.5,-226.7"/>
<polygon fill="none" stroke="#000000" points="332.5,-226.7 332.5,-245.7 390.5,-245.7 390.5,-226.7 332.5,-226.7"/>
<text text-anchor="start" x="355.1105" y="-232.8" font-family="Helvetica,sans-Serif" font-size="11.00" fill="#000000">0 rows</text>
<polygon fill="#ffffff" stroke="transparent" points="390.5,-226.7 390.5,-245.7 463.5,-245.7 463.5,-226.7 390.5,-226.7"/>
<polygon fill="none" stroke="#000000" points="390.5,-226.7 390.5,-245.7 463.5,-245.7 463.5,-226.7 390.5,-226.7"/>
<text text-anchor="start" x="444.9053" y="-232.8" font-family="Helvetica,sans-Serif" font-size="11.00" fill="#000000">3 &gt;</text>
<polygon fill="none" stroke="#000000" stroke-width="2" points="291,-225.7 291,-423.7 464,-423.7 464,-225.7 291,-225.7"/>
</a>
</g>
</g>
<!-- arquivo_campanha&#45;&gt;campanha -->
<g id="edge2" class="edge">
<title>arquivo_campanha:w&#45;&gt;campanha:e</title>
<path fill="none" stroke="#000000" d="M523.7637,-328.5707C496.8653,-340.8953 501.2732,-388.7 463.5,-388.7"/>
<polygon fill="#000000" stroke="#000000" points="530.1578,-327.2814 538.7116,-329.229 534.0789,-326.4907 538,-325.7 538,-325.7 538,-325.7 534.0789,-326.4907 537.2884,-322.171 530.1578,-327.2814 530.1578,-327.2814"/>
<ellipse fill="none" stroke="#000000" cx="527.021" cy="-327.9139" rx="3.2" ry="3.2"/>
</g>
<!-- campanha&#45;&gt;instituicao -->
<g id="edge3" class="edge">
<title>campanha:w&#45;&gt;instituicao:e</title>
<path fill="none" stroke="#000000" d="M277.776,-256.7C265.7815,-256.7 258.3229,-256.7 241.5,-256.7"/>
<polygon fill="#000000" stroke="#000000" points="284.5,-256.7001 292.5,-260.3 288.5,-256.7 292.5,-256.7 292.5,-256.7 292.5,-256.7 288.5,-256.7 292.5,-253.1 284.5,-256.7001 284.5,-256.7001"/>
<ellipse fill="none" stroke="#000000" cx="281.3" cy="-256.7001" rx="3.2" ry="3.2"/>
</g>
<!-- formulario -->
<g id="node5" class="node">
<title>formulario</title>
<g id="a_node5"><a xlink:href="../../tables/formulario.html" xlink:title="formulario" target="_top">
<polygon fill="#ffffff" stroke="transparent" points="557.5,-403.2 557.5,-508.2 654.5,-508.2 654.5,-403.2 557.5,-403.2"/>
<polygon fill="#f5f5f5" stroke="transparent" points="558,-484.7 558,-507.7 655,-507.7 655,-484.7 558,-484.7"/>
<polygon fill="none" stroke="#000000" points="558,-484.7 558,-507.7 655,-507.7 655,-484.7 558,-484.7"/>
<text text-anchor="start" x="563" y="-493.8" font-family="Helvetica,sans-Serif" font-weight="bold" font-size="11.00" fill="#000000">formulario</text>
<text text-anchor="start" x="620.0437" y="-492.8" font-family="Helvetica,sans-Serif" font-size="11.00" fill="#000000">[table]</text>
<polygon fill="none" stroke="#000000" points="558,-462.7 558,-484.7 655,-484.7 655,-462.7 558,-462.7"/>
<image xlink:href="../../images/primaryKeys.png" width="11px" height="12px" preserveAspectRatio="xMinYMin meet" x="563" y="-479.7"/>
<text text-anchor="start" x="578" y="-469.8" font-family="Helvetica,sans-Serif" font-size="11.00" fill="#000000">id</text>
<polygon fill="none" stroke="#000000" points="558,-440.7 558,-462.7 655,-462.7 655,-440.7 558,-440.7"/>
<image xlink:href="../../images/foreignKeys.png" width="11px" height="12px" preserveAspectRatio="xMinYMin meet" x="563" y="-457.7"/>
<text text-anchor="start" x="578" y="-447.8" font-family="Helvetica,sans-Serif" font-size="11.00" fill="#000000">campanha_id</text>
<polygon fill="none" stroke="#000000" points="558,-421.7 558,-440.7 655,-440.7 655,-421.7 558,-421.7"/>
<text text-anchor="start" x="561" y="-427.8" font-family="Helvetica,sans-Serif" font-size="11.00" fill="#000000">...</text>
<polygon fill="#ffffff" stroke="transparent" points="558,-402.7 558,-421.7 592,-421.7 592,-402.7 558,-402.7"/>
<polygon fill="none" stroke="#000000" points="558,-402.7 558,-421.7 592,-421.7 592,-402.7 558,-402.7"/>
<text text-anchor="start" x="561" y="-408.8" font-family="Helvetica,sans-Serif" font-size="11.00" fill="#000000">&lt; 1</text>
<polygon fill="#ffffff" stroke="transparent" points="592,-402.7 592,-421.7 636,-421.7 636,-402.7 592,-402.7"/>
<polygon fill="none" stroke="#000000" points="592,-402.7 592,-421.7 636,-421.7 636,-402.7 592,-402.7"/>
<text text-anchor="start" x="600.6105" y="-408.8" font-family="Helvetica,sans-Serif" font-size="11.00" fill="#000000">0 rows</text>
<polygon fill="#ffffff" stroke="transparent" points="636,-402.7 636,-421.7 655,-421.7 655,-402.7 636,-402.7"/>
<polygon fill="none" stroke="#000000" points="636,-402.7 636,-421.7 655,-421.7 655,-402.7 636,-402.7"/>
<text text-anchor="start" x="645.8862" y="-408.8" font-family="Helvetica,sans-Serif" font-size="11.00" fill="#000000"> &#160;</text>
</a>
</g>
</g>
<!-- formulario&#45;&gt;campanha -->
<g id="edge4" class="edge">
<title>formulario:w&#45;&gt;campanha:e</title>
<path fill="none" stroke="#000000" d="M543.3313,-449.6039C508.2533,-438.6724 508.4567,-388.7 463.5,-388.7"/>
<polygon fill="#000000" stroke="#000000" points="550.0804,-450.5683 557.4907,-455.2638 554.0402,-451.1341 558,-451.7 558,-451.7 558,-451.7 554.0402,-451.1341 558.5093,-448.1362 550.0804,-450.5683 550.0804,-450.5683"/>
<ellipse fill="none" stroke="#000000" cx="546.9126" cy="-450.1156" rx="3.2" ry="3.2"/>
</g>
<!-- pessoa -->
<g id="node8" class="node">
<title>pessoa</title>
<g id="a_node8"><a xlink:href="../../tables/pessoa.html" xlink:title="pessoa" target="_top">
<polygon fill="#ffffff" stroke="transparent" points="153.5,-38.2 153.5,-99.2 233.5,-99.2 233.5,-38.2 153.5,-38.2"/>
<polygon fill="#f5f5f5" stroke="transparent" points="153.5,-75.7 153.5,-98.7 233.5,-98.7 233.5,-75.7 153.5,-75.7"/>
<polygon fill="none" stroke="#000000" points="153.5,-75.7 153.5,-98.7 233.5,-98.7 233.5,-75.7 153.5,-75.7"/>
<text text-anchor="start" x="158.5" y="-84.8" font-family="Helvetica,sans-Serif" font-weight="bold" font-size="11.00" fill="#000000">pessoa</text>
<text text-anchor="start" x="198.5437" y="-83.8" font-family="Helvetica,sans-Serif" font-size="11.00" fill="#000000">[table]</text>
<polygon fill="none" stroke="#000000" points="153.5,-56.7 153.5,-75.7 233.5,-75.7 233.5,-56.7 153.5,-56.7"/>
<text text-anchor="start" x="156.5" y="-62.8" font-family="Helvetica,sans-Serif" font-size="11.00" fill="#000000">...</text>
<polygon fill="#ffffff" stroke="transparent" points="153.5,-37.7 153.5,-56.7 174.5,-56.7 174.5,-37.7 153.5,-37.7"/>
<polygon fill="none" stroke="#000000" points="153.5,-37.7 153.5,-56.7 174.5,-56.7 174.5,-37.7 153.5,-37.7"/>
<text text-anchor="start" x="156.2027" y="-43.8" font-family="Helvetica,sans-Serif" font-size="11.00" fill="#000000">&lt; 2</text>
<polygon fill="#ffffff" stroke="transparent" points="174.5,-37.7 174.5,-56.7 212.5,-56.7 212.5,-37.7 174.5,-37.7"/>
<polygon fill="none" stroke="#000000" points="174.5,-37.7 174.5,-56.7 212.5,-56.7 212.5,-37.7 174.5,-37.7"/>
<text text-anchor="start" x="177.3053" y="-43.8" font-family="Helvetica,sans-Serif" font-size="11.00" fill="#000000">0 rows</text>
<polygon fill="#ffffff" stroke="transparent" points="212.5,-37.7 212.5,-56.7 233.5,-56.7 233.5,-37.7 212.5,-37.7"/>
<polygon fill="none" stroke="#000000" points="212.5,-37.7 212.5,-56.7 233.5,-56.7 233.5,-37.7 212.5,-37.7"/>
<text text-anchor="start" x="215.2027" y="-43.8" font-family="Helvetica,sans-Serif" font-size="11.00" fill="#000000">2 &gt;</text>
</a>
</g>
</g>
<!-- pessoa&#45;&gt;municipio -->
<g id="edge7" class="edge">
<title>pessoa:w&#45;&gt;municipio:e</title>
<path fill="none" stroke="#000000" d="M139.1891,-70.0482C122.4545,-82.3815 125.1146,-116.7 97.5,-116.7"/>
<polygon fill="#000000" stroke="#000000" points="145.8455,-68.0258 154.5466,-69.1445 149.6728,-66.8629 153.5,-65.7 153.5,-65.7 153.5,-65.7 149.6728,-66.8629 152.4534,-62.2555 145.8455,-68.0258 145.8455,-68.0258"/>
<ellipse fill="none" stroke="#000000" cx="142.7837" cy="-68.9561" rx="3.2" ry="3.2"/>
</g>
<!-- pessoa&#45;&gt;usuario -->
<g id="edge8" class="edge">
<title>pessoa:w&#45;&gt;usuario:e</title>
<path fill="none" stroke="#000000" d="M143.0486,-66.9108C85.5591,-81.7354 165.5283,-227.7 92.5,-227.7"/>
<polygon fill="#000000" stroke="#000000" points="152.2449,-61.8187 153.1657,-69.7655 151.5763,-69.9496 150.6556,-62.0028 152.2449,-61.8187"/>
<polyline fill="none" stroke="#000000" points="153.5,-65.7 149.5266,-66.1604 "/>
<ellipse fill="none" stroke="#000000" cx="146.3478" cy="-66.5287" rx="3.2" ry="3.2"/>
</g>
<!-- pessoa_cadastra_campanha -->
<g id="node9" class="node">
<title>pessoa_cadastra_campanha</title>
<g id="a_node9"><a xlink:href="../../tables/pessoa_cadastra_campanha.html" xlink:title="pessoa_cadastra_campanha" target="_top">
<polygon fill="#ffffff" stroke="transparent" points="514,-105.2 514,-210.2 698,-210.2 698,-105.2 514,-105.2"/>
<polygon fill="#f5f5f5" stroke="transparent" points="514,-186.7 514,-209.7 698,-209.7 698,-186.7 514,-186.7"/>
<polygon fill="none" stroke="#000000" points="514,-186.7 514,-209.7 698,-209.7 698,-186.7 514,-186.7"/>
<text text-anchor="start" x="518.8905" y="-195.8" font-family="Helvetica,sans-Serif" font-weight="bold" font-size="11.00" fill="#000000">pessoa_cadastra_campanha</text>
<text text-anchor="start" x="663.5219" y="-194.8" font-family="Helvetica,sans-Serif" font-size="11.00" fill="#000000">[table]</text>
<polygon fill="#ffffff" stroke="transparent" points="514,-164.7 514,-186.7 698,-186.7 698,-164.7 514,-164.7"/>
<polygon fill="none" stroke="#000000" points="514,-164.7 514,-186.7 698,-186.7 698,-164.7 514,-164.7"/>
<image xlink:href="../../images/foreignKeys.png" width="11px" height="12px" preserveAspectRatio="xMinYMin meet" x="519" y="-181.7"/>
<text text-anchor="start" x="534" y="-171.8" font-family="Helvetica,sans-Serif" font-size="11.00" fill="#000000">pessoa_id</text>
<polygon fill="#ffffff" stroke="transparent" points="514,-142.7 514,-164.7 698,-164.7 698,-142.7 514,-142.7"/>
<polygon fill="none" stroke="#000000" points="514,-142.7 514,-164.7 698,-164.7 698,-142.7 514,-142.7"/>
<image xlink:href="../../images/foreignKeys.png" width="11px" height="12px" preserveAspectRatio="xMinYMin meet" x="519" y="-159.7"/>
<text text-anchor="start" x="534" y="-149.8" font-family="Helvetica,sans-Serif" font-size="11.00" fill="#000000">campanha_id</text>
<polygon fill="none" stroke="#000000" points="514,-123.7 514,-142.7 698,-142.7 698,-123.7 514,-123.7"/>
<text text-anchor="start" x="517" y="-129.8" font-family="Helvetica,sans-Serif" font-size="11.00" fill="#000000">...</text>
<polygon fill="#ffffff" stroke="transparent" points="514,-104.7 514,-123.7 591,-123.7 591,-104.7 514,-104.7"/>
<polygon fill="none" stroke="#000000" points="514,-104.7 514,-123.7 591,-123.7 591,-104.7 514,-104.7"/>
<text text-anchor="start" x="517" y="-110.8" font-family="Helvetica,sans-Serif" font-size="11.00" fill="#000000">&lt; 2</text>
<polygon fill="#ffffff" stroke="transparent" points="591,-104.7 591,-123.7 657,-123.7 657,-104.7 591,-104.7"/>
<polygon fill="none" stroke="#000000" points="591,-104.7 591,-123.7 657,-123.7 657,-104.7 591,-104.7"/>
<text text-anchor="start" x="621.6105" y="-110.8" font-family="Helvetica,sans-Serif" font-size="11.00" fill="#000000">0 rows</text>
<polygon fill="#ffffff" stroke="transparent" points="657,-104.7 657,-123.7 698,-123.7 698,-104.7 657,-104.7"/>
<polygon fill="none" stroke="#000000" points="657,-104.7 657,-123.7 698,-123.7 698,-104.7 657,-104.7"/>
<text text-anchor="start" x="688.8862" y="-110.8" font-family="Helvetica,sans-Serif" font-size="11.00" fill="#000000"> &#160;</text>
</a>
</g>
</g>
<!-- pessoa_cadastra_campanha&#45;&gt;campanha -->
<g id="edge9" class="edge">
<title>pessoa_cadastra_campanha:w&#45;&gt;campanha:e</title>
<path fill="none" stroke="#000000" d="M499.2726,-155.5916C423.6284,-177.8316 564.6953,-388.7 463.5,-388.7"/>
<polygon fill="#000000" stroke="#000000" points="506.0652,-154.7192 514.4586,-157.2707 510.0326,-154.2096 514,-153.7 514,-153.7 514,-153.7 510.0326,-154.2096 513.5414,-150.1293 506.0652,-154.7192 506.0652,-154.7192"/>
<ellipse fill="none" stroke="#000000" cx="502.8913" cy="-155.1269" rx="3.2" ry="3.2"/>
</g>
<!-- pessoa_cadastra_campanha&#45;&gt;pessoa -->
<g id="edge10" class="edge">
<title>pessoa_cadastra_campanha:w&#45;&gt;pessoa:e</title>
<path fill="none" stroke="#000000" d="M500.1666,-171.3297C489.5693,-162.4634 490.5023,-142.3056 473,-131.7 378.5714,-74.4802 343.9122,-65.7 233.5,-65.7"/>
<polygon fill="#000000" stroke="#000000" points="506.3716,-173.29 512.9155,-179.1328 510.1858,-174.495 514,-175.7 514,-175.7 514,-175.7 510.1858,-174.495 515.0845,-172.2672 506.3716,-173.29 506.3716,-173.29"/>
<ellipse fill="none" stroke="#000000" cx="503.3203" cy="-172.326" rx="3.2" ry="3.2"/>
</g>
</g>
</svg>
