<?xml version="1.0" encoding="UTF-8" standalone="no"?>
<!DOCTYPE svg PUBLIC "-//W3C//DTD SVG 1.1//EN"
 "http://www.w3.org/Graphics/SVG/1.1/DTD/svg11.dtd">
<!-- Generated by graphviz version 2.40.1 (20161225.0304)
 -->
<!-- Title: oneDegreeRelationshipsDiagram Pages: 1 -->
<svg width="339pt" height="201pt"
 viewBox="0.00 0.00 339.00 200.70" xmlns="http://www.w3.org/2000/svg" xmlns:xlink="http://www.w3.org/1999/xlink">
<g id="graph0" class="graph" transform="scale(1 1) rotate(0) translate(4 196.7)">
<title>oneDegreeRelationshipsDiagram</title>
<polygon fill="#ffffff" stroke="transparent" points="-4,4 -4,-196.7 335,-196.7 335,4 -4,4"/>
<text text-anchor="middle" x="72.4936" y="-7.3" font-family="Helvetica,sans-Serif" font-size="11.00" fill="#000000">Generated by SchemaSpy</text>
<!-- formulario -->
<g id="node1" class="node">
<title>formulario</title>
<g id="a_node1"><a xlink:href="../../tables/formulario.html" xlink:title="formulario" target="_top">
<polygon fill="#ffffff" stroke="transparent" points="155,-76.7 155,-188.7 323,-188.7 323,-76.7 155,-76.7"/>
<polygon fill="#f5f5f5" stroke="transparent" points="157,-163.7 157,-186.7 321,-186.7 321,-163.7 157,-163.7"/>
<polygon fill="none" stroke="#000000" points="157,-163.7 157,-186.7 321,-186.7 321,-163.7 157,-163.7"/>
<text text-anchor="start" x="162" y="-172.8" font-family="Helvetica,sans-Serif" font-weight="bold" font-size="11.00" fill="#000000">formulario</text>
<text text-anchor="start" x="286.0437" y="-171.8" font-family="Helvetica,sans-Serif" font-size="11.00" fill="#000000">[table]</text>
<polygon fill="none" stroke="#000000" points="157,-141.7 157,-163.7 254,-163.7 254,-141.7 157,-141.7"/>
<image xlink:href="../../images/primaryKeys.png" width="11px" height="12px" preserveAspectRatio="xMinYMin meet" x="162" y="-158.7"/>
<text text-anchor="start" x="177" y="-148.8" font-family="Helvetica,sans-Serif" font-size="11.00" fill="#000000">id</text>
<polygon fill="none" stroke="#000000" points="254,-141.7 254,-163.7 321,-163.7 321,-141.7 254,-141.7"/>
<text text-anchor="start" x="257" y="-149.4" font-family="Helvetica,sans-Serif" font-size="11.00" fill="#000000">bigserial[19]</text>
<polygon fill="none" stroke="#000000" points="157,-119.7 157,-141.7 254,-141.7 254,-119.7 157,-119.7"/>
<text text-anchor="start" x="177" y="-126.8" font-family="Helvetica,sans-Serif" font-size="11.00" fill="#000000">url</text>
<polygon fill="none" stroke="#000000" points="254,-119.7 254,-141.7 321,-141.7 321,-119.7 254,-119.7"/>
<text text-anchor="start" x="256.9365" y="-127.4" font-family="Helvetica,sans-Serif" font-size="11.00" fill="#000000">varchar[300]</text>
<polygon fill="none" stroke="#000000" points="157,-97.7 157,-119.7 254,-119.7 254,-97.7 157,-97.7"/>
<image xlink:href="../../images/foreignKeys.png" width="11px" height="12px" preserveAspectRatio="xMinYMin meet" x="162" y="-114.7"/>
<text text-anchor="start" x="177" y="-104.8" font-family="Helvetica,sans-Serif" font-size="11.00" fill="#000000">campanha_id</text>
<polygon fill="none" stroke="#000000" points="254,-97.7 254,-119.7 321,-119.7 321,-97.7 254,-97.7"/>
<text text-anchor="start" x="257" y="-105.4" font-family="Helvetica,sans-Serif" font-size="11.00" fill="#000000">int4[10]</text>
<polygon fill="#ffffff" stroke="transparent" points="157,-78.7 157,-97.7 197,-97.7 197,-78.7 157,-78.7"/>
<polygon fill="none" stroke="#000000" points="157,-78.7 157,-97.7 197,-97.7 197,-78.7 157,-78.7"/>
<text text-anchor="start" x="160" y="-84.8" font-family="Helvetica,sans-Serif" font-size="11.00" fill="#000000">&lt; 1</text>
<polygon fill="#ffffff" stroke="transparent" points="197,-78.7 197,-97.7 254,-97.7 254,-78.7 197,-78.7"/>
<polygon fill="none" stroke="#000000" points="197,-78.7 197,-97.7 254,-97.7 254,-78.7 197,-78.7"/>
<text text-anchor="start" x="218.6105" y="-84.8" font-family="Helvetica,sans-Serif" font-size="11.00" fill="#000000">0 rows</text>
<polygon fill="#ffffff" stroke="transparent" points="254,-78.7 254,-97.7 321,-97.7 321,-78.7 254,-78.7"/>
<polygon fill="none" stroke="#000000" points="254,-78.7 254,-97.7 321,-97.7 321,-78.7 254,-78.7"/>
<text text-anchor="start" x="302.4053" y="-84.8" font-family="Helvetica,sans-Serif" font-size="11.00" fill="#000000">0 &gt;</text>
<polygon fill="none" stroke="#000000" stroke-width="2" points="156,-77.7 156,-187.7 322,-187.7 322,-77.7 156,-77.7"/>
</a>
</g>
</g>
<!-- campanha -->
<g id="node2" class="node">
<title>campanha</title>
<g id="a_node2"><a xlink:href="../../tables/campanha.html" xlink:title="campanha" target="_top">
<polygon fill="#ffffff" stroke="transparent" points="8,-38.2 8,-143.2 106,-143.2 106,-38.2 8,-38.2"/>
<polygon fill="#f5f5f5" stroke="transparent" points="8,-119.7 8,-142.7 106,-142.7 106,-119.7 8,-119.7"/>
<polygon fill="none" stroke="#000000" points="8,-119.7 8,-142.7 106,-142.7 106,-119.7 8,-119.7"/>
<text text-anchor="start" x="13" y="-128.8" font-family="Helvetica,sans-Serif" font-weight="bold" font-size="11.00" fill="#000000">campanha</text>
<text text-anchor="start" x="71.0437" y="-127.8" font-family="Helvetica,sans-Serif" font-size="11.00" fill="#000000">[table]</text>
<polygon fill="none" stroke="#000000" points="8,-97.7 8,-119.7 106,-119.7 106,-97.7 8,-97.7"/>
<image xlink:href="../../images/primaryKeys.png" width="11px" height="12px" preserveAspectRatio="xMinYMin meet" x="13" y="-114.7"/>
<text text-anchor="start" x="28" y="-104.8" font-family="Helvetica,sans-Serif" font-size="11.00" fill="#000000">id</text>
<polygon fill="none" stroke="#000000" points="8,-75.7 8,-97.7 106,-97.7 106,-75.7 8,-75.7"/>
<image xlink:href="../../images/foreignKeys.png" width="11px" height="12px" preserveAspectRatio="xMinYMin meet" x="13" y="-92.7"/>
<text text-anchor="start" x="28" y="-82.8" font-family="Helvetica,sans-Serif" font-size="11.00" fill="#000000">instituicao_id</text>
<polygon fill="none" stroke="#000000" points="8,-56.7 8,-75.7 106,-75.7 106,-56.7 8,-56.7"/>
<text text-anchor="start" x="11" y="-62.8" font-family="Helvetica,sans-Serif" font-size="11.00" fill="#000000">...</text>
<polygon fill="#ffffff" stroke="transparent" points="8,-37.7 8,-56.7 38,-56.7 38,-37.7 8,-37.7"/>
<polygon fill="none" stroke="#000000" points="8,-37.7 8,-56.7 38,-56.7 38,-37.7 8,-37.7"/>
<text text-anchor="start" x="11" y="-43.8" font-family="Helvetica,sans-Serif" font-size="11.00" fill="#000000">&lt; 1</text>
<polygon fill="#ffffff" stroke="transparent" points="38,-37.7 38,-56.7 80,-56.7 80,-37.7 38,-37.7"/>
<polygon fill="none" stroke="#000000" points="38,-37.7 38,-56.7 80,-56.7 80,-37.7 38,-37.7"/>
<text text-anchor="start" x="44.6105" y="-43.8" font-family="Helvetica,sans-Serif" font-size="11.00" fill="#000000">0 rows</text>
<polygon fill="#ffffff" stroke="transparent" points="80,-37.7 80,-56.7 106,-56.7 106,-37.7 80,-37.7"/>
<polygon fill="none" stroke="#000000" points="80,-37.7 80,-56.7 106,-56.7 106,-37.7 80,-37.7"/>
<text text-anchor="start" x="87.4053" y="-43.8" font-family="Helvetica,sans-Serif" font-size="11.00" fill="#000000">3 &gt;</text>
</a>
</g>
</g>
<!-- formulario&#45;&gt;campanha -->
<g id="edge1" class="edge">
<title>formulario:w&#45;&gt;campanha:e</title>
<path fill="none" stroke="#000000" d="M142.276,-108.7C130.2815,-108.7 122.8229,-108.7 106,-108.7"/>
<polygon fill="#000000" stroke="#000000" points="149,-108.7001 157,-112.3 153,-108.7 157,-108.7 157,-108.7 157,-108.7 153,-108.7 157,-105.1 149,-108.7001 149,-108.7001"/>
<ellipse fill="none" stroke="#000000" cx="145.8" cy="-108.7001" rx="3.2" ry="3.2"/>
</g>
</g>
</svg>
