<?xml version="1.0" encoding="UTF-8" standalone="no"?>
<!DOCTYPE svg PUBLIC "-//W3C//DTD SVG 1.1//EN"
 "http://www.w3.org/Graphics/SVG/1.1/DTD/svg11.dtd">
<!-- Generated by graphviz version 2.40.1 (20161225.0304)
 -->
<!-- Title: oneDegreeRelationshipsDiagram Pages: 1 -->
<svg width="339pt" height="179pt"
 viewBox="0.00 0.00 339.00 178.70" xmlns="http://www.w3.org/2000/svg" xmlns:xlink="http://www.w3.org/1999/xlink">
<g id="graph0" class="graph" transform="scale(1 1) rotate(0) translate(4 174.7)">
<title>oneDegreeRelationshipsDiagram</title>
<polygon fill="#ffffff" stroke="transparent" points="-4,4 -4,-174.7 335,-174.7 335,4 -4,4"/>
<text text-anchor="middle" x="72.4936" y="-7.3" font-family="Helvetica,sans-Serif" font-size="11.00" fill="#000000">Generated by SchemaSpy</text>
<!-- campanha -->
<g id="node1" class="node">
<title>campanha</title>
<g id="a_node1"><a xlink:href="../../tables/campanha.html" xlink:title="campanha" target="_top">
<polygon fill="#ffffff" stroke="transparent" points="225,-38.2 225,-165.2 323,-165.2 323,-38.2 225,-38.2"/>
<polygon fill="#f5f5f5" stroke="transparent" points="225,-141.7 225,-164.7 323,-164.7 323,-141.7 225,-141.7"/>
<polygon fill="none" stroke="#000000" points="225,-141.7 225,-164.7 323,-164.7 323,-141.7 225,-141.7"/>
<text text-anchor="start" x="230" y="-150.8" font-family="Helvetica,sans-Serif" font-weight="bold" font-size="11.00" fill="#000000">campanha</text>
<text text-anchor="start" x="288.0437" y="-149.8" font-family="Helvetica,sans-Serif" font-size="11.00" fill="#000000">[table]</text>
<polygon fill="none" stroke="#000000" points="225,-119.7 225,-141.7 323,-141.7 323,-119.7 225,-119.7"/>
<image xlink:href="../../images/primaryKeys.png" width="11px" height="12px" preserveAspectRatio="xMinYMin meet" x="230" y="-136.7"/>
<text text-anchor="start" x="245" y="-126.8" font-family="Helvetica,sans-Serif" font-size="11.00" fill="#000000">id</text>
<polygon fill="none" stroke="#000000" points="225,-97.7 225,-119.7 323,-119.7 323,-97.7 225,-97.7"/>
<image xlink:href="../../images/foreignKeys.png" width="11px" height="12px" preserveAspectRatio="xMinYMin meet" x="230" y="-114.7"/>
<text text-anchor="start" x="245" y="-104.8" font-family="Helvetica,sans-Serif" font-size="11.00" fill="#000000">instituicao_id</text>
<polygon fill="none" stroke="#000000" points="225,-75.7 225,-97.7 323,-97.7 323,-75.7 225,-75.7"/>
<image xlink:href="../../images/foreignKeys.png" width="11px" height="12px" preserveAspectRatio="xMinYMin meet" x="230" y="-92.7"/>
<text text-anchor="start" x="245" y="-82.8" font-family="Helvetica,sans-Serif" font-size="11.00" fill="#000000">formulario_id</text>
<polygon fill="none" stroke="#000000" points="225,-56.7 225,-75.7 323,-75.7 323,-56.7 225,-56.7"/>
<text text-anchor="start" x="228" y="-62.8" font-family="Helvetica,sans-Serif" font-size="11.00" fill="#000000">...</text>
<polygon fill="#ffffff" stroke="transparent" points="225,-37.7 225,-56.7 255,-56.7 255,-37.7 225,-37.7"/>
<polygon fill="none" stroke="#000000" points="225,-37.7 225,-56.7 255,-56.7 255,-37.7 225,-37.7"/>
<text text-anchor="start" x="228" y="-43.8" font-family="Helvetica,sans-Serif" font-size="11.00" fill="#000000">&lt; 2</text>
<polygon fill="#ffffff" stroke="transparent" points="255,-37.7 255,-56.7 297,-56.7 297,-37.7 255,-37.7"/>
<polygon fill="none" stroke="#000000" points="255,-37.7 255,-56.7 297,-56.7 297,-37.7 255,-37.7"/>
<text text-anchor="start" x="261.6105" y="-43.8" font-family="Helvetica,sans-Serif" font-size="11.00" fill="#000000">0 rows</text>
<polygon fill="#ffffff" stroke="transparent" points="297,-37.7 297,-56.7 323,-56.7 323,-37.7 297,-37.7"/>
<polygon fill="none" stroke="#000000" points="297,-37.7 297,-56.7 323,-56.7 323,-37.7 297,-37.7"/>
<text text-anchor="start" x="304.4053" y="-43.8" font-family="Helvetica,sans-Serif" font-size="11.00" fill="#000000">3 &gt;</text>
</a>
</g>
</g>
<!-- formulario -->
<g id="node2" class="node">
<title>formulario</title>
<g id="a_node2"><a xlink:href="../../tables/formulario.html" xlink:title="formulario" target="_top">
<polygon fill="#ffffff" stroke="transparent" points="8,-54.7 8,-166.7 176,-166.7 176,-54.7 8,-54.7"/>
<polygon fill="#f5f5f5" stroke="transparent" points="10,-141.7 10,-164.7 174,-164.7 174,-141.7 10,-141.7"/>
<polygon fill="none" stroke="#000000" points="10,-141.7 10,-164.7 174,-164.7 174,-141.7 10,-141.7"/>
<text text-anchor="start" x="15" y="-150.8" font-family="Helvetica,sans-Serif" font-weight="bold" font-size="11.00" fill="#000000">formulario</text>
<text text-anchor="start" x="139.0437" y="-149.8" font-family="Helvetica,sans-Serif" font-size="11.00" fill="#000000">[table]</text>
<polygon fill="none" stroke="#000000" points="10,-119.7 10,-141.7 107,-141.7 107,-119.7 10,-119.7"/>
<image xlink:href="../../images/primaryKeys.png" width="11px" height="12px" preserveAspectRatio="xMinYMin meet" x="15" y="-136.7"/>
<text text-anchor="start" x="30" y="-126.8" font-family="Helvetica,sans-Serif" font-size="11.00" fill="#000000">id</text>
<polygon fill="none" stroke="#000000" points="107,-119.7 107,-141.7 174,-141.7 174,-119.7 107,-119.7"/>
<text text-anchor="start" x="110" y="-127.4" font-family="Helvetica,sans-Serif" font-size="11.00" fill="#000000">bigserial[19]</text>
<polygon fill="none" stroke="#000000" points="10,-97.7 10,-119.7 107,-119.7 107,-97.7 10,-97.7"/>
<text text-anchor="start" x="30" y="-104.8" font-family="Helvetica,sans-Serif" font-size="11.00" fill="#000000">url</text>
<polygon fill="none" stroke="#000000" points="107,-97.7 107,-119.7 174,-119.7 174,-97.7 107,-97.7"/>
<text text-anchor="start" x="109.9365" y="-105.4" font-family="Helvetica,sans-Serif" font-size="11.00" fill="#000000">varchar[300]</text>
<polygon fill="none" stroke="#000000" points="10,-75.7 10,-97.7 107,-97.7 107,-75.7 10,-75.7"/>
<image xlink:href="../../images/foreignKeys.png" width="11px" height="12px" preserveAspectRatio="xMinYMin meet" x="15" y="-92.7"/>
<text text-anchor="start" x="30" y="-82.8" font-family="Helvetica,sans-Serif" font-size="11.00" fill="#000000">campanha_id</text>
<polygon fill="none" stroke="#000000" points="107,-75.7 107,-97.7 174,-97.7 174,-75.7 107,-75.7"/>
<text text-anchor="start" x="110" y="-83.4" font-family="Helvetica,sans-Serif" font-size="11.00" fill="#000000">int4[10]</text>
<polygon fill="#ffffff" stroke="transparent" points="10,-56.7 10,-75.7 50,-75.7 50,-56.7 10,-56.7"/>
<polygon fill="none" stroke="#000000" points="10,-56.7 10,-75.7 50,-75.7 50,-56.7 10,-56.7"/>
<text text-anchor="start" x="13" y="-62.8" font-family="Helvetica,sans-Serif" font-size="11.00" fill="#000000">&lt; 1</text>
<polygon fill="#ffffff" stroke="transparent" points="50,-56.7 50,-75.7 107,-75.7 107,-56.7 50,-56.7"/>
<polygon fill="none" stroke="#000000" points="50,-56.7 50,-75.7 107,-75.7 107,-56.7 50,-56.7"/>
<text text-anchor="start" x="71.6105" y="-62.8" font-family="Helvetica,sans-Serif" font-size="11.00" fill="#000000">0 rows</text>
<polygon fill="#ffffff" stroke="transparent" points="107,-56.7 107,-75.7 174,-75.7 174,-56.7 107,-56.7"/>
<polygon fill="none" stroke="#000000" points="107,-56.7 107,-75.7 174,-75.7 174,-56.7 107,-56.7"/>
<text text-anchor="start" x="155.4053" y="-62.8" font-family="Helvetica,sans-Serif" font-size="11.00" fill="#000000">1 &gt;</text>
<polygon fill="none" stroke="#000000" stroke-width="2" points="9,-55.7 9,-165.7 175,-165.7 175,-55.7 9,-55.7"/>
</a>
</g>
</g>
<!-- campanha&#45;&gt;formulario -->
<g id="edge1" class="edge">
<title>campanha:w&#45;&gt;formulario:e</title>
<path fill="none" stroke="#000000" d="M210.9107,-91.4088C197.0669,-102.7596 197.8557,-130.7 174,-130.7"/>
<polygon fill="#000000" stroke="#000000" points="217.4125,-89.2358 226.1411,-90.1144 221.2063,-87.9679 225,-86.7 225,-86.7 225,-86.7 221.2063,-87.9679 223.8589,-83.2856 217.4125,-89.2358 217.4125,-89.2358"/>
<ellipse fill="none" stroke="#000000" cx="214.3775" cy="-90.2502" rx="3.2" ry="3.2"/>
</g>
<!-- formulario&#45;&gt;campanha -->
<g id="edge2" class="edge">
<title>formulario:w&#45;&gt;campanha:e</title>
<path fill="none" stroke="#000000" d="M24.2392,-83.754C65.7954,-75.1561 184,-50.7 184,-50.7 227.5358,-83.7685 173.4642,-136.1315 217,-169.2 217,-169.2 323,-130.7 323,-130.7"/>
<polygon fill="#000000" stroke="#000000" points="17.8341,-85.0791 9.2706,-83.1747 13.917,-85.8896 10,-86.7 10,-86.7 10,-86.7 13.917,-85.8896 10.7294,-90.2253 17.8341,-85.0791 17.8341,-85.0791"/>
<ellipse fill="none" stroke="#000000" cx="20.9677" cy="-84.4308" rx="3.2" ry="3.2"/>
</g>
</g>
</svg>
