<?xml version="1.0" encoding="UTF-8" standalone="no"?>
<!DOCTYPE svg PUBLIC "-//W3C//DTD SVG 1.1//EN"
 "http://www.w3.org/Graphics/SVG/1.1/DTD/svg11.dtd">
<!-- Generated by graphviz version 2.40.1 (20161225.0304)
 -->
<!-- Title: twoDegreesRelationshipsDiagram Pages: 1 -->
<svg width="495pt" height="327pt"
 viewBox="0.00 0.00 495.00 327.20" xmlns="http://www.w3.org/2000/svg" xmlns:xlink="http://www.w3.org/1999/xlink">
<g id="graph0" class="graph" transform="scale(1 1) rotate(0) translate(4 323.2)">
<title>twoDegreesRelationshipsDiagram</title>
<polygon fill="#ffffff" stroke="transparent" points="-4,4 -4,-323.2 491,-323.2 491,4 -4,4"/>
<text text-anchor="middle" x="72.4936" y="-7.3" font-family="Helvetica,sans-Serif" font-size="11.00" fill="#000000">Generated by SchemaSpy</text>
<!-- arquivo_campanha -->
<g id="node1" class="node">
<title>arquivo_campanha</title>
<g id="a_node1"><a xlink:href="../../tables/arquivo_campanha.html" xlink:title="arquivo_campanha" target="_top">
<polygon fill="#ffffff" stroke="transparent" points="319,-254.2 319,-315.2 455,-315.2 455,-254.2 319,-254.2"/>
<polygon fill="#f5f5f5" stroke="transparent" points="319,-291.7 319,-314.7 455,-314.7 455,-291.7 319,-291.7"/>
<polygon fill="none" stroke="#000000" points="319,-291.7 319,-314.7 455,-314.7 455,-291.7 319,-291.7"/>
<text text-anchor="start" x="323.7357" y="-300.8" font-family="Helvetica,sans-Serif" font-weight="bold" font-size="11.00" fill="#000000">arquivo_campanha</text>
<text text-anchor="start" x="420.5219" y="-299.8" font-family="Helvetica,sans-Serif" font-size="11.00" fill="#000000">[table]</text>
<polygon fill="none" stroke="#000000" points="319,-272.7 319,-291.7 455,-291.7 455,-272.7 319,-272.7"/>
<text text-anchor="start" x="322" y="-278.8" font-family="Helvetica,sans-Serif" font-size="11.00" fill="#000000">...</text>
<polygon fill="#ffffff" stroke="transparent" points="319,-253.7 319,-272.7 372,-272.7 372,-253.7 319,-253.7"/>
<polygon fill="none" stroke="#000000" points="319,-253.7 319,-272.7 372,-272.7 372,-253.7 319,-253.7"/>
<text text-anchor="start" x="322" y="-259.8" font-family="Helvetica,sans-Serif" font-size="11.00" fill="#000000">&lt; 1</text>
<polygon fill="#ffffff" stroke="transparent" points="372,-253.7 372,-272.7 426,-272.7 426,-253.7 372,-253.7"/>
<polygon fill="none" stroke="#000000" points="372,-253.7 372,-272.7 426,-272.7 426,-253.7 372,-253.7"/>
<text text-anchor="start" x="390.6105" y="-259.8" font-family="Helvetica,sans-Serif" font-size="11.00" fill="#000000">0 rows</text>
<polygon fill="#ffffff" stroke="transparent" points="426,-253.7 426,-272.7 455,-272.7 455,-253.7 426,-253.7"/>
<polygon fill="none" stroke="#000000" points="426,-253.7 426,-272.7 455,-272.7 455,-253.7 426,-253.7"/>
<text text-anchor="start" x="445.8862" y="-259.8" font-family="Helvetica,sans-Serif" font-size="11.00" fill="#000000"> &#160;</text>
</a>
</g>
</g>
<!-- campanha -->
<g id="node2" class="node">
<title>campanha</title>
<g id="a_node2"><a xlink:href="../../tables/campanha.html" xlink:title="campanha" target="_top">
<polygon fill="#ffffff" stroke="transparent" points="148,-82.2 148,-187.2 246,-187.2 246,-82.2 148,-82.2"/>
<polygon fill="#f5f5f5" stroke="transparent" points="148,-163.7 148,-186.7 246,-186.7 246,-163.7 148,-163.7"/>
<polygon fill="none" stroke="#000000" points="148,-163.7 148,-186.7 246,-186.7 246,-163.7 148,-163.7"/>
<text text-anchor="start" x="153" y="-172.8" font-family="Helvetica,sans-Serif" font-weight="bold" font-size="11.00" fill="#000000">campanha</text>
<text text-anchor="start" x="211.0437" y="-171.8" font-family="Helvetica,sans-Serif" font-size="11.00" fill="#000000">[table]</text>
<polygon fill="none" stroke="#000000" points="148,-141.7 148,-163.7 246,-163.7 246,-141.7 148,-141.7"/>
<image xlink:href="../../images/primaryKeys.png" width="11px" height="12px" preserveAspectRatio="xMinYMin meet" x="153" y="-158.7"/>
<text text-anchor="start" x="168" y="-148.8" font-family="Helvetica,sans-Serif" font-size="11.00" fill="#000000">id</text>
<polygon fill="none" stroke="#000000" points="148,-119.7 148,-141.7 246,-141.7 246,-119.7 148,-119.7"/>
<image xlink:href="../../images/foreignKeys.png" width="11px" height="12px" preserveAspectRatio="xMinYMin meet" x="153" y="-136.7"/>
<text text-anchor="start" x="168" y="-126.8" font-family="Helvetica,sans-Serif" font-size="11.00" fill="#000000">instituicao_id</text>
<polygon fill="none" stroke="#000000" points="148,-100.7 148,-119.7 246,-119.7 246,-100.7 148,-100.7"/>
<text text-anchor="start" x="151" y="-106.8" font-family="Helvetica,sans-Serif" font-size="11.00" fill="#000000">...</text>
<polygon fill="#ffffff" stroke="transparent" points="148,-81.7 148,-100.7 178,-100.7 178,-81.7 148,-81.7"/>
<polygon fill="none" stroke="#000000" points="148,-81.7 148,-100.7 178,-100.7 178,-81.7 148,-81.7"/>
<text text-anchor="start" x="151" y="-87.8" font-family="Helvetica,sans-Serif" font-size="11.00" fill="#000000">&lt; 1</text>
<polygon fill="#ffffff" stroke="transparent" points="178,-81.7 178,-100.7 220,-100.7 220,-81.7 178,-81.7"/>
<polygon fill="none" stroke="#000000" points="178,-81.7 178,-100.7 220,-100.7 220,-81.7 178,-81.7"/>
<text text-anchor="start" x="184.6105" y="-87.8" font-family="Helvetica,sans-Serif" font-size="11.00" fill="#000000">0 rows</text>
<polygon fill="#ffffff" stroke="transparent" points="220,-81.7 220,-100.7 246,-100.7 246,-81.7 220,-81.7"/>
<polygon fill="none" stroke="#000000" points="220,-81.7 220,-100.7 246,-100.7 246,-81.7 220,-81.7"/>
<text text-anchor="start" x="227.4053" y="-87.8" font-family="Helvetica,sans-Serif" font-size="11.00" fill="#000000">3 &gt;</text>
</a>
</g>
</g>
<!-- arquivo_campanha&#45;&gt;campanha -->
<g id="edge1" class="edge">
<title>arquivo_campanha:w&#45;&gt;campanha:e</title>
<path fill="none" stroke="#000000" d="M304.6192,-279.0057C262.301,-260.4808 306.2155,-152.7 246,-152.7"/>
<polygon fill="#000000" stroke="#000000" points="311.1368,-280.2267 318.337,-285.2384 315.0684,-280.9634 319,-281.7 319,-281.7 319,-281.7 315.0684,-280.9634 319.663,-278.1616 311.1368,-280.2267 311.1368,-280.2267"/>
<ellipse fill="none" stroke="#000000" cx="307.9915" cy="-279.6374" rx="3.2" ry="3.2"/>
</g>
<!-- instituicao -->
<g id="node3" class="node">
<title>instituicao</title>
<g id="a_node3"><a xlink:href="../../tables/instituicao.html" xlink:title="instituicao" target="_top">
<polygon fill="#ffffff" stroke="transparent" points="8,-103.2 8,-164.2 99,-164.2 99,-103.2 8,-103.2"/>
<polygon fill="#f5f5f5" stroke="transparent" points="8.5,-140.7 8.5,-163.7 99.5,-163.7 99.5,-140.7 8.5,-140.7"/>
<polygon fill="none" stroke="#000000" points="8.5,-140.7 8.5,-163.7 99.5,-163.7 99.5,-140.7 8.5,-140.7"/>
<text text-anchor="start" x="13.052" y="-149.8" font-family="Helvetica,sans-Serif" font-weight="bold" font-size="11.00" fill="#000000">instituicao</text>
<text text-anchor="start" x="65.0219" y="-148.8" font-family="Helvetica,sans-Serif" font-size="11.00" fill="#000000">[table]</text>
<polygon fill="none" stroke="#000000" points="8.5,-121.7 8.5,-140.7 99.5,-140.7 99.5,-121.7 8.5,-121.7"/>
<text text-anchor="start" x="11.5" y="-127.8" font-family="Helvetica,sans-Serif" font-size="11.00" fill="#000000">...</text>
<polygon fill="#ffffff" stroke="transparent" points="8.5,-102.7 8.5,-121.7 34.5,-121.7 34.5,-102.7 8.5,-102.7"/>
<polygon fill="none" stroke="#000000" points="8.5,-102.7 8.5,-121.7 34.5,-121.7 34.5,-102.7 8.5,-102.7"/>
<text text-anchor="start" x="11.5" y="-108.8" font-family="Helvetica,sans-Serif" font-size="11.00" fill="#000000">&lt; 2</text>
<polygon fill="#ffffff" stroke="transparent" points="34.5,-102.7 34.5,-121.7 75.5,-121.7 75.5,-102.7 34.5,-102.7"/>
<polygon fill="none" stroke="#000000" points="34.5,-102.7 34.5,-121.7 75.5,-121.7 75.5,-102.7 34.5,-102.7"/>
<text text-anchor="start" x="40.1105" y="-108.8" font-family="Helvetica,sans-Serif" font-size="11.00" fill="#000000">0 rows</text>
<polygon fill="#ffffff" stroke="transparent" points="75.5,-102.7 75.5,-121.7 99.5,-121.7 99.5,-102.7 75.5,-102.7"/>
<polygon fill="none" stroke="#000000" points="75.5,-102.7 75.5,-121.7 99.5,-121.7 99.5,-102.7 75.5,-102.7"/>
<text text-anchor="start" x="80.9053" y="-108.8" font-family="Helvetica,sans-Serif" font-size="11.00" fill="#000000">2 &gt;</text>
</a>
</g>
</g>
<!-- campanha&#45;&gt;instituicao -->
<g id="edge2" class="edge">
<title>campanha:w&#45;&gt;instituicao:e</title>
<path fill="none" stroke="#000000" d="M133.2829,-130.7C122.2886,-130.7 115.1615,-130.7 99.5,-130.7"/>
<polygon fill="#000000" stroke="#000000" points="140,-130.7001 148,-134.3 144,-130.7 148,-130.7 148,-130.7 148,-130.7 144,-130.7 148,-127.1 140,-130.7001 140,-130.7001"/>
<ellipse fill="none" stroke="#000000" cx="136.8" cy="-130.7001" rx="3.2" ry="3.2"/>
</g>
<!-- formulario -->
<g id="node4" class="node">
<title>formulario</title>
<g id="a_node4"><a xlink:href="../../tables/formulario.html" xlink:title="formulario" target="_top">
<polygon fill="#ffffff" stroke="transparent" points="303,-120.7 303,-232.7 471,-232.7 471,-120.7 303,-120.7"/>
<polygon fill="#f5f5f5" stroke="transparent" points="305,-207.7 305,-230.7 469,-230.7 469,-207.7 305,-207.7"/>
<polygon fill="none" stroke="#000000" points="305,-207.7 305,-230.7 469,-230.7 469,-207.7 305,-207.7"/>
<text text-anchor="start" x="310" y="-216.8" font-family="Helvetica,sans-Serif" font-weight="bold" font-size="11.00" fill="#000000">formulario</text>
<text text-anchor="start" x="434.0437" y="-215.8" font-family="Helvetica,sans-Serif" font-size="11.00" fill="#000000">[table]</text>
<polygon fill="none" stroke="#000000" points="305,-185.7 305,-207.7 402,-207.7 402,-185.7 305,-185.7"/>
<image xlink:href="../../images/primaryKeys.png" width="11px" height="12px" preserveAspectRatio="xMinYMin meet" x="310" y="-202.7"/>
<text text-anchor="start" x="325" y="-192.8" font-family="Helvetica,sans-Serif" font-size="11.00" fill="#000000">id</text>
<polygon fill="none" stroke="#000000" points="402,-185.7 402,-207.7 469,-207.7 469,-185.7 402,-185.7"/>
<text text-anchor="start" x="405" y="-193.4" font-family="Helvetica,sans-Serif" font-size="11.00" fill="#000000">bigserial[19]</text>
<polygon fill="none" stroke="#000000" points="305,-163.7 305,-185.7 402,-185.7 402,-163.7 305,-163.7"/>
<text text-anchor="start" x="325" y="-170.8" font-family="Helvetica,sans-Serif" font-size="11.00" fill="#000000">url</text>
<polygon fill="none" stroke="#000000" points="402,-163.7 402,-185.7 469,-185.7 469,-163.7 402,-163.7"/>
<text text-anchor="start" x="404.9365" y="-171.4" font-family="Helvetica,sans-Serif" font-size="11.00" fill="#000000">varchar[300]</text>
<polygon fill="none" stroke="#000000" points="305,-141.7 305,-163.7 402,-163.7 402,-141.7 305,-141.7"/>
<image xlink:href="../../images/foreignKeys.png" width="11px" height="12px" preserveAspectRatio="xMinYMin meet" x="310" y="-158.7"/>
<text text-anchor="start" x="325" y="-148.8" font-family="Helvetica,sans-Serif" font-size="11.00" fill="#000000">campanha_id</text>
<polygon fill="none" stroke="#000000" points="402,-141.7 402,-163.7 469,-163.7 469,-141.7 402,-141.7"/>
<text text-anchor="start" x="405" y="-149.4" font-family="Helvetica,sans-Serif" font-size="11.00" fill="#000000">int4[10]</text>
<polygon fill="#ffffff" stroke="transparent" points="305,-122.7 305,-141.7 345,-141.7 345,-122.7 305,-122.7"/>
<polygon fill="none" stroke="#000000" points="305,-122.7 305,-141.7 345,-141.7 345,-122.7 305,-122.7"/>
<text text-anchor="start" x="308" y="-128.8" font-family="Helvetica,sans-Serif" font-size="11.00" fill="#000000">&lt; 1</text>
<polygon fill="#ffffff" stroke="transparent" points="345,-122.7 345,-141.7 402,-141.7 402,-122.7 345,-122.7"/>
<polygon fill="none" stroke="#000000" points="345,-122.7 345,-141.7 402,-141.7 402,-122.7 345,-122.7"/>
<text text-anchor="start" x="366.6105" y="-128.8" font-family="Helvetica,sans-Serif" font-size="11.00" fill="#000000">0 rows</text>
<polygon fill="#ffffff" stroke="transparent" points="402,-122.7 402,-141.7 469,-141.7 469,-122.7 402,-122.7"/>
<polygon fill="none" stroke="#000000" points="402,-122.7 402,-141.7 469,-141.7 469,-122.7 402,-122.7"/>
<text text-anchor="start" x="450.4053" y="-128.8" font-family="Helvetica,sans-Serif" font-size="11.00" fill="#000000">0 &gt;</text>
<polygon fill="none" stroke="#000000" stroke-width="2" points="304,-121.7 304,-231.7 470,-231.7 470,-121.7 304,-121.7"/>
</a>
</g>
</g>
<!-- formulario&#45;&gt;campanha -->
<g id="edge3" class="edge">
<title>formulario:w&#45;&gt;campanha:e</title>
<path fill="none" stroke="#000000" d="M290.2032,-152.7C274.9686,-152.7 266.4861,-152.7 246,-152.7"/>
<polygon fill="#000000" stroke="#000000" points="297,-152.7001 305,-156.3 301,-152.7 305,-152.7 305,-152.7 305,-152.7 301,-152.7 305,-149.1 297,-152.7001 297,-152.7001"/>
<ellipse fill="none" stroke="#000000" cx="293.8" cy="-152.7001" rx="3.2" ry="3.2"/>
</g>
<!-- pessoa_cadastra_campanha -->
<g id="node5" class="node">
<title>pessoa_cadastra_campanha</title>
<g id="a_node5"><a xlink:href="../../tables/pessoa_cadastra_campanha.html" xlink:title="pessoa_cadastra_campanha" target="_top">
<polygon fill="#ffffff" stroke="transparent" points="295,-38.2 295,-99.2 479,-99.2 479,-38.2 295,-38.2"/>
<polygon fill="#f5f5f5" stroke="transparent" points="295,-75.7 295,-98.7 479,-98.7 479,-75.7 295,-75.7"/>
<polygon fill="none" stroke="#000000" points="295,-75.7 295,-98.7 479,-98.7 479,-75.7 295,-75.7"/>
<text text-anchor="start" x="299.8905" y="-84.8" font-family="Helvetica,sans-Serif" font-weight="bold" font-size="11.00" fill="#000000">pessoa_cadastra_campanha</text>
<text text-anchor="start" x="444.5219" y="-83.8" font-family="Helvetica,sans-Serif" font-size="11.00" fill="#000000">[table]</text>
<polygon fill="none" stroke="#000000" points="295,-56.7 295,-75.7 479,-75.7 479,-56.7 295,-56.7"/>
<text text-anchor="start" x="298" y="-62.8" font-family="Helvetica,sans-Serif" font-size="11.00" fill="#000000">...</text>
<polygon fill="#ffffff" stroke="transparent" points="295,-37.7 295,-56.7 372,-56.7 372,-37.7 295,-37.7"/>
<polygon fill="none" stroke="#000000" points="295,-37.7 295,-56.7 372,-56.7 372,-37.7 295,-37.7"/>
<text text-anchor="start" x="298" y="-43.8" font-family="Helvetica,sans-Serif" font-size="11.00" fill="#000000">&lt; 2</text>
<polygon fill="#ffffff" stroke="transparent" points="372,-37.7 372,-56.7 438,-56.7 438,-37.7 372,-37.7"/>
<polygon fill="none" stroke="#000000" points="372,-37.7 372,-56.7 438,-56.7 438,-37.7 372,-37.7"/>
<text text-anchor="start" x="402.6105" y="-43.8" font-family="Helvetica,sans-Serif" font-size="11.00" fill="#000000">0 rows</text>
<polygon fill="#ffffff" stroke="transparent" points="438,-37.7 438,-56.7 479,-56.7 479,-37.7 438,-37.7"/>
<polygon fill="none" stroke="#000000" points="438,-37.7 438,-56.7 479,-56.7 479,-37.7 438,-37.7"/>
<text text-anchor="start" x="469.8862" y="-43.8" font-family="Helvetica,sans-Serif" font-size="11.00" fill="#000000"> &#160;</text>
</a>
</g>
</g>
<!-- pessoa_cadastra_campanha&#45;&gt;campanha -->
<g id="edge4" class="edge">
<title>pessoa_cadastra_campanha:w&#45;&gt;campanha:e</title>
<path fill="none" stroke="#000000" d="M281.086,-70.134C259.9203,-87.8629 284.3105,-152.7 246,-152.7"/>
<polygon fill="#000000" stroke="#000000" points="287.3777,-68.129 296.0931,-69.1301 291.1888,-66.9145 295,-65.7 295,-65.7 295,-65.7 291.1888,-66.9145 293.9069,-62.2699 287.3777,-68.129 287.3777,-68.129"/>
<ellipse fill="none" stroke="#000000" cx="284.3287" cy="-69.1007" rx="3.2" ry="3.2"/>
</g>
</g>
</svg>
