<?xml version="1.0" encoding="UTF-8" standalone="no"?>
<!DOCTYPE svg PUBLIC "-//W3C//DTD SVG 1.1//EN"
 "http://www.w3.org/Graphics/SVG/1.1/DTD/svg11.dtd">
<!-- Generated by graphviz version 2.40.1 (20161225.0304)
 -->
<!-- Title: twoDegreesRelationshipsDiagram Pages: 1 -->
<svg width="572pt" height="245pt"
 viewBox="0.00 0.00 572.00 244.70" xmlns="http://www.w3.org/2000/svg" xmlns:xlink="http://www.w3.org/1999/xlink">
<g id="graph0" class="graph" transform="scale(1 1) rotate(0) translate(4 240.7)">
<title>twoDegreesRelationshipsDiagram</title>
<polygon fill="#ffffff" stroke="transparent" points="-4,4 -4,-240.7 568,-240.7 568,4 -4,4"/>
<text text-anchor="middle" x="72.4936" y="-7.3" font-family="Helvetica,sans-Serif" font-size="11.00" fill="#000000">Generated by SchemaSpy</text>
<!-- arquivo_campanha -->
<g id="node1" class="node">
<title>arquivo_campanha</title>
<g id="a_node1"><a xlink:href="../../tables/arquivo_campanha.html" xlink:title="arquivo_campanha" target="_top">
<polygon fill="#ffffff" stroke="transparent" points="396,-166.2 396,-227.2 532,-227.2 532,-166.2 396,-166.2"/>
<polygon fill="#f5f5f5" stroke="transparent" points="396,-203.7 396,-226.7 532,-226.7 532,-203.7 396,-203.7"/>
<polygon fill="none" stroke="#000000" points="396,-203.7 396,-226.7 532,-226.7 532,-203.7 396,-203.7"/>
<text text-anchor="start" x="400.7357" y="-212.8" font-family="Helvetica,sans-Serif" font-weight="bold" font-size="11.00" fill="#000000">arquivo_campanha</text>
<text text-anchor="start" x="497.5219" y="-211.8" font-family="Helvetica,sans-Serif" font-size="11.00" fill="#000000">[table]</text>
<polygon fill="none" stroke="#000000" points="396,-184.7 396,-203.7 532,-203.7 532,-184.7 396,-184.7"/>
<text text-anchor="start" x="399" y="-190.8" font-family="Helvetica,sans-Serif" font-size="11.00" fill="#000000">...</text>
<polygon fill="#ffffff" stroke="transparent" points="396,-165.7 396,-184.7 449,-184.7 449,-165.7 396,-165.7"/>
<polygon fill="none" stroke="#000000" points="396,-165.7 396,-184.7 449,-184.7 449,-165.7 396,-165.7"/>
<text text-anchor="start" x="399" y="-171.8" font-family="Helvetica,sans-Serif" font-size="11.00" fill="#000000">&lt; 1</text>
<polygon fill="#ffffff" stroke="transparent" points="449,-165.7 449,-184.7 503,-184.7 503,-165.7 449,-165.7"/>
<polygon fill="none" stroke="#000000" points="449,-165.7 449,-184.7 503,-184.7 503,-165.7 449,-165.7"/>
<text text-anchor="start" x="467.6105" y="-171.8" font-family="Helvetica,sans-Serif" font-size="11.00" fill="#000000">0 rows</text>
<polygon fill="#ffffff" stroke="transparent" points="503,-165.7 503,-184.7 532,-184.7 532,-165.7 503,-165.7"/>
<polygon fill="none" stroke="#000000" points="503,-165.7 503,-184.7 532,-184.7 532,-165.7 503,-165.7"/>
<text text-anchor="start" x="522.8862" y="-171.8" font-family="Helvetica,sans-Serif" font-size="11.00" fill="#000000"> &#160;</text>
</a>
</g>
</g>
<!-- campanha -->
<g id="node2" class="node">
<title>campanha</title>
<g id="a_node2"><a xlink:href="../../tables/campanha.html" xlink:title="campanha" target="_top">
<polygon fill="#ffffff" stroke="transparent" points="225,-60.2 225,-187.2 323,-187.2 323,-60.2 225,-60.2"/>
<polygon fill="#f5f5f5" stroke="transparent" points="225,-163.7 225,-186.7 323,-186.7 323,-163.7 225,-163.7"/>
<polygon fill="none" stroke="#000000" points="225,-163.7 225,-186.7 323,-186.7 323,-163.7 225,-163.7"/>
<text text-anchor="start" x="230" y="-172.8" font-family="Helvetica,sans-Serif" font-weight="bold" font-size="11.00" fill="#000000">campanha</text>
<text text-anchor="start" x="288.0437" y="-171.8" font-family="Helvetica,sans-Serif" font-size="11.00" fill="#000000">[table]</text>
<polygon fill="none" stroke="#000000" points="225,-141.7 225,-163.7 323,-163.7 323,-141.7 225,-141.7"/>
<image xlink:href="../../images/primaryKeys.png" width="11px" height="12px" preserveAspectRatio="xMinYMin meet" x="230" y="-158.7"/>
<text text-anchor="start" x="245" y="-148.8" font-family="Helvetica,sans-Serif" font-size="11.00" fill="#000000">id</text>
<polygon fill="none" stroke="#000000" points="225,-119.7 225,-141.7 323,-141.7 323,-119.7 225,-119.7"/>
<image xlink:href="../../images/foreignKeys.png" width="11px" height="12px" preserveAspectRatio="xMinYMin meet" x="230" y="-136.7"/>
<text text-anchor="start" x="245" y="-126.8" font-family="Helvetica,sans-Serif" font-size="11.00" fill="#000000">instituicao_id</text>
<polygon fill="none" stroke="#000000" points="225,-97.7 225,-119.7 323,-119.7 323,-97.7 225,-97.7"/>
<image xlink:href="../../images/foreignKeys.png" width="11px" height="12px" preserveAspectRatio="xMinYMin meet" x="230" y="-114.7"/>
<text text-anchor="start" x="245" y="-104.8" font-family="Helvetica,sans-Serif" font-size="11.00" fill="#000000">formulario_id</text>
<polygon fill="none" stroke="#000000" points="225,-78.7 225,-97.7 323,-97.7 323,-78.7 225,-78.7"/>
<text text-anchor="start" x="228" y="-84.8" font-family="Helvetica,sans-Serif" font-size="11.00" fill="#000000">...</text>
<polygon fill="#ffffff" stroke="transparent" points="225,-59.7 225,-78.7 255,-78.7 255,-59.7 225,-59.7"/>
<polygon fill="none" stroke="#000000" points="225,-59.7 225,-78.7 255,-78.7 255,-59.7 225,-59.7"/>
<text text-anchor="start" x="228" y="-65.8" font-family="Helvetica,sans-Serif" font-size="11.00" fill="#000000">&lt; 2</text>
<polygon fill="#ffffff" stroke="transparent" points="255,-59.7 255,-78.7 297,-78.7 297,-59.7 255,-59.7"/>
<polygon fill="none" stroke="#000000" points="255,-59.7 255,-78.7 297,-78.7 297,-59.7 255,-59.7"/>
<text text-anchor="start" x="261.6105" y="-65.8" font-family="Helvetica,sans-Serif" font-size="11.00" fill="#000000">0 rows</text>
<polygon fill="#ffffff" stroke="transparent" points="297,-59.7 297,-78.7 323,-78.7 323,-59.7 297,-59.7"/>
<polygon fill="none" stroke="#000000" points="297,-59.7 297,-78.7 323,-78.7 323,-59.7 297,-59.7"/>
<text text-anchor="start" x="304.4053" y="-65.8" font-family="Helvetica,sans-Serif" font-size="11.00" fill="#000000">3 &gt;</text>
</a>
</g>
</g>
<!-- arquivo_campanha&#45;&gt;campanha -->
<g id="edge1" class="edge">
<title>arquivo_campanha:w&#45;&gt;campanha:e</title>
<path fill="none" stroke="#000000" d="M381.7303,-191.258C358.3597,-182.4315 354.6879,-152.7 323,-152.7"/>
<polygon fill="#000000" stroke="#000000" points="388.1146,-192.3505 395.3927,-197.2484 392.0573,-193.0253 396,-193.7 396,-193.7 396,-193.7 392.0573,-193.0253 396.6073,-190.1516 388.1146,-192.3505 388.1146,-192.3505"/>
<ellipse fill="none" stroke="#000000" cx="384.9605" cy="-191.8108" rx="3.2" ry="3.2"/>
</g>
<!-- formulario -->
<g id="node3" class="node">
<title>formulario</title>
<g id="a_node3"><a xlink:href="../../tables/formulario.html" xlink:title="formulario" target="_top">
<polygon fill="#ffffff" stroke="transparent" points="8,-120.7 8,-232.7 176,-232.7 176,-120.7 8,-120.7"/>
<polygon fill="#f5f5f5" stroke="transparent" points="10,-207.7 10,-230.7 174,-230.7 174,-207.7 10,-207.7"/>
<polygon fill="none" stroke="#000000" points="10,-207.7 10,-230.7 174,-230.7 174,-207.7 10,-207.7"/>
<text text-anchor="start" x="15" y="-216.8" font-family="Helvetica,sans-Serif" font-weight="bold" font-size="11.00" fill="#000000">formulario</text>
<text text-anchor="start" x="139.0437" y="-215.8" font-family="Helvetica,sans-Serif" font-size="11.00" fill="#000000">[table]</text>
<polygon fill="none" stroke="#000000" points="10,-185.7 10,-207.7 107,-207.7 107,-185.7 10,-185.7"/>
<image xlink:href="../../images/primaryKeys.png" width="11px" height="12px" preserveAspectRatio="xMinYMin meet" x="15" y="-202.7"/>
<text text-anchor="start" x="30" y="-192.8" font-family="Helvetica,sans-Serif" font-size="11.00" fill="#000000">id</text>
<polygon fill="none" stroke="#000000" points="107,-185.7 107,-207.7 174,-207.7 174,-185.7 107,-185.7"/>
<text text-anchor="start" x="110" y="-193.4" font-family="Helvetica,sans-Serif" font-size="11.00" fill="#000000">bigserial[19]</text>
<polygon fill="none" stroke="#000000" points="10,-163.7 10,-185.7 107,-185.7 107,-163.7 10,-163.7"/>
<text text-anchor="start" x="30" y="-170.8" font-family="Helvetica,sans-Serif" font-size="11.00" fill="#000000">url</text>
<polygon fill="none" stroke="#000000" points="107,-163.7 107,-185.7 174,-185.7 174,-163.7 107,-163.7"/>
<text text-anchor="start" x="109.9365" y="-171.4" font-family="Helvetica,sans-Serif" font-size="11.00" fill="#000000">varchar[300]</text>
<polygon fill="none" stroke="#000000" points="10,-141.7 10,-163.7 107,-163.7 107,-141.7 10,-141.7"/>
<image xlink:href="../../images/foreignKeys.png" width="11px" height="12px" preserveAspectRatio="xMinYMin meet" x="15" y="-158.7"/>
<text text-anchor="start" x="30" y="-148.8" font-family="Helvetica,sans-Serif" font-size="11.00" fill="#000000">campanha_id</text>
<polygon fill="none" stroke="#000000" points="107,-141.7 107,-163.7 174,-163.7 174,-141.7 107,-141.7"/>
<text text-anchor="start" x="110" y="-149.4" font-family="Helvetica,sans-Serif" font-size="11.00" fill="#000000">int4[10]</text>
<polygon fill="#ffffff" stroke="transparent" points="10,-122.7 10,-141.7 50,-141.7 50,-122.7 10,-122.7"/>
<polygon fill="none" stroke="#000000" points="10,-122.7 10,-141.7 50,-141.7 50,-122.7 10,-122.7"/>
<text text-anchor="start" x="13" y="-128.8" font-family="Helvetica,sans-Serif" font-size="11.00" fill="#000000">&lt; 1</text>
<polygon fill="#ffffff" stroke="transparent" points="50,-122.7 50,-141.7 107,-141.7 107,-122.7 50,-122.7"/>
<polygon fill="none" stroke="#000000" points="50,-122.7 50,-141.7 107,-141.7 107,-122.7 50,-122.7"/>
<text text-anchor="start" x="71.6105" y="-128.8" font-family="Helvetica,sans-Serif" font-size="11.00" fill="#000000">0 rows</text>
<polygon fill="#ffffff" stroke="transparent" points="107,-122.7 107,-141.7 174,-141.7 174,-122.7 107,-122.7"/>
<polygon fill="none" stroke="#000000" points="107,-122.7 107,-141.7 174,-141.7 174,-122.7 107,-122.7"/>
<text text-anchor="start" x="155.4053" y="-128.8" font-family="Helvetica,sans-Serif" font-size="11.00" fill="#000000">1 &gt;</text>
<polygon fill="none" stroke="#000000" stroke-width="2" points="9,-121.7 9,-231.7 175,-231.7 175,-121.7 9,-121.7"/>
</a>
</g>
</g>
<!-- campanha&#45;&gt;formulario -->
<g id="edge2" class="edge">
<title>campanha:w&#45;&gt;formulario:e</title>
<path fill="none" stroke="#000000" d="M211.0699,-112.9444C188.7709,-130.5228 213.2009,-196.7 174,-196.7"/>
<polygon fill="#000000" stroke="#000000" points="217.3473,-111.0318 226.0493,-112.1437 221.1737,-109.8659 225,-108.7 225,-108.7 225,-108.7 221.1737,-109.8659 223.9507,-105.2563 217.3473,-111.0318 217.3473,-111.0318"/>
<ellipse fill="none" stroke="#000000" cx="214.2863" cy="-111.9645" rx="3.2" ry="3.2"/>
</g>
<!-- instituicao -->
<g id="node4" class="node">
<title>instituicao</title>
<g id="a_node4"><a xlink:href="../../tables/instituicao.html" xlink:title="instituicao" target="_top">
<polygon fill="#ffffff" stroke="transparent" points="46.5,-38.2 46.5,-99.2 137.5,-99.2 137.5,-38.2 46.5,-38.2"/>
<polygon fill="#f5f5f5" stroke="transparent" points="47,-75.7 47,-98.7 138,-98.7 138,-75.7 47,-75.7"/>
<polygon fill="none" stroke="#000000" points="47,-75.7 47,-98.7 138,-98.7 138,-75.7 47,-75.7"/>
<text text-anchor="start" x="51.552" y="-84.8" font-family="Helvetica,sans-Serif" font-weight="bold" font-size="11.00" fill="#000000">instituicao</text>
<text text-anchor="start" x="103.5219" y="-83.8" font-family="Helvetica,sans-Serif" font-size="11.00" fill="#000000">[table]</text>
<polygon fill="none" stroke="#000000" points="47,-56.7 47,-75.7 138,-75.7 138,-56.7 47,-56.7"/>
<text text-anchor="start" x="50" y="-62.8" font-family="Helvetica,sans-Serif" font-size="11.00" fill="#000000">...</text>
<polygon fill="#ffffff" stroke="transparent" points="47,-37.7 47,-56.7 73,-56.7 73,-37.7 47,-37.7"/>
<polygon fill="none" stroke="#000000" points="47,-37.7 47,-56.7 73,-56.7 73,-37.7 47,-37.7"/>
<text text-anchor="start" x="50" y="-43.8" font-family="Helvetica,sans-Serif" font-size="11.00" fill="#000000">&lt; 2</text>
<polygon fill="#ffffff" stroke="transparent" points="73,-37.7 73,-56.7 114,-56.7 114,-37.7 73,-37.7"/>
<polygon fill="none" stroke="#000000" points="73,-37.7 73,-56.7 114,-56.7 114,-37.7 73,-37.7"/>
<text text-anchor="start" x="78.6105" y="-43.8" font-family="Helvetica,sans-Serif" font-size="11.00" fill="#000000">0 rows</text>
<polygon fill="#ffffff" stroke="transparent" points="114,-37.7 114,-56.7 138,-56.7 138,-37.7 114,-37.7"/>
<polygon fill="none" stroke="#000000" points="114,-37.7 114,-56.7 138,-56.7 138,-37.7 114,-37.7"/>
<text text-anchor="start" x="119.4053" y="-43.8" font-family="Helvetica,sans-Serif" font-size="11.00" fill="#000000">2 &gt;</text>
</a>
</g>
</g>
<!-- campanha&#45;&gt;instituicao -->
<g id="edge3" class="edge">
<title>campanha:w&#45;&gt;instituicao:e</title>
<path fill="none" stroke="#000000" d="M210.654,-128.3866C178.1515,-116.8076 180.799,-65.7 138,-65.7"/>
<polygon fill="#000000" stroke="#000000" points="217.102,-129.4264 224.4269,-134.2541 221.051,-130.0632 225,-130.7 225,-130.7 225,-130.7 221.051,-130.0632 225.5731,-127.1459 217.102,-129.4264 217.102,-129.4264"/>
<ellipse fill="none" stroke="#000000" cx="213.9428" cy="-128.9169" rx="3.2" ry="3.2"/>
</g>
<!-- formulario&#45;&gt;campanha -->
<g id="edge4" class="edge">
<title>formulario:w&#45;&gt;campanha:e</title>
<path fill="none" stroke="#000000" d="M24.2392,-149.754C65.7954,-141.1561 184,-116.7 184,-116.7 214.3529,-136.4524 186.6471,-171.4476 217,-191.2 217,-191.2 323,-152.7 323,-152.7"/>
<polygon fill="#000000" stroke="#000000" points="17.8341,-151.0791 9.2706,-149.1747 13.917,-151.8896 10,-152.7 10,-152.7 10,-152.7 13.917,-151.8896 10.7294,-156.2253 17.8341,-151.0791 17.8341,-151.0791"/>
<ellipse fill="none" stroke="#000000" cx="20.9677" cy="-150.4308" rx="3.2" ry="3.2"/>
</g>
<!-- pessoa_cadastra_campanha -->
<g id="node5" class="node">
<title>pessoa_cadastra_campanha</title>
<g id="a_node5"><a xlink:href="../../tables/pessoa_cadastra_campanha.html" xlink:title="pessoa_cadastra_campanha" target="_top">
<polygon fill="#ffffff" stroke="transparent" points="372,-84.2 372,-145.2 556,-145.2 556,-84.2 372,-84.2"/>
<polygon fill="#f5f5f5" stroke="transparent" points="372,-121.7 372,-144.7 556,-144.7 556,-121.7 372,-121.7"/>
<polygon fill="none" stroke="#000000" points="372,-121.7 372,-144.7 556,-144.7 556,-121.7 372,-121.7"/>
<text text-anchor="start" x="376.8905" y="-130.8" font-family="Helvetica,sans-Serif" font-weight="bold" font-size="11.00" fill="#000000">pessoa_cadastra_campanha</text>
<text text-anchor="start" x="521.5219" y="-129.8" font-family="Helvetica,sans-Serif" font-size="11.00" fill="#000000">[table]</text>
<polygon fill="none" stroke="#000000" points="372,-102.7 372,-121.7 556,-121.7 556,-102.7 372,-102.7"/>
<text text-anchor="start" x="375" y="-108.8" font-family="Helvetica,sans-Serif" font-size="11.00" fill="#000000">...</text>
<polygon fill="#ffffff" stroke="transparent" points="372,-83.7 372,-102.7 449,-102.7 449,-83.7 372,-83.7"/>
<polygon fill="none" stroke="#000000" points="372,-83.7 372,-102.7 449,-102.7 449,-83.7 372,-83.7"/>
<text text-anchor="start" x="375" y="-89.8" font-family="Helvetica,sans-Serif" font-size="11.00" fill="#000000">&lt; 2</text>
<polygon fill="#ffffff" stroke="transparent" points="449,-83.7 449,-102.7 515,-102.7 515,-83.7 449,-83.7"/>
<polygon fill="none" stroke="#000000" points="449,-83.7 449,-102.7 515,-102.7 515,-83.7 449,-83.7"/>
<text text-anchor="start" x="479.6105" y="-89.8" font-family="Helvetica,sans-Serif" font-size="11.00" fill="#000000">0 rows</text>
<polygon fill="#ffffff" stroke="transparent" points="515,-83.7 515,-102.7 556,-102.7 556,-83.7 515,-83.7"/>
<polygon fill="none" stroke="#000000" points="515,-83.7 515,-102.7 556,-102.7 556,-83.7 515,-83.7"/>
<text text-anchor="start" x="546.8862" y="-89.8" font-family="Helvetica,sans-Serif" font-size="11.00" fill="#000000"> &#160;</text>
</a>
</g>
</g>
<!-- pessoa_cadastra_campanha&#45;&gt;campanha -->
<g id="edge5" class="edge">
<title>pessoa_cadastra_campanha:w&#45;&gt;campanha:e</title>
<path fill="none" stroke="#000000" d="M358.1819,-116.4032C345.2811,-127.1726 345.4061,-152.7 323,-152.7"/>
<polygon fill="#000000" stroke="#000000" points="364.4267,-114.2778 373.16,-115.108 368.2133,-112.9889 372,-111.7 372,-111.7 372,-111.7 368.2133,-112.9889 370.84,-108.292 364.4267,-114.2778 364.4267,-114.2778"/>
<ellipse fill="none" stroke="#000000" cx="361.3973" cy="-115.3089" rx="3.2" ry="3.2"/>
</g>
</g>
</svg>
