<?xml version="1.0" encoding="UTF-8" standalone="no"?>
<!DOCTYPE svg PUBLIC "-//W3C//DTD SVG 1.1//EN"
 "http://www.w3.org/Graphics/SVG/1.1/DTD/svg11.dtd">
<!-- Generated by graphviz version 2.40.1 (20161225.0304)
 -->
<!-- Title: twoDegreesRelationshipsDiagram Pages: 1 -->
<svg width="749pt" height="443pt"
 viewBox="0.00 0.00 749.00 442.70" xmlns="http://www.w3.org/2000/svg" xmlns:xlink="http://www.w3.org/1999/xlink">
<g id="graph0" class="graph" transform="scale(1 1) rotate(0) translate(4 438.7)">
<title>twoDegreesRelationshipsDiagram</title>
<polygon fill="#ffffff" stroke="transparent" points="-4,4 -4,-438.7 745,-438.7 745,4 -4,4"/>
<text text-anchor="middle" x="72.4936" y="-7.3" font-family="Helvetica,sans-Serif" font-size="11.00" fill="#000000">Generated by SchemaSpy</text>
<!-- animal -->
<g id="node1" class="node">
<title>animal</title>
<g id="a_node1"><a xlink:href="../../tables/animal.html" xlink:title="animal" target="_top">
<polygon fill="#ffffff" stroke="transparent" points="361,-261.7 361,-366.7 500,-366.7 500,-261.7 361,-261.7"/>
<polygon fill="#f5f5f5" stroke="transparent" points="361.5,-343.2 361.5,-366.2 500.5,-366.2 500.5,-343.2 361.5,-343.2"/>
<polygon fill="none" stroke="#000000" points="361.5,-343.2 361.5,-366.2 500.5,-366.2 500.5,-343.2 361.5,-343.2"/>
<text text-anchor="start" x="366.5" y="-352.3" font-family="Helvetica,sans-Serif" font-weight="bold" font-size="11.00" fill="#000000">animal</text>
<text text-anchor="start" x="465.5437" y="-351.3" font-family="Helvetica,sans-Serif" font-size="11.00" fill="#000000">[table]</text>
<polygon fill="none" stroke="#000000" points="361.5,-321.2 361.5,-343.2 500.5,-343.2 500.5,-321.2 361.5,-321.2"/>
<image xlink:href="../../images/primaryKeys.png" width="11px" height="12px" preserveAspectRatio="xMinYMin meet" x="366.5" y="-338.2"/>
<text text-anchor="start" x="381.5" y="-328.3" font-family="Helvetica,sans-Serif" font-size="11.00" fill="#000000">id</text>
<polygon fill="none" stroke="#000000" points="361.5,-299.2 361.5,-321.2 500.5,-321.2 500.5,-299.2 361.5,-299.2"/>
<image xlink:href="../../images/foreignKeys.png" width="11px" height="12px" preserveAspectRatio="xMinYMin meet" x="366.5" y="-316.2"/>
<text text-anchor="start" x="381.5" y="-306.3" font-family="Helvetica,sans-Serif" font-size="11.00" fill="#000000">instituicao_id</text>
<polygon fill="none" stroke="#000000" points="361.5,-280.2 361.5,-299.2 500.5,-299.2 500.5,-280.2 361.5,-280.2"/>
<text text-anchor="start" x="364.5" y="-286.3" font-family="Helvetica,sans-Serif" font-size="11.00" fill="#000000">...</text>
<polygon fill="#ffffff" stroke="transparent" points="361.5,-261.2 361.5,-280.2 411.5,-280.2 411.5,-261.2 361.5,-261.2"/>
<polygon fill="none" stroke="#000000" points="361.5,-261.2 361.5,-280.2 411.5,-280.2 411.5,-261.2 361.5,-261.2"/>
<text text-anchor="start" x="364.5" y="-267.3" font-family="Helvetica,sans-Serif" font-size="11.00" fill="#000000">&lt; 1</text>
<polygon fill="#ffffff" stroke="transparent" points="411.5,-261.2 411.5,-280.2 464.5,-280.2 464.5,-261.2 411.5,-261.2"/>
<polygon fill="none" stroke="#000000" points="411.5,-261.2 411.5,-280.2 464.5,-280.2 464.5,-261.2 411.5,-261.2"/>
<text text-anchor="start" x="429.1105" y="-267.3" font-family="Helvetica,sans-Serif" font-size="11.00" fill="#000000">0 rows</text>
<polygon fill="#ffffff" stroke="transparent" points="464.5,-261.2 464.5,-280.2 500.5,-280.2 500.5,-261.2 464.5,-261.2"/>
<polygon fill="none" stroke="#000000" points="464.5,-261.2 464.5,-280.2 500.5,-280.2 500.5,-261.2 464.5,-261.2"/>
<text text-anchor="start" x="481.9053" y="-267.3" font-family="Helvetica,sans-Serif" font-size="11.00" fill="#000000">2 &gt;</text>
</a>
</g>
</g>
<!-- instituicao -->
<g id="node2" class="node">
<title>instituicao</title>
<g id="a_node2"><a xlink:href="../../tables/instituicao.html" xlink:title="instituicao" target="_top">
<polygon fill="#ffffff" stroke="transparent" points="146,-124.2 146,-346.2 312,-346.2 312,-124.2 146,-124.2"/>
<polygon fill="#f5f5f5" stroke="transparent" points="148,-321.2 148,-344.2 310,-344.2 310,-321.2 148,-321.2"/>
<polygon fill="none" stroke="#000000" points="148,-321.2 148,-344.2 310,-344.2 310,-321.2 148,-321.2"/>
<text text-anchor="start" x="153" y="-330.3" font-family="Helvetica,sans-Serif" font-weight="bold" font-size="11.00" fill="#000000">instituicao</text>
<text text-anchor="start" x="275.0437" y="-329.3" font-family="Helvetica,sans-Serif" font-size="11.00" fill="#000000">[table]</text>
<polygon fill="none" stroke="#000000" points="148,-299.2 148,-321.2 243,-321.2 243,-299.2 148,-299.2"/>
<image xlink:href="../../images/primaryKeys.png" width="11px" height="12px" preserveAspectRatio="xMinYMin meet" x="153" y="-316.2"/>
<text text-anchor="start" x="168" y="-306.3" font-family="Helvetica,sans-Serif" font-size="11.00" fill="#000000">usuario_id</text>
<polygon fill="none" stroke="#000000" points="243,-299.2 243,-321.2 310,-321.2 310,-299.2 243,-299.2"/>
<text text-anchor="start" x="246" y="-306.9" font-family="Helvetica,sans-Serif" font-size="11.00" fill="#000000">int4[10]</text>
<polygon fill="#ffffff" stroke="transparent" points="148,-277.2 148,-299.2 243,-299.2 243,-277.2 148,-277.2"/>
<polygon fill="none" stroke="#000000" points="148,-277.2 148,-299.2 243,-299.2 243,-277.2 148,-277.2"/>
<text text-anchor="start" x="168" y="-284.3" font-family="Helvetica,sans-Serif" font-size="11.00" fill="#000000">telefone</text>
<polygon fill="none" stroke="#000000" points="243,-277.2 243,-299.2 310,-299.2 310,-277.2 243,-277.2"/>
<text text-anchor="start" x="246" y="-284.9" font-family="Helvetica,sans-Serif" font-size="11.00" fill="#000000">varchar[20]</text>
<polygon fill="#ffffff" stroke="transparent" points="148,-255.2 148,-277.2 243,-277.2 243,-255.2 148,-255.2"/>
<polygon fill="none" stroke="#000000" points="148,-255.2 148,-277.2 243,-277.2 243,-255.2 148,-255.2"/>
<text text-anchor="start" x="168" y="-262.3" font-family="Helvetica,sans-Serif" font-size="11.00" fill="#000000">cnpj</text>
<polygon fill="none" stroke="#000000" points="243,-255.2 243,-277.2 310,-277.2 310,-255.2 243,-255.2"/>
<text text-anchor="start" x="246" y="-262.9" font-family="Helvetica,sans-Serif" font-size="11.00" fill="#000000">varchar[21]</text>
<polygon fill="none" stroke="#000000" points="148,-233.2 148,-255.2 243,-255.2 243,-233.2 148,-233.2"/>
<text text-anchor="start" x="168" y="-240.3" font-family="Helvetica,sans-Serif" font-size="11.00" fill="#000000">logradouro</text>
<polygon fill="none" stroke="#000000" points="243,-233.2 243,-255.2 310,-255.2 310,-233.2 243,-233.2"/>
<text text-anchor="start" x="245.9365" y="-240.9" font-family="Helvetica,sans-Serif" font-size="11.00" fill="#000000">varchar[100]</text>
<polygon fill="none" stroke="#000000" points="148,-211.2 148,-233.2 243,-233.2 243,-211.2 148,-211.2"/>
<text text-anchor="start" x="168" y="-218.3" font-family="Helvetica,sans-Serif" font-size="11.00" fill="#000000">numero</text>
<polygon fill="none" stroke="#000000" points="243,-211.2 243,-233.2 310,-233.2 310,-211.2 243,-211.2"/>
<text text-anchor="start" x="246" y="-218.9" font-family="Helvetica,sans-Serif" font-size="11.00" fill="#000000">varchar[10]</text>
<polygon fill="none" stroke="#000000" points="148,-189.2 148,-211.2 243,-211.2 243,-189.2 148,-189.2"/>
<text text-anchor="start" x="168" y="-196.3" font-family="Helvetica,sans-Serif" font-size="11.00" fill="#000000">cep</text>
<polygon fill="none" stroke="#000000" points="243,-189.2 243,-211.2 310,-211.2 310,-189.2 243,-189.2"/>
<text text-anchor="start" x="246" y="-196.9" font-family="Helvetica,sans-Serif" font-size="11.00" fill="#000000">varchar[10]</text>
<polygon fill="#ffffff" stroke="transparent" points="148,-167.2 148,-189.2 243,-189.2 243,-167.2 148,-167.2"/>
<polygon fill="none" stroke="#000000" points="148,-167.2 148,-189.2 243,-189.2 243,-167.2 148,-167.2"/>
<text text-anchor="start" x="168" y="-174.3" font-family="Helvetica,sans-Serif" font-size="11.00" fill="#000000">cpf</text>
<polygon fill="none" stroke="#000000" points="243,-167.2 243,-189.2 310,-189.2 310,-167.2 243,-167.2"/>
<text text-anchor="start" x="246" y="-174.9" font-family="Helvetica,sans-Serif" font-size="11.00" fill="#000000">varchar[14]</text>
<polygon fill="none" stroke="#000000" points="148,-145.2 148,-167.2 243,-167.2 243,-145.2 148,-145.2"/>
<image xlink:href="../../images/foreignKeys.png" width="11px" height="12px" preserveAspectRatio="xMinYMin meet" x="153" y="-162.2"/>
<text text-anchor="start" x="168" y="-152.3" font-family="Helvetica,sans-Serif" font-size="11.00" fill="#000000">municipio_id</text>
<polygon fill="none" stroke="#000000" points="243,-145.2 243,-167.2 310,-167.2 310,-145.2 243,-145.2"/>
<text text-anchor="start" x="246" y="-152.9" font-family="Helvetica,sans-Serif" font-size="11.00" fill="#000000">int4[10]</text>
<polygon fill="#ffffff" stroke="transparent" points="148,-126.2 148,-145.2 187,-145.2 187,-126.2 148,-126.2"/>
<polygon fill="none" stroke="#000000" points="148,-126.2 148,-145.2 187,-145.2 187,-126.2 148,-126.2"/>
<text text-anchor="start" x="151" y="-132.3" font-family="Helvetica,sans-Serif" font-size="11.00" fill="#000000">&lt; 2</text>
<polygon fill="#ffffff" stroke="transparent" points="187,-126.2 187,-145.2 243,-145.2 243,-126.2 187,-126.2"/>
<polygon fill="none" stroke="#000000" points="187,-126.2 187,-145.2 243,-145.2 243,-126.2 187,-126.2"/>
<text text-anchor="start" x="207.6105" y="-132.3" font-family="Helvetica,sans-Serif" font-size="11.00" fill="#000000">0 rows</text>
<polygon fill="#ffffff" stroke="transparent" points="243,-126.2 243,-145.2 310,-145.2 310,-126.2 243,-126.2"/>
<polygon fill="none" stroke="#000000" points="243,-126.2 243,-145.2 310,-145.2 310,-126.2 243,-126.2"/>
<text text-anchor="start" x="291.4053" y="-132.3" font-family="Helvetica,sans-Serif" font-size="11.00" fill="#000000">2 &gt;</text>
<polygon fill="none" stroke="#000000" stroke-width="2" points="147,-125.2 147,-345.2 311,-345.2 311,-125.2 147,-125.2"/>
</a>
</g>
</g>
<!-- animal&#45;&gt;instituicao -->
<g id="edge1" class="edge">
<title>animal:w&#45;&gt;instituicao:e</title>
<path fill="none" stroke="#000000" d="M347.0156,-310.2C334.6771,-310.2 327.1667,-310.2 310,-310.2"/>
<polygon fill="#000000" stroke="#000000" points="353.5,-310.2001 361.5,-313.8 357.5,-310.2 361.5,-310.2 361.5,-310.2 361.5,-310.2 357.5,-310.2 361.5,-306.6 353.5,-310.2001 353.5,-310.2001"/>
<ellipse fill="none" stroke="#000000" cx="350.3" cy="-310.2001" rx="3.2" ry="3.2"/>
</g>
<!-- municipio -->
<g id="node7" class="node">
<title>municipio</title>
<g id="a_node7"><a xlink:href="../../tables/municipio.html" xlink:title="municipio" target="_top">
<polygon fill="#ffffff" stroke="transparent" points="8,-38.2 8,-146.2 97,-146.2 97,-38.2 8,-38.2"/>
<polygon fill="#f5f5f5" stroke="transparent" points="8.5,-123.2 8.5,-146.2 97.5,-146.2 97.5,-123.2 8.5,-123.2"/>
<polygon fill="none" stroke="#000000" points="8.5,-123.2 8.5,-146.2 97.5,-146.2 97.5,-123.2 8.5,-123.2"/>
<text text-anchor="start" x="13.2779" y="-132.3" font-family="Helvetica,sans-Serif" font-weight="bold" font-size="11.00" fill="#000000">municipio</text>
<text text-anchor="start" x="63.0219" y="-131.3" font-family="Helvetica,sans-Serif" font-size="11.00" fill="#000000">[table]</text>
<polygon fill="none" stroke="#000000" points="8.5,-101.2 8.5,-123.2 97.5,-123.2 97.5,-101.2 8.5,-101.2"/>
<image xlink:href="../../images/primaryKeys.png" width="11px" height="12px" preserveAspectRatio="xMinYMin meet" x="13.5" y="-118.2"/>
<text text-anchor="start" x="34.5" y="-108.3" font-family="Helvetica,sans-Serif" font-size="11.00" fill="#000000">id</text>
<polygon fill="#ffffff" stroke="transparent" points="8.5,-79.2 8.5,-101.2 97.5,-101.2 97.5,-79.2 8.5,-79.2"/>
<polygon fill="none" stroke="#000000" points="8.5,-79.2 8.5,-101.2 97.5,-101.2 97.5,-79.2 8.5,-79.2"/>
<text text-anchor="start" x="34.5" y="-86.3" font-family="Helvetica,sans-Serif" font-size="11.00" fill="#000000">uf</text>
<polygon fill="#ffffff" stroke="transparent" points="8.5,-57.2 8.5,-79.2 97.5,-79.2 97.5,-57.2 8.5,-57.2"/>
<polygon fill="none" stroke="#000000" points="8.5,-57.2 8.5,-79.2 97.5,-79.2 97.5,-57.2 8.5,-57.2"/>
<text text-anchor="start" x="34.5" y="-64.3" font-family="Helvetica,sans-Serif" font-size="11.00" fill="#000000">nome</text>
<polygon fill="#ffffff" stroke="transparent" points="8.5,-38.2 8.5,-57.2 29.5,-57.2 29.5,-38.2 8.5,-38.2"/>
<polygon fill="none" stroke="#000000" points="8.5,-38.2 8.5,-57.2 29.5,-57.2 29.5,-38.2 8.5,-38.2"/>
<text text-anchor="start" x="11.5" y="-44.3" font-family="Helvetica,sans-Serif" font-size="11.00" fill="#000000"> &#160;</text>
<polygon fill="#ffffff" stroke="transparent" points="29.5,-38.2 29.5,-57.2 71.5,-57.2 71.5,-38.2 29.5,-38.2"/>
<polygon fill="none" stroke="#000000" points="29.5,-38.2 29.5,-57.2 71.5,-57.2 71.5,-38.2 29.5,-38.2"/>
<text text-anchor="start" x="36.1105" y="-44.3" font-family="Helvetica,sans-Serif" font-size="11.00" fill="#000000">0 rows</text>
<polygon fill="#ffffff" stroke="transparent" points="71.5,-38.2 71.5,-57.2 97.5,-57.2 97.5,-38.2 71.5,-38.2"/>
<polygon fill="none" stroke="#000000" points="71.5,-38.2 71.5,-57.2 97.5,-57.2 97.5,-38.2 71.5,-38.2"/>
<text text-anchor="start" x="78.9053" y="-44.3" font-family="Helvetica,sans-Serif" font-size="11.00" fill="#000000">2 &gt;</text>
</a>
</g>
</g>
<!-- instituicao&#45;&gt;municipio -->
<g id="edge6" class="edge">
<title>instituicao:w&#45;&gt;municipio:e</title>
<path fill="none" stroke="#000000" d="M134.0126,-151.4912C120.3016,-140.1404 121.2219,-112.2 97.5,-112.2"/>
<polygon fill="#000000" stroke="#000000" points="140.4181,-153.6476 146.8514,-159.6119 144.209,-154.9238 148,-156.2 148,-156.2 148,-156.2 144.209,-154.9238 149.1486,-152.7881 140.4181,-153.6476 140.4181,-153.6476"/>
<ellipse fill="none" stroke="#000000" cx="137.3853" cy="-152.6266" rx="3.2" ry="3.2"/>
</g>
<!-- usuario -->
<g id="node8" class="node">
<title>usuario</title>
<g id="a_node8"><a xlink:href="../../tables/usuario.html" xlink:title="usuario" target="_top">
<polygon fill="#ffffff" stroke="transparent" points="13,-192.7 13,-319.7 92,-319.7 92,-192.7 13,-192.7"/>
<polygon fill="#f5f5f5" stroke="transparent" points="13.5,-296.2 13.5,-319.2 92.5,-319.2 92.5,-296.2 13.5,-296.2"/>
<polygon fill="none" stroke="#000000" points="13.5,-296.2 13.5,-319.2 92.5,-319.2 92.5,-296.2 13.5,-296.2"/>
<text text-anchor="start" x="18.4688" y="-305.3" font-family="Helvetica,sans-Serif" font-weight="bold" font-size="11.00" fill="#000000">usuario</text>
<text text-anchor="start" x="58.0219" y="-304.3" font-family="Helvetica,sans-Serif" font-size="11.00" fill="#000000">[table]</text>
<polygon fill="none" stroke="#000000" points="13.5,-274.2 13.5,-296.2 92.5,-296.2 92.5,-274.2 13.5,-274.2"/>
<image xlink:href="../../images/primaryKeys.png" width="11px" height="12px" preserveAspectRatio="xMinYMin meet" x="18.5" y="-291.2"/>
<text text-anchor="start" x="38.5" y="-281.3" font-family="Helvetica,sans-Serif" font-size="11.00" fill="#000000">id</text>
<polygon fill="#ffffff" stroke="transparent" points="13.5,-252.2 13.5,-274.2 92.5,-274.2 92.5,-252.2 13.5,-252.2"/>
<polygon fill="none" stroke="#000000" points="13.5,-252.2 13.5,-274.2 92.5,-274.2 92.5,-252.2 13.5,-252.2"/>
<text text-anchor="start" x="38.5" y="-259.3" font-family="Helvetica,sans-Serif" font-size="11.00" fill="#000000">email</text>
<polygon fill="#ffffff" stroke="transparent" points="13.5,-230.2 13.5,-252.2 92.5,-252.2 92.5,-230.2 13.5,-230.2"/>
<polygon fill="none" stroke="#000000" points="13.5,-230.2 13.5,-252.2 92.5,-252.2 92.5,-230.2 13.5,-230.2"/>
<text text-anchor="start" x="38.5" y="-237.3" font-family="Helvetica,sans-Serif" font-size="11.00" fill="#000000">celular</text>
<polygon fill="none" stroke="#000000" points="13.5,-211.2 13.5,-230.2 92.5,-230.2 92.5,-211.2 13.5,-211.2"/>
<text text-anchor="start" x="16.5" y="-217.3" font-family="Helvetica,sans-Serif" font-size="11.00" fill="#000000">...</text>
<polygon fill="#ffffff" stroke="transparent" points="13.5,-192.2 13.5,-211.2 29.5,-211.2 29.5,-192.2 13.5,-192.2"/>
<polygon fill="none" stroke="#000000" points="13.5,-192.2 13.5,-211.2 29.5,-211.2 29.5,-192.2 13.5,-192.2"/>
<text text-anchor="start" x="16.5" y="-198.3" font-family="Helvetica,sans-Serif" font-size="11.00" fill="#000000"> &#160;</text>
<polygon fill="#ffffff" stroke="transparent" points="29.5,-192.2 29.5,-211.2 69.5,-211.2 69.5,-192.2 29.5,-192.2"/>
<polygon fill="none" stroke="#000000" points="29.5,-192.2 29.5,-211.2 69.5,-211.2 69.5,-192.2 29.5,-192.2"/>
<text text-anchor="start" x="34.1105" y="-198.3" font-family="Helvetica,sans-Serif" font-size="11.00" fill="#000000">0 rows</text>
<polygon fill="#ffffff" stroke="transparent" points="69.5,-192.2 69.5,-211.2 92.5,-211.2 92.5,-192.2 69.5,-192.2"/>
<polygon fill="none" stroke="#000000" points="69.5,-192.2 69.5,-211.2 92.5,-211.2 92.5,-192.2 69.5,-192.2"/>
<text text-anchor="start" x="73.9053" y="-198.3" font-family="Helvetica,sans-Serif" font-size="11.00" fill="#000000">2 &gt;</text>
</a>
</g>
</g>
<!-- instituicao&#45;&gt;usuario -->
<g id="edge7" class="edge">
<title>instituicao:w&#45;&gt;usuario:e</title>
<path fill="none" stroke="#000000" d="M137.481,-308.711C119.9675,-303.329 115.5379,-285.2 92.5,-285.2"/>
<polygon fill="#000000" stroke="#000000" points="147.7686,-306.1274 146.6472,-314.0484 145.063,-313.8241 146.1843,-305.9031 147.7686,-306.1274"/>
<polyline fill="none" stroke="#000000" points="148,-310.2 144.0395,-309.6393 "/>
<ellipse fill="none" stroke="#000000" cx="140.8711" cy="-309.1908" rx="3.2" ry="3.2"/>
</g>
<!-- arquivo_animal -->
<g id="node3" class="node">
<title>arquivo_animal</title>
<g id="a_node3"><a xlink:href="../../tables/arquivo_animal.html" xlink:title="arquivo_animal" target="_top">
<polygon fill="#ffffff" stroke="transparent" points="582.5,-369.7 582.5,-430.7 699.5,-430.7 699.5,-369.7 582.5,-369.7"/>
<polygon fill="#f5f5f5" stroke="transparent" points="583,-407.2 583,-430.2 700,-430.2 700,-407.2 583,-407.2"/>
<polygon fill="none" stroke="#000000" points="583,-407.2 583,-430.2 700,-430.2 700,-407.2 583,-407.2"/>
<text text-anchor="start" x="587.7171" y="-416.3" font-family="Helvetica,sans-Serif" font-weight="bold" font-size="11.00" fill="#000000">arquivo_animal</text>
<text text-anchor="start" x="665.5219" y="-415.3" font-family="Helvetica,sans-Serif" font-size="11.00" fill="#000000">[table]</text>
<polygon fill="none" stroke="#000000" points="583,-388.2 583,-407.2 700,-407.2 700,-388.2 583,-388.2"/>
<text text-anchor="start" x="586" y="-394.3" font-family="Helvetica,sans-Serif" font-size="11.00" fill="#000000">...</text>
<polygon fill="#ffffff" stroke="transparent" points="583,-369.2 583,-388.2 627,-388.2 627,-369.2 583,-369.2"/>
<polygon fill="none" stroke="#000000" points="583,-369.2 583,-388.2 627,-388.2 627,-369.2 583,-369.2"/>
<text text-anchor="start" x="586" y="-375.3" font-family="Helvetica,sans-Serif" font-size="11.00" fill="#000000">&lt; 1</text>
<polygon fill="#ffffff" stroke="transparent" points="627,-369.2 627,-388.2 676,-388.2 676,-369.2 627,-369.2"/>
<polygon fill="none" stroke="#000000" points="627,-369.2 627,-388.2 676,-388.2 676,-369.2 627,-369.2"/>
<text text-anchor="start" x="640.6105" y="-375.3" font-family="Helvetica,sans-Serif" font-size="11.00" fill="#000000">0 rows</text>
<polygon fill="#ffffff" stroke="transparent" points="676,-369.2 676,-388.2 700,-388.2 700,-369.2 676,-369.2"/>
<polygon fill="none" stroke="#000000" points="676,-369.2 676,-388.2 700,-388.2 700,-369.2 676,-369.2"/>
<text text-anchor="start" x="690.8862" y="-375.3" font-family="Helvetica,sans-Serif" font-size="11.00" fill="#000000"> &#160;</text>
</a>
</g>
</g>
<!-- arquivo_animal&#45;&gt;animal -->
<g id="edge2" class="edge">
<title>arquivo_animal:w&#45;&gt;animal:e</title>
<path fill="none" stroke="#000000" d="M568.7745,-394.7313C538.0752,-382.8583 541.7096,-332.2 500.5,-332.2"/>
<polygon fill="#000000" stroke="#000000" points="575.1178,-395.8321 582.3844,-400.747 579.0589,-396.516 583,-397.2 583,-397.2 583,-397.2 579.0589,-396.516 583.6156,-393.653 575.1178,-395.8321 575.1178,-395.8321"/>
<ellipse fill="none" stroke="#000000" cx="571.9649" cy="-395.2849" rx="3.2" ry="3.2"/>
</g>
<!-- arquivo_campanha -->
<g id="node4" class="node">
<title>arquivo_campanha</title>
<g id="a_node4"><a xlink:href="../../tables/arquivo_campanha.html" xlink:title="arquivo_campanha" target="_top">
<polygon fill="#ffffff" stroke="transparent" points="573,-123.7 573,-184.7 709,-184.7 709,-123.7 573,-123.7"/>
<polygon fill="#f5f5f5" stroke="transparent" points="573,-161.2 573,-184.2 709,-184.2 709,-161.2 573,-161.2"/>
<polygon fill="none" stroke="#000000" points="573,-161.2 573,-184.2 709,-184.2 709,-161.2 573,-161.2"/>
<text text-anchor="start" x="577.7357" y="-170.3" font-family="Helvetica,sans-Serif" font-weight="bold" font-size="11.00" fill="#000000">arquivo_campanha</text>
<text text-anchor="start" x="674.5219" y="-169.3" font-family="Helvetica,sans-Serif" font-size="11.00" fill="#000000">[table]</text>
<polygon fill="none" stroke="#000000" points="573,-142.2 573,-161.2 709,-161.2 709,-142.2 573,-142.2"/>
<text text-anchor="start" x="576" y="-148.3" font-family="Helvetica,sans-Serif" font-size="11.00" fill="#000000">...</text>
<polygon fill="#ffffff" stroke="transparent" points="573,-123.2 573,-142.2 626,-142.2 626,-123.2 573,-123.2"/>
<polygon fill="none" stroke="#000000" points="573,-123.2 573,-142.2 626,-142.2 626,-123.2 573,-123.2"/>
<text text-anchor="start" x="576" y="-129.3" font-family="Helvetica,sans-Serif" font-size="11.00" fill="#000000">&lt; 1</text>
<polygon fill="#ffffff" stroke="transparent" points="626,-123.2 626,-142.2 680,-142.2 680,-123.2 626,-123.2"/>
<polygon fill="none" stroke="#000000" points="626,-123.2 626,-142.2 680,-142.2 680,-123.2 626,-123.2"/>
<text text-anchor="start" x="644.6105" y="-129.3" font-family="Helvetica,sans-Serif" font-size="11.00" fill="#000000">0 rows</text>
<polygon fill="#ffffff" stroke="transparent" points="680,-123.2 680,-142.2 709,-142.2 709,-123.2 680,-123.2"/>
<polygon fill="none" stroke="#000000" points="680,-123.2 680,-142.2 709,-142.2 709,-123.2 680,-123.2"/>
<text text-anchor="start" x="699.8862" y="-129.3" font-family="Helvetica,sans-Serif" font-size="11.00" fill="#000000"> &#160;</text>
</a>
</g>
</g>
<!-- campanha -->
<g id="node5" class="node">
<title>campanha</title>
<g id="a_node5"><a xlink:href="../../tables/campanha.html" xlink:title="campanha" target="_top">
<polygon fill="#ffffff" stroke="transparent" points="381.5,-96.7 381.5,-201.7 479.5,-201.7 479.5,-96.7 381.5,-96.7"/>
<polygon fill="#f5f5f5" stroke="transparent" points="381.5,-178.2 381.5,-201.2 479.5,-201.2 479.5,-178.2 381.5,-178.2"/>
<polygon fill="none" stroke="#000000" points="381.5,-178.2 381.5,-201.2 479.5,-201.2 479.5,-178.2 381.5,-178.2"/>
<text text-anchor="start" x="386.5" y="-187.3" font-family="Helvetica,sans-Serif" font-weight="bold" font-size="11.00" fill="#000000">campanha</text>
<text text-anchor="start" x="444.5437" y="-186.3" font-family="Helvetica,sans-Serif" font-size="11.00" fill="#000000">[table]</text>
<polygon fill="none" stroke="#000000" points="381.5,-156.2 381.5,-178.2 479.5,-178.2 479.5,-156.2 381.5,-156.2"/>
<image xlink:href="../../images/primaryKeys.png" width="11px" height="12px" preserveAspectRatio="xMinYMin meet" x="386.5" y="-173.2"/>
<text text-anchor="start" x="401.5" y="-163.3" font-family="Helvetica,sans-Serif" font-size="11.00" fill="#000000">id</text>
<polygon fill="none" stroke="#000000" points="381.5,-134.2 381.5,-156.2 479.5,-156.2 479.5,-134.2 381.5,-134.2"/>
<image xlink:href="../../images/foreignKeys.png" width="11px" height="12px" preserveAspectRatio="xMinYMin meet" x="386.5" y="-151.2"/>
<text text-anchor="start" x="401.5" y="-141.3" font-family="Helvetica,sans-Serif" font-size="11.00" fill="#000000">instituicao_id</text>
<polygon fill="none" stroke="#000000" points="381.5,-115.2 381.5,-134.2 479.5,-134.2 479.5,-115.2 381.5,-115.2"/>
<text text-anchor="start" x="384.5" y="-121.3" font-family="Helvetica,sans-Serif" font-size="11.00" fill="#000000">...</text>
<polygon fill="#ffffff" stroke="transparent" points="381.5,-96.2 381.5,-115.2 411.5,-115.2 411.5,-96.2 381.5,-96.2"/>
<polygon fill="none" stroke="#000000" points="381.5,-96.2 381.5,-115.2 411.5,-115.2 411.5,-96.2 381.5,-96.2"/>
<text text-anchor="start" x="384.5" y="-102.3" font-family="Helvetica,sans-Serif" font-size="11.00" fill="#000000">&lt; 1</text>
<polygon fill="#ffffff" stroke="transparent" points="411.5,-96.2 411.5,-115.2 453.5,-115.2 453.5,-96.2 411.5,-96.2"/>
<polygon fill="none" stroke="#000000" points="411.5,-96.2 411.5,-115.2 453.5,-115.2 453.5,-96.2 411.5,-96.2"/>
<text text-anchor="start" x="418.1105" y="-102.3" font-family="Helvetica,sans-Serif" font-size="11.00" fill="#000000">0 rows</text>
<polygon fill="#ffffff" stroke="transparent" points="453.5,-96.2 453.5,-115.2 479.5,-115.2 479.5,-96.2 453.5,-96.2"/>
<polygon fill="none" stroke="#000000" points="453.5,-96.2 453.5,-115.2 479.5,-115.2 479.5,-96.2 453.5,-96.2"/>
<text text-anchor="start" x="460.9053" y="-102.3" font-family="Helvetica,sans-Serif" font-size="11.00" fill="#000000">3 &gt;</text>
</a>
</g>
</g>
<!-- arquivo_campanha&#45;&gt;campanha -->
<g id="edge3" class="edge">
<title>arquivo_campanha:w&#45;&gt;campanha:e</title>
<path fill="none" stroke="#000000" d="M558.6072,-151.8875C528.0299,-154.95 516.3897,-167.2 479.5,-167.2"/>
<polygon fill="#000000" stroke="#000000" points="565.0091,-151.5818 573.1718,-154.7959 569.0046,-151.3909 573,-151.2 573,-151.2 573,-151.2 569.0046,-151.3909 572.8282,-147.6041 565.0091,-151.5818 565.0091,-151.5818"/>
<ellipse fill="none" stroke="#000000" cx="561.8128" cy="-151.7345" rx="3.2" ry="3.2"/>
</g>
<!-- campanha&#45;&gt;instituicao -->
<g id="edge4" class="edge">
<title>campanha:w&#45;&gt;instituicao:e</title>
<path fill="none" stroke="#000000" d="M367.02,-147.5325C313.1691,-167.5874 384.3029,-310.2 310,-310.2"/>
<polygon fill="#000000" stroke="#000000" points="373.6018,-146.4723 382.0725,-148.7542 377.5509,-145.8362 381.5,-145.2 381.5,-145.2 381.5,-145.2 377.5509,-145.8362 380.9275,-141.6458 373.6018,-146.4723 373.6018,-146.4723"/>
<ellipse fill="none" stroke="#000000" cx="370.4425" cy="-146.9812" rx="3.2" ry="3.2"/>
</g>
<!-- formulario -->
<g id="node6" class="node">
<title>formulario</title>
<g id="a_node6"><a xlink:href="../../tables/formulario.html" xlink:title="formulario" target="_top">
<polygon fill="#ffffff" stroke="transparent" points="595.5,-205.7 595.5,-266.7 686.5,-266.7 686.5,-205.7 595.5,-205.7"/>
<polygon fill="#f5f5f5" stroke="transparent" points="596,-243.2 596,-266.2 687,-266.2 687,-243.2 596,-243.2"/>
<polygon fill="none" stroke="#000000" points="596,-243.2 596,-266.2 687,-266.2 687,-243.2 596,-243.2"/>
<text text-anchor="start" x="600.558" y="-252.3" font-family="Helvetica,sans-Serif" font-weight="bold" font-size="11.00" fill="#000000">formulario</text>
<text text-anchor="start" x="652.5219" y="-251.3" font-family="Helvetica,sans-Serif" font-size="11.00" fill="#000000">[table]</text>
<polygon fill="none" stroke="#000000" points="596,-224.2 596,-243.2 687,-243.2 687,-224.2 596,-224.2"/>
<text text-anchor="start" x="599" y="-230.3" font-family="Helvetica,sans-Serif" font-size="11.00" fill="#000000">...</text>
<polygon fill="#ffffff" stroke="transparent" points="596,-205.2 596,-224.2 627,-224.2 627,-205.2 596,-205.2"/>
<polygon fill="none" stroke="#000000" points="596,-205.2 596,-224.2 627,-224.2 627,-205.2 596,-205.2"/>
<text text-anchor="start" x="599" y="-211.3" font-family="Helvetica,sans-Serif" font-size="11.00" fill="#000000">&lt; 1</text>
<polygon fill="#ffffff" stroke="transparent" points="627,-205.2 627,-224.2 670,-224.2 670,-205.2 627,-205.2"/>
<polygon fill="none" stroke="#000000" points="627,-205.2 627,-224.2 670,-224.2 670,-205.2 627,-205.2"/>
<text text-anchor="start" x="634.6105" y="-211.3" font-family="Helvetica,sans-Serif" font-size="11.00" fill="#000000">0 rows</text>
<polygon fill="#ffffff" stroke="transparent" points="670,-205.2 670,-224.2 687,-224.2 687,-205.2 670,-205.2"/>
<polygon fill="none" stroke="#000000" points="670,-205.2 670,-224.2 687,-224.2 687,-205.2 670,-205.2"/>
<text text-anchor="start" x="677.8862" y="-211.3" font-family="Helvetica,sans-Serif" font-size="11.00" fill="#000000"> &#160;</text>
</a>
</g>
</g>
<!-- formulario&#45;&gt;campanha -->
<g id="edge5" class="edge">
<title>formulario:w&#45;&gt;campanha:e</title>
<path fill="none" stroke="#000000" d="M581.6623,-231.7601C536.4541,-222.1083 533.7792,-167.2 479.5,-167.2"/>
<polygon fill="#000000" stroke="#000000" points="588.04,-232.4006 595.6403,-236.782 592.02,-232.8003 596,-233.2 596,-233.2 596,-233.2 592.02,-232.8003 596.3597,-229.618 588.04,-232.4006 588.04,-232.4006"/>
<ellipse fill="none" stroke="#000000" cx="584.8561" cy="-232.0808" rx="3.2" ry="3.2"/>
</g>
<!-- pessoa -->
<g id="node9" class="node">
<title>pessoa</title>
<g id="a_node9"><a xlink:href="../../tables/pessoa.html" xlink:title="pessoa" target="_top">
<polygon fill="#ffffff" stroke="transparent" points="189,-41.7 189,-102.7 269,-102.7 269,-41.7 189,-41.7"/>
<polygon fill="#f5f5f5" stroke="transparent" points="189,-79.2 189,-102.2 269,-102.2 269,-79.2 189,-79.2"/>
<polygon fill="none" stroke="#000000" points="189,-79.2 189,-102.2 269,-102.2 269,-79.2 189,-79.2"/>
<text text-anchor="start" x="194" y="-88.3" font-family="Helvetica,sans-Serif" font-weight="bold" font-size="11.00" fill="#000000">pessoa</text>
<text text-anchor="start" x="234.0437" y="-87.3" font-family="Helvetica,sans-Serif" font-size="11.00" fill="#000000">[table]</text>
<polygon fill="none" stroke="#000000" points="189,-60.2 189,-79.2 269,-79.2 269,-60.2 189,-60.2"/>
<text text-anchor="start" x="192" y="-66.3" font-family="Helvetica,sans-Serif" font-size="11.00" fill="#000000">...</text>
<polygon fill="#ffffff" stroke="transparent" points="189,-41.2 189,-60.2 210,-60.2 210,-41.2 189,-41.2"/>
<polygon fill="none" stroke="#000000" points="189,-41.2 189,-60.2 210,-60.2 210,-41.2 189,-41.2"/>
<text text-anchor="start" x="191.7027" y="-47.3" font-family="Helvetica,sans-Serif" font-size="11.00" fill="#000000">&lt; 2</text>
<polygon fill="#ffffff" stroke="transparent" points="210,-41.2 210,-60.2 248,-60.2 248,-41.2 210,-41.2"/>
<polygon fill="none" stroke="#000000" points="210,-41.2 210,-60.2 248,-60.2 248,-41.2 210,-41.2"/>
<text text-anchor="start" x="212.8053" y="-47.3" font-family="Helvetica,sans-Serif" font-size="11.00" fill="#000000">0 rows</text>
<polygon fill="#ffffff" stroke="transparent" points="248,-41.2 248,-60.2 269,-60.2 269,-41.2 248,-41.2"/>
<polygon fill="none" stroke="#000000" points="248,-41.2 248,-60.2 269,-60.2 269,-41.2 248,-41.2"/>
<text text-anchor="start" x="250.7027" y="-47.3" font-family="Helvetica,sans-Serif" font-size="11.00" fill="#000000">2 &gt;</text>
</a>
</g>
</g>
<!-- pessoa&#45;&gt;municipio -->
<g id="edge8" class="edge">
<title>pessoa:w&#45;&gt;municipio:e</title>
<path fill="none" stroke="#000000" d="M174.4276,-70.9389C143.0361,-78.9835 136.9923,-112.2 97.5,-112.2"/>
<polygon fill="#000000" stroke="#000000" points="181.0564,-70.148 189.4266,-72.7746 185.0282,-69.674 189,-69.2 189,-69.2 189,-69.2 185.0282,-69.674 188.5734,-65.6254 181.0564,-70.148 181.0564,-70.148"/>
<ellipse fill="none" stroke="#000000" cx="177.8789" cy="-70.5271" rx="3.2" ry="3.2"/>
</g>
<!-- pessoa&#45;&gt;usuario -->
<g id="edge9" class="edge">
<title>pessoa:w&#45;&gt;usuario:e</title>
<path fill="none" stroke="#000000" d="M178.5806,-70.1027C157.5473,-74.1121 151.8251,-91.0888 138,-113.2 96.0788,-180.247 171.574,-285.2 92.5,-285.2"/>
<polygon fill="#000000" stroke="#000000" points="187.8577,-65.284 188.5483,-73.2541 186.9542,-73.3922 186.2637,-65.4221 187.8577,-65.284"/>
<polyline fill="none" stroke="#000000" points="189,-69.2 185.0149,-69.5453 "/>
<ellipse fill="none" stroke="#000000" cx="181.8269" cy="-69.8215" rx="3.2" ry="3.2"/>
</g>
<!-- pessoa_cadastra_campanha -->
<g id="node10" class="node">
<title>pessoa_cadastra_campanha</title>
<g id="a_node10"><a xlink:href="../../tables/pessoa_cadastra_campanha.html" xlink:title="pessoa_cadastra_campanha" target="_top">
<polygon fill="#ffffff" stroke="transparent" points="549,-41.7 549,-102.7 733,-102.7 733,-41.7 549,-41.7"/>
<polygon fill="#f5f5f5" stroke="transparent" points="549,-79.2 549,-102.2 733,-102.2 733,-79.2 549,-79.2"/>
<polygon fill="none" stroke="#000000" points="549,-79.2 549,-102.2 733,-102.2 733,-79.2 549,-79.2"/>
<text text-anchor="start" x="553.8905" y="-88.3" font-family="Helvetica,sans-Serif" font-weight="bold" font-size="11.00" fill="#000000">pessoa_cadastra_campanha</text>
<text text-anchor="start" x="698.5219" y="-87.3" font-family="Helvetica,sans-Serif" font-size="11.00" fill="#000000">[table]</text>
<polygon fill="none" stroke="#000000" points="549,-60.2 549,-79.2 733,-79.2 733,-60.2 549,-60.2"/>
<text text-anchor="start" x="552" y="-66.3" font-family="Helvetica,sans-Serif" font-size="11.00" fill="#000000">...</text>
<polygon fill="#ffffff" stroke="transparent" points="549,-41.2 549,-60.2 626,-60.2 626,-41.2 549,-41.2"/>
<polygon fill="none" stroke="#000000" points="549,-41.2 549,-60.2 626,-60.2 626,-41.2 549,-41.2"/>
<text text-anchor="start" x="552" y="-47.3" font-family="Helvetica,sans-Serif" font-size="11.00" fill="#000000">&lt; 2</text>
<polygon fill="#ffffff" stroke="transparent" points="626,-41.2 626,-60.2 692,-60.2 692,-41.2 626,-41.2"/>
<polygon fill="none" stroke="#000000" points="626,-41.2 626,-60.2 692,-60.2 692,-41.2 626,-41.2"/>
<text text-anchor="start" x="656.6105" y="-47.3" font-family="Helvetica,sans-Serif" font-size="11.00" fill="#000000">0 rows</text>
<polygon fill="#ffffff" stroke="transparent" points="692,-41.2 692,-60.2 733,-60.2 733,-41.2 692,-41.2"/>
<polygon fill="none" stroke="#000000" points="692,-41.2 692,-60.2 733,-60.2 733,-41.2 692,-41.2"/>
<text text-anchor="start" x="723.8862" y="-47.3" font-family="Helvetica,sans-Serif" font-size="11.00" fill="#000000"> &#160;</text>
</a>
</g>
</g>
<!-- pessoa_cadastra_campanha&#45;&gt;campanha -->
<g id="edge10" class="edge">
<title>pessoa_cadastra_campanha:w&#45;&gt;campanha:e</title>
<path fill="none" stroke="#000000" d="M534.9186,-72.2404C502.4611,-88.7818 527.265,-167.2 479.5,-167.2"/>
<polygon fill="#000000" stroke="#000000" points="541.1802,-70.8885 549.7598,-72.7189 545.0901,-70.0442 549,-69.2 549,-69.2 549,-69.2 545.0901,-70.0442 548.2402,-65.6811 541.1802,-70.8885 541.1802,-70.8885"/>
<ellipse fill="none" stroke="#000000" cx="538.0523" cy="-71.5638" rx="3.2" ry="3.2"/>
</g>
<!-- pessoa_cadastra_campanha&#45;&gt;pessoa -->
<g id="edge11" class="edge">
<title>pessoa_cadastra_campanha:w&#45;&gt;pessoa:e</title>
<path fill="none" stroke="#000000" d="M534.489,-69.2C421.9146,-69.2 388.4618,-69.2 269,-69.2"/>
<polygon fill="#000000" stroke="#000000" points="541,-69.2001 549,-72.8 545,-69.2 549,-69.2 549,-69.2 549,-69.2 545,-69.2 549,-65.6 541,-69.2001 541,-69.2001"/>
<ellipse fill="none" stroke="#000000" cx="537.8" cy="-69.2001" rx="3.2" ry="3.2"/>
</g>
<!-- pessoa_interessa_animal -->
<g id="node11" class="node">
<title>pessoa_interessa_animal</title>
<g id="a_node11"><a xlink:href="../../tables/pessoa_interessa_animal.html" xlink:title="pessoa_interessa_animal" target="_top">
<polygon fill="#ffffff" stroke="transparent" points="557.5,-287.7 557.5,-348.7 724.5,-348.7 724.5,-287.7 557.5,-287.7"/>
<polygon fill="#f5f5f5" stroke="transparent" points="558,-325.2 558,-348.2 725,-348.2 725,-325.2 558,-325.2"/>
<polygon fill="none" stroke="#000000" points="558,-325.2 558,-348.2 725,-348.2 725,-325.2 558,-325.2"/>
<text text-anchor="start" x="562.6515" y="-334.3" font-family="Helvetica,sans-Serif" font-weight="bold" font-size="11.00" fill="#000000">pessoa_interessa_animal</text>
<text text-anchor="start" x="690.5219" y="-333.3" font-family="Helvetica,sans-Serif" font-size="11.00" fill="#000000">[table]</text>
<polygon fill="none" stroke="#000000" points="558,-306.2 558,-325.2 725,-325.2 725,-306.2 558,-306.2"/>
<text text-anchor="start" x="561" y="-312.3" font-family="Helvetica,sans-Serif" font-size="11.00" fill="#000000">...</text>
<polygon fill="#ffffff" stroke="transparent" points="558,-287.2 558,-306.2 627,-306.2 627,-287.2 558,-287.2"/>
<polygon fill="none" stroke="#000000" points="558,-287.2 558,-306.2 627,-306.2 627,-287.2 558,-287.2"/>
<text text-anchor="start" x="561" y="-293.3" font-family="Helvetica,sans-Serif" font-size="11.00" fill="#000000">&lt; 2</text>
<polygon fill="#ffffff" stroke="transparent" points="627,-287.2 627,-306.2 689,-306.2 689,-287.2 627,-287.2"/>
<polygon fill="none" stroke="#000000" points="627,-287.2 627,-306.2 689,-306.2 689,-287.2 627,-287.2"/>
<text text-anchor="start" x="653.6105" y="-293.3" font-family="Helvetica,sans-Serif" font-size="11.00" fill="#000000">0 rows</text>
<polygon fill="#ffffff" stroke="transparent" points="689,-287.2 689,-306.2 725,-306.2 725,-287.2 689,-287.2"/>
<polygon fill="none" stroke="#000000" points="689,-287.2 689,-306.2 725,-306.2 725,-287.2 689,-287.2"/>
<text text-anchor="start" x="715.8862" y="-293.3" font-family="Helvetica,sans-Serif" font-size="11.00" fill="#000000"> &#160;</text>
</a>
</g>
</g>
<!-- pessoa_interessa_animal&#45;&gt;animal -->
<g id="edge12" class="edge">
<title>pessoa_interessa_animal:w&#45;&gt;animal:e</title>
<path fill="none" stroke="#000000" d="M543.7111,-317.1501C528.5795,-321.6155 521.5278,-332.2 500.5,-332.2"/>
<polygon fill="#000000" stroke="#000000" points="550.0735,-316.2818 558.4868,-318.7669 554.0367,-315.7409 558,-315.2 558,-315.2 558,-315.2 554.0367,-315.7409 557.5132,-311.6331 550.0735,-316.2818 550.0735,-316.2818"/>
<ellipse fill="none" stroke="#000000" cx="546.9029" cy="-316.7146" rx="3.2" ry="3.2"/>
</g>
<!-- pessoa_interessa_animal&#45;&gt;pessoa -->
<g id="edge13" class="edge">
<title>pessoa_interessa_animal:w&#45;&gt;pessoa:e</title>
<path fill="none" stroke="#000000" d="M543.5328,-311.6232C526.1469,-300.6963 533.0518,-267.5075 508,-251.2 448.4662,-212.4463 405.0841,-260.505 353,-212.2 318.9938,-180.6613 345.8176,-151.7301 320,-113.2 303.3358,-88.3303 298.9366,-69.2 269,-69.2"/>
<polygon fill="#000000" stroke="#000000" points="550.2338,-313.2799 557.136,-318.6948 554.1169,-314.24 558,-315.2 558,-315.2 558,-315.2 554.1169,-314.24 558.864,-311.7052 550.2338,-313.2799 550.2338,-313.2799"/>
<ellipse fill="none" stroke="#000000" cx="547.1274" cy="-312.5119" rx="3.2" ry="3.2"/>
</g>
</g>
</svg>
