<?xml version="1.0" encoding="UTF-8" standalone="no"?>
<!DOCTYPE svg PUBLIC "-//W3C//DTD SVG 1.1//EN"
 "http://www.w3.org/Graphics/SVG/1.1/DTD/svg11.dtd">
<!-- Generated by graphviz version 2.40.1 (20161225.0304)
 -->
<!-- Title: oneDegreeRelationshipsDiagram Pages: 1 -->
<svg width="516pt" height="398pt"
 viewBox="0.00 0.00 516.00 397.70" xmlns="http://www.w3.org/2000/svg" xmlns:xlink="http://www.w3.org/1999/xlink">
<g id="graph0" class="graph" transform="scale(1 1) rotate(0) translate(4 393.7)">
<title>oneDegreeRelationshipsDiagram</title>
<polygon fill="#ffffff" stroke="transparent" points="-4,4 -4,-393.7 512,-393.7 512,4 -4,4"/>
<text text-anchor="middle" x="72.4936" y="-7.3" font-family="Helvetica,sans-Serif" font-size="11.00" fill="#000000">Generated by SchemaSpy</text>
<!-- animal -->
<g id="node1" class="node">
<title>animal</title>
<g id="a_node1"><a xlink:href="../../tables/animal.html" xlink:title="animal" target="_top">
<polygon fill="#ffffff" stroke="transparent" points="361,-280.7 361,-385.7 500,-385.7 500,-280.7 361,-280.7"/>
<polygon fill="#f5f5f5" stroke="transparent" points="361.5,-362.2 361.5,-385.2 500.5,-385.2 500.5,-362.2 361.5,-362.2"/>
<polygon fill="none" stroke="#000000" points="361.5,-362.2 361.5,-385.2 500.5,-385.2 500.5,-362.2 361.5,-362.2"/>
<text text-anchor="start" x="366.5" y="-371.3" font-family="Helvetica,sans-Serif" font-weight="bold" font-size="11.00" fill="#000000">animal</text>
<text text-anchor="start" x="465.5437" y="-370.3" font-family="Helvetica,sans-Serif" font-size="11.00" fill="#000000">[table]</text>
<polygon fill="none" stroke="#000000" points="361.5,-340.2 361.5,-362.2 500.5,-362.2 500.5,-340.2 361.5,-340.2"/>
<image xlink:href="../../images/primaryKeys.png" width="11px" height="12px" preserveAspectRatio="xMinYMin meet" x="366.5" y="-357.2"/>
<text text-anchor="start" x="381.5" y="-347.3" font-family="Helvetica,sans-Serif" font-size="11.00" fill="#000000">id</text>
<polygon fill="none" stroke="#000000" points="361.5,-318.2 361.5,-340.2 500.5,-340.2 500.5,-318.2 361.5,-318.2"/>
<image xlink:href="../../images/foreignKeys.png" width="11px" height="12px" preserveAspectRatio="xMinYMin meet" x="366.5" y="-335.2"/>
<text text-anchor="start" x="381.5" y="-325.3" font-family="Helvetica,sans-Serif" font-size="11.00" fill="#000000">instituicao_id</text>
<polygon fill="none" stroke="#000000" points="361.5,-299.2 361.5,-318.2 500.5,-318.2 500.5,-299.2 361.5,-299.2"/>
<text text-anchor="start" x="364.5" y="-305.3" font-family="Helvetica,sans-Serif" font-size="11.00" fill="#000000">...</text>
<polygon fill="#ffffff" stroke="transparent" points="361.5,-280.2 361.5,-299.2 411.5,-299.2 411.5,-280.2 361.5,-280.2"/>
<polygon fill="none" stroke="#000000" points="361.5,-280.2 361.5,-299.2 411.5,-299.2 411.5,-280.2 361.5,-280.2"/>
<text text-anchor="start" x="364.5" y="-286.3" font-family="Helvetica,sans-Serif" font-size="11.00" fill="#000000">&lt; 1</text>
<polygon fill="#ffffff" stroke="transparent" points="411.5,-280.2 411.5,-299.2 464.5,-299.2 464.5,-280.2 411.5,-280.2"/>
<polygon fill="none" stroke="#000000" points="411.5,-280.2 411.5,-299.2 464.5,-299.2 464.5,-280.2 411.5,-280.2"/>
<text text-anchor="start" x="429.1105" y="-286.3" font-family="Helvetica,sans-Serif" font-size="11.00" fill="#000000">0 rows</text>
<polygon fill="#ffffff" stroke="transparent" points="464.5,-280.2 464.5,-299.2 500.5,-299.2 500.5,-280.2 464.5,-280.2"/>
<polygon fill="none" stroke="#000000" points="464.5,-280.2 464.5,-299.2 500.5,-299.2 500.5,-280.2 464.5,-280.2"/>
<text text-anchor="start" x="481.9053" y="-286.3" font-family="Helvetica,sans-Serif" font-size="11.00" fill="#000000">2 &gt;</text>
</a>
</g>
</g>
<!-- instituicao -->
<g id="node2" class="node">
<title>instituicao</title>
<g id="a_node2"><a xlink:href="../../tables/instituicao.html" xlink:title="instituicao" target="_top">
<polygon fill="#ffffff" stroke="transparent" points="146,-80.2 146,-302.2 312,-302.2 312,-80.2 146,-80.2"/>
<polygon fill="#f5f5f5" stroke="transparent" points="148,-277.2 148,-300.2 310,-300.2 310,-277.2 148,-277.2"/>
<polygon fill="none" stroke="#000000" points="148,-277.2 148,-300.2 310,-300.2 310,-277.2 148,-277.2"/>
<text text-anchor="start" x="153" y="-286.3" font-family="Helvetica,sans-Serif" font-weight="bold" font-size="11.00" fill="#000000">instituicao</text>
<text text-anchor="start" x="275.0437" y="-285.3" font-family="Helvetica,sans-Serif" font-size="11.00" fill="#000000">[table]</text>
<polygon fill="none" stroke="#000000" points="148,-255.2 148,-277.2 243,-277.2 243,-255.2 148,-255.2"/>
<image xlink:href="../../images/primaryKeys.png" width="11px" height="12px" preserveAspectRatio="xMinYMin meet" x="153" y="-272.2"/>
<text text-anchor="start" x="168" y="-262.3" font-family="Helvetica,sans-Serif" font-size="11.00" fill="#000000">usuario_id</text>
<polygon fill="none" stroke="#000000" points="243,-255.2 243,-277.2 310,-277.2 310,-255.2 243,-255.2"/>
<text text-anchor="start" x="246" y="-262.9" font-family="Helvetica,sans-Serif" font-size="11.00" fill="#000000">int4[10]</text>
<polygon fill="#ffffff" stroke="transparent" points="148,-233.2 148,-255.2 243,-255.2 243,-233.2 148,-233.2"/>
<polygon fill="none" stroke="#000000" points="148,-233.2 148,-255.2 243,-255.2 243,-233.2 148,-233.2"/>
<text text-anchor="start" x="168" y="-240.3" font-family="Helvetica,sans-Serif" font-size="11.00" fill="#000000">telefone</text>
<polygon fill="none" stroke="#000000" points="243,-233.2 243,-255.2 310,-255.2 310,-233.2 243,-233.2"/>
<text text-anchor="start" x="246" y="-240.9" font-family="Helvetica,sans-Serif" font-size="11.00" fill="#000000">varchar[20]</text>
<polygon fill="#ffffff" stroke="transparent" points="148,-211.2 148,-233.2 243,-233.2 243,-211.2 148,-211.2"/>
<polygon fill="none" stroke="#000000" points="148,-211.2 148,-233.2 243,-233.2 243,-211.2 148,-211.2"/>
<text text-anchor="start" x="168" y="-218.3" font-family="Helvetica,sans-Serif" font-size="11.00" fill="#000000">cnpj</text>
<polygon fill="none" stroke="#000000" points="243,-211.2 243,-233.2 310,-233.2 310,-211.2 243,-211.2"/>
<text text-anchor="start" x="246" y="-218.9" font-family="Helvetica,sans-Serif" font-size="11.00" fill="#000000">varchar[21]</text>
<polygon fill="none" stroke="#000000" points="148,-189.2 148,-211.2 243,-211.2 243,-189.2 148,-189.2"/>
<text text-anchor="start" x="168" y="-196.3" font-family="Helvetica,sans-Serif" font-size="11.00" fill="#000000">logradouro</text>
<polygon fill="none" stroke="#000000" points="243,-189.2 243,-211.2 310,-211.2 310,-189.2 243,-189.2"/>
<text text-anchor="start" x="245.9365" y="-196.9" font-family="Helvetica,sans-Serif" font-size="11.00" fill="#000000">varchar[100]</text>
<polygon fill="none" stroke="#000000" points="148,-167.2 148,-189.2 243,-189.2 243,-167.2 148,-167.2"/>
<text text-anchor="start" x="168" y="-174.3" font-family="Helvetica,sans-Serif" font-size="11.00" fill="#000000">numero</text>
<polygon fill="none" stroke="#000000" points="243,-167.2 243,-189.2 310,-189.2 310,-167.2 243,-167.2"/>
<text text-anchor="start" x="246" y="-174.9" font-family="Helvetica,sans-Serif" font-size="11.00" fill="#000000">varchar[10]</text>
<polygon fill="none" stroke="#000000" points="148,-145.2 148,-167.2 243,-167.2 243,-145.2 148,-145.2"/>
<text text-anchor="start" x="168" y="-152.3" font-family="Helvetica,sans-Serif" font-size="11.00" fill="#000000">cep</text>
<polygon fill="none" stroke="#000000" points="243,-145.2 243,-167.2 310,-167.2 310,-145.2 243,-145.2"/>
<text text-anchor="start" x="246" y="-152.9" font-family="Helvetica,sans-Serif" font-size="11.00" fill="#000000">varchar[10]</text>
<polygon fill="#ffffff" stroke="transparent" points="148,-123.2 148,-145.2 243,-145.2 243,-123.2 148,-123.2"/>
<polygon fill="none" stroke="#000000" points="148,-123.2 148,-145.2 243,-145.2 243,-123.2 148,-123.2"/>
<text text-anchor="start" x="168" y="-130.3" font-family="Helvetica,sans-Serif" font-size="11.00" fill="#000000">cpf</text>
<polygon fill="none" stroke="#000000" points="243,-123.2 243,-145.2 310,-145.2 310,-123.2 243,-123.2"/>
<text text-anchor="start" x="246" y="-130.9" font-family="Helvetica,sans-Serif" font-size="11.00" fill="#000000">varchar[14]</text>
<polygon fill="none" stroke="#000000" points="148,-101.2 148,-123.2 243,-123.2 243,-101.2 148,-101.2"/>
<image xlink:href="../../images/foreignKeys.png" width="11px" height="12px" preserveAspectRatio="xMinYMin meet" x="153" y="-118.2"/>
<text text-anchor="start" x="168" y="-108.3" font-family="Helvetica,sans-Serif" font-size="11.00" fill="#000000">municipio_id</text>
<polygon fill="none" stroke="#000000" points="243,-101.2 243,-123.2 310,-123.2 310,-101.2 243,-101.2"/>
<text text-anchor="start" x="246" y="-108.9" font-family="Helvetica,sans-Serif" font-size="11.00" fill="#000000">int4[10]</text>
<polygon fill="#ffffff" stroke="transparent" points="148,-82.2 148,-101.2 187,-101.2 187,-82.2 148,-82.2"/>
<polygon fill="none" stroke="#000000" points="148,-82.2 148,-101.2 187,-101.2 187,-82.2 148,-82.2"/>
<text text-anchor="start" x="151" y="-88.3" font-family="Helvetica,sans-Serif" font-size="11.00" fill="#000000">&lt; 2</text>
<polygon fill="#ffffff" stroke="transparent" points="187,-82.2 187,-101.2 243,-101.2 243,-82.2 187,-82.2"/>
<polygon fill="none" stroke="#000000" points="187,-82.2 187,-101.2 243,-101.2 243,-82.2 187,-82.2"/>
<text text-anchor="start" x="207.6105" y="-88.3" font-family="Helvetica,sans-Serif" font-size="11.00" fill="#000000">0 rows</text>
<polygon fill="#ffffff" stroke="transparent" points="243,-82.2 243,-101.2 310,-101.2 310,-82.2 243,-82.2"/>
<polygon fill="none" stroke="#000000" points="243,-82.2 243,-101.2 310,-101.2 310,-82.2 243,-82.2"/>
<text text-anchor="start" x="291.4053" y="-88.3" font-family="Helvetica,sans-Serif" font-size="11.00" fill="#000000">2 &gt;</text>
<polygon fill="none" stroke="#000000" stroke-width="2" points="147,-81.2 147,-301.2 311,-301.2 311,-81.2 147,-81.2"/>
</a>
</g>
</g>
<!-- animal&#45;&gt;instituicao -->
<g id="edge1" class="edge">
<title>animal:w&#45;&gt;instituicao:e</title>
<path fill="none" stroke="#000000" d="M347.799,-324.6692C330.6358,-310.2239 340.2316,-266.2 310,-266.2"/>
<polygon fill="#000000" stroke="#000000" points="353.9045,-326.6882 360.3697,-332.618 357.7023,-327.9441 361.5,-329.2 361.5,-329.2 361.5,-329.2 357.7023,-327.9441 362.6303,-325.782 353.9045,-326.6882 353.9045,-326.6882"/>
<ellipse fill="none" stroke="#000000" cx="350.8663" cy="-325.6835" rx="3.2" ry="3.2"/>
</g>
<!-- municipio -->
<g id="node4" class="node">
<title>municipio</title>
<g id="a_node4"><a xlink:href="../../tables/municipio.html" xlink:title="municipio" target="_top">
<polygon fill="#ffffff" stroke="transparent" points="8,-38.2 8,-146.2 97,-146.2 97,-38.2 8,-38.2"/>
<polygon fill="#f5f5f5" stroke="transparent" points="8.5,-123.2 8.5,-146.2 97.5,-146.2 97.5,-123.2 8.5,-123.2"/>
<polygon fill="none" stroke="#000000" points="8.5,-123.2 8.5,-146.2 97.5,-146.2 97.5,-123.2 8.5,-123.2"/>
<text text-anchor="start" x="13.2779" y="-132.3" font-family="Helvetica,sans-Serif" font-weight="bold" font-size="11.00" fill="#000000">municipio</text>
<text text-anchor="start" x="63.0219" y="-131.3" font-family="Helvetica,sans-Serif" font-size="11.00" fill="#000000">[table]</text>
<polygon fill="none" stroke="#000000" points="8.5,-101.2 8.5,-123.2 97.5,-123.2 97.5,-101.2 8.5,-101.2"/>
<image xlink:href="../../images/primaryKeys.png" width="11px" height="12px" preserveAspectRatio="xMinYMin meet" x="13.5" y="-118.2"/>
<text text-anchor="start" x="34.5" y="-108.3" font-family="Helvetica,sans-Serif" font-size="11.00" fill="#000000">id</text>
<polygon fill="#ffffff" stroke="transparent" points="8.5,-79.2 8.5,-101.2 97.5,-101.2 97.5,-79.2 8.5,-79.2"/>
<polygon fill="none" stroke="#000000" points="8.5,-79.2 8.5,-101.2 97.5,-101.2 97.5,-79.2 8.5,-79.2"/>
<text text-anchor="start" x="34.5" y="-86.3" font-family="Helvetica,sans-Serif" font-size="11.00" fill="#000000">uf</text>
<polygon fill="#ffffff" stroke="transparent" points="8.5,-57.2 8.5,-79.2 97.5,-79.2 97.5,-57.2 8.5,-57.2"/>
<polygon fill="none" stroke="#000000" points="8.5,-57.2 8.5,-79.2 97.5,-79.2 97.5,-57.2 8.5,-57.2"/>
<text text-anchor="start" x="34.5" y="-64.3" font-family="Helvetica,sans-Serif" font-size="11.00" fill="#000000">nome</text>
<polygon fill="#ffffff" stroke="transparent" points="8.5,-38.2 8.5,-57.2 29.5,-57.2 29.5,-38.2 8.5,-38.2"/>
<polygon fill="none" stroke="#000000" points="8.5,-38.2 8.5,-57.2 29.5,-57.2 29.5,-38.2 8.5,-38.2"/>
<text text-anchor="start" x="11.5" y="-44.3" font-family="Helvetica,sans-Serif" font-size="11.00" fill="#000000"> &#160;</text>
<polygon fill="#ffffff" stroke="transparent" points="29.5,-38.2 29.5,-57.2 71.5,-57.2 71.5,-38.2 29.5,-38.2"/>
<polygon fill="none" stroke="#000000" points="29.5,-38.2 29.5,-57.2 71.5,-57.2 71.5,-38.2 29.5,-38.2"/>
<text text-anchor="start" x="36.1105" y="-44.3" font-family="Helvetica,sans-Serif" font-size="11.00" fill="#000000">0 rows</text>
<polygon fill="#ffffff" stroke="transparent" points="71.5,-38.2 71.5,-57.2 97.5,-57.2 97.5,-38.2 71.5,-38.2"/>
<polygon fill="none" stroke="#000000" points="71.5,-38.2 71.5,-57.2 97.5,-57.2 97.5,-38.2 71.5,-38.2"/>
<text text-anchor="start" x="78.9053" y="-44.3" font-family="Helvetica,sans-Serif" font-size="11.00" fill="#000000">2 &gt;</text>
</a>
</g>
</g>
<!-- instituicao&#45;&gt;municipio -->
<g id="edge3" class="edge">
<title>instituicao:w&#45;&gt;municipio:e</title>
<path fill="none" stroke="#000000" d="M133.4203,-112.2C121.5435,-112.2 114.158,-112.2 97.5,-112.2"/>
<polygon fill="#000000" stroke="#000000" points="140,-112.2001 148,-115.8 144,-112.2 148,-112.2 148,-112.2 148,-112.2 144,-112.2 148,-108.6 140,-112.2001 140,-112.2001"/>
<ellipse fill="none" stroke="#000000" cx="136.8" cy="-112.2001" rx="3.2" ry="3.2"/>
</g>
<!-- usuario -->
<g id="node5" class="node">
<title>usuario</title>
<g id="a_node5"><a xlink:href="../../tables/usuario.html" xlink:title="usuario" target="_top">
<polygon fill="#ffffff" stroke="transparent" points="13,-173.7 13,-300.7 92,-300.7 92,-173.7 13,-173.7"/>
<polygon fill="#f5f5f5" stroke="transparent" points="13.5,-277.2 13.5,-300.2 92.5,-300.2 92.5,-277.2 13.5,-277.2"/>
<polygon fill="none" stroke="#000000" points="13.5,-277.2 13.5,-300.2 92.5,-300.2 92.5,-277.2 13.5,-277.2"/>
<text text-anchor="start" x="18.4688" y="-286.3" font-family="Helvetica,sans-Serif" font-weight="bold" font-size="11.00" fill="#000000">usuario</text>
<text text-anchor="start" x="58.0219" y="-285.3" font-family="Helvetica,sans-Serif" font-size="11.00" fill="#000000">[table]</text>
<polygon fill="none" stroke="#000000" points="13.5,-255.2 13.5,-277.2 92.5,-277.2 92.5,-255.2 13.5,-255.2"/>
<image xlink:href="../../images/primaryKeys.png" width="11px" height="12px" preserveAspectRatio="xMinYMin meet" x="18.5" y="-272.2"/>
<text text-anchor="start" x="38.5" y="-262.3" font-family="Helvetica,sans-Serif" font-size="11.00" fill="#000000">id</text>
<polygon fill="#ffffff" stroke="transparent" points="13.5,-233.2 13.5,-255.2 92.5,-255.2 92.5,-233.2 13.5,-233.2"/>
<polygon fill="none" stroke="#000000" points="13.5,-233.2 13.5,-255.2 92.5,-255.2 92.5,-233.2 13.5,-233.2"/>
<text text-anchor="start" x="38.5" y="-240.3" font-family="Helvetica,sans-Serif" font-size="11.00" fill="#000000">email</text>
<polygon fill="#ffffff" stroke="transparent" points="13.5,-211.2 13.5,-233.2 92.5,-233.2 92.5,-211.2 13.5,-211.2"/>
<polygon fill="none" stroke="#000000" points="13.5,-211.2 13.5,-233.2 92.5,-233.2 92.5,-211.2 13.5,-211.2"/>
<text text-anchor="start" x="38.5" y="-218.3" font-family="Helvetica,sans-Serif" font-size="11.00" fill="#000000">celular</text>
<polygon fill="none" stroke="#000000" points="13.5,-192.2 13.5,-211.2 92.5,-211.2 92.5,-192.2 13.5,-192.2"/>
<text text-anchor="start" x="16.5" y="-198.3" font-family="Helvetica,sans-Serif" font-size="11.00" fill="#000000">...</text>
<polygon fill="#ffffff" stroke="transparent" points="13.5,-173.2 13.5,-192.2 29.5,-192.2 29.5,-173.2 13.5,-173.2"/>
<polygon fill="none" stroke="#000000" points="13.5,-173.2 13.5,-192.2 29.5,-192.2 29.5,-173.2 13.5,-173.2"/>
<text text-anchor="start" x="16.5" y="-179.3" font-family="Helvetica,sans-Serif" font-size="11.00" fill="#000000"> &#160;</text>
<polygon fill="#ffffff" stroke="transparent" points="29.5,-173.2 29.5,-192.2 69.5,-192.2 69.5,-173.2 29.5,-173.2"/>
<polygon fill="none" stroke="#000000" points="29.5,-173.2 29.5,-192.2 69.5,-192.2 69.5,-173.2 29.5,-173.2"/>
<text text-anchor="start" x="34.1105" y="-179.3" font-family="Helvetica,sans-Serif" font-size="11.00" fill="#000000">0 rows</text>
<polygon fill="#ffffff" stroke="transparent" points="69.5,-173.2 69.5,-192.2 92.5,-192.2 92.5,-173.2 69.5,-173.2"/>
<polygon fill="none" stroke="#000000" points="69.5,-173.2 69.5,-192.2 92.5,-192.2 92.5,-173.2 69.5,-173.2"/>
<text text-anchor="start" x="73.9053" y="-179.3" font-family="Helvetica,sans-Serif" font-size="11.00" fill="#000000">2 &gt;</text>
</a>
</g>
</g>
<!-- instituicao&#45;&gt;usuario -->
<g id="edge4" class="edge">
<title>instituicao:w&#45;&gt;usuario:e</title>
<path fill="none" stroke="#000000" d="M137.1898,-266.2C120.8119,-266.2 113.1198,-266.2 92.5,-266.2"/>
<polygon fill="#000000" stroke="#000000" points="147.2,-262.2 147.2,-270.2 145.6,-270.2 145.6,-262.2 147.2,-262.2"/>
<polyline fill="none" stroke="#000000" points="148,-266.2 144,-266.2 "/>
<ellipse fill="none" stroke="#000000" cx="140.8" cy="-266.2001" rx="3.2" ry="3.2"/>
</g>
<!-- campanha -->
<g id="node3" class="node">
<title>campanha</title>
<g id="a_node3"><a xlink:href="../../tables/campanha.html" xlink:title="campanha" target="_top">
<polygon fill="#ffffff" stroke="transparent" points="381.5,-154.7 381.5,-259.7 479.5,-259.7 479.5,-154.7 381.5,-154.7"/>
<polygon fill="#f5f5f5" stroke="transparent" points="381.5,-236.2 381.5,-259.2 479.5,-259.2 479.5,-236.2 381.5,-236.2"/>
<polygon fill="none" stroke="#000000" points="381.5,-236.2 381.5,-259.2 479.5,-259.2 479.5,-236.2 381.5,-236.2"/>
<text text-anchor="start" x="386.5" y="-245.3" font-family="Helvetica,sans-Serif" font-weight="bold" font-size="11.00" fill="#000000">campanha</text>
<text text-anchor="start" x="444.5437" y="-244.3" font-family="Helvetica,sans-Serif" font-size="11.00" fill="#000000">[table]</text>
<polygon fill="none" stroke="#000000" points="381.5,-214.2 381.5,-236.2 479.5,-236.2 479.5,-214.2 381.5,-214.2"/>
<image xlink:href="../../images/primaryKeys.png" width="11px" height="12px" preserveAspectRatio="xMinYMin meet" x="386.5" y="-231.2"/>
<text text-anchor="start" x="401.5" y="-221.3" font-family="Helvetica,sans-Serif" font-size="11.00" fill="#000000">id</text>
<polygon fill="none" stroke="#000000" points="381.5,-192.2 381.5,-214.2 479.5,-214.2 479.5,-192.2 381.5,-192.2"/>
<image xlink:href="../../images/foreignKeys.png" width="11px" height="12px" preserveAspectRatio="xMinYMin meet" x="386.5" y="-209.2"/>
<text text-anchor="start" x="401.5" y="-199.3" font-family="Helvetica,sans-Serif" font-size="11.00" fill="#000000">instituicao_id</text>
<polygon fill="none" stroke="#000000" points="381.5,-173.2 381.5,-192.2 479.5,-192.2 479.5,-173.2 381.5,-173.2"/>
<text text-anchor="start" x="384.5" y="-179.3" font-family="Helvetica,sans-Serif" font-size="11.00" fill="#000000">...</text>
<polygon fill="#ffffff" stroke="transparent" points="381.5,-154.2 381.5,-173.2 411.5,-173.2 411.5,-154.2 381.5,-154.2"/>
<polygon fill="none" stroke="#000000" points="381.5,-154.2 381.5,-173.2 411.5,-173.2 411.5,-154.2 381.5,-154.2"/>
<text text-anchor="start" x="384.5" y="-160.3" font-family="Helvetica,sans-Serif" font-size="11.00" fill="#000000">&lt; 1</text>
<polygon fill="#ffffff" stroke="transparent" points="411.5,-154.2 411.5,-173.2 453.5,-173.2 453.5,-154.2 411.5,-154.2"/>
<polygon fill="none" stroke="#000000" points="411.5,-154.2 411.5,-173.2 453.5,-173.2 453.5,-154.2 411.5,-154.2"/>
<text text-anchor="start" x="418.1105" y="-160.3" font-family="Helvetica,sans-Serif" font-size="11.00" fill="#000000">0 rows</text>
<polygon fill="#ffffff" stroke="transparent" points="453.5,-154.2 453.5,-173.2 479.5,-173.2 479.5,-154.2 453.5,-154.2"/>
<polygon fill="none" stroke="#000000" points="453.5,-154.2 453.5,-173.2 479.5,-173.2 479.5,-154.2 453.5,-154.2"/>
<text text-anchor="start" x="460.9053" y="-160.3" font-family="Helvetica,sans-Serif" font-size="11.00" fill="#000000">3 &gt;</text>
</a>
</g>
</g>
<!-- campanha&#45;&gt;instituicao -->
<g id="edge2" class="edge">
<title>campanha:w&#45;&gt;instituicao:e</title>
<path fill="none" stroke="#000000" d="M367.3046,-206.2386C341.6745,-218.8231 346.7285,-266.2 310,-266.2"/>
<polygon fill="#000000" stroke="#000000" points="373.6772,-204.8746 382.2536,-206.7203 377.5886,-204.0373 381.5,-203.2 381.5,-203.2 381.5,-203.2 377.5886,-204.0373 380.7464,-199.6797 373.6772,-204.8746 373.6772,-204.8746"/>
<ellipse fill="none" stroke="#000000" cx="370.5481" cy="-205.5444" rx="3.2" ry="3.2"/>
</g>
</g>
</svg>
