<?xml version="1.0" encoding="UTF-8" standalone="no"?>
<!DOCTYPE svg PUBLIC "-//W3C//DTD SVG 1.1//EN"
 "http://www.w3.org/Graphics/SVG/1.1/DTD/svg11.dtd">
<!-- Generated by graphviz version 2.40.1 (20161225.0304)
 -->
<!-- Title: twoDegreesRelationshipsDiagram Pages: 1 -->
<svg width="749pt" height="441pt"
 viewBox="0.00 0.00 749.00 440.70" xmlns="http://www.w3.org/2000/svg" xmlns:xlink="http://www.w3.org/1999/xlink">
<g id="graph0" class="graph" transform="scale(1 1) rotate(0) translate(4 436.7)">
<title>twoDegreesRelationshipsDiagram</title>
<polygon fill="#ffffff" stroke="transparent" points="-4,4 -4,-436.7 745,-436.7 745,4 -4,4"/>
<text text-anchor="middle" x="72.4936" y="-7.3" font-family="Helvetica,sans-Serif" font-size="11.00" fill="#000000">Generated by SchemaSpy</text>
<!-- animal -->
<g id="node1" class="node">
<title>animal</title>
<g id="a_node1"><a xlink:href="../../tables/animal.html" xlink:title="animal" target="_top">
<polygon fill="#ffffff" stroke="transparent" points="361,-123.7 361,-228.7 500,-228.7 500,-123.7 361,-123.7"/>
<polygon fill="#f5f5f5" stroke="transparent" points="361.5,-205.2 361.5,-228.2 500.5,-228.2 500.5,-205.2 361.5,-205.2"/>
<polygon fill="none" stroke="#000000" points="361.5,-205.2 361.5,-228.2 500.5,-228.2 500.5,-205.2 361.5,-205.2"/>
<text text-anchor="start" x="366.5" y="-214.3" font-family="Helvetica,sans-Serif" font-weight="bold" font-size="11.00" fill="#000000">animal</text>
<text text-anchor="start" x="465.5437" y="-213.3" font-family="Helvetica,sans-Serif" font-size="11.00" fill="#000000">[table]</text>
<polygon fill="none" stroke="#000000" points="361.5,-183.2 361.5,-205.2 500.5,-205.2 500.5,-183.2 361.5,-183.2"/>
<image xlink:href="../../images/primaryKeys.png" width="11px" height="12px" preserveAspectRatio="xMinYMin meet" x="366.5" y="-200.2"/>
<text text-anchor="start" x="381.5" y="-190.3" font-family="Helvetica,sans-Serif" font-size="11.00" fill="#000000">id</text>
<polygon fill="none" stroke="#000000" points="361.5,-161.2 361.5,-183.2 500.5,-183.2 500.5,-161.2 361.5,-161.2"/>
<image xlink:href="../../images/foreignKeys.png" width="11px" height="12px" preserveAspectRatio="xMinYMin meet" x="366.5" y="-178.2"/>
<text text-anchor="start" x="381.5" y="-168.3" font-family="Helvetica,sans-Serif" font-size="11.00" fill="#000000">instituicao_id</text>
<polygon fill="none" stroke="#000000" points="361.5,-142.2 361.5,-161.2 500.5,-161.2 500.5,-142.2 361.5,-142.2"/>
<text text-anchor="start" x="364.5" y="-148.3" font-family="Helvetica,sans-Serif" font-size="11.00" fill="#000000">...</text>
<polygon fill="#ffffff" stroke="transparent" points="361.5,-123.2 361.5,-142.2 411.5,-142.2 411.5,-123.2 361.5,-123.2"/>
<polygon fill="none" stroke="#000000" points="361.5,-123.2 361.5,-142.2 411.5,-142.2 411.5,-123.2 361.5,-123.2"/>
<text text-anchor="start" x="364.5" y="-129.3" font-family="Helvetica,sans-Serif" font-size="11.00" fill="#000000">&lt; 1</text>
<polygon fill="#ffffff" stroke="transparent" points="411.5,-123.2 411.5,-142.2 464.5,-142.2 464.5,-123.2 411.5,-123.2"/>
<polygon fill="none" stroke="#000000" points="411.5,-123.2 411.5,-142.2 464.5,-142.2 464.5,-123.2 411.5,-123.2"/>
<text text-anchor="start" x="429.1105" y="-129.3" font-family="Helvetica,sans-Serif" font-size="11.00" fill="#000000">0 rows</text>
<polygon fill="#ffffff" stroke="transparent" points="464.5,-123.2 464.5,-142.2 500.5,-142.2 500.5,-123.2 464.5,-123.2"/>
<polygon fill="none" stroke="#000000" points="464.5,-123.2 464.5,-142.2 500.5,-142.2 500.5,-123.2 464.5,-123.2"/>
<text text-anchor="start" x="481.9053" y="-129.3" font-family="Helvetica,sans-Serif" font-size="11.00" fill="#000000">2 &gt;</text>
</a>
</g>
</g>
<!-- instituicao -->
<g id="node2" class="node">
<title>instituicao</title>
<g id="a_node2"><a xlink:href="../../tables/instituicao.html" xlink:title="instituicao" target="_top">
<polygon fill="#ffffff" stroke="transparent" points="146,-124.2 146,-346.2 312,-346.2 312,-124.2 146,-124.2"/>
<polygon fill="#f5f5f5" stroke="transparent" points="148,-321.2 148,-344.2 310,-344.2 310,-321.2 148,-321.2"/>
<polygon fill="none" stroke="#000000" points="148,-321.2 148,-344.2 310,-344.2 310,-321.2 148,-321.2"/>
<text text-anchor="start" x="153" y="-330.3" font-family="Helvetica,sans-Serif" font-weight="bold" font-size="11.00" fill="#000000">instituicao</text>
<text text-anchor="start" x="275.0437" y="-329.3" font-family="Helvetica,sans-Serif" font-size="11.00" fill="#000000">[table]</text>
<polygon fill="none" stroke="#000000" points="148,-299.2 148,-321.2 243,-321.2 243,-299.2 148,-299.2"/>
<image xlink:href="../../images/primaryKeys.png" width="11px" height="12px" preserveAspectRatio="xMinYMin meet" x="153" y="-316.2"/>
<text text-anchor="start" x="168" y="-306.3" font-family="Helvetica,sans-Serif" font-size="11.00" fill="#000000">usuario_id</text>
<polygon fill="none" stroke="#000000" points="243,-299.2 243,-321.2 310,-321.2 310,-299.2 243,-299.2"/>
<text text-anchor="start" x="246" y="-306.9" font-family="Helvetica,sans-Serif" font-size="11.00" fill="#000000">int4[10]</text>
<polygon fill="#ffffff" stroke="transparent" points="148,-277.2 148,-299.2 243,-299.2 243,-277.2 148,-277.2"/>
<polygon fill="none" stroke="#000000" points="148,-277.2 148,-299.2 243,-299.2 243,-277.2 148,-277.2"/>
<text text-anchor="start" x="168" y="-284.3" font-family="Helvetica,sans-Serif" font-size="11.00" fill="#000000">telefone</text>
<polygon fill="none" stroke="#000000" points="243,-277.2 243,-299.2 310,-299.2 310,-277.2 243,-277.2"/>
<text text-anchor="start" x="246" y="-284.9" font-family="Helvetica,sans-Serif" font-size="11.00" fill="#000000">varchar[20]</text>
<polygon fill="#ffffff" stroke="transparent" points="148,-255.2 148,-277.2 243,-277.2 243,-255.2 148,-255.2"/>
<polygon fill="none" stroke="#000000" points="148,-255.2 148,-277.2 243,-277.2 243,-255.2 148,-255.2"/>
<text text-anchor="start" x="168" y="-262.3" font-family="Helvetica,sans-Serif" font-size="11.00" fill="#000000">cnpj</text>
<polygon fill="none" stroke="#000000" points="243,-255.2 243,-277.2 310,-277.2 310,-255.2 243,-255.2"/>
<text text-anchor="start" x="246" y="-262.9" font-family="Helvetica,sans-Serif" font-size="11.00" fill="#000000">varchar[21]</text>
<polygon fill="none" stroke="#000000" points="148,-233.2 148,-255.2 243,-255.2 243,-233.2 148,-233.2"/>
<text text-anchor="start" x="168" y="-240.3" font-family="Helvetica,sans-Serif" font-size="11.00" fill="#000000">logradouro</text>
<polygon fill="none" stroke="#000000" points="243,-233.2 243,-255.2 310,-255.2 310,-233.2 243,-233.2"/>
<text text-anchor="start" x="245.9365" y="-240.9" font-family="Helvetica,sans-Serif" font-size="11.00" fill="#000000">varchar[100]</text>
<polygon fill="none" stroke="#000000" points="148,-211.2 148,-233.2 243,-233.2 243,-211.2 148,-211.2"/>
<text text-anchor="start" x="168" y="-218.3" font-family="Helvetica,sans-Serif" font-size="11.00" fill="#000000">numero</text>
<polygon fill="none" stroke="#000000" points="243,-211.2 243,-233.2 310,-233.2 310,-211.2 243,-211.2"/>
<text text-anchor="start" x="246" y="-218.9" font-family="Helvetica,sans-Serif" font-size="11.00" fill="#000000">varchar[10]</text>
<polygon fill="none" stroke="#000000" points="148,-189.2 148,-211.2 243,-211.2 243,-189.2 148,-189.2"/>
<text text-anchor="start" x="168" y="-196.3" font-family="Helvetica,sans-Serif" font-size="11.00" fill="#000000">cep</text>
<polygon fill="none" stroke="#000000" points="243,-189.2 243,-211.2 310,-211.2 310,-189.2 243,-189.2"/>
<text text-anchor="start" x="246" y="-196.9" font-family="Helvetica,sans-Serif" font-size="11.00" fill="#000000">varchar[10]</text>
<polygon fill="#ffffff" stroke="transparent" points="148,-167.2 148,-189.2 243,-189.2 243,-167.2 148,-167.2"/>
<polygon fill="none" stroke="#000000" points="148,-167.2 148,-189.2 243,-189.2 243,-167.2 148,-167.2"/>
<text text-anchor="start" x="168" y="-174.3" font-family="Helvetica,sans-Serif" font-size="11.00" fill="#000000">cpf</text>
<polygon fill="none" stroke="#000000" points="243,-167.2 243,-189.2 310,-189.2 310,-167.2 243,-167.2"/>
<text text-anchor="start" x="246" y="-174.9" font-family="Helvetica,sans-Serif" font-size="11.00" fill="#000000">varchar[14]</text>
<polygon fill="none" stroke="#000000" points="148,-145.2 148,-167.2 243,-167.2 243,-145.2 148,-145.2"/>
<image xlink:href="../../images/foreignKeys.png" width="11px" height="12px" preserveAspectRatio="xMinYMin meet" x="153" y="-162.2"/>
<text text-anchor="start" x="168" y="-152.3" font-family="Helvetica,sans-Serif" font-size="11.00" fill="#000000">municipio_id</text>
<polygon fill="none" stroke="#000000" points="243,-145.2 243,-167.2 310,-167.2 310,-145.2 243,-145.2"/>
<text text-anchor="start" x="246" y="-152.9" font-family="Helvetica,sans-Serif" font-size="11.00" fill="#000000">int4[10]</text>
<polygon fill="#ffffff" stroke="transparent" points="148,-126.2 148,-145.2 187,-145.2 187,-126.2 148,-126.2"/>
<polygon fill="none" stroke="#000000" points="148,-126.2 148,-145.2 187,-145.2 187,-126.2 148,-126.2"/>
<text text-anchor="start" x="151" y="-132.3" font-family="Helvetica,sans-Serif" font-size="11.00" fill="#000000">&lt; 2</text>
<polygon fill="#ffffff" stroke="transparent" points="187,-126.2 187,-145.2 243,-145.2 243,-126.2 187,-126.2"/>
<polygon fill="none" stroke="#000000" points="187,-126.2 187,-145.2 243,-145.2 243,-126.2 187,-126.2"/>
<text text-anchor="start" x="207.6105" y="-132.3" font-family="Helvetica,sans-Serif" font-size="11.00" fill="#000000">0 rows</text>
<polygon fill="#ffffff" stroke="transparent" points="243,-126.2 243,-145.2 310,-145.2 310,-126.2 243,-126.2"/>
<polygon fill="none" stroke="#000000" points="243,-126.2 243,-145.2 310,-145.2 310,-126.2 243,-126.2"/>
<text text-anchor="start" x="291.4053" y="-132.3" font-family="Helvetica,sans-Serif" font-size="11.00" fill="#000000">2 &gt;</text>
<polygon fill="none" stroke="#000000" stroke-width="2" points="147,-125.2 147,-345.2 311,-345.2 311,-125.2 147,-125.2"/>
</a>
</g>
</g>
<!-- animal&#45;&gt;instituicao -->
<g id="edge1" class="edge">
<title>animal:w&#45;&gt;instituicao:e</title>
<path fill="none" stroke="#000000" d="M347.1537,-175.3416C309.1379,-195.883 369.5835,-310.2 310,-310.2"/>
<polygon fill="#000000" stroke="#000000" points="353.6852,-173.9114 362.2701,-175.7167 357.5926,-173.0557 361.5,-172.2 361.5,-172.2 361.5,-172.2 357.5926,-173.0557 360.7299,-168.6833 353.6852,-173.9114 353.6852,-173.9114"/>
<ellipse fill="none" stroke="#000000" cx="350.5593" cy="-174.5959" rx="3.2" ry="3.2"/>
</g>
<!-- municipio -->
<g id="node7" class="node">
<title>municipio</title>
<g id="a_node7"><a xlink:href="../../tables/municipio.html" xlink:title="municipio" target="_top">
<polygon fill="#ffffff" stroke="transparent" points="8,-38.2 8,-146.2 97,-146.2 97,-38.2 8,-38.2"/>
<polygon fill="#f5f5f5" stroke="transparent" points="8.5,-123.2 8.5,-146.2 97.5,-146.2 97.5,-123.2 8.5,-123.2"/>
<polygon fill="none" stroke="#000000" points="8.5,-123.2 8.5,-146.2 97.5,-146.2 97.5,-123.2 8.5,-123.2"/>
<text text-anchor="start" x="13.2779" y="-132.3" font-family="Helvetica,sans-Serif" font-weight="bold" font-size="11.00" fill="#000000">municipio</text>
<text text-anchor="start" x="63.0219" y="-131.3" font-family="Helvetica,sans-Serif" font-size="11.00" fill="#000000">[table]</text>
<polygon fill="none" stroke="#000000" points="8.5,-101.2 8.5,-123.2 97.5,-123.2 97.5,-101.2 8.5,-101.2"/>
<image xlink:href="../../images/primaryKeys.png" width="11px" height="12px" preserveAspectRatio="xMinYMin meet" x="13.5" y="-118.2"/>
<text text-anchor="start" x="34.5" y="-108.3" font-family="Helvetica,sans-Serif" font-size="11.00" fill="#000000">id</text>
<polygon fill="#ffffff" stroke="transparent" points="8.5,-79.2 8.5,-101.2 97.5,-101.2 97.5,-79.2 8.5,-79.2"/>
<polygon fill="none" stroke="#000000" points="8.5,-79.2 8.5,-101.2 97.5,-101.2 97.5,-79.2 8.5,-79.2"/>
<text text-anchor="start" x="34.5" y="-86.3" font-family="Helvetica,sans-Serif" font-size="11.00" fill="#000000">uf</text>
<polygon fill="#ffffff" stroke="transparent" points="8.5,-57.2 8.5,-79.2 97.5,-79.2 97.5,-57.2 8.5,-57.2"/>
<polygon fill="none" stroke="#000000" points="8.5,-57.2 8.5,-79.2 97.5,-79.2 97.5,-57.2 8.5,-57.2"/>
<text text-anchor="start" x="34.5" y="-64.3" font-family="Helvetica,sans-Serif" font-size="11.00" fill="#000000">nome</text>
<polygon fill="#ffffff" stroke="transparent" points="8.5,-38.2 8.5,-57.2 29.5,-57.2 29.5,-38.2 8.5,-38.2"/>
<polygon fill="none" stroke="#000000" points="8.5,-38.2 8.5,-57.2 29.5,-57.2 29.5,-38.2 8.5,-38.2"/>
<text text-anchor="start" x="11.5" y="-44.3" font-family="Helvetica,sans-Serif" font-size="11.00" fill="#000000"> &#160;</text>
<polygon fill="#ffffff" stroke="transparent" points="29.5,-38.2 29.5,-57.2 71.5,-57.2 71.5,-38.2 29.5,-38.2"/>
<polygon fill="none" stroke="#000000" points="29.5,-38.2 29.5,-57.2 71.5,-57.2 71.5,-38.2 29.5,-38.2"/>
<text text-anchor="start" x="36.1105" y="-44.3" font-family="Helvetica,sans-Serif" font-size="11.00" fill="#000000">0 rows</text>
<polygon fill="#ffffff" stroke="transparent" points="71.5,-38.2 71.5,-57.2 97.5,-57.2 97.5,-38.2 71.5,-38.2"/>
<polygon fill="none" stroke="#000000" points="71.5,-38.2 71.5,-57.2 97.5,-57.2 97.5,-38.2 71.5,-38.2"/>
<text text-anchor="start" x="78.9053" y="-44.3" font-family="Helvetica,sans-Serif" font-size="11.00" fill="#000000">2 &gt;</text>
</a>
</g>
</g>
<!-- instituicao&#45;&gt;municipio -->
<g id="edge7" class="edge">
<title>instituicao:w&#45;&gt;municipio:e</title>
<path fill="none" stroke="#000000" d="M134.0126,-151.4912C120.3016,-140.1404 121.2219,-112.2 97.5,-112.2"/>
<polygon fill="#000000" stroke="#000000" points="140.4181,-153.6476 146.8514,-159.6119 144.209,-154.9238 148,-156.2 148,-156.2 148,-156.2 144.209,-154.9238 149.1486,-152.7881 140.4181,-153.6476 140.4181,-153.6476"/>
<ellipse fill="none" stroke="#000000" cx="137.3853" cy="-152.6266" rx="3.2" ry="3.2"/>
</g>
<!-- usuario -->
<g id="node8" class="node">
<title>usuario</title>
<g id="a_node8"><a xlink:href="../../tables/usuario.html" xlink:title="usuario" target="_top">
<polygon fill="#ffffff" stroke="transparent" points="13,-192.7 13,-319.7 92,-319.7 92,-192.7 13,-192.7"/>
<polygon fill="#f5f5f5" stroke="transparent" points="13.5,-296.2 13.5,-319.2 92.5,-319.2 92.5,-296.2 13.5,-296.2"/>
<polygon fill="none" stroke="#000000" points="13.5,-296.2 13.5,-319.2 92.5,-319.2 92.5,-296.2 13.5,-296.2"/>
<text text-anchor="start" x="18.4688" y="-305.3" font-family="Helvetica,sans-Serif" font-weight="bold" font-size="11.00" fill="#000000">usuario</text>
<text text-anchor="start" x="58.0219" y="-304.3" font-family="Helvetica,sans-Serif" font-size="11.00" fill="#000000">[table]</text>
<polygon fill="none" stroke="#000000" points="13.5,-274.2 13.5,-296.2 92.5,-296.2 92.5,-274.2 13.5,-274.2"/>
<image xlink:href="../../images/primaryKeys.png" width="11px" height="12px" preserveAspectRatio="xMinYMin meet" x="18.5" y="-291.2"/>
<text text-anchor="start" x="38.5" y="-281.3" font-family="Helvetica,sans-Serif" font-size="11.00" fill="#000000">id</text>
<polygon fill="#ffffff" stroke="transparent" points="13.5,-252.2 13.5,-274.2 92.5,-274.2 92.5,-252.2 13.5,-252.2"/>
<polygon fill="none" stroke="#000000" points="13.5,-252.2 13.5,-274.2 92.5,-274.2 92.5,-252.2 13.5,-252.2"/>
<text text-anchor="start" x="38.5" y="-259.3" font-family="Helvetica,sans-Serif" font-size="11.00" fill="#000000">email</text>
<polygon fill="#ffffff" stroke="transparent" points="13.5,-230.2 13.5,-252.2 92.5,-252.2 92.5,-230.2 13.5,-230.2"/>
<polygon fill="none" stroke="#000000" points="13.5,-230.2 13.5,-252.2 92.5,-252.2 92.5,-230.2 13.5,-230.2"/>
<text text-anchor="start" x="38.5" y="-237.3" font-family="Helvetica,sans-Serif" font-size="11.00" fill="#000000">celular</text>
<polygon fill="none" stroke="#000000" points="13.5,-211.2 13.5,-230.2 92.5,-230.2 92.5,-211.2 13.5,-211.2"/>
<text text-anchor="start" x="16.5" y="-217.3" font-family="Helvetica,sans-Serif" font-size="11.00" fill="#000000">...</text>
<polygon fill="#ffffff" stroke="transparent" points="13.5,-192.2 13.5,-211.2 29.5,-211.2 29.5,-192.2 13.5,-192.2"/>
<polygon fill="none" stroke="#000000" points="13.5,-192.2 13.5,-211.2 29.5,-211.2 29.5,-192.2 13.5,-192.2"/>
<text text-anchor="start" x="16.5" y="-198.3" font-family="Helvetica,sans-Serif" font-size="11.00" fill="#000000"> &#160;</text>
<polygon fill="#ffffff" stroke="transparent" points="29.5,-192.2 29.5,-211.2 69.5,-211.2 69.5,-192.2 29.5,-192.2"/>
<polygon fill="none" stroke="#000000" points="29.5,-192.2 29.5,-211.2 69.5,-211.2 69.5,-192.2 29.5,-192.2"/>
<text text-anchor="start" x="34.1105" y="-198.3" font-family="Helvetica,sans-Serif" font-size="11.00" fill="#000000">0 rows</text>
<polygon fill="#ffffff" stroke="transparent" points="69.5,-192.2 69.5,-211.2 92.5,-211.2 92.5,-192.2 69.5,-192.2"/>
<polygon fill="none" stroke="#000000" points="69.5,-192.2 69.5,-211.2 92.5,-211.2 92.5,-192.2 69.5,-192.2"/>
<text text-anchor="start" x="73.9053" y="-198.3" font-family="Helvetica,sans-Serif" font-size="11.00" fill="#000000">2 &gt;</text>
</a>
</g>
</g>
<!-- instituicao&#45;&gt;usuario -->
<g id="edge8" class="edge">
<title>instituicao:w&#45;&gt;usuario:e</title>
<path fill="none" stroke="#000000" d="M137.481,-308.711C119.9675,-303.329 115.5379,-285.2 92.5,-285.2"/>
<polygon fill="#000000" stroke="#000000" points="147.7686,-306.1274 146.6472,-314.0484 145.063,-313.8241 146.1843,-305.9031 147.7686,-306.1274"/>
<polyline fill="none" stroke="#000000" points="148,-310.2 144.0395,-309.6393 "/>
<ellipse fill="none" stroke="#000000" cx="140.8711" cy="-309.1908" rx="3.2" ry="3.2"/>
</g>
<!-- arquivo_animal -->
<g id="node3" class="node">
<title>arquivo_animal</title>
<g id="a_node3"><a xlink:href="../../tables/arquivo_animal.html" xlink:title="arquivo_animal" target="_top">
<polygon fill="#ffffff" stroke="transparent" points="582.5,-166.7 582.5,-227.7 699.5,-227.7 699.5,-166.7 582.5,-166.7"/>
<polygon fill="#f5f5f5" stroke="transparent" points="583,-204.2 583,-227.2 700,-227.2 700,-204.2 583,-204.2"/>
<polygon fill="none" stroke="#000000" points="583,-204.2 583,-227.2 700,-227.2 700,-204.2 583,-204.2"/>
<text text-anchor="start" x="587.7171" y="-213.3" font-family="Helvetica,sans-Serif" font-weight="bold" font-size="11.00" fill="#000000">arquivo_animal</text>
<text text-anchor="start" x="665.5219" y="-212.3" font-family="Helvetica,sans-Serif" font-size="11.00" fill="#000000">[table]</text>
<polygon fill="none" stroke="#000000" points="583,-185.2 583,-204.2 700,-204.2 700,-185.2 583,-185.2"/>
<text text-anchor="start" x="586" y="-191.3" font-family="Helvetica,sans-Serif" font-size="11.00" fill="#000000">...</text>
<polygon fill="#ffffff" stroke="transparent" points="583,-166.2 583,-185.2 627,-185.2 627,-166.2 583,-166.2"/>
<polygon fill="none" stroke="#000000" points="583,-166.2 583,-185.2 627,-185.2 627,-166.2 583,-166.2"/>
<text text-anchor="start" x="586" y="-172.3" font-family="Helvetica,sans-Serif" font-size="11.00" fill="#000000">&lt; 1</text>
<polygon fill="#ffffff" stroke="transparent" points="627,-166.2 627,-185.2 676,-185.2 676,-166.2 627,-166.2"/>
<polygon fill="none" stroke="#000000" points="627,-166.2 627,-185.2 676,-185.2 676,-166.2 627,-166.2"/>
<text text-anchor="start" x="640.6105" y="-172.3" font-family="Helvetica,sans-Serif" font-size="11.00" fill="#000000">0 rows</text>
<polygon fill="#ffffff" stroke="transparent" points="676,-166.2 676,-185.2 700,-185.2 700,-166.2 676,-166.2"/>
<polygon fill="none" stroke="#000000" points="676,-166.2 676,-185.2 700,-185.2 700,-166.2 676,-166.2"/>
<text text-anchor="start" x="690.8862" y="-172.3" font-family="Helvetica,sans-Serif" font-size="11.00" fill="#000000"> &#160;</text>
</a>
</g>
</g>
<!-- arquivo_animal&#45;&gt;animal -->
<g id="edge2" class="edge">
<title>arquivo_animal:w&#45;&gt;animal:e</title>
<path fill="none" stroke="#000000" d="M568.3098,-194.2C543.0061,-194.2 531.724,-194.2 500.5,-194.2"/>
<polygon fill="#000000" stroke="#000000" points="575,-194.2001 583,-197.8 579,-194.2 583,-194.2 583,-194.2 583,-194.2 579,-194.2 583,-190.6 575,-194.2001 575,-194.2001"/>
<ellipse fill="none" stroke="#000000" cx="571.8" cy="-194.2001" rx="3.2" ry="3.2"/>
</g>
<!-- arquivo_campanha -->
<g id="node4" class="node">
<title>arquivo_campanha</title>
<g id="a_node4"><a xlink:href="../../tables/arquivo_campanha.html" xlink:title="arquivo_campanha" target="_top">
<polygon fill="#ffffff" stroke="transparent" points="573,-363.7 573,-424.7 709,-424.7 709,-363.7 573,-363.7"/>
<polygon fill="#f5f5f5" stroke="transparent" points="573,-401.2 573,-424.2 709,-424.2 709,-401.2 573,-401.2"/>
<polygon fill="none" stroke="#000000" points="573,-401.2 573,-424.2 709,-424.2 709,-401.2 573,-401.2"/>
<text text-anchor="start" x="577.7357" y="-410.3" font-family="Helvetica,sans-Serif" font-weight="bold" font-size="11.00" fill="#000000">arquivo_campanha</text>
<text text-anchor="start" x="674.5219" y="-409.3" font-family="Helvetica,sans-Serif" font-size="11.00" fill="#000000">[table]</text>
<polygon fill="none" stroke="#000000" points="573,-382.2 573,-401.2 709,-401.2 709,-382.2 573,-382.2"/>
<text text-anchor="start" x="576" y="-388.3" font-family="Helvetica,sans-Serif" font-size="11.00" fill="#000000">...</text>
<polygon fill="#ffffff" stroke="transparent" points="573,-363.2 573,-382.2 626,-382.2 626,-363.2 573,-363.2"/>
<polygon fill="none" stroke="#000000" points="573,-363.2 573,-382.2 626,-382.2 626,-363.2 573,-363.2"/>
<text text-anchor="start" x="576" y="-369.3" font-family="Helvetica,sans-Serif" font-size="11.00" fill="#000000">&lt; 1</text>
<polygon fill="#ffffff" stroke="transparent" points="626,-363.2 626,-382.2 680,-382.2 680,-363.2 626,-363.2"/>
<polygon fill="none" stroke="#000000" points="626,-363.2 626,-382.2 680,-382.2 680,-363.2 626,-363.2"/>
<text text-anchor="start" x="644.6105" y="-369.3" font-family="Helvetica,sans-Serif" font-size="11.00" fill="#000000">0 rows</text>
<polygon fill="#ffffff" stroke="transparent" points="680,-363.2 680,-382.2 709,-382.2 709,-363.2 680,-363.2"/>
<polygon fill="none" stroke="#000000" points="680,-363.2 680,-382.2 709,-382.2 709,-363.2 680,-363.2"/>
<text text-anchor="start" x="699.8862" y="-369.3" font-family="Helvetica,sans-Serif" font-size="11.00" fill="#000000"> &#160;</text>
</a>
</g>
</g>
<!-- campanha -->
<g id="node5" class="node">
<title>campanha</title>
<g id="a_node5"><a xlink:href="../../tables/campanha.html" xlink:title="campanha" target="_top">
<polygon fill="#ffffff" stroke="transparent" points="381.5,-298.7 381.5,-425.7 479.5,-425.7 479.5,-298.7 381.5,-298.7"/>
<polygon fill="#f5f5f5" stroke="transparent" points="381.5,-402.2 381.5,-425.2 479.5,-425.2 479.5,-402.2 381.5,-402.2"/>
<polygon fill="none" stroke="#000000" points="381.5,-402.2 381.5,-425.2 479.5,-425.2 479.5,-402.2 381.5,-402.2"/>
<text text-anchor="start" x="386.5" y="-411.3" font-family="Helvetica,sans-Serif" font-weight="bold" font-size="11.00" fill="#000000">campanha</text>
<text text-anchor="start" x="444.5437" y="-410.3" font-family="Helvetica,sans-Serif" font-size="11.00" fill="#000000">[table]</text>
<polygon fill="none" stroke="#000000" points="381.5,-380.2 381.5,-402.2 479.5,-402.2 479.5,-380.2 381.5,-380.2"/>
<image xlink:href="../../images/primaryKeys.png" width="11px" height="12px" preserveAspectRatio="xMinYMin meet" x="386.5" y="-397.2"/>
<text text-anchor="start" x="401.5" y="-387.3" font-family="Helvetica,sans-Serif" font-size="11.00" fill="#000000">id</text>
<polygon fill="none" stroke="#000000" points="381.5,-358.2 381.5,-380.2 479.5,-380.2 479.5,-358.2 381.5,-358.2"/>
<image xlink:href="../../images/foreignKeys.png" width="11px" height="12px" preserveAspectRatio="xMinYMin meet" x="386.5" y="-375.2"/>
<text text-anchor="start" x="401.5" y="-365.3" font-family="Helvetica,sans-Serif" font-size="11.00" fill="#000000">instituicao_id</text>
<polygon fill="none" stroke="#000000" points="381.5,-336.2 381.5,-358.2 479.5,-358.2 479.5,-336.2 381.5,-336.2"/>
<image xlink:href="../../images/foreignKeys.png" width="11px" height="12px" preserveAspectRatio="xMinYMin meet" x="386.5" y="-353.2"/>
<text text-anchor="start" x="401.5" y="-343.3" font-family="Helvetica,sans-Serif" font-size="11.00" fill="#000000">formulario_id</text>
<polygon fill="none" stroke="#000000" points="381.5,-317.2 381.5,-336.2 479.5,-336.2 479.5,-317.2 381.5,-317.2"/>
<text text-anchor="start" x="384.5" y="-323.3" font-family="Helvetica,sans-Serif" font-size="11.00" fill="#000000">...</text>
<polygon fill="#ffffff" stroke="transparent" points="381.5,-298.2 381.5,-317.2 411.5,-317.2 411.5,-298.2 381.5,-298.2"/>
<polygon fill="none" stroke="#000000" points="381.5,-298.2 381.5,-317.2 411.5,-317.2 411.5,-298.2 381.5,-298.2"/>
<text text-anchor="start" x="384.5" y="-304.3" font-family="Helvetica,sans-Serif" font-size="11.00" fill="#000000">&lt; 2</text>
<polygon fill="#ffffff" stroke="transparent" points="411.5,-298.2 411.5,-317.2 453.5,-317.2 453.5,-298.2 411.5,-298.2"/>
<polygon fill="none" stroke="#000000" points="411.5,-298.2 411.5,-317.2 453.5,-317.2 453.5,-298.2 411.5,-298.2"/>
<text text-anchor="start" x="418.1105" y="-304.3" font-family="Helvetica,sans-Serif" font-size="11.00" fill="#000000">0 rows</text>
<polygon fill="#ffffff" stroke="transparent" points="453.5,-298.2 453.5,-317.2 479.5,-317.2 479.5,-298.2 453.5,-298.2"/>
<polygon fill="none" stroke="#000000" points="453.5,-298.2 453.5,-317.2 479.5,-317.2 479.5,-298.2 453.5,-298.2"/>
<text text-anchor="start" x="460.9053" y="-304.3" font-family="Helvetica,sans-Serif" font-size="11.00" fill="#000000">3 &gt;</text>
</a>
</g>
</g>
<!-- arquivo_campanha&#45;&gt;campanha -->
<g id="edge3" class="edge">
<title>arquivo_campanha:w&#45;&gt;campanha:e</title>
<path fill="none" stroke="#000000" d="M558.3498,-391.2C528.2482,-391.2 515.6988,-391.2 479.5,-391.2"/>
<polygon fill="#000000" stroke="#000000" points="565,-391.2001 573,-394.8 569,-391.2 573,-391.2 573,-391.2 573,-391.2 569,-391.2 573,-387.6 565,-391.2001 565,-391.2001"/>
<ellipse fill="none" stroke="#000000" cx="561.8" cy="-391.2001" rx="3.2" ry="3.2"/>
</g>
<!-- campanha&#45;&gt;instituicao -->
<g id="edge5" class="edge">
<title>campanha:w&#45;&gt;instituicao:e</title>
<path fill="none" stroke="#000000" d="M367.2569,-366.1931C342.3067,-354.17 345.5671,-310.2 310,-310.2"/>
<polygon fill="#000000" stroke="#000000" points="373.6725,-367.5475 380.7564,-372.7224 377.5863,-368.3737 381.5,-369.2 381.5,-369.2 381.5,-369.2 377.5863,-368.3737 382.2436,-365.6776 373.6725,-367.5475 373.6725,-367.5475"/>
<ellipse fill="none" stroke="#000000" cx="370.5415" cy="-366.8865" rx="3.2" ry="3.2"/>
</g>
<!-- formulario -->
<g id="node6" class="node">
<title>formulario</title>
<g id="a_node6"><a xlink:href="../../tables/formulario.html" xlink:title="formulario" target="_top">
<polygon fill="#ffffff" stroke="transparent" points="183.5,-367.7 183.5,-428.7 274.5,-428.7 274.5,-367.7 183.5,-367.7"/>
<polygon fill="#f5f5f5" stroke="transparent" points="184,-405.2 184,-428.2 275,-428.2 275,-405.2 184,-405.2"/>
<polygon fill="none" stroke="#000000" points="184,-405.2 184,-428.2 275,-428.2 275,-405.2 184,-405.2"/>
<text text-anchor="start" x="188.558" y="-414.3" font-family="Helvetica,sans-Serif" font-weight="bold" font-size="11.00" fill="#000000">formulario</text>
<text text-anchor="start" x="240.5219" y="-413.3" font-family="Helvetica,sans-Serif" font-size="11.00" fill="#000000">[table]</text>
<polygon fill="none" stroke="#000000" points="184,-386.2 184,-405.2 275,-405.2 275,-386.2 184,-386.2"/>
<text text-anchor="start" x="187" y="-392.3" font-family="Helvetica,sans-Serif" font-size="11.00" fill="#000000">...</text>
<polygon fill="#ffffff" stroke="transparent" points="184,-367.2 184,-386.2 210,-386.2 210,-367.2 184,-367.2"/>
<polygon fill="none" stroke="#000000" points="184,-367.2 184,-386.2 210,-386.2 210,-367.2 184,-367.2"/>
<text text-anchor="start" x="187" y="-373.3" font-family="Helvetica,sans-Serif" font-size="11.00" fill="#000000">&lt; 1</text>
<polygon fill="#ffffff" stroke="transparent" points="210,-367.2 210,-386.2 251,-386.2 251,-367.2 210,-367.2"/>
<polygon fill="none" stroke="#000000" points="210,-367.2 210,-386.2 251,-386.2 251,-367.2 210,-367.2"/>
<text text-anchor="start" x="215.6105" y="-373.3" font-family="Helvetica,sans-Serif" font-size="11.00" fill="#000000">0 rows</text>
<polygon fill="#ffffff" stroke="transparent" points="251,-367.2 251,-386.2 275,-386.2 275,-367.2 251,-367.2"/>
<polygon fill="none" stroke="#000000" points="251,-367.2 251,-386.2 275,-386.2 275,-367.2 251,-367.2"/>
<text text-anchor="start" x="256.4053" y="-373.3" font-family="Helvetica,sans-Serif" font-size="11.00" fill="#000000">1 &gt;</text>
</a>
</g>
</g>
<!-- campanha&#45;&gt;formulario -->
<g id="edge4" class="edge">
<title>campanha:w&#45;&gt;formulario:e</title>
<path fill="none" stroke="#000000" d="M367.102,-348.5848C328.5324,-356.4549 321.6457,-395.2 275,-395.2"/>
<polygon fill="#000000" stroke="#000000" points="373.5367,-347.9659 381.8447,-350.7835 377.5184,-347.583 381.5,-347.2 381.5,-347.2 381.5,-347.2 377.5184,-347.583 381.1553,-343.6165 373.5367,-347.9659 373.5367,-347.9659"/>
<ellipse fill="none" stroke="#000000" cx="370.3514" cy="-348.2723" rx="3.2" ry="3.2"/>
</g>
<!-- formulario&#45;&gt;campanha -->
<g id="edge6" class="edge">
<title>formulario:w&#45;&gt;campanha:e</title>
<path fill="none" stroke="#000000" d="M198.1126,-390.6868C225.3488,-381.9768 282.5,-363.7 282.5,-363.7 330.0231,-379.1194 325.9769,-414.2806 373.5,-429.7 373.5,-429.7 479.5,-391.2 479.5,-391.2"/>
<polygon fill="#000000" stroke="#000000" points="191.6198,-392.7632 182.9034,-391.7711 187.8099,-393.9816 184,-395.2 184,-395.2 184,-395.2 187.8099,-393.9816 185.0966,-398.6289 191.6198,-392.7632 191.6198,-392.7632"/>
<ellipse fill="none" stroke="#000000" cx="194.6678" cy="-391.7884" rx="3.2" ry="3.2"/>
</g>
<!-- pessoa -->
<g id="node9" class="node">
<title>pessoa</title>
<g id="a_node9"><a xlink:href="../../tables/pessoa.html" xlink:title="pessoa" target="_top">
<polygon fill="#ffffff" stroke="transparent" points="189,-41.7 189,-102.7 269,-102.7 269,-41.7 189,-41.7"/>
<polygon fill="#f5f5f5" stroke="transparent" points="189,-79.2 189,-102.2 269,-102.2 269,-79.2 189,-79.2"/>
<polygon fill="none" stroke="#000000" points="189,-79.2 189,-102.2 269,-102.2 269,-79.2 189,-79.2"/>
<text text-anchor="start" x="194" y="-88.3" font-family="Helvetica,sans-Serif" font-weight="bold" font-size="11.00" fill="#000000">pessoa</text>
<text text-anchor="start" x="234.0437" y="-87.3" font-family="Helvetica,sans-Serif" font-size="11.00" fill="#000000">[table]</text>
<polygon fill="none" stroke="#000000" points="189,-60.2 189,-79.2 269,-79.2 269,-60.2 189,-60.2"/>
<text text-anchor="start" x="192" y="-66.3" font-family="Helvetica,sans-Serif" font-size="11.00" fill="#000000">...</text>
<polygon fill="#ffffff" stroke="transparent" points="189,-41.2 189,-60.2 210,-60.2 210,-41.2 189,-41.2"/>
<polygon fill="none" stroke="#000000" points="189,-41.2 189,-60.2 210,-60.2 210,-41.2 189,-41.2"/>
<text text-anchor="start" x="191.7027" y="-47.3" font-family="Helvetica,sans-Serif" font-size="11.00" fill="#000000">&lt; 2</text>
<polygon fill="#ffffff" stroke="transparent" points="210,-41.2 210,-60.2 248,-60.2 248,-41.2 210,-41.2"/>
<polygon fill="none" stroke="#000000" points="210,-41.2 210,-60.2 248,-60.2 248,-41.2 210,-41.2"/>
<text text-anchor="start" x="212.8053" y="-47.3" font-family="Helvetica,sans-Serif" font-size="11.00" fill="#000000">0 rows</text>
<polygon fill="#ffffff" stroke="transparent" points="248,-41.2 248,-60.2 269,-60.2 269,-41.2 248,-41.2"/>
<polygon fill="none" stroke="#000000" points="248,-41.2 248,-60.2 269,-60.2 269,-41.2 248,-41.2"/>
<text text-anchor="start" x="250.7027" y="-47.3" font-family="Helvetica,sans-Serif" font-size="11.00" fill="#000000">2 &gt;</text>
</a>
</g>
</g>
<!-- pessoa&#45;&gt;municipio -->
<g id="edge9" class="edge">
<title>pessoa:w&#45;&gt;municipio:e</title>
<path fill="none" stroke="#000000" d="M174.4276,-70.9389C143.0361,-78.9835 136.9923,-112.2 97.5,-112.2"/>
<polygon fill="#000000" stroke="#000000" points="181.0564,-70.148 189.4266,-72.7746 185.0282,-69.674 189,-69.2 189,-69.2 189,-69.2 185.0282,-69.674 188.5734,-65.6254 181.0564,-70.148 181.0564,-70.148"/>
<ellipse fill="none" stroke="#000000" cx="177.8789" cy="-70.5271" rx="3.2" ry="3.2"/>
</g>
<!-- pessoa&#45;&gt;usuario -->
<g id="edge10" class="edge">
<title>pessoa:w&#45;&gt;usuario:e</title>
<path fill="none" stroke="#000000" d="M178.4962,-70.1341C157.3325,-74.2803 151.8517,-91.8056 138,-114.2 96.63,-181.0839 171.1444,-285.2 92.5,-285.2"/>
<polygon fill="#000000" stroke="#000000" points="187.8488,-65.2866 188.5575,-73.2551 186.9638,-73.3969 186.2551,-65.4283 187.8488,-65.2866"/>
<polyline fill="none" stroke="#000000" points="189,-69.2 185.0157,-69.5544 "/>
<ellipse fill="none" stroke="#000000" cx="181.8283" cy="-69.8379" rx="3.2" ry="3.2"/>
</g>
<!-- pessoa_cadastra_campanha -->
<g id="node10" class="node">
<title>pessoa_cadastra_campanha</title>
<g id="a_node10"><a xlink:href="../../tables/pessoa_cadastra_campanha.html" xlink:title="pessoa_cadastra_campanha" target="_top">
<polygon fill="#ffffff" stroke="transparent" points="549,-275.7 549,-336.7 733,-336.7 733,-275.7 549,-275.7"/>
<polygon fill="#f5f5f5" stroke="transparent" points="549,-313.2 549,-336.2 733,-336.2 733,-313.2 549,-313.2"/>
<polygon fill="none" stroke="#000000" points="549,-313.2 549,-336.2 733,-336.2 733,-313.2 549,-313.2"/>
<text text-anchor="start" x="553.8905" y="-322.3" font-family="Helvetica,sans-Serif" font-weight="bold" font-size="11.00" fill="#000000">pessoa_cadastra_campanha</text>
<text text-anchor="start" x="698.5219" y="-321.3" font-family="Helvetica,sans-Serif" font-size="11.00" fill="#000000">[table]</text>
<polygon fill="none" stroke="#000000" points="549,-294.2 549,-313.2 733,-313.2 733,-294.2 549,-294.2"/>
<text text-anchor="start" x="552" y="-300.3" font-family="Helvetica,sans-Serif" font-size="11.00" fill="#000000">...</text>
<polygon fill="#ffffff" stroke="transparent" points="549,-275.2 549,-294.2 626,-294.2 626,-275.2 549,-275.2"/>
<polygon fill="none" stroke="#000000" points="549,-275.2 549,-294.2 626,-294.2 626,-275.2 549,-275.2"/>
<text text-anchor="start" x="552" y="-281.3" font-family="Helvetica,sans-Serif" font-size="11.00" fill="#000000">&lt; 2</text>
<polygon fill="#ffffff" stroke="transparent" points="626,-275.2 626,-294.2 692,-294.2 692,-275.2 626,-275.2"/>
<polygon fill="none" stroke="#000000" points="626,-275.2 626,-294.2 692,-294.2 692,-275.2 626,-275.2"/>
<text text-anchor="start" x="656.6105" y="-281.3" font-family="Helvetica,sans-Serif" font-size="11.00" fill="#000000">0 rows</text>
<polygon fill="#ffffff" stroke="transparent" points="692,-275.2 692,-294.2 733,-294.2 733,-275.2 692,-275.2"/>
<polygon fill="none" stroke="#000000" points="692,-275.2 692,-294.2 733,-294.2 733,-275.2 692,-275.2"/>
<text text-anchor="start" x="723.8862" y="-281.3" font-family="Helvetica,sans-Serif" font-size="11.00" fill="#000000"> &#160;</text>
</a>
</g>
</g>
<!-- pessoa_cadastra_campanha&#45;&gt;campanha -->
<g id="edge11" class="edge">
<title>pessoa_cadastra_campanha:w&#45;&gt;campanha:e</title>
<path fill="none" stroke="#000000" d="M534.9107,-306.332C504.9721,-322.0082 523.6921,-391.2 479.5,-391.2"/>
<polygon fill="#000000" stroke="#000000" points="541.1906,-304.936 549.7812,-306.7142 545.0953,-304.068 549,-303.2 549,-303.2 549,-303.2 545.0953,-304.068 548.2188,-299.6858 541.1906,-304.936 541.1906,-304.936"/>
<ellipse fill="none" stroke="#000000" cx="538.0669" cy="-305.6304" rx="3.2" ry="3.2"/>
</g>
<!-- pessoa_cadastra_campanha&#45;&gt;pessoa -->
<g id="edge12" class="edge">
<title>pessoa_cadastra_campanha:w&#45;&gt;pessoa:e</title>
<path fill="none" stroke="#000000" d="M534.592,-300.9817C526.0995,-297.9794 520.6267,-292.5032 508,-288.2 439.6131,-264.8936 402.8452,-291.5011 353,-239.2 313.3587,-197.6056 350.1781,-163.0959 320,-114.2 304.1235,-88.4762 299.2288,-69.2 269,-69.2"/>
<polygon fill="#000000" stroke="#000000" points="541.0932,-301.9826 548.4522,-306.7581 545.0466,-302.5913 549,-303.2 549,-303.2 549,-303.2 545.0466,-302.5913 549.5478,-299.6419 541.0932,-301.9826 541.0932,-301.9826"/>
<ellipse fill="none" stroke="#000000" cx="537.9304" cy="-301.4956" rx="3.2" ry="3.2"/>
</g>
<!-- pessoa_interessa_animal -->
<g id="node11" class="node">
<title>pessoa_interessa_animal</title>
<g id="a_node11"><a xlink:href="../../tables/pessoa_interessa_animal.html" xlink:title="pessoa_interessa_animal" target="_top">
<polygon fill="#ffffff" stroke="transparent" points="557.5,-78.7 557.5,-139.7 724.5,-139.7 724.5,-78.7 557.5,-78.7"/>
<polygon fill="#f5f5f5" stroke="transparent" points="558,-116.2 558,-139.2 725,-139.2 725,-116.2 558,-116.2"/>
<polygon fill="none" stroke="#000000" points="558,-116.2 558,-139.2 725,-139.2 725,-116.2 558,-116.2"/>
<text text-anchor="start" x="562.6515" y="-125.3" font-family="Helvetica,sans-Serif" font-weight="bold" font-size="11.00" fill="#000000">pessoa_interessa_animal</text>
<text text-anchor="start" x="690.5219" y="-124.3" font-family="Helvetica,sans-Serif" font-size="11.00" fill="#000000">[table]</text>
<polygon fill="none" stroke="#000000" points="558,-97.2 558,-116.2 725,-116.2 725,-97.2 558,-97.2"/>
<text text-anchor="start" x="561" y="-103.3" font-family="Helvetica,sans-Serif" font-size="11.00" fill="#000000">...</text>
<polygon fill="#ffffff" stroke="transparent" points="558,-78.2 558,-97.2 627,-97.2 627,-78.2 558,-78.2"/>
<polygon fill="none" stroke="#000000" points="558,-78.2 558,-97.2 627,-97.2 627,-78.2 558,-78.2"/>
<text text-anchor="start" x="561" y="-84.3" font-family="Helvetica,sans-Serif" font-size="11.00" fill="#000000">&lt; 2</text>
<polygon fill="#ffffff" stroke="transparent" points="627,-78.2 627,-97.2 689,-97.2 689,-78.2 627,-78.2"/>
<polygon fill="none" stroke="#000000" points="627,-78.2 627,-97.2 689,-97.2 689,-78.2 627,-78.2"/>
<text text-anchor="start" x="653.6105" y="-84.3" font-family="Helvetica,sans-Serif" font-size="11.00" fill="#000000">0 rows</text>
<polygon fill="#ffffff" stroke="transparent" points="689,-78.2 689,-97.2 725,-97.2 725,-78.2 689,-78.2"/>
<polygon fill="none" stroke="#000000" points="689,-78.2 689,-97.2 725,-97.2 725,-78.2 689,-78.2"/>
<text text-anchor="start" x="715.8862" y="-84.3" font-family="Helvetica,sans-Serif" font-size="11.00" fill="#000000"> &#160;</text>
</a>
</g>
</g>
<!-- pessoa_interessa_animal&#45;&gt;animal -->
<g id="edge13" class="edge">
<title>pessoa_interessa_animal:w&#45;&gt;animal:e</title>
<path fill="none" stroke="#000000" d="M544.0318,-109.9813C518.9734,-126.825 541.3801,-194.2 500.5,-194.2"/>
<polygon fill="#000000" stroke="#000000" points="550.2779,-108.2904 558.9407,-109.6749 554.139,-107.2452 558,-106.2 558,-106.2 558,-106.2 554.139,-107.2452 557.0593,-102.7251 550.2779,-108.2904 550.2779,-108.2904"/>
<ellipse fill="none" stroke="#000000" cx="547.1891" cy="-109.1266" rx="3.2" ry="3.2"/>
</g>
<!-- pessoa_interessa_animal&#45;&gt;pessoa -->
<g id="edge14" class="edge">
<title>pessoa_interessa_animal:w&#45;&gt;pessoa:e</title>
<path fill="none" stroke="#000000" d="M543.2686,-106.035C426.0105,-103.3658 393.4345,-69.2 269,-69.2"/>
<polygon fill="#000000" stroke="#000000" points="550.0005,-106.1104 557.9597,-109.7998 554.0003,-106.1552 558,-106.2 558,-106.2 558,-106.2 554.0003,-106.1552 558.0403,-102.6002 550.0005,-106.1104 550.0005,-106.1104"/>
<ellipse fill="none" stroke="#000000" cx="546.8007" cy="-106.0745" rx="3.2" ry="3.2"/>
</g>
</g>
</svg>
