<?xml version="1.0" encoding="UTF-8" standalone="no"?>
<!DOCTYPE svg PUBLIC "-//W3C//DTD SVG 1.1//EN"
 "http://www.w3.org/Graphics/SVG/1.1/DTD/svg11.dtd">
<!-- Generated by graphviz version 2.40.1 (20161225.0304)
 -->
<!-- Title: oneDegreeRelationshipsDiagram Pages: 1 -->
<svg width="314pt" height="369pt"
 viewBox="0.00 0.00 314.00 369.20" xmlns="http://www.w3.org/2000/svg" xmlns:xlink="http://www.w3.org/1999/xlink">
<g id="graph0" class="graph" transform="scale(1 1) rotate(0) translate(4 365.2)">
<title>oneDegreeRelationshipsDiagram</title>
<polygon fill="#ffffff" stroke="transparent" points="-4,4 -4,-365.2 310,-365.2 310,4 -4,4"/>
<text text-anchor="middle" x="72.4936" y="-7.3" font-family="Helvetica,sans-Serif" font-size="11.00" fill="#000000">Generated by SchemaSpy</text>
<!-- instituicao -->
<g id="node1" class="node">
<title>instituicao</title>
<g id="a_node1"><a xlink:href="../../tables/instituicao.html" xlink:title="instituicao" target="_top">
<polygon fill="#ffffff" stroke="transparent" points="203,-186.2 203,-357.2 298,-357.2 298,-186.2 203,-186.2"/>
<polygon fill="#f5f5f5" stroke="transparent" points="203.5,-333.7 203.5,-356.7 298.5,-356.7 298.5,-333.7 203.5,-333.7"/>
<polygon fill="none" stroke="#000000" points="203.5,-333.7 203.5,-356.7 298.5,-356.7 298.5,-333.7 203.5,-333.7"/>
<text text-anchor="start" x="208.5" y="-342.8" font-family="Helvetica,sans-Serif" font-weight="bold" font-size="11.00" fill="#000000">instituicao</text>
<text text-anchor="start" x="263.5437" y="-341.8" font-family="Helvetica,sans-Serif" font-size="11.00" fill="#000000">[table]</text>
<polygon fill="none" stroke="#000000" points="203.5,-311.7 203.5,-333.7 298.5,-333.7 298.5,-311.7 203.5,-311.7"/>
<image xlink:href="../../images/primaryKeys.png" width="11px" height="12px" preserveAspectRatio="xMinYMin meet" x="208.5" y="-328.7"/>
<text text-anchor="start" x="223.5" y="-318.8" font-family="Helvetica,sans-Serif" font-size="11.00" fill="#000000">usuario_id</text>
<polygon fill="#ffffff" stroke="transparent" points="203.5,-289.7 203.5,-311.7 298.5,-311.7 298.5,-289.7 203.5,-289.7"/>
<polygon fill="none" stroke="#000000" points="203.5,-289.7 203.5,-311.7 298.5,-311.7 298.5,-289.7 203.5,-289.7"/>
<text text-anchor="start" x="223.5" y="-296.8" font-family="Helvetica,sans-Serif" font-size="11.00" fill="#000000">telefone</text>
<polygon fill="#ffffff" stroke="transparent" points="203.5,-267.7 203.5,-289.7 298.5,-289.7 298.5,-267.7 203.5,-267.7"/>
<polygon fill="none" stroke="#000000" points="203.5,-267.7 203.5,-289.7 298.5,-289.7 298.5,-267.7 203.5,-267.7"/>
<text text-anchor="start" x="223.5" y="-274.8" font-family="Helvetica,sans-Serif" font-size="11.00" fill="#000000">cnpj</text>
<polygon fill="#ffffff" stroke="transparent" points="203.5,-245.7 203.5,-267.7 298.5,-267.7 298.5,-245.7 203.5,-245.7"/>
<polygon fill="none" stroke="#000000" points="203.5,-245.7 203.5,-267.7 298.5,-267.7 298.5,-245.7 203.5,-245.7"/>
<text text-anchor="start" x="223.5" y="-252.8" font-family="Helvetica,sans-Serif" font-size="11.00" fill="#000000">cpf</text>
<polygon fill="none" stroke="#000000" points="203.5,-223.7 203.5,-245.7 298.5,-245.7 298.5,-223.7 203.5,-223.7"/>
<image xlink:href="../../images/foreignKeys.png" width="11px" height="12px" preserveAspectRatio="xMinYMin meet" x="208.5" y="-240.7"/>
<text text-anchor="start" x="223.5" y="-230.8" font-family="Helvetica,sans-Serif" font-size="11.00" fill="#000000">municipio_id</text>
<polygon fill="none" stroke="#000000" points="203.5,-204.7 203.5,-223.7 298.5,-223.7 298.5,-204.7 203.5,-204.7"/>
<text text-anchor="start" x="206.5" y="-210.8" font-family="Helvetica,sans-Serif" font-size="11.00" fill="#000000">...</text>
<polygon fill="#ffffff" stroke="transparent" points="203.5,-185.7 203.5,-204.7 231.5,-204.7 231.5,-185.7 203.5,-185.7"/>
<polygon fill="none" stroke="#000000" points="203.5,-185.7 203.5,-204.7 231.5,-204.7 231.5,-185.7 203.5,-185.7"/>
<text text-anchor="start" x="206.5" y="-191.8" font-family="Helvetica,sans-Serif" font-size="11.00" fill="#000000">&lt; 2</text>
<polygon fill="#ffffff" stroke="transparent" points="231.5,-185.7 231.5,-204.7 273.5,-204.7 273.5,-185.7 231.5,-185.7"/>
<polygon fill="none" stroke="#000000" points="231.5,-185.7 231.5,-204.7 273.5,-204.7 273.5,-185.7 231.5,-185.7"/>
<text text-anchor="start" x="238.1105" y="-191.8" font-family="Helvetica,sans-Serif" font-size="11.00" fill="#000000">0 rows</text>
<polygon fill="#ffffff" stroke="transparent" points="273.5,-185.7 273.5,-204.7 298.5,-204.7 298.5,-185.7 273.5,-185.7"/>
<polygon fill="none" stroke="#000000" points="273.5,-185.7 273.5,-204.7 298.5,-204.7 298.5,-185.7 273.5,-185.7"/>
<text text-anchor="start" x="279.9053" y="-191.8" font-family="Helvetica,sans-Serif" font-size="11.00" fill="#000000">2 &gt;</text>
</a>
</g>
</g>
<!-- municipio -->
<g id="node2" class="node">
<title>municipio</title>
<g id="a_node2"><a xlink:href="../../tables/municipio.html" xlink:title="municipio" target="_top">
<polygon fill="#ffffff" stroke="transparent" points="8,-84.7 8,-196.7 154,-196.7 154,-84.7 8,-84.7"/>
<polygon fill="#f5f5f5" stroke="transparent" points="10,-171.7 10,-194.7 152,-194.7 152,-171.7 10,-171.7"/>
<polygon fill="none" stroke="#000000" points="10,-171.7 10,-194.7 152,-194.7 152,-171.7 10,-171.7"/>
<text text-anchor="start" x="15" y="-180.8" font-family="Helvetica,sans-Serif" font-weight="bold" font-size="11.00" fill="#000000">municipio</text>
<text text-anchor="start" x="117.0437" y="-179.8" font-family="Helvetica,sans-Serif" font-size="11.00" fill="#000000">[table]</text>
<polygon fill="none" stroke="#000000" points="10,-149.7 10,-171.7 87,-171.7 87,-149.7 10,-149.7"/>
<image xlink:href="../../images/primaryKeys.png" width="11px" height="12px" preserveAspectRatio="xMinYMin meet" x="15" y="-166.7"/>
<text text-anchor="start" x="30" y="-156.8" font-family="Helvetica,sans-Serif" font-size="11.00" fill="#000000">id</text>
<polygon fill="none" stroke="#000000" points="87,-149.7 87,-171.7 152,-171.7 152,-149.7 87,-149.7"/>
<text text-anchor="start" x="89.8561" y="-157.4" font-family="Helvetica,sans-Serif" font-size="11.00" fill="#000000">bigserial[19]</text>
<polygon fill="#ffffff" stroke="transparent" points="10,-127.7 10,-149.7 87,-149.7 87,-127.7 10,-127.7"/>
<polygon fill="none" stroke="#000000" points="10,-127.7 10,-149.7 87,-149.7 87,-127.7 10,-127.7"/>
<text text-anchor="start" x="30" y="-134.8" font-family="Helvetica,sans-Serif" font-size="11.00" fill="#000000">uf</text>
<polygon fill="none" stroke="#000000" points="87,-127.7 87,-149.7 152,-149.7 152,-127.7 87,-127.7"/>
<text text-anchor="start" x="90" y="-135.4" font-family="Helvetica,sans-Serif" font-size="11.00" fill="#000000">varchar[50]</text>
<polygon fill="#ffffff" stroke="transparent" points="10,-105.7 10,-127.7 87,-127.7 87,-105.7 10,-105.7"/>
<polygon fill="none" stroke="#000000" points="10,-105.7 10,-127.7 87,-127.7 87,-105.7 10,-105.7"/>
<text text-anchor="start" x="30" y="-112.8" font-family="Helvetica,sans-Serif" font-size="11.00" fill="#000000">nome</text>
<polygon fill="none" stroke="#000000" points="87,-105.7 87,-127.7 152,-127.7 152,-105.7 87,-105.7"/>
<text text-anchor="start" x="90" y="-113.4" font-family="Helvetica,sans-Serif" font-size="11.00" fill="#000000">varchar[50]</text>
<polygon fill="#ffffff" stroke="transparent" points="10,-86.7 10,-105.7 40,-105.7 40,-86.7 10,-86.7"/>
<polygon fill="none" stroke="#000000" points="10,-86.7 10,-105.7 40,-105.7 40,-86.7 10,-86.7"/>
<text text-anchor="start" x="13" y="-92.8" font-family="Helvetica,sans-Serif" font-size="11.00" fill="#000000">&lt; 0</text>
<polygon fill="#ffffff" stroke="transparent" points="40,-86.7 40,-105.7 87,-105.7 87,-86.7 40,-86.7"/>
<polygon fill="none" stroke="#000000" points="40,-86.7 40,-105.7 87,-105.7 87,-86.7 40,-86.7"/>
<text text-anchor="start" x="51.6105" y="-92.8" font-family="Helvetica,sans-Serif" font-size="11.00" fill="#000000">0 rows</text>
<polygon fill="#ffffff" stroke="transparent" points="87,-86.7 87,-105.7 152,-105.7 152,-86.7 87,-86.7"/>
<polygon fill="none" stroke="#000000" points="87,-86.7 87,-105.7 152,-105.7 152,-86.7 87,-86.7"/>
<text text-anchor="start" x="133.4053" y="-92.8" font-family="Helvetica,sans-Serif" font-size="11.00" fill="#000000">2 &gt;</text>
<polygon fill="none" stroke="#000000" stroke-width="2" points="9,-85.7 9,-195.7 153,-195.7 153,-85.7 9,-85.7"/>
</a>
</g>
</g>
<!-- instituicao&#45;&gt;municipio -->
<g id="edge1" class="edge">
<title>instituicao:w&#45;&gt;municipio:e</title>
<path fill="none" stroke="#000000" d="M189.7488,-230.2926C170.4187,-214.3617 186.1218,-160.7 152,-160.7"/>
<polygon fill="#000000" stroke="#000000" points="195.8817,-232.2582 202.4012,-238.1282 199.6909,-233.4791 203.5,-234.7 203.5,-234.7 203.5,-234.7 199.6909,-233.4791 204.5988,-231.2718 195.8817,-232.2582 195.8817,-232.2582"/>
<ellipse fill="none" stroke="#000000" cx="192.8344" cy="-231.2815" rx="3.2" ry="3.2"/>
</g>
<!-- pessoa -->
<g id="node3" class="node">
<title>pessoa</title>
<g id="a_node3"><a xlink:href="../../tables/pessoa.html" xlink:title="pessoa" target="_top">
<polygon fill="#ffffff" stroke="transparent" points="203,-38.2 203,-165.2 298,-165.2 298,-38.2 203,-38.2"/>
<polygon fill="#f5f5f5" stroke="transparent" points="203.5,-141.7 203.5,-164.7 298.5,-164.7 298.5,-141.7 203.5,-141.7"/>
<polygon fill="none" stroke="#000000" points="203.5,-141.7 203.5,-164.7 298.5,-164.7 298.5,-141.7 203.5,-141.7"/>
<text text-anchor="start" x="208.5" y="-150.8" font-family="Helvetica,sans-Serif" font-weight="bold" font-size="11.00" fill="#000000">pessoa</text>
<text text-anchor="start" x="263.5437" y="-149.8" font-family="Helvetica,sans-Serif" font-size="11.00" fill="#000000">[table]</text>
<polygon fill="none" stroke="#000000" points="203.5,-119.7 203.5,-141.7 298.5,-141.7 298.5,-119.7 203.5,-119.7"/>
<image xlink:href="../../images/primaryKeys.png" width="11px" height="12px" preserveAspectRatio="xMinYMin meet" x="208.5" y="-136.7"/>
<text text-anchor="start" x="223.5" y="-126.8" font-family="Helvetica,sans-Serif" font-size="11.00" fill="#000000">usuario_id</text>
<polygon fill="#ffffff" stroke="transparent" points="203.5,-97.7 203.5,-119.7 298.5,-119.7 298.5,-97.7 203.5,-97.7"/>
<polygon fill="none" stroke="#000000" points="203.5,-97.7 203.5,-119.7 298.5,-119.7 298.5,-97.7 203.5,-97.7"/>
<text text-anchor="start" x="223.5" y="-104.8" font-family="Helvetica,sans-Serif" font-size="11.00" fill="#000000">telefone</text>
<polygon fill="none" stroke="#000000" points="203.5,-75.7 203.5,-97.7 298.5,-97.7 298.5,-75.7 203.5,-75.7"/>
<image xlink:href="../../images/foreignKeys.png" width="11px" height="12px" preserveAspectRatio="xMinYMin meet" x="208.5" y="-92.7"/>
<text text-anchor="start" x="223.5" y="-82.8" font-family="Helvetica,sans-Serif" font-size="11.00" fill="#000000">municipio_id</text>
<polygon fill="none" stroke="#000000" points="203.5,-56.7 203.5,-75.7 298.5,-75.7 298.5,-56.7 203.5,-56.7"/>
<text text-anchor="start" x="206.5" y="-62.8" font-family="Helvetica,sans-Serif" font-size="11.00" fill="#000000">...</text>
<polygon fill="#ffffff" stroke="transparent" points="203.5,-37.7 203.5,-56.7 231.5,-56.7 231.5,-37.7 203.5,-37.7"/>
<polygon fill="none" stroke="#000000" points="203.5,-37.7 203.5,-56.7 231.5,-56.7 231.5,-37.7 203.5,-37.7"/>
<text text-anchor="start" x="206.5" y="-43.8" font-family="Helvetica,sans-Serif" font-size="11.00" fill="#000000">&lt; 2</text>
<polygon fill="#ffffff" stroke="transparent" points="231.5,-37.7 231.5,-56.7 273.5,-56.7 273.5,-37.7 231.5,-37.7"/>
<polygon fill="none" stroke="#000000" points="231.5,-37.7 231.5,-56.7 273.5,-56.7 273.5,-37.7 231.5,-37.7"/>
<text text-anchor="start" x="238.1105" y="-43.8" font-family="Helvetica,sans-Serif" font-size="11.00" fill="#000000">0 rows</text>
<polygon fill="#ffffff" stroke="transparent" points="273.5,-37.7 273.5,-56.7 298.5,-56.7 298.5,-37.7 273.5,-37.7"/>
<polygon fill="none" stroke="#000000" points="273.5,-37.7 273.5,-56.7 298.5,-56.7 298.5,-37.7 273.5,-37.7"/>
<text text-anchor="start" x="279.9053" y="-43.8" font-family="Helvetica,sans-Serif" font-size="11.00" fill="#000000">2 &gt;</text>
</a>
</g>
</g>
<!-- pessoa&#45;&gt;municipio -->
<g id="edge2" class="edge">
<title>pessoa:w&#45;&gt;municipio:e</title>
<path fill="none" stroke="#000000" d="M189.7488,-91.1074C170.4187,-107.0383 186.1218,-160.7 152,-160.7"/>
<polygon fill="#000000" stroke="#000000" points="195.8817,-89.1418 204.5988,-90.1282 199.6909,-87.9209 203.5,-86.7 203.5,-86.7 203.5,-86.7 199.6909,-87.9209 202.4012,-83.2718 195.8817,-89.1418 195.8817,-89.1418"/>
<ellipse fill="none" stroke="#000000" cx="192.8344" cy="-90.1185" rx="3.2" ry="3.2"/>
</g>
</g>
</svg>
