<?xml version="1.0" encoding="UTF-8" standalone="no"?>
<!DOCTYPE svg PUBLIC "-//W3C//DTD SVG 1.1//EN"
 "http://www.w3.org/Graphics/SVG/1.1/DTD/svg11.dtd">
<!-- Generated by graphviz version 2.40.1 (20161225.0304)
 -->
<!-- Title: twoDegreesRelationshipsDiagram Pages: 1 -->
<svg width="690pt" height="369pt"
 viewBox="0.00 0.00 690.00 369.20" xmlns="http://www.w3.org/2000/svg" xmlns:xlink="http://www.w3.org/1999/xlink">
<g id="graph0" class="graph" transform="scale(1 1) rotate(0) translate(4 365.2)">
<title>twoDegreesRelationshipsDiagram</title>
<polygon fill="#ffffff" stroke="transparent" points="-4,4 -4,-365.2 686,-365.2 686,4 -4,4"/>
<text text-anchor="middle" x="72.4936" y="-7.3" font-family="Helvetica,sans-Serif" font-size="11.00" fill="#000000">Generated by SchemaSpy</text>
<!-- animal -->
<g id="node1" class="node">
<title>animal</title>
<g id="a_node1"><a xlink:href="../../tables/animal.html" xlink:title="animal" target="_top">
<polygon fill="#ffffff" stroke="transparent" points="354,-293.2 354,-354.2 434,-354.2 434,-293.2 354,-293.2"/>
<polygon fill="#f5f5f5" stroke="transparent" points="354,-330.7 354,-353.7 434,-353.7 434,-330.7 354,-330.7"/>
<polygon fill="none" stroke="#000000" points="354,-330.7 354,-353.7 434,-353.7 434,-330.7 354,-330.7"/>
<text text-anchor="start" x="359" y="-339.8" font-family="Helvetica,sans-Serif" font-weight="bold" font-size="11.00" fill="#000000">animal</text>
<text text-anchor="start" x="399.0437" y="-338.8" font-family="Helvetica,sans-Serif" font-size="11.00" fill="#000000">[table]</text>
<polygon fill="none" stroke="#000000" points="354,-311.7 354,-330.7 434,-330.7 434,-311.7 354,-311.7"/>
<text text-anchor="start" x="357" y="-317.8" font-family="Helvetica,sans-Serif" font-size="11.00" fill="#000000">...</text>
<polygon fill="#ffffff" stroke="transparent" points="354,-292.7 354,-311.7 375,-311.7 375,-292.7 354,-292.7"/>
<polygon fill="none" stroke="#000000" points="354,-292.7 354,-311.7 375,-311.7 375,-292.7 354,-292.7"/>
<text text-anchor="start" x="356.7027" y="-298.8" font-family="Helvetica,sans-Serif" font-size="11.00" fill="#000000">&lt; 1</text>
<polygon fill="#ffffff" stroke="transparent" points="375,-292.7 375,-311.7 413,-311.7 413,-292.7 375,-292.7"/>
<polygon fill="none" stroke="#000000" points="375,-292.7 375,-311.7 413,-311.7 413,-292.7 375,-292.7"/>
<text text-anchor="start" x="377.8053" y="-298.8" font-family="Helvetica,sans-Serif" font-size="11.00" fill="#000000">0 rows</text>
<polygon fill="#ffffff" stroke="transparent" points="413,-292.7 413,-311.7 434,-311.7 434,-292.7 413,-292.7"/>
<polygon fill="none" stroke="#000000" points="413,-292.7 413,-311.7 434,-311.7 434,-292.7 413,-292.7"/>
<text text-anchor="start" x="415.7027" y="-298.8" font-family="Helvetica,sans-Serif" font-size="11.00" fill="#000000">2 &gt;</text>
</a>
</g>
</g>
<!-- instituicao -->
<g id="node2" class="node">
<title>instituicao</title>
<g id="a_node2"><a xlink:href="../../tables/instituicao.html" xlink:title="instituicao" target="_top">
<polygon fill="#ffffff" stroke="transparent" points="203,-186.2 203,-357.2 298,-357.2 298,-186.2 203,-186.2"/>
<polygon fill="#f5f5f5" stroke="transparent" points="203.5,-333.7 203.5,-356.7 298.5,-356.7 298.5,-333.7 203.5,-333.7"/>
<polygon fill="none" stroke="#000000" points="203.5,-333.7 203.5,-356.7 298.5,-356.7 298.5,-333.7 203.5,-333.7"/>
<text text-anchor="start" x="208.5" y="-342.8" font-family="Helvetica,sans-Serif" font-weight="bold" font-size="11.00" fill="#000000">instituicao</text>
<text text-anchor="start" x="263.5437" y="-341.8" font-family="Helvetica,sans-Serif" font-size="11.00" fill="#000000">[table]</text>
<polygon fill="none" stroke="#000000" points="203.5,-311.7 203.5,-333.7 298.5,-333.7 298.5,-311.7 203.5,-311.7"/>
<image xlink:href="../../images/primaryKeys.png" width="11px" height="12px" preserveAspectRatio="xMinYMin meet" x="208.5" y="-328.7"/>
<text text-anchor="start" x="223.5" y="-318.8" font-family="Helvetica,sans-Serif" font-size="11.00" fill="#000000">usuario_id</text>
<polygon fill="#ffffff" stroke="transparent" points="203.5,-289.7 203.5,-311.7 298.5,-311.7 298.5,-289.7 203.5,-289.7"/>
<polygon fill="none" stroke="#000000" points="203.5,-289.7 203.5,-311.7 298.5,-311.7 298.5,-289.7 203.5,-289.7"/>
<text text-anchor="start" x="223.5" y="-296.8" font-family="Helvetica,sans-Serif" font-size="11.00" fill="#000000">telefone</text>
<polygon fill="#ffffff" stroke="transparent" points="203.5,-267.7 203.5,-289.7 298.5,-289.7 298.5,-267.7 203.5,-267.7"/>
<polygon fill="none" stroke="#000000" points="203.5,-267.7 203.5,-289.7 298.5,-289.7 298.5,-267.7 203.5,-267.7"/>
<text text-anchor="start" x="223.5" y="-274.8" font-family="Helvetica,sans-Serif" font-size="11.00" fill="#000000">cnpj</text>
<polygon fill="#ffffff" stroke="transparent" points="203.5,-245.7 203.5,-267.7 298.5,-267.7 298.5,-245.7 203.5,-245.7"/>
<polygon fill="none" stroke="#000000" points="203.5,-245.7 203.5,-267.7 298.5,-267.7 298.5,-245.7 203.5,-245.7"/>
<text text-anchor="start" x="223.5" y="-252.8" font-family="Helvetica,sans-Serif" font-size="11.00" fill="#000000">cpf</text>
<polygon fill="none" stroke="#000000" points="203.5,-223.7 203.5,-245.7 298.5,-245.7 298.5,-223.7 203.5,-223.7"/>
<image xlink:href="../../images/foreignKeys.png" width="11px" height="12px" preserveAspectRatio="xMinYMin meet" x="208.5" y="-240.7"/>
<text text-anchor="start" x="223.5" y="-230.8" font-family="Helvetica,sans-Serif" font-size="11.00" fill="#000000">municipio_id</text>
<polygon fill="none" stroke="#000000" points="203.5,-204.7 203.5,-223.7 298.5,-223.7 298.5,-204.7 203.5,-204.7"/>
<text text-anchor="start" x="206.5" y="-210.8" font-family="Helvetica,sans-Serif" font-size="11.00" fill="#000000">...</text>
<polygon fill="#ffffff" stroke="transparent" points="203.5,-185.7 203.5,-204.7 231.5,-204.7 231.5,-185.7 203.5,-185.7"/>
<polygon fill="none" stroke="#000000" points="203.5,-185.7 203.5,-204.7 231.5,-204.7 231.5,-185.7 203.5,-185.7"/>
<text text-anchor="start" x="206.5" y="-191.8" font-family="Helvetica,sans-Serif" font-size="11.00" fill="#000000">&lt; 2</text>
<polygon fill="#ffffff" stroke="transparent" points="231.5,-185.7 231.5,-204.7 273.5,-204.7 273.5,-185.7 231.5,-185.7"/>
<polygon fill="none" stroke="#000000" points="231.5,-185.7 231.5,-204.7 273.5,-204.7 273.5,-185.7 231.5,-185.7"/>
<text text-anchor="start" x="238.1105" y="-191.8" font-family="Helvetica,sans-Serif" font-size="11.00" fill="#000000">0 rows</text>
<polygon fill="#ffffff" stroke="transparent" points="273.5,-185.7 273.5,-204.7 298.5,-204.7 298.5,-185.7 273.5,-185.7"/>
<polygon fill="none" stroke="#000000" points="273.5,-185.7 273.5,-204.7 298.5,-204.7 298.5,-185.7 273.5,-185.7"/>
<text text-anchor="start" x="279.9053" y="-191.8" font-family="Helvetica,sans-Serif" font-size="11.00" fill="#000000">2 &gt;</text>
</a>
</g>
</g>
<!-- animal&#45;&gt;instituicao -->
<g id="edge1" class="edge">
<title>animal:w&#45;&gt;instituicao:e</title>
<path fill="none" stroke="#000000" d="M339.224,-320.9781C325.4228,-321.5276 317.3977,-322.7 298.5,-322.7"/>
<polygon fill="#000000" stroke="#000000" points="346.0014,-320.8506 354.0678,-324.2994 350.0007,-320.7753 354,-320.7 354,-320.7 354,-320.7 350.0007,-320.7753 353.9322,-317.1006 346.0014,-320.8506 346.0014,-320.8506"/>
<ellipse fill="none" stroke="#000000" cx="342.802" cy="-320.9108" rx="3.2" ry="3.2"/>
</g>
<!-- municipio -->
<g id="node4" class="node">
<title>municipio</title>
<g id="a_node4"><a xlink:href="../../tables/municipio.html" xlink:title="municipio" target="_top">
<polygon fill="#ffffff" stroke="transparent" points="8,-84.7 8,-196.7 154,-196.7 154,-84.7 8,-84.7"/>
<polygon fill="#f5f5f5" stroke="transparent" points="10,-171.7 10,-194.7 152,-194.7 152,-171.7 10,-171.7"/>
<polygon fill="none" stroke="#000000" points="10,-171.7 10,-194.7 152,-194.7 152,-171.7 10,-171.7"/>
<text text-anchor="start" x="15" y="-180.8" font-family="Helvetica,sans-Serif" font-weight="bold" font-size="11.00" fill="#000000">municipio</text>
<text text-anchor="start" x="117.0437" y="-179.8" font-family="Helvetica,sans-Serif" font-size="11.00" fill="#000000">[table]</text>
<polygon fill="none" stroke="#000000" points="10,-149.7 10,-171.7 87,-171.7 87,-149.7 10,-149.7"/>
<image xlink:href="../../images/primaryKeys.png" width="11px" height="12px" preserveAspectRatio="xMinYMin meet" x="15" y="-166.7"/>
<text text-anchor="start" x="30" y="-156.8" font-family="Helvetica,sans-Serif" font-size="11.00" fill="#000000">id</text>
<polygon fill="none" stroke="#000000" points="87,-149.7 87,-171.7 152,-171.7 152,-149.7 87,-149.7"/>
<text text-anchor="start" x="89.8561" y="-157.4" font-family="Helvetica,sans-Serif" font-size="11.00" fill="#000000">bigserial[19]</text>
<polygon fill="#ffffff" stroke="transparent" points="10,-127.7 10,-149.7 87,-149.7 87,-127.7 10,-127.7"/>
<polygon fill="none" stroke="#000000" points="10,-127.7 10,-149.7 87,-149.7 87,-127.7 10,-127.7"/>
<text text-anchor="start" x="30" y="-134.8" font-family="Helvetica,sans-Serif" font-size="11.00" fill="#000000">uf</text>
<polygon fill="none" stroke="#000000" points="87,-127.7 87,-149.7 152,-149.7 152,-127.7 87,-127.7"/>
<text text-anchor="start" x="90" y="-135.4" font-family="Helvetica,sans-Serif" font-size="11.00" fill="#000000">varchar[50]</text>
<polygon fill="#ffffff" stroke="transparent" points="10,-105.7 10,-127.7 87,-127.7 87,-105.7 10,-105.7"/>
<polygon fill="none" stroke="#000000" points="10,-105.7 10,-127.7 87,-127.7 87,-105.7 10,-105.7"/>
<text text-anchor="start" x="30" y="-112.8" font-family="Helvetica,sans-Serif" font-size="11.00" fill="#000000">nome</text>
<polygon fill="none" stroke="#000000" points="87,-105.7 87,-127.7 152,-127.7 152,-105.7 87,-105.7"/>
<text text-anchor="start" x="90" y="-113.4" font-family="Helvetica,sans-Serif" font-size="11.00" fill="#000000">varchar[50]</text>
<polygon fill="#ffffff" stroke="transparent" points="10,-86.7 10,-105.7 40,-105.7 40,-86.7 10,-86.7"/>
<polygon fill="none" stroke="#000000" points="10,-86.7 10,-105.7 40,-105.7 40,-86.7 10,-86.7"/>
<text text-anchor="start" x="13" y="-92.8" font-family="Helvetica,sans-Serif" font-size="11.00" fill="#000000">&lt; 0</text>
<polygon fill="#ffffff" stroke="transparent" points="40,-86.7 40,-105.7 87,-105.7 87,-86.7 40,-86.7"/>
<polygon fill="none" stroke="#000000" points="40,-86.7 40,-105.7 87,-105.7 87,-86.7 40,-86.7"/>
<text text-anchor="start" x="51.6105" y="-92.8" font-family="Helvetica,sans-Serif" font-size="11.00" fill="#000000">0 rows</text>
<polygon fill="#ffffff" stroke="transparent" points="87,-86.7 87,-105.7 152,-105.7 152,-86.7 87,-86.7"/>
<polygon fill="none" stroke="#000000" points="87,-86.7 87,-105.7 152,-105.7 152,-86.7 87,-86.7"/>
<text text-anchor="start" x="133.4053" y="-92.8" font-family="Helvetica,sans-Serif" font-size="11.00" fill="#000000">2 &gt;</text>
<polygon fill="none" stroke="#000000" stroke-width="2" points="9,-85.7 9,-195.7 153,-195.7 153,-85.7 9,-85.7"/>
</a>
</g>
</g>
<!-- instituicao&#45;&gt;municipio -->
<g id="edge3" class="edge">
<title>instituicao:w&#45;&gt;municipio:e</title>
<path fill="none" stroke="#000000" d="M189.7488,-230.2926C170.4187,-214.3617 186.1218,-160.7 152,-160.7"/>
<polygon fill="#000000" stroke="#000000" points="195.8817,-232.2582 202.4012,-238.1282 199.6909,-233.4791 203.5,-234.7 203.5,-234.7 203.5,-234.7 199.6909,-233.4791 204.5988,-231.2718 195.8817,-232.2582 195.8817,-232.2582"/>
<ellipse fill="none" stroke="#000000" cx="192.8344" cy="-231.2815" rx="3.2" ry="3.2"/>
</g>
<!-- usuario -->
<g id="node5" class="node">
<title>usuario</title>
<g id="a_node5"><a xlink:href="../../tables/usuario.html" xlink:title="usuario" target="_top">
<polygon fill="#ffffff" stroke="transparent" points="41.5,-256.2 41.5,-317.2 120.5,-317.2 120.5,-256.2 41.5,-256.2"/>
<polygon fill="#f5f5f5" stroke="transparent" points="42,-293.7 42,-316.7 121,-316.7 121,-293.7 42,-293.7"/>
<polygon fill="none" stroke="#000000" points="42,-293.7 42,-316.7 121,-316.7 121,-293.7 42,-293.7"/>
<text text-anchor="start" x="46.9688" y="-302.8" font-family="Helvetica,sans-Serif" font-weight="bold" font-size="11.00" fill="#000000">usuario</text>
<text text-anchor="start" x="86.5219" y="-301.8" font-family="Helvetica,sans-Serif" font-size="11.00" fill="#000000">[table]</text>
<polygon fill="none" stroke="#000000" points="42,-274.7 42,-293.7 121,-293.7 121,-274.7 42,-274.7"/>
<text text-anchor="start" x="45" y="-280.8" font-family="Helvetica,sans-Serif" font-size="11.00" fill="#000000">...</text>
<polygon fill="#ffffff" stroke="transparent" points="42,-255.7 42,-274.7 58,-274.7 58,-255.7 42,-255.7"/>
<polygon fill="none" stroke="#000000" points="42,-255.7 42,-274.7 58,-274.7 58,-255.7 42,-255.7"/>
<text text-anchor="start" x="45" y="-261.8" font-family="Helvetica,sans-Serif" font-size="11.00" fill="#000000"> &#160;</text>
<polygon fill="#ffffff" stroke="transparent" points="58,-255.7 58,-274.7 98,-274.7 98,-255.7 58,-255.7"/>
<polygon fill="none" stroke="#000000" points="58,-255.7 58,-274.7 98,-274.7 98,-255.7 58,-255.7"/>
<text text-anchor="start" x="62.6105" y="-261.8" font-family="Helvetica,sans-Serif" font-size="11.00" fill="#000000">0 rows</text>
<polygon fill="#ffffff" stroke="transparent" points="98,-255.7 98,-274.7 121,-274.7 121,-255.7 98,-255.7"/>
<polygon fill="none" stroke="#000000" points="98,-255.7 98,-274.7 121,-274.7 121,-255.7 98,-255.7"/>
<text text-anchor="start" x="102.4053" y="-261.8" font-family="Helvetica,sans-Serif" font-size="11.00" fill="#000000">2 &gt;</text>
</a>
</g>
</g>
<!-- instituicao&#45;&gt;usuario -->
<g id="edge4" class="edge">
<title>instituicao:w&#45;&gt;usuario:e</title>
<path fill="none" stroke="#000000" d="M193.0616,-321.7359C162.3387,-315.7303 157.755,-283.7 121,-283.7"/>
<polygon fill="#000000" stroke="#000000" points="203.0713,-318.6434 202.3355,-326.6095 200.7423,-326.4623 201.4781,-318.4962 203.0713,-318.6434"/>
<polyline fill="none" stroke="#000000" points="203.5,-322.7 199.517,-322.3321 "/>
<ellipse fill="none" stroke="#000000" cx="196.3305" cy="-322.0378" rx="3.2" ry="3.2"/>
</g>
<!-- campanha -->
<g id="node3" class="node">
<title>campanha</title>
<g id="a_node3"><a xlink:href="../../tables/campanha.html" xlink:title="campanha" target="_top">
<polygon fill="#ffffff" stroke="transparent" points="347,-177.2 347,-238.2 441,-238.2 441,-177.2 347,-177.2"/>
<polygon fill="#f5f5f5" stroke="transparent" points="347,-214.7 347,-237.7 441,-237.7 441,-214.7 347,-214.7"/>
<polygon fill="none" stroke="#000000" points="347,-214.7 347,-237.7 441,-237.7 441,-214.7 347,-214.7"/>
<text text-anchor="start" x="351.8244" y="-223.8" font-family="Helvetica,sans-Serif" font-weight="bold" font-size="11.00" fill="#000000">campanha</text>
<text text-anchor="start" x="406.5219" y="-222.8" font-family="Helvetica,sans-Serif" font-size="11.00" fill="#000000">[table]</text>
<polygon fill="none" stroke="#000000" points="347,-195.7 347,-214.7 441,-214.7 441,-195.7 347,-195.7"/>
<text text-anchor="start" x="350" y="-201.8" font-family="Helvetica,sans-Serif" font-size="11.00" fill="#000000">...</text>
<polygon fill="#ffffff" stroke="transparent" points="347,-176.7 347,-195.7 375,-195.7 375,-176.7 347,-176.7"/>
<polygon fill="none" stroke="#000000" points="347,-176.7 347,-195.7 375,-195.7 375,-176.7 347,-176.7"/>
<text text-anchor="start" x="350" y="-182.8" font-family="Helvetica,sans-Serif" font-size="11.00" fill="#000000">&lt; 1</text>
<polygon fill="#ffffff" stroke="transparent" points="375,-176.7 375,-195.7 416,-195.7 416,-176.7 375,-176.7"/>
<polygon fill="none" stroke="#000000" points="375,-176.7 375,-195.7 416,-195.7 416,-176.7 375,-176.7"/>
<text text-anchor="start" x="380.6105" y="-182.8" font-family="Helvetica,sans-Serif" font-size="11.00" fill="#000000">0 rows</text>
<polygon fill="#ffffff" stroke="transparent" points="416,-176.7 416,-195.7 441,-195.7 441,-176.7 416,-176.7"/>
<polygon fill="none" stroke="#000000" points="416,-176.7 416,-195.7 441,-195.7 441,-176.7 416,-176.7"/>
<text text-anchor="start" x="422.4053" y="-182.8" font-family="Helvetica,sans-Serif" font-size="11.00" fill="#000000">3 &gt;</text>
</a>
</g>
</g>
<!-- campanha&#45;&gt;instituicao -->
<g id="edge2" class="edge">
<title>campanha:w&#45;&gt;instituicao:e</title>
<path fill="none" stroke="#000000" d="M332.832,-208.3609C302.6363,-228.278 349.2213,-322.7 298.5,-322.7"/>
<polygon fill="#000000" stroke="#000000" points="339.2544,-206.7014 347.9007,-208.1855 343.1272,-205.7007 347,-204.7 347,-204.7 347,-204.7 343.1272,-205.7007 346.0993,-201.2145 339.2544,-206.7014 339.2544,-206.7014"/>
<ellipse fill="none" stroke="#000000" cx="336.1562" cy="-207.502" rx="3.2" ry="3.2"/>
</g>
<!-- pessoa -->
<g id="node6" class="node">
<title>pessoa</title>
<g id="a_node6"><a xlink:href="../../tables/pessoa.html" xlink:title="pessoa" target="_top">
<polygon fill="#ffffff" stroke="transparent" points="203,-38.2 203,-165.2 298,-165.2 298,-38.2 203,-38.2"/>
<polygon fill="#f5f5f5" stroke="transparent" points="203.5,-141.7 203.5,-164.7 298.5,-164.7 298.5,-141.7 203.5,-141.7"/>
<polygon fill="none" stroke="#000000" points="203.5,-141.7 203.5,-164.7 298.5,-164.7 298.5,-141.7 203.5,-141.7"/>
<text text-anchor="start" x="208.5" y="-150.8" font-family="Helvetica,sans-Serif" font-weight="bold" font-size="11.00" fill="#000000">pessoa</text>
<text text-anchor="start" x="263.5437" y="-149.8" font-family="Helvetica,sans-Serif" font-size="11.00" fill="#000000">[table]</text>
<polygon fill="none" stroke="#000000" points="203.5,-119.7 203.5,-141.7 298.5,-141.7 298.5,-119.7 203.5,-119.7"/>
<image xlink:href="../../images/primaryKeys.png" width="11px" height="12px" preserveAspectRatio="xMinYMin meet" x="208.5" y="-136.7"/>
<text text-anchor="start" x="223.5" y="-126.8" font-family="Helvetica,sans-Serif" font-size="11.00" fill="#000000">usuario_id</text>
<polygon fill="#ffffff" stroke="transparent" points="203.5,-97.7 203.5,-119.7 298.5,-119.7 298.5,-97.7 203.5,-97.7"/>
<polygon fill="none" stroke="#000000" points="203.5,-97.7 203.5,-119.7 298.5,-119.7 298.5,-97.7 203.5,-97.7"/>
<text text-anchor="start" x="223.5" y="-104.8" font-family="Helvetica,sans-Serif" font-size="11.00" fill="#000000">telefone</text>
<polygon fill="none" stroke="#000000" points="203.5,-75.7 203.5,-97.7 298.5,-97.7 298.5,-75.7 203.5,-75.7"/>
<image xlink:href="../../images/foreignKeys.png" width="11px" height="12px" preserveAspectRatio="xMinYMin meet" x="208.5" y="-92.7"/>
<text text-anchor="start" x="223.5" y="-82.8" font-family="Helvetica,sans-Serif" font-size="11.00" fill="#000000">municipio_id</text>
<polygon fill="none" stroke="#000000" points="203.5,-56.7 203.5,-75.7 298.5,-75.7 298.5,-56.7 203.5,-56.7"/>
<text text-anchor="start" x="206.5" y="-62.8" font-family="Helvetica,sans-Serif" font-size="11.00" fill="#000000">...</text>
<polygon fill="#ffffff" stroke="transparent" points="203.5,-37.7 203.5,-56.7 231.5,-56.7 231.5,-37.7 203.5,-37.7"/>
<polygon fill="none" stroke="#000000" points="203.5,-37.7 203.5,-56.7 231.5,-56.7 231.5,-37.7 203.5,-37.7"/>
<text text-anchor="start" x="206.5" y="-43.8" font-family="Helvetica,sans-Serif" font-size="11.00" fill="#000000">&lt; 2</text>
<polygon fill="#ffffff" stroke="transparent" points="231.5,-37.7 231.5,-56.7 273.5,-56.7 273.5,-37.7 231.5,-37.7"/>
<polygon fill="none" stroke="#000000" points="231.5,-37.7 231.5,-56.7 273.5,-56.7 273.5,-37.7 231.5,-37.7"/>
<text text-anchor="start" x="238.1105" y="-43.8" font-family="Helvetica,sans-Serif" font-size="11.00" fill="#000000">0 rows</text>
<polygon fill="#ffffff" stroke="transparent" points="273.5,-37.7 273.5,-56.7 298.5,-56.7 298.5,-37.7 273.5,-37.7"/>
<polygon fill="none" stroke="#000000" points="273.5,-37.7 273.5,-56.7 298.5,-56.7 298.5,-37.7 273.5,-37.7"/>
<text text-anchor="start" x="279.9053" y="-43.8" font-family="Helvetica,sans-Serif" font-size="11.00" fill="#000000">2 &gt;</text>
</a>
</g>
</g>
<!-- pessoa&#45;&gt;municipio -->
<g id="edge5" class="edge">
<title>pessoa:w&#45;&gt;municipio:e</title>
<path fill="none" stroke="#000000" d="M189.7488,-91.1074C170.4187,-107.0383 186.1218,-160.7 152,-160.7"/>
<polygon fill="#000000" stroke="#000000" points="195.8817,-89.1418 204.5988,-90.1282 199.6909,-87.9209 203.5,-86.7 203.5,-86.7 203.5,-86.7 199.6909,-87.9209 202.4012,-83.2718 195.8817,-89.1418 195.8817,-89.1418"/>
<ellipse fill="none" stroke="#000000" cx="192.8344" cy="-90.1185" rx="3.2" ry="3.2"/>
</g>
<!-- pessoa&#45;&gt;usuario -->
<g id="edge6" class="edge">
<title>pessoa:w&#45;&gt;usuario:e</title>
<path fill="none" stroke="#000000" d="M192.8462,-131.8436C133.173,-145.8445 194.3326,-283.7 121,-283.7"/>
<polygon fill="#000000" stroke="#000000" points="202.2776,-126.8082 203.1315,-134.7625 201.5406,-134.9333 200.6868,-126.979 202.2776,-126.8082"/>
<polyline fill="none" stroke="#000000" points="203.5,-130.7 199.5228,-131.1269 "/>
<ellipse fill="none" stroke="#000000" cx="196.3411" cy="-131.4685" rx="3.2" ry="3.2"/>
</g>
<!-- pessoa_cadastra_campanha -->
<g id="node7" class="node">
<title>pessoa_cadastra_campanha</title>
<g id="a_node7"><a xlink:href="../../tables/pessoa_cadastra_campanha.html" xlink:title="pessoa_cadastra_campanha" target="_top">
<polygon fill="#ffffff" stroke="transparent" points="490,-160.2 490,-221.2 674,-221.2 674,-160.2 490,-160.2"/>
<polygon fill="#f5f5f5" stroke="transparent" points="490,-197.7 490,-220.7 674,-220.7 674,-197.7 490,-197.7"/>
<polygon fill="none" stroke="#000000" points="490,-197.7 490,-220.7 674,-220.7 674,-197.7 490,-197.7"/>
<text text-anchor="start" x="494.8905" y="-206.8" font-family="Helvetica,sans-Serif" font-weight="bold" font-size="11.00" fill="#000000">pessoa_cadastra_campanha</text>
<text text-anchor="start" x="639.5219" y="-205.8" font-family="Helvetica,sans-Serif" font-size="11.00" fill="#000000">[table]</text>
<polygon fill="none" stroke="#000000" points="490,-178.7 490,-197.7 674,-197.7 674,-178.7 490,-178.7"/>
<text text-anchor="start" x="493" y="-184.8" font-family="Helvetica,sans-Serif" font-size="11.00" fill="#000000">...</text>
<polygon fill="#ffffff" stroke="transparent" points="490,-159.7 490,-178.7 567,-178.7 567,-159.7 490,-159.7"/>
<polygon fill="none" stroke="#000000" points="490,-159.7 490,-178.7 567,-178.7 567,-159.7 490,-159.7"/>
<text text-anchor="start" x="493" y="-165.8" font-family="Helvetica,sans-Serif" font-size="11.00" fill="#000000">&lt; 2</text>
<polygon fill="#ffffff" stroke="transparent" points="567,-159.7 567,-178.7 633,-178.7 633,-159.7 567,-159.7"/>
<polygon fill="none" stroke="#000000" points="567,-159.7 567,-178.7 633,-178.7 633,-159.7 567,-159.7"/>
<text text-anchor="start" x="597.6105" y="-165.8" font-family="Helvetica,sans-Serif" font-size="11.00" fill="#000000">0 rows</text>
<polygon fill="#ffffff" stroke="transparent" points="633,-159.7 633,-178.7 674,-178.7 674,-159.7 633,-159.7"/>
<polygon fill="none" stroke="#000000" points="633,-159.7 633,-178.7 674,-178.7 674,-159.7 633,-159.7"/>
<text text-anchor="start" x="664.8862" y="-165.8" font-family="Helvetica,sans-Serif" font-size="11.00" fill="#000000"> &#160;</text>
</a>
</g>
</g>
<!-- pessoa_cadastra_campanha&#45;&gt;campanha -->
<g id="edge7" class="edge">
<title>pessoa_cadastra_campanha:w&#45;&gt;campanha:e</title>
<path fill="none" stroke="#000000" d="M475.4993,-190.5072C464.1152,-195.3357 458.1083,-204.7 441,-204.7"/>
<polygon fill="#000000" stroke="#000000" points="482.1458,-189.2205 490.6842,-191.2344 486.0729,-188.4603 490,-187.7 490,-187.7 490,-187.7 486.0729,-188.4603 489.3158,-184.1656 482.1458,-189.2205 482.1458,-189.2205"/>
<ellipse fill="none" stroke="#000000" cx="479.0042" cy="-189.8288" rx="3.2" ry="3.2"/>
</g>
<!-- pessoa_cadastra_campanha&#45;&gt;pessoa -->
<g id="edge8" class="edge">
<title>pessoa_cadastra_campanha:w&#45;&gt;pessoa:e</title>
<path fill="none" stroke="#000000" d="M475.8604,-184.5661C467.1651,-180.0456 462.5024,-171.6912 449,-166.7 384.4904,-142.8539 367.2759,-130.7 298.5,-130.7"/>
<polygon fill="#000000" stroke="#000000" points="482.1895,-185.9689 489.221,-191.2147 486.0948,-186.8344 490,-187.7 490,-187.7 490,-187.7 486.0948,-186.8344 490.779,-184.1853 482.1895,-185.9689 482.1895,-185.9689"/>
<ellipse fill="none" stroke="#000000" cx="479.0654" cy="-185.2764" rx="3.2" ry="3.2"/>
</g>
<!-- pessoa_interessa_animal -->
<g id="node8" class="node">
<title>pessoa_interessa_animal</title>
<g id="a_node8"><a xlink:href="../../tables/pessoa_interessa_animal.html" xlink:title="pessoa_interessa_animal" target="_top">
<polygon fill="#ffffff" stroke="transparent" points="498.5,-256.2 498.5,-317.2 665.5,-317.2 665.5,-256.2 498.5,-256.2"/>
<polygon fill="#f5f5f5" stroke="transparent" points="499,-293.7 499,-316.7 666,-316.7 666,-293.7 499,-293.7"/>
<polygon fill="none" stroke="#000000" points="499,-293.7 499,-316.7 666,-316.7 666,-293.7 499,-293.7"/>
<text text-anchor="start" x="503.6515" y="-302.8" font-family="Helvetica,sans-Serif" font-weight="bold" font-size="11.00" fill="#000000">pessoa_interessa_animal</text>
<text text-anchor="start" x="631.5219" y="-301.8" font-family="Helvetica,sans-Serif" font-size="11.00" fill="#000000">[table]</text>
<polygon fill="none" stroke="#000000" points="499,-274.7 499,-293.7 666,-293.7 666,-274.7 499,-274.7"/>
<text text-anchor="start" x="502" y="-280.8" font-family="Helvetica,sans-Serif" font-size="11.00" fill="#000000">...</text>
<polygon fill="#ffffff" stroke="transparent" points="499,-255.7 499,-274.7 568,-274.7 568,-255.7 499,-255.7"/>
<polygon fill="none" stroke="#000000" points="499,-255.7 499,-274.7 568,-274.7 568,-255.7 499,-255.7"/>
<text text-anchor="start" x="502" y="-261.8" font-family="Helvetica,sans-Serif" font-size="11.00" fill="#000000">&lt; 2</text>
<polygon fill="#ffffff" stroke="transparent" points="568,-255.7 568,-274.7 630,-274.7 630,-255.7 568,-255.7"/>
<polygon fill="none" stroke="#000000" points="568,-255.7 568,-274.7 630,-274.7 630,-255.7 568,-255.7"/>
<text text-anchor="start" x="594.6105" y="-261.8" font-family="Helvetica,sans-Serif" font-size="11.00" fill="#000000">0 rows</text>
<polygon fill="#ffffff" stroke="transparent" points="630,-255.7 630,-274.7 666,-274.7 666,-255.7 630,-255.7"/>
<polygon fill="none" stroke="#000000" points="630,-255.7 630,-274.7 666,-274.7 666,-255.7 630,-255.7"/>
<text text-anchor="start" x="656.8862" y="-261.8" font-family="Helvetica,sans-Serif" font-size="11.00" fill="#000000"> &#160;</text>
</a>
</g>
</g>
<!-- pessoa_interessa_animal&#45;&gt;animal -->
<g id="edge9" class="edge">
<title>pessoa_interessa_animal:w&#45;&gt;animal:e</title>
<path fill="none" stroke="#000000" d="M484.8594,-286.481C465.2771,-295.0858 461.6578,-320.7 434,-320.7"/>
<polygon fill="#000000" stroke="#000000" points="491.1504,-285.2438 499.6947,-287.2323 495.0752,-284.4719 499,-283.7 499,-283.7 499,-283.7 495.0752,-284.4719 498.3053,-280.1677 491.1504,-285.2438 491.1504,-285.2438"/>
<ellipse fill="none" stroke="#000000" cx="488.0105" cy="-285.8614" rx="3.2" ry="3.2"/>
</g>
<!-- pessoa_interessa_animal&#45;&gt;pessoa -->
<g id="edge10" class="edge">
<title>pessoa_interessa_animal:w&#45;&gt;pessoa:e</title>
<path fill="none" stroke="#000000" d="M484.5078,-283.2808C441.6454,-281.0834 363.0973,-270.1683 339,-248.7 297.5995,-211.8162 353.9475,-130.7 298.5,-130.7"/>
<polygon fill="#000000" stroke="#000000" points="491.0033,-283.4686 498.8959,-287.2985 495.0017,-283.5843 499,-283.7 499,-283.7 499,-283.7 495.0017,-283.5843 499.1041,-280.1015 491.0033,-283.4686 491.0033,-283.4686"/>
<ellipse fill="none" stroke="#000000" cx="487.8047" cy="-283.3761" rx="3.2" ry="3.2"/>
</g>
</g>
</svg>
