<?xml version="1.0" encoding="UTF-8" standalone="no"?>
<!DOCTYPE svg PUBLIC "-//W3C//DTD SVG 1.1//EN"
 "http://www.w3.org/Graphics/SVG/1.1/DTD/svg11.dtd">
<!-- Generated by graphviz version 2.40.1 (20161225.0304)
 -->
<!-- Title: twoDegreesRelationshipsDiagram Pages: 1 -->
<svg width="771pt" height="354pt"
 viewBox="0.00 0.00 771.00 353.70" xmlns="http://www.w3.org/2000/svg" xmlns:xlink="http://www.w3.org/1999/xlink">
<g id="graph0" class="graph" transform="scale(1 1) rotate(0) translate(4 349.7)">
<title>twoDegreesRelationshipsDiagram</title>
<polygon fill="#ffffff" stroke="transparent" points="-4,4 -4,-349.7 767,-349.7 767,4 -4,4"/>
<text text-anchor="middle" x="72.4936" y="-7.3" font-family="Helvetica,sans-Serif" font-size="11.00" fill="#000000">Generated by SchemaSpy</text>
<!-- arquivo_campanha -->
<g id="node1" class="node">
<title>arquivo_campanha</title>
<g id="a_node1"><a xlink:href="../../tables/arquivo_campanha.html" xlink:title="arquivo_campanha" target="_top">
<polygon fill="#ffffff" stroke="transparent" points="562.5,-198.7 562.5,-259.7 698.5,-259.7 698.5,-198.7 562.5,-198.7"/>
<polygon fill="#f5f5f5" stroke="transparent" points="562.5,-236.2 562.5,-259.2 698.5,-259.2 698.5,-236.2 562.5,-236.2"/>
<polygon fill="none" stroke="#000000" points="562.5,-236.2 562.5,-259.2 698.5,-259.2 698.5,-236.2 562.5,-236.2"/>
<text text-anchor="start" x="567.2357" y="-245.3" font-family="Helvetica,sans-Serif" font-weight="bold" font-size="11.00" fill="#000000">arquivo_campanha</text>
<text text-anchor="start" x="664.0219" y="-244.3" font-family="Helvetica,sans-Serif" font-size="11.00" fill="#000000">[table]</text>
<polygon fill="none" stroke="#000000" points="562.5,-217.2 562.5,-236.2 698.5,-236.2 698.5,-217.2 562.5,-217.2"/>
<text text-anchor="start" x="565.5" y="-223.3" font-family="Helvetica,sans-Serif" font-size="11.00" fill="#000000">...</text>
<polygon fill="#ffffff" stroke="transparent" points="562.5,-198.2 562.5,-217.2 615.5,-217.2 615.5,-198.2 562.5,-198.2"/>
<polygon fill="none" stroke="#000000" points="562.5,-198.2 562.5,-217.2 615.5,-217.2 615.5,-198.2 562.5,-198.2"/>
<text text-anchor="start" x="565.5" y="-204.3" font-family="Helvetica,sans-Serif" font-size="11.00" fill="#000000">&lt; 1</text>
<polygon fill="#ffffff" stroke="transparent" points="615.5,-198.2 615.5,-217.2 669.5,-217.2 669.5,-198.2 615.5,-198.2"/>
<polygon fill="none" stroke="#000000" points="615.5,-198.2 615.5,-217.2 669.5,-217.2 669.5,-198.2 615.5,-198.2"/>
<text text-anchor="start" x="634.1105" y="-204.3" font-family="Helvetica,sans-Serif" font-size="11.00" fill="#000000">0 rows</text>
<polygon fill="#ffffff" stroke="transparent" points="669.5,-198.2 669.5,-217.2 698.5,-217.2 698.5,-198.2 669.5,-198.2"/>
<polygon fill="none" stroke="#000000" points="669.5,-198.2 669.5,-217.2 698.5,-217.2 698.5,-198.2 669.5,-198.2"/>
<text text-anchor="start" x="689.3862" y="-204.3" font-family="Helvetica,sans-Serif" font-size="11.00" fill="#000000"> &#160;</text>
</a>
</g>
</g>
<!-- campanha -->
<g id="node2" class="node">
<title>campanha</title>
<g id="a_node2"><a xlink:href="../../tables/campanha.html" xlink:title="campanha" target="_top">
<polygon fill="#ffffff" stroke="transparent" points="324.5,-196.7 324.5,-301.7 422.5,-301.7 422.5,-196.7 324.5,-196.7"/>
<polygon fill="#f5f5f5" stroke="transparent" points="324.5,-278.2 324.5,-301.2 422.5,-301.2 422.5,-278.2 324.5,-278.2"/>
<polygon fill="none" stroke="#000000" points="324.5,-278.2 324.5,-301.2 422.5,-301.2 422.5,-278.2 324.5,-278.2"/>
<text text-anchor="start" x="329.5" y="-287.3" font-family="Helvetica,sans-Serif" font-weight="bold" font-size="11.00" fill="#000000">campanha</text>
<text text-anchor="start" x="387.5437" y="-286.3" font-family="Helvetica,sans-Serif" font-size="11.00" fill="#000000">[table]</text>
<polygon fill="none" stroke="#000000" points="324.5,-256.2 324.5,-278.2 422.5,-278.2 422.5,-256.2 324.5,-256.2"/>
<image xlink:href="../../images/primaryKeys.png" width="11px" height="12px" preserveAspectRatio="xMinYMin meet" x="329.5" y="-273.2"/>
<text text-anchor="start" x="344.5" y="-263.3" font-family="Helvetica,sans-Serif" font-size="11.00" fill="#000000">id</text>
<polygon fill="none" stroke="#000000" points="324.5,-234.2 324.5,-256.2 422.5,-256.2 422.5,-234.2 324.5,-234.2"/>
<image xlink:href="../../images/foreignKeys.png" width="11px" height="12px" preserveAspectRatio="xMinYMin meet" x="329.5" y="-251.2"/>
<text text-anchor="start" x="344.5" y="-241.3" font-family="Helvetica,sans-Serif" font-size="11.00" fill="#000000">instituicao_id</text>
<polygon fill="none" stroke="#000000" points="324.5,-215.2 324.5,-234.2 422.5,-234.2 422.5,-215.2 324.5,-215.2"/>
<text text-anchor="start" x="327.5" y="-221.3" font-family="Helvetica,sans-Serif" font-size="11.00" fill="#000000">...</text>
<polygon fill="#ffffff" stroke="transparent" points="324.5,-196.2 324.5,-215.2 354.5,-215.2 354.5,-196.2 324.5,-196.2"/>
<polygon fill="none" stroke="#000000" points="324.5,-196.2 324.5,-215.2 354.5,-215.2 354.5,-196.2 324.5,-196.2"/>
<text text-anchor="start" x="327.5" y="-202.3" font-family="Helvetica,sans-Serif" font-size="11.00" fill="#000000">&lt; 1</text>
<polygon fill="#ffffff" stroke="transparent" points="354.5,-196.2 354.5,-215.2 396.5,-215.2 396.5,-196.2 354.5,-196.2"/>
<polygon fill="none" stroke="#000000" points="354.5,-196.2 354.5,-215.2 396.5,-215.2 396.5,-196.2 354.5,-196.2"/>
<text text-anchor="start" x="361.1105" y="-202.3" font-family="Helvetica,sans-Serif" font-size="11.00" fill="#000000">0 rows</text>
<polygon fill="#ffffff" stroke="transparent" points="396.5,-196.2 396.5,-215.2 422.5,-215.2 422.5,-196.2 396.5,-196.2"/>
<polygon fill="none" stroke="#000000" points="396.5,-196.2 396.5,-215.2 422.5,-215.2 422.5,-196.2 396.5,-196.2"/>
<text text-anchor="start" x="403.9053" y="-202.3" font-family="Helvetica,sans-Serif" font-size="11.00" fill="#000000">3 &gt;</text>
</a>
</g>
</g>
<!-- arquivo_campanha&#45;&gt;campanha -->
<g id="edge1" class="edge">
<title>arquivo_campanha:w&#45;&gt;campanha:e</title>
<path fill="none" stroke="#000000" d="M547.9169,-226.9466C495.6607,-232.5035 482.1437,-267.2 422.5,-267.2"/>
<polygon fill="#000000" stroke="#000000" points="554.5105,-226.6091 562.6841,-229.7953 558.5052,-226.4046 562.5,-226.2 562.5,-226.2 562.5,-226.2 558.5052,-226.4046 562.3159,-222.6047 554.5105,-226.6091 554.5105,-226.6091"/>
<ellipse fill="none" stroke="#000000" cx="551.3147" cy="-226.7727" rx="3.2" ry="3.2"/>
</g>
<!-- instituicao -->
<g id="node3" class="node">
<title>instituicao</title>
<g id="a_node3"><a xlink:href="../../tables/instituicao.html" xlink:title="instituicao" target="_top">
<polygon fill="#ffffff" stroke="transparent" points="148,-197.7 148,-258.7 239,-258.7 239,-197.7 148,-197.7"/>
<polygon fill="#f5f5f5" stroke="transparent" points="148.5,-235.2 148.5,-258.2 239.5,-258.2 239.5,-235.2 148.5,-235.2"/>
<polygon fill="none" stroke="#000000" points="148.5,-235.2 148.5,-258.2 239.5,-258.2 239.5,-235.2 148.5,-235.2"/>
<text text-anchor="start" x="153.052" y="-244.3" font-family="Helvetica,sans-Serif" font-weight="bold" font-size="11.00" fill="#000000">instituicao</text>
<text text-anchor="start" x="205.0219" y="-243.3" font-family="Helvetica,sans-Serif" font-size="11.00" fill="#000000">[table]</text>
<polygon fill="none" stroke="#000000" points="148.5,-216.2 148.5,-235.2 239.5,-235.2 239.5,-216.2 148.5,-216.2"/>
<text text-anchor="start" x="151.5" y="-222.3" font-family="Helvetica,sans-Serif" font-size="11.00" fill="#000000">...</text>
<polygon fill="#ffffff" stroke="transparent" points="148.5,-197.2 148.5,-216.2 174.5,-216.2 174.5,-197.2 148.5,-197.2"/>
<polygon fill="none" stroke="#000000" points="148.5,-197.2 148.5,-216.2 174.5,-216.2 174.5,-197.2 148.5,-197.2"/>
<text text-anchor="start" x="151.5" y="-203.3" font-family="Helvetica,sans-Serif" font-size="11.00" fill="#000000">&lt; 2</text>
<polygon fill="#ffffff" stroke="transparent" points="174.5,-197.2 174.5,-216.2 215.5,-216.2 215.5,-197.2 174.5,-197.2"/>
<polygon fill="none" stroke="#000000" points="174.5,-197.2 174.5,-216.2 215.5,-216.2 215.5,-197.2 174.5,-197.2"/>
<text text-anchor="start" x="180.1105" y="-203.3" font-family="Helvetica,sans-Serif" font-size="11.00" fill="#000000">0 rows</text>
<polygon fill="#ffffff" stroke="transparent" points="215.5,-197.2 215.5,-216.2 239.5,-216.2 239.5,-197.2 215.5,-197.2"/>
<polygon fill="none" stroke="#000000" points="215.5,-197.2 215.5,-216.2 239.5,-216.2 239.5,-197.2 215.5,-197.2"/>
<text text-anchor="start" x="220.9053" y="-203.3" font-family="Helvetica,sans-Serif" font-size="11.00" fill="#000000">2 &gt;</text>
</a>
</g>
</g>
<!-- campanha&#45;&gt;instituicao -->
<g id="edge2" class="edge">
<title>campanha:w&#45;&gt;instituicao:e</title>
<path fill="none" stroke="#000000" d="M309.817,-244.1247C282.9931,-239.9705 272.8519,-225.2 239.5,-225.2"/>
<polygon fill="#000000" stroke="#000000" points="316.5214,-244.6156 324.237,-248.7904 320.5107,-244.9078 324.5,-245.2 324.5,-245.2 324.5,-245.2 320.5107,-244.9078 324.763,-241.6096 316.5214,-244.6156 316.5214,-244.6156"/>
<ellipse fill="none" stroke="#000000" cx="313.3299" cy="-244.3819" rx="3.2" ry="3.2"/>
</g>
<!-- municipio -->
<g id="node5" class="node">
<title>municipio</title>
<g id="a_node5"><a xlink:href="../../tables/municipio.html" xlink:title="municipio" target="_top">
<polygon fill="#ffffff" stroke="transparent" points="8,-92.7 8,-153.7 97,-153.7 97,-92.7 8,-92.7"/>
<polygon fill="#f5f5f5" stroke="transparent" points="8.5,-130.2 8.5,-153.2 97.5,-153.2 97.5,-130.2 8.5,-130.2"/>
<polygon fill="none" stroke="#000000" points="8.5,-130.2 8.5,-153.2 97.5,-153.2 97.5,-130.2 8.5,-130.2"/>
<text text-anchor="start" x="13.2779" y="-139.3" font-family="Helvetica,sans-Serif" font-weight="bold" font-size="11.00" fill="#000000">municipio</text>
<text text-anchor="start" x="63.0219" y="-138.3" font-family="Helvetica,sans-Serif" font-size="11.00" fill="#000000">[table]</text>
<polygon fill="none" stroke="#000000" points="8.5,-111.2 8.5,-130.2 97.5,-130.2 97.5,-111.2 8.5,-111.2"/>
<text text-anchor="start" x="11.5" y="-117.3" font-family="Helvetica,sans-Serif" font-size="11.00" fill="#000000">...</text>
<polygon fill="#ffffff" stroke="transparent" points="8.5,-92.2 8.5,-111.2 29.5,-111.2 29.5,-92.2 8.5,-92.2"/>
<polygon fill="none" stroke="#000000" points="8.5,-92.2 8.5,-111.2 29.5,-111.2 29.5,-92.2 8.5,-92.2"/>
<text text-anchor="start" x="11.5" y="-98.3" font-family="Helvetica,sans-Serif" font-size="11.00" fill="#000000"> &#160;</text>
<polygon fill="#ffffff" stroke="transparent" points="29.5,-92.2 29.5,-111.2 71.5,-111.2 71.5,-92.2 29.5,-92.2"/>
<polygon fill="none" stroke="#000000" points="29.5,-92.2 29.5,-111.2 71.5,-111.2 71.5,-92.2 29.5,-92.2"/>
<text text-anchor="start" x="36.1105" y="-98.3" font-family="Helvetica,sans-Serif" font-size="11.00" fill="#000000">0 rows</text>
<polygon fill="#ffffff" stroke="transparent" points="71.5,-92.2 71.5,-111.2 97.5,-111.2 97.5,-92.2 71.5,-92.2"/>
<polygon fill="none" stroke="#000000" points="71.5,-92.2 71.5,-111.2 97.5,-111.2 97.5,-92.2 71.5,-92.2"/>
<text text-anchor="start" x="78.9053" y="-98.3" font-family="Helvetica,sans-Serif" font-size="11.00" fill="#000000">2 &gt;</text>
</a>
</g>
</g>
<!-- instituicao&#45;&gt;municipio -->
<g id="edge4" class="edge">
<title>instituicao:w&#45;&gt;municipio:e</title>
<path fill="none" stroke="#000000" d="M134.5931,-221.463C107.2305,-202.7584 143.5031,-120.2 97.5,-120.2"/>
<polygon fill="#000000" stroke="#000000" points="140.7741,-223.1239 147.5657,-228.6767 144.637,-224.1619 148.5,-225.2 148.5,-225.2 148.5,-225.2 144.637,-224.1619 149.4343,-221.7233 140.7741,-223.1239 140.7741,-223.1239"/>
<ellipse fill="none" stroke="#000000" cx="137.6837" cy="-222.2934" rx="3.2" ry="3.2"/>
</g>
<!-- usuario -->
<g id="node6" class="node">
<title>usuario</title>
<g id="a_node6"><a xlink:href="../../tables/usuario.html" xlink:title="usuario" target="_top">
<polygon fill="#ffffff" stroke="transparent" points="13,-185.7 13,-246.7 92,-246.7 92,-185.7 13,-185.7"/>
<polygon fill="#f5f5f5" stroke="transparent" points="13.5,-223.2 13.5,-246.2 92.5,-246.2 92.5,-223.2 13.5,-223.2"/>
<polygon fill="none" stroke="#000000" points="13.5,-223.2 13.5,-246.2 92.5,-246.2 92.5,-223.2 13.5,-223.2"/>
<text text-anchor="start" x="18.4688" y="-232.3" font-family="Helvetica,sans-Serif" font-weight="bold" font-size="11.00" fill="#000000">usuario</text>
<text text-anchor="start" x="58.0219" y="-231.3" font-family="Helvetica,sans-Serif" font-size="11.00" fill="#000000">[table]</text>
<polygon fill="none" stroke="#000000" points="13.5,-204.2 13.5,-223.2 92.5,-223.2 92.5,-204.2 13.5,-204.2"/>
<text text-anchor="start" x="16.5" y="-210.3" font-family="Helvetica,sans-Serif" font-size="11.00" fill="#000000">...</text>
<polygon fill="#ffffff" stroke="transparent" points="13.5,-185.2 13.5,-204.2 29.5,-204.2 29.5,-185.2 13.5,-185.2"/>
<polygon fill="none" stroke="#000000" points="13.5,-185.2 13.5,-204.2 29.5,-204.2 29.5,-185.2 13.5,-185.2"/>
<text text-anchor="start" x="16.5" y="-191.3" font-family="Helvetica,sans-Serif" font-size="11.00" fill="#000000"> &#160;</text>
<polygon fill="#ffffff" stroke="transparent" points="29.5,-185.2 29.5,-204.2 69.5,-204.2 69.5,-185.2 29.5,-185.2"/>
<polygon fill="none" stroke="#000000" points="29.5,-185.2 29.5,-204.2 69.5,-204.2 69.5,-185.2 29.5,-185.2"/>
<text text-anchor="start" x="34.1105" y="-191.3" font-family="Helvetica,sans-Serif" font-size="11.00" fill="#000000">0 rows</text>
<polygon fill="#ffffff" stroke="transparent" points="69.5,-185.2 69.5,-204.2 92.5,-204.2 92.5,-185.2 69.5,-185.2"/>
<polygon fill="none" stroke="#000000" points="69.5,-185.2 69.5,-204.2 92.5,-204.2 92.5,-185.2 69.5,-185.2"/>
<text text-anchor="start" x="73.9053" y="-191.3" font-family="Helvetica,sans-Serif" font-size="11.00" fill="#000000">2 &gt;</text>
</a>
</g>
</g>
<!-- instituicao&#45;&gt;usuario -->
<g id="edge5" class="edge">
<title>instituicao:w&#45;&gt;usuario:e</title>
<path fill="none" stroke="#000000" d="M137.9045,-224.4126C120.9577,-221.743 113.9767,-213.2 92.5,-213.2"/>
<polygon fill="#000000" stroke="#000000" points="147.9987,-221.1517 147.4057,-229.1297 145.8101,-229.0111 146.4031,-221.0331 147.9987,-221.1517"/>
<polyline fill="none" stroke="#000000" points="148.5,-225.2 144.511,-224.9035 "/>
<ellipse fill="none" stroke="#000000" cx="141.3198" cy="-224.6664" rx="3.2" ry="3.2"/>
</g>
<!-- formulario -->
<g id="node4" class="node">
<title>formulario</title>
<g id="a_node4"><a xlink:href="../../tables/formulario.html" xlink:title="formulario" target="_top">
<polygon fill="#ffffff" stroke="transparent" points="585,-280.7 585,-341.7 676,-341.7 676,-280.7 585,-280.7"/>
<polygon fill="#f5f5f5" stroke="transparent" points="585.5,-318.2 585.5,-341.2 676.5,-341.2 676.5,-318.2 585.5,-318.2"/>
<polygon fill="none" stroke="#000000" points="585.5,-318.2 585.5,-341.2 676.5,-341.2 676.5,-318.2 585.5,-318.2"/>
<text text-anchor="start" x="590.058" y="-327.3" font-family="Helvetica,sans-Serif" font-weight="bold" font-size="11.00" fill="#000000">formulario</text>
<text text-anchor="start" x="642.0219" y="-326.3" font-family="Helvetica,sans-Serif" font-size="11.00" fill="#000000">[table]</text>
<polygon fill="none" stroke="#000000" points="585.5,-299.2 585.5,-318.2 676.5,-318.2 676.5,-299.2 585.5,-299.2"/>
<text text-anchor="start" x="588.5" y="-305.3" font-family="Helvetica,sans-Serif" font-size="11.00" fill="#000000">...</text>
<polygon fill="#ffffff" stroke="transparent" points="585.5,-280.2 585.5,-299.2 616.5,-299.2 616.5,-280.2 585.5,-280.2"/>
<polygon fill="none" stroke="#000000" points="585.5,-280.2 585.5,-299.2 616.5,-299.2 616.5,-280.2 585.5,-280.2"/>
<text text-anchor="start" x="588.5" y="-286.3" font-family="Helvetica,sans-Serif" font-size="11.00" fill="#000000">&lt; 1</text>
<polygon fill="#ffffff" stroke="transparent" points="616.5,-280.2 616.5,-299.2 659.5,-299.2 659.5,-280.2 616.5,-280.2"/>
<polygon fill="none" stroke="#000000" points="616.5,-280.2 616.5,-299.2 659.5,-299.2 659.5,-280.2 616.5,-280.2"/>
<text text-anchor="start" x="624.1105" y="-286.3" font-family="Helvetica,sans-Serif" font-size="11.00" fill="#000000">0 rows</text>
<polygon fill="#ffffff" stroke="transparent" points="659.5,-280.2 659.5,-299.2 676.5,-299.2 676.5,-280.2 659.5,-280.2"/>
<polygon fill="none" stroke="#000000" points="659.5,-280.2 659.5,-299.2 676.5,-299.2 676.5,-280.2 659.5,-280.2"/>
<text text-anchor="start" x="667.3862" y="-286.3" font-family="Helvetica,sans-Serif" font-size="11.00" fill="#000000"> &#160;</text>
</a>
</g>
</g>
<!-- formulario&#45;&gt;campanha -->
<g id="edge3" class="edge">
<title>formulario:w&#45;&gt;campanha:e</title>
<path fill="none" stroke="#000000" d="M570.998,-307.6514C508.6543,-302.7861 492.0945,-267.2 422.5,-267.2"/>
<polygon fill="#000000" stroke="#000000" points="577.5057,-307.8975 585.3639,-311.7974 581.5029,-308.0488 585.5,-308.2 585.5,-308.2 585.5,-308.2 581.5029,-308.0488 585.6361,-304.6026 577.5057,-307.8975 577.5057,-307.8975"/>
<ellipse fill="none" stroke="#000000" cx="574.308" cy="-307.7766" rx="3.2" ry="3.2"/>
</g>
<!-- pessoa -->
<g id="node7" class="node">
<title>pessoa</title>
<g id="a_node7"><a xlink:href="../../tables/pessoa.html" xlink:title="pessoa" target="_top">
<polygon fill="#ffffff" stroke="transparent" points="146,-49.7 146,-176.7 241,-176.7 241,-49.7 146,-49.7"/>
<polygon fill="#f5f5f5" stroke="transparent" points="146.5,-153.2 146.5,-176.2 241.5,-176.2 241.5,-153.2 146.5,-153.2"/>
<polygon fill="none" stroke="#000000" points="146.5,-153.2 146.5,-176.2 241.5,-176.2 241.5,-153.2 146.5,-153.2"/>
<text text-anchor="start" x="151.5" y="-162.3" font-family="Helvetica,sans-Serif" font-weight="bold" font-size="11.00" fill="#000000">pessoa</text>
<text text-anchor="start" x="206.5437" y="-161.3" font-family="Helvetica,sans-Serif" font-size="11.00" fill="#000000">[table]</text>
<polygon fill="none" stroke="#000000" points="146.5,-131.2 146.5,-153.2 241.5,-153.2 241.5,-131.2 146.5,-131.2"/>
<image xlink:href="../../images/primaryKeys.png" width="11px" height="12px" preserveAspectRatio="xMinYMin meet" x="151.5" y="-148.2"/>
<text text-anchor="start" x="166.5" y="-138.3" font-family="Helvetica,sans-Serif" font-size="11.00" fill="#000000">usuario_id</text>
<polygon fill="#ffffff" stroke="transparent" points="146.5,-109.2 146.5,-131.2 241.5,-131.2 241.5,-109.2 146.5,-109.2"/>
<polygon fill="none" stroke="#000000" points="146.5,-109.2 146.5,-131.2 241.5,-131.2 241.5,-109.2 146.5,-109.2"/>
<text text-anchor="start" x="166.5" y="-116.3" font-family="Helvetica,sans-Serif" font-size="11.00" fill="#000000">telefone</text>
<polygon fill="none" stroke="#000000" points="146.5,-87.2 146.5,-109.2 241.5,-109.2 241.5,-87.2 146.5,-87.2"/>
<image xlink:href="../../images/foreignKeys.png" width="11px" height="12px" preserveAspectRatio="xMinYMin meet" x="151.5" y="-104.2"/>
<text text-anchor="start" x="166.5" y="-94.3" font-family="Helvetica,sans-Serif" font-size="11.00" fill="#000000">municipio_id</text>
<polygon fill="none" stroke="#000000" points="146.5,-68.2 146.5,-87.2 241.5,-87.2 241.5,-68.2 146.5,-68.2"/>
<text text-anchor="start" x="149.5" y="-74.3" font-family="Helvetica,sans-Serif" font-size="11.00" fill="#000000">...</text>
<polygon fill="#ffffff" stroke="transparent" points="146.5,-49.2 146.5,-68.2 174.5,-68.2 174.5,-49.2 146.5,-49.2"/>
<polygon fill="none" stroke="#000000" points="146.5,-49.2 146.5,-68.2 174.5,-68.2 174.5,-49.2 146.5,-49.2"/>
<text text-anchor="start" x="149.5" y="-55.3" font-family="Helvetica,sans-Serif" font-size="11.00" fill="#000000">&lt; 2</text>
<polygon fill="#ffffff" stroke="transparent" points="174.5,-49.2 174.5,-68.2 216.5,-68.2 216.5,-49.2 174.5,-49.2"/>
<polygon fill="none" stroke="#000000" points="174.5,-49.2 174.5,-68.2 216.5,-68.2 216.5,-49.2 174.5,-49.2"/>
<text text-anchor="start" x="181.1105" y="-55.3" font-family="Helvetica,sans-Serif" font-size="11.00" fill="#000000">0 rows</text>
<polygon fill="#ffffff" stroke="transparent" points="216.5,-49.2 216.5,-68.2 241.5,-68.2 241.5,-49.2 216.5,-49.2"/>
<polygon fill="none" stroke="#000000" points="216.5,-49.2 216.5,-68.2 241.5,-68.2 241.5,-49.2 216.5,-49.2"/>
<text text-anchor="start" x="222.9053" y="-55.3" font-family="Helvetica,sans-Serif" font-size="11.00" fill="#000000">2 &gt;</text>
</a>
</g>
</g>
<!-- pessoa&#45;&gt;municipio -->
<g id="edge6" class="edge">
<title>pessoa:w&#45;&gt;municipio:e</title>
<path fill="none" stroke="#000000" d="M132.1297,-101.6375C120.5865,-107.825 115.4041,-120.2 97.5,-120.2"/>
<polygon fill="#000000" stroke="#000000" points="138.7195,-100.0612 147.3375,-101.7012 142.6098,-99.1306 146.5,-98.2 146.5,-98.2 146.5,-98.2 142.6098,-99.1306 145.6625,-94.6988 138.7195,-100.0612 138.7195,-100.0612"/>
<ellipse fill="none" stroke="#000000" cx="135.6073" cy="-100.8057" rx="3.2" ry="3.2"/>
</g>
<!-- pessoa&#45;&gt;usuario -->
<g id="edge7" class="edge">
<title>pessoa:w&#45;&gt;usuario:e</title>
<path fill="none" stroke="#000000" d="M136.2939,-144.2483C111.322,-155.8895 128.1189,-213.2 92.5,-213.2"/>
<polygon fill="#000000" stroke="#000000" points="144.9285,-138.4356 146.5028,-146.2792 144.934,-146.5941 143.3598,-138.7505 144.9285,-138.4356"/>
<polyline fill="none" stroke="#000000" points="146.5,-142.2 142.5782,-142.9871 "/>
<ellipse fill="none" stroke="#000000" cx="139.4408" cy="-143.6168" rx="3.2" ry="3.2"/>
</g>
<!-- pessoa_cadastra_campanha -->
<g id="node8" class="node">
<title>pessoa_cadastra_campanha</title>
<g id="a_node8"><a xlink:href="../../tables/pessoa_cadastra_campanha.html" xlink:title="pessoa_cadastra_campanha" target="_top">
<polygon fill="#ffffff" stroke="transparent" points="506,-38.2 506,-172.2 755,-172.2 755,-38.2 506,-38.2"/>
<polygon fill="#f5f5f5" stroke="transparent" points="508.5,-147.2 508.5,-170.2 753.5,-170.2 753.5,-147.2 508.5,-147.2"/>
<polygon fill="none" stroke="#000000" points="508.5,-147.2 508.5,-170.2 753.5,-170.2 753.5,-147.2 508.5,-147.2"/>
<text text-anchor="start" x="513.5" y="-156.3" font-family="Helvetica,sans-Serif" font-weight="bold" font-size="11.00" fill="#000000">pessoa_cadastra_campanha</text>
<text text-anchor="start" x="718.5437" y="-155.3" font-family="Helvetica,sans-Serif" font-size="11.00" fill="#000000">[table]</text>
<polygon fill="#ffffff" stroke="transparent" points="508.5,-125.2 508.5,-147.2 692.5,-147.2 692.5,-125.2 508.5,-125.2"/>
<polygon fill="none" stroke="#000000" points="508.5,-125.2 508.5,-147.2 692.5,-147.2 692.5,-125.2 508.5,-125.2"/>
<image xlink:href="../../images/foreignKeys.png" width="11px" height="12px" preserveAspectRatio="xMinYMin meet" x="513.5" y="-142.2"/>
<text text-anchor="start" x="528.5" y="-132.3" font-family="Helvetica,sans-Serif" font-size="11.00" fill="#000000">pessoa_id</text>
<polygon fill="none" stroke="#000000" points="692.5,-125.2 692.5,-147.2 753.5,-147.2 753.5,-125.2 692.5,-125.2"/>
<text text-anchor="start" x="695.5" y="-132.9" font-family="Helvetica,sans-Serif" font-size="11.00" fill="#000000">int4[10]</text>
<polygon fill="#ffffff" stroke="transparent" points="508.5,-103.2 508.5,-125.2 692.5,-125.2 692.5,-103.2 508.5,-103.2"/>
<polygon fill="none" stroke="#000000" points="508.5,-103.2 508.5,-125.2 692.5,-125.2 692.5,-103.2 508.5,-103.2"/>
<image xlink:href="../../images/foreignKeys.png" width="11px" height="12px" preserveAspectRatio="xMinYMin meet" x="513.5" y="-120.2"/>
<text text-anchor="start" x="528.5" y="-110.3" font-family="Helvetica,sans-Serif" font-size="11.00" fill="#000000">campanha_id</text>
<polygon fill="none" stroke="#000000" points="692.5,-103.2 692.5,-125.2 753.5,-125.2 753.5,-103.2 692.5,-103.2"/>
<text text-anchor="start" x="695.5" y="-110.9" font-family="Helvetica,sans-Serif" font-size="11.00" fill="#000000">int4[10]</text>
<polygon fill="none" stroke="#000000" points="508.5,-81.2 508.5,-103.2 692.5,-103.2 692.5,-81.2 508.5,-81.2"/>
<text text-anchor="start" x="528.5" y="-88.3" font-family="Helvetica,sans-Serif" font-size="11.00" fill="#000000">situacao</text>
<polygon fill="none" stroke="#000000" points="692.5,-81.2 692.5,-103.2 753.5,-103.2 753.5,-81.2 692.5,-81.2"/>
<text text-anchor="start" x="695.494" y="-88.9" font-family="Helvetica,sans-Serif" font-size="11.00" fill="#000000">varchar[50]</text>
<polygon fill="none" stroke="#000000" points="508.5,-59.2 508.5,-81.2 692.5,-81.2 692.5,-59.2 508.5,-59.2"/>
<text text-anchor="start" x="528.5" y="-66.3" font-family="Helvetica,sans-Serif" font-size="11.00" fill="#000000">data</text>
<polygon fill="none" stroke="#000000" points="692.5,-59.2 692.5,-81.2 753.5,-81.2 753.5,-59.2 692.5,-59.2"/>
<text text-anchor="start" x="695.5" y="-66.9" font-family="Helvetica,sans-Serif" font-size="11.00" fill="#000000">date[13]</text>
<polygon fill="#ffffff" stroke="transparent" points="508.5,-40.2 508.5,-59.2 591.5,-59.2 591.5,-40.2 508.5,-40.2"/>
<polygon fill="none" stroke="#000000" points="508.5,-40.2 508.5,-59.2 591.5,-59.2 591.5,-40.2 508.5,-40.2"/>
<text text-anchor="start" x="511.5" y="-46.3" font-family="Helvetica,sans-Serif" font-size="11.00" fill="#000000">&lt; 2</text>
<polygon fill="#ffffff" stroke="transparent" points="591.5,-40.2 591.5,-59.2 692.5,-59.2 692.5,-40.2 591.5,-40.2"/>
<polygon fill="none" stroke="#000000" points="591.5,-40.2 591.5,-59.2 692.5,-59.2 692.5,-40.2 591.5,-40.2"/>
<text text-anchor="start" x="657.1105" y="-46.3" font-family="Helvetica,sans-Serif" font-size="11.00" fill="#000000">0 rows</text>
<polygon fill="#ffffff" stroke="transparent" points="692.5,-40.2 692.5,-59.2 753.5,-59.2 753.5,-40.2 692.5,-40.2"/>
<polygon fill="none" stroke="#000000" points="692.5,-40.2 692.5,-59.2 753.5,-59.2 753.5,-40.2 692.5,-40.2"/>
<text text-anchor="start" x="734.9053" y="-46.3" font-family="Helvetica,sans-Serif" font-size="11.00" fill="#000000">0 &gt;</text>
<polygon fill="none" stroke="#000000" stroke-width="2" points="507,-39.2 507,-171.2 754,-171.2 754,-39.2 507,-39.2"/>
</a>
</g>
</g>
<!-- pessoa_cadastra_campanha&#45;&gt;campanha -->
<g id="edge8" class="edge">
<title>pessoa_cadastra_campanha:w&#45;&gt;campanha:e</title>
<path fill="none" stroke="#000000" d="M494.138,-116.3629C439.6076,-134.9592 495.0212,-267.2 422.5,-267.2"/>
<polygon fill="#000000" stroke="#000000" points="500.5892,-115.3914 509.0361,-117.7599 504.5446,-114.7957 508.5,-114.2 508.5,-114.2 508.5,-114.2 504.5446,-114.7957 507.9639,-110.6401 500.5892,-115.3914 500.5892,-115.3914"/>
<ellipse fill="none" stroke="#000000" cx="497.4249" cy="-115.8679" rx="3.2" ry="3.2"/>
</g>
<!-- pessoa_cadastra_campanha&#45;&gt;pessoa -->
<g id="edge9" class="edge">
<title>pessoa_cadastra_campanha:w&#45;&gt;pessoa:e</title>
<path fill="none" stroke="#000000" d="M494.4663,-132.0235C484.4678,-124.6911 481.925,-109.7548 465,-104.2 387.7222,-78.8376 357.6281,-74.2751 282,-104.2 259.0487,-113.2815 266.1827,-142.2 241.5,-142.2"/>
<polygon fill="#000000" stroke="#000000" points="500.8324,-133.918 507.4731,-139.6504 504.6662,-135.059 508.5,-136.2 508.5,-136.2 508.5,-136.2 504.6662,-135.059 509.5269,-132.7496 500.8324,-133.918 500.8324,-133.918"/>
<ellipse fill="none" stroke="#000000" cx="497.7653" cy="-133.0052" rx="3.2" ry="3.2"/>
</g>
<!-- pessoa_interessa_animal -->
<g id="node9" class="node">
<title>pessoa_interessa_animal</title>
<g id="a_node9"><a xlink:href="../../tables/pessoa_interessa_animal.html" xlink:title="pessoa_interessa_animal" target="_top">
<polygon fill="#ffffff" stroke="transparent" points="290,-114.7 290,-175.7 457,-175.7 457,-114.7 290,-114.7"/>
<polygon fill="#f5f5f5" stroke="transparent" points="290.5,-152.2 290.5,-175.2 457.5,-175.2 457.5,-152.2 290.5,-152.2"/>
<polygon fill="none" stroke="#000000" points="290.5,-152.2 290.5,-175.2 457.5,-175.2 457.5,-152.2 290.5,-152.2"/>
<text text-anchor="start" x="295.1515" y="-161.3" font-family="Helvetica,sans-Serif" font-weight="bold" font-size="11.00" fill="#000000">pessoa_interessa_animal</text>
<text text-anchor="start" x="423.0219" y="-160.3" font-family="Helvetica,sans-Serif" font-size="11.00" fill="#000000">[table]</text>
<polygon fill="none" stroke="#000000" points="290.5,-133.2 290.5,-152.2 457.5,-152.2 457.5,-133.2 290.5,-133.2"/>
<text text-anchor="start" x="293.5" y="-139.3" font-family="Helvetica,sans-Serif" font-size="11.00" fill="#000000">...</text>
<polygon fill="#ffffff" stroke="transparent" points="290.5,-114.2 290.5,-133.2 359.5,-133.2 359.5,-114.2 290.5,-114.2"/>
<polygon fill="none" stroke="#000000" points="290.5,-114.2 290.5,-133.2 359.5,-133.2 359.5,-114.2 290.5,-114.2"/>
<text text-anchor="start" x="293.5" y="-120.3" font-family="Helvetica,sans-Serif" font-size="11.00" fill="#000000">&lt; 2</text>
<polygon fill="#ffffff" stroke="transparent" points="359.5,-114.2 359.5,-133.2 421.5,-133.2 421.5,-114.2 359.5,-114.2"/>
<polygon fill="none" stroke="#000000" points="359.5,-114.2 359.5,-133.2 421.5,-133.2 421.5,-114.2 359.5,-114.2"/>
<text text-anchor="start" x="386.1105" y="-120.3" font-family="Helvetica,sans-Serif" font-size="11.00" fill="#000000">0 rows</text>
<polygon fill="#ffffff" stroke="transparent" points="421.5,-114.2 421.5,-133.2 457.5,-133.2 457.5,-114.2 421.5,-114.2"/>
<polygon fill="none" stroke="#000000" points="421.5,-114.2 421.5,-133.2 457.5,-133.2 457.5,-114.2 421.5,-114.2"/>
<text text-anchor="start" x="448.3862" y="-120.3" font-family="Helvetica,sans-Serif" font-size="11.00" fill="#000000"> &#160;</text>
</a>
</g>
</g>
<!-- pessoa_interessa_animal&#45;&gt;pessoa -->
<g id="edge10" class="edge">
<title>pessoa_interessa_animal:w&#45;&gt;pessoa:e</title>
<path fill="none" stroke="#000000" d="M275.9909,-142.2C264.6774,-142.2 257.4931,-142.2 241.5,-142.2"/>
<polygon fill="#000000" stroke="#000000" points="282.5,-142.2001 290.5,-145.8 286.5,-142.2 290.5,-142.2 290.5,-142.2 290.5,-142.2 286.5,-142.2 290.5,-138.6 282.5,-142.2001 282.5,-142.2001"/>
<ellipse fill="none" stroke="#000000" cx="279.3" cy="-142.2001" rx="3.2" ry="3.2"/>
</g>
</g>
</svg>
