<?xml version="1.0" encoding="UTF-8" standalone="no"?>
<!DOCTYPE svg PUBLIC "-//W3C//DTD SVG 1.1//EN"
 "http://www.w3.org/Graphics/SVG/1.1/DTD/svg11.dtd">
<!-- Generated by graphviz version 2.40.1 (20161225.0304)
 -->
<!-- Title: twoDegreesRelationshipsDiagram Pages: 1 -->
<svg width="704pt" height="350pt"
 viewBox="0.00 0.00 704.00 349.70" xmlns="http://www.w3.org/2000/svg" xmlns:xlink="http://www.w3.org/1999/xlink">
<g id="graph0" class="graph" transform="scale(1 1) rotate(0) translate(4 345.7)">
<title>twoDegreesRelationshipsDiagram</title>
<polygon fill="#ffffff" stroke="transparent" points="-4,4 -4,-345.7 700,-345.7 700,4 -4,4"/>
<text text-anchor="middle" x="72.4936" y="-7.3" font-family="Helvetica,sans-Serif" font-size="11.00" fill="#000000">Generated by SchemaSpy</text>
<!-- animal -->
<g id="node1" class="node">
<title>animal</title>
<g id="a_node1"><a xlink:href="../../tables/animal.html" xlink:title="animal" target="_top">
<polygon fill="#ffffff" stroke="transparent" points="368,-194.7 368,-255.7 448,-255.7 448,-194.7 368,-194.7"/>
<polygon fill="#f5f5f5" stroke="transparent" points="368,-232.2 368,-255.2 448,-255.2 448,-232.2 368,-232.2"/>
<polygon fill="none" stroke="#000000" points="368,-232.2 368,-255.2 448,-255.2 448,-232.2 368,-232.2"/>
<text text-anchor="start" x="373" y="-241.3" font-family="Helvetica,sans-Serif" font-weight="bold" font-size="11.00" fill="#000000">animal</text>
<text text-anchor="start" x="413.0437" y="-240.3" font-family="Helvetica,sans-Serif" font-size="11.00" fill="#000000">[table]</text>
<polygon fill="none" stroke="#000000" points="368,-213.2 368,-232.2 448,-232.2 448,-213.2 368,-213.2"/>
<text text-anchor="start" x="371" y="-219.3" font-family="Helvetica,sans-Serif" font-size="11.00" fill="#000000">...</text>
<polygon fill="#ffffff" stroke="transparent" points="368,-194.2 368,-213.2 389,-213.2 389,-194.2 368,-194.2"/>
<polygon fill="none" stroke="#000000" points="368,-194.2 368,-213.2 389,-213.2 389,-194.2 368,-194.2"/>
<text text-anchor="start" x="370.7027" y="-200.3" font-family="Helvetica,sans-Serif" font-size="11.00" fill="#000000">&lt; 1</text>
<polygon fill="#ffffff" stroke="transparent" points="389,-194.2 389,-213.2 427,-213.2 427,-194.2 389,-194.2"/>
<polygon fill="none" stroke="#000000" points="389,-194.2 389,-213.2 427,-213.2 427,-194.2 389,-194.2"/>
<text text-anchor="start" x="391.8053" y="-200.3" font-family="Helvetica,sans-Serif" font-size="11.00" fill="#000000">0 rows</text>
<polygon fill="#ffffff" stroke="transparent" points="427,-194.2 427,-213.2 448,-213.2 448,-194.2 427,-194.2"/>
<polygon fill="none" stroke="#000000" points="427,-194.2 427,-213.2 448,-213.2 448,-194.2 427,-194.2"/>
<text text-anchor="start" x="429.7027" y="-200.3" font-family="Helvetica,sans-Serif" font-size="11.00" fill="#000000">2 &gt;</text>
</a>
</g>
</g>
<!-- instituicao -->
<g id="node2" class="node">
<title>instituicao</title>
<g id="a_node2"><a xlink:href="../../tables/instituicao.html" xlink:title="instituicao" target="_top">
<polygon fill="#ffffff" stroke="transparent" points="183.5,-60.7 183.5,-121.7 274.5,-121.7 274.5,-60.7 183.5,-60.7"/>
<polygon fill="#f5f5f5" stroke="transparent" points="184,-98.2 184,-121.2 275,-121.2 275,-98.2 184,-98.2"/>
<polygon fill="none" stroke="#000000" points="184,-98.2 184,-121.2 275,-121.2 275,-98.2 184,-98.2"/>
<text text-anchor="start" x="188.552" y="-107.3" font-family="Helvetica,sans-Serif" font-weight="bold" font-size="11.00" fill="#000000">instituicao</text>
<text text-anchor="start" x="240.5219" y="-106.3" font-family="Helvetica,sans-Serif" font-size="11.00" fill="#000000">[table]</text>
<polygon fill="none" stroke="#000000" points="184,-79.2 184,-98.2 275,-98.2 275,-79.2 184,-79.2"/>
<text text-anchor="start" x="187" y="-85.3" font-family="Helvetica,sans-Serif" font-size="11.00" fill="#000000">...</text>
<polygon fill="#ffffff" stroke="transparent" points="184,-60.2 184,-79.2 210,-79.2 210,-60.2 184,-60.2"/>
<polygon fill="none" stroke="#000000" points="184,-60.2 184,-79.2 210,-79.2 210,-60.2 184,-60.2"/>
<text text-anchor="start" x="187" y="-66.3" font-family="Helvetica,sans-Serif" font-size="11.00" fill="#000000">&lt; 2</text>
<polygon fill="#ffffff" stroke="transparent" points="210,-60.2 210,-79.2 251,-79.2 251,-60.2 210,-60.2"/>
<polygon fill="none" stroke="#000000" points="210,-60.2 210,-79.2 251,-79.2 251,-60.2 210,-60.2"/>
<text text-anchor="start" x="215.6105" y="-66.3" font-family="Helvetica,sans-Serif" font-size="11.00" fill="#000000">0 rows</text>
<polygon fill="#ffffff" stroke="transparent" points="251,-60.2 251,-79.2 275,-79.2 275,-60.2 251,-60.2"/>
<polygon fill="none" stroke="#000000" points="251,-60.2 251,-79.2 275,-79.2 275,-60.2 251,-60.2"/>
<text text-anchor="start" x="256.4053" y="-66.3" font-family="Helvetica,sans-Serif" font-size="11.00" fill="#000000">2 &gt;</text>
</a>
</g>
</g>
<!-- animal&#45;&gt;instituicao -->
<g id="edge1" class="edge">
<title>animal:w&#45;&gt;instituicao:e</title>
<path fill="none" stroke="#000000" d="M353.6908,-219.6741C328.1303,-208.6384 343.6873,-163.7965 320,-132.2 303.2215,-109.8191 302.9718,-88.2 275,-88.2"/>
<polygon fill="#000000" stroke="#000000" points="360.1218,-220.8093 367.3742,-225.7452 364.0609,-221.5046 368,-222.2 368,-222.2 368,-222.2 364.0609,-221.5046 368.6258,-218.6548 360.1218,-220.8093 360.1218,-220.8093"/>
<ellipse fill="none" stroke="#000000" cx="356.9705" cy="-220.253" rx="3.2" ry="3.2"/>
</g>
<!-- municipio -->
<g id="node4" class="node">
<title>municipio</title>
<g id="a_node4"><a xlink:href="../../tables/municipio.html" xlink:title="municipio" target="_top">
<polygon fill="#ffffff" stroke="transparent" points="8,-38.2 8,-146.2 97,-146.2 97,-38.2 8,-38.2"/>
<polygon fill="#f5f5f5" stroke="transparent" points="8.5,-123.2 8.5,-146.2 97.5,-146.2 97.5,-123.2 8.5,-123.2"/>
<polygon fill="none" stroke="#000000" points="8.5,-123.2 8.5,-146.2 97.5,-146.2 97.5,-123.2 8.5,-123.2"/>
<text text-anchor="start" x="13.2779" y="-132.3" font-family="Helvetica,sans-Serif" font-weight="bold" font-size="11.00" fill="#000000">municipio</text>
<text text-anchor="start" x="63.0219" y="-131.3" font-family="Helvetica,sans-Serif" font-size="11.00" fill="#000000">[table]</text>
<polygon fill="none" stroke="#000000" points="8.5,-101.2 8.5,-123.2 97.5,-123.2 97.5,-101.2 8.5,-101.2"/>
<image xlink:href="../../images/primaryKeys.png" width="11px" height="12px" preserveAspectRatio="xMinYMin meet" x="13.5" y="-118.2"/>
<text text-anchor="start" x="34.5" y="-108.3" font-family="Helvetica,sans-Serif" font-size="11.00" fill="#000000">id</text>
<polygon fill="#ffffff" stroke="transparent" points="8.5,-79.2 8.5,-101.2 97.5,-101.2 97.5,-79.2 8.5,-79.2"/>
<polygon fill="none" stroke="#000000" points="8.5,-79.2 8.5,-101.2 97.5,-101.2 97.5,-79.2 8.5,-79.2"/>
<text text-anchor="start" x="34.5" y="-86.3" font-family="Helvetica,sans-Serif" font-size="11.00" fill="#000000">uf</text>
<polygon fill="#ffffff" stroke="transparent" points="8.5,-57.2 8.5,-79.2 97.5,-79.2 97.5,-57.2 8.5,-57.2"/>
<polygon fill="none" stroke="#000000" points="8.5,-57.2 8.5,-79.2 97.5,-79.2 97.5,-57.2 8.5,-57.2"/>
<text text-anchor="start" x="34.5" y="-64.3" font-family="Helvetica,sans-Serif" font-size="11.00" fill="#000000">nome</text>
<polygon fill="#ffffff" stroke="transparent" points="8.5,-38.2 8.5,-57.2 29.5,-57.2 29.5,-38.2 8.5,-38.2"/>
<polygon fill="none" stroke="#000000" points="8.5,-38.2 8.5,-57.2 29.5,-57.2 29.5,-38.2 8.5,-38.2"/>
<text text-anchor="start" x="11.5" y="-44.3" font-family="Helvetica,sans-Serif" font-size="11.00" fill="#000000"> &#160;</text>
<polygon fill="#ffffff" stroke="transparent" points="29.5,-38.2 29.5,-57.2 71.5,-57.2 71.5,-38.2 29.5,-38.2"/>
<polygon fill="none" stroke="#000000" points="29.5,-38.2 29.5,-57.2 71.5,-57.2 71.5,-38.2 29.5,-38.2"/>
<text text-anchor="start" x="36.1105" y="-44.3" font-family="Helvetica,sans-Serif" font-size="11.00" fill="#000000">0 rows</text>
<polygon fill="#ffffff" stroke="transparent" points="71.5,-38.2 71.5,-57.2 97.5,-57.2 97.5,-38.2 71.5,-38.2"/>
<polygon fill="none" stroke="#000000" points="71.5,-38.2 71.5,-57.2 97.5,-57.2 97.5,-38.2 71.5,-38.2"/>
<text text-anchor="start" x="78.9053" y="-44.3" font-family="Helvetica,sans-Serif" font-size="11.00" fill="#000000">2 &gt;</text>
</a>
</g>
</g>
<!-- instituicao&#45;&gt;municipio -->
<g id="edge3" class="edge">
<title>instituicao:w&#45;&gt;municipio:e</title>
<path fill="none" stroke="#000000" d="M169.3276,-89.4232C141.649,-94.3139 131.9421,-112.2 97.5,-112.2"/>
<polygon fill="#000000" stroke="#000000" points="176.0277,-88.8647 184.2991,-91.7876 180.0138,-88.5323 184,-88.2 184,-88.2 184,-88.2 180.0138,-88.5323 183.7009,-84.6124 176.0277,-88.8647 176.0277,-88.8647"/>
<ellipse fill="none" stroke="#000000" cx="172.8387" cy="-89.1305" rx="3.2" ry="3.2"/>
</g>
<!-- usuario -->
<g id="node5" class="node">
<title>usuario</title>
<g id="a_node5"><a xlink:href="../../tables/usuario.html" xlink:title="usuario" target="_top">
<polygon fill="#ffffff" stroke="transparent" points="13,-179.7 13,-306.7 92,-306.7 92,-179.7 13,-179.7"/>
<polygon fill="#f5f5f5" stroke="transparent" points="13.5,-283.2 13.5,-306.2 92.5,-306.2 92.5,-283.2 13.5,-283.2"/>
<polygon fill="none" stroke="#000000" points="13.5,-283.2 13.5,-306.2 92.5,-306.2 92.5,-283.2 13.5,-283.2"/>
<text text-anchor="start" x="18.4688" y="-292.3" font-family="Helvetica,sans-Serif" font-weight="bold" font-size="11.00" fill="#000000">usuario</text>
<text text-anchor="start" x="58.0219" y="-291.3" font-family="Helvetica,sans-Serif" font-size="11.00" fill="#000000">[table]</text>
<polygon fill="none" stroke="#000000" points="13.5,-261.2 13.5,-283.2 92.5,-283.2 92.5,-261.2 13.5,-261.2"/>
<image xlink:href="../../images/primaryKeys.png" width="11px" height="12px" preserveAspectRatio="xMinYMin meet" x="18.5" y="-278.2"/>
<text text-anchor="start" x="38.5" y="-268.3" font-family="Helvetica,sans-Serif" font-size="11.00" fill="#000000">id</text>
<polygon fill="#ffffff" stroke="transparent" points="13.5,-239.2 13.5,-261.2 92.5,-261.2 92.5,-239.2 13.5,-239.2"/>
<polygon fill="none" stroke="#000000" points="13.5,-239.2 13.5,-261.2 92.5,-261.2 92.5,-239.2 13.5,-239.2"/>
<text text-anchor="start" x="38.5" y="-246.3" font-family="Helvetica,sans-Serif" font-size="11.00" fill="#000000">email</text>
<polygon fill="#ffffff" stroke="transparent" points="13.5,-217.2 13.5,-239.2 92.5,-239.2 92.5,-217.2 13.5,-217.2"/>
<polygon fill="none" stroke="#000000" points="13.5,-217.2 13.5,-239.2 92.5,-239.2 92.5,-217.2 13.5,-217.2"/>
<text text-anchor="start" x="38.5" y="-224.3" font-family="Helvetica,sans-Serif" font-size="11.00" fill="#000000">celular</text>
<polygon fill="none" stroke="#000000" points="13.5,-198.2 13.5,-217.2 92.5,-217.2 92.5,-198.2 13.5,-198.2"/>
<text text-anchor="start" x="16.5" y="-204.3" font-family="Helvetica,sans-Serif" font-size="11.00" fill="#000000">...</text>
<polygon fill="#ffffff" stroke="transparent" points="13.5,-179.2 13.5,-198.2 29.5,-198.2 29.5,-179.2 13.5,-179.2"/>
<polygon fill="none" stroke="#000000" points="13.5,-179.2 13.5,-198.2 29.5,-198.2 29.5,-179.2 13.5,-179.2"/>
<text text-anchor="start" x="16.5" y="-185.3" font-family="Helvetica,sans-Serif" font-size="11.00" fill="#000000"> &#160;</text>
<polygon fill="#ffffff" stroke="transparent" points="29.5,-179.2 29.5,-198.2 69.5,-198.2 69.5,-179.2 29.5,-179.2"/>
<polygon fill="none" stroke="#000000" points="29.5,-179.2 29.5,-198.2 69.5,-198.2 69.5,-179.2 29.5,-179.2"/>
<text text-anchor="start" x="34.1105" y="-185.3" font-family="Helvetica,sans-Serif" font-size="11.00" fill="#000000">0 rows</text>
<polygon fill="#ffffff" stroke="transparent" points="69.5,-179.2 69.5,-198.2 92.5,-198.2 92.5,-179.2 69.5,-179.2"/>
<polygon fill="none" stroke="#000000" points="69.5,-179.2 69.5,-198.2 92.5,-198.2 92.5,-179.2 69.5,-179.2"/>
<text text-anchor="start" x="73.9053" y="-185.3" font-family="Helvetica,sans-Serif" font-size="11.00" fill="#000000">2 &gt;</text>
</a>
</g>
</g>
<!-- instituicao&#45;&gt;usuario -->
<g id="edge4" class="edge">
<title>instituicao:w&#45;&gt;usuario:e</title>
<path fill="none" stroke="#000000" d="M173.4796,-89.3443C154.7159,-93.9147 150.9337,-111.6128 138,-132.2 103.1955,-187.6002 157.9259,-272.2 92.5,-272.2"/>
<polygon fill="#000000" stroke="#000000" points="182.7721,-84.31 183.6372,-92.2631 182.0466,-92.4361 181.1815,-84.483 182.7721,-84.31"/>
<polyline fill="none" stroke="#000000" points="184,-88.2 180.0235,-88.6325 "/>
<ellipse fill="none" stroke="#000000" cx="176.8422" cy="-88.9786" rx="3.2" ry="3.2"/>
</g>
<!-- campanha -->
<g id="node3" class="node">
<title>campanha</title>
<g id="a_node3"><a xlink:href="../../tables/campanha.html" xlink:title="campanha" target="_top">
<polygon fill="#ffffff" stroke="transparent" points="361,-73.7 361,-134.7 455,-134.7 455,-73.7 361,-73.7"/>
<polygon fill="#f5f5f5" stroke="transparent" points="361,-111.2 361,-134.2 455,-134.2 455,-111.2 361,-111.2"/>
<polygon fill="none" stroke="#000000" points="361,-111.2 361,-134.2 455,-134.2 455,-111.2 361,-111.2"/>
<text text-anchor="start" x="365.8244" y="-120.3" font-family="Helvetica,sans-Serif" font-weight="bold" font-size="11.00" fill="#000000">campanha</text>
<text text-anchor="start" x="420.5219" y="-119.3" font-family="Helvetica,sans-Serif" font-size="11.00" fill="#000000">[table]</text>
<polygon fill="none" stroke="#000000" points="361,-92.2 361,-111.2 455,-111.2 455,-92.2 361,-92.2"/>
<text text-anchor="start" x="364" y="-98.3" font-family="Helvetica,sans-Serif" font-size="11.00" fill="#000000">...</text>
<polygon fill="#ffffff" stroke="transparent" points="361,-73.2 361,-92.2 389,-92.2 389,-73.2 361,-73.2"/>
<polygon fill="none" stroke="#000000" points="361,-73.2 361,-92.2 389,-92.2 389,-73.2 361,-73.2"/>
<text text-anchor="start" x="364" y="-79.3" font-family="Helvetica,sans-Serif" font-size="11.00" fill="#000000">&lt; 2</text>
<polygon fill="#ffffff" stroke="transparent" points="389,-73.2 389,-92.2 430,-92.2 430,-73.2 389,-73.2"/>
<polygon fill="none" stroke="#000000" points="389,-73.2 389,-92.2 430,-92.2 430,-73.2 389,-73.2"/>
<text text-anchor="start" x="394.6105" y="-79.3" font-family="Helvetica,sans-Serif" font-size="11.00" fill="#000000">0 rows</text>
<polygon fill="#ffffff" stroke="transparent" points="430,-73.2 430,-92.2 455,-92.2 455,-73.2 430,-73.2"/>
<polygon fill="none" stroke="#000000" points="430,-73.2 430,-92.2 455,-92.2 455,-73.2 430,-73.2"/>
<text text-anchor="start" x="436.4053" y="-79.3" font-family="Helvetica,sans-Serif" font-size="11.00" fill="#000000">3 &gt;</text>
</a>
</g>
</g>
<!-- campanha&#45;&gt;instituicao -->
<g id="edge2" class="edge">
<title>campanha:w&#45;&gt;instituicao:e</title>
<path fill="none" stroke="#000000" d="M346.3031,-100.5011C319.3076,-97.8008 308.2204,-88.2 275,-88.2"/>
<polygon fill="#000000" stroke="#000000" points="353.009,-100.8199 360.829,-104.7959 357.0045,-101.01 361,-101.2 361,-101.2 361,-101.2 357.0045,-101.01 361.171,-97.6041 353.009,-100.8199 353.009,-100.8199"/>
<ellipse fill="none" stroke="#000000" cx="349.8126" cy="-100.6679" rx="3.2" ry="3.2"/>
</g>
<!-- pessoa -->
<g id="node6" class="node">
<title>pessoa</title>
<g id="a_node6"><a xlink:href="../../tables/pessoa.html" xlink:title="pessoa" target="_top">
<polygon fill="#ffffff" stroke="transparent" points="146,-143.2 146,-321.2 312,-321.2 312,-143.2 146,-143.2"/>
<polygon fill="#f5f5f5" stroke="transparent" points="148,-296.2 148,-319.2 310,-319.2 310,-296.2 148,-296.2"/>
<polygon fill="none" stroke="#000000" points="148,-296.2 148,-319.2 310,-319.2 310,-296.2 148,-296.2"/>
<text text-anchor="start" x="153" y="-305.3" font-family="Helvetica,sans-Serif" font-weight="bold" font-size="11.00" fill="#000000">pessoa</text>
<text text-anchor="start" x="275.0437" y="-304.3" font-family="Helvetica,sans-Serif" font-size="11.00" fill="#000000">[table]</text>
<polygon fill="none" stroke="#000000" points="148,-274.2 148,-296.2 243,-296.2 243,-274.2 148,-274.2"/>
<image xlink:href="../../images/primaryKeys.png" width="11px" height="12px" preserveAspectRatio="xMinYMin meet" x="153" y="-291.2"/>
<text text-anchor="start" x="168" y="-281.3" font-family="Helvetica,sans-Serif" font-size="11.00" fill="#000000">usuario_id</text>
<polygon fill="none" stroke="#000000" points="243,-274.2 243,-296.2 310,-296.2 310,-274.2 243,-274.2"/>
<text text-anchor="start" x="246" y="-281.9" font-family="Helvetica,sans-Serif" font-size="11.00" fill="#000000">int4[10]</text>
<polygon fill="#ffffff" stroke="transparent" points="148,-252.2 148,-274.2 243,-274.2 243,-252.2 148,-252.2"/>
<polygon fill="none" stroke="#000000" points="148,-252.2 148,-274.2 243,-274.2 243,-252.2 148,-252.2"/>
<text text-anchor="start" x="168" y="-259.3" font-family="Helvetica,sans-Serif" font-size="11.00" fill="#000000">telefone</text>
<polygon fill="none" stroke="#000000" points="243,-252.2 243,-274.2 310,-274.2 310,-252.2 243,-252.2"/>
<text text-anchor="start" x="246" y="-259.9" font-family="Helvetica,sans-Serif" font-size="11.00" fill="#000000">varchar[20]</text>
<polygon fill="none" stroke="#000000" points="148,-230.2 148,-252.2 243,-252.2 243,-230.2 148,-230.2"/>
<text text-anchor="start" x="168" y="-237.3" font-family="Helvetica,sans-Serif" font-size="11.00" fill="#000000">logradouro</text>
<polygon fill="none" stroke="#000000" points="243,-230.2 243,-252.2 310,-252.2 310,-230.2 243,-230.2"/>
<text text-anchor="start" x="245.9365" y="-237.9" font-family="Helvetica,sans-Serif" font-size="11.00" fill="#000000">varchar[100]</text>
<polygon fill="none" stroke="#000000" points="148,-208.2 148,-230.2 243,-230.2 243,-208.2 148,-208.2"/>
<text text-anchor="start" x="168" y="-215.3" font-family="Helvetica,sans-Serif" font-size="11.00" fill="#000000">numero</text>
<polygon fill="none" stroke="#000000" points="243,-208.2 243,-230.2 310,-230.2 310,-208.2 243,-208.2"/>
<text text-anchor="start" x="246" y="-215.9" font-family="Helvetica,sans-Serif" font-size="11.00" fill="#000000">varchar[10]</text>
<polygon fill="none" stroke="#000000" points="148,-186.2 148,-208.2 243,-208.2 243,-186.2 148,-186.2"/>
<text text-anchor="start" x="168" y="-193.3" font-family="Helvetica,sans-Serif" font-size="11.00" fill="#000000">cep</text>
<polygon fill="none" stroke="#000000" points="243,-186.2 243,-208.2 310,-208.2 310,-186.2 243,-186.2"/>
<text text-anchor="start" x="246" y="-193.9" font-family="Helvetica,sans-Serif" font-size="11.00" fill="#000000">varchar[10]</text>
<polygon fill="none" stroke="#000000" points="148,-164.2 148,-186.2 243,-186.2 243,-164.2 148,-164.2"/>
<image xlink:href="../../images/foreignKeys.png" width="11px" height="12px" preserveAspectRatio="xMinYMin meet" x="153" y="-181.2"/>
<text text-anchor="start" x="168" y="-171.3" font-family="Helvetica,sans-Serif" font-size="11.00" fill="#000000">municipio_id</text>
<polygon fill="none" stroke="#000000" points="243,-164.2 243,-186.2 310,-186.2 310,-164.2 243,-164.2"/>
<text text-anchor="start" x="246" y="-171.9" font-family="Helvetica,sans-Serif" font-size="11.00" fill="#000000">int4[10]</text>
<polygon fill="#ffffff" stroke="transparent" points="148,-145.2 148,-164.2 187,-164.2 187,-145.2 148,-145.2"/>
<polygon fill="none" stroke="#000000" points="148,-145.2 148,-164.2 187,-164.2 187,-145.2 148,-145.2"/>
<text text-anchor="start" x="151" y="-151.3" font-family="Helvetica,sans-Serif" font-size="11.00" fill="#000000">&lt; 2</text>
<polygon fill="#ffffff" stroke="transparent" points="187,-145.2 187,-164.2 243,-164.2 243,-145.2 187,-145.2"/>
<polygon fill="none" stroke="#000000" points="187,-145.2 187,-164.2 243,-164.2 243,-145.2 187,-145.2"/>
<text text-anchor="start" x="207.6105" y="-151.3" font-family="Helvetica,sans-Serif" font-size="11.00" fill="#000000">0 rows</text>
<polygon fill="#ffffff" stroke="transparent" points="243,-145.2 243,-164.2 310,-164.2 310,-145.2 243,-145.2"/>
<polygon fill="none" stroke="#000000" points="243,-145.2 243,-164.2 310,-164.2 310,-145.2 243,-145.2"/>
<text text-anchor="start" x="291.4053" y="-151.3" font-family="Helvetica,sans-Serif" font-size="11.00" fill="#000000">2 &gt;</text>
<polygon fill="none" stroke="#000000" stroke-width="2" points="147,-144.2 147,-320.2 311,-320.2 311,-144.2 147,-144.2"/>
</a>
</g>
</g>
<!-- pessoa&#45;&gt;municipio -->
<g id="edge5" class="edge">
<title>pessoa:w&#45;&gt;municipio:e</title>
<path fill="none" stroke="#000000" d="M133.9816,-170.2565C117.738,-155.4048 127.2175,-112.2 97.5,-112.2"/>
<polygon fill="#000000" stroke="#000000" points="140.4554,-172.5394 146.8027,-178.5951 144.2277,-173.8697 148,-175.2 148,-175.2 148,-175.2 144.2277,-173.8697 149.1973,-171.8049 140.4554,-172.5394 140.4554,-172.5394"/>
<ellipse fill="none" stroke="#000000" cx="137.4375" cy="-171.4752" rx="3.2" ry="3.2"/>
</g>
<!-- pessoa&#45;&gt;usuario -->
<g id="edge6" class="edge">
<title>pessoa:w&#45;&gt;usuario:e</title>
<path fill="none" stroke="#000000" d="M137.4698,-284.347C120.6553,-281.4549 113.8758,-272.2 92.5,-272.2"/>
<polygon fill="#000000" stroke="#000000" points="147.5256,-281.1485 146.8796,-289.1223 145.2849,-288.9932 145.9308,-281.0193 147.5256,-281.1485"/>
<polyline fill="none" stroke="#000000" points="148,-285.2 144.0131,-284.877 "/>
<ellipse fill="none" stroke="#000000" cx="140.8235" cy="-284.6186" rx="3.2" ry="3.2"/>
</g>
<!-- pessoa_cadastra_campanha -->
<g id="node7" class="node">
<title>pessoa_cadastra_campanha</title>
<g id="a_node7"><a xlink:href="../../tables/pessoa_cadastra_campanha.html" xlink:title="pessoa_cadastra_campanha" target="_top">
<polygon fill="#ffffff" stroke="transparent" points="504,-59.7 504,-186.7 688,-186.7 688,-59.7 504,-59.7"/>
<polygon fill="#f5f5f5" stroke="transparent" points="504,-163.2 504,-186.2 688,-186.2 688,-163.2 504,-163.2"/>
<polygon fill="none" stroke="#000000" points="504,-163.2 504,-186.2 688,-186.2 688,-163.2 504,-163.2"/>
<text text-anchor="start" x="508.8905" y="-172.3" font-family="Helvetica,sans-Serif" font-weight="bold" font-size="11.00" fill="#000000">pessoa_cadastra_campanha</text>
<text text-anchor="start" x="653.5219" y="-171.3" font-family="Helvetica,sans-Serif" font-size="11.00" fill="#000000">[table]</text>
<polygon fill="none" stroke="#000000" points="504,-141.2 504,-163.2 688,-163.2 688,-141.2 504,-141.2"/>
<image xlink:href="../../images/primaryKeys.png" width="11px" height="12px" preserveAspectRatio="xMinYMin meet" x="509" y="-158.2"/>
<text text-anchor="start" x="524" y="-148.3" font-family="Helvetica,sans-Serif" font-size="11.00" fill="#000000">id</text>
<polygon fill="#ffffff" stroke="transparent" points="504,-119.2 504,-141.2 688,-141.2 688,-119.2 504,-119.2"/>
<polygon fill="none" stroke="#000000" points="504,-119.2 504,-141.2 688,-141.2 688,-119.2 504,-119.2"/>
<image xlink:href="../../images/foreignKeys.png" width="11px" height="12px" preserveAspectRatio="xMinYMin meet" x="509" y="-136.2"/>
<text text-anchor="start" x="524" y="-126.3" font-family="Helvetica,sans-Serif" font-size="11.00" fill="#000000">pessoa_id</text>
<polygon fill="#ffffff" stroke="transparent" points="504,-97.2 504,-119.2 688,-119.2 688,-97.2 504,-97.2"/>
<polygon fill="none" stroke="#000000" points="504,-97.2 504,-119.2 688,-119.2 688,-97.2 504,-97.2"/>
<image xlink:href="../../images/foreignKeys.png" width="11px" height="12px" preserveAspectRatio="xMinYMin meet" x="509" y="-114.2"/>
<text text-anchor="start" x="524" y="-104.3" font-family="Helvetica,sans-Serif" font-size="11.00" fill="#000000">campanha_id</text>
<polygon fill="none" stroke="#000000" points="504,-78.2 504,-97.2 688,-97.2 688,-78.2 504,-78.2"/>
<text text-anchor="start" x="507" y="-84.3" font-family="Helvetica,sans-Serif" font-size="11.00" fill="#000000">...</text>
<polygon fill="#ffffff" stroke="transparent" points="504,-59.2 504,-78.2 581,-78.2 581,-59.2 504,-59.2"/>
<polygon fill="none" stroke="#000000" points="504,-59.2 504,-78.2 581,-78.2 581,-59.2 504,-59.2"/>
<text text-anchor="start" x="507" y="-65.3" font-family="Helvetica,sans-Serif" font-size="11.00" fill="#000000">&lt; 2</text>
<polygon fill="#ffffff" stroke="transparent" points="581,-59.2 581,-78.2 647,-78.2 647,-59.2 581,-59.2"/>
<polygon fill="none" stroke="#000000" points="581,-59.2 581,-78.2 647,-78.2 647,-59.2 581,-59.2"/>
<text text-anchor="start" x="611.6105" y="-65.3" font-family="Helvetica,sans-Serif" font-size="11.00" fill="#000000">0 rows</text>
<polygon fill="#ffffff" stroke="transparent" points="647,-59.2 647,-78.2 688,-78.2 688,-59.2 647,-59.2"/>
<polygon fill="none" stroke="#000000" points="647,-59.2 647,-78.2 688,-78.2 688,-59.2 647,-59.2"/>
<text text-anchor="start" x="678.8862" y="-65.3" font-family="Helvetica,sans-Serif" font-size="11.00" fill="#000000"> &#160;</text>
</a>
</g>
</g>
<!-- pessoa_cadastra_campanha&#45;&gt;campanha -->
<g id="edge7" class="edge">
<title>pessoa_cadastra_campanha:w&#45;&gt;campanha:e</title>
<path fill="none" stroke="#000000" d="M489.4302,-106.9807C478.1445,-104.9751 471.1554,-101.2 455,-101.2"/>
<polygon fill="#000000" stroke="#000000" points="496.0279,-107.5328 503.6998,-111.7875 500.0139,-107.8664 504,-108.2 504,-108.2 504,-108.2 500.0139,-107.8664 504.3002,-104.6125 496.0279,-107.5328 496.0279,-107.5328"/>
<ellipse fill="none" stroke="#000000" cx="492.839" cy="-107.2659" rx="3.2" ry="3.2"/>
</g>
<!-- pessoa_cadastra_campanha&#45;&gt;pessoa -->
<g id="edge8" class="edge">
<title>pessoa_cadastra_campanha:w&#45;&gt;pessoa:e</title>
<path fill="none" stroke="#000000" d="M489.5697,-132.3546C481.0518,-135.2848 475.5506,-140.6794 463,-145.2 414.1985,-162.7778 390.7934,-148.6722 353,-184.2 317.4528,-217.6162 358.7878,-285.2 310,-285.2"/>
<polygon fill="#000000" stroke="#000000" points="496.0877,-131.3814 504.5316,-133.7605 500.0439,-130.7907 504,-130.2 504,-130.2 504,-130.2 500.0439,-130.7907 503.4684,-126.6395 496.0877,-131.3814 496.0877,-131.3814"/>
<ellipse fill="none" stroke="#000000" cx="492.9228" cy="-131.854" rx="3.2" ry="3.2"/>
</g>
<!-- pessoa_interessa_animal -->
<g id="node8" class="node">
<title>pessoa_interessa_animal</title>
<g id="a_node8"><a xlink:href="../../tables/pessoa_interessa_animal.html" xlink:title="pessoa_interessa_animal" target="_top">
<polygon fill="#ffffff" stroke="transparent" points="512.5,-210.7 512.5,-337.7 679.5,-337.7 679.5,-210.7 512.5,-210.7"/>
<polygon fill="#f5f5f5" stroke="transparent" points="513,-314.2 513,-337.2 680,-337.2 680,-314.2 513,-314.2"/>
<polygon fill="none" stroke="#000000" points="513,-314.2 513,-337.2 680,-337.2 680,-314.2 513,-314.2"/>
<text text-anchor="start" x="517.6515" y="-323.3" font-family="Helvetica,sans-Serif" font-weight="bold" font-size="11.00" fill="#000000">pessoa_interessa_animal</text>
<text text-anchor="start" x="645.5219" y="-322.3" font-family="Helvetica,sans-Serif" font-size="11.00" fill="#000000">[table]</text>
<polygon fill="none" stroke="#000000" points="513,-292.2 513,-314.2 680,-314.2 680,-292.2 513,-292.2"/>
<image xlink:href="../../images/primaryKeys.png" width="11px" height="12px" preserveAspectRatio="xMinYMin meet" x="518" y="-309.2"/>
<text text-anchor="start" x="534" y="-299.3" font-family="Helvetica,sans-Serif" font-size="11.00" fill="#000000">id</text>
<polygon fill="#ffffff" stroke="transparent" points="513,-270.2 513,-292.2 680,-292.2 680,-270.2 513,-270.2"/>
<polygon fill="none" stroke="#000000" points="513,-270.2 513,-292.2 680,-292.2 680,-270.2 513,-270.2"/>
<image xlink:href="../../images/foreignKeys.png" width="11px" height="12px" preserveAspectRatio="xMinYMin meet" x="518" y="-287.2"/>
<text text-anchor="start" x="534" y="-277.3" font-family="Helvetica,sans-Serif" font-size="11.00" fill="#000000">pessoa_id</text>
<polygon fill="#ffffff" stroke="transparent" points="513,-248.2 513,-270.2 680,-270.2 680,-248.2 513,-248.2"/>
<polygon fill="none" stroke="#000000" points="513,-248.2 513,-270.2 680,-270.2 680,-248.2 513,-248.2"/>
<image xlink:href="../../images/foreignKeys.png" width="11px" height="12px" preserveAspectRatio="xMinYMin meet" x="518" y="-265.2"/>
<text text-anchor="start" x="534" y="-255.3" font-family="Helvetica,sans-Serif" font-size="11.00" fill="#000000">animal_id</text>
<polygon fill="none" stroke="#000000" points="513,-229.2 513,-248.2 680,-248.2 680,-229.2 513,-229.2"/>
<text text-anchor="start" x="516" y="-235.3" font-family="Helvetica,sans-Serif" font-size="11.00" fill="#000000">...</text>
<polygon fill="#ffffff" stroke="transparent" points="513,-210.2 513,-229.2 582,-229.2 582,-210.2 513,-210.2"/>
<polygon fill="none" stroke="#000000" points="513,-210.2 513,-229.2 582,-229.2 582,-210.2 513,-210.2"/>
<text text-anchor="start" x="516" y="-216.3" font-family="Helvetica,sans-Serif" font-size="11.00" fill="#000000">&lt; 2</text>
<polygon fill="#ffffff" stroke="transparent" points="582,-210.2 582,-229.2 644,-229.2 644,-210.2 582,-210.2"/>
<polygon fill="none" stroke="#000000" points="582,-210.2 582,-229.2 644,-229.2 644,-210.2 582,-210.2"/>
<text text-anchor="start" x="608.6105" y="-216.3" font-family="Helvetica,sans-Serif" font-size="11.00" fill="#000000">0 rows</text>
<polygon fill="#ffffff" stroke="transparent" points="644,-210.2 644,-229.2 680,-229.2 680,-210.2 644,-210.2"/>
<polygon fill="none" stroke="#000000" points="644,-210.2 644,-229.2 680,-229.2 680,-210.2 644,-210.2"/>
<text text-anchor="start" x="670.8862" y="-216.3" font-family="Helvetica,sans-Serif" font-size="11.00" fill="#000000"> &#160;</text>
</a>
</g>
</g>
<!-- pessoa_interessa_animal&#45;&gt;animal -->
<g id="edge9" class="edge">
<title>pessoa_interessa_animal:w&#45;&gt;animal:e</title>
<path fill="none" stroke="#000000" d="M498.8594,-256.419C479.2771,-247.8142 475.6578,-222.2 448,-222.2"/>
<polygon fill="#000000" stroke="#000000" points="505.1504,-257.6562 512.3053,-262.7323 509.0752,-258.4281 513,-259.2 513,-259.2 513,-259.2 509.0752,-258.4281 513.6947,-255.6677 505.1504,-257.6562 505.1504,-257.6562"/>
<ellipse fill="none" stroke="#000000" cx="502.0105" cy="-257.0386" rx="3.2" ry="3.2"/>
</g>
<!-- pessoa_interessa_animal&#45;&gt;pessoa -->
<g id="edge10" class="edge">
<title>pessoa_interessa_animal:w&#45;&gt;pessoa:e</title>
<path fill="none" stroke="#000000" d="M498.2934,-281.237C419.9919,-281.6403 395.1285,-285.2 310,-285.2"/>
<polygon fill="#000000" stroke="#000000" points="505,-281.2202 513.0091,-284.8 509,-281.2101 513,-281.2 513,-281.2 513,-281.2 509,-281.2101 512.9909,-277.6 505,-281.2202 505,-281.2202"/>
<ellipse fill="none" stroke="#000000" cx="501.8" cy="-281.2283" rx="3.2" ry="3.2"/>
</g>
</g>
</svg>
