<?xml version="1.0" encoding="UTF-8" standalone="no"?>
<!DOCTYPE svg PUBLIC "-//W3C//DTD SVG 1.1//EN"
 "http://www.w3.org/Graphics/SVG/1.1/DTD/svg11.dtd">
<!-- Generated by graphviz version 2.40.1 (20161225.0304)
 -->
<!-- Title: oneDegreeRelationshipsDiagram Pages: 1 -->
<svg width="420pt" height="303pt"
 viewBox="0.00 0.00 420.00 303.20" xmlns="http://www.w3.org/2000/svg" xmlns:xlink="http://www.w3.org/1999/xlink">
<g id="graph0" class="graph" transform="scale(1 1) rotate(0) translate(4 299.2)">
<title>oneDegreeRelationshipsDiagram</title>
<polygon fill="#ffffff" stroke="transparent" points="-4,4 -4,-299.2 416,-299.2 416,4 -4,4"/>
<text text-anchor="middle" x="72.4936" y="-7.3" font-family="Helvetica,sans-Serif" font-size="11.00" fill="#000000">Generated by SchemaSpy</text>
<!-- pessoa_cadastra_campanha -->
<g id="node1" class="node">
<title>pessoa_cadastra_campanha</title>
<g id="a_node1"><a xlink:href="../../tables/pessoa_cadastra_campanha.html" xlink:title="pessoa_cadastra_campanha" target="_top">
<polygon fill="#ffffff" stroke="transparent" points="155,-95.7 155,-229.7 404,-229.7 404,-95.7 155,-95.7"/>
<polygon fill="#f5f5f5" stroke="transparent" points="157.5,-204.7 157.5,-227.7 402.5,-227.7 402.5,-204.7 157.5,-204.7"/>
<polygon fill="none" stroke="#000000" points="157.5,-204.7 157.5,-227.7 402.5,-227.7 402.5,-204.7 157.5,-204.7"/>
<text text-anchor="start" x="162.5" y="-213.8" font-family="Helvetica,sans-Serif" font-weight="bold" font-size="11.00" fill="#000000">pessoa_cadastra_campanha</text>
<text text-anchor="start" x="367.5437" y="-212.8" font-family="Helvetica,sans-Serif" font-size="11.00" fill="#000000">[table]</text>
<polygon fill="#ffffff" stroke="transparent" points="157.5,-182.7 157.5,-204.7 341.5,-204.7 341.5,-182.7 157.5,-182.7"/>
<polygon fill="none" stroke="#000000" points="157.5,-182.7 157.5,-204.7 341.5,-204.7 341.5,-182.7 157.5,-182.7"/>
<image xlink:href="../../images/foreignKeys.png" width="11px" height="12px" preserveAspectRatio="xMinYMin meet" x="162.5" y="-199.7"/>
<text text-anchor="start" x="177.5" y="-189.8" font-family="Helvetica,sans-Serif" font-size="11.00" fill="#000000">pessoa_id</text>
<polygon fill="none" stroke="#000000" points="341.5,-182.7 341.5,-204.7 402.5,-204.7 402.5,-182.7 341.5,-182.7"/>
<text text-anchor="start" x="344.5" y="-190.4" font-family="Helvetica,sans-Serif" font-size="11.00" fill="#000000">int4[10]</text>
<polygon fill="#ffffff" stroke="transparent" points="157.5,-160.7 157.5,-182.7 341.5,-182.7 341.5,-160.7 157.5,-160.7"/>
<polygon fill="none" stroke="#000000" points="157.5,-160.7 157.5,-182.7 341.5,-182.7 341.5,-160.7 157.5,-160.7"/>
<image xlink:href="../../images/foreignKeys.png" width="11px" height="12px" preserveAspectRatio="xMinYMin meet" x="162.5" y="-177.7"/>
<text text-anchor="start" x="177.5" y="-167.8" font-family="Helvetica,sans-Serif" font-size="11.00" fill="#000000">campanha_id</text>
<polygon fill="none" stroke="#000000" points="341.5,-160.7 341.5,-182.7 402.5,-182.7 402.5,-160.7 341.5,-160.7"/>
<text text-anchor="start" x="344.5" y="-168.4" font-family="Helvetica,sans-Serif" font-size="11.00" fill="#000000">int4[10]</text>
<polygon fill="none" stroke="#000000" points="157.5,-138.7 157.5,-160.7 341.5,-160.7 341.5,-138.7 157.5,-138.7"/>
<text text-anchor="start" x="177.5" y="-145.8" font-family="Helvetica,sans-Serif" font-size="11.00" fill="#000000">situacao</text>
<polygon fill="none" stroke="#000000" points="341.5,-138.7 341.5,-160.7 402.5,-160.7 402.5,-138.7 341.5,-138.7"/>
<text text-anchor="start" x="344.494" y="-146.4" font-family="Helvetica,sans-Serif" font-size="11.00" fill="#000000">varchar[50]</text>
<polygon fill="none" stroke="#000000" points="157.5,-116.7 157.5,-138.7 341.5,-138.7 341.5,-116.7 157.5,-116.7"/>
<text text-anchor="start" x="177.5" y="-123.8" font-family="Helvetica,sans-Serif" font-size="11.00" fill="#000000">data</text>
<polygon fill="none" stroke="#000000" points="341.5,-116.7 341.5,-138.7 402.5,-138.7 402.5,-116.7 341.5,-116.7"/>
<text text-anchor="start" x="344.5" y="-124.4" font-family="Helvetica,sans-Serif" font-size="11.00" fill="#000000">date[13]</text>
<polygon fill="#ffffff" stroke="transparent" points="157.5,-97.7 157.5,-116.7 240.5,-116.7 240.5,-97.7 157.5,-97.7"/>
<polygon fill="none" stroke="#000000" points="157.5,-97.7 157.5,-116.7 240.5,-116.7 240.5,-97.7 157.5,-97.7"/>
<text text-anchor="start" x="160.5" y="-103.8" font-family="Helvetica,sans-Serif" font-size="11.00" fill="#000000">&lt; 2</text>
<polygon fill="#ffffff" stroke="transparent" points="240.5,-97.7 240.5,-116.7 341.5,-116.7 341.5,-97.7 240.5,-97.7"/>
<polygon fill="none" stroke="#000000" points="240.5,-97.7 240.5,-116.7 341.5,-116.7 341.5,-97.7 240.5,-97.7"/>
<text text-anchor="start" x="306.1105" y="-103.8" font-family="Helvetica,sans-Serif" font-size="11.00" fill="#000000">0 rows</text>
<polygon fill="#ffffff" stroke="transparent" points="341.5,-97.7 341.5,-116.7 402.5,-116.7 402.5,-97.7 341.5,-97.7"/>
<polygon fill="none" stroke="#000000" points="341.5,-97.7 341.5,-116.7 402.5,-116.7 402.5,-97.7 341.5,-97.7"/>
<text text-anchor="start" x="383.9053" y="-103.8" font-family="Helvetica,sans-Serif" font-size="11.00" fill="#000000">0 &gt;</text>
<polygon fill="none" stroke="#000000" stroke-width="2" points="156,-96.7 156,-228.7 403,-228.7 403,-96.7 156,-96.7"/>
</a>
</g>
</g>
<!-- campanha -->
<g id="node2" class="node">
<title>campanha</title>
<g id="a_node2"><a xlink:href="../../tables/campanha.html" xlink:title="campanha" target="_top">
<polygon fill="#ffffff" stroke="transparent" points="8,-38.2 8,-143.2 106,-143.2 106,-38.2 8,-38.2"/>
<polygon fill="#f5f5f5" stroke="transparent" points="8,-119.7 8,-142.7 106,-142.7 106,-119.7 8,-119.7"/>
<polygon fill="none" stroke="#000000" points="8,-119.7 8,-142.7 106,-142.7 106,-119.7 8,-119.7"/>
<text text-anchor="start" x="13" y="-128.8" font-family="Helvetica,sans-Serif" font-weight="bold" font-size="11.00" fill="#000000">campanha</text>
<text text-anchor="start" x="71.0437" y="-127.8" font-family="Helvetica,sans-Serif" font-size="11.00" fill="#000000">[table]</text>
<polygon fill="none" stroke="#000000" points="8,-97.7 8,-119.7 106,-119.7 106,-97.7 8,-97.7"/>
<image xlink:href="../../images/primaryKeys.png" width="11px" height="12px" preserveAspectRatio="xMinYMin meet" x="13" y="-114.7"/>
<text text-anchor="start" x="28" y="-104.8" font-family="Helvetica,sans-Serif" font-size="11.00" fill="#000000">id</text>
<polygon fill="none" stroke="#000000" points="8,-75.7 8,-97.7 106,-97.7 106,-75.7 8,-75.7"/>
<image xlink:href="../../images/foreignKeys.png" width="11px" height="12px" preserveAspectRatio="xMinYMin meet" x="13" y="-92.7"/>
<text text-anchor="start" x="28" y="-82.8" font-family="Helvetica,sans-Serif" font-size="11.00" fill="#000000">instituicao_id</text>
<polygon fill="none" stroke="#000000" points="8,-56.7 8,-75.7 106,-75.7 106,-56.7 8,-56.7"/>
<text text-anchor="start" x="11" y="-62.8" font-family="Helvetica,sans-Serif" font-size="11.00" fill="#000000">...</text>
<polygon fill="#ffffff" stroke="transparent" points="8,-37.7 8,-56.7 38,-56.7 38,-37.7 8,-37.7"/>
<polygon fill="none" stroke="#000000" points="8,-37.7 8,-56.7 38,-56.7 38,-37.7 8,-37.7"/>
<text text-anchor="start" x="11" y="-43.8" font-family="Helvetica,sans-Serif" font-size="11.00" fill="#000000">&lt; 1</text>
<polygon fill="#ffffff" stroke="transparent" points="38,-37.7 38,-56.7 80,-56.7 80,-37.7 38,-37.7"/>
<polygon fill="none" stroke="#000000" points="38,-37.7 38,-56.7 80,-56.7 80,-37.7 38,-37.7"/>
<text text-anchor="start" x="44.6105" y="-43.8" font-family="Helvetica,sans-Serif" font-size="11.00" fill="#000000">0 rows</text>
<polygon fill="#ffffff" stroke="transparent" points="80,-37.7 80,-56.7 106,-56.7 106,-37.7 80,-37.7"/>
<polygon fill="none" stroke="#000000" points="80,-37.7 80,-56.7 106,-56.7 106,-37.7 80,-37.7"/>
<text text-anchor="start" x="87.4053" y="-43.8" font-family="Helvetica,sans-Serif" font-size="11.00" fill="#000000">3 &gt;</text>
</a>
</g>
</g>
<!-- pessoa_cadastra_campanha&#45;&gt;campanha -->
<g id="edge1" class="edge">
<title>pessoa_cadastra_campanha:w&#45;&gt;campanha:e</title>
<path fill="none" stroke="#000000" d="M143.799,-167.1692C126.6358,-152.7239 136.2316,-108.7 106,-108.7"/>
<polygon fill="#000000" stroke="#000000" points="149.9045,-169.1882 156.3697,-175.118 153.7023,-170.4441 157.5,-171.7 157.5,-171.7 157.5,-171.7 153.7023,-170.4441 158.6303,-168.282 149.9045,-169.1882 149.9045,-169.1882"/>
<ellipse fill="none" stroke="#000000" cx="146.8663" cy="-168.1835" rx="3.2" ry="3.2"/>
</g>
<!-- pessoa -->
<g id="node3" class="node">
<title>pessoa</title>
<g id="a_node3"><a xlink:href="../../tables/pessoa.html" xlink:title="pessoa" target="_top">
<polygon fill="#ffffff" stroke="transparent" points="9.5,-164.2 9.5,-291.2 104.5,-291.2 104.5,-164.2 9.5,-164.2"/>
<polygon fill="#f5f5f5" stroke="transparent" points="10,-267.7 10,-290.7 105,-290.7 105,-267.7 10,-267.7"/>
<polygon fill="none" stroke="#000000" points="10,-267.7 10,-290.7 105,-290.7 105,-267.7 10,-267.7"/>
<text text-anchor="start" x="15" y="-276.8" font-family="Helvetica,sans-Serif" font-weight="bold" font-size="11.00" fill="#000000">pessoa</text>
<text text-anchor="start" x="70.0437" y="-275.8" font-family="Helvetica,sans-Serif" font-size="11.00" fill="#000000">[table]</text>
<polygon fill="none" stroke="#000000" points="10,-245.7 10,-267.7 105,-267.7 105,-245.7 10,-245.7"/>
<image xlink:href="../../images/primaryKeys.png" width="11px" height="12px" preserveAspectRatio="xMinYMin meet" x="15" y="-262.7"/>
<text text-anchor="start" x="30" y="-252.8" font-family="Helvetica,sans-Serif" font-size="11.00" fill="#000000">usuario_id</text>
<polygon fill="#ffffff" stroke="transparent" points="10,-223.7 10,-245.7 105,-245.7 105,-223.7 10,-223.7"/>
<polygon fill="none" stroke="#000000" points="10,-223.7 10,-245.7 105,-245.7 105,-223.7 10,-223.7"/>
<text text-anchor="start" x="30" y="-230.8" font-family="Helvetica,sans-Serif" font-size="11.00" fill="#000000">telefone</text>
<polygon fill="none" stroke="#000000" points="10,-201.7 10,-223.7 105,-223.7 105,-201.7 10,-201.7"/>
<image xlink:href="../../images/foreignKeys.png" width="11px" height="12px" preserveAspectRatio="xMinYMin meet" x="15" y="-218.7"/>
<text text-anchor="start" x="30" y="-208.8" font-family="Helvetica,sans-Serif" font-size="11.00" fill="#000000">municipio_id</text>
<polygon fill="none" stroke="#000000" points="10,-182.7 10,-201.7 105,-201.7 105,-182.7 10,-182.7"/>
<text text-anchor="start" x="13" y="-188.8" font-family="Helvetica,sans-Serif" font-size="11.00" fill="#000000">...</text>
<polygon fill="#ffffff" stroke="transparent" points="10,-163.7 10,-182.7 38,-182.7 38,-163.7 10,-163.7"/>
<polygon fill="none" stroke="#000000" points="10,-163.7 10,-182.7 38,-182.7 38,-163.7 10,-163.7"/>
<text text-anchor="start" x="13" y="-169.8" font-family="Helvetica,sans-Serif" font-size="11.00" fill="#000000">&lt; 2</text>
<polygon fill="#ffffff" stroke="transparent" points="38,-163.7 38,-182.7 80,-182.7 80,-163.7 38,-163.7"/>
<polygon fill="none" stroke="#000000" points="38,-163.7 38,-182.7 80,-182.7 80,-163.7 38,-163.7"/>
<text text-anchor="start" x="44.6105" y="-169.8" font-family="Helvetica,sans-Serif" font-size="11.00" fill="#000000">0 rows</text>
<polygon fill="#ffffff" stroke="transparent" points="80,-163.7 80,-182.7 105,-182.7 105,-163.7 80,-163.7"/>
<polygon fill="none" stroke="#000000" points="80,-163.7 80,-182.7 105,-182.7 105,-163.7 80,-163.7"/>
<text text-anchor="start" x="86.4053" y="-169.8" font-family="Helvetica,sans-Serif" font-size="11.00" fill="#000000">2 &gt;</text>
</a>
</g>
</g>
<!-- pessoa_cadastra_campanha&#45;&gt;pessoa -->
<g id="edge2" class="edge">
<title>pessoa_cadastra_campanha:w&#45;&gt;pessoa:e</title>
<path fill="none" stroke="#000000" d="M143.6489,-198.2308C126.2145,-212.6761 135.4681,-256.7 105,-256.7"/>
<polygon fill="#000000" stroke="#000000" points="149.8964,-196.1872 158.6192,-197.1216 153.6982,-194.9436 157.5,-193.7 157.5,-193.7 157.5,-193.7 153.6982,-194.9436 156.3808,-190.2784 149.8964,-196.1872 149.8964,-196.1872"/>
<ellipse fill="none" stroke="#000000" cx="146.855" cy="-197.1821" rx="3.2" ry="3.2"/>
</g>
</g>
</svg>
