<?xml version="1.0" encoding="UTF-8" standalone="no"?>
<!DOCTYPE svg PUBLIC "-//W3C//DTD SVG 1.1//EN"
 "http://www.w3.org/Graphics/SVG/1.1/DTD/svg11.dtd">
<!-- Generated by graphviz version 2.40.1 (20161225.0304)
 -->
<!-- Title: oneDegreeRelationshipsDiagram Pages: 1 -->
<svg width="427pt" height="303pt"
 viewBox="0.00 0.00 427.00 303.20" xmlns="http://www.w3.org/2000/svg" xmlns:xlink="http://www.w3.org/1999/xlink">
<g id="graph0" class="graph" transform="scale(1 1) rotate(0) translate(4 299.2)">
<title>oneDegreeRelationshipsDiagram</title>
<polygon fill="#ffffff" stroke="transparent" points="-4,4 -4,-299.2 423,-299.2 423,4 -4,4"/>
<text text-anchor="middle" x="72.4936" y="-7.3" font-family="Helvetica,sans-Serif" font-size="11.00" fill="#000000">Generated by SchemaSpy</text>
<!-- pessoa_interessa_animal -->
<g id="node1" class="node">
<title>pessoa_interessa_animal</title>
<g id="a_node1"><a xlink:href="../../tables/pessoa_interessa_animal.html" xlink:title="pessoa_interessa_animal" target="_top">
<polygon fill="#ffffff" stroke="transparent" points="196,-117.7 196,-229.7 411,-229.7 411,-117.7 196,-117.7"/>
<polygon fill="#f5f5f5" stroke="transparent" points="198.5,-204.7 198.5,-227.7 409.5,-227.7 409.5,-204.7 198.5,-204.7"/>
<polygon fill="none" stroke="#000000" points="198.5,-204.7 198.5,-227.7 409.5,-227.7 409.5,-204.7 198.5,-204.7"/>
<text text-anchor="start" x="203.5" y="-213.8" font-family="Helvetica,sans-Serif" font-weight="bold" font-size="11.00" fill="#000000">pessoa_interessa_animal</text>
<text text-anchor="start" x="374.5437" y="-212.8" font-family="Helvetica,sans-Serif" font-size="11.00" fill="#000000">[table]</text>
<polygon fill="#ffffff" stroke="transparent" points="198.5,-182.7 198.5,-204.7 364.5,-204.7 364.5,-182.7 198.5,-182.7"/>
<polygon fill="none" stroke="#000000" points="198.5,-182.7 198.5,-204.7 364.5,-204.7 364.5,-182.7 198.5,-182.7"/>
<image xlink:href="../../images/foreignKeys.png" width="11px" height="12px" preserveAspectRatio="xMinYMin meet" x="203.5" y="-199.7"/>
<text text-anchor="start" x="218.5" y="-189.8" font-family="Helvetica,sans-Serif" font-size="11.00" fill="#000000">pessoa_id</text>
<polygon fill="none" stroke="#000000" points="364.5,-182.7 364.5,-204.7 409.5,-204.7 409.5,-182.7 364.5,-182.7"/>
<text text-anchor="start" x="367.5" y="-190.4" font-family="Helvetica,sans-Serif" font-size="11.00" fill="#000000">int4[10]</text>
<polygon fill="#ffffff" stroke="transparent" points="198.5,-160.7 198.5,-182.7 364.5,-182.7 364.5,-160.7 198.5,-160.7"/>
<polygon fill="none" stroke="#000000" points="198.5,-160.7 198.5,-182.7 364.5,-182.7 364.5,-160.7 198.5,-160.7"/>
<image xlink:href="../../images/foreignKeys.png" width="11px" height="12px" preserveAspectRatio="xMinYMin meet" x="203.5" y="-177.7"/>
<text text-anchor="start" x="218.5" y="-167.8" font-family="Helvetica,sans-Serif" font-size="11.00" fill="#000000">animal_id</text>
<polygon fill="none" stroke="#000000" points="364.5,-160.7 364.5,-182.7 409.5,-182.7 409.5,-160.7 364.5,-160.7"/>
<text text-anchor="start" x="367.5" y="-168.4" font-family="Helvetica,sans-Serif" font-size="11.00" fill="#000000">int4[10]</text>
<polygon fill="none" stroke="#000000" points="198.5,-138.7 198.5,-160.7 364.5,-160.7 364.5,-138.7 198.5,-138.7"/>
<text text-anchor="start" x="218.5" y="-145.8" font-family="Helvetica,sans-Serif" font-size="11.00" fill="#000000">data</text>
<polygon fill="none" stroke="#000000" points="364.5,-138.7 364.5,-160.7 409.5,-160.7 409.5,-138.7 364.5,-138.7"/>
<text text-anchor="start" x="367.1274" y="-146.4" font-family="Helvetica,sans-Serif" font-size="11.00" fill="#000000">date[13]</text>
<polygon fill="#ffffff" stroke="transparent" points="198.5,-119.7 198.5,-138.7 272.5,-138.7 272.5,-119.7 198.5,-119.7"/>
<polygon fill="none" stroke="#000000" points="198.5,-119.7 198.5,-138.7 272.5,-138.7 272.5,-119.7 198.5,-119.7"/>
<text text-anchor="start" x="201.5" y="-125.8" font-family="Helvetica,sans-Serif" font-size="11.00" fill="#000000">&lt; 2</text>
<polygon fill="#ffffff" stroke="transparent" points="272.5,-119.7 272.5,-138.7 364.5,-138.7 364.5,-119.7 272.5,-119.7"/>
<polygon fill="none" stroke="#000000" points="272.5,-119.7 272.5,-138.7 364.5,-138.7 364.5,-119.7 272.5,-119.7"/>
<text text-anchor="start" x="329.1105" y="-125.8" font-family="Helvetica,sans-Serif" font-size="11.00" fill="#000000">0 rows</text>
<polygon fill="#ffffff" stroke="transparent" points="364.5,-119.7 364.5,-138.7 409.5,-138.7 409.5,-119.7 364.5,-119.7"/>
<polygon fill="none" stroke="#000000" points="364.5,-119.7 364.5,-138.7 409.5,-138.7 409.5,-119.7 364.5,-119.7"/>
<text text-anchor="start" x="390.9053" y="-125.8" font-family="Helvetica,sans-Serif" font-size="11.00" fill="#000000">0 &gt;</text>
<polygon fill="none" stroke="#000000" stroke-width="2" points="197,-118.7 197,-228.7 410,-228.7 410,-118.7 197,-118.7"/>
</a>
</g>
</g>
<!-- animal -->
<g id="node2" class="node">
<title>animal</title>
<g id="a_node2"><a xlink:href="../../tables/animal.html" xlink:title="animal" target="_top">
<polygon fill="#ffffff" stroke="transparent" points="8,-38.2 8,-143.2 147,-143.2 147,-38.2 8,-38.2"/>
<polygon fill="#f5f5f5" stroke="transparent" points="8.5,-119.7 8.5,-142.7 147.5,-142.7 147.5,-119.7 8.5,-119.7"/>
<polygon fill="none" stroke="#000000" points="8.5,-119.7 8.5,-142.7 147.5,-142.7 147.5,-119.7 8.5,-119.7"/>
<text text-anchor="start" x="13.5" y="-128.8" font-family="Helvetica,sans-Serif" font-weight="bold" font-size="11.00" fill="#000000">animal</text>
<text text-anchor="start" x="112.5437" y="-127.8" font-family="Helvetica,sans-Serif" font-size="11.00" fill="#000000">[table]</text>
<polygon fill="none" stroke="#000000" points="8.5,-97.7 8.5,-119.7 147.5,-119.7 147.5,-97.7 8.5,-97.7"/>
<image xlink:href="../../images/primaryKeys.png" width="11px" height="12px" preserveAspectRatio="xMinYMin meet" x="13.5" y="-114.7"/>
<text text-anchor="start" x="28.5" y="-104.8" font-family="Helvetica,sans-Serif" font-size="11.00" fill="#000000">id</text>
<polygon fill="none" stroke="#000000" points="8.5,-75.7 8.5,-97.7 147.5,-97.7 147.5,-75.7 8.5,-75.7"/>
<image xlink:href="../../images/foreignKeys.png" width="11px" height="12px" preserveAspectRatio="xMinYMin meet" x="13.5" y="-92.7"/>
<text text-anchor="start" x="28.5" y="-82.8" font-family="Helvetica,sans-Serif" font-size="11.00" fill="#000000">instituicao_id</text>
<polygon fill="none" stroke="#000000" points="8.5,-56.7 8.5,-75.7 147.5,-75.7 147.5,-56.7 8.5,-56.7"/>
<text text-anchor="start" x="11.5" y="-62.8" font-family="Helvetica,sans-Serif" font-size="11.00" fill="#000000">...</text>
<polygon fill="#ffffff" stroke="transparent" points="8.5,-37.7 8.5,-56.7 58.5,-56.7 58.5,-37.7 8.5,-37.7"/>
<polygon fill="none" stroke="#000000" points="8.5,-37.7 8.5,-56.7 58.5,-56.7 58.5,-37.7 8.5,-37.7"/>
<text text-anchor="start" x="11.5" y="-43.8" font-family="Helvetica,sans-Serif" font-size="11.00" fill="#000000">&lt; 1</text>
<polygon fill="#ffffff" stroke="transparent" points="58.5,-37.7 58.5,-56.7 111.5,-56.7 111.5,-37.7 58.5,-37.7"/>
<polygon fill="none" stroke="#000000" points="58.5,-37.7 58.5,-56.7 111.5,-56.7 111.5,-37.7 58.5,-37.7"/>
<text text-anchor="start" x="76.1105" y="-43.8" font-family="Helvetica,sans-Serif" font-size="11.00" fill="#000000">0 rows</text>
<polygon fill="#ffffff" stroke="transparent" points="111.5,-37.7 111.5,-56.7 147.5,-56.7 147.5,-37.7 111.5,-37.7"/>
<polygon fill="none" stroke="#000000" points="111.5,-37.7 111.5,-56.7 147.5,-56.7 147.5,-37.7 111.5,-37.7"/>
<text text-anchor="start" x="128.9053" y="-43.8" font-family="Helvetica,sans-Serif" font-size="11.00" fill="#000000">2 &gt;</text>
</a>
</g>
</g>
<!-- pessoa_interessa_animal&#45;&gt;animal -->
<g id="edge1" class="edge">
<title>pessoa_interessa_animal:w&#45;&gt;animal:e</title>
<path fill="none" stroke="#000000" d="M184.4033,-166.7565C168.025,-151.9048 177.3329,-108.7 147.5,-108.7"/>
<polygon fill="#000000" stroke="#000000" points="190.9507,-169.0526 197.3087,-175.0972 194.7254,-170.3763 198.5,-171.7 198.5,-171.7 198.5,-171.7 194.7254,-170.3763 199.6913,-168.3028 190.9507,-169.0526 190.9507,-169.0526"/>
<ellipse fill="none" stroke="#000000" cx="187.931" cy="-167.9936" rx="3.2" ry="3.2"/>
</g>
<!-- pessoa -->
<g id="node3" class="node">
<title>pessoa</title>
<g id="a_node3"><a xlink:href="../../tables/pessoa.html" xlink:title="pessoa" target="_top">
<polygon fill="#ffffff" stroke="transparent" points="30,-164.2 30,-291.2 125,-291.2 125,-164.2 30,-164.2"/>
<polygon fill="#f5f5f5" stroke="transparent" points="30.5,-267.7 30.5,-290.7 125.5,-290.7 125.5,-267.7 30.5,-267.7"/>
<polygon fill="none" stroke="#000000" points="30.5,-267.7 30.5,-290.7 125.5,-290.7 125.5,-267.7 30.5,-267.7"/>
<text text-anchor="start" x="35.5" y="-276.8" font-family="Helvetica,sans-Serif" font-weight="bold" font-size="11.00" fill="#000000">pessoa</text>
<text text-anchor="start" x="90.5437" y="-275.8" font-family="Helvetica,sans-Serif" font-size="11.00" fill="#000000">[table]</text>
<polygon fill="none" stroke="#000000" points="30.5,-245.7 30.5,-267.7 125.5,-267.7 125.5,-245.7 30.5,-245.7"/>
<image xlink:href="../../images/primaryKeys.png" width="11px" height="12px" preserveAspectRatio="xMinYMin meet" x="35.5" y="-262.7"/>
<text text-anchor="start" x="50.5" y="-252.8" font-family="Helvetica,sans-Serif" font-size="11.00" fill="#000000">usuario_id</text>
<polygon fill="#ffffff" stroke="transparent" points="30.5,-223.7 30.5,-245.7 125.5,-245.7 125.5,-223.7 30.5,-223.7"/>
<polygon fill="none" stroke="#000000" points="30.5,-223.7 30.5,-245.7 125.5,-245.7 125.5,-223.7 30.5,-223.7"/>
<text text-anchor="start" x="50.5" y="-230.8" font-family="Helvetica,sans-Serif" font-size="11.00" fill="#000000">telefone</text>
<polygon fill="none" stroke="#000000" points="30.5,-201.7 30.5,-223.7 125.5,-223.7 125.5,-201.7 30.5,-201.7"/>
<image xlink:href="../../images/foreignKeys.png" width="11px" height="12px" preserveAspectRatio="xMinYMin meet" x="35.5" y="-218.7"/>
<text text-anchor="start" x="50.5" y="-208.8" font-family="Helvetica,sans-Serif" font-size="11.00" fill="#000000">municipio_id</text>
<polygon fill="none" stroke="#000000" points="30.5,-182.7 30.5,-201.7 125.5,-201.7 125.5,-182.7 30.5,-182.7"/>
<text text-anchor="start" x="33.5" y="-188.8" font-family="Helvetica,sans-Serif" font-size="11.00" fill="#000000">...</text>
<polygon fill="#ffffff" stroke="transparent" points="30.5,-163.7 30.5,-182.7 58.5,-182.7 58.5,-163.7 30.5,-163.7"/>
<polygon fill="none" stroke="#000000" points="30.5,-163.7 30.5,-182.7 58.5,-182.7 58.5,-163.7 30.5,-163.7"/>
<text text-anchor="start" x="33.5" y="-169.8" font-family="Helvetica,sans-Serif" font-size="11.00" fill="#000000">&lt; 2</text>
<polygon fill="#ffffff" stroke="transparent" points="58.5,-163.7 58.5,-182.7 100.5,-182.7 100.5,-163.7 58.5,-163.7"/>
<polygon fill="none" stroke="#000000" points="58.5,-163.7 58.5,-182.7 100.5,-182.7 100.5,-163.7 58.5,-163.7"/>
<text text-anchor="start" x="65.1105" y="-169.8" font-family="Helvetica,sans-Serif" font-size="11.00" fill="#000000">0 rows</text>
<polygon fill="#ffffff" stroke="transparent" points="100.5,-163.7 100.5,-182.7 125.5,-182.7 125.5,-163.7 100.5,-163.7"/>
<polygon fill="none" stroke="#000000" points="100.5,-163.7 100.5,-182.7 125.5,-182.7 125.5,-163.7 100.5,-163.7"/>
<text text-anchor="start" x="106.9053" y="-169.8" font-family="Helvetica,sans-Serif" font-size="11.00" fill="#000000">2 &gt;</text>
</a>
</g>
</g>
<!-- pessoa_interessa_animal&#45;&gt;pessoa -->
<g id="edge2" class="edge">
<title>pessoa_interessa_animal:w&#45;&gt;pessoa:e</title>
<path fill="none" stroke="#000000" d="M184.1047,-196.7386C158.0404,-209.3231 162.6642,-256.7 125.5,-256.7"/>
<polygon fill="#000000" stroke="#000000" points="190.6725,-195.3523 199.2435,-197.2224 194.5862,-194.5262 198.5,-193.7 198.5,-193.7 198.5,-193.7 194.5862,-194.5262 197.7565,-190.1776 190.6725,-195.3523 190.6725,-195.3523"/>
<ellipse fill="none" stroke="#000000" cx="187.5415" cy="-196.0132" rx="3.2" ry="3.2"/>
</g>
</g>
</svg>
