<?xml version="1.0" encoding="UTF-8" standalone="no"?>
<!DOCTYPE svg PUBLIC "-//W3C//DTD SVG 1.1//EN"
 "http://www.w3.org/Graphics/SVG/1.1/DTD/svg11.dtd">
<!-- Generated by graphviz version 2.40.1 (20161225.0304)
 -->
<!-- Title: oneDegreeRelationshipsDiagram Pages: 1 -->
<svg width="561pt" height="384pt"
 viewBox="0.00 0.00 561.00 383.70" xmlns="http://www.w3.org/2000/svg" xmlns:xlink="http://www.w3.org/1999/xlink">
<g id="graph0" class="graph" transform="scale(1 1) rotate(0) translate(4 379.7)">
<title>oneDegreeRelationshipsDiagram</title>
<polygon fill="#ffffff" stroke="transparent" points="-4,4 -4,-379.7 557,-379.7 557,4 -4,4"/>
<text text-anchor="middle" x="72.4936" y="-7.3" font-family="Helvetica,sans-Serif" font-size="11.00" fill="#000000">Generated by SchemaSpy</text>
<!-- pessoa -->
<g id="node1" class="node">
<title>pessoa</title>
<g id="a_node1"><a xlink:href="../../tables/pessoa.html" xlink:title="pessoa" target="_top">
<polygon fill="#ffffff" stroke="transparent" points="146,-99.2 146,-277.2 312,-277.2 312,-99.2 146,-99.2"/>
<polygon fill="#f5f5f5" stroke="transparent" points="148,-252.2 148,-275.2 310,-275.2 310,-252.2 148,-252.2"/>
<polygon fill="none" stroke="#000000" points="148,-252.2 148,-275.2 310,-275.2 310,-252.2 148,-252.2"/>
<text text-anchor="start" x="153" y="-261.3" font-family="Helvetica,sans-Serif" font-weight="bold" font-size="11.00" fill="#000000">pessoa</text>
<text text-anchor="start" x="275.0437" y="-260.3" font-family="Helvetica,sans-Serif" font-size="11.00" fill="#000000">[table]</text>
<polygon fill="none" stroke="#000000" points="148,-230.2 148,-252.2 243,-252.2 243,-230.2 148,-230.2"/>
<image xlink:href="../../images/primaryKeys.png" width="11px" height="12px" preserveAspectRatio="xMinYMin meet" x="153" y="-247.2"/>
<text text-anchor="start" x="168" y="-237.3" font-family="Helvetica,sans-Serif" font-size="11.00" fill="#000000">usuario_id</text>
<polygon fill="none" stroke="#000000" points="243,-230.2 243,-252.2 310,-252.2 310,-230.2 243,-230.2"/>
<text text-anchor="start" x="246" y="-237.9" font-family="Helvetica,sans-Serif" font-size="11.00" fill="#000000">int4[10]</text>
<polygon fill="#ffffff" stroke="transparent" points="148,-208.2 148,-230.2 243,-230.2 243,-208.2 148,-208.2"/>
<polygon fill="none" stroke="#000000" points="148,-208.2 148,-230.2 243,-230.2 243,-208.2 148,-208.2"/>
<text text-anchor="start" x="168" y="-215.3" font-family="Helvetica,sans-Serif" font-size="11.00" fill="#000000">telefone</text>
<polygon fill="none" stroke="#000000" points="243,-208.2 243,-230.2 310,-230.2 310,-208.2 243,-208.2"/>
<text text-anchor="start" x="246" y="-215.9" font-family="Helvetica,sans-Serif" font-size="11.00" fill="#000000">varchar[20]</text>
<polygon fill="none" stroke="#000000" points="148,-186.2 148,-208.2 243,-208.2 243,-186.2 148,-186.2"/>
<text text-anchor="start" x="168" y="-193.3" font-family="Helvetica,sans-Serif" font-size="11.00" fill="#000000">logradouro</text>
<polygon fill="none" stroke="#000000" points="243,-186.2 243,-208.2 310,-208.2 310,-186.2 243,-186.2"/>
<text text-anchor="start" x="245.9365" y="-193.9" font-family="Helvetica,sans-Serif" font-size="11.00" fill="#000000">varchar[100]</text>
<polygon fill="none" stroke="#000000" points="148,-164.2 148,-186.2 243,-186.2 243,-164.2 148,-164.2"/>
<text text-anchor="start" x="168" y="-171.3" font-family="Helvetica,sans-Serif" font-size="11.00" fill="#000000">numero</text>
<polygon fill="none" stroke="#000000" points="243,-164.2 243,-186.2 310,-186.2 310,-164.2 243,-164.2"/>
<text text-anchor="start" x="246" y="-171.9" font-family="Helvetica,sans-Serif" font-size="11.00" fill="#000000">varchar[10]</text>
<polygon fill="none" stroke="#000000" points="148,-142.2 148,-164.2 243,-164.2 243,-142.2 148,-142.2"/>
<text text-anchor="start" x="168" y="-149.3" font-family="Helvetica,sans-Serif" font-size="11.00" fill="#000000">cep</text>
<polygon fill="none" stroke="#000000" points="243,-142.2 243,-164.2 310,-164.2 310,-142.2 243,-142.2"/>
<text text-anchor="start" x="246" y="-149.9" font-family="Helvetica,sans-Serif" font-size="11.00" fill="#000000">varchar[10]</text>
<polygon fill="none" stroke="#000000" points="148,-120.2 148,-142.2 243,-142.2 243,-120.2 148,-120.2"/>
<image xlink:href="../../images/foreignKeys.png" width="11px" height="12px" preserveAspectRatio="xMinYMin meet" x="153" y="-137.2"/>
<text text-anchor="start" x="168" y="-127.3" font-family="Helvetica,sans-Serif" font-size="11.00" fill="#000000">municipio_id</text>
<polygon fill="none" stroke="#000000" points="243,-120.2 243,-142.2 310,-142.2 310,-120.2 243,-120.2"/>
<text text-anchor="start" x="246" y="-127.9" font-family="Helvetica,sans-Serif" font-size="11.00" fill="#000000">int4[10]</text>
<polygon fill="#ffffff" stroke="transparent" points="148,-101.2 148,-120.2 187,-120.2 187,-101.2 148,-101.2"/>
<polygon fill="none" stroke="#000000" points="148,-101.2 148,-120.2 187,-120.2 187,-101.2 148,-101.2"/>
<text text-anchor="start" x="151" y="-107.3" font-family="Helvetica,sans-Serif" font-size="11.00" fill="#000000">&lt; 2</text>
<polygon fill="#ffffff" stroke="transparent" points="187,-101.2 187,-120.2 243,-120.2 243,-101.2 187,-101.2"/>
<polygon fill="none" stroke="#000000" points="187,-101.2 187,-120.2 243,-120.2 243,-101.2 187,-101.2"/>
<text text-anchor="start" x="207.6105" y="-107.3" font-family="Helvetica,sans-Serif" font-size="11.00" fill="#000000">0 rows</text>
<polygon fill="#ffffff" stroke="transparent" points="243,-101.2 243,-120.2 310,-120.2 310,-101.2 243,-101.2"/>
<polygon fill="none" stroke="#000000" points="243,-101.2 243,-120.2 310,-120.2 310,-101.2 243,-101.2"/>
<text text-anchor="start" x="291.4053" y="-107.3" font-family="Helvetica,sans-Serif" font-size="11.00" fill="#000000">2 &gt;</text>
<polygon fill="none" stroke="#000000" stroke-width="2" points="147,-100.2 147,-276.2 311,-276.2 311,-100.2 147,-100.2"/>
</a>
</g>
</g>
<!-- municipio -->
<g id="node2" class="node">
<title>municipio</title>
<g id="a_node2"><a xlink:href="../../tables/municipio.html" xlink:title="municipio" target="_top">
<polygon fill="#ffffff" stroke="transparent" points="8,-38.2 8,-146.2 97,-146.2 97,-38.2 8,-38.2"/>
<polygon fill="#f5f5f5" stroke="transparent" points="8.5,-123.2 8.5,-146.2 97.5,-146.2 97.5,-123.2 8.5,-123.2"/>
<polygon fill="none" stroke="#000000" points="8.5,-123.2 8.5,-146.2 97.5,-146.2 97.5,-123.2 8.5,-123.2"/>
<text text-anchor="start" x="13.2779" y="-132.3" font-family="Helvetica,sans-Serif" font-weight="bold" font-size="11.00" fill="#000000">municipio</text>
<text text-anchor="start" x="63.0219" y="-131.3" font-family="Helvetica,sans-Serif" font-size="11.00" fill="#000000">[table]</text>
<polygon fill="none" stroke="#000000" points="8.5,-101.2 8.5,-123.2 97.5,-123.2 97.5,-101.2 8.5,-101.2"/>
<image xlink:href="../../images/primaryKeys.png" width="11px" height="12px" preserveAspectRatio="xMinYMin meet" x="13.5" y="-118.2"/>
<text text-anchor="start" x="34.5" y="-108.3" font-family="Helvetica,sans-Serif" font-size="11.00" fill="#000000">id</text>
<polygon fill="#ffffff" stroke="transparent" points="8.5,-79.2 8.5,-101.2 97.5,-101.2 97.5,-79.2 8.5,-79.2"/>
<polygon fill="none" stroke="#000000" points="8.5,-79.2 8.5,-101.2 97.5,-101.2 97.5,-79.2 8.5,-79.2"/>
<text text-anchor="start" x="34.5" y="-86.3" font-family="Helvetica,sans-Serif" font-size="11.00" fill="#000000">uf</text>
<polygon fill="#ffffff" stroke="transparent" points="8.5,-57.2 8.5,-79.2 97.5,-79.2 97.5,-57.2 8.5,-57.2"/>
<polygon fill="none" stroke="#000000" points="8.5,-57.2 8.5,-79.2 97.5,-79.2 97.5,-57.2 8.5,-57.2"/>
<text text-anchor="start" x="34.5" y="-64.3" font-family="Helvetica,sans-Serif" font-size="11.00" fill="#000000">nome</text>
<polygon fill="#ffffff" stroke="transparent" points="8.5,-38.2 8.5,-57.2 29.5,-57.2 29.5,-38.2 8.5,-38.2"/>
<polygon fill="none" stroke="#000000" points="8.5,-38.2 8.5,-57.2 29.5,-57.2 29.5,-38.2 8.5,-38.2"/>
<text text-anchor="start" x="11.5" y="-44.3" font-family="Helvetica,sans-Serif" font-size="11.00" fill="#000000"> &#160;</text>
<polygon fill="#ffffff" stroke="transparent" points="29.5,-38.2 29.5,-57.2 71.5,-57.2 71.5,-38.2 29.5,-38.2"/>
<polygon fill="none" stroke="#000000" points="29.5,-38.2 29.5,-57.2 71.5,-57.2 71.5,-38.2 29.5,-38.2"/>
<text text-anchor="start" x="36.1105" y="-44.3" font-family="Helvetica,sans-Serif" font-size="11.00" fill="#000000">0 rows</text>
<polygon fill="#ffffff" stroke="transparent" points="71.5,-38.2 71.5,-57.2 97.5,-57.2 97.5,-38.2 71.5,-38.2"/>
<polygon fill="none" stroke="#000000" points="71.5,-38.2 71.5,-57.2 97.5,-57.2 97.5,-38.2 71.5,-38.2"/>
<text text-anchor="start" x="78.9053" y="-44.3" font-family="Helvetica,sans-Serif" font-size="11.00" fill="#000000">2 &gt;</text>
</a>
</g>
</g>
<!-- pessoa&#45;&gt;municipio -->
<g id="edge1" class="edge">
<title>pessoa:w&#45;&gt;municipio:e</title>
<path fill="none" stroke="#000000" d="M133.7405,-128.3965C121.532,-123.1113 115.6727,-112.2 97.5,-112.2"/>
<polygon fill="#000000" stroke="#000000" points="140.1503,-129.6567 147.3055,-134.7324 144.0751,-130.4283 148,-131.2 148,-131.2 148,-131.2 144.0751,-130.4283 148.6945,-127.6676 140.1503,-129.6567 140.1503,-129.6567"/>
<ellipse fill="none" stroke="#000000" cx="137.0104" cy="-129.0393" rx="3.2" ry="3.2"/>
</g>
<!-- usuario -->
<g id="node3" class="node">
<title>usuario</title>
<g id="a_node3"><a xlink:href="../../tables/usuario.html" xlink:title="usuario" target="_top">
<polygon fill="#ffffff" stroke="transparent" points="13,-167.7 13,-294.7 92,-294.7 92,-167.7 13,-167.7"/>
<polygon fill="#f5f5f5" stroke="transparent" points="13.5,-271.2 13.5,-294.2 92.5,-294.2 92.5,-271.2 13.5,-271.2"/>
<polygon fill="none" stroke="#000000" points="13.5,-271.2 13.5,-294.2 92.5,-294.2 92.5,-271.2 13.5,-271.2"/>
<text text-anchor="start" x="18.4688" y="-280.3" font-family="Helvetica,sans-Serif" font-weight="bold" font-size="11.00" fill="#000000">usuario</text>
<text text-anchor="start" x="58.0219" y="-279.3" font-family="Helvetica,sans-Serif" font-size="11.00" fill="#000000">[table]</text>
<polygon fill="none" stroke="#000000" points="13.5,-249.2 13.5,-271.2 92.5,-271.2 92.5,-249.2 13.5,-249.2"/>
<image xlink:href="../../images/primaryKeys.png" width="11px" height="12px" preserveAspectRatio="xMinYMin meet" x="18.5" y="-266.2"/>
<text text-anchor="start" x="38.5" y="-256.3" font-family="Helvetica,sans-Serif" font-size="11.00" fill="#000000">id</text>
<polygon fill="#ffffff" stroke="transparent" points="13.5,-227.2 13.5,-249.2 92.5,-249.2 92.5,-227.2 13.5,-227.2"/>
<polygon fill="none" stroke="#000000" points="13.5,-227.2 13.5,-249.2 92.5,-249.2 92.5,-227.2 13.5,-227.2"/>
<text text-anchor="start" x="38.5" y="-234.3" font-family="Helvetica,sans-Serif" font-size="11.00" fill="#000000">email</text>
<polygon fill="#ffffff" stroke="transparent" points="13.5,-205.2 13.5,-227.2 92.5,-227.2 92.5,-205.2 13.5,-205.2"/>
<polygon fill="none" stroke="#000000" points="13.5,-205.2 13.5,-227.2 92.5,-227.2 92.5,-205.2 13.5,-205.2"/>
<text text-anchor="start" x="38.5" y="-212.3" font-family="Helvetica,sans-Serif" font-size="11.00" fill="#000000">celular</text>
<polygon fill="none" stroke="#000000" points="13.5,-186.2 13.5,-205.2 92.5,-205.2 92.5,-186.2 13.5,-186.2"/>
<text text-anchor="start" x="16.5" y="-192.3" font-family="Helvetica,sans-Serif" font-size="11.00" fill="#000000">...</text>
<polygon fill="#ffffff" stroke="transparent" points="13.5,-167.2 13.5,-186.2 29.5,-186.2 29.5,-167.2 13.5,-167.2"/>
<polygon fill="none" stroke="#000000" points="13.5,-167.2 13.5,-186.2 29.5,-186.2 29.5,-167.2 13.5,-167.2"/>
<text text-anchor="start" x="16.5" y="-173.3" font-family="Helvetica,sans-Serif" font-size="11.00" fill="#000000"> &#160;</text>
<polygon fill="#ffffff" stroke="transparent" points="29.5,-167.2 29.5,-186.2 69.5,-186.2 69.5,-167.2 29.5,-167.2"/>
<polygon fill="none" stroke="#000000" points="29.5,-167.2 29.5,-186.2 69.5,-186.2 69.5,-167.2 29.5,-167.2"/>
<text text-anchor="start" x="34.1105" y="-173.3" font-family="Helvetica,sans-Serif" font-size="11.00" fill="#000000">0 rows</text>
<polygon fill="#ffffff" stroke="transparent" points="69.5,-167.2 69.5,-186.2 92.5,-186.2 92.5,-167.2 69.5,-167.2"/>
<polygon fill="none" stroke="#000000" points="69.5,-167.2 69.5,-186.2 92.5,-186.2 92.5,-167.2 69.5,-167.2"/>
<text text-anchor="start" x="73.9053" y="-173.3" font-family="Helvetica,sans-Serif" font-size="11.00" fill="#000000">2 &gt;</text>
</a>
</g>
</g>
<!-- pessoa&#45;&gt;usuario -->
<g id="edge2" class="edge">
<title>pessoa:w&#45;&gt;usuario:e</title>
<path fill="none" stroke="#000000" d="M137.2692,-242.4466C120.3246,-246.6736 114.4983,-260.2 92.5,-260.2"/>
<polygon fill="#000000" stroke="#000000" points="146.7437,-237.319 147.667,-245.2656 146.0777,-245.4503 145.1544,-237.5037 146.7437,-237.319"/>
<polyline fill="none" stroke="#000000" points="148,-241.2 144.0267,-241.6616 "/>
<ellipse fill="none" stroke="#000000" cx="140.8481" cy="-242.0309" rx="3.2" ry="3.2"/>
</g>
<!-- pessoa_cadastra_campanha -->
<g id="node4" class="node">
<title>pessoa_cadastra_campanha</title>
<g id="a_node4"><a xlink:href="../../tables/pessoa_cadastra_campanha.html" xlink:title="pessoa_cadastra_campanha" target="_top">
<polygon fill="#ffffff" stroke="transparent" points="361,-244.7 361,-371.7 545,-371.7 545,-244.7 361,-244.7"/>
<polygon fill="#f5f5f5" stroke="transparent" points="361,-348.2 361,-371.2 545,-371.2 545,-348.2 361,-348.2"/>
<polygon fill="none" stroke="#000000" points="361,-348.2 361,-371.2 545,-371.2 545,-348.2 361,-348.2"/>
<text text-anchor="start" x="365.8905" y="-357.3" font-family="Helvetica,sans-Serif" font-weight="bold" font-size="11.00" fill="#000000">pessoa_cadastra_campanha</text>
<text text-anchor="start" x="510.5219" y="-356.3" font-family="Helvetica,sans-Serif" font-size="11.00" fill="#000000">[table]</text>
<polygon fill="none" stroke="#000000" points="361,-326.2 361,-348.2 545,-348.2 545,-326.2 361,-326.2"/>
<image xlink:href="../../images/primaryKeys.png" width="11px" height="12px" preserveAspectRatio="xMinYMin meet" x="366" y="-343.2"/>
<text text-anchor="start" x="381" y="-333.3" font-family="Helvetica,sans-Serif" font-size="11.00" fill="#000000">id</text>
<polygon fill="#ffffff" stroke="transparent" points="361,-304.2 361,-326.2 545,-326.2 545,-304.2 361,-304.2"/>
<polygon fill="none" stroke="#000000" points="361,-304.2 361,-326.2 545,-326.2 545,-304.2 361,-304.2"/>
<image xlink:href="../../images/foreignKeys.png" width="11px" height="12px" preserveAspectRatio="xMinYMin meet" x="366" y="-321.2"/>
<text text-anchor="start" x="381" y="-311.3" font-family="Helvetica,sans-Serif" font-size="11.00" fill="#000000">pessoa_id</text>
<polygon fill="#ffffff" stroke="transparent" points="361,-282.2 361,-304.2 545,-304.2 545,-282.2 361,-282.2"/>
<polygon fill="none" stroke="#000000" points="361,-282.2 361,-304.2 545,-304.2 545,-282.2 361,-282.2"/>
<image xlink:href="../../images/foreignKeys.png" width="11px" height="12px" preserveAspectRatio="xMinYMin meet" x="366" y="-299.2"/>
<text text-anchor="start" x="381" y="-289.3" font-family="Helvetica,sans-Serif" font-size="11.00" fill="#000000">campanha_id</text>
<polygon fill="none" stroke="#000000" points="361,-263.2 361,-282.2 545,-282.2 545,-263.2 361,-263.2"/>
<text text-anchor="start" x="364" y="-269.3" font-family="Helvetica,sans-Serif" font-size="11.00" fill="#000000">...</text>
<polygon fill="#ffffff" stroke="transparent" points="361,-244.2 361,-263.2 438,-263.2 438,-244.2 361,-244.2"/>
<polygon fill="none" stroke="#000000" points="361,-244.2 361,-263.2 438,-263.2 438,-244.2 361,-244.2"/>
<text text-anchor="start" x="364" y="-250.3" font-family="Helvetica,sans-Serif" font-size="11.00" fill="#000000">&lt; 2</text>
<polygon fill="#ffffff" stroke="transparent" points="438,-244.2 438,-263.2 504,-263.2 504,-244.2 438,-244.2"/>
<polygon fill="none" stroke="#000000" points="438,-244.2 438,-263.2 504,-263.2 504,-244.2 438,-244.2"/>
<text text-anchor="start" x="468.6105" y="-250.3" font-family="Helvetica,sans-Serif" font-size="11.00" fill="#000000">0 rows</text>
<polygon fill="#ffffff" stroke="transparent" points="504,-244.2 504,-263.2 545,-263.2 545,-244.2 504,-244.2"/>
<polygon fill="none" stroke="#000000" points="504,-244.2 504,-263.2 545,-263.2 545,-244.2 504,-244.2"/>
<text text-anchor="start" x="535.8862" y="-250.3" font-family="Helvetica,sans-Serif" font-size="11.00" fill="#000000"> &#160;</text>
</a>
</g>
</g>
<!-- pessoa_cadastra_campanha&#45;&gt;pessoa -->
<g id="edge3" class="edge">
<title>pessoa_cadastra_campanha:w&#45;&gt;pessoa:e</title>
<path fill="none" stroke="#000000" d="M347.0503,-310.571C328.2607,-294.3706 343.8581,-241.2 310,-241.2"/>
<polygon fill="#000000" stroke="#000000" points="353.4071,-312.6804 359.8662,-318.6168 357.2036,-313.9402 361,-315.2 361,-315.2 361,-315.2 357.2036,-313.9402 362.1338,-311.7832 353.4071,-312.6804 353.4071,-312.6804"/>
<ellipse fill="none" stroke="#000000" cx="350.37" cy="-311.6725" rx="3.2" ry="3.2"/>
</g>
<!-- pessoa_interessa_animal -->
<g id="node5" class="node">
<title>pessoa_interessa_animal</title>
<g id="a_node5"><a xlink:href="../../tables/pessoa_interessa_animal.html" xlink:title="pessoa_interessa_animal" target="_top">
<polygon fill="#ffffff" stroke="transparent" points="369.5,-96.7 369.5,-223.7 536.5,-223.7 536.5,-96.7 369.5,-96.7"/>
<polygon fill="#f5f5f5" stroke="transparent" points="370,-200.2 370,-223.2 537,-223.2 537,-200.2 370,-200.2"/>
<polygon fill="none" stroke="#000000" points="370,-200.2 370,-223.2 537,-223.2 537,-200.2 370,-200.2"/>
<text text-anchor="start" x="374.6515" y="-209.3" font-family="Helvetica,sans-Serif" font-weight="bold" font-size="11.00" fill="#000000">pessoa_interessa_animal</text>
<text text-anchor="start" x="502.5219" y="-208.3" font-family="Helvetica,sans-Serif" font-size="11.00" fill="#000000">[table]</text>
<polygon fill="none" stroke="#000000" points="370,-178.2 370,-200.2 537,-200.2 537,-178.2 370,-178.2"/>
<image xlink:href="../../images/primaryKeys.png" width="11px" height="12px" preserveAspectRatio="xMinYMin meet" x="375" y="-195.2"/>
<text text-anchor="start" x="391" y="-185.3" font-family="Helvetica,sans-Serif" font-size="11.00" fill="#000000">id</text>
<polygon fill="#ffffff" stroke="transparent" points="370,-156.2 370,-178.2 537,-178.2 537,-156.2 370,-156.2"/>
<polygon fill="none" stroke="#000000" points="370,-156.2 370,-178.2 537,-178.2 537,-156.2 370,-156.2"/>
<image xlink:href="../../images/foreignKeys.png" width="11px" height="12px" preserveAspectRatio="xMinYMin meet" x="375" y="-173.2"/>
<text text-anchor="start" x="391" y="-163.3" font-family="Helvetica,sans-Serif" font-size="11.00" fill="#000000">pessoa_id</text>
<polygon fill="#ffffff" stroke="transparent" points="370,-134.2 370,-156.2 537,-156.2 537,-134.2 370,-134.2"/>
<polygon fill="none" stroke="#000000" points="370,-134.2 370,-156.2 537,-156.2 537,-134.2 370,-134.2"/>
<image xlink:href="../../images/foreignKeys.png" width="11px" height="12px" preserveAspectRatio="xMinYMin meet" x="375" y="-151.2"/>
<text text-anchor="start" x="391" y="-141.3" font-family="Helvetica,sans-Serif" font-size="11.00" fill="#000000">animal_id</text>
<polygon fill="none" stroke="#000000" points="370,-115.2 370,-134.2 537,-134.2 537,-115.2 370,-115.2"/>
<text text-anchor="start" x="373" y="-121.3" font-family="Helvetica,sans-Serif" font-size="11.00" fill="#000000">...</text>
<polygon fill="#ffffff" stroke="transparent" points="370,-96.2 370,-115.2 439,-115.2 439,-96.2 370,-96.2"/>
<polygon fill="none" stroke="#000000" points="370,-96.2 370,-115.2 439,-115.2 439,-96.2 370,-96.2"/>
<text text-anchor="start" x="373" y="-102.3" font-family="Helvetica,sans-Serif" font-size="11.00" fill="#000000">&lt; 2</text>
<polygon fill="#ffffff" stroke="transparent" points="439,-96.2 439,-115.2 501,-115.2 501,-96.2 439,-96.2"/>
<polygon fill="none" stroke="#000000" points="439,-96.2 439,-115.2 501,-115.2 501,-96.2 439,-96.2"/>
<text text-anchor="start" x="465.6105" y="-102.3" font-family="Helvetica,sans-Serif" font-size="11.00" fill="#000000">0 rows</text>
<polygon fill="#ffffff" stroke="transparent" points="501,-96.2 501,-115.2 537,-115.2 537,-96.2 501,-96.2"/>
<polygon fill="none" stroke="#000000" points="501,-96.2 501,-115.2 537,-115.2 537,-96.2 501,-96.2"/>
<text text-anchor="start" x="527.8862" y="-102.3" font-family="Helvetica,sans-Serif" font-size="11.00" fill="#000000"> &#160;</text>
</a>
</g>
</g>
<!-- pessoa_interessa_animal&#45;&gt;pessoa -->
<g id="edge4" class="edge">
<title>pessoa_interessa_animal:w&#45;&gt;pessoa:e</title>
<path fill="none" stroke="#000000" d="M356.0493,-170.9714C333.155,-186.0512 346.5525,-241.2 310,-241.2"/>
<polygon fill="#000000" stroke="#000000" points="362.2772,-169.2878 370.9395,-170.6752 366.1386,-168.2439 370,-167.2 370,-167.2 370,-167.2 366.1386,-168.2439 369.0605,-163.7248 362.2772,-169.2878 362.2772,-169.2878"/>
<ellipse fill="none" stroke="#000000" cx="359.1881" cy="-170.1229" rx="3.2" ry="3.2"/>
</g>
</g>
</svg>
