<?xml version="1.0" encoding="UTF-8" standalone="no"?>
<!DOCTYPE svg PUBLIC "-//W3C//DTD SVG 1.1//EN"
 "http://www.w3.org/Graphics/SVG/1.1/DTD/svg11.dtd">
<!-- Generated by graphviz version 2.40.1 (20161225.0304)
 -->
<!-- Title: oneDegreeRelationshipsDiagram Pages: 1 -->
<svg width="561pt" height="351pt"
 viewBox="0.00 0.00 561.00 350.70" xmlns="http://www.w3.org/2000/svg" xmlns:xlink="http://www.w3.org/1999/xlink">
<g id="graph0" class="graph" transform="scale(1 1) rotate(0) translate(4 346.7)">
<title>oneDegreeRelationshipsDiagram</title>
<polygon fill="#ffffff" stroke="transparent" points="-4,4 -4,-346.7 557,-346.7 557,4 -4,4"/>
<text text-anchor="middle" x="72.4936" y="-7.3" font-family="Helvetica,sans-Serif" font-size="11.00" fill="#000000">Generated by SchemaSpy</text>
<!-- pessoa -->
<g id="node1" class="node">
<title>pessoa</title>
<g id="a_node1"><a xlink:href="../../tables/pessoa.html" xlink:title="pessoa" target="_top">
<polygon fill="#ffffff" stroke="transparent" points="146,-99.2 146,-277.2 312,-277.2 312,-99.2 146,-99.2"/>
<polygon fill="#f5f5f5" stroke="transparent" points="148,-252.2 148,-275.2 310,-275.2 310,-252.2 148,-252.2"/>
<polygon fill="none" stroke="#000000" points="148,-252.2 148,-275.2 310,-275.2 310,-252.2 148,-252.2"/>
<text text-anchor="start" x="153" y="-261.3" font-family="Helvetica,sans-Serif" font-weight="bold" font-size="11.00" fill="#000000">pessoa</text>
<text text-anchor="start" x="275.0437" y="-260.3" font-family="Helvetica,sans-Serif" font-size="11.00" fill="#000000">[table]</text>
<polygon fill="none" stroke="#000000" points="148,-230.2 148,-252.2 243,-252.2 243,-230.2 148,-230.2"/>
<image xlink:href="../../images/primaryKeys.png" width="11px" height="12px" preserveAspectRatio="xMinYMin meet" x="153" y="-247.2"/>
<text text-anchor="start" x="168" y="-237.3" font-family="Helvetica,sans-Serif" font-size="11.00" fill="#000000">usuario_id</text>
<polygon fill="none" stroke="#000000" points="243,-230.2 243,-252.2 310,-252.2 310,-230.2 243,-230.2"/>
<text text-anchor="start" x="246" y="-237.9" font-family="Helvetica,sans-Serif" font-size="11.00" fill="#000000">int4[10]</text>
<polygon fill="#ffffff" stroke="transparent" points="148,-208.2 148,-230.2 243,-230.2 243,-208.2 148,-208.2"/>
<polygon fill="none" stroke="#000000" points="148,-208.2 148,-230.2 243,-230.2 243,-208.2 148,-208.2"/>
<text text-anchor="start" x="168" y="-215.3" font-family="Helvetica,sans-Serif" font-size="11.00" fill="#000000">telefone</text>
<polygon fill="none" stroke="#000000" points="243,-208.2 243,-230.2 310,-230.2 310,-208.2 243,-208.2"/>
<text text-anchor="start" x="246" y="-215.9" font-family="Helvetica,sans-Serif" font-size="11.00" fill="#000000">varchar[20]</text>
<polygon fill="none" stroke="#000000" points="148,-186.2 148,-208.2 243,-208.2 243,-186.2 148,-186.2"/>
<text text-anchor="start" x="168" y="-193.3" font-family="Helvetica,sans-Serif" font-size="11.00" fill="#000000">logradouro</text>
<polygon fill="none" stroke="#000000" points="243,-186.2 243,-208.2 310,-208.2 310,-186.2 243,-186.2"/>
<text text-anchor="start" x="245.9365" y="-193.9" font-family="Helvetica,sans-Serif" font-size="11.00" fill="#000000">varchar[100]</text>
<polygon fill="none" stroke="#000000" points="148,-164.2 148,-186.2 243,-186.2 243,-164.2 148,-164.2"/>
<text text-anchor="start" x="168" y="-171.3" font-family="Helvetica,sans-Serif" font-size="11.00" fill="#000000">numero</text>
<polygon fill="none" stroke="#000000" points="243,-164.2 243,-186.2 310,-186.2 310,-164.2 243,-164.2"/>
<text text-anchor="start" x="246" y="-171.9" font-family="Helvetica,sans-Serif" font-size="11.00" fill="#000000">varchar[10]</text>
<polygon fill="none" stroke="#000000" points="148,-142.2 148,-164.2 243,-164.2 243,-142.2 148,-142.2"/>
<text text-anchor="start" x="168" y="-149.3" font-family="Helvetica,sans-Serif" font-size="11.00" fill="#000000">cep</text>
<polygon fill="none" stroke="#000000" points="243,-142.2 243,-164.2 310,-164.2 310,-142.2 243,-142.2"/>
<text text-anchor="start" x="246" y="-149.9" font-family="Helvetica,sans-Serif" font-size="11.00" fill="#000000">varchar[10]</text>
<polygon fill="none" stroke="#000000" points="148,-120.2 148,-142.2 243,-142.2 243,-120.2 148,-120.2"/>
<image xlink:href="../../images/foreignKeys.png" width="11px" height="12px" preserveAspectRatio="xMinYMin meet" x="153" y="-137.2"/>
<text text-anchor="start" x="168" y="-127.3" font-family="Helvetica,sans-Serif" font-size="11.00" fill="#000000">municipio_id</text>
<polygon fill="none" stroke="#000000" points="243,-120.2 243,-142.2 310,-142.2 310,-120.2 243,-120.2"/>
<text text-anchor="start" x="246" y="-127.9" font-family="Helvetica,sans-Serif" font-size="11.00" fill="#000000">int4[10]</text>
<polygon fill="#ffffff" stroke="transparent" points="148,-101.2 148,-120.2 187,-120.2 187,-101.2 148,-101.2"/>
<polygon fill="none" stroke="#000000" points="148,-101.2 148,-120.2 187,-120.2 187,-101.2 148,-101.2"/>
<text text-anchor="start" x="151" y="-107.3" font-family="Helvetica,sans-Serif" font-size="11.00" fill="#000000">&lt; 2</text>
<polygon fill="#ffffff" stroke="transparent" points="187,-101.2 187,-120.2 243,-120.2 243,-101.2 187,-101.2"/>
<polygon fill="none" stroke="#000000" points="187,-101.2 187,-120.2 243,-120.2 243,-101.2 187,-101.2"/>
<text text-anchor="start" x="207.6105" y="-107.3" font-family="Helvetica,sans-Serif" font-size="11.00" fill="#000000">0 rows</text>
<polygon fill="#ffffff" stroke="transparent" points="243,-101.2 243,-120.2 310,-120.2 310,-101.2 243,-101.2"/>
<polygon fill="none" stroke="#000000" points="243,-101.2 243,-120.2 310,-120.2 310,-101.2 243,-101.2"/>
<text text-anchor="start" x="291.4053" y="-107.3" font-family="Helvetica,sans-Serif" font-size="11.00" fill="#000000">2 &gt;</text>
<polygon fill="none" stroke="#000000" stroke-width="2" points="147,-100.2 147,-276.2 311,-276.2 311,-100.2 147,-100.2"/>
</a>
</g>
</g>
<!-- municipio -->
<g id="node2" class="node">
<title>municipio</title>
<g id="a_node2"><a xlink:href="../../tables/municipio.html" xlink:title="municipio" target="_top">
<polygon fill="#ffffff" stroke="transparent" points="8,-38.2 8,-146.2 97,-146.2 97,-38.2 8,-38.2"/>
<polygon fill="#f5f5f5" stroke="transparent" points="8.5,-123.2 8.5,-146.2 97.5,-146.2 97.5,-123.2 8.5,-123.2"/>
<polygon fill="none" stroke="#000000" points="8.5,-123.2 8.5,-146.2 97.5,-146.2 97.5,-123.2 8.5,-123.2"/>
<text text-anchor="start" x="13.2779" y="-132.3" font-family="Helvetica,sans-Serif" font-weight="bold" font-size="11.00" fill="#000000">municipio</text>
<text text-anchor="start" x="63.0219" y="-131.3" font-family="Helvetica,sans-Serif" font-size="11.00" fill="#000000">[table]</text>
<polygon fill="none" stroke="#000000" points="8.5,-101.2 8.5,-123.2 97.5,-123.2 97.5,-101.2 8.5,-101.2"/>
<image xlink:href="../../images/primaryKeys.png" width="11px" height="12px" preserveAspectRatio="xMinYMin meet" x="13.5" y="-118.2"/>
<text text-anchor="start" x="34.5" y="-108.3" font-family="Helvetica,sans-Serif" font-size="11.00" fill="#000000">id</text>
<polygon fill="#ffffff" stroke="transparent" points="8.5,-79.2 8.5,-101.2 97.5,-101.2 97.5,-79.2 8.5,-79.2"/>
<polygon fill="none" stroke="#000000" points="8.5,-79.2 8.5,-101.2 97.5,-101.2 97.5,-79.2 8.5,-79.2"/>
<text text-anchor="start" x="34.5" y="-86.3" font-family="Helvetica,sans-Serif" font-size="11.00" fill="#000000">uf</text>
<polygon fill="#ffffff" stroke="transparent" points="8.5,-57.2 8.5,-79.2 97.5,-79.2 97.5,-57.2 8.5,-57.2"/>
<polygon fill="none" stroke="#000000" points="8.5,-57.2 8.5,-79.2 97.5,-79.2 97.5,-57.2 8.5,-57.2"/>
<text text-anchor="start" x="34.5" y="-64.3" font-family="Helvetica,sans-Serif" font-size="11.00" fill="#000000">nome</text>
<polygon fill="#ffffff" stroke="transparent" points="8.5,-38.2 8.5,-57.2 29.5,-57.2 29.5,-38.2 8.5,-38.2"/>
<polygon fill="none" stroke="#000000" points="8.5,-38.2 8.5,-57.2 29.5,-57.2 29.5,-38.2 8.5,-38.2"/>
<text text-anchor="start" x="11.5" y="-44.3" font-family="Helvetica,sans-Serif" font-size="11.00" fill="#000000"> &#160;</text>
<polygon fill="#ffffff" stroke="transparent" points="29.5,-38.2 29.5,-57.2 71.5,-57.2 71.5,-38.2 29.5,-38.2"/>
<polygon fill="none" stroke="#000000" points="29.5,-38.2 29.5,-57.2 71.5,-57.2 71.5,-38.2 29.5,-38.2"/>
<text text-anchor="start" x="36.1105" y="-44.3" font-family="Helvetica,sans-Serif" font-size="11.00" fill="#000000">0 rows</text>
<polygon fill="#ffffff" stroke="transparent" points="71.5,-38.2 71.5,-57.2 97.5,-57.2 97.5,-38.2 71.5,-38.2"/>
<polygon fill="none" stroke="#000000" points="71.5,-38.2 71.5,-57.2 97.5,-57.2 97.5,-38.2 71.5,-38.2"/>
<text text-anchor="start" x="78.9053" y="-44.3" font-family="Helvetica,sans-Serif" font-size="11.00" fill="#000000">2 &gt;</text>
</a>
</g>
</g>
<!-- pessoa&#45;&gt;municipio -->
<g id="edge1" class="edge">
<title>pessoa:w&#45;&gt;municipio:e</title>
<path fill="none" stroke="#000000" d="M133.7405,-128.3965C121.532,-123.1113 115.6727,-112.2 97.5,-112.2"/>
<polygon fill="#000000" stroke="#000000" points="140.1503,-129.6567 147.3055,-134.7324 144.0751,-130.4283 148,-131.2 148,-131.2 148,-131.2 144.0751,-130.4283 148.6945,-127.6676 140.1503,-129.6567 140.1503,-129.6567"/>
<ellipse fill="none" stroke="#000000" cx="137.0104" cy="-129.0393" rx="3.2" ry="3.2"/>
</g>
<!-- usuario -->
<g id="node3" class="node">
<title>usuario</title>
<g id="a_node3"><a xlink:href="../../tables/usuario.html" xlink:title="usuario" target="_top">
<polygon fill="#ffffff" stroke="transparent" points="13,-167.7 13,-294.7 92,-294.7 92,-167.7 13,-167.7"/>
<polygon fill="#f5f5f5" stroke="transparent" points="13.5,-271.2 13.5,-294.2 92.5,-294.2 92.5,-271.2 13.5,-271.2"/>
<polygon fill="none" stroke="#000000" points="13.5,-271.2 13.5,-294.2 92.5,-294.2 92.5,-271.2 13.5,-271.2"/>
<text text-anchor="start" x="18.4688" y="-280.3" font-family="Helvetica,sans-Serif" font-weight="bold" font-size="11.00" fill="#000000">usuario</text>
<text text-anchor="start" x="58.0219" y="-279.3" font-family="Helvetica,sans-Serif" font-size="11.00" fill="#000000">[table]</text>
<polygon fill="none" stroke="#000000" points="13.5,-249.2 13.5,-271.2 92.5,-271.2 92.5,-249.2 13.5,-249.2"/>
<image xlink:href="../../images/primaryKeys.png" width="11px" height="12px" preserveAspectRatio="xMinYMin meet" x="18.5" y="-266.2"/>
<text text-anchor="start" x="38.5" y="-256.3" font-family="Helvetica,sans-Serif" font-size="11.00" fill="#000000">id</text>
<polygon fill="#ffffff" stroke="transparent" points="13.5,-227.2 13.5,-249.2 92.5,-249.2 92.5,-227.2 13.5,-227.2"/>
<polygon fill="none" stroke="#000000" points="13.5,-227.2 13.5,-249.2 92.5,-249.2 92.5,-227.2 13.5,-227.2"/>
<text text-anchor="start" x="38.5" y="-234.3" font-family="Helvetica,sans-Serif" font-size="11.00" fill="#000000">email</text>
<polygon fill="#ffffff" stroke="transparent" points="13.5,-205.2 13.5,-227.2 92.5,-227.2 92.5,-205.2 13.5,-205.2"/>
<polygon fill="none" stroke="#000000" points="13.5,-205.2 13.5,-227.2 92.5,-227.2 92.5,-205.2 13.5,-205.2"/>
<text text-anchor="start" x="38.5" y="-212.3" font-family="Helvetica,sans-Serif" font-size="11.00" fill="#000000">celular</text>
<polygon fill="none" stroke="#000000" points="13.5,-186.2 13.5,-205.2 92.5,-205.2 92.5,-186.2 13.5,-186.2"/>
<text text-anchor="start" x="16.5" y="-192.3" font-family="Helvetica,sans-Serif" font-size="11.00" fill="#000000">...</text>
<polygon fill="#ffffff" stroke="transparent" points="13.5,-167.2 13.5,-186.2 29.5,-186.2 29.5,-167.2 13.5,-167.2"/>
<polygon fill="none" stroke="#000000" points="13.5,-167.2 13.5,-186.2 29.5,-186.2 29.5,-167.2 13.5,-167.2"/>
<text text-anchor="start" x="16.5" y="-173.3" font-family="Helvetica,sans-Serif" font-size="11.00" fill="#000000"> &#160;</text>
<polygon fill="#ffffff" stroke="transparent" points="29.5,-167.2 29.5,-186.2 69.5,-186.2 69.5,-167.2 29.5,-167.2"/>
<polygon fill="none" stroke="#000000" points="29.5,-167.2 29.5,-186.2 69.5,-186.2 69.5,-167.2 29.5,-167.2"/>
<text text-anchor="start" x="34.1105" y="-173.3" font-family="Helvetica,sans-Serif" font-size="11.00" fill="#000000">0 rows</text>
<polygon fill="#ffffff" stroke="transparent" points="69.5,-167.2 69.5,-186.2 92.5,-186.2 92.5,-167.2 69.5,-167.2"/>
<polygon fill="none" stroke="#000000" points="69.5,-167.2 69.5,-186.2 92.5,-186.2 92.5,-167.2 69.5,-167.2"/>
<text text-anchor="start" x="73.9053" y="-173.3" font-family="Helvetica,sans-Serif" font-size="11.00" fill="#000000">2 &gt;</text>
</a>
</g>
</g>
<!-- pessoa&#45;&gt;usuario -->
<g id="edge2" class="edge">
<title>pessoa:w&#45;&gt;usuario:e</title>
<path fill="none" stroke="#000000" d="M137.2692,-242.4466C120.3246,-246.6736 114.4983,-260.2 92.5,-260.2"/>
<polygon fill="#000000" stroke="#000000" points="146.7437,-237.319 147.667,-245.2656 146.0777,-245.4503 145.1544,-237.5037 146.7437,-237.319"/>
<polyline fill="none" stroke="#000000" points="148,-241.2 144.0267,-241.6616 "/>
<ellipse fill="none" stroke="#000000" cx="140.8481" cy="-242.0309" rx="3.2" ry="3.2"/>
</g>
<!-- pessoa_cadastra_campanha -->
<g id="node4" class="node">
<title>pessoa_cadastra_campanha</title>
<g id="a_node4"><a xlink:href="../../tables/pessoa_cadastra_campanha.html" xlink:title="pessoa_cadastra_campanha" target="_top">
<polygon fill="#ffffff" stroke="transparent" points="361,-233.7 361,-338.7 545,-338.7 545,-233.7 361,-233.7"/>
<polygon fill="#f5f5f5" stroke="transparent" points="361,-315.2 361,-338.2 545,-338.2 545,-315.2 361,-315.2"/>
<polygon fill="none" stroke="#000000" points="361,-315.2 361,-338.2 545,-338.2 545,-315.2 361,-315.2"/>
<text text-anchor="start" x="365.8905" y="-324.3" font-family="Helvetica,sans-Serif" font-weight="bold" font-size="11.00" fill="#000000">pessoa_cadastra_campanha</text>
<text text-anchor="start" x="510.5219" y="-323.3" font-family="Helvetica,sans-Serif" font-size="11.00" fill="#000000">[table]</text>
<polygon fill="#ffffff" stroke="transparent" points="361,-293.2 361,-315.2 545,-315.2 545,-293.2 361,-293.2"/>
<polygon fill="none" stroke="#000000" points="361,-293.2 361,-315.2 545,-315.2 545,-293.2 361,-293.2"/>
<image xlink:href="../../images/foreignKeys.png" width="11px" height="12px" preserveAspectRatio="xMinYMin meet" x="366" y="-310.2"/>
<text text-anchor="start" x="381" y="-300.3" font-family="Helvetica,sans-Serif" font-size="11.00" fill="#000000">pessoa_id</text>
<polygon fill="#ffffff" stroke="transparent" points="361,-271.2 361,-293.2 545,-293.2 545,-271.2 361,-271.2"/>
<polygon fill="none" stroke="#000000" points="361,-271.2 361,-293.2 545,-293.2 545,-271.2 361,-271.2"/>
<image xlink:href="../../images/foreignKeys.png" width="11px" height="12px" preserveAspectRatio="xMinYMin meet" x="366" y="-288.2"/>
<text text-anchor="start" x="381" y="-278.3" font-family="Helvetica,sans-Serif" font-size="11.00" fill="#000000">campanha_id</text>
<polygon fill="none" stroke="#000000" points="361,-252.2 361,-271.2 545,-271.2 545,-252.2 361,-252.2"/>
<text text-anchor="start" x="364" y="-258.3" font-family="Helvetica,sans-Serif" font-size="11.00" fill="#000000">...</text>
<polygon fill="#ffffff" stroke="transparent" points="361,-233.2 361,-252.2 438,-252.2 438,-233.2 361,-233.2"/>
<polygon fill="none" stroke="#000000" points="361,-233.2 361,-252.2 438,-252.2 438,-233.2 361,-233.2"/>
<text text-anchor="start" x="364" y="-239.3" font-family="Helvetica,sans-Serif" font-size="11.00" fill="#000000">&lt; 2</text>
<polygon fill="#ffffff" stroke="transparent" points="438,-233.2 438,-252.2 504,-252.2 504,-233.2 438,-233.2"/>
<polygon fill="none" stroke="#000000" points="438,-233.2 438,-252.2 504,-252.2 504,-233.2 438,-233.2"/>
<text text-anchor="start" x="468.6105" y="-239.3" font-family="Helvetica,sans-Serif" font-size="11.00" fill="#000000">0 rows</text>
<polygon fill="#ffffff" stroke="transparent" points="504,-233.2 504,-252.2 545,-252.2 545,-233.2 504,-233.2"/>
<polygon fill="none" stroke="#000000" points="504,-233.2 504,-252.2 545,-252.2 545,-233.2 504,-233.2"/>
<text text-anchor="start" x="535.8862" y="-239.3" font-family="Helvetica,sans-Serif" font-size="11.00" fill="#000000"> &#160;</text>
</a>
</g>
</g>
<!-- pessoa_cadastra_campanha&#45;&gt;pessoa -->
<g id="edge3" class="edge">
<title>pessoa_cadastra_campanha:w&#45;&gt;pessoa:e</title>
<path fill="none" stroke="#000000" d="M346.9033,-299.2565C330.525,-284.4048 339.8329,-241.2 310,-241.2"/>
<polygon fill="#000000" stroke="#000000" points="353.4507,-301.5526 359.8087,-307.5972 357.2254,-302.8763 361,-304.2 361,-304.2 361,-304.2 357.2254,-302.8763 362.1913,-300.8028 353.4507,-301.5526 353.4507,-301.5526"/>
<ellipse fill="none" stroke="#000000" cx="350.431" cy="-300.4936" rx="3.2" ry="3.2"/>
</g>
<!-- pessoa_interessa_animal -->
<g id="node5" class="node">
<title>pessoa_interessa_animal</title>
<g id="a_node5"><a xlink:href="../../tables/pessoa_interessa_animal.html" xlink:title="pessoa_interessa_animal" target="_top">
<polygon fill="#ffffff" stroke="transparent" points="369.5,-107.7 369.5,-212.7 536.5,-212.7 536.5,-107.7 369.5,-107.7"/>
<polygon fill="#f5f5f5" stroke="transparent" points="370,-189.2 370,-212.2 537,-212.2 537,-189.2 370,-189.2"/>
<polygon fill="none" stroke="#000000" points="370,-189.2 370,-212.2 537,-212.2 537,-189.2 370,-189.2"/>
<text text-anchor="start" x="374.6515" y="-198.3" font-family="Helvetica,sans-Serif" font-weight="bold" font-size="11.00" fill="#000000">pessoa_interessa_animal</text>
<text text-anchor="start" x="502.5219" y="-197.3" font-family="Helvetica,sans-Serif" font-size="11.00" fill="#000000">[table]</text>
<polygon fill="#ffffff" stroke="transparent" points="370,-167.2 370,-189.2 537,-189.2 537,-167.2 370,-167.2"/>
<polygon fill="none" stroke="#000000" points="370,-167.2 370,-189.2 537,-189.2 537,-167.2 370,-167.2"/>
<image xlink:href="../../images/foreignKeys.png" width="11px" height="12px" preserveAspectRatio="xMinYMin meet" x="375" y="-184.2"/>
<text text-anchor="start" x="391" y="-174.3" font-family="Helvetica,sans-Serif" font-size="11.00" fill="#000000">pessoa_id</text>
<polygon fill="#ffffff" stroke="transparent" points="370,-145.2 370,-167.2 537,-167.2 537,-145.2 370,-145.2"/>
<polygon fill="none" stroke="#000000" points="370,-145.2 370,-167.2 537,-167.2 537,-145.2 370,-145.2"/>
<image xlink:href="../../images/foreignKeys.png" width="11px" height="12px" preserveAspectRatio="xMinYMin meet" x="375" y="-162.2"/>
<text text-anchor="start" x="391" y="-152.3" font-family="Helvetica,sans-Serif" font-size="11.00" fill="#000000">animal_id</text>
<polygon fill="none" stroke="#000000" points="370,-126.2 370,-145.2 537,-145.2 537,-126.2 370,-126.2"/>
<text text-anchor="start" x="373" y="-132.3" font-family="Helvetica,sans-Serif" font-size="11.00" fill="#000000">...</text>
<polygon fill="#ffffff" stroke="transparent" points="370,-107.2 370,-126.2 439,-126.2 439,-107.2 370,-107.2"/>
<polygon fill="none" stroke="#000000" points="370,-107.2 370,-126.2 439,-126.2 439,-107.2 370,-107.2"/>
<text text-anchor="start" x="373" y="-113.3" font-family="Helvetica,sans-Serif" font-size="11.00" fill="#000000">&lt; 2</text>
<polygon fill="#ffffff" stroke="transparent" points="439,-107.2 439,-126.2 501,-126.2 501,-107.2 439,-107.2"/>
<polygon fill="none" stroke="#000000" points="439,-107.2 439,-126.2 501,-126.2 501,-107.2 439,-107.2"/>
<text text-anchor="start" x="465.6105" y="-113.3" font-family="Helvetica,sans-Serif" font-size="11.00" fill="#000000">0 rows</text>
<polygon fill="#ffffff" stroke="transparent" points="501,-107.2 501,-126.2 537,-126.2 537,-107.2 501,-107.2"/>
<polygon fill="none" stroke="#000000" points="501,-107.2 501,-126.2 537,-126.2 537,-107.2 501,-107.2"/>
<text text-anchor="start" x="527.8862" y="-113.3" font-family="Helvetica,sans-Serif" font-size="11.00" fill="#000000"> &#160;</text>
</a>
</g>
</g>
<!-- pessoa_interessa_animal&#45;&gt;pessoa -->
<g id="edge4" class="edge">
<title>pessoa_interessa_animal:w&#45;&gt;pessoa:e</title>
<path fill="none" stroke="#000000" d="M355.8312,-182.1409C335.3149,-195.9332 342.776,-241.2 310,-241.2"/>
<polygon fill="#000000" stroke="#000000" points="362.2926,-180.3438 370.9647,-181.6683 366.1463,-179.2719 370,-178.2 370,-178.2 370,-178.2 366.1463,-179.2719 369.0353,-174.7317 362.2926,-180.3438 362.2926,-180.3438"/>
<ellipse fill="none" stroke="#000000" cx="359.2096" cy="-181.2013" rx="3.2" ry="3.2"/>
</g>
</g>
</svg>
