<?xml version="1.0" encoding="UTF-8" standalone="no"?>
<!DOCTYPE svg PUBLIC "-//W3C//DTD SVG 1.1//EN"
 "http://www.w3.org/Graphics/SVG/1.1/DTD/svg11.dtd">
<!-- Generated by graphviz version 2.40.1 (20161225.0304)
 -->
<!-- Title: twoDegreesRelationshipsDiagram Pages: 1 -->
<svg width="775pt" height="342pt"
 viewBox="0.00 0.00 775.00 342.20" xmlns="http://www.w3.org/2000/svg" xmlns:xlink="http://www.w3.org/1999/xlink">
<g id="graph0" class="graph" transform="scale(1 1) rotate(0) translate(4 338.2)">
<title>twoDegreesRelationshipsDiagram</title>
<polygon fill="#ffffff" stroke="transparent" points="-4,4 -4,-338.2 771,-338.2 771,4 -4,4"/>
<text text-anchor="middle" x="72.4936" y="-7.3" font-family="Helvetica,sans-Serif" font-size="11.00" fill="#000000">Generated by SchemaSpy</text>
<!-- arquivo_campanha -->
<g id="node1" class="node">
<title>arquivo_campanha</title>
<g id="a_node1"><a xlink:href="../../tables/arquivo_campanha.html" xlink:title="arquivo_campanha" target="_top">
<polygon fill="#ffffff" stroke="transparent" points="564.5,-268.2 564.5,-329.2 700.5,-329.2 700.5,-268.2 564.5,-268.2"/>
<polygon fill="#f5f5f5" stroke="transparent" points="564.5,-305.7 564.5,-328.7 700.5,-328.7 700.5,-305.7 564.5,-305.7"/>
<polygon fill="none" stroke="#000000" points="564.5,-305.7 564.5,-328.7 700.5,-328.7 700.5,-305.7 564.5,-305.7"/>
<text text-anchor="start" x="569.2357" y="-314.8" font-family="Helvetica,sans-Serif" font-weight="bold" font-size="11.00" fill="#000000">arquivo_campanha</text>
<text text-anchor="start" x="666.0219" y="-313.8" font-family="Helvetica,sans-Serif" font-size="11.00" fill="#000000">[table]</text>
<polygon fill="none" stroke="#000000" points="564.5,-286.7 564.5,-305.7 700.5,-305.7 700.5,-286.7 564.5,-286.7"/>
<text text-anchor="start" x="567.5" y="-292.8" font-family="Helvetica,sans-Serif" font-size="11.00" fill="#000000">...</text>
<polygon fill="#ffffff" stroke="transparent" points="564.5,-267.7 564.5,-286.7 617.5,-286.7 617.5,-267.7 564.5,-267.7"/>
<polygon fill="none" stroke="#000000" points="564.5,-267.7 564.5,-286.7 617.5,-286.7 617.5,-267.7 564.5,-267.7"/>
<text text-anchor="start" x="567.5" y="-273.8" font-family="Helvetica,sans-Serif" font-size="11.00" fill="#000000">&lt; 1</text>
<polygon fill="#ffffff" stroke="transparent" points="617.5,-267.7 617.5,-286.7 671.5,-286.7 671.5,-267.7 617.5,-267.7"/>
<polygon fill="none" stroke="#000000" points="617.5,-267.7 617.5,-286.7 671.5,-286.7 671.5,-267.7 617.5,-267.7"/>
<text text-anchor="start" x="636.1105" y="-273.8" font-family="Helvetica,sans-Serif" font-size="11.00" fill="#000000">0 rows</text>
<polygon fill="#ffffff" stroke="transparent" points="671.5,-267.7 671.5,-286.7 700.5,-286.7 700.5,-267.7 671.5,-267.7"/>
<polygon fill="none" stroke="#000000" points="671.5,-267.7 671.5,-286.7 700.5,-286.7 700.5,-267.7 671.5,-267.7"/>
<text text-anchor="start" x="691.3862" y="-273.8" font-family="Helvetica,sans-Serif" font-size="11.00" fill="#000000"> &#160;</text>
</a>
</g>
</g>
<!-- campanha -->
<g id="node2" class="node">
<title>campanha</title>
<g id="a_node2"><a xlink:href="../../tables/campanha.html" xlink:title="campanha" target="_top">
<polygon fill="#ffffff" stroke="transparent" points="324.5,-203.2 324.5,-330.2 422.5,-330.2 422.5,-203.2 324.5,-203.2"/>
<polygon fill="#f5f5f5" stroke="transparent" points="324.5,-306.7 324.5,-329.7 422.5,-329.7 422.5,-306.7 324.5,-306.7"/>
<polygon fill="none" stroke="#000000" points="324.5,-306.7 324.5,-329.7 422.5,-329.7 422.5,-306.7 324.5,-306.7"/>
<text text-anchor="start" x="329.5" y="-315.8" font-family="Helvetica,sans-Serif" font-weight="bold" font-size="11.00" fill="#000000">campanha</text>
<text text-anchor="start" x="387.5437" y="-314.8" font-family="Helvetica,sans-Serif" font-size="11.00" fill="#000000">[table]</text>
<polygon fill="none" stroke="#000000" points="324.5,-284.7 324.5,-306.7 422.5,-306.7 422.5,-284.7 324.5,-284.7"/>
<image xlink:href="../../images/primaryKeys.png" width="11px" height="12px" preserveAspectRatio="xMinYMin meet" x="329.5" y="-301.7"/>
<text text-anchor="start" x="344.5" y="-291.8" font-family="Helvetica,sans-Serif" font-size="11.00" fill="#000000">id</text>
<polygon fill="none" stroke="#000000" points="324.5,-262.7 324.5,-284.7 422.5,-284.7 422.5,-262.7 324.5,-262.7"/>
<image xlink:href="../../images/foreignKeys.png" width="11px" height="12px" preserveAspectRatio="xMinYMin meet" x="329.5" y="-279.7"/>
<text text-anchor="start" x="344.5" y="-269.8" font-family="Helvetica,sans-Serif" font-size="11.00" fill="#000000">instituicao_id</text>
<polygon fill="none" stroke="#000000" points="324.5,-240.7 324.5,-262.7 422.5,-262.7 422.5,-240.7 324.5,-240.7"/>
<image xlink:href="../../images/foreignKeys.png" width="11px" height="12px" preserveAspectRatio="xMinYMin meet" x="329.5" y="-257.7"/>
<text text-anchor="start" x="344.5" y="-247.8" font-family="Helvetica,sans-Serif" font-size="11.00" fill="#000000">formulario_id</text>
<polygon fill="none" stroke="#000000" points="324.5,-221.7 324.5,-240.7 422.5,-240.7 422.5,-221.7 324.5,-221.7"/>
<text text-anchor="start" x="327.5" y="-227.8" font-family="Helvetica,sans-Serif" font-size="11.00" fill="#000000">...</text>
<polygon fill="#ffffff" stroke="transparent" points="324.5,-202.7 324.5,-221.7 354.5,-221.7 354.5,-202.7 324.5,-202.7"/>
<polygon fill="none" stroke="#000000" points="324.5,-202.7 324.5,-221.7 354.5,-221.7 354.5,-202.7 324.5,-202.7"/>
<text text-anchor="start" x="327.5" y="-208.8" font-family="Helvetica,sans-Serif" font-size="11.00" fill="#000000">&lt; 2</text>
<polygon fill="#ffffff" stroke="transparent" points="354.5,-202.7 354.5,-221.7 396.5,-221.7 396.5,-202.7 354.5,-202.7"/>
<polygon fill="none" stroke="#000000" points="354.5,-202.7 354.5,-221.7 396.5,-221.7 396.5,-202.7 354.5,-202.7"/>
<text text-anchor="start" x="361.1105" y="-208.8" font-family="Helvetica,sans-Serif" font-size="11.00" fill="#000000">0 rows</text>
<polygon fill="#ffffff" stroke="transparent" points="396.5,-202.7 396.5,-221.7 422.5,-221.7 422.5,-202.7 396.5,-202.7"/>
<polygon fill="none" stroke="#000000" points="396.5,-202.7 396.5,-221.7 422.5,-221.7 422.5,-202.7 396.5,-202.7"/>
<text text-anchor="start" x="403.9053" y="-208.8" font-family="Helvetica,sans-Serif" font-size="11.00" fill="#000000">3 &gt;</text>
</a>
</g>
</g>
<!-- arquivo_campanha&#45;&gt;campanha -->
<g id="edge1" class="edge">
<title>arquivo_campanha:w&#45;&gt;campanha:e</title>
<path fill="none" stroke="#000000" d="M549.872,-295.7C498.4818,-295.7 480.434,-295.7 422.5,-295.7"/>
<polygon fill="#000000" stroke="#000000" points="556.5,-295.7001 564.5,-299.3 560.5,-295.7 564.5,-295.7 564.5,-295.7 564.5,-295.7 560.5,-295.7 564.5,-292.1 556.5,-295.7001 556.5,-295.7001"/>
<ellipse fill="none" stroke="#000000" cx="553.3" cy="-295.7001" rx="3.2" ry="3.2"/>
</g>
<!-- formulario -->
<g id="node3" class="node">
<title>formulario</title>
<g id="a_node3"><a xlink:href="../../tables/formulario.html" xlink:title="formulario" target="_top">
<polygon fill="#ffffff" stroke="transparent" points="148,-268.2 148,-329.2 239,-329.2 239,-268.2 148,-268.2"/>
<polygon fill="#f5f5f5" stroke="transparent" points="148.5,-305.7 148.5,-328.7 239.5,-328.7 239.5,-305.7 148.5,-305.7"/>
<polygon fill="none" stroke="#000000" points="148.5,-305.7 148.5,-328.7 239.5,-328.7 239.5,-305.7 148.5,-305.7"/>
<text text-anchor="start" x="153.058" y="-314.8" font-family="Helvetica,sans-Serif" font-weight="bold" font-size="11.00" fill="#000000">formulario</text>
<text text-anchor="start" x="205.0219" y="-313.8" font-family="Helvetica,sans-Serif" font-size="11.00" fill="#000000">[table]</text>
<polygon fill="none" stroke="#000000" points="148.5,-286.7 148.5,-305.7 239.5,-305.7 239.5,-286.7 148.5,-286.7"/>
<text text-anchor="start" x="151.5" y="-292.8" font-family="Helvetica,sans-Serif" font-size="11.00" fill="#000000">...</text>
<polygon fill="#ffffff" stroke="transparent" points="148.5,-267.7 148.5,-286.7 174.5,-286.7 174.5,-267.7 148.5,-267.7"/>
<polygon fill="none" stroke="#000000" points="148.5,-267.7 148.5,-286.7 174.5,-286.7 174.5,-267.7 148.5,-267.7"/>
<text text-anchor="start" x="151.5" y="-273.8" font-family="Helvetica,sans-Serif" font-size="11.00" fill="#000000">&lt; 1</text>
<polygon fill="#ffffff" stroke="transparent" points="174.5,-267.7 174.5,-286.7 215.5,-286.7 215.5,-267.7 174.5,-267.7"/>
<polygon fill="none" stroke="#000000" points="174.5,-267.7 174.5,-286.7 215.5,-286.7 215.5,-267.7 174.5,-267.7"/>
<text text-anchor="start" x="180.1105" y="-273.8" font-family="Helvetica,sans-Serif" font-size="11.00" fill="#000000">0 rows</text>
<polygon fill="#ffffff" stroke="transparent" points="215.5,-267.7 215.5,-286.7 239.5,-286.7 239.5,-267.7 215.5,-267.7"/>
<polygon fill="none" stroke="#000000" points="215.5,-267.7 215.5,-286.7 239.5,-286.7 239.5,-267.7 215.5,-267.7"/>
<text text-anchor="start" x="220.9053" y="-273.8" font-family="Helvetica,sans-Serif" font-size="11.00" fill="#000000">1 &gt;</text>
</a>
</g>
</g>
<!-- campanha&#45;&gt;formulario -->
<g id="edge2" class="edge">
<title>campanha:w&#45;&gt;formulario:e</title>
<path fill="none" stroke="#000000" d="M309.9912,-253.7049C281.2729,-262.3126 276.5556,-295.7 239.5,-295.7"/>
<polygon fill="#000000" stroke="#000000" points="316.5753,-252.7951 324.9928,-255.2661 320.5377,-252.2476 324.5,-251.7 324.5,-251.7 324.5,-251.7 320.5377,-252.2476 324.0072,-248.1339 316.5753,-252.7951 316.5753,-252.7951"/>
<ellipse fill="none" stroke="#000000" cx="313.4054" cy="-253.2332" rx="3.2" ry="3.2"/>
</g>
<!-- instituicao -->
<g id="node4" class="node">
<title>instituicao</title>
<g id="a_node4"><a xlink:href="../../tables/instituicao.html" xlink:title="instituicao" target="_top">
<polygon fill="#ffffff" stroke="transparent" points="148,-186.2 148,-247.2 239,-247.2 239,-186.2 148,-186.2"/>
<polygon fill="#f5f5f5" stroke="transparent" points="148.5,-223.7 148.5,-246.7 239.5,-246.7 239.5,-223.7 148.5,-223.7"/>
<polygon fill="none" stroke="#000000" points="148.5,-223.7 148.5,-246.7 239.5,-246.7 239.5,-223.7 148.5,-223.7"/>
<text text-anchor="start" x="153.052" y="-232.8" font-family="Helvetica,sans-Serif" font-weight="bold" font-size="11.00" fill="#000000">instituicao</text>
<text text-anchor="start" x="205.0219" y="-231.8" font-family="Helvetica,sans-Serif" font-size="11.00" fill="#000000">[table]</text>
<polygon fill="none" stroke="#000000" points="148.5,-204.7 148.5,-223.7 239.5,-223.7 239.5,-204.7 148.5,-204.7"/>
<text text-anchor="start" x="151.5" y="-210.8" font-family="Helvetica,sans-Serif" font-size="11.00" fill="#000000">...</text>
<polygon fill="#ffffff" stroke="transparent" points="148.5,-185.7 148.5,-204.7 174.5,-204.7 174.5,-185.7 148.5,-185.7"/>
<polygon fill="none" stroke="#000000" points="148.5,-185.7 148.5,-204.7 174.5,-204.7 174.5,-185.7 148.5,-185.7"/>
<text text-anchor="start" x="151.5" y="-191.8" font-family="Helvetica,sans-Serif" font-size="11.00" fill="#000000">&lt; 2</text>
<polygon fill="#ffffff" stroke="transparent" points="174.5,-185.7 174.5,-204.7 215.5,-204.7 215.5,-185.7 174.5,-185.7"/>
<polygon fill="none" stroke="#000000" points="174.5,-185.7 174.5,-204.7 215.5,-204.7 215.5,-185.7 174.5,-185.7"/>
<text text-anchor="start" x="180.1105" y="-191.8" font-family="Helvetica,sans-Serif" font-size="11.00" fill="#000000">0 rows</text>
<polygon fill="#ffffff" stroke="transparent" points="215.5,-185.7 215.5,-204.7 239.5,-204.7 239.5,-185.7 215.5,-185.7"/>
<polygon fill="none" stroke="#000000" points="215.5,-185.7 215.5,-204.7 239.5,-204.7 239.5,-185.7 215.5,-185.7"/>
<text text-anchor="start" x="220.9053" y="-191.8" font-family="Helvetica,sans-Serif" font-size="11.00" fill="#000000">2 &gt;</text>
</a>
</g>
</g>
<!-- campanha&#45;&gt;instituicao -->
<g id="edge3" class="edge">
<title>campanha:w&#45;&gt;instituicao:e</title>
<path fill="none" stroke="#000000" d="M309.8739,-271.2736C279.283,-260.0486 280.1419,-213.7 239.5,-213.7"/>
<polygon fill="#000000" stroke="#000000" points="316.6079,-272.3907 323.9108,-277.2515 320.5539,-273.0453 324.5,-273.7 324.5,-273.7 324.5,-273.7 320.5539,-273.0453 325.0892,-270.1485 316.6079,-272.3907 316.6079,-272.3907"/>
<ellipse fill="none" stroke="#000000" cx="313.451" cy="-271.867" rx="3.2" ry="3.2"/>
</g>
<!-- formulario&#45;&gt;campanha -->
<g id="edge4" class="edge">
<title>formulario:w&#45;&gt;campanha:e</title>
<path fill="none" stroke="#000000" d="M162.6126,-291.1868C189.8488,-282.4768 247,-264.2 247,-264.2 287.4736,-281.0497 276.0264,-317.3503 316.5,-334.2 316.5,-334.2 422.5,-295.7 422.5,-295.7"/>
<polygon fill="#000000" stroke="#000000" points="156.1198,-293.2632 147.4034,-292.2711 152.3099,-294.4816 148.5,-295.7 148.5,-295.7 148.5,-295.7 152.3099,-294.4816 149.5966,-299.1289 156.1198,-293.2632 156.1198,-293.2632"/>
<ellipse fill="none" stroke="#000000" cx="159.1678" cy="-292.2884" rx="3.2" ry="3.2"/>
</g>
<!-- municipio -->
<g id="node5" class="node">
<title>municipio</title>
<g id="a_node5"><a xlink:href="../../tables/municipio.html" xlink:title="municipio" target="_top">
<polygon fill="#ffffff" stroke="transparent" points="8,-81.2 8,-142.2 97,-142.2 97,-81.2 8,-81.2"/>
<polygon fill="#f5f5f5" stroke="transparent" points="8.5,-118.7 8.5,-141.7 97.5,-141.7 97.5,-118.7 8.5,-118.7"/>
<polygon fill="none" stroke="#000000" points="8.5,-118.7 8.5,-141.7 97.5,-141.7 97.5,-118.7 8.5,-118.7"/>
<text text-anchor="start" x="13.2779" y="-127.8" font-family="Helvetica,sans-Serif" font-weight="bold" font-size="11.00" fill="#000000">municipio</text>
<text text-anchor="start" x="63.0219" y="-126.8" font-family="Helvetica,sans-Serif" font-size="11.00" fill="#000000">[table]</text>
<polygon fill="none" stroke="#000000" points="8.5,-99.7 8.5,-118.7 97.5,-118.7 97.5,-99.7 8.5,-99.7"/>
<text text-anchor="start" x="11.5" y="-105.8" font-family="Helvetica,sans-Serif" font-size="11.00" fill="#000000">...</text>
<polygon fill="#ffffff" stroke="transparent" points="8.5,-80.7 8.5,-99.7 29.5,-99.7 29.5,-80.7 8.5,-80.7"/>
<polygon fill="none" stroke="#000000" points="8.5,-80.7 8.5,-99.7 29.5,-99.7 29.5,-80.7 8.5,-80.7"/>
<text text-anchor="start" x="11.5" y="-86.8" font-family="Helvetica,sans-Serif" font-size="11.00" fill="#000000"> &#160;</text>
<polygon fill="#ffffff" stroke="transparent" points="29.5,-80.7 29.5,-99.7 71.5,-99.7 71.5,-80.7 29.5,-80.7"/>
<polygon fill="none" stroke="#000000" points="29.5,-80.7 29.5,-99.7 71.5,-99.7 71.5,-80.7 29.5,-80.7"/>
<text text-anchor="start" x="36.1105" y="-86.8" font-family="Helvetica,sans-Serif" font-size="11.00" fill="#000000">0 rows</text>
<polygon fill="#ffffff" stroke="transparent" points="71.5,-80.7 71.5,-99.7 97.5,-99.7 97.5,-80.7 71.5,-80.7"/>
<polygon fill="none" stroke="#000000" points="71.5,-80.7 71.5,-99.7 97.5,-99.7 97.5,-80.7 71.5,-80.7"/>
<text text-anchor="start" x="78.9053" y="-86.8" font-family="Helvetica,sans-Serif" font-size="11.00" fill="#000000">2 &gt;</text>
</a>
</g>
</g>
<!-- instituicao&#45;&gt;municipio -->
<g id="edge5" class="edge">
<title>instituicao:w&#45;&gt;municipio:e</title>
<path fill="none" stroke="#000000" d="M134.5931,-209.963C107.2305,-191.2584 143.5031,-108.7 97.5,-108.7"/>
<polygon fill="#000000" stroke="#000000" points="140.7741,-211.6239 147.5657,-217.1767 144.637,-212.6619 148.5,-213.7 148.5,-213.7 148.5,-213.7 144.637,-212.6619 149.4343,-210.2233 140.7741,-211.6239 140.7741,-211.6239"/>
<ellipse fill="none" stroke="#000000" cx="137.6837" cy="-210.7934" rx="3.2" ry="3.2"/>
</g>
<!-- usuario -->
<g id="node6" class="node">
<title>usuario</title>
<g id="a_node6"><a xlink:href="../../tables/usuario.html" xlink:title="usuario" target="_top">
<polygon fill="#ffffff" stroke="transparent" points="13,-174.2 13,-235.2 92,-235.2 92,-174.2 13,-174.2"/>
<polygon fill="#f5f5f5" stroke="transparent" points="13.5,-211.7 13.5,-234.7 92.5,-234.7 92.5,-211.7 13.5,-211.7"/>
<polygon fill="none" stroke="#000000" points="13.5,-211.7 13.5,-234.7 92.5,-234.7 92.5,-211.7 13.5,-211.7"/>
<text text-anchor="start" x="18.4688" y="-220.8" font-family="Helvetica,sans-Serif" font-weight="bold" font-size="11.00" fill="#000000">usuario</text>
<text text-anchor="start" x="58.0219" y="-219.8" font-family="Helvetica,sans-Serif" font-size="11.00" fill="#000000">[table]</text>
<polygon fill="none" stroke="#000000" points="13.5,-192.7 13.5,-211.7 92.5,-211.7 92.5,-192.7 13.5,-192.7"/>
<text text-anchor="start" x="16.5" y="-198.8" font-family="Helvetica,sans-Serif" font-size="11.00" fill="#000000">...</text>
<polygon fill="#ffffff" stroke="transparent" points="13.5,-173.7 13.5,-192.7 29.5,-192.7 29.5,-173.7 13.5,-173.7"/>
<polygon fill="none" stroke="#000000" points="13.5,-173.7 13.5,-192.7 29.5,-192.7 29.5,-173.7 13.5,-173.7"/>
<text text-anchor="start" x="16.5" y="-179.8" font-family="Helvetica,sans-Serif" font-size="11.00" fill="#000000"> &#160;</text>
<polygon fill="#ffffff" stroke="transparent" points="29.5,-173.7 29.5,-192.7 69.5,-192.7 69.5,-173.7 29.5,-173.7"/>
<polygon fill="none" stroke="#000000" points="29.5,-173.7 29.5,-192.7 69.5,-192.7 69.5,-173.7 29.5,-173.7"/>
<text text-anchor="start" x="34.1105" y="-179.8" font-family="Helvetica,sans-Serif" font-size="11.00" fill="#000000">0 rows</text>
<polygon fill="#ffffff" stroke="transparent" points="69.5,-173.7 69.5,-192.7 92.5,-192.7 92.5,-173.7 69.5,-173.7"/>
<polygon fill="none" stroke="#000000" points="69.5,-173.7 69.5,-192.7 92.5,-192.7 92.5,-173.7 69.5,-173.7"/>
<text text-anchor="start" x="73.9053" y="-179.8" font-family="Helvetica,sans-Serif" font-size="11.00" fill="#000000">2 &gt;</text>
</a>
</g>
</g>
<!-- instituicao&#45;&gt;usuario -->
<g id="edge6" class="edge">
<title>instituicao:w&#45;&gt;usuario:e</title>
<path fill="none" stroke="#000000" d="M137.9045,-212.9126C120.9577,-210.243 113.9767,-201.7 92.5,-201.7"/>
<polygon fill="#000000" stroke="#000000" points="147.9987,-209.6517 147.4057,-217.6297 145.8101,-217.5111 146.4031,-209.5331 147.9987,-209.6517"/>
<polyline fill="none" stroke="#000000" points="148.5,-213.7 144.511,-213.4035 "/>
<ellipse fill="none" stroke="#000000" cx="141.3198" cy="-213.1664" rx="3.2" ry="3.2"/>
</g>
<!-- pessoa -->
<g id="node7" class="node">
<title>pessoa</title>
<g id="a_node7"><a xlink:href="../../tables/pessoa.html" xlink:title="pessoa" target="_top">
<polygon fill="#ffffff" stroke="transparent" points="146,-38.2 146,-165.2 241,-165.2 241,-38.2 146,-38.2"/>
<polygon fill="#f5f5f5" stroke="transparent" points="146.5,-141.7 146.5,-164.7 241.5,-164.7 241.5,-141.7 146.5,-141.7"/>
<polygon fill="none" stroke="#000000" points="146.5,-141.7 146.5,-164.7 241.5,-164.7 241.5,-141.7 146.5,-141.7"/>
<text text-anchor="start" x="151.5" y="-150.8" font-family="Helvetica,sans-Serif" font-weight="bold" font-size="11.00" fill="#000000">pessoa</text>
<text text-anchor="start" x="206.5437" y="-149.8" font-family="Helvetica,sans-Serif" font-size="11.00" fill="#000000">[table]</text>
<polygon fill="none" stroke="#000000" points="146.5,-119.7 146.5,-141.7 241.5,-141.7 241.5,-119.7 146.5,-119.7"/>
<image xlink:href="../../images/primaryKeys.png" width="11px" height="12px" preserveAspectRatio="xMinYMin meet" x="151.5" y="-136.7"/>
<text text-anchor="start" x="166.5" y="-126.8" font-family="Helvetica,sans-Serif" font-size="11.00" fill="#000000">usuario_id</text>
<polygon fill="#ffffff" stroke="transparent" points="146.5,-97.7 146.5,-119.7 241.5,-119.7 241.5,-97.7 146.5,-97.7"/>
<polygon fill="none" stroke="#000000" points="146.5,-97.7 146.5,-119.7 241.5,-119.7 241.5,-97.7 146.5,-97.7"/>
<text text-anchor="start" x="166.5" y="-104.8" font-family="Helvetica,sans-Serif" font-size="11.00" fill="#000000">telefone</text>
<polygon fill="none" stroke="#000000" points="146.5,-75.7 146.5,-97.7 241.5,-97.7 241.5,-75.7 146.5,-75.7"/>
<image xlink:href="../../images/foreignKeys.png" width="11px" height="12px" preserveAspectRatio="xMinYMin meet" x="151.5" y="-92.7"/>
<text text-anchor="start" x="166.5" y="-82.8" font-family="Helvetica,sans-Serif" font-size="11.00" fill="#000000">municipio_id</text>
<polygon fill="none" stroke="#000000" points="146.5,-56.7 146.5,-75.7 241.5,-75.7 241.5,-56.7 146.5,-56.7"/>
<text text-anchor="start" x="149.5" y="-62.8" font-family="Helvetica,sans-Serif" font-size="11.00" fill="#000000">...</text>
<polygon fill="#ffffff" stroke="transparent" points="146.5,-37.7 146.5,-56.7 174.5,-56.7 174.5,-37.7 146.5,-37.7"/>
<polygon fill="none" stroke="#000000" points="146.5,-37.7 146.5,-56.7 174.5,-56.7 174.5,-37.7 146.5,-37.7"/>
<text text-anchor="start" x="149.5" y="-43.8" font-family="Helvetica,sans-Serif" font-size="11.00" fill="#000000">&lt; 2</text>
<polygon fill="#ffffff" stroke="transparent" points="174.5,-37.7 174.5,-56.7 216.5,-56.7 216.5,-37.7 174.5,-37.7"/>
<polygon fill="none" stroke="#000000" points="174.5,-37.7 174.5,-56.7 216.5,-56.7 216.5,-37.7 174.5,-37.7"/>
<text text-anchor="start" x="181.1105" y="-43.8" font-family="Helvetica,sans-Serif" font-size="11.00" fill="#000000">0 rows</text>
<polygon fill="#ffffff" stroke="transparent" points="216.5,-37.7 216.5,-56.7 241.5,-56.7 241.5,-37.7 216.5,-37.7"/>
<polygon fill="none" stroke="#000000" points="216.5,-37.7 216.5,-56.7 241.5,-56.7 241.5,-37.7 216.5,-37.7"/>
<text text-anchor="start" x="222.9053" y="-43.8" font-family="Helvetica,sans-Serif" font-size="11.00" fill="#000000">2 &gt;</text>
</a>
</g>
</g>
<!-- pessoa&#45;&gt;municipio -->
<g id="edge7" class="edge">
<title>pessoa:w&#45;&gt;municipio:e</title>
<path fill="none" stroke="#000000" d="M132.1297,-90.1375C120.5865,-96.325 115.4041,-108.7 97.5,-108.7"/>
<polygon fill="#000000" stroke="#000000" points="138.7195,-88.5612 147.3375,-90.2012 142.6098,-87.6306 146.5,-86.7 146.5,-86.7 146.5,-86.7 142.6098,-87.6306 145.6625,-83.1988 138.7195,-88.5612 138.7195,-88.5612"/>
<ellipse fill="none" stroke="#000000" cx="135.6073" cy="-89.3057" rx="3.2" ry="3.2"/>
</g>
<!-- pessoa&#45;&gt;usuario -->
<g id="edge8" class="edge">
<title>pessoa:w&#45;&gt;usuario:e</title>
<path fill="none" stroke="#000000" d="M136.2939,-132.7483C111.322,-144.3895 128.1189,-201.7 92.5,-201.7"/>
<polygon fill="#000000" stroke="#000000" points="144.9285,-126.9356 146.5028,-134.7792 144.934,-135.0941 143.3598,-127.2505 144.9285,-126.9356"/>
<polyline fill="none" stroke="#000000" points="146.5,-130.7 142.5782,-131.4871 "/>
<ellipse fill="none" stroke="#000000" cx="139.4408" cy="-132.1168" rx="3.2" ry="3.2"/>
</g>
<!-- pessoa_cadastra_campanha -->
<g id="node8" class="node">
<title>pessoa_cadastra_campanha</title>
<g id="a_node8"><a xlink:href="../../tables/pessoa_cadastra_campanha.html" xlink:title="pessoa_cadastra_campanha" target="_top">
<polygon fill="#ffffff" stroke="transparent" points="506,-44.7 506,-200.7 759,-200.7 759,-44.7 506,-44.7"/>
<polygon fill="#f5f5f5" stroke="transparent" points="508.5,-175.7 508.5,-198.7 757.5,-198.7 757.5,-175.7 508.5,-175.7"/>
<polygon fill="none" stroke="#000000" points="508.5,-175.7 508.5,-198.7 757.5,-198.7 757.5,-175.7 508.5,-175.7"/>
<text text-anchor="start" x="513.5" y="-184.8" font-family="Helvetica,sans-Serif" font-weight="bold" font-size="11.00" fill="#000000">pessoa_cadastra_campanha</text>
<text text-anchor="start" x="722.5437" y="-183.8" font-family="Helvetica,sans-Serif" font-size="11.00" fill="#000000">[table]</text>
<polygon fill="none" stroke="#000000" points="508.5,-153.7 508.5,-175.7 692.5,-175.7 692.5,-153.7 508.5,-153.7"/>
<image xlink:href="../../images/primaryKeys.png" width="11px" height="12px" preserveAspectRatio="xMinYMin meet" x="513.5" y="-170.7"/>
<text text-anchor="start" x="528.5" y="-160.8" font-family="Helvetica,sans-Serif" font-size="11.00" fill="#000000">id</text>
<polygon fill="none" stroke="#000000" points="692.5,-153.7 692.5,-175.7 757.5,-175.7 757.5,-153.7 692.5,-153.7"/>
<text text-anchor="start" x="695.3561" y="-161.4" font-family="Helvetica,sans-Serif" font-size="11.00" fill="#000000">bigserial[19]</text>
<polygon fill="#ffffff" stroke="transparent" points="508.5,-131.7 508.5,-153.7 692.5,-153.7 692.5,-131.7 508.5,-131.7"/>
<polygon fill="none" stroke="#000000" points="508.5,-131.7 508.5,-153.7 692.5,-153.7 692.5,-131.7 508.5,-131.7"/>
<image xlink:href="../../images/foreignKeys.png" width="11px" height="12px" preserveAspectRatio="xMinYMin meet" x="513.5" y="-148.7"/>
<text text-anchor="start" x="528.5" y="-138.8" font-family="Helvetica,sans-Serif" font-size="11.00" fill="#000000">pessoa_id</text>
<polygon fill="none" stroke="#000000" points="692.5,-131.7 692.5,-153.7 757.5,-153.7 757.5,-131.7 692.5,-131.7"/>
<text text-anchor="start" x="695.5" y="-139.4" font-family="Helvetica,sans-Serif" font-size="11.00" fill="#000000">int4[10]</text>
<polygon fill="#ffffff" stroke="transparent" points="508.5,-109.7 508.5,-131.7 692.5,-131.7 692.5,-109.7 508.5,-109.7"/>
<polygon fill="none" stroke="#000000" points="508.5,-109.7 508.5,-131.7 692.5,-131.7 692.5,-109.7 508.5,-109.7"/>
<image xlink:href="../../images/foreignKeys.png" width="11px" height="12px" preserveAspectRatio="xMinYMin meet" x="513.5" y="-126.7"/>
<text text-anchor="start" x="528.5" y="-116.8" font-family="Helvetica,sans-Serif" font-size="11.00" fill="#000000">campanha_id</text>
<polygon fill="none" stroke="#000000" points="692.5,-109.7 692.5,-131.7 757.5,-131.7 757.5,-109.7 692.5,-109.7"/>
<text text-anchor="start" x="695.5" y="-117.4" font-family="Helvetica,sans-Serif" font-size="11.00" fill="#000000">int4[10]</text>
<polygon fill="none" stroke="#000000" points="508.5,-87.7 508.5,-109.7 692.5,-109.7 692.5,-87.7 508.5,-87.7"/>
<text text-anchor="start" x="528.5" y="-94.8" font-family="Helvetica,sans-Serif" font-size="11.00" fill="#000000">situacao</text>
<polygon fill="none" stroke="#000000" points="692.5,-87.7 692.5,-109.7 757.5,-109.7 757.5,-87.7 692.5,-87.7"/>
<text text-anchor="start" x="695.5" y="-95.4" font-family="Helvetica,sans-Serif" font-size="11.00" fill="#000000">varchar[50]</text>
<polygon fill="none" stroke="#000000" points="508.5,-65.7 508.5,-87.7 692.5,-87.7 692.5,-65.7 508.5,-65.7"/>
<text text-anchor="start" x="528.5" y="-72.8" font-family="Helvetica,sans-Serif" font-size="11.00" fill="#000000">data</text>
<polygon fill="none" stroke="#000000" points="692.5,-65.7 692.5,-87.7 757.5,-87.7 757.5,-65.7 692.5,-65.7"/>
<text text-anchor="start" x="695.5" y="-73.4" font-family="Helvetica,sans-Serif" font-size="11.00" fill="#000000">date[13]</text>
<polygon fill="#ffffff" stroke="transparent" points="508.5,-46.7 508.5,-65.7 591.5,-65.7 591.5,-46.7 508.5,-46.7"/>
<polygon fill="none" stroke="#000000" points="508.5,-46.7 508.5,-65.7 591.5,-65.7 591.5,-46.7 508.5,-46.7"/>
<text text-anchor="start" x="511.5" y="-52.8" font-family="Helvetica,sans-Serif" font-size="11.00" fill="#000000">&lt; 2</text>
<polygon fill="#ffffff" stroke="transparent" points="591.5,-46.7 591.5,-65.7 692.5,-65.7 692.5,-46.7 591.5,-46.7"/>
<polygon fill="none" stroke="#000000" points="591.5,-46.7 591.5,-65.7 692.5,-65.7 692.5,-46.7 591.5,-46.7"/>
<text text-anchor="start" x="657.1105" y="-52.8" font-family="Helvetica,sans-Serif" font-size="11.00" fill="#000000">0 rows</text>
<polygon fill="#ffffff" stroke="transparent" points="692.5,-46.7 692.5,-65.7 757.5,-65.7 757.5,-46.7 692.5,-46.7"/>
<polygon fill="none" stroke="#000000" points="692.5,-46.7 692.5,-65.7 757.5,-65.7 757.5,-46.7 692.5,-46.7"/>
<text text-anchor="start" x="738.9053" y="-52.8" font-family="Helvetica,sans-Serif" font-size="11.00" fill="#000000">0 &gt;</text>
<polygon fill="none" stroke="#000000" stroke-width="2" points="507,-45.7 507,-199.7 758,-199.7 758,-45.7 507,-45.7"/>
</a>
</g>
</g>
<!-- pessoa_cadastra_campanha&#45;&gt;campanha -->
<g id="edge9" class="edge">
<title>pessoa_cadastra_campanha:w&#45;&gt;campanha:e</title>
<path fill="none" stroke="#000000" d="M494.2048,-122.6653C432.0738,-141.8914 503.7457,-295.7 422.5,-295.7"/>
<polygon fill="#000000" stroke="#000000" points="500.5745,-121.7897 508.9903,-124.2665 504.5373,-121.2448 508.5,-120.7 508.5,-120.7 508.5,-120.7 504.5373,-121.2448 508.0097,-117.1335 500.5745,-121.7897 500.5745,-121.7897"/>
<ellipse fill="none" stroke="#000000" cx="497.4044" cy="-122.2255" rx="3.2" ry="3.2"/>
</g>
<!-- pessoa_cadastra_campanha&#45;&gt;pessoa -->
<g id="edge10" class="edge">
<title>pessoa_cadastra_campanha:w&#45;&gt;pessoa:e</title>
<path fill="none" stroke="#000000" d="M494.4663,-138.5235C484.4678,-131.1911 481.925,-116.2548 465,-110.7 387.7222,-85.3376 361.2036,-92.2094 282,-110.7 262.4505,-115.264 261.5752,-130.7 241.5,-130.7"/>
<polygon fill="#000000" stroke="#000000" points="500.8324,-140.418 507.4731,-146.1504 504.6662,-141.559 508.5,-142.7 508.5,-142.7 508.5,-142.7 504.6662,-141.559 509.5269,-139.2496 500.8324,-140.418 500.8324,-140.418"/>
<ellipse fill="none" stroke="#000000" cx="497.7653" cy="-139.5052" rx="3.2" ry="3.2"/>
</g>
<!-- pessoa_interessa_animal -->
<g id="node9" class="node">
<title>pessoa_interessa_animal</title>
<g id="a_node9"><a xlink:href="../../tables/pessoa_interessa_animal.html" xlink:title="pessoa_interessa_animal" target="_top">
<polygon fill="#ffffff" stroke="transparent" points="290,-121.2 290,-182.2 457,-182.2 457,-121.2 290,-121.2"/>
<polygon fill="#f5f5f5" stroke="transparent" points="290.5,-158.7 290.5,-181.7 457.5,-181.7 457.5,-158.7 290.5,-158.7"/>
<polygon fill="none" stroke="#000000" points="290.5,-158.7 290.5,-181.7 457.5,-181.7 457.5,-158.7 290.5,-158.7"/>
<text text-anchor="start" x="295.1515" y="-167.8" font-family="Helvetica,sans-Serif" font-weight="bold" font-size="11.00" fill="#000000">pessoa_interessa_animal</text>
<text text-anchor="start" x="423.0219" y="-166.8" font-family="Helvetica,sans-Serif" font-size="11.00" fill="#000000">[table]</text>
<polygon fill="none" stroke="#000000" points="290.5,-139.7 290.5,-158.7 457.5,-158.7 457.5,-139.7 290.5,-139.7"/>
<text text-anchor="start" x="293.5" y="-145.8" font-family="Helvetica,sans-Serif" font-size="11.00" fill="#000000">...</text>
<polygon fill="#ffffff" stroke="transparent" points="290.5,-120.7 290.5,-139.7 359.5,-139.7 359.5,-120.7 290.5,-120.7"/>
<polygon fill="none" stroke="#000000" points="290.5,-120.7 290.5,-139.7 359.5,-139.7 359.5,-120.7 290.5,-120.7"/>
<text text-anchor="start" x="293.5" y="-126.8" font-family="Helvetica,sans-Serif" font-size="11.00" fill="#000000">&lt; 2</text>
<polygon fill="#ffffff" stroke="transparent" points="359.5,-120.7 359.5,-139.7 421.5,-139.7 421.5,-120.7 359.5,-120.7"/>
<polygon fill="none" stroke="#000000" points="359.5,-120.7 359.5,-139.7 421.5,-139.7 421.5,-120.7 359.5,-120.7"/>
<text text-anchor="start" x="386.1105" y="-126.8" font-family="Helvetica,sans-Serif" font-size="11.00" fill="#000000">0 rows</text>
<polygon fill="#ffffff" stroke="transparent" points="421.5,-120.7 421.5,-139.7 457.5,-139.7 457.5,-120.7 421.5,-120.7"/>
<polygon fill="none" stroke="#000000" points="421.5,-120.7 421.5,-139.7 457.5,-139.7 457.5,-120.7 421.5,-120.7"/>
<text text-anchor="start" x="448.3862" y="-126.8" font-family="Helvetica,sans-Serif" font-size="11.00" fill="#000000"> &#160;</text>
</a>
</g>
</g>
<!-- pessoa_interessa_animal&#45;&gt;pessoa -->
<g id="edge11" class="edge">
<title>pessoa_interessa_animal:w&#45;&gt;pessoa:e</title>
<path fill="none" stroke="#000000" d="M276.3186,-145.8875C264.7124,-140.825 258.9005,-130.7 241.5,-130.7"/>
<polygon fill="#000000" stroke="#000000" points="282.6528,-147.1437 289.7997,-152.2312 286.5764,-147.9218 290.5,-148.7 290.5,-148.7 290.5,-148.7 286.5764,-147.9218 291.2003,-145.1688 282.6528,-147.1437 282.6528,-147.1437"/>
<ellipse fill="none" stroke="#000000" cx="279.514" cy="-146.5212" rx="3.2" ry="3.2"/>
</g>
</g>
</svg>
