<?xml version="1.0" encoding="UTF-8" standalone="no"?>
<!DOCTYPE svg PUBLIC "-//W3C//DTD SVG 1.1//EN"
 "http://www.w3.org/Graphics/SVG/1.1/DTD/svg11.dtd">
<!-- Generated by graphviz version 2.40.1 (20161225.0304)
 -->
<!-- Title: twoDegreesRelationshipsDiagram Pages: 1 -->
<svg width="774pt" height="315pt"
 viewBox="0.00 0.00 774.00 314.70" xmlns="http://www.w3.org/2000/svg" xmlns:xlink="http://www.w3.org/1999/xlink">
<g id="graph0" class="graph" transform="scale(1 1) rotate(0) translate(4 310.7)">
<title>twoDegreesRelationshipsDiagram</title>
<polygon fill="#ffffff" stroke="transparent" points="-4,4 -4,-310.7 770,-310.7 770,4 -4,4"/>
<text text-anchor="middle" x="72.4936" y="-7.3" font-family="Helvetica,sans-Serif" font-size="11.00" fill="#000000">Generated by SchemaSpy</text>
<!-- animal -->
<g id="node1" class="node">
<title>animal</title>
<g id="a_node1"><a xlink:href="../../tables/animal.html" xlink:title="animal" target="_top">
<polygon fill="#ffffff" stroke="transparent" points="312.5,-38.2 312.5,-143.2 451.5,-143.2 451.5,-38.2 312.5,-38.2"/>
<polygon fill="#f5f5f5" stroke="transparent" points="313,-119.7 313,-142.7 452,-142.7 452,-119.7 313,-119.7"/>
<polygon fill="none" stroke="#000000" points="313,-119.7 313,-142.7 452,-142.7 452,-119.7 313,-119.7"/>
<text text-anchor="start" x="318" y="-128.8" font-family="Helvetica,sans-Serif" font-weight="bold" font-size="11.00" fill="#000000">animal</text>
<text text-anchor="start" x="417.0437" y="-127.8" font-family="Helvetica,sans-Serif" font-size="11.00" fill="#000000">[table]</text>
<polygon fill="none" stroke="#000000" points="313,-97.7 313,-119.7 452,-119.7 452,-97.7 313,-97.7"/>
<image xlink:href="../../images/primaryKeys.png" width="11px" height="12px" preserveAspectRatio="xMinYMin meet" x="318" y="-114.7"/>
<text text-anchor="start" x="333" y="-104.8" font-family="Helvetica,sans-Serif" font-size="11.00" fill="#000000">id</text>
<polygon fill="none" stroke="#000000" points="313,-75.7 313,-97.7 452,-97.7 452,-75.7 313,-75.7"/>
<image xlink:href="../../images/foreignKeys.png" width="11px" height="12px" preserveAspectRatio="xMinYMin meet" x="318" y="-92.7"/>
<text text-anchor="start" x="333" y="-82.8" font-family="Helvetica,sans-Serif" font-size="11.00" fill="#000000">instituicao_id</text>
<polygon fill="none" stroke="#000000" points="313,-56.7 313,-75.7 452,-75.7 452,-56.7 313,-56.7"/>
<text text-anchor="start" x="316" y="-62.8" font-family="Helvetica,sans-Serif" font-size="11.00" fill="#000000">...</text>
<polygon fill="#ffffff" stroke="transparent" points="313,-37.7 313,-56.7 363,-56.7 363,-37.7 313,-37.7"/>
<polygon fill="none" stroke="#000000" points="313,-37.7 313,-56.7 363,-56.7 363,-37.7 313,-37.7"/>
<text text-anchor="start" x="316" y="-43.8" font-family="Helvetica,sans-Serif" font-size="11.00" fill="#000000">&lt; 1</text>
<polygon fill="#ffffff" stroke="transparent" points="363,-37.7 363,-56.7 416,-56.7 416,-37.7 363,-37.7"/>
<polygon fill="none" stroke="#000000" points="363,-37.7 363,-56.7 416,-56.7 416,-37.7 363,-37.7"/>
<text text-anchor="start" x="380.6105" y="-43.8" font-family="Helvetica,sans-Serif" font-size="11.00" fill="#000000">0 rows</text>
<polygon fill="#ffffff" stroke="transparent" points="416,-37.7 416,-56.7 452,-56.7 452,-37.7 416,-37.7"/>
<polygon fill="none" stroke="#000000" points="416,-37.7 416,-56.7 452,-56.7 452,-37.7 416,-37.7"/>
<text text-anchor="start" x="433.4053" y="-43.8" font-family="Helvetica,sans-Serif" font-size="11.00" fill="#000000">2 &gt;</text>
</a>
</g>
</g>
<!-- instituicao -->
<g id="node2" class="node">
<title>instituicao</title>
<g id="a_node2"><a xlink:href="../../tables/instituicao.html" xlink:title="instituicao" target="_top">
<polygon fill="#ffffff" stroke="transparent" points="148,-59.2 148,-120.2 239,-120.2 239,-59.2 148,-59.2"/>
<polygon fill="#f5f5f5" stroke="transparent" points="148.5,-96.7 148.5,-119.7 239.5,-119.7 239.5,-96.7 148.5,-96.7"/>
<polygon fill="none" stroke="#000000" points="148.5,-96.7 148.5,-119.7 239.5,-119.7 239.5,-96.7 148.5,-96.7"/>
<text text-anchor="start" x="153.052" y="-105.8" font-family="Helvetica,sans-Serif" font-weight="bold" font-size="11.00" fill="#000000">instituicao</text>
<text text-anchor="start" x="205.0219" y="-104.8" font-family="Helvetica,sans-Serif" font-size="11.00" fill="#000000">[table]</text>
<polygon fill="none" stroke="#000000" points="148.5,-77.7 148.5,-96.7 239.5,-96.7 239.5,-77.7 148.5,-77.7"/>
<text text-anchor="start" x="151.5" y="-83.8" font-family="Helvetica,sans-Serif" font-size="11.00" fill="#000000">...</text>
<polygon fill="#ffffff" stroke="transparent" points="148.5,-58.7 148.5,-77.7 174.5,-77.7 174.5,-58.7 148.5,-58.7"/>
<polygon fill="none" stroke="#000000" points="148.5,-58.7 148.5,-77.7 174.5,-77.7 174.5,-58.7 148.5,-58.7"/>
<text text-anchor="start" x="151.5" y="-64.8" font-family="Helvetica,sans-Serif" font-size="11.00" fill="#000000">&lt; 2</text>
<polygon fill="#ffffff" stroke="transparent" points="174.5,-58.7 174.5,-77.7 215.5,-77.7 215.5,-58.7 174.5,-58.7"/>
<polygon fill="none" stroke="#000000" points="174.5,-58.7 174.5,-77.7 215.5,-77.7 215.5,-58.7 174.5,-58.7"/>
<text text-anchor="start" x="180.1105" y="-64.8" font-family="Helvetica,sans-Serif" font-size="11.00" fill="#000000">0 rows</text>
<polygon fill="#ffffff" stroke="transparent" points="215.5,-58.7 215.5,-77.7 239.5,-77.7 239.5,-58.7 215.5,-58.7"/>
<polygon fill="none" stroke="#000000" points="215.5,-58.7 215.5,-77.7 239.5,-77.7 239.5,-58.7 215.5,-58.7"/>
<text text-anchor="start" x="220.9053" y="-64.8" font-family="Helvetica,sans-Serif" font-size="11.00" fill="#000000">2 &gt;</text>
</a>
</g>
</g>
<!-- animal&#45;&gt;instituicao -->
<g id="edge1" class="edge">
<title>animal:w&#45;&gt;instituicao:e</title>
<path fill="none" stroke="#000000" d="M298.3805,-86.7C276.8986,-86.7 266.6797,-86.7 239.5,-86.7"/>
<polygon fill="#000000" stroke="#000000" points="305,-86.7001 313,-90.3 309,-86.7 313,-86.7 313,-86.7 313,-86.7 309,-86.7 313,-83.1 305,-86.7001 305,-86.7001"/>
<ellipse fill="none" stroke="#000000" cx="301.8" cy="-86.7001" rx="3.2" ry="3.2"/>
</g>
<!-- municipio -->
<g id="node4" class="node">
<title>municipio</title>
<g id="a_node4"><a xlink:href="../../tables/municipio.html" xlink:title="municipio" target="_top">
<polygon fill="#ffffff" stroke="transparent" points="8,-91.2 8,-152.2 97,-152.2 97,-91.2 8,-91.2"/>
<polygon fill="#f5f5f5" stroke="transparent" points="8.5,-128.7 8.5,-151.7 97.5,-151.7 97.5,-128.7 8.5,-128.7"/>
<polygon fill="none" stroke="#000000" points="8.5,-128.7 8.5,-151.7 97.5,-151.7 97.5,-128.7 8.5,-128.7"/>
<text text-anchor="start" x="13.2779" y="-137.8" font-family="Helvetica,sans-Serif" font-weight="bold" font-size="11.00" fill="#000000">municipio</text>
<text text-anchor="start" x="63.0219" y="-136.8" font-family="Helvetica,sans-Serif" font-size="11.00" fill="#000000">[table]</text>
<polygon fill="none" stroke="#000000" points="8.5,-109.7 8.5,-128.7 97.5,-128.7 97.5,-109.7 8.5,-109.7"/>
<text text-anchor="start" x="11.5" y="-115.8" font-family="Helvetica,sans-Serif" font-size="11.00" fill="#000000">...</text>
<polygon fill="#ffffff" stroke="transparent" points="8.5,-90.7 8.5,-109.7 29.5,-109.7 29.5,-90.7 8.5,-90.7"/>
<polygon fill="none" stroke="#000000" points="8.5,-90.7 8.5,-109.7 29.5,-109.7 29.5,-90.7 8.5,-90.7"/>
<text text-anchor="start" x="11.5" y="-96.8" font-family="Helvetica,sans-Serif" font-size="11.00" fill="#000000"> &#160;</text>
<polygon fill="#ffffff" stroke="transparent" points="29.5,-90.7 29.5,-109.7 71.5,-109.7 71.5,-90.7 29.5,-90.7"/>
<polygon fill="none" stroke="#000000" points="29.5,-90.7 29.5,-109.7 71.5,-109.7 71.5,-90.7 29.5,-90.7"/>
<text text-anchor="start" x="36.1105" y="-96.8" font-family="Helvetica,sans-Serif" font-size="11.00" fill="#000000">0 rows</text>
<polygon fill="#ffffff" stroke="transparent" points="71.5,-90.7 71.5,-109.7 97.5,-109.7 97.5,-90.7 71.5,-90.7"/>
<polygon fill="none" stroke="#000000" points="71.5,-90.7 71.5,-109.7 97.5,-109.7 97.5,-90.7 71.5,-90.7"/>
<text text-anchor="start" x="78.9053" y="-96.8" font-family="Helvetica,sans-Serif" font-size="11.00" fill="#000000">2 &gt;</text>
</a>
</g>
</g>
<!-- instituicao&#45;&gt;municipio -->
<g id="edge3" class="edge">
<title>instituicao:w&#45;&gt;municipio:e</title>
<path fill="none" stroke="#000000" d="M134.5293,-90.6238C121.4416,-99.1687 118.4055,-118.7 97.5,-118.7"/>
<polygon fill="#000000" stroke="#000000" points="140.798,-88.8632 149.4735,-90.1659 144.649,-87.7816 148.5,-86.7 148.5,-86.7 148.5,-86.7 144.649,-87.7816 147.5265,-83.2341 140.798,-88.8632 140.798,-88.8632"/>
<ellipse fill="none" stroke="#000000" cx="137.7172" cy="-89.7285" rx="3.2" ry="3.2"/>
</g>
<!-- usuario -->
<g id="node5" class="node">
<title>usuario</title>
<g id="a_node5"><a xlink:href="../../tables/usuario.html" xlink:title="usuario" target="_top">
<polygon fill="#ffffff" stroke="transparent" points="13,-189.2 13,-250.2 92,-250.2 92,-189.2 13,-189.2"/>
<polygon fill="#f5f5f5" stroke="transparent" points="13.5,-226.7 13.5,-249.7 92.5,-249.7 92.5,-226.7 13.5,-226.7"/>
<polygon fill="none" stroke="#000000" points="13.5,-226.7 13.5,-249.7 92.5,-249.7 92.5,-226.7 13.5,-226.7"/>
<text text-anchor="start" x="18.4688" y="-235.8" font-family="Helvetica,sans-Serif" font-weight="bold" font-size="11.00" fill="#000000">usuario</text>
<text text-anchor="start" x="58.0219" y="-234.8" font-family="Helvetica,sans-Serif" font-size="11.00" fill="#000000">[table]</text>
<polygon fill="none" stroke="#000000" points="13.5,-207.7 13.5,-226.7 92.5,-226.7 92.5,-207.7 13.5,-207.7"/>
<text text-anchor="start" x="16.5" y="-213.8" font-family="Helvetica,sans-Serif" font-size="11.00" fill="#000000">...</text>
<polygon fill="#ffffff" stroke="transparent" points="13.5,-188.7 13.5,-207.7 29.5,-207.7 29.5,-188.7 13.5,-188.7"/>
<polygon fill="none" stroke="#000000" points="13.5,-188.7 13.5,-207.7 29.5,-207.7 29.5,-188.7 13.5,-188.7"/>
<text text-anchor="start" x="16.5" y="-194.8" font-family="Helvetica,sans-Serif" font-size="11.00" fill="#000000"> &#160;</text>
<polygon fill="#ffffff" stroke="transparent" points="29.5,-188.7 29.5,-207.7 69.5,-207.7 69.5,-188.7 29.5,-188.7"/>
<polygon fill="none" stroke="#000000" points="29.5,-188.7 29.5,-207.7 69.5,-207.7 69.5,-188.7 29.5,-188.7"/>
<text text-anchor="start" x="34.1105" y="-194.8" font-family="Helvetica,sans-Serif" font-size="11.00" fill="#000000">0 rows</text>
<polygon fill="#ffffff" stroke="transparent" points="69.5,-188.7 69.5,-207.7 92.5,-207.7 92.5,-188.7 69.5,-188.7"/>
<polygon fill="none" stroke="#000000" points="69.5,-188.7 69.5,-207.7 92.5,-207.7 92.5,-188.7 69.5,-188.7"/>
<text text-anchor="start" x="73.9053" y="-194.8" font-family="Helvetica,sans-Serif" font-size="11.00" fill="#000000">2 &gt;</text>
</a>
</g>
</g>
<!-- instituicao&#45;&gt;usuario -->
<g id="edge4" class="edge">
<title>instituicao:w&#45;&gt;usuario:e</title>
<path fill="none" stroke="#000000" d="M138.1949,-88.16C93.7987,-102.4422 151.4786,-216.7 92.5,-216.7"/>
<polygon fill="#000000" stroke="#000000" points="147.1468,-82.8518 148.269,-90.7727 146.6849,-90.9971 145.5626,-83.0762 147.1468,-82.8518"/>
<polyline fill="none" stroke="#000000" points="148.5,-86.7 144.5395,-87.2611 "/>
<ellipse fill="none" stroke="#000000" cx="141.3712" cy="-87.71" rx="3.2" ry="3.2"/>
</g>
<!-- arquivo_animal -->
<g id="node3" class="node">
<title>arquivo_animal</title>
<g id="a_node3"><a xlink:href="../../tables/arquivo_animal.html" xlink:title="arquivo_animal" target="_top">
<polygon fill="#ffffff" stroke="transparent" points="582,-81.2 582,-142.2 699,-142.2 699,-81.2 582,-81.2"/>
<polygon fill="#f5f5f5" stroke="transparent" points="582.5,-118.7 582.5,-141.7 699.5,-141.7 699.5,-118.7 582.5,-118.7"/>
<polygon fill="none" stroke="#000000" points="582.5,-118.7 582.5,-141.7 699.5,-141.7 699.5,-118.7 582.5,-118.7"/>
<text text-anchor="start" x="587.2171" y="-127.8" font-family="Helvetica,sans-Serif" font-weight="bold" font-size="11.00" fill="#000000">arquivo_animal</text>
<text text-anchor="start" x="665.0219" y="-126.8" font-family="Helvetica,sans-Serif" font-size="11.00" fill="#000000">[table]</text>
<polygon fill="none" stroke="#000000" points="582.5,-99.7 582.5,-118.7 699.5,-118.7 699.5,-99.7 582.5,-99.7"/>
<text text-anchor="start" x="585.5" y="-105.8" font-family="Helvetica,sans-Serif" font-size="11.00" fill="#000000">...</text>
<polygon fill="#ffffff" stroke="transparent" points="582.5,-80.7 582.5,-99.7 626.5,-99.7 626.5,-80.7 582.5,-80.7"/>
<polygon fill="none" stroke="#000000" points="582.5,-80.7 582.5,-99.7 626.5,-99.7 626.5,-80.7 582.5,-80.7"/>
<text text-anchor="start" x="585.5" y="-86.8" font-family="Helvetica,sans-Serif" font-size="11.00" fill="#000000">&lt; 1</text>
<polygon fill="#ffffff" stroke="transparent" points="626.5,-80.7 626.5,-99.7 675.5,-99.7 675.5,-80.7 626.5,-80.7"/>
<polygon fill="none" stroke="#000000" points="626.5,-80.7 626.5,-99.7 675.5,-99.7 675.5,-80.7 626.5,-80.7"/>
<text text-anchor="start" x="640.1105" y="-86.8" font-family="Helvetica,sans-Serif" font-size="11.00" fill="#000000">0 rows</text>
<polygon fill="#ffffff" stroke="transparent" points="675.5,-80.7 675.5,-99.7 699.5,-99.7 699.5,-80.7 675.5,-80.7"/>
<polygon fill="none" stroke="#000000" points="675.5,-80.7 675.5,-99.7 699.5,-99.7 699.5,-80.7 675.5,-80.7"/>
<text text-anchor="start" x="690.3862" y="-86.8" font-family="Helvetica,sans-Serif" font-size="11.00" fill="#000000"> &#160;</text>
</a>
</g>
</g>
<!-- arquivo_animal&#45;&gt;animal -->
<g id="edge2" class="edge">
<title>arquivo_animal:w&#45;&gt;animal:e</title>
<path fill="none" stroke="#000000" d="M567.8575,-108.7C521.5434,-108.7 504.7891,-108.7 452,-108.7"/>
<polygon fill="#000000" stroke="#000000" points="574.5,-108.7001 582.5,-112.3 578.5,-108.7 582.5,-108.7 582.5,-108.7 582.5,-108.7 578.5,-108.7 582.5,-105.1 574.5,-108.7001 574.5,-108.7001"/>
<ellipse fill="none" stroke="#000000" cx="571.3" cy="-108.7001" rx="3.2" ry="3.2"/>
</g>
<!-- pessoa -->
<g id="node6" class="node">
<title>pessoa</title>
<g id="a_node6"><a xlink:href="../../tables/pessoa.html" xlink:title="pessoa" target="_top">
<polygon fill="#ffffff" stroke="transparent" points="146,-141.2 146,-268.2 241,-268.2 241,-141.2 146,-141.2"/>
<polygon fill="#f5f5f5" stroke="transparent" points="146.5,-244.7 146.5,-267.7 241.5,-267.7 241.5,-244.7 146.5,-244.7"/>
<polygon fill="none" stroke="#000000" points="146.5,-244.7 146.5,-267.7 241.5,-267.7 241.5,-244.7 146.5,-244.7"/>
<text text-anchor="start" x="151.5" y="-253.8" font-family="Helvetica,sans-Serif" font-weight="bold" font-size="11.00" fill="#000000">pessoa</text>
<text text-anchor="start" x="206.5437" y="-252.8" font-family="Helvetica,sans-Serif" font-size="11.00" fill="#000000">[table]</text>
<polygon fill="none" stroke="#000000" points="146.5,-222.7 146.5,-244.7 241.5,-244.7 241.5,-222.7 146.5,-222.7"/>
<image xlink:href="../../images/primaryKeys.png" width="11px" height="12px" preserveAspectRatio="xMinYMin meet" x="151.5" y="-239.7"/>
<text text-anchor="start" x="166.5" y="-229.8" font-family="Helvetica,sans-Serif" font-size="11.00" fill="#000000">usuario_id</text>
<polygon fill="#ffffff" stroke="transparent" points="146.5,-200.7 146.5,-222.7 241.5,-222.7 241.5,-200.7 146.5,-200.7"/>
<polygon fill="none" stroke="#000000" points="146.5,-200.7 146.5,-222.7 241.5,-222.7 241.5,-200.7 146.5,-200.7"/>
<text text-anchor="start" x="166.5" y="-207.8" font-family="Helvetica,sans-Serif" font-size="11.00" fill="#000000">telefone</text>
<polygon fill="none" stroke="#000000" points="146.5,-178.7 146.5,-200.7 241.5,-200.7 241.5,-178.7 146.5,-178.7"/>
<image xlink:href="../../images/foreignKeys.png" width="11px" height="12px" preserveAspectRatio="xMinYMin meet" x="151.5" y="-195.7"/>
<text text-anchor="start" x="166.5" y="-185.8" font-family="Helvetica,sans-Serif" font-size="11.00" fill="#000000">municipio_id</text>
<polygon fill="none" stroke="#000000" points="146.5,-159.7 146.5,-178.7 241.5,-178.7 241.5,-159.7 146.5,-159.7"/>
<text text-anchor="start" x="149.5" y="-165.8" font-family="Helvetica,sans-Serif" font-size="11.00" fill="#000000">...</text>
<polygon fill="#ffffff" stroke="transparent" points="146.5,-140.7 146.5,-159.7 174.5,-159.7 174.5,-140.7 146.5,-140.7"/>
<polygon fill="none" stroke="#000000" points="146.5,-140.7 146.5,-159.7 174.5,-159.7 174.5,-140.7 146.5,-140.7"/>
<text text-anchor="start" x="149.5" y="-146.8" font-family="Helvetica,sans-Serif" font-size="11.00" fill="#000000">&lt; 2</text>
<polygon fill="#ffffff" stroke="transparent" points="174.5,-140.7 174.5,-159.7 216.5,-159.7 216.5,-140.7 174.5,-140.7"/>
<polygon fill="none" stroke="#000000" points="174.5,-140.7 174.5,-159.7 216.5,-159.7 216.5,-140.7 174.5,-140.7"/>
<text text-anchor="start" x="181.1105" y="-146.8" font-family="Helvetica,sans-Serif" font-size="11.00" fill="#000000">0 rows</text>
<polygon fill="#ffffff" stroke="transparent" points="216.5,-140.7 216.5,-159.7 241.5,-159.7 241.5,-140.7 216.5,-140.7"/>
<polygon fill="none" stroke="#000000" points="216.5,-140.7 216.5,-159.7 241.5,-159.7 241.5,-140.7 216.5,-140.7"/>
<text text-anchor="start" x="222.9053" y="-146.8" font-family="Helvetica,sans-Serif" font-size="11.00" fill="#000000">2 &gt;</text>
</a>
</g>
</g>
<!-- pessoa&#45;&gt;municipio -->
<g id="edge5" class="edge">
<title>pessoa:w&#45;&gt;municipio:e</title>
<path fill="none" stroke="#000000" d="M132.8596,-185.0415C115.1978,-169.2459 129.8501,-118.7 97.5,-118.7"/>
<polygon fill="#000000" stroke="#000000" points="138.9293,-187.1144 145.3365,-193.1068 142.7147,-188.4072 146.5,-189.7 146.5,-189.7 146.5,-189.7 142.7147,-188.4072 147.6635,-186.2932 138.9293,-187.1144 138.9293,-187.1144"/>
<ellipse fill="none" stroke="#000000" cx="135.9011" cy="-186.0802" rx="3.2" ry="3.2"/>
</g>
<!-- pessoa&#45;&gt;usuario -->
<g id="edge6" class="edge">
<title>pessoa:w&#45;&gt;usuario:e</title>
<path fill="none" stroke="#000000" d="M136.1153,-232.5846C119.665,-228.8025 113.7298,-216.7 92.5,-216.7"/>
<polygon fill="#000000" stroke="#000000" points="146.1318,-229.6374 145.2774,-237.5917 143.6865,-237.4208 144.5409,-229.4665 146.1318,-229.6374"/>
<polyline fill="none" stroke="#000000" points="146.5,-233.7 142.5229,-233.2728 "/>
<ellipse fill="none" stroke="#000000" cx="139.3412" cy="-232.931" rx="3.2" ry="3.2"/>
</g>
<!-- pessoa_cadastra_campanha -->
<g id="node7" class="node">
<title>pessoa_cadastra_campanha</title>
<g id="a_node7"><a xlink:href="../../tables/pessoa_cadastra_campanha.html" xlink:title="pessoa_cadastra_campanha" target="_top">
<polygon fill="#ffffff" stroke="transparent" points="290,-164.2 290,-225.2 474,-225.2 474,-164.2 290,-164.2"/>
<polygon fill="#f5f5f5" stroke="transparent" points="290,-201.7 290,-224.7 474,-224.7 474,-201.7 290,-201.7"/>
<polygon fill="none" stroke="#000000" points="290,-201.7 290,-224.7 474,-224.7 474,-201.7 290,-201.7"/>
<text text-anchor="start" x="294.8905" y="-210.8" font-family="Helvetica,sans-Serif" font-weight="bold" font-size="11.00" fill="#000000">pessoa_cadastra_campanha</text>
<text text-anchor="start" x="439.5219" y="-209.8" font-family="Helvetica,sans-Serif" font-size="11.00" fill="#000000">[table]</text>
<polygon fill="none" stroke="#000000" points="290,-182.7 290,-201.7 474,-201.7 474,-182.7 290,-182.7"/>
<text text-anchor="start" x="293" y="-188.8" font-family="Helvetica,sans-Serif" font-size="11.00" fill="#000000">...</text>
<polygon fill="#ffffff" stroke="transparent" points="290,-163.7 290,-182.7 367,-182.7 367,-163.7 290,-163.7"/>
<polygon fill="none" stroke="#000000" points="290,-163.7 290,-182.7 367,-182.7 367,-163.7 290,-163.7"/>
<text text-anchor="start" x="293" y="-169.8" font-family="Helvetica,sans-Serif" font-size="11.00" fill="#000000">&lt; 2</text>
<polygon fill="#ffffff" stroke="transparent" points="367,-163.7 367,-182.7 433,-182.7 433,-163.7 367,-163.7"/>
<polygon fill="none" stroke="#000000" points="367,-163.7 367,-182.7 433,-182.7 433,-163.7 367,-163.7"/>
<text text-anchor="start" x="397.6105" y="-169.8" font-family="Helvetica,sans-Serif" font-size="11.00" fill="#000000">0 rows</text>
<polygon fill="#ffffff" stroke="transparent" points="433,-163.7 433,-182.7 474,-182.7 474,-163.7 433,-163.7"/>
<polygon fill="none" stroke="#000000" points="433,-163.7 433,-182.7 474,-182.7 474,-163.7 433,-163.7"/>
<text text-anchor="start" x="464.8862" y="-169.8" font-family="Helvetica,sans-Serif" font-size="11.00" fill="#000000"> &#160;</text>
</a>
</g>
</g>
<!-- pessoa_cadastra_campanha&#45;&gt;pessoa -->
<g id="edge7" class="edge">
<title>pessoa_cadastra_campanha:w&#45;&gt;pessoa:e</title>
<path fill="none" stroke="#000000" d="M276.205,-196.5179C263.4354,-207.55 263.9999,-233.7 241.5,-233.7"/>
<polygon fill="#000000" stroke="#000000" points="282.4474,-194.3378 291.187,-195.0987 286.2237,-193.0189 290,-191.7 290,-191.7 290,-191.7 286.2237,-193.0189 288.813,-188.3013 282.4474,-194.3378 282.4474,-194.3378"/>
<ellipse fill="none" stroke="#000000" cx="279.4263" cy="-195.3929" rx="3.2" ry="3.2"/>
</g>
<!-- pessoa_interessa_animal -->
<g id="node8" class="node">
<title>pessoa_interessa_animal</title>
<g id="a_node8"><a xlink:href="../../tables/pessoa_interessa_animal.html" xlink:title="pessoa_interessa_animal" target="_top">
<polygon fill="#ffffff" stroke="transparent" points="523,-168.7 523,-302.7 758,-302.7 758,-168.7 523,-168.7"/>
<polygon fill="#f5f5f5" stroke="transparent" points="525.5,-277.7 525.5,-300.7 756.5,-300.7 756.5,-277.7 525.5,-277.7"/>
<polygon fill="none" stroke="#000000" points="525.5,-277.7 525.5,-300.7 756.5,-300.7 756.5,-277.7 525.5,-277.7"/>
<text text-anchor="start" x="530.5" y="-286.8" font-family="Helvetica,sans-Serif" font-weight="bold" font-size="11.00" fill="#000000">pessoa_interessa_animal</text>
<text text-anchor="start" x="721.5437" y="-285.8" font-family="Helvetica,sans-Serif" font-size="11.00" fill="#000000">[table]</text>
<polygon fill="none" stroke="#000000" points="525.5,-255.7 525.5,-277.7 691.5,-277.7 691.5,-255.7 525.5,-255.7"/>
<image xlink:href="../../images/primaryKeys.png" width="11px" height="12px" preserveAspectRatio="xMinYMin meet" x="530.5" y="-272.7"/>
<text text-anchor="start" x="545.5" y="-262.8" font-family="Helvetica,sans-Serif" font-size="11.00" fill="#000000">id</text>
<polygon fill="none" stroke="#000000" points="691.5,-255.7 691.5,-277.7 756.5,-277.7 756.5,-255.7 691.5,-255.7"/>
<text text-anchor="start" x="694.3561" y="-263.4" font-family="Helvetica,sans-Serif" font-size="11.00" fill="#000000">bigserial[19]</text>
<polygon fill="#ffffff" stroke="transparent" points="525.5,-233.7 525.5,-255.7 691.5,-255.7 691.5,-233.7 525.5,-233.7"/>
<polygon fill="none" stroke="#000000" points="525.5,-233.7 525.5,-255.7 691.5,-255.7 691.5,-233.7 525.5,-233.7"/>
<image xlink:href="../../images/foreignKeys.png" width="11px" height="12px" preserveAspectRatio="xMinYMin meet" x="530.5" y="-250.7"/>
<text text-anchor="start" x="545.5" y="-240.8" font-family="Helvetica,sans-Serif" font-size="11.00" fill="#000000">pessoa_id</text>
<polygon fill="none" stroke="#000000" points="691.5,-233.7 691.5,-255.7 756.5,-255.7 756.5,-233.7 691.5,-233.7"/>
<text text-anchor="start" x="694.5" y="-241.4" font-family="Helvetica,sans-Serif" font-size="11.00" fill="#000000">int4[10]</text>
<polygon fill="#ffffff" stroke="transparent" points="525.5,-211.7 525.5,-233.7 691.5,-233.7 691.5,-211.7 525.5,-211.7"/>
<polygon fill="none" stroke="#000000" points="525.5,-211.7 525.5,-233.7 691.5,-233.7 691.5,-211.7 525.5,-211.7"/>
<image xlink:href="../../images/foreignKeys.png" width="11px" height="12px" preserveAspectRatio="xMinYMin meet" x="530.5" y="-228.7"/>
<text text-anchor="start" x="545.5" y="-218.8" font-family="Helvetica,sans-Serif" font-size="11.00" fill="#000000">animal_id</text>
<polygon fill="none" stroke="#000000" points="691.5,-211.7 691.5,-233.7 756.5,-233.7 756.5,-211.7 691.5,-211.7"/>
<text text-anchor="start" x="694.5" y="-219.4" font-family="Helvetica,sans-Serif" font-size="11.00" fill="#000000">int4[10]</text>
<polygon fill="none" stroke="#000000" points="525.5,-189.7 525.5,-211.7 691.5,-211.7 691.5,-189.7 525.5,-189.7"/>
<text text-anchor="start" x="545.5" y="-196.8" font-family="Helvetica,sans-Serif" font-size="11.00" fill="#000000">data</text>
<polygon fill="none" stroke="#000000" points="691.5,-189.7 691.5,-211.7 756.5,-211.7 756.5,-189.7 691.5,-189.7"/>
<text text-anchor="start" x="694.5" y="-197.4" font-family="Helvetica,sans-Serif" font-size="11.00" fill="#000000">date[13]</text>
<polygon fill="#ffffff" stroke="transparent" points="525.5,-170.7 525.5,-189.7 599.5,-189.7 599.5,-170.7 525.5,-170.7"/>
<polygon fill="none" stroke="#000000" points="525.5,-170.7 525.5,-189.7 599.5,-189.7 599.5,-170.7 525.5,-170.7"/>
<text text-anchor="start" x="528.5" y="-176.8" font-family="Helvetica,sans-Serif" font-size="11.00" fill="#000000">&lt; 2</text>
<polygon fill="#ffffff" stroke="transparent" points="599.5,-170.7 599.5,-189.7 691.5,-189.7 691.5,-170.7 599.5,-170.7"/>
<polygon fill="none" stroke="#000000" points="599.5,-170.7 599.5,-189.7 691.5,-189.7 691.5,-170.7 599.5,-170.7"/>
<text text-anchor="start" x="656.1105" y="-176.8" font-family="Helvetica,sans-Serif" font-size="11.00" fill="#000000">0 rows</text>
<polygon fill="#ffffff" stroke="transparent" points="691.5,-170.7 691.5,-189.7 756.5,-189.7 756.5,-170.7 691.5,-170.7"/>
<polygon fill="none" stroke="#000000" points="691.5,-170.7 691.5,-189.7 756.5,-189.7 756.5,-170.7 691.5,-170.7"/>
<text text-anchor="start" x="737.9053" y="-176.8" font-family="Helvetica,sans-Serif" font-size="11.00" fill="#000000">0 &gt;</text>
<polygon fill="none" stroke="#000000" stroke-width="2" points="524,-169.7 524,-301.7 757,-301.7 757,-169.7 524,-169.7"/>
</a>
</g>
</g>
<!-- pessoa_interessa_animal&#45;&gt;animal -->
<g id="edge8" class="edge">
<title>pessoa_interessa_animal:w&#45;&gt;animal:e</title>
<path fill="none" stroke="#000000" d="M511.1987,-219.882C473.0974,-202.327 506.6328,-108.7 452,-108.7"/>
<polygon fill="#000000" stroke="#000000" points="517.6509,-221.1533 524.804,-226.2321 521.5755,-221.9267 525.5,-222.7 525.5,-222.7 525.5,-222.7 521.5755,-221.9267 526.196,-219.1679 517.6509,-221.1533 517.6509,-221.1533"/>
<ellipse fill="none" stroke="#000000" cx="514.5113" cy="-220.5347" rx="3.2" ry="3.2"/>
</g>
<!-- pessoa_interessa_animal&#45;&gt;pessoa -->
<g id="edge9" class="edge">
<title>pessoa_interessa_animal:w&#45;&gt;pessoa:e</title>
<path fill="none" stroke="#000000" d="M511.0862,-244.673C414.5535,-244.3019 385.2293,-240.1564 282,-235.7 263.9948,-234.9227 259.5219,-233.7 241.5,-233.7"/>
<polygon fill="#000000" stroke="#000000" points="517.5,-244.685 525.4932,-248.3 521.5,-244.6925 525.5,-244.7 525.5,-244.7 525.5,-244.7 521.5,-244.6925 525.5068,-241.1 517.5,-244.685 517.5,-244.685"/>
<ellipse fill="none" stroke="#000000" cx="514.3" cy="-244.679" rx="3.2" ry="3.2"/>
</g>
</g>
</svg>
