<?xml version="1.0" encoding="UTF-8" standalone="no"?>
<!DOCTYPE svg PUBLIC "-//W3C//DTD SVG 1.1//EN"
 "http://www.w3.org/Graphics/SVG/1.1/DTD/svg11.dtd">
<!-- Generated by graphviz version 2.40.1 (20161225.0304)
 -->
<!-- Title: oneDegreeRelationshipsDiagram Pages: 1 -->
<svg width="424pt" height="325pt"
 viewBox="0.00 0.00 424.00 325.20" xmlns="http://www.w3.org/2000/svg" xmlns:xlink="http://www.w3.org/1999/xlink">
<g id="graph0" class="graph" transform="scale(1 1) rotate(0) translate(4 321.2)">
<title>oneDegreeRelationshipsDiagram</title>
<polygon fill="#ffffff" stroke="transparent" points="-4,4 -4,-321.2 420,-321.2 420,4 -4,4"/>
<text text-anchor="middle" x="72.4936" y="-7.3" font-family="Helvetica,sans-Serif" font-size="11.00" fill="#000000">Generated by SchemaSpy</text>
<!-- pessoa_cadastra_campanha -->
<g id="node1" class="node">
<title>pessoa_cadastra_campanha</title>
<g id="a_node1"><a xlink:href="../../tables/pessoa_cadastra_campanha.html" xlink:title="pessoa_cadastra_campanha" target="_top">
<polygon fill="#ffffff" stroke="transparent" points="155,-117.7 155,-273.7 408,-273.7 408,-117.7 155,-117.7"/>
<polygon fill="#f5f5f5" stroke="transparent" points="157.5,-248.7 157.5,-271.7 406.5,-271.7 406.5,-248.7 157.5,-248.7"/>
<polygon fill="none" stroke="#000000" points="157.5,-248.7 157.5,-271.7 406.5,-271.7 406.5,-248.7 157.5,-248.7"/>
<text text-anchor="start" x="162.5" y="-257.8" font-family="Helvetica,sans-Serif" font-weight="bold" font-size="11.00" fill="#000000">pessoa_cadastra_campanha</text>
<text text-anchor="start" x="371.5437" y="-256.8" font-family="Helvetica,sans-Serif" font-size="11.00" fill="#000000">[table]</text>
<polygon fill="none" stroke="#000000" points="157.5,-226.7 157.5,-248.7 341.5,-248.7 341.5,-226.7 157.5,-226.7"/>
<image xlink:href="../../images/primaryKeys.png" width="11px" height="12px" preserveAspectRatio="xMinYMin meet" x="162.5" y="-243.7"/>
<text text-anchor="start" x="177.5" y="-233.8" font-family="Helvetica,sans-Serif" font-size="11.00" fill="#000000">id</text>
<polygon fill="none" stroke="#000000" points="341.5,-226.7 341.5,-248.7 406.5,-248.7 406.5,-226.7 341.5,-226.7"/>
<text text-anchor="start" x="344.3561" y="-234.4" font-family="Helvetica,sans-Serif" font-size="11.00" fill="#000000">bigserial[19]</text>
<polygon fill="#ffffff" stroke="transparent" points="157.5,-204.7 157.5,-226.7 341.5,-226.7 341.5,-204.7 157.5,-204.7"/>
<polygon fill="none" stroke="#000000" points="157.5,-204.7 157.5,-226.7 341.5,-226.7 341.5,-204.7 157.5,-204.7"/>
<image xlink:href="../../images/foreignKeys.png" width="11px" height="12px" preserveAspectRatio="xMinYMin meet" x="162.5" y="-221.7"/>
<text text-anchor="start" x="177.5" y="-211.8" font-family="Helvetica,sans-Serif" font-size="11.00" fill="#000000">pessoa_id</text>
<polygon fill="none" stroke="#000000" points="341.5,-204.7 341.5,-226.7 406.5,-226.7 406.5,-204.7 341.5,-204.7"/>
<text text-anchor="start" x="344.5" y="-212.4" font-family="Helvetica,sans-Serif" font-size="11.00" fill="#000000">int4[10]</text>
<polygon fill="#ffffff" stroke="transparent" points="157.5,-182.7 157.5,-204.7 341.5,-204.7 341.5,-182.7 157.5,-182.7"/>
<polygon fill="none" stroke="#000000" points="157.5,-182.7 157.5,-204.7 341.5,-204.7 341.5,-182.7 157.5,-182.7"/>
<image xlink:href="../../images/foreignKeys.png" width="11px" height="12px" preserveAspectRatio="xMinYMin meet" x="162.5" y="-199.7"/>
<text text-anchor="start" x="177.5" y="-189.8" font-family="Helvetica,sans-Serif" font-size="11.00" fill="#000000">campanha_id</text>
<polygon fill="none" stroke="#000000" points="341.5,-182.7 341.5,-204.7 406.5,-204.7 406.5,-182.7 341.5,-182.7"/>
<text text-anchor="start" x="344.5" y="-190.4" font-family="Helvetica,sans-Serif" font-size="11.00" fill="#000000">int4[10]</text>
<polygon fill="none" stroke="#000000" points="157.5,-160.7 157.5,-182.7 341.5,-182.7 341.5,-160.7 157.5,-160.7"/>
<text text-anchor="start" x="177.5" y="-167.8" font-family="Helvetica,sans-Serif" font-size="11.00" fill="#000000">situacao</text>
<polygon fill="none" stroke="#000000" points="341.5,-160.7 341.5,-182.7 406.5,-182.7 406.5,-160.7 341.5,-160.7"/>
<text text-anchor="start" x="344.5" y="-168.4" font-family="Helvetica,sans-Serif" font-size="11.00" fill="#000000">varchar[50]</text>
<polygon fill="none" stroke="#000000" points="157.5,-138.7 157.5,-160.7 341.5,-160.7 341.5,-138.7 157.5,-138.7"/>
<text text-anchor="start" x="177.5" y="-145.8" font-family="Helvetica,sans-Serif" font-size="11.00" fill="#000000">data</text>
<polygon fill="none" stroke="#000000" points="341.5,-138.7 341.5,-160.7 406.5,-160.7 406.5,-138.7 341.5,-138.7"/>
<text text-anchor="start" x="344.5" y="-146.4" font-family="Helvetica,sans-Serif" font-size="11.00" fill="#000000">date[13]</text>
<polygon fill="#ffffff" stroke="transparent" points="157.5,-119.7 157.5,-138.7 240.5,-138.7 240.5,-119.7 157.5,-119.7"/>
<polygon fill="none" stroke="#000000" points="157.5,-119.7 157.5,-138.7 240.5,-138.7 240.5,-119.7 157.5,-119.7"/>
<text text-anchor="start" x="160.5" y="-125.8" font-family="Helvetica,sans-Serif" font-size="11.00" fill="#000000">&lt; 2</text>
<polygon fill="#ffffff" stroke="transparent" points="240.5,-119.7 240.5,-138.7 341.5,-138.7 341.5,-119.7 240.5,-119.7"/>
<polygon fill="none" stroke="#000000" points="240.5,-119.7 240.5,-138.7 341.5,-138.7 341.5,-119.7 240.5,-119.7"/>
<text text-anchor="start" x="306.1105" y="-125.8" font-family="Helvetica,sans-Serif" font-size="11.00" fill="#000000">0 rows</text>
<polygon fill="#ffffff" stroke="transparent" points="341.5,-119.7 341.5,-138.7 406.5,-138.7 406.5,-119.7 341.5,-119.7"/>
<polygon fill="none" stroke="#000000" points="341.5,-119.7 341.5,-138.7 406.5,-138.7 406.5,-119.7 341.5,-119.7"/>
<text text-anchor="start" x="387.9053" y="-125.8" font-family="Helvetica,sans-Serif" font-size="11.00" fill="#000000">0 &gt;</text>
<polygon fill="none" stroke="#000000" stroke-width="2" points="156,-118.7 156,-272.7 407,-272.7 407,-118.7 156,-118.7"/>
</a>
</g>
</g>
<!-- campanha -->
<g id="node2" class="node">
<title>campanha</title>
<g id="a_node2"><a xlink:href="../../tables/campanha.html" xlink:title="campanha" target="_top">
<polygon fill="#ffffff" stroke="transparent" points="8,-38.2 8,-165.2 106,-165.2 106,-38.2 8,-38.2"/>
<polygon fill="#f5f5f5" stroke="transparent" points="8,-141.7 8,-164.7 106,-164.7 106,-141.7 8,-141.7"/>
<polygon fill="none" stroke="#000000" points="8,-141.7 8,-164.7 106,-164.7 106,-141.7 8,-141.7"/>
<text text-anchor="start" x="13" y="-150.8" font-family="Helvetica,sans-Serif" font-weight="bold" font-size="11.00" fill="#000000">campanha</text>
<text text-anchor="start" x="71.0437" y="-149.8" font-family="Helvetica,sans-Serif" font-size="11.00" fill="#000000">[table]</text>
<polygon fill="none" stroke="#000000" points="8,-119.7 8,-141.7 106,-141.7 106,-119.7 8,-119.7"/>
<image xlink:href="../../images/primaryKeys.png" width="11px" height="12px" preserveAspectRatio="xMinYMin meet" x="13" y="-136.7"/>
<text text-anchor="start" x="28" y="-126.8" font-family="Helvetica,sans-Serif" font-size="11.00" fill="#000000">id</text>
<polygon fill="none" stroke="#000000" points="8,-97.7 8,-119.7 106,-119.7 106,-97.7 8,-97.7"/>
<image xlink:href="../../images/foreignKeys.png" width="11px" height="12px" preserveAspectRatio="xMinYMin meet" x="13" y="-114.7"/>
<text text-anchor="start" x="28" y="-104.8" font-family="Helvetica,sans-Serif" font-size="11.00" fill="#000000">instituicao_id</text>
<polygon fill="none" stroke="#000000" points="8,-75.7 8,-97.7 106,-97.7 106,-75.7 8,-75.7"/>
<image xlink:href="../../images/foreignKeys.png" width="11px" height="12px" preserveAspectRatio="xMinYMin meet" x="13" y="-92.7"/>
<text text-anchor="start" x="28" y="-82.8" font-family="Helvetica,sans-Serif" font-size="11.00" fill="#000000">formulario_id</text>
<polygon fill="none" stroke="#000000" points="8,-56.7 8,-75.7 106,-75.7 106,-56.7 8,-56.7"/>
<text text-anchor="start" x="11" y="-62.8" font-family="Helvetica,sans-Serif" font-size="11.00" fill="#000000">...</text>
<polygon fill="#ffffff" stroke="transparent" points="8,-37.7 8,-56.7 38,-56.7 38,-37.7 8,-37.7"/>
<polygon fill="none" stroke="#000000" points="8,-37.7 8,-56.7 38,-56.7 38,-37.7 8,-37.7"/>
<text text-anchor="start" x="11" y="-43.8" font-family="Helvetica,sans-Serif" font-size="11.00" fill="#000000">&lt; 2</text>
<polygon fill="#ffffff" stroke="transparent" points="38,-37.7 38,-56.7 80,-56.7 80,-37.7 38,-37.7"/>
<polygon fill="none" stroke="#000000" points="38,-37.7 38,-56.7 80,-56.7 80,-37.7 38,-37.7"/>
<text text-anchor="start" x="44.6105" y="-43.8" font-family="Helvetica,sans-Serif" font-size="11.00" fill="#000000">0 rows</text>
<polygon fill="#ffffff" stroke="transparent" points="80,-37.7 80,-56.7 106,-56.7 106,-37.7 80,-37.7"/>
<polygon fill="none" stroke="#000000" points="80,-37.7 80,-56.7 106,-56.7 106,-37.7 80,-37.7"/>
<text text-anchor="start" x="87.4053" y="-43.8" font-family="Helvetica,sans-Serif" font-size="11.00" fill="#000000">3 &gt;</text>
</a>
</g>
</g>
<!-- pessoa_cadastra_campanha&#45;&gt;campanha -->
<g id="edge1" class="edge">
<title>pessoa_cadastra_campanha:w&#45;&gt;campanha:e</title>
<path fill="none" stroke="#000000" d="M143.799,-189.1692C126.6358,-174.7239 136.2316,-130.7 106,-130.7"/>
<polygon fill="#000000" stroke="#000000" points="149.9045,-191.1882 156.3697,-197.118 153.7023,-192.4441 157.5,-193.7 157.5,-193.7 157.5,-193.7 153.7023,-192.4441 158.6303,-190.282 149.9045,-191.1882 149.9045,-191.1882"/>
<ellipse fill="none" stroke="#000000" cx="146.8663" cy="-190.1835" rx="3.2" ry="3.2"/>
</g>
<!-- pessoa -->
<g id="node3" class="node">
<title>pessoa</title>
<g id="a_node3"><a xlink:href="../../tables/pessoa.html" xlink:title="pessoa" target="_top">
<polygon fill="#ffffff" stroke="transparent" points="9.5,-186.2 9.5,-313.2 104.5,-313.2 104.5,-186.2 9.5,-186.2"/>
<polygon fill="#f5f5f5" stroke="transparent" points="10,-289.7 10,-312.7 105,-312.7 105,-289.7 10,-289.7"/>
<polygon fill="none" stroke="#000000" points="10,-289.7 10,-312.7 105,-312.7 105,-289.7 10,-289.7"/>
<text text-anchor="start" x="15" y="-298.8" font-family="Helvetica,sans-Serif" font-weight="bold" font-size="11.00" fill="#000000">pessoa</text>
<text text-anchor="start" x="70.0437" y="-297.8" font-family="Helvetica,sans-Serif" font-size="11.00" fill="#000000">[table]</text>
<polygon fill="none" stroke="#000000" points="10,-267.7 10,-289.7 105,-289.7 105,-267.7 10,-267.7"/>
<image xlink:href="../../images/primaryKeys.png" width="11px" height="12px" preserveAspectRatio="xMinYMin meet" x="15" y="-284.7"/>
<text text-anchor="start" x="30" y="-274.8" font-family="Helvetica,sans-Serif" font-size="11.00" fill="#000000">usuario_id</text>
<polygon fill="#ffffff" stroke="transparent" points="10,-245.7 10,-267.7 105,-267.7 105,-245.7 10,-245.7"/>
<polygon fill="none" stroke="#000000" points="10,-245.7 10,-267.7 105,-267.7 105,-245.7 10,-245.7"/>
<text text-anchor="start" x="30" y="-252.8" font-family="Helvetica,sans-Serif" font-size="11.00" fill="#000000">telefone</text>
<polygon fill="none" stroke="#000000" points="10,-223.7 10,-245.7 105,-245.7 105,-223.7 10,-223.7"/>
<image xlink:href="../../images/foreignKeys.png" width="11px" height="12px" preserveAspectRatio="xMinYMin meet" x="15" y="-240.7"/>
<text text-anchor="start" x="30" y="-230.8" font-family="Helvetica,sans-Serif" font-size="11.00" fill="#000000">municipio_id</text>
<polygon fill="none" stroke="#000000" points="10,-204.7 10,-223.7 105,-223.7 105,-204.7 10,-204.7"/>
<text text-anchor="start" x="13" y="-210.8" font-family="Helvetica,sans-Serif" font-size="11.00" fill="#000000">...</text>
<polygon fill="#ffffff" stroke="transparent" points="10,-185.7 10,-204.7 38,-204.7 38,-185.7 10,-185.7"/>
<polygon fill="none" stroke="#000000" points="10,-185.7 10,-204.7 38,-204.7 38,-185.7 10,-185.7"/>
<text text-anchor="start" x="13" y="-191.8" font-family="Helvetica,sans-Serif" font-size="11.00" fill="#000000">&lt; 2</text>
<polygon fill="#ffffff" stroke="transparent" points="38,-185.7 38,-204.7 80,-204.7 80,-185.7 38,-185.7"/>
<polygon fill="none" stroke="#000000" points="38,-185.7 38,-204.7 80,-204.7 80,-185.7 38,-185.7"/>
<text text-anchor="start" x="44.6105" y="-191.8" font-family="Helvetica,sans-Serif" font-size="11.00" fill="#000000">0 rows</text>
<polygon fill="#ffffff" stroke="transparent" points="80,-185.7 80,-204.7 105,-204.7 105,-185.7 80,-185.7"/>
<polygon fill="none" stroke="#000000" points="80,-185.7 80,-204.7 105,-204.7 105,-185.7 80,-185.7"/>
<text text-anchor="start" x="86.4053" y="-191.8" font-family="Helvetica,sans-Serif" font-size="11.00" fill="#000000">2 &gt;</text>
</a>
</g>
</g>
<!-- pessoa_cadastra_campanha&#45;&gt;pessoa -->
<g id="edge2" class="edge">
<title>pessoa_cadastra_campanha:w&#45;&gt;pessoa:e</title>
<path fill="none" stroke="#000000" d="M143.6489,-220.2308C126.2145,-234.6761 135.4681,-278.7 105,-278.7"/>
<polygon fill="#000000" stroke="#000000" points="149.8964,-218.1872 158.6192,-219.1216 153.6982,-216.9436 157.5,-215.7 157.5,-215.7 157.5,-215.7 153.6982,-216.9436 156.3808,-212.2784 149.8964,-218.1872 149.8964,-218.1872"/>
<ellipse fill="none" stroke="#000000" cx="146.855" cy="-219.1821" rx="3.2" ry="3.2"/>
</g>
</g>
</svg>
