<?xml version="1.0" encoding="UTF-8" standalone="no"?>
<!DOCTYPE svg PUBLIC "-//W3C//DTD SVG 1.1//EN"
 "http://www.w3.org/Graphics/SVG/1.1/DTD/svg11.dtd">
<!-- Generated by graphviz version 2.40.1 (20161225.0304)
 -->
<!-- Title: twoDegreesRelationshipsDiagram Pages: 1 -->
<svg width="704pt" height="333pt"
 viewBox="0.00 0.00 704.00 333.20" xmlns="http://www.w3.org/2000/svg" xmlns:xlink="http://www.w3.org/1999/xlink">
<g id="graph0" class="graph" transform="scale(1 1) rotate(0) translate(4 329.2)">
<title>twoDegreesRelationshipsDiagram</title>
<polygon fill="#ffffff" stroke="transparent" points="-4,4 -4,-329.2 700,-329.2 700,4 -4,4"/>
<text text-anchor="middle" x="72.4936" y="-7.3" font-family="Helvetica,sans-Serif" font-size="11.00" fill="#000000">Generated by SchemaSpy</text>
<!-- animal -->
<g id="node1" class="node">
<title>animal</title>
<g id="a_node1"><a xlink:href="../../tables/animal.html" xlink:title="animal" target="_top">
<polygon fill="#ffffff" stroke="transparent" points="368,-195.7 368,-256.7 448,-256.7 448,-195.7 368,-195.7"/>
<polygon fill="#f5f5f5" stroke="transparent" points="368,-233.2 368,-256.2 448,-256.2 448,-233.2 368,-233.2"/>
<polygon fill="none" stroke="#000000" points="368,-233.2 368,-256.2 448,-256.2 448,-233.2 368,-233.2"/>
<text text-anchor="start" x="373" y="-242.3" font-family="Helvetica,sans-Serif" font-weight="bold" font-size="11.00" fill="#000000">animal</text>
<text text-anchor="start" x="413.0437" y="-241.3" font-family="Helvetica,sans-Serif" font-size="11.00" fill="#000000">[table]</text>
<polygon fill="none" stroke="#000000" points="368,-214.2 368,-233.2 448,-233.2 448,-214.2 368,-214.2"/>
<text text-anchor="start" x="371" y="-220.3" font-family="Helvetica,sans-Serif" font-size="11.00" fill="#000000">...</text>
<polygon fill="#ffffff" stroke="transparent" points="368,-195.2 368,-214.2 389,-214.2 389,-195.2 368,-195.2"/>
<polygon fill="none" stroke="#000000" points="368,-195.2 368,-214.2 389,-214.2 389,-195.2 368,-195.2"/>
<text text-anchor="start" x="370.7027" y="-201.3" font-family="Helvetica,sans-Serif" font-size="11.00" fill="#000000">&lt; 1</text>
<polygon fill="#ffffff" stroke="transparent" points="389,-195.2 389,-214.2 427,-214.2 427,-195.2 389,-195.2"/>
<polygon fill="none" stroke="#000000" points="389,-195.2 389,-214.2 427,-214.2 427,-195.2 389,-195.2"/>
<text text-anchor="start" x="391.8053" y="-201.3" font-family="Helvetica,sans-Serif" font-size="11.00" fill="#000000">0 rows</text>
<polygon fill="#ffffff" stroke="transparent" points="427,-195.2 427,-214.2 448,-214.2 448,-195.2 427,-195.2"/>
<polygon fill="none" stroke="#000000" points="427,-195.2 427,-214.2 448,-214.2 448,-195.2 427,-195.2"/>
<text text-anchor="start" x="429.7027" y="-201.3" font-family="Helvetica,sans-Serif" font-size="11.00" fill="#000000">2 &gt;</text>
</a>
</g>
</g>
<!-- instituicao -->
<g id="node2" class="node">
<title>instituicao</title>
<g id="a_node2"><a xlink:href="../../tables/instituicao.html" xlink:title="instituicao" target="_top">
<polygon fill="#ffffff" stroke="transparent" points="183.5,-60.7 183.5,-121.7 274.5,-121.7 274.5,-60.7 183.5,-60.7"/>
<polygon fill="#f5f5f5" stroke="transparent" points="184,-98.2 184,-121.2 275,-121.2 275,-98.2 184,-98.2"/>
<polygon fill="none" stroke="#000000" points="184,-98.2 184,-121.2 275,-121.2 275,-98.2 184,-98.2"/>
<text text-anchor="start" x="188.552" y="-107.3" font-family="Helvetica,sans-Serif" font-weight="bold" font-size="11.00" fill="#000000">instituicao</text>
<text text-anchor="start" x="240.5219" y="-106.3" font-family="Helvetica,sans-Serif" font-size="11.00" fill="#000000">[table]</text>
<polygon fill="none" stroke="#000000" points="184,-79.2 184,-98.2 275,-98.2 275,-79.2 184,-79.2"/>
<text text-anchor="start" x="187" y="-85.3" font-family="Helvetica,sans-Serif" font-size="11.00" fill="#000000">...</text>
<polygon fill="#ffffff" stroke="transparent" points="184,-60.2 184,-79.2 210,-79.2 210,-60.2 184,-60.2"/>
<polygon fill="none" stroke="#000000" points="184,-60.2 184,-79.2 210,-79.2 210,-60.2 184,-60.2"/>
<text text-anchor="start" x="187" y="-66.3" font-family="Helvetica,sans-Serif" font-size="11.00" fill="#000000">&lt; 2</text>
<polygon fill="#ffffff" stroke="transparent" points="210,-60.2 210,-79.2 251,-79.2 251,-60.2 210,-60.2"/>
<polygon fill="none" stroke="#000000" points="210,-60.2 210,-79.2 251,-79.2 251,-60.2 210,-60.2"/>
<text text-anchor="start" x="215.6105" y="-66.3" font-family="Helvetica,sans-Serif" font-size="11.00" fill="#000000">0 rows</text>
<polygon fill="#ffffff" stroke="transparent" points="251,-60.2 251,-79.2 275,-79.2 275,-60.2 251,-60.2"/>
<polygon fill="none" stroke="#000000" points="251,-60.2 251,-79.2 275,-79.2 275,-60.2 251,-60.2"/>
<text text-anchor="start" x="256.4053" y="-66.3" font-family="Helvetica,sans-Serif" font-size="11.00" fill="#000000">2 &gt;</text>
</a>
</g>
</g>
<!-- animal&#45;&gt;instituicao -->
<g id="edge1" class="edge">
<title>animal:w&#45;&gt;instituicao:e</title>
<path fill="none" stroke="#000000" d="M353.5822,-220.6449C327.8665,-209.4818 343.8195,-164.1248 320,-132.2 303.2728,-109.7808 302.9718,-88.2 275,-88.2"/>
<polygon fill="#000000" stroke="#000000" points="360.1227,-221.804 367.3718,-226.7448 364.0614,-222.502 368,-223.2 368,-223.2 368,-223.2 364.0614,-222.502 368.6282,-219.6552 360.1227,-221.804 360.1227,-221.804"/>
<ellipse fill="none" stroke="#000000" cx="356.9718" cy="-221.2456" rx="3.2" ry="3.2"/>
</g>
<!-- municipio -->
<g id="node4" class="node">
<title>municipio</title>
<g id="a_node4"><a xlink:href="../../tables/municipio.html" xlink:title="municipio" target="_top">
<polygon fill="#ffffff" stroke="transparent" points="8,-38.2 8,-146.2 97,-146.2 97,-38.2 8,-38.2"/>
<polygon fill="#f5f5f5" stroke="transparent" points="8.5,-123.2 8.5,-146.2 97.5,-146.2 97.5,-123.2 8.5,-123.2"/>
<polygon fill="none" stroke="#000000" points="8.5,-123.2 8.5,-146.2 97.5,-146.2 97.5,-123.2 8.5,-123.2"/>
<text text-anchor="start" x="13.2779" y="-132.3" font-family="Helvetica,sans-Serif" font-weight="bold" font-size="11.00" fill="#000000">municipio</text>
<text text-anchor="start" x="63.0219" y="-131.3" font-family="Helvetica,sans-Serif" font-size="11.00" fill="#000000">[table]</text>
<polygon fill="none" stroke="#000000" points="8.5,-101.2 8.5,-123.2 97.5,-123.2 97.5,-101.2 8.5,-101.2"/>
<image xlink:href="../../images/primaryKeys.png" width="11px" height="12px" preserveAspectRatio="xMinYMin meet" x="13.5" y="-118.2"/>
<text text-anchor="start" x="34.5" y="-108.3" font-family="Helvetica,sans-Serif" font-size="11.00" fill="#000000">id</text>
<polygon fill="#ffffff" stroke="transparent" points="8.5,-79.2 8.5,-101.2 97.5,-101.2 97.5,-79.2 8.5,-79.2"/>
<polygon fill="none" stroke="#000000" points="8.5,-79.2 8.5,-101.2 97.5,-101.2 97.5,-79.2 8.5,-79.2"/>
<text text-anchor="start" x="34.5" y="-86.3" font-family="Helvetica,sans-Serif" font-size="11.00" fill="#000000">uf</text>
<polygon fill="#ffffff" stroke="transparent" points="8.5,-57.2 8.5,-79.2 97.5,-79.2 97.5,-57.2 8.5,-57.2"/>
<polygon fill="none" stroke="#000000" points="8.5,-57.2 8.5,-79.2 97.5,-79.2 97.5,-57.2 8.5,-57.2"/>
<text text-anchor="start" x="34.5" y="-64.3" font-family="Helvetica,sans-Serif" font-size="11.00" fill="#000000">nome</text>
<polygon fill="#ffffff" stroke="transparent" points="8.5,-38.2 8.5,-57.2 29.5,-57.2 29.5,-38.2 8.5,-38.2"/>
<polygon fill="none" stroke="#000000" points="8.5,-38.2 8.5,-57.2 29.5,-57.2 29.5,-38.2 8.5,-38.2"/>
<text text-anchor="start" x="11.5" y="-44.3" font-family="Helvetica,sans-Serif" font-size="11.00" fill="#000000"> &#160;</text>
<polygon fill="#ffffff" stroke="transparent" points="29.5,-38.2 29.5,-57.2 71.5,-57.2 71.5,-38.2 29.5,-38.2"/>
<polygon fill="none" stroke="#000000" points="29.5,-38.2 29.5,-57.2 71.5,-57.2 71.5,-38.2 29.5,-38.2"/>
<text text-anchor="start" x="36.1105" y="-44.3" font-family="Helvetica,sans-Serif" font-size="11.00" fill="#000000">0 rows</text>
<polygon fill="#ffffff" stroke="transparent" points="71.5,-38.2 71.5,-57.2 97.5,-57.2 97.5,-38.2 71.5,-38.2"/>
<polygon fill="none" stroke="#000000" points="71.5,-38.2 71.5,-57.2 97.5,-57.2 97.5,-38.2 71.5,-38.2"/>
<text text-anchor="start" x="78.9053" y="-44.3" font-family="Helvetica,sans-Serif" font-size="11.00" fill="#000000">2 &gt;</text>
</a>
</g>
</g>
<!-- instituicao&#45;&gt;municipio -->
<g id="edge3" class="edge">
<title>instituicao:w&#45;&gt;municipio:e</title>
<path fill="none" stroke="#000000" d="M169.3276,-89.4232C141.649,-94.3139 131.9421,-112.2 97.5,-112.2"/>
<polygon fill="#000000" stroke="#000000" points="176.0277,-88.8647 184.2991,-91.7876 180.0138,-88.5323 184,-88.2 184,-88.2 184,-88.2 180.0138,-88.5323 183.7009,-84.6124 176.0277,-88.8647 176.0277,-88.8647"/>
<ellipse fill="none" stroke="#000000" cx="172.8387" cy="-89.1305" rx="3.2" ry="3.2"/>
</g>
<!-- usuario -->
<g id="node5" class="node">
<title>usuario</title>
<g id="a_node5"><a xlink:href="../../tables/usuario.html" xlink:title="usuario" target="_top">
<polygon fill="#ffffff" stroke="transparent" points="13,-179.7 13,-306.7 92,-306.7 92,-179.7 13,-179.7"/>
<polygon fill="#f5f5f5" stroke="transparent" points="13.5,-283.2 13.5,-306.2 92.5,-306.2 92.5,-283.2 13.5,-283.2"/>
<polygon fill="none" stroke="#000000" points="13.5,-283.2 13.5,-306.2 92.5,-306.2 92.5,-283.2 13.5,-283.2"/>
<text text-anchor="start" x="18.4688" y="-292.3" font-family="Helvetica,sans-Serif" font-weight="bold" font-size="11.00" fill="#000000">usuario</text>
<text text-anchor="start" x="58.0219" y="-291.3" font-family="Helvetica,sans-Serif" font-size="11.00" fill="#000000">[table]</text>
<polygon fill="none" stroke="#000000" points="13.5,-261.2 13.5,-283.2 92.5,-283.2 92.5,-261.2 13.5,-261.2"/>
<image xlink:href="../../images/primaryKeys.png" width="11px" height="12px" preserveAspectRatio="xMinYMin meet" x="18.5" y="-278.2"/>
<text text-anchor="start" x="38.5" y="-268.3" font-family="Helvetica,sans-Serif" font-size="11.00" fill="#000000">id</text>
<polygon fill="#ffffff" stroke="transparent" points="13.5,-239.2 13.5,-261.2 92.5,-261.2 92.5,-239.2 13.5,-239.2"/>
<polygon fill="none" stroke="#000000" points="13.5,-239.2 13.5,-261.2 92.5,-261.2 92.5,-239.2 13.5,-239.2"/>
<text text-anchor="start" x="38.5" y="-246.3" font-family="Helvetica,sans-Serif" font-size="11.00" fill="#000000">email</text>
<polygon fill="#ffffff" stroke="transparent" points="13.5,-217.2 13.5,-239.2 92.5,-239.2 92.5,-217.2 13.5,-217.2"/>
<polygon fill="none" stroke="#000000" points="13.5,-217.2 13.5,-239.2 92.5,-239.2 92.5,-217.2 13.5,-217.2"/>
<text text-anchor="start" x="38.5" y="-224.3" font-family="Helvetica,sans-Serif" font-size="11.00" fill="#000000">celular</text>
<polygon fill="none" stroke="#000000" points="13.5,-198.2 13.5,-217.2 92.5,-217.2 92.5,-198.2 13.5,-198.2"/>
<text text-anchor="start" x="16.5" y="-204.3" font-family="Helvetica,sans-Serif" font-size="11.00" fill="#000000">...</text>
<polygon fill="#ffffff" stroke="transparent" points="13.5,-179.2 13.5,-198.2 29.5,-198.2 29.5,-179.2 13.5,-179.2"/>
<polygon fill="none" stroke="#000000" points="13.5,-179.2 13.5,-198.2 29.5,-198.2 29.5,-179.2 13.5,-179.2"/>
<text text-anchor="start" x="16.5" y="-185.3" font-family="Helvetica,sans-Serif" font-size="11.00" fill="#000000"> &#160;</text>
<polygon fill="#ffffff" stroke="transparent" points="29.5,-179.2 29.5,-198.2 69.5,-198.2 69.5,-179.2 29.5,-179.2"/>
<polygon fill="none" stroke="#000000" points="29.5,-179.2 29.5,-198.2 69.5,-198.2 69.5,-179.2 29.5,-179.2"/>
<text text-anchor="start" x="34.1105" y="-185.3" font-family="Helvetica,sans-Serif" font-size="11.00" fill="#000000">0 rows</text>
<polygon fill="#ffffff" stroke="transparent" points="69.5,-179.2 69.5,-198.2 92.5,-198.2 92.5,-179.2 69.5,-179.2"/>
<polygon fill="none" stroke="#000000" points="69.5,-179.2 69.5,-198.2 92.5,-198.2 92.5,-179.2 69.5,-179.2"/>
<text text-anchor="start" x="73.9053" y="-185.3" font-family="Helvetica,sans-Serif" font-size="11.00" fill="#000000">2 &gt;</text>
</a>
</g>
</g>
<!-- instituicao&#45;&gt;usuario -->
<g id="edge4" class="edge">
<title>instituicao:w&#45;&gt;usuario:e</title>
<path fill="none" stroke="#000000" d="M173.4796,-89.3443C154.7159,-93.9147 150.9337,-111.6128 138,-132.2 103.1955,-187.6002 157.9259,-272.2 92.5,-272.2"/>
<polygon fill="#000000" stroke="#000000" points="182.7721,-84.31 183.6372,-92.2631 182.0466,-92.4361 181.1815,-84.483 182.7721,-84.31"/>
<polyline fill="none" stroke="#000000" points="184,-88.2 180.0235,-88.6325 "/>
<ellipse fill="none" stroke="#000000" cx="176.8422" cy="-88.9786" rx="3.2" ry="3.2"/>
</g>
<!-- campanha -->
<g id="node3" class="node">
<title>campanha</title>
<g id="a_node3"><a xlink:href="../../tables/campanha.html" xlink:title="campanha" target="_top">
<polygon fill="#ffffff" stroke="transparent" points="361,-74.7 361,-135.7 455,-135.7 455,-74.7 361,-74.7"/>
<polygon fill="#f5f5f5" stroke="transparent" points="361,-112.2 361,-135.2 455,-135.2 455,-112.2 361,-112.2"/>
<polygon fill="none" stroke="#000000" points="361,-112.2 361,-135.2 455,-135.2 455,-112.2 361,-112.2"/>
<text text-anchor="start" x="365.8244" y="-121.3" font-family="Helvetica,sans-Serif" font-weight="bold" font-size="11.00" fill="#000000">campanha</text>
<text text-anchor="start" x="420.5219" y="-120.3" font-family="Helvetica,sans-Serif" font-size="11.00" fill="#000000">[table]</text>
<polygon fill="none" stroke="#000000" points="361,-93.2 361,-112.2 455,-112.2 455,-93.2 361,-93.2"/>
<text text-anchor="start" x="364" y="-99.3" font-family="Helvetica,sans-Serif" font-size="11.00" fill="#000000">...</text>
<polygon fill="#ffffff" stroke="transparent" points="361,-74.2 361,-93.2 389,-93.2 389,-74.2 361,-74.2"/>
<polygon fill="none" stroke="#000000" points="361,-74.2 361,-93.2 389,-93.2 389,-74.2 361,-74.2"/>
<text text-anchor="start" x="364" y="-80.3" font-family="Helvetica,sans-Serif" font-size="11.00" fill="#000000">&lt; 1</text>
<polygon fill="#ffffff" stroke="transparent" points="389,-74.2 389,-93.2 430,-93.2 430,-74.2 389,-74.2"/>
<polygon fill="none" stroke="#000000" points="389,-74.2 389,-93.2 430,-93.2 430,-74.2 389,-74.2"/>
<text text-anchor="start" x="394.6105" y="-80.3" font-family="Helvetica,sans-Serif" font-size="11.00" fill="#000000">0 rows</text>
<polygon fill="#ffffff" stroke="transparent" points="430,-74.2 430,-93.2 455,-93.2 455,-74.2 430,-74.2"/>
<polygon fill="none" stroke="#000000" points="430,-74.2 430,-93.2 455,-93.2 455,-74.2 430,-74.2"/>
<text text-anchor="start" x="436.4053" y="-80.3" font-family="Helvetica,sans-Serif" font-size="11.00" fill="#000000">3 &gt;</text>
</a>
</g>
</g>
<!-- campanha&#45;&gt;instituicao -->
<g id="edge2" class="edge">
<title>campanha:w&#45;&gt;instituicao:e</title>
<path fill="none" stroke="#000000" d="M346.2851,-101.4473C319.2734,-98.5394 308.2796,-88.2 275,-88.2"/>
<polygon fill="#000000" stroke="#000000" points="353.0104,-101.7913 360.8161,-105.7953 357.0052,-101.9956 361,-102.2 361,-102.2 361,-102.2 357.0052,-101.9956 361.1839,-98.6047 353.0104,-101.7913 353.0104,-101.7913"/>
<ellipse fill="none" stroke="#000000" cx="349.8146" cy="-101.6278" rx="3.2" ry="3.2"/>
</g>
<!-- pessoa -->
<g id="node6" class="node">
<title>pessoa</title>
<g id="a_node6"><a xlink:href="../../tables/pessoa.html" xlink:title="pessoa" target="_top">
<polygon fill="#ffffff" stroke="transparent" points="146,-143.2 146,-321.2 312,-321.2 312,-143.2 146,-143.2"/>
<polygon fill="#f5f5f5" stroke="transparent" points="148,-296.2 148,-319.2 310,-319.2 310,-296.2 148,-296.2"/>
<polygon fill="none" stroke="#000000" points="148,-296.2 148,-319.2 310,-319.2 310,-296.2 148,-296.2"/>
<text text-anchor="start" x="153" y="-305.3" font-family="Helvetica,sans-Serif" font-weight="bold" font-size="11.00" fill="#000000">pessoa</text>
<text text-anchor="start" x="275.0437" y="-304.3" font-family="Helvetica,sans-Serif" font-size="11.00" fill="#000000">[table]</text>
<polygon fill="none" stroke="#000000" points="148,-274.2 148,-296.2 243,-296.2 243,-274.2 148,-274.2"/>
<image xlink:href="../../images/primaryKeys.png" width="11px" height="12px" preserveAspectRatio="xMinYMin meet" x="153" y="-291.2"/>
<text text-anchor="start" x="168" y="-281.3" font-family="Helvetica,sans-Serif" font-size="11.00" fill="#000000">usuario_id</text>
<polygon fill="none" stroke="#000000" points="243,-274.2 243,-296.2 310,-296.2 310,-274.2 243,-274.2"/>
<text text-anchor="start" x="246" y="-281.9" font-family="Helvetica,sans-Serif" font-size="11.00" fill="#000000">int4[10]</text>
<polygon fill="#ffffff" stroke="transparent" points="148,-252.2 148,-274.2 243,-274.2 243,-252.2 148,-252.2"/>
<polygon fill="none" stroke="#000000" points="148,-252.2 148,-274.2 243,-274.2 243,-252.2 148,-252.2"/>
<text text-anchor="start" x="168" y="-259.3" font-family="Helvetica,sans-Serif" font-size="11.00" fill="#000000">telefone</text>
<polygon fill="none" stroke="#000000" points="243,-252.2 243,-274.2 310,-274.2 310,-252.2 243,-252.2"/>
<text text-anchor="start" x="246" y="-259.9" font-family="Helvetica,sans-Serif" font-size="11.00" fill="#000000">varchar[20]</text>
<polygon fill="none" stroke="#000000" points="148,-230.2 148,-252.2 243,-252.2 243,-230.2 148,-230.2"/>
<text text-anchor="start" x="168" y="-237.3" font-family="Helvetica,sans-Serif" font-size="11.00" fill="#000000">logradouro</text>
<polygon fill="none" stroke="#000000" points="243,-230.2 243,-252.2 310,-252.2 310,-230.2 243,-230.2"/>
<text text-anchor="start" x="245.9365" y="-237.9" font-family="Helvetica,sans-Serif" font-size="11.00" fill="#000000">varchar[100]</text>
<polygon fill="none" stroke="#000000" points="148,-208.2 148,-230.2 243,-230.2 243,-208.2 148,-208.2"/>
<text text-anchor="start" x="168" y="-215.3" font-family="Helvetica,sans-Serif" font-size="11.00" fill="#000000">numero</text>
<polygon fill="none" stroke="#000000" points="243,-208.2 243,-230.2 310,-230.2 310,-208.2 243,-208.2"/>
<text text-anchor="start" x="246" y="-215.9" font-family="Helvetica,sans-Serif" font-size="11.00" fill="#000000">varchar[10]</text>
<polygon fill="none" stroke="#000000" points="148,-186.2 148,-208.2 243,-208.2 243,-186.2 148,-186.2"/>
<text text-anchor="start" x="168" y="-193.3" font-family="Helvetica,sans-Serif" font-size="11.00" fill="#000000">cep</text>
<polygon fill="none" stroke="#000000" points="243,-186.2 243,-208.2 310,-208.2 310,-186.2 243,-186.2"/>
<text text-anchor="start" x="246" y="-193.9" font-family="Helvetica,sans-Serif" font-size="11.00" fill="#000000">varchar[10]</text>
<polygon fill="none" stroke="#000000" points="148,-164.2 148,-186.2 243,-186.2 243,-164.2 148,-164.2"/>
<image xlink:href="../../images/foreignKeys.png" width="11px" height="12px" preserveAspectRatio="xMinYMin meet" x="153" y="-181.2"/>
<text text-anchor="start" x="168" y="-171.3" font-family="Helvetica,sans-Serif" font-size="11.00" fill="#000000">municipio_id</text>
<polygon fill="none" stroke="#000000" points="243,-164.2 243,-186.2 310,-186.2 310,-164.2 243,-164.2"/>
<text text-anchor="start" x="246" y="-171.9" font-family="Helvetica,sans-Serif" font-size="11.00" fill="#000000">int4[10]</text>
<polygon fill="#ffffff" stroke="transparent" points="148,-145.2 148,-164.2 187,-164.2 187,-145.2 148,-145.2"/>
<polygon fill="none" stroke="#000000" points="148,-145.2 148,-164.2 187,-164.2 187,-145.2 148,-145.2"/>
<text text-anchor="start" x="151" y="-151.3" font-family="Helvetica,sans-Serif" font-size="11.00" fill="#000000">&lt; 2</text>
<polygon fill="#ffffff" stroke="transparent" points="187,-145.2 187,-164.2 243,-164.2 243,-145.2 187,-145.2"/>
<polygon fill="none" stroke="#000000" points="187,-145.2 187,-164.2 243,-164.2 243,-145.2 187,-145.2"/>
<text text-anchor="start" x="207.6105" y="-151.3" font-family="Helvetica,sans-Serif" font-size="11.00" fill="#000000">0 rows</text>
<polygon fill="#ffffff" stroke="transparent" points="243,-145.2 243,-164.2 310,-164.2 310,-145.2 243,-145.2"/>
<polygon fill="none" stroke="#000000" points="243,-145.2 243,-164.2 310,-164.2 310,-145.2 243,-145.2"/>
<text text-anchor="start" x="291.4053" y="-151.3" font-family="Helvetica,sans-Serif" font-size="11.00" fill="#000000">2 &gt;</text>
<polygon fill="none" stroke="#000000" stroke-width="2" points="147,-144.2 147,-320.2 311,-320.2 311,-144.2 147,-144.2"/>
</a>
</g>
</g>
<!-- pessoa&#45;&gt;municipio -->
<g id="edge5" class="edge">
<title>pessoa:w&#45;&gt;municipio:e</title>
<path fill="none" stroke="#000000" d="M133.9816,-170.2565C117.738,-155.4048 127.2175,-112.2 97.5,-112.2"/>
<polygon fill="#000000" stroke="#000000" points="140.4554,-172.5394 146.8027,-178.5951 144.2277,-173.8697 148,-175.2 148,-175.2 148,-175.2 144.2277,-173.8697 149.1973,-171.8049 140.4554,-172.5394 140.4554,-172.5394"/>
<ellipse fill="none" stroke="#000000" cx="137.4375" cy="-171.4752" rx="3.2" ry="3.2"/>
</g>
<!-- pessoa&#45;&gt;usuario -->
<g id="edge6" class="edge">
<title>pessoa:w&#45;&gt;usuario:e</title>
<path fill="none" stroke="#000000" d="M137.4698,-284.347C120.6553,-281.4549 113.8758,-272.2 92.5,-272.2"/>
<polygon fill="#000000" stroke="#000000" points="147.5256,-281.1485 146.8796,-289.1223 145.2849,-288.9932 145.9308,-281.0193 147.5256,-281.1485"/>
<polyline fill="none" stroke="#000000" points="148,-285.2 144.0131,-284.877 "/>
<ellipse fill="none" stroke="#000000" cx="140.8235" cy="-284.6186" rx="3.2" ry="3.2"/>
</g>
<!-- pessoa_cadastra_campanha -->
<g id="node7" class="node">
<title>pessoa_cadastra_campanha</title>
<g id="a_node7"><a xlink:href="../../tables/pessoa_cadastra_campanha.html" xlink:title="pessoa_cadastra_campanha" target="_top">
<polygon fill="#ffffff" stroke="transparent" points="504,-63.7 504,-168.7 688,-168.7 688,-63.7 504,-63.7"/>
<polygon fill="#f5f5f5" stroke="transparent" points="504,-145.2 504,-168.2 688,-168.2 688,-145.2 504,-145.2"/>
<polygon fill="none" stroke="#000000" points="504,-145.2 504,-168.2 688,-168.2 688,-145.2 504,-145.2"/>
<text text-anchor="start" x="508.8905" y="-154.3" font-family="Helvetica,sans-Serif" font-weight="bold" font-size="11.00" fill="#000000">pessoa_cadastra_campanha</text>
<text text-anchor="start" x="653.5219" y="-153.3" font-family="Helvetica,sans-Serif" font-size="11.00" fill="#000000">[table]</text>
<polygon fill="#ffffff" stroke="transparent" points="504,-123.2 504,-145.2 688,-145.2 688,-123.2 504,-123.2"/>
<polygon fill="none" stroke="#000000" points="504,-123.2 504,-145.2 688,-145.2 688,-123.2 504,-123.2"/>
<image xlink:href="../../images/foreignKeys.png" width="11px" height="12px" preserveAspectRatio="xMinYMin meet" x="509" y="-140.2"/>
<text text-anchor="start" x="524" y="-130.3" font-family="Helvetica,sans-Serif" font-size="11.00" fill="#000000">pessoa_id</text>
<polygon fill="#ffffff" stroke="transparent" points="504,-101.2 504,-123.2 688,-123.2 688,-101.2 504,-101.2"/>
<polygon fill="none" stroke="#000000" points="504,-101.2 504,-123.2 688,-123.2 688,-101.2 504,-101.2"/>
<image xlink:href="../../images/foreignKeys.png" width="11px" height="12px" preserveAspectRatio="xMinYMin meet" x="509" y="-118.2"/>
<text text-anchor="start" x="524" y="-108.3" font-family="Helvetica,sans-Serif" font-size="11.00" fill="#000000">campanha_id</text>
<polygon fill="none" stroke="#000000" points="504,-82.2 504,-101.2 688,-101.2 688,-82.2 504,-82.2"/>
<text text-anchor="start" x="507" y="-88.3" font-family="Helvetica,sans-Serif" font-size="11.00" fill="#000000">...</text>
<polygon fill="#ffffff" stroke="transparent" points="504,-63.2 504,-82.2 581,-82.2 581,-63.2 504,-63.2"/>
<polygon fill="none" stroke="#000000" points="504,-63.2 504,-82.2 581,-82.2 581,-63.2 504,-63.2"/>
<text text-anchor="start" x="507" y="-69.3" font-family="Helvetica,sans-Serif" font-size="11.00" fill="#000000">&lt; 2</text>
<polygon fill="#ffffff" stroke="transparent" points="581,-63.2 581,-82.2 647,-82.2 647,-63.2 581,-63.2"/>
<polygon fill="none" stroke="#000000" points="581,-63.2 581,-82.2 647,-82.2 647,-63.2 581,-63.2"/>
<text text-anchor="start" x="611.6105" y="-69.3" font-family="Helvetica,sans-Serif" font-size="11.00" fill="#000000">0 rows</text>
<polygon fill="#ffffff" stroke="transparent" points="647,-63.2 647,-82.2 688,-82.2 688,-63.2 647,-63.2"/>
<polygon fill="none" stroke="#000000" points="647,-63.2 647,-82.2 688,-82.2 688,-63.2 647,-63.2"/>
<text text-anchor="start" x="678.8862" y="-69.3" font-family="Helvetica,sans-Serif" font-size="11.00" fill="#000000"> &#160;</text>
</a>
</g>
</g>
<!-- pessoa_cadastra_campanha&#45;&gt;campanha -->
<g id="edge7" class="edge">
<title>pessoa_cadastra_campanha:w&#45;&gt;campanha:e</title>
<path fill="none" stroke="#000000" d="M489.3677,-110.4581C478.1105,-107.5931 471.3227,-102.2 455,-102.2"/>
<polygon fill="#000000" stroke="#000000" points="496.0561,-111.2543 503.5744,-115.7748 500.028,-111.7271 504,-112.2 504,-112.2 504,-112.2 500.028,-111.7271 504.4256,-108.6252 496.0561,-111.2543 496.0561,-111.2543"/>
<ellipse fill="none" stroke="#000000" cx="492.8785" cy="-110.876" rx="3.2" ry="3.2"/>
</g>
<!-- pessoa_cadastra_campanha&#45;&gt;pessoa -->
<g id="edge8" class="edge">
<title>pessoa_cadastra_campanha:w&#45;&gt;pessoa:e</title>
<path fill="none" stroke="#000000" d="M490.043,-138.2266C453.0519,-149.8403 355.6755,-182.7314 353,-185.2 317.4439,-218.0071 358.3792,-285.2 310,-285.2"/>
<polygon fill="#000000" stroke="#000000" points="496.3135,-136.4176 504.9979,-137.6589 500.1567,-135.3088 504,-134.2 504,-134.2 504,-134.2 500.1567,-135.3088 503.0021,-130.7411 496.3135,-136.4176 496.3135,-136.4176"/>
<ellipse fill="none" stroke="#000000" cx="493.2389" cy="-137.3046" rx="3.2" ry="3.2"/>
</g>
<!-- pessoa_interessa_animal -->
<g id="node8" class="node">
<title>pessoa_interessa_animal</title>
<g id="a_node8"><a xlink:href="../../tables/pessoa_interessa_animal.html" xlink:title="pessoa_interessa_animal" target="_top">
<polygon fill="#ffffff" stroke="transparent" points="512.5,-194.7 512.5,-299.7 679.5,-299.7 679.5,-194.7 512.5,-194.7"/>
<polygon fill="#f5f5f5" stroke="transparent" points="513,-276.2 513,-299.2 680,-299.2 680,-276.2 513,-276.2"/>
<polygon fill="none" stroke="#000000" points="513,-276.2 513,-299.2 680,-299.2 680,-276.2 513,-276.2"/>
<text text-anchor="start" x="517.6515" y="-285.3" font-family="Helvetica,sans-Serif" font-weight="bold" font-size="11.00" fill="#000000">pessoa_interessa_animal</text>
<text text-anchor="start" x="645.5219" y="-284.3" font-family="Helvetica,sans-Serif" font-size="11.00" fill="#000000">[table]</text>
<polygon fill="#ffffff" stroke="transparent" points="513,-254.2 513,-276.2 680,-276.2 680,-254.2 513,-254.2"/>
<polygon fill="none" stroke="#000000" points="513,-254.2 513,-276.2 680,-276.2 680,-254.2 513,-254.2"/>
<image xlink:href="../../images/foreignKeys.png" width="11px" height="12px" preserveAspectRatio="xMinYMin meet" x="518" y="-271.2"/>
<text text-anchor="start" x="534" y="-261.3" font-family="Helvetica,sans-Serif" font-size="11.00" fill="#000000">pessoa_id</text>
<polygon fill="#ffffff" stroke="transparent" points="513,-232.2 513,-254.2 680,-254.2 680,-232.2 513,-232.2"/>
<polygon fill="none" stroke="#000000" points="513,-232.2 513,-254.2 680,-254.2 680,-232.2 513,-232.2"/>
<image xlink:href="../../images/foreignKeys.png" width="11px" height="12px" preserveAspectRatio="xMinYMin meet" x="518" y="-249.2"/>
<text text-anchor="start" x="534" y="-239.3" font-family="Helvetica,sans-Serif" font-size="11.00" fill="#000000">animal_id</text>
<polygon fill="none" stroke="#000000" points="513,-213.2 513,-232.2 680,-232.2 680,-213.2 513,-213.2"/>
<text text-anchor="start" x="516" y="-219.3" font-family="Helvetica,sans-Serif" font-size="11.00" fill="#000000">...</text>
<polygon fill="#ffffff" stroke="transparent" points="513,-194.2 513,-213.2 582,-213.2 582,-194.2 513,-194.2"/>
<polygon fill="none" stroke="#000000" points="513,-194.2 513,-213.2 582,-213.2 582,-194.2 513,-194.2"/>
<text text-anchor="start" x="516" y="-200.3" font-family="Helvetica,sans-Serif" font-size="11.00" fill="#000000">&lt; 2</text>
<polygon fill="#ffffff" stroke="transparent" points="582,-194.2 582,-213.2 644,-213.2 644,-194.2 582,-194.2"/>
<polygon fill="none" stroke="#000000" points="582,-194.2 582,-213.2 644,-213.2 644,-194.2 582,-194.2"/>
<text text-anchor="start" x="608.6105" y="-200.3" font-family="Helvetica,sans-Serif" font-size="11.00" fill="#000000">0 rows</text>
<polygon fill="#ffffff" stroke="transparent" points="644,-194.2 644,-213.2 680,-213.2 680,-194.2 644,-194.2"/>
<polygon fill="none" stroke="#000000" points="644,-194.2 644,-213.2 680,-213.2 680,-194.2 644,-194.2"/>
<text text-anchor="start" x="670.8862" y="-200.3" font-family="Helvetica,sans-Serif" font-size="11.00" fill="#000000"> &#160;</text>
</a>
</g>
</g>
<!-- pessoa_interessa_animal&#45;&gt;animal -->
<g id="edge9" class="edge">
<title>pessoa_interessa_animal:w&#45;&gt;animal:e</title>
<path fill="none" stroke="#000000" d="M498.631,-241.4251C480.2387,-236.5304 472.6763,-223.2 448,-223.2"/>
<polygon fill="#000000" stroke="#000000" points="505.0603,-242.2192 512.5587,-246.7728 509.0302,-242.7096 513,-243.2 513,-243.2 513,-243.2 509.0302,-242.7096 513.4413,-239.6272 505.0603,-242.2192 505.0603,-242.2192"/>
<ellipse fill="none" stroke="#000000" cx="501.8845" cy="-241.8269" rx="3.2" ry="3.2"/>
</g>
<!-- pessoa_interessa_animal&#45;&gt;pessoa -->
<g id="edge10" class="edge">
<title>pessoa_interessa_animal:w&#45;&gt;pessoa:e</title>
<path fill="none" stroke="#000000" d="M498.2338,-265.3852C419.6635,-267.4015 395.5241,-285.2 310,-285.2"/>
<polygon fill="#000000" stroke="#000000" points="505.0006,-265.3004 513.0452,-268.7997 509.0003,-265.2502 513,-265.2 513,-265.2 513,-265.2 509.0003,-265.2502 512.9548,-261.6003 505.0006,-265.3004 505.0006,-265.3004"/>
<ellipse fill="none" stroke="#000000" cx="501.8009" cy="-265.3406" rx="3.2" ry="3.2"/>
</g>
</g>
</svg>
