<?xml version="1.0" encoding="UTF-8" standalone="no"?>
<!DOCTYPE svg PUBLIC "-//W3C//DTD SVG 1.1//EN"
 "http://www.w3.org/Graphics/SVG/1.1/DTD/svg11.dtd">
<!-- Generated by graphviz version 2.40.1 (20161225.0304)
 -->
<!-- Title: oneDegreeRelationshipsDiagram Pages: 1 -->
<svg width="308pt" height="389pt"
 viewBox="0.00 0.00 308.00 388.70" xmlns="http://www.w3.org/2000/svg" xmlns:xlink="http://www.w3.org/1999/xlink">
<g id="graph0" class="graph" transform="scale(1 1) rotate(0) translate(4 384.7)">
<title>oneDegreeRelationshipsDiagram</title>
<polygon fill="#ffffff" stroke="transparent" points="-4,4 -4,-384.7 304,-384.7 304,4 -4,4"/>
<text text-anchor="middle" x="72.4936" y="-7.3" font-family="Helvetica,sans-Serif" font-size="11.00" fill="#000000">Generated by SchemaSpy</text>
<!-- instituicao -->
<g id="node1" class="node">
<title>instituicao</title>
<g id="a_node1"><a xlink:href="../../tables/instituicao.html" xlink:title="instituicao" target="_top">
<polygon fill="#ffffff" stroke="transparent" points="197,-205.7 197,-376.7 292,-376.7 292,-205.7 197,-205.7"/>
<polygon fill="#f5f5f5" stroke="transparent" points="197.5,-353.2 197.5,-376.2 292.5,-376.2 292.5,-353.2 197.5,-353.2"/>
<polygon fill="none" stroke="#000000" points="197.5,-353.2 197.5,-376.2 292.5,-376.2 292.5,-353.2 197.5,-353.2"/>
<text text-anchor="start" x="202.5" y="-362.3" font-family="Helvetica,sans-Serif" font-weight="bold" font-size="11.00" fill="#000000">instituicao</text>
<text text-anchor="start" x="257.5437" y="-361.3" font-family="Helvetica,sans-Serif" font-size="11.00" fill="#000000">[table]</text>
<polygon fill="none" stroke="#000000" points="197.5,-331.2 197.5,-353.2 292.5,-353.2 292.5,-331.2 197.5,-331.2"/>
<image xlink:href="../../images/primaryKeys.png" width="11px" height="12px" preserveAspectRatio="xMinYMin meet" x="202.5" y="-348.2"/>
<text text-anchor="start" x="217.5" y="-338.3" font-family="Helvetica,sans-Serif" font-size="11.00" fill="#000000">usuario_id</text>
<polygon fill="#ffffff" stroke="transparent" points="197.5,-309.2 197.5,-331.2 292.5,-331.2 292.5,-309.2 197.5,-309.2"/>
<polygon fill="none" stroke="#000000" points="197.5,-309.2 197.5,-331.2 292.5,-331.2 292.5,-309.2 197.5,-309.2"/>
<text text-anchor="start" x="217.5" y="-316.3" font-family="Helvetica,sans-Serif" font-size="11.00" fill="#000000">telefone</text>
<polygon fill="#ffffff" stroke="transparent" points="197.5,-287.2 197.5,-309.2 292.5,-309.2 292.5,-287.2 197.5,-287.2"/>
<polygon fill="none" stroke="#000000" points="197.5,-287.2 197.5,-309.2 292.5,-309.2 292.5,-287.2 197.5,-287.2"/>
<text text-anchor="start" x="217.5" y="-294.3" font-family="Helvetica,sans-Serif" font-size="11.00" fill="#000000">cnpj</text>
<polygon fill="#ffffff" stroke="transparent" points="197.5,-265.2 197.5,-287.2 292.5,-287.2 292.5,-265.2 197.5,-265.2"/>
<polygon fill="none" stroke="#000000" points="197.5,-265.2 197.5,-287.2 292.5,-287.2 292.5,-265.2 197.5,-265.2"/>
<text text-anchor="start" x="217.5" y="-272.3" font-family="Helvetica,sans-Serif" font-size="11.00" fill="#000000">cpf</text>
<polygon fill="none" stroke="#000000" points="197.5,-243.2 197.5,-265.2 292.5,-265.2 292.5,-243.2 197.5,-243.2"/>
<image xlink:href="../../images/foreignKeys.png" width="11px" height="12px" preserveAspectRatio="xMinYMin meet" x="202.5" y="-260.2"/>
<text text-anchor="start" x="217.5" y="-250.3" font-family="Helvetica,sans-Serif" font-size="11.00" fill="#000000">municipio_id</text>
<polygon fill="none" stroke="#000000" points="197.5,-224.2 197.5,-243.2 292.5,-243.2 292.5,-224.2 197.5,-224.2"/>
<text text-anchor="start" x="200.5" y="-230.3" font-family="Helvetica,sans-Serif" font-size="11.00" fill="#000000">...</text>
<polygon fill="#ffffff" stroke="transparent" points="197.5,-205.2 197.5,-224.2 225.5,-224.2 225.5,-205.2 197.5,-205.2"/>
<polygon fill="none" stroke="#000000" points="197.5,-205.2 197.5,-224.2 225.5,-224.2 225.5,-205.2 197.5,-205.2"/>
<text text-anchor="start" x="200.5" y="-211.3" font-family="Helvetica,sans-Serif" font-size="11.00" fill="#000000">&lt; 2</text>
<polygon fill="#ffffff" stroke="transparent" points="225.5,-205.2 225.5,-224.2 267.5,-224.2 267.5,-205.2 225.5,-205.2"/>
<polygon fill="none" stroke="#000000" points="225.5,-205.2 225.5,-224.2 267.5,-224.2 267.5,-205.2 225.5,-205.2"/>
<text text-anchor="start" x="232.1105" y="-211.3" font-family="Helvetica,sans-Serif" font-size="11.00" fill="#000000">0 rows</text>
<polygon fill="#ffffff" stroke="transparent" points="267.5,-205.2 267.5,-224.2 292.5,-224.2 292.5,-205.2 267.5,-205.2"/>
<polygon fill="none" stroke="#000000" points="267.5,-205.2 267.5,-224.2 292.5,-224.2 292.5,-205.2 267.5,-205.2"/>
<text text-anchor="start" x="273.9053" y="-211.3" font-family="Helvetica,sans-Serif" font-size="11.00" fill="#000000">2 &gt;</text>
</a>
</g>
</g>
<!-- usuario -->
<g id="node2" class="node">
<title>usuario</title>
<g id="a_node2"><a xlink:href="../../tables/usuario.html" xlink:title="usuario" target="_top">
<polygon fill="#ffffff" stroke="transparent" points="8,-38.2 8,-282.2 148,-282.2 148,-38.2 8,-38.2"/>
<polygon fill="#f5f5f5" stroke="transparent" points="10,-257.2 10,-280.2 146,-280.2 146,-257.2 10,-257.2"/>
<polygon fill="none" stroke="#000000" points="10,-257.2 10,-280.2 146,-280.2 146,-257.2 10,-257.2"/>
<text text-anchor="start" x="15" y="-266.3" font-family="Helvetica,sans-Serif" font-weight="bold" font-size="11.00" fill="#000000">usuario</text>
<text text-anchor="start" x="111.0437" y="-265.3" font-family="Helvetica,sans-Serif" font-size="11.00" fill="#000000">[table]</text>
<polygon fill="none" stroke="#000000" points="10,-235.2 10,-257.2 79,-257.2 79,-235.2 10,-235.2"/>
<image xlink:href="../../images/primaryKeys.png" width="11px" height="12px" preserveAspectRatio="xMinYMin meet" x="15" y="-252.2"/>
<text text-anchor="start" x="30" y="-242.3" font-family="Helvetica,sans-Serif" font-size="11.00" fill="#000000">id</text>
<polygon fill="none" stroke="#000000" points="79,-235.2 79,-257.2 146,-257.2 146,-235.2 79,-235.2"/>
<text text-anchor="start" x="82" y="-242.9" font-family="Helvetica,sans-Serif" font-size="11.00" fill="#000000">bigserial[19]</text>
<polygon fill="none" stroke="#000000" points="10,-213.2 10,-235.2 79,-235.2 79,-213.2 10,-213.2"/>
<text text-anchor="start" x="30" y="-220.3" font-family="Helvetica,sans-Serif" font-size="11.00" fill="#000000">nome</text>
<polygon fill="none" stroke="#000000" points="79,-213.2 79,-235.2 146,-235.2 146,-213.2 79,-213.2"/>
<text text-anchor="start" x="81.9365" y="-220.9" font-family="Helvetica,sans-Serif" font-size="11.00" fill="#000000">varchar[100]</text>
<polygon fill="none" stroke="#000000" points="10,-191.2 10,-213.2 79,-213.2 79,-191.2 10,-191.2"/>
<text text-anchor="start" x="30" y="-198.3" font-family="Helvetica,sans-Serif" font-size="11.00" fill="#000000">senha</text>
<polygon fill="none" stroke="#000000" points="79,-191.2 79,-213.2 146,-213.2 146,-191.2 79,-191.2"/>
<text text-anchor="start" x="82" y="-198.9" font-family="Helvetica,sans-Serif" font-size="11.00" fill="#000000">varchar[50]</text>
<polygon fill="#ffffff" stroke="transparent" points="10,-169.2 10,-191.2 79,-191.2 79,-169.2 10,-169.2"/>
<polygon fill="none" stroke="#000000" points="10,-169.2 10,-191.2 79,-191.2 79,-169.2 10,-169.2"/>
<text text-anchor="start" x="30" y="-176.3" font-family="Helvetica,sans-Serif" font-size="11.00" fill="#000000">email</text>
<polygon fill="none" stroke="#000000" points="79,-169.2 79,-191.2 146,-191.2 146,-169.2 79,-169.2"/>
<text text-anchor="start" x="81.9365" y="-176.9" font-family="Helvetica,sans-Serif" font-size="11.00" fill="#000000">varchar[200]</text>
<polygon fill="#ffffff" stroke="transparent" points="10,-147.2 10,-169.2 79,-169.2 79,-147.2 10,-147.2"/>
<polygon fill="none" stroke="#000000" points="10,-147.2 10,-169.2 79,-169.2 79,-147.2 10,-147.2"/>
<text text-anchor="start" x="30" y="-154.3" font-family="Helvetica,sans-Serif" font-size="11.00" fill="#000000">celular</text>
<polygon fill="none" stroke="#000000" points="79,-147.2 79,-169.2 146,-169.2 146,-147.2 79,-147.2"/>
<text text-anchor="start" x="82" y="-154.9" font-family="Helvetica,sans-Serif" font-size="11.00" fill="#000000">varchar[20]</text>
<polygon fill="none" stroke="#000000" points="10,-125.2 10,-147.2 79,-147.2 79,-125.2 10,-125.2"/>
<text text-anchor="start" x="30" y="-132.3" font-family="Helvetica,sans-Serif" font-size="11.00" fill="#000000">situacao</text>
<polygon fill="none" stroke="#000000" points="79,-125.2 79,-147.2 146,-147.2 146,-125.2 79,-125.2"/>
<text text-anchor="start" x="82" y="-132.9" font-family="Helvetica,sans-Serif" font-size="11.00" fill="#000000">bool[1]</text>
<polygon fill="none" stroke="#000000" points="10,-103.2 10,-125.2 79,-125.2 79,-103.2 10,-103.2"/>
<text text-anchor="start" x="30" y="-110.3" font-family="Helvetica,sans-Serif" font-size="11.00" fill="#000000">data</text>
<polygon fill="none" stroke="#000000" points="79,-103.2 79,-125.2 146,-125.2 146,-103.2 79,-103.2"/>
<text text-anchor="start" x="82" y="-110.9" font-family="Helvetica,sans-Serif" font-size="11.00" fill="#000000">date[13]</text>
<polygon fill="none" stroke="#000000" points="10,-81.2 10,-103.2 79,-103.2 79,-81.2 10,-81.2"/>
<text text-anchor="start" x="30" y="-88.3" font-family="Helvetica,sans-Serif" font-size="11.00" fill="#000000">aceite</text>
<polygon fill="none" stroke="#000000" points="79,-81.2 79,-103.2 146,-103.2 146,-81.2 79,-81.2"/>
<text text-anchor="start" x="82" y="-88.9" font-family="Helvetica,sans-Serif" font-size="11.00" fill="#000000">bool[1]</text>
<polygon fill="none" stroke="#000000" points="10,-59.2 10,-81.2 79,-81.2 79,-59.2 10,-59.2"/>
<text text-anchor="start" x="30" y="-66.3" font-family="Helvetica,sans-Serif" font-size="11.00" fill="#000000">tipo</text>
<polygon fill="none" stroke="#000000" points="79,-59.2 79,-81.2 146,-81.2 146,-59.2 79,-59.2"/>
<text text-anchor="start" x="82" y="-66.9" font-family="Helvetica,sans-Serif" font-size="11.00" fill="#000000">varchar[50]</text>
<polygon fill="#ffffff" stroke="transparent" points="10,-40.2 10,-59.2 36,-59.2 36,-40.2 10,-40.2"/>
<polygon fill="none" stroke="#000000" points="10,-40.2 10,-59.2 36,-59.2 36,-40.2 10,-40.2"/>
<text text-anchor="start" x="13" y="-46.3" font-family="Helvetica,sans-Serif" font-size="11.00" fill="#000000">&lt; 0</text>
<polygon fill="#ffffff" stroke="transparent" points="36,-40.2 36,-59.2 79,-59.2 79,-40.2 36,-40.2"/>
<polygon fill="none" stroke="#000000" points="36,-40.2 36,-59.2 79,-59.2 79,-40.2 36,-40.2"/>
<text text-anchor="start" x="43.6105" y="-46.3" font-family="Helvetica,sans-Serif" font-size="11.00" fill="#000000">0 rows</text>
<polygon fill="#ffffff" stroke="transparent" points="79,-40.2 79,-59.2 146,-59.2 146,-40.2 79,-40.2"/>
<polygon fill="none" stroke="#000000" points="79,-40.2 79,-59.2 146,-59.2 146,-40.2 79,-40.2"/>
<text text-anchor="start" x="127.4053" y="-46.3" font-family="Helvetica,sans-Serif" font-size="11.00" fill="#000000">2 &gt;</text>
<polygon fill="none" stroke="#000000" stroke-width="2" points="9,-39.2 9,-281.2 147,-281.2 147,-39.2 9,-39.2"/>
</a>
</g>
</g>
<!-- instituicao&#45;&gt;usuario -->
<g id="edge1" class="edge">
<title>instituicao:w&#45;&gt;usuario:e</title>
<path fill="none" stroke="#000000" d="M186.9753,-340.1949C156.1814,-326.409 190.2575,-246.2 146,-246.2"/>
<polygon fill="#000000" stroke="#000000" points="197.4628,-338.1209 195.9655,-345.9796 194.3938,-345.6802 195.891,-337.8215 197.4628,-338.1209"/>
<polyline fill="none" stroke="#000000" points="197.5,-342.2 193.5707,-341.4514 "/>
<ellipse fill="none" stroke="#000000" cx="190.4272" cy="-340.8525" rx="3.2" ry="3.2"/>
</g>
<!-- pessoa -->
<g id="node3" class="node">
<title>pessoa</title>
<g id="a_node3"><a xlink:href="../../tables/pessoa.html" xlink:title="pessoa" target="_top">
<polygon fill="#ffffff" stroke="transparent" points="197,-57.7 197,-184.7 292,-184.7 292,-57.7 197,-57.7"/>
<polygon fill="#f5f5f5" stroke="transparent" points="197.5,-161.2 197.5,-184.2 292.5,-184.2 292.5,-161.2 197.5,-161.2"/>
<polygon fill="none" stroke="#000000" points="197.5,-161.2 197.5,-184.2 292.5,-184.2 292.5,-161.2 197.5,-161.2"/>
<text text-anchor="start" x="202.5" y="-170.3" font-family="Helvetica,sans-Serif" font-weight="bold" font-size="11.00" fill="#000000">pessoa</text>
<text text-anchor="start" x="257.5437" y="-169.3" font-family="Helvetica,sans-Serif" font-size="11.00" fill="#000000">[table]</text>
<polygon fill="none" stroke="#000000" points="197.5,-139.2 197.5,-161.2 292.5,-161.2 292.5,-139.2 197.5,-139.2"/>
<image xlink:href="../../images/primaryKeys.png" width="11px" height="12px" preserveAspectRatio="xMinYMin meet" x="202.5" y="-156.2"/>
<text text-anchor="start" x="217.5" y="-146.3" font-family="Helvetica,sans-Serif" font-size="11.00" fill="#000000">usuario_id</text>
<polygon fill="#ffffff" stroke="transparent" points="197.5,-117.2 197.5,-139.2 292.5,-139.2 292.5,-117.2 197.5,-117.2"/>
<polygon fill="none" stroke="#000000" points="197.5,-117.2 197.5,-139.2 292.5,-139.2 292.5,-117.2 197.5,-117.2"/>
<text text-anchor="start" x="217.5" y="-124.3" font-family="Helvetica,sans-Serif" font-size="11.00" fill="#000000">telefone</text>
<polygon fill="none" stroke="#000000" points="197.5,-95.2 197.5,-117.2 292.5,-117.2 292.5,-95.2 197.5,-95.2"/>
<image xlink:href="../../images/foreignKeys.png" width="11px" height="12px" preserveAspectRatio="xMinYMin meet" x="202.5" y="-112.2"/>
<text text-anchor="start" x="217.5" y="-102.3" font-family="Helvetica,sans-Serif" font-size="11.00" fill="#000000">municipio_id</text>
<polygon fill="none" stroke="#000000" points="197.5,-76.2 197.5,-95.2 292.5,-95.2 292.5,-76.2 197.5,-76.2"/>
<text text-anchor="start" x="200.5" y="-82.3" font-family="Helvetica,sans-Serif" font-size="11.00" fill="#000000">...</text>
<polygon fill="#ffffff" stroke="transparent" points="197.5,-57.2 197.5,-76.2 225.5,-76.2 225.5,-57.2 197.5,-57.2"/>
<polygon fill="none" stroke="#000000" points="197.5,-57.2 197.5,-76.2 225.5,-76.2 225.5,-57.2 197.5,-57.2"/>
<text text-anchor="start" x="200.5" y="-63.3" font-family="Helvetica,sans-Serif" font-size="11.00" fill="#000000">&lt; 2</text>
<polygon fill="#ffffff" stroke="transparent" points="225.5,-57.2 225.5,-76.2 267.5,-76.2 267.5,-57.2 225.5,-57.2"/>
<polygon fill="none" stroke="#000000" points="225.5,-57.2 225.5,-76.2 267.5,-76.2 267.5,-57.2 225.5,-57.2"/>
<text text-anchor="start" x="232.1105" y="-63.3" font-family="Helvetica,sans-Serif" font-size="11.00" fill="#000000">0 rows</text>
<polygon fill="#ffffff" stroke="transparent" points="267.5,-57.2 267.5,-76.2 292.5,-76.2 292.5,-57.2 267.5,-57.2"/>
<polygon fill="none" stroke="#000000" points="267.5,-57.2 267.5,-76.2 292.5,-76.2 292.5,-57.2 267.5,-57.2"/>
<text text-anchor="start" x="273.9053" y="-63.3" font-family="Helvetica,sans-Serif" font-size="11.00" fill="#000000">2 &gt;</text>
</a>
</g>
</g>
<!-- pessoa&#45;&gt;usuario -->
<g id="edge2" class="edge">
<title>pessoa:w&#45;&gt;usuario:e</title>
<path fill="none" stroke="#000000" d="M186.9753,-152.2051C156.1814,-165.991 190.2575,-246.2 146,-246.2"/>
<polygon fill="#000000" stroke="#000000" points="195.9655,-146.4204 197.4628,-154.2791 195.891,-154.5785 194.3938,-146.7198 195.9655,-146.4204"/>
<polyline fill="none" stroke="#000000" points="197.5,-150.2 193.5707,-150.9486 "/>
<ellipse fill="none" stroke="#000000" cx="190.4272" cy="-151.5475" rx="3.2" ry="3.2"/>
</g>
</g>
</svg>
