<?xml version="1.0" encoding="UTF-8" standalone="no"?>
<!DOCTYPE svg PUBLIC "-//W3C//DTD SVG 1.1//EN"
 "http://www.w3.org/Graphics/SVG/1.1/DTD/svg11.dtd">
<!-- Generated by graphviz version 2.40.1 (20161225.0304)
 -->
<!-- Title: twoDegreesRelationshipsDiagram Pages: 1 -->
<svg width="684pt" height="384pt"
 viewBox="0.00 0.00 684.00 383.70" xmlns="http://www.w3.org/2000/svg" xmlns:xlink="http://www.w3.org/1999/xlink">
<g id="graph0" class="graph" transform="scale(1 1) rotate(0) translate(4 379.7)">
<title>twoDegreesRelationshipsDiagram</title>
<polygon fill="#ffffff" stroke="transparent" points="-4,4 -4,-379.7 680,-379.7 680,4 -4,4"/>
<text text-anchor="middle" x="72.4936" y="-7.3" font-family="Helvetica,sans-Serif" font-size="11.00" fill="#000000">Generated by SchemaSpy</text>
<!-- animal -->
<g id="node1" class="node">
<title>animal</title>
<g id="a_node1"><a xlink:href="../../tables/animal.html" xlink:title="animal" target="_top">
<polygon fill="#ffffff" stroke="transparent" points="348,-293.2 348,-354.2 428,-354.2 428,-293.2 348,-293.2"/>
<polygon fill="#f5f5f5" stroke="transparent" points="348,-330.7 348,-353.7 428,-353.7 428,-330.7 348,-330.7"/>
<polygon fill="none" stroke="#000000" points="348,-330.7 348,-353.7 428,-353.7 428,-330.7 348,-330.7"/>
<text text-anchor="start" x="353" y="-339.8" font-family="Helvetica,sans-Serif" font-weight="bold" font-size="11.00" fill="#000000">animal</text>
<text text-anchor="start" x="393.0437" y="-338.8" font-family="Helvetica,sans-Serif" font-size="11.00" fill="#000000">[table]</text>
<polygon fill="none" stroke="#000000" points="348,-311.7 348,-330.7 428,-330.7 428,-311.7 348,-311.7"/>
<text text-anchor="start" x="351" y="-317.8" font-family="Helvetica,sans-Serif" font-size="11.00" fill="#000000">...</text>
<polygon fill="#ffffff" stroke="transparent" points="348,-292.7 348,-311.7 369,-311.7 369,-292.7 348,-292.7"/>
<polygon fill="none" stroke="#000000" points="348,-292.7 348,-311.7 369,-311.7 369,-292.7 348,-292.7"/>
<text text-anchor="start" x="350.7027" y="-298.8" font-family="Helvetica,sans-Serif" font-size="11.00" fill="#000000">&lt; 1</text>
<polygon fill="#ffffff" stroke="transparent" points="369,-292.7 369,-311.7 407,-311.7 407,-292.7 369,-292.7"/>
<polygon fill="none" stroke="#000000" points="369,-292.7 369,-311.7 407,-311.7 407,-292.7 369,-292.7"/>
<text text-anchor="start" x="371.8053" y="-298.8" font-family="Helvetica,sans-Serif" font-size="11.00" fill="#000000">0 rows</text>
<polygon fill="#ffffff" stroke="transparent" points="407,-292.7 407,-311.7 428,-311.7 428,-292.7 407,-292.7"/>
<polygon fill="none" stroke="#000000" points="407,-292.7 407,-311.7 428,-311.7 428,-292.7 407,-292.7"/>
<text text-anchor="start" x="409.7027" y="-298.8" font-family="Helvetica,sans-Serif" font-size="11.00" fill="#000000">2 &gt;</text>
</a>
</g>
</g>
<!-- instituicao -->
<g id="node2" class="node">
<title>instituicao</title>
<g id="a_node2"><a xlink:href="../../tables/instituicao.html" xlink:title="instituicao" target="_top">
<polygon fill="#ffffff" stroke="transparent" points="197,-186.2 197,-357.2 292,-357.2 292,-186.2 197,-186.2"/>
<polygon fill="#f5f5f5" stroke="transparent" points="197.5,-333.7 197.5,-356.7 292.5,-356.7 292.5,-333.7 197.5,-333.7"/>
<polygon fill="none" stroke="#000000" points="197.5,-333.7 197.5,-356.7 292.5,-356.7 292.5,-333.7 197.5,-333.7"/>
<text text-anchor="start" x="202.5" y="-342.8" font-family="Helvetica,sans-Serif" font-weight="bold" font-size="11.00" fill="#000000">instituicao</text>
<text text-anchor="start" x="257.5437" y="-341.8" font-family="Helvetica,sans-Serif" font-size="11.00" fill="#000000">[table]</text>
<polygon fill="none" stroke="#000000" points="197.5,-311.7 197.5,-333.7 292.5,-333.7 292.5,-311.7 197.5,-311.7"/>
<image xlink:href="../../images/primaryKeys.png" width="11px" height="12px" preserveAspectRatio="xMinYMin meet" x="202.5" y="-328.7"/>
<text text-anchor="start" x="217.5" y="-318.8" font-family="Helvetica,sans-Serif" font-size="11.00" fill="#000000">usuario_id</text>
<polygon fill="#ffffff" stroke="transparent" points="197.5,-289.7 197.5,-311.7 292.5,-311.7 292.5,-289.7 197.5,-289.7"/>
<polygon fill="none" stroke="#000000" points="197.5,-289.7 197.5,-311.7 292.5,-311.7 292.5,-289.7 197.5,-289.7"/>
<text text-anchor="start" x="217.5" y="-296.8" font-family="Helvetica,sans-Serif" font-size="11.00" fill="#000000">telefone</text>
<polygon fill="#ffffff" stroke="transparent" points="197.5,-267.7 197.5,-289.7 292.5,-289.7 292.5,-267.7 197.5,-267.7"/>
<polygon fill="none" stroke="#000000" points="197.5,-267.7 197.5,-289.7 292.5,-289.7 292.5,-267.7 197.5,-267.7"/>
<text text-anchor="start" x="217.5" y="-274.8" font-family="Helvetica,sans-Serif" font-size="11.00" fill="#000000">cnpj</text>
<polygon fill="#ffffff" stroke="transparent" points="197.5,-245.7 197.5,-267.7 292.5,-267.7 292.5,-245.7 197.5,-245.7"/>
<polygon fill="none" stroke="#000000" points="197.5,-245.7 197.5,-267.7 292.5,-267.7 292.5,-245.7 197.5,-245.7"/>
<text text-anchor="start" x="217.5" y="-252.8" font-family="Helvetica,sans-Serif" font-size="11.00" fill="#000000">cpf</text>
<polygon fill="none" stroke="#000000" points="197.5,-223.7 197.5,-245.7 292.5,-245.7 292.5,-223.7 197.5,-223.7"/>
<image xlink:href="../../images/foreignKeys.png" width="11px" height="12px" preserveAspectRatio="xMinYMin meet" x="202.5" y="-240.7"/>
<text text-anchor="start" x="217.5" y="-230.8" font-family="Helvetica,sans-Serif" font-size="11.00" fill="#000000">municipio_id</text>
<polygon fill="none" stroke="#000000" points="197.5,-204.7 197.5,-223.7 292.5,-223.7 292.5,-204.7 197.5,-204.7"/>
<text text-anchor="start" x="200.5" y="-210.8" font-family="Helvetica,sans-Serif" font-size="11.00" fill="#000000">...</text>
<polygon fill="#ffffff" stroke="transparent" points="197.5,-185.7 197.5,-204.7 225.5,-204.7 225.5,-185.7 197.5,-185.7"/>
<polygon fill="none" stroke="#000000" points="197.5,-185.7 197.5,-204.7 225.5,-204.7 225.5,-185.7 197.5,-185.7"/>
<text text-anchor="start" x="200.5" y="-191.8" font-family="Helvetica,sans-Serif" font-size="11.00" fill="#000000">&lt; 2</text>
<polygon fill="#ffffff" stroke="transparent" points="225.5,-185.7 225.5,-204.7 267.5,-204.7 267.5,-185.7 225.5,-185.7"/>
<polygon fill="none" stroke="#000000" points="225.5,-185.7 225.5,-204.7 267.5,-204.7 267.5,-185.7 225.5,-185.7"/>
<text text-anchor="start" x="232.1105" y="-191.8" font-family="Helvetica,sans-Serif" font-size="11.00" fill="#000000">0 rows</text>
<polygon fill="#ffffff" stroke="transparent" points="267.5,-185.7 267.5,-204.7 292.5,-204.7 292.5,-185.7 267.5,-185.7"/>
<polygon fill="none" stroke="#000000" points="267.5,-185.7 267.5,-204.7 292.5,-204.7 292.5,-185.7 267.5,-185.7"/>
<text text-anchor="start" x="273.9053" y="-191.8" font-family="Helvetica,sans-Serif" font-size="11.00" fill="#000000">2 &gt;</text>
</a>
</g>
</g>
<!-- animal&#45;&gt;instituicao -->
<g id="edge1" class="edge">
<title>animal:w&#45;&gt;instituicao:e</title>
<path fill="none" stroke="#000000" d="M333.224,-320.9781C319.4228,-321.5276 311.3977,-322.7 292.5,-322.7"/>
<polygon fill="#000000" stroke="#000000" points="340.0014,-320.8506 348.0678,-324.2994 344.0007,-320.7753 348,-320.7 348,-320.7 348,-320.7 344.0007,-320.7753 347.9322,-317.1006 340.0014,-320.8506 340.0014,-320.8506"/>
<ellipse fill="none" stroke="#000000" cx="336.802" cy="-320.9108" rx="3.2" ry="3.2"/>
</g>
<!-- municipio -->
<g id="node4" class="node">
<title>municipio</title>
<g id="a_node4"><a xlink:href="../../tables/municipio.html" xlink:title="municipio" target="_top">
<polygon fill="#ffffff" stroke="transparent" points="33.5,-45.2 33.5,-106.2 122.5,-106.2 122.5,-45.2 33.5,-45.2"/>
<polygon fill="#f5f5f5" stroke="transparent" points="34,-82.7 34,-105.7 123,-105.7 123,-82.7 34,-82.7"/>
<polygon fill="none" stroke="#000000" points="34,-82.7 34,-105.7 123,-105.7 123,-82.7 34,-82.7"/>
<text text-anchor="start" x="38.7779" y="-91.8" font-family="Helvetica,sans-Serif" font-weight="bold" font-size="11.00" fill="#000000">municipio</text>
<text text-anchor="start" x="88.5219" y="-90.8" font-family="Helvetica,sans-Serif" font-size="11.00" fill="#000000">[table]</text>
<polygon fill="none" stroke="#000000" points="34,-63.7 34,-82.7 123,-82.7 123,-63.7 34,-63.7"/>
<text text-anchor="start" x="37" y="-69.8" font-family="Helvetica,sans-Serif" font-size="11.00" fill="#000000">...</text>
<polygon fill="#ffffff" stroke="transparent" points="34,-44.7 34,-63.7 55,-63.7 55,-44.7 34,-44.7"/>
<polygon fill="none" stroke="#000000" points="34,-44.7 34,-63.7 55,-63.7 55,-44.7 34,-44.7"/>
<text text-anchor="start" x="37" y="-50.8" font-family="Helvetica,sans-Serif" font-size="11.00" fill="#000000"> &#160;</text>
<polygon fill="#ffffff" stroke="transparent" points="55,-44.7 55,-63.7 97,-63.7 97,-44.7 55,-44.7"/>
<polygon fill="none" stroke="#000000" points="55,-44.7 55,-63.7 97,-63.7 97,-44.7 55,-44.7"/>
<text text-anchor="start" x="61.6105" y="-50.8" font-family="Helvetica,sans-Serif" font-size="11.00" fill="#000000">0 rows</text>
<polygon fill="#ffffff" stroke="transparent" points="97,-44.7 97,-63.7 123,-63.7 123,-44.7 97,-44.7"/>
<polygon fill="none" stroke="#000000" points="97,-44.7 97,-63.7 123,-63.7 123,-44.7 97,-44.7"/>
<text text-anchor="start" x="104.4053" y="-50.8" font-family="Helvetica,sans-Serif" font-size="11.00" fill="#000000">2 &gt;</text>
</a>
</g>
</g>
<!-- instituicao&#45;&gt;municipio -->
<g id="edge3" class="edge">
<title>instituicao:w&#45;&gt;municipio:e</title>
<path fill="none" stroke="#000000" d="M183.0912,-232.4099C129.2564,-212.7197 196.6765,-72.7 123,-72.7"/>
<polygon fill="#000000" stroke="#000000" points="189.5992,-233.4442 196.9349,-238.2554 193.5496,-234.0721 197.5,-234.7 197.5,-234.7 197.5,-234.7 193.5496,-234.0721 198.0651,-231.1446 189.5992,-233.4442 189.5992,-233.4442"/>
<ellipse fill="none" stroke="#000000" cx="186.4388" cy="-232.9419" rx="3.2" ry="3.2"/>
</g>
<!-- usuario -->
<g id="node5" class="node">
<title>usuario</title>
<g id="a_node5"><a xlink:href="../../tables/usuario.html" xlink:title="usuario" target="_top">
<polygon fill="#ffffff" stroke="transparent" points="8,-127.7 8,-371.7 148,-371.7 148,-127.7 8,-127.7"/>
<polygon fill="#f5f5f5" stroke="transparent" points="10,-346.7 10,-369.7 146,-369.7 146,-346.7 10,-346.7"/>
<polygon fill="none" stroke="#000000" points="10,-346.7 10,-369.7 146,-369.7 146,-346.7 10,-346.7"/>
<text text-anchor="start" x="15" y="-355.8" font-family="Helvetica,sans-Serif" font-weight="bold" font-size="11.00" fill="#000000">usuario</text>
<text text-anchor="start" x="111.0437" y="-354.8" font-family="Helvetica,sans-Serif" font-size="11.00" fill="#000000">[table]</text>
<polygon fill="none" stroke="#000000" points="10,-324.7 10,-346.7 79,-346.7 79,-324.7 10,-324.7"/>
<image xlink:href="../../images/primaryKeys.png" width="11px" height="12px" preserveAspectRatio="xMinYMin meet" x="15" y="-341.7"/>
<text text-anchor="start" x="30" y="-331.8" font-family="Helvetica,sans-Serif" font-size="11.00" fill="#000000">id</text>
<polygon fill="none" stroke="#000000" points="79,-324.7 79,-346.7 146,-346.7 146,-324.7 79,-324.7"/>
<text text-anchor="start" x="82" y="-332.4" font-family="Helvetica,sans-Serif" font-size="11.00" fill="#000000">bigserial[19]</text>
<polygon fill="none" stroke="#000000" points="10,-302.7 10,-324.7 79,-324.7 79,-302.7 10,-302.7"/>
<text text-anchor="start" x="30" y="-309.8" font-family="Helvetica,sans-Serif" font-size="11.00" fill="#000000">nome</text>
<polygon fill="none" stroke="#000000" points="79,-302.7 79,-324.7 146,-324.7 146,-302.7 79,-302.7"/>
<text text-anchor="start" x="81.9365" y="-310.4" font-family="Helvetica,sans-Serif" font-size="11.00" fill="#000000">varchar[100]</text>
<polygon fill="none" stroke="#000000" points="10,-280.7 10,-302.7 79,-302.7 79,-280.7 10,-280.7"/>
<text text-anchor="start" x="30" y="-287.8" font-family="Helvetica,sans-Serif" font-size="11.00" fill="#000000">senha</text>
<polygon fill="none" stroke="#000000" points="79,-280.7 79,-302.7 146,-302.7 146,-280.7 79,-280.7"/>
<text text-anchor="start" x="82" y="-288.4" font-family="Helvetica,sans-Serif" font-size="11.00" fill="#000000">varchar[50]</text>
<polygon fill="#ffffff" stroke="transparent" points="10,-258.7 10,-280.7 79,-280.7 79,-258.7 10,-258.7"/>
<polygon fill="none" stroke="#000000" points="10,-258.7 10,-280.7 79,-280.7 79,-258.7 10,-258.7"/>
<text text-anchor="start" x="30" y="-265.8" font-family="Helvetica,sans-Serif" font-size="11.00" fill="#000000">email</text>
<polygon fill="none" stroke="#000000" points="79,-258.7 79,-280.7 146,-280.7 146,-258.7 79,-258.7"/>
<text text-anchor="start" x="81.9365" y="-266.4" font-family="Helvetica,sans-Serif" font-size="11.00" fill="#000000">varchar[200]</text>
<polygon fill="#ffffff" stroke="transparent" points="10,-236.7 10,-258.7 79,-258.7 79,-236.7 10,-236.7"/>
<polygon fill="none" stroke="#000000" points="10,-236.7 10,-258.7 79,-258.7 79,-236.7 10,-236.7"/>
<text text-anchor="start" x="30" y="-243.8" font-family="Helvetica,sans-Serif" font-size="11.00" fill="#000000">celular</text>
<polygon fill="none" stroke="#000000" points="79,-236.7 79,-258.7 146,-258.7 146,-236.7 79,-236.7"/>
<text text-anchor="start" x="82" y="-244.4" font-family="Helvetica,sans-Serif" font-size="11.00" fill="#000000">varchar[20]</text>
<polygon fill="none" stroke="#000000" points="10,-214.7 10,-236.7 79,-236.7 79,-214.7 10,-214.7"/>
<text text-anchor="start" x="30" y="-221.8" font-family="Helvetica,sans-Serif" font-size="11.00" fill="#000000">situacao</text>
<polygon fill="none" stroke="#000000" points="79,-214.7 79,-236.7 146,-236.7 146,-214.7 79,-214.7"/>
<text text-anchor="start" x="82" y="-222.4" font-family="Helvetica,sans-Serif" font-size="11.00" fill="#000000">bool[1]</text>
<polygon fill="none" stroke="#000000" points="10,-192.7 10,-214.7 79,-214.7 79,-192.7 10,-192.7"/>
<text text-anchor="start" x="30" y="-199.8" font-family="Helvetica,sans-Serif" font-size="11.00" fill="#000000">data</text>
<polygon fill="none" stroke="#000000" points="79,-192.7 79,-214.7 146,-214.7 146,-192.7 79,-192.7"/>
<text text-anchor="start" x="82" y="-200.4" font-family="Helvetica,sans-Serif" font-size="11.00" fill="#000000">date[13]</text>
<polygon fill="none" stroke="#000000" points="10,-170.7 10,-192.7 79,-192.7 79,-170.7 10,-170.7"/>
<text text-anchor="start" x="30" y="-177.8" font-family="Helvetica,sans-Serif" font-size="11.00" fill="#000000">aceite</text>
<polygon fill="none" stroke="#000000" points="79,-170.7 79,-192.7 146,-192.7 146,-170.7 79,-170.7"/>
<text text-anchor="start" x="82" y="-178.4" font-family="Helvetica,sans-Serif" font-size="11.00" fill="#000000">bool[1]</text>
<polygon fill="none" stroke="#000000" points="10,-148.7 10,-170.7 79,-170.7 79,-148.7 10,-148.7"/>
<text text-anchor="start" x="30" y="-155.8" font-family="Helvetica,sans-Serif" font-size="11.00" fill="#000000">tipo</text>
<polygon fill="none" stroke="#000000" points="79,-148.7 79,-170.7 146,-170.7 146,-148.7 79,-148.7"/>
<text text-anchor="start" x="82" y="-156.4" font-family="Helvetica,sans-Serif" font-size="11.00" fill="#000000">varchar[50]</text>
<polygon fill="#ffffff" stroke="transparent" points="10,-129.7 10,-148.7 36,-148.7 36,-129.7 10,-129.7"/>
<polygon fill="none" stroke="#000000" points="10,-129.7 10,-148.7 36,-148.7 36,-129.7 10,-129.7"/>
<text text-anchor="start" x="13" y="-135.8" font-family="Helvetica,sans-Serif" font-size="11.00" fill="#000000">&lt; 0</text>
<polygon fill="#ffffff" stroke="transparent" points="36,-129.7 36,-148.7 79,-148.7 79,-129.7 36,-129.7"/>
<polygon fill="none" stroke="#000000" points="36,-129.7 36,-148.7 79,-148.7 79,-129.7 36,-129.7"/>
<text text-anchor="start" x="43.6105" y="-135.8" font-family="Helvetica,sans-Serif" font-size="11.00" fill="#000000">0 rows</text>
<polygon fill="#ffffff" stroke="transparent" points="79,-129.7 79,-148.7 146,-148.7 146,-129.7 79,-129.7"/>
<polygon fill="none" stroke="#000000" points="79,-129.7 79,-148.7 146,-148.7 146,-129.7 79,-129.7"/>
<text text-anchor="start" x="127.4053" y="-135.8" font-family="Helvetica,sans-Serif" font-size="11.00" fill="#000000">2 &gt;</text>
<polygon fill="none" stroke="#000000" stroke-width="2" points="9,-128.7 9,-370.7 147,-370.7 147,-128.7 9,-128.7"/>
</a>
</g>
</g>
<!-- instituicao&#45;&gt;usuario -->
<g id="edge4" class="edge">
<title>instituicao:w&#45;&gt;usuario:e</title>
<path fill="none" stroke="#000000" d="M186.8438,-323.7201C171.849,-326.7847 165.5494,-335.7 146,-335.7"/>
<polygon fill="#000000" stroke="#000000" points="196.3224,-318.7944 197.0848,-326.758 195.4921,-326.9105 194.7297,-318.9469 196.3224,-318.7944"/>
<polyline fill="none" stroke="#000000" points="197.5,-322.7 193.5182,-323.0812 "/>
<ellipse fill="none" stroke="#000000" cx="190.3328" cy="-323.3862" rx="3.2" ry="3.2"/>
</g>
<!-- campanha -->
<g id="node3" class="node">
<title>campanha</title>
<g id="a_node3"><a xlink:href="../../tables/campanha.html" xlink:title="campanha" target="_top">
<polygon fill="#ffffff" stroke="transparent" points="341,-177.2 341,-238.2 435,-238.2 435,-177.2 341,-177.2"/>
<polygon fill="#f5f5f5" stroke="transparent" points="341,-214.7 341,-237.7 435,-237.7 435,-214.7 341,-214.7"/>
<polygon fill="none" stroke="#000000" points="341,-214.7 341,-237.7 435,-237.7 435,-214.7 341,-214.7"/>
<text text-anchor="start" x="345.8244" y="-223.8" font-family="Helvetica,sans-Serif" font-weight="bold" font-size="11.00" fill="#000000">campanha</text>
<text text-anchor="start" x="400.5219" y="-222.8" font-family="Helvetica,sans-Serif" font-size="11.00" fill="#000000">[table]</text>
<polygon fill="none" stroke="#000000" points="341,-195.7 341,-214.7 435,-214.7 435,-195.7 341,-195.7"/>
<text text-anchor="start" x="344" y="-201.8" font-family="Helvetica,sans-Serif" font-size="11.00" fill="#000000">...</text>
<polygon fill="#ffffff" stroke="transparent" points="341,-176.7 341,-195.7 369,-195.7 369,-176.7 341,-176.7"/>
<polygon fill="none" stroke="#000000" points="341,-176.7 341,-195.7 369,-195.7 369,-176.7 341,-176.7"/>
<text text-anchor="start" x="344" y="-182.8" font-family="Helvetica,sans-Serif" font-size="11.00" fill="#000000">&lt; 1</text>
<polygon fill="#ffffff" stroke="transparent" points="369,-176.7 369,-195.7 410,-195.7 410,-176.7 369,-176.7"/>
<polygon fill="none" stroke="#000000" points="369,-176.7 369,-195.7 410,-195.7 410,-176.7 369,-176.7"/>
<text text-anchor="start" x="374.6105" y="-182.8" font-family="Helvetica,sans-Serif" font-size="11.00" fill="#000000">0 rows</text>
<polygon fill="#ffffff" stroke="transparent" points="410,-176.7 410,-195.7 435,-195.7 435,-176.7 410,-176.7"/>
<polygon fill="none" stroke="#000000" points="410,-176.7 410,-195.7 435,-195.7 435,-176.7 410,-176.7"/>
<text text-anchor="start" x="416.4053" y="-182.8" font-family="Helvetica,sans-Serif" font-size="11.00" fill="#000000">3 &gt;</text>
</a>
</g>
</g>
<!-- campanha&#45;&gt;instituicao -->
<g id="edge2" class="edge">
<title>campanha:w&#45;&gt;instituicao:e</title>
<path fill="none" stroke="#000000" d="M326.832,-208.3609C296.6363,-228.278 343.2213,-322.7 292.5,-322.7"/>
<polygon fill="#000000" stroke="#000000" points="333.2544,-206.7014 341.9007,-208.1855 337.1272,-205.7007 341,-204.7 341,-204.7 341,-204.7 337.1272,-205.7007 340.0993,-201.2145 333.2544,-206.7014 333.2544,-206.7014"/>
<ellipse fill="none" stroke="#000000" cx="330.1562" cy="-207.502" rx="3.2" ry="3.2"/>
</g>
<!-- pessoa -->
<g id="node6" class="node">
<title>pessoa</title>
<g id="a_node6"><a xlink:href="../../tables/pessoa.html" xlink:title="pessoa" target="_top">
<polygon fill="#ffffff" stroke="transparent" points="197,-38.2 197,-165.2 292,-165.2 292,-38.2 197,-38.2"/>
<polygon fill="#f5f5f5" stroke="transparent" points="197.5,-141.7 197.5,-164.7 292.5,-164.7 292.5,-141.7 197.5,-141.7"/>
<polygon fill="none" stroke="#000000" points="197.5,-141.7 197.5,-164.7 292.5,-164.7 292.5,-141.7 197.5,-141.7"/>
<text text-anchor="start" x="202.5" y="-150.8" font-family="Helvetica,sans-Serif" font-weight="bold" font-size="11.00" fill="#000000">pessoa</text>
<text text-anchor="start" x="257.5437" y="-149.8" font-family="Helvetica,sans-Serif" font-size="11.00" fill="#000000">[table]</text>
<polygon fill="none" stroke="#000000" points="197.5,-119.7 197.5,-141.7 292.5,-141.7 292.5,-119.7 197.5,-119.7"/>
<image xlink:href="../../images/primaryKeys.png" width="11px" height="12px" preserveAspectRatio="xMinYMin meet" x="202.5" y="-136.7"/>
<text text-anchor="start" x="217.5" y="-126.8" font-family="Helvetica,sans-Serif" font-size="11.00" fill="#000000">usuario_id</text>
<polygon fill="#ffffff" stroke="transparent" points="197.5,-97.7 197.5,-119.7 292.5,-119.7 292.5,-97.7 197.5,-97.7"/>
<polygon fill="none" stroke="#000000" points="197.5,-97.7 197.5,-119.7 292.5,-119.7 292.5,-97.7 197.5,-97.7"/>
<text text-anchor="start" x="217.5" y="-104.8" font-family="Helvetica,sans-Serif" font-size="11.00" fill="#000000">telefone</text>
<polygon fill="none" stroke="#000000" points="197.5,-75.7 197.5,-97.7 292.5,-97.7 292.5,-75.7 197.5,-75.7"/>
<image xlink:href="../../images/foreignKeys.png" width="11px" height="12px" preserveAspectRatio="xMinYMin meet" x="202.5" y="-92.7"/>
<text text-anchor="start" x="217.5" y="-82.8" font-family="Helvetica,sans-Serif" font-size="11.00" fill="#000000">municipio_id</text>
<polygon fill="none" stroke="#000000" points="197.5,-56.7 197.5,-75.7 292.5,-75.7 292.5,-56.7 197.5,-56.7"/>
<text text-anchor="start" x="200.5" y="-62.8" font-family="Helvetica,sans-Serif" font-size="11.00" fill="#000000">...</text>
<polygon fill="#ffffff" stroke="transparent" points="197.5,-37.7 197.5,-56.7 225.5,-56.7 225.5,-37.7 197.5,-37.7"/>
<polygon fill="none" stroke="#000000" points="197.5,-37.7 197.5,-56.7 225.5,-56.7 225.5,-37.7 197.5,-37.7"/>
<text text-anchor="start" x="200.5" y="-43.8" font-family="Helvetica,sans-Serif" font-size="11.00" fill="#000000">&lt; 2</text>
<polygon fill="#ffffff" stroke="transparent" points="225.5,-37.7 225.5,-56.7 267.5,-56.7 267.5,-37.7 225.5,-37.7"/>
<polygon fill="none" stroke="#000000" points="225.5,-37.7 225.5,-56.7 267.5,-56.7 267.5,-37.7 225.5,-37.7"/>
<text text-anchor="start" x="232.1105" y="-43.8" font-family="Helvetica,sans-Serif" font-size="11.00" fill="#000000">0 rows</text>
<polygon fill="#ffffff" stroke="transparent" points="267.5,-37.7 267.5,-56.7 292.5,-56.7 292.5,-37.7 267.5,-37.7"/>
<polygon fill="none" stroke="#000000" points="267.5,-37.7 267.5,-56.7 292.5,-56.7 292.5,-37.7 267.5,-37.7"/>
<text text-anchor="start" x="273.9053" y="-43.8" font-family="Helvetica,sans-Serif" font-size="11.00" fill="#000000">2 &gt;</text>
</a>
</g>
</g>
<!-- pessoa&#45;&gt;municipio -->
<g id="edge5" class="edge">
<title>pessoa:w&#45;&gt;municipio:e</title>
<path fill="none" stroke="#000000" d="M182.8289,-85.6932C160.7583,-82.4831 151.1633,-72.7 123,-72.7"/>
<polygon fill="#000000" stroke="#000000" points="189.5188,-86.1522 197.2535,-90.2916 193.5094,-86.4261 197.5,-86.7 197.5,-86.7 197.5,-86.7 193.5094,-86.4261 197.7465,-83.1084 189.5188,-86.1522 189.5188,-86.1522"/>
<ellipse fill="none" stroke="#000000" cx="186.3263" cy="-85.9331" rx="3.2" ry="3.2"/>
</g>
<!-- pessoa&#45;&gt;usuario -->
<g id="edge6" class="edge">
<title>pessoa:w&#45;&gt;usuario:e</title>
<path fill="none" stroke="#000000" d="M187.0713,-131.7063C114.3581,-147.1715 236.0891,-335.7 146,-335.7"/>
<polygon fill="#000000" stroke="#000000" points="196.3195,-126.7953 197.0879,-134.7584 195.4953,-134.912 194.7269,-126.949 196.3195,-126.7953"/>
<polyline fill="none" stroke="#000000" points="197.5,-130.7 193.5185,-131.0842 "/>
<ellipse fill="none" stroke="#000000" cx="190.3333" cy="-131.3916" rx="3.2" ry="3.2"/>
</g>
<!-- pessoa_cadastra_campanha -->
<g id="node7" class="node">
<title>pessoa_cadastra_campanha</title>
<g id="a_node7"><a xlink:href="../../tables/pessoa_cadastra_campanha.html" xlink:title="pessoa_cadastra_campanha" target="_top">
<polygon fill="#ffffff" stroke="transparent" points="484,-160.2 484,-221.2 668,-221.2 668,-160.2 484,-160.2"/>
<polygon fill="#f5f5f5" stroke="transparent" points="484,-197.7 484,-220.7 668,-220.7 668,-197.7 484,-197.7"/>
<polygon fill="none" stroke="#000000" points="484,-197.7 484,-220.7 668,-220.7 668,-197.7 484,-197.7"/>
<text text-anchor="start" x="488.8905" y="-206.8" font-family="Helvetica,sans-Serif" font-weight="bold" font-size="11.00" fill="#000000">pessoa_cadastra_campanha</text>
<text text-anchor="start" x="633.5219" y="-205.8" font-family="Helvetica,sans-Serif" font-size="11.00" fill="#000000">[table]</text>
<polygon fill="none" stroke="#000000" points="484,-178.7 484,-197.7 668,-197.7 668,-178.7 484,-178.7"/>
<text text-anchor="start" x="487" y="-184.8" font-family="Helvetica,sans-Serif" font-size="11.00" fill="#000000">...</text>
<polygon fill="#ffffff" stroke="transparent" points="484,-159.7 484,-178.7 561,-178.7 561,-159.7 484,-159.7"/>
<polygon fill="none" stroke="#000000" points="484,-159.7 484,-178.7 561,-178.7 561,-159.7 484,-159.7"/>
<text text-anchor="start" x="487" y="-165.8" font-family="Helvetica,sans-Serif" font-size="11.00" fill="#000000">&lt; 2</text>
<polygon fill="#ffffff" stroke="transparent" points="561,-159.7 561,-178.7 627,-178.7 627,-159.7 561,-159.7"/>
<polygon fill="none" stroke="#000000" points="561,-159.7 561,-178.7 627,-178.7 627,-159.7 561,-159.7"/>
<text text-anchor="start" x="591.6105" y="-165.8" font-family="Helvetica,sans-Serif" font-size="11.00" fill="#000000">0 rows</text>
<polygon fill="#ffffff" stroke="transparent" points="627,-159.7 627,-178.7 668,-178.7 668,-159.7 627,-159.7"/>
<polygon fill="none" stroke="#000000" points="627,-159.7 627,-178.7 668,-178.7 668,-159.7 627,-159.7"/>
<text text-anchor="start" x="658.8862" y="-165.8" font-family="Helvetica,sans-Serif" font-size="11.00" fill="#000000"> &#160;</text>
</a>
</g>
</g>
<!-- pessoa_cadastra_campanha&#45;&gt;campanha -->
<g id="edge7" class="edge">
<title>pessoa_cadastra_campanha:w&#45;&gt;campanha:e</title>
<path fill="none" stroke="#000000" d="M469.4993,-190.5072C458.1152,-195.3357 452.1083,-204.7 435,-204.7"/>
<polygon fill="#000000" stroke="#000000" points="476.1458,-189.2205 484.6842,-191.2344 480.0729,-188.4603 484,-187.7 484,-187.7 484,-187.7 480.0729,-188.4603 483.3158,-184.1656 476.1458,-189.2205 476.1458,-189.2205"/>
<ellipse fill="none" stroke="#000000" cx="473.0042" cy="-189.8288" rx="3.2" ry="3.2"/>
</g>
<!-- pessoa_cadastra_campanha&#45;&gt;pessoa -->
<g id="edge8" class="edge">
<title>pessoa_cadastra_campanha:w&#45;&gt;pessoa:e</title>
<path fill="none" stroke="#000000" d="M469.8604,-184.5661C461.1651,-180.0456 456.5024,-171.6912 443,-166.7 378.4904,-142.8539 361.2759,-130.7 292.5,-130.7"/>
<polygon fill="#000000" stroke="#000000" points="476.1895,-185.9689 483.221,-191.2147 480.0948,-186.8344 484,-187.7 484,-187.7 484,-187.7 480.0948,-186.8344 484.779,-184.1853 476.1895,-185.9689 476.1895,-185.9689"/>
<ellipse fill="none" stroke="#000000" cx="473.0654" cy="-185.2764" rx="3.2" ry="3.2"/>
</g>
<!-- pessoa_interessa_animal -->
<g id="node8" class="node">
<title>pessoa_interessa_animal</title>
<g id="a_node8"><a xlink:href="../../tables/pessoa_interessa_animal.html" xlink:title="pessoa_interessa_animal" target="_top">
<polygon fill="#ffffff" stroke="transparent" points="492.5,-256.2 492.5,-317.2 659.5,-317.2 659.5,-256.2 492.5,-256.2"/>
<polygon fill="#f5f5f5" stroke="transparent" points="493,-293.7 493,-316.7 660,-316.7 660,-293.7 493,-293.7"/>
<polygon fill="none" stroke="#000000" points="493,-293.7 493,-316.7 660,-316.7 660,-293.7 493,-293.7"/>
<text text-anchor="start" x="497.6515" y="-302.8" font-family="Helvetica,sans-Serif" font-weight="bold" font-size="11.00" fill="#000000">pessoa_interessa_animal</text>
<text text-anchor="start" x="625.5219" y="-301.8" font-family="Helvetica,sans-Serif" font-size="11.00" fill="#000000">[table]</text>
<polygon fill="none" stroke="#000000" points="493,-274.7 493,-293.7 660,-293.7 660,-274.7 493,-274.7"/>
<text text-anchor="start" x="496" y="-280.8" font-family="Helvetica,sans-Serif" font-size="11.00" fill="#000000">...</text>
<polygon fill="#ffffff" stroke="transparent" points="493,-255.7 493,-274.7 562,-274.7 562,-255.7 493,-255.7"/>
<polygon fill="none" stroke="#000000" points="493,-255.7 493,-274.7 562,-274.7 562,-255.7 493,-255.7"/>
<text text-anchor="start" x="496" y="-261.8" font-family="Helvetica,sans-Serif" font-size="11.00" fill="#000000">&lt; 2</text>
<polygon fill="#ffffff" stroke="transparent" points="562,-255.7 562,-274.7 624,-274.7 624,-255.7 562,-255.7"/>
<polygon fill="none" stroke="#000000" points="562,-255.7 562,-274.7 624,-274.7 624,-255.7 562,-255.7"/>
<text text-anchor="start" x="588.6105" y="-261.8" font-family="Helvetica,sans-Serif" font-size="11.00" fill="#000000">0 rows</text>
<polygon fill="#ffffff" stroke="transparent" points="624,-255.7 624,-274.7 660,-274.7 660,-255.7 624,-255.7"/>
<polygon fill="none" stroke="#000000" points="624,-255.7 624,-274.7 660,-274.7 660,-255.7 624,-255.7"/>
<text text-anchor="start" x="650.8862" y="-261.8" font-family="Helvetica,sans-Serif" font-size="11.00" fill="#000000"> &#160;</text>
</a>
</g>
</g>
<!-- pessoa_interessa_animal&#45;&gt;animal -->
<g id="edge9" class="edge">
<title>pessoa_interessa_animal:w&#45;&gt;animal:e</title>
<path fill="none" stroke="#000000" d="M478.8594,-286.481C459.2771,-295.0858 455.6578,-320.7 428,-320.7"/>
<polygon fill="#000000" stroke="#000000" points="485.1504,-285.2438 493.6947,-287.2323 489.0752,-284.4719 493,-283.7 493,-283.7 493,-283.7 489.0752,-284.4719 492.3053,-280.1677 485.1504,-285.2438 485.1504,-285.2438"/>
<ellipse fill="none" stroke="#000000" cx="482.0105" cy="-285.8614" rx="3.2" ry="3.2"/>
</g>
<!-- pessoa_interessa_animal&#45;&gt;pessoa -->
<g id="edge10" class="edge">
<title>pessoa_interessa_animal:w&#45;&gt;pessoa:e</title>
<path fill="none" stroke="#000000" d="M478.5078,-283.2808C435.6454,-281.0834 357.0973,-270.1683 333,-248.7 291.5995,-211.8162 347.9475,-130.7 292.5,-130.7"/>
<polygon fill="#000000" stroke="#000000" points="485.0033,-283.4686 492.8959,-287.2985 489.0017,-283.5843 493,-283.7 493,-283.7 493,-283.7 489.0017,-283.5843 493.1041,-280.1015 485.0033,-283.4686 485.0033,-283.4686"/>
<ellipse fill="none" stroke="#000000" cx="481.8047" cy="-283.3761" rx="3.2" ry="3.2"/>
</g>
</g>
</svg>
